<?xml version="1.0" encoding="UTF-8"?>
<svg id="Layer_2" xmlns="http://www.w3.org/2000/svg" viewBox="0 0 71.73 33.15">
  <defs>
    <style>
      .cls-1, .cls-2 {
        stroke-miterlimit: 10;
      }

      .cls-1, .cls-2, .cls-3 {
        stroke: #1d1d1b;
        stroke-width: 2.4px;
      }

      .cls-1, .cls-3 {
        fill: none;
      }

      .cls-2 {
        fill: #1d1d1b;
      }

      .cls-3 {
        stroke-linejoin: round;
      }
    </style>
  </defs>
  <g id="icon-settings">
    <path class="cls-1" d="M70.03,16.54s-15.3,15.34-34.17,15.34S1.69,16.54,1.69,16.54c0,0,15.3-15.34,34.17-15.34s34.17,15.34,34.17,15.34Z"/>
    <g>
      <g>
        <path class="cls-1" d="M50.66,13.43c.2,1,.31,2.04.31,3.11,0,8.51-6.82,15.41-15.24,15.41s-15.24-6.9-15.24-15.41c0-.59.03-1.18.1-1.76"/>
        <ellipse class="cls-2" cx="35.72" cy="16.54" rx="3.12" ry="3.16"/>
      </g>
      <path class="cls-3" d="M69.35,16.9s-14.76,14.97-33.63,14.97S2.36,17.36,2.36,17.36c0,0,14.49-4.66,33.36-4.66s33.63,4.2,33.63,4.2Z"/>
    </g>
  </g>
</svg>