<?xml version="1.0" encoding="UTF-8"?>
<svg id="Layer_2" xmlns="http://www.w3.org/2000/svg" viewBox="0 0 71.73 33.15">
  <defs>
    <style>
      .cls-1, .cls-2 {
        stroke-miterlimit: 10;
      }

      .cls-1, .cls-2, .cls-3 {
        stroke: #1d1d1b;
        stroke-width: 2.4px;
      }

      .cls-1, .cls-3 {
        fill: none;
      }

      .cls-2 {
        fill: #1d1d1b;
      }

      .cls-3 {
        stroke-linejoin: round;
      }
    </style>
  </defs>
  <g id="icon-settings">
    <path class="cls-1" d="M70.03,16.54s-15.3,15.34-34.17,15.34S1.69,16.54,1.69,16.54c0,0,15.3-15.34,34.17-15.34s34.17,15.34,34.17,15.34Z"/>
    <g>
      <g>
        <path class="cls-1" d="M51.01,18.19c-.81,7.74-7.29,13.76-15.15,13.76s-14.17-5.87-15.12-13.45"/>
        <path class="cls-2" d="M38.79,17.62c-.44,1.21-1.58,2.07-2.93,2.07-1.12,0-2.1-.6-2.65-1.49"/>
      </g>
      <path class="cls-3" d="M70.03,16.54s-15.3,15.34-34.17,15.34S1.69,16.54,1.69,16.54c0,0,15.3,1.98,34.17,1.98s34.17-1.98,34.17-1.98Z"/>
    </g>
  </g>
</svg>