<?xml version="1.0" encoding="UTF-8"?>
<svg id="Layer_1" data-name="Layer 1" xmlns="http://www.w3.org/2000/svg" xmlns:xlink="http://www.w3.org/1999/xlink" viewBox="0 0 284 226.77">
  <defs>
    <style>
      .cls-1 {
        fill: #fff;
      }

      .cls-2 {
        fill: url(#linear-gradient);
      }
    </style>
    <linearGradient id="linear-gradient" x1="89.64" y1="12.4" x2="96.39" y2="35.65" gradientTransform="translate(0 228) scale(1 -1)" gradientUnits="userSpaceOnUse">
      <stop offset="0" stop-color="#fff"/>
      <stop offset="1" stop-color="#ededed"/>
    </linearGradient>
  </defs>
  <rect class="cls-1" x="48.46" width="187.09" height="226.77"/>
  <g id="Färg">
    <path class="cls-2" d="m123.12,220.33l1.67-22,1.33-13s-13-1.33-15.33-2.67-16.33-8-20.33-14.33-7.67-13.33-7.67-13.33c0,0-5.33,7.33-5.67,9s-3.33,7.67-6.67,14-6,12.33-7,14-4.33,8.67-4.33,8.67c0,0,22,22,64,19.67Z"/>
  </g>
  <g id="Lager_1" data-name="Lager 1">
    <g>
      <path d="m190.49,65.11c.06.17.14.33.17.52-.03-.19-.09-.36-.17-.52Z"/>
      <path d="m223.53,43.59c.45-.67-.11-1.12-.11-1.57-1.57-2.69-4.36-6.26-8.16-6.15-.67-.11-1.01.89-1.68.33v.22c-.9.33-1.9,1.01-2.91,1.45-.45.22-.67,0-.9.45-4.14,1.57-8.61,4.36-12.52,7.05-.78.33-1.68,1.01-2.46,1.12-3.02,2.57-6.82,4.7-10.18,6.94-.78.56-1.9,1.34-2.8,1.68-7.38,5.37-14.43,10.18-21.47,16.1-.67,1.01-1.12-.45-1.79.67-1.12.45-2.46.78-3.69,1.12-1.34-1.9-.56-4.92-.45-7.04-.45-.67.67-1.34.22-1.9,1.01-1.01.33-2.35.89-3.58.67,0,.22-.9.34-1.12.45-2.01,1.57-4.36,2.12-6.38.33-.67.22-1.68.9-2.24,0-1.01.56-2.24.78-3.24.56-.9.45-2.35,1.01-3.13.67-2.68-.11-5.59,1.79-8.05.56-2.46,1.45-4.47,2.24-6.93.11-.45.67-1.12.45-1.23.56-.67.22-1.34.56-2.01,0-.56.78-1.01.56-1.57.45-.45.34-1.23.45-1.79.22-.56,1.34-.9.67-1.57.22-.89.56-2.12.67-3.24-.11-2.01,1.23-4.25.11-6.15,0-1.79-1.45-2.91-2.35-4.25h-.34c-.78-.56-1.9-1.01-2.68-.89-2.24-.78-5.59-1.12-7.61.11-.45,1.12-1.45,2.24-2.12,3.13-4.59,6.82-7.05,15.55-11.07,23.04-1.9,4.92-4.36,9.84-6.6,14.87-1.34,4.47-3.8,8.95-5.59,13.09-.89,1.12-1.01,2.68-2.01,3.35l.11.11c-1.12,1.9-2.01,4.14-3.35,5.7-.45.89-.89,2.01-1.68,2.57-2.46,4.47-5.7,8.27-8.39,12.19-1.01-1.12-.89-2.57-1.57-3.8-.33-.56,0-1.12-.33-1.57l-.22-.11c-1.34-5.15-2.91-9.62-3.58-14.76l.45-.56c-.78-1.23-.9-2.01-1.12-3.58-.22-.56-1.01.22-.78-.67-.45-.11-.33-.78-.78-.9-1.23-2.57-3.47-4.69-5.14-6.82-1.9-1.12-3.69-2.8-5.7-3.8-3.58-2.24-7.83-2.79-11.85-2.24-.67.67-1.45.11-2.01.9-1.23-.11-2.57,1.23-3.13,2.46-.11.22,0,.9-.56.78,0,.9.11,1.9-.22,2.68.11.45,1.01.78.45,1.23l.56.11c2.68,3.13,6.26,6.49,9.17,8.94,0,.34.34.67,0,.9.45,3.69.67,7.61,1.12,11.74-.11.11-.11.22-.22.22.45.78.33,1.45.33,2.46.11.9.34,1.68.11,2.57.33,3.8.78,6.93.67,10.51,1.01,14.43.56,26.73-1.23,40.6-.45,3.35-.9,6.49-1.45,10.07-1.01,1.01-1.01,2.68-1.68,3.91-.9,2.57-1.01,5.82-2.91,7.94-.22-.34-.67-.45-1.01-.22-.56,1.01.56,1.9.45,2.91,6.6,15.88,22.93,28.41,40.26,28.74,1.01,1.12,1.79-.56,2.8,0l-.22.34c-1.01,3.47-.67,7.94-1.45,11.41,0,.78-.11,1.57-.11,2.24-.43,5.04-.89,10.01-1.36,14.92.8-.37,1.6-.74,2.4-1.11.38-3.67.69-7.37,1.09-11.24.45-4.47.67-8.61,1.57-12.86.34-1.23,0-3.02.56-4.25-.45-1.57-1.9-.11-2.8-.78-.11-1.57.22-3.13.34-4.81,1.01-1.01-.22-2.8,1.01-3.69-.22-.34,0-.45.22-.67-.34-.78.45-1.57.67-2.35,1.01,0,1.79-1.12,2.68-.67l.22-.56c3.36-1.9,6.15-3.69,9.51-5.82,1.68-1.01,3.36-2.35,4.92-3.58,1.23-.34,2.13-1.68,3.47-2.12,1.12-1.01,2.57-2.01,3.8-3.13,1.57-1.12,3.02-2.8,4.81-4.03,2.01-2.8,4.92-5.26,7.05-8.16.67-1.34,2.12-2.13,3.36-2.8,1.01-.78,2.57-2.01,2.35-3.47,1.46-1.45,2.91-3.02,3.8-4.81,1.79-1.79,3.02-3.8,5.14-4.92.34-1.01,1.45-1.57,2.24-2.35,1.45-2.35,3.35-4.81,4.02-7.6.56-2.46-.56-4.92-1.68-7.04-.78-.78-1.34-2.35-2.91-2.01-.9,1.57.23,3.02,1.23,4.25.11.67,1.23,1.34.45,2.12.34,1.57-.11,2.91-.67,4.36-.22.22-.34.33-.22.67-1.12,1.57-2.24,3.13-3.58,4.47-.11.11-.22.67-.67.67-1.46,1.34-2.91,3.13-4.36,4.36-.67,1.23-1.79,2.46-2.69,3.58-.22.9-.78,1.79-1.23,2.68-.56.11-1.01.34-.89,1.01-.56.78-1.46,1.79-2.35,2.01-.78,1.23-2.57,1.12-3.24,2.57-.45.89-1.34,1.79-1.79,2.68-3.8,4.14-7.04,8.39-11.63,11.52-.45.11-1.01.22-1.01.78-3.24,2.46-6.93,4.7-10.4,7.27-2.91,1.9-6.04,4.14-9.06,5.48l-.11-.34c-.22-.56-.89-.78-1.57-.78-1.12.78-1.23,2.12-1.79,3.24-.33.34-.78,0-1.01.56-.56.67.45.56.67.9-.56,3.24-1.34,6.93-1.34,10.4-4.25-.45-8.16-1.12-12.08-2.68-2.01-.34-3.58-1.68-5.48-2.24-9.06-4.7-17.45-13.76-21.36-23.15.22-.23.33-.45.56-.23,1.45-.34,1.57-2.01,1.9-3.24.11-.78.9-1.12.67-2.12.22-.34.78-1.01.45-1.46.56-1.9,1.68-3.8,1.79-5.81.11-.22.45-.56.11-.78.45-1.34.22-3.24,1.01-4.7.22-2.91.9-5.82,1.12-8.61-.22-1.01.56-2.01.34-2.91.11-1.23.56-2.01.33-3.35.11-3.02.9-6.26.67-9.17,0-1.01-.11-2.24.33-3.13-.56-3.02,0-5.93-.22-8.72l-.11-.11.33-.33-.22-.34c0-2.79-.11-5.71-.45-8.39.45-.67-.34-1.23.11-1.79-.33-3.13-.22-6.15-.78-8.95.45-.67-.45-1.45.11-2.01-.67-1.79-.45-4.03-.56-6.04-.45-.78,0-1.9-.45-2.91.11-.22.56-.56,0-.78-.11-.45,0-1.01.22-1.34-.45-1.12-.22-2.01-.56-3.13,1.01-3.02-2.46-4.81-4.03-6.82-.56-1.01-1.9-1.23-2.35-2.46-.9-.33-1.68-1.34-2.01-2.24-.56-.33-1.34-.78-1.57-1.45-.22-1.12.56-2.46,1.57-3.47.45-.11,1.12-.56,1.68-.11.11-.78,1.12-.33,1.57-.78,4.36,0,8.72,1.79,12.19,4.59,3.35,2.24,6.15,5.82,8.61,9.06.9,4.14,1.45,7.83,2.57,11.97.78,2.68,1.79,5.48,2.24,8.16.9,1.34,1.23,3.24,2.24,4.7l-.78,1.57c-.34.56-.9,1.23-.9,1.79-.11.11-.22.34-.56.22-.11.34.11.56.34,1.01.45-.45,1.45.22,1.12-.67.11-.34.56-.89.78-.67v-.22c.56-.22.67-.89,1.12-1.45.45-.67,1.34-.22,1.57-1.12l-.56-.34c2.24-4.03,5.48-7.27,7.61-10.96,2.46-3.13,4.47-6.94,6.82-10.4,5.82-10.74,9.73-22.7,15.32-33.66-.11-.45,1.01-.45.33-1.01,2.13-5.03,4.47-9.95,6.94-14.87.11-.56.45-1.34,1.01-1.34l.45,1.79c.45,2.68,3.47,2.46,5.37,3.24,3.69,1.23,4.69-3.02,6.37-4.81-.11,2.46-.22,4.7-1.23,7.05-.45.56.11,1.45-.56,1.79-.56,3.13-1.79,5.93-2.79,8.83-.22,2.35-1.34,4.03-1.9,6.38-1.23,11.07-8.16,20.91-7.27,32.66-.11.56.67,1.12,0,1.57l.22.11c-1.01.67-.78,1.79-.56,2.68,1.68.11,3.47-.34,5.14-1.01,7.27-3.69,12.97-9.06,19.91-13.87.9.22.78-1.12,1.57-.78,1.68-1.56,3.58-2.91,5.59-3.92.9,0,.56.78.56,1.23.9,1.79,2.46,3.24,3.69,4.92h.34c.29,1.36,1.67,1.62,2.18,2.62-.35-.97-1.1-1.74-1.96-2.5-1.01-1.9-3.02-3.35-3.46-5.48,1.01.78,2.01,1.68,3.02,2.46-.78-1.45-2.24-2.46-3.69-3.35-.11,0-.45.22-.67,0,6.04-4.14,12.3-8.05,18.34-11.85,3.24-1.56,6.49-3.47,9.73-4.81.9-.45,2.01-1.34,2.8-.67-1.9.67-3.8,1.79-5.37,3.47-1.01,1.12-2.24,2.24-2.35,3.69l.45-.44.67.56c.56,2.12,2.46,3.58,4.25,4.7,2.68-.22,4.92-1.45,7.38-2.35.34.11.11.67.45.56.56-.22.11-1.01.78-1.12l.22.11c-1.12,2.35-3.13,3.47-5.15,5.26l-.11-.11c-.11.33-.34.45-.67.67-.9.78-2.35,1.79-3.24,2.46-1.01.45-1.9,1.57-3.02,2.01-1.12.67-2.12,1.9-3.35,2.79-.9,0-1.23.9-1.9,1.12-1.57,1.12-2.91,2.57-4.7,3.69l-.78-.22c-2.12,1.45-3.8,3.8-6.26,5.14-2.46,2.57-5.7,3.35-8.28,5.7-.22-.11-.45-.45-.56-.56-.56.67-1.57,1.34-2.01,2.01-2.24,2.12-4.14,3.58-6.49,5.48-.45.9-1.34,1.34-2.01,2.13-.45.89-1.68.45-1.79,1.45-.11.22-.11-.11-.22,0-1.23,1.57-3.24,3.02-4.59,4.36-.67-.11,0,.78-.78.56-.22.89-.89.89-.78,1.9.45.45,1.34.45,1.79.33,2.35-1.68,4.47-3.24,7.16-4.25.45.45,1.23.45,1.45,1.12,1.12.67,2.24,1.57,3.02,2.57.34,1,1.57,1.56,1.01,2.57h.22c.9.89-.34,2.12.78,2.69l.22,2.79c-.34,1.79.11,4.36-1.34,5.93-1.57.44-2.57,1.68-4.25,1.9-1.12,1.01-2.91,1.57-4.14,2.46-1.01.34-2.01,1.12-3.13,1.12-.33.34-1.01.9-.67,1.34-.56.67.78.56.78,1.23,1.01-.67,2.12-.78,2.91-1.79,2.01-.89,3.36-2.01,5.37-2.68,1.01-.89,2.57-1.34,3.47-2.35,1.45.56,1.68-.89,2.57-1.56,2.01-3.8,1.01-7.94.22-12.08-.34-.56-1.01-1.12-.78-1.79-.22-.11-.45,0-.34-.33-1.68-1.57-2.79-3.58-5.03-4.36-1.23.22-.89-1.12-1.9-1.23,2.91-2.91,6.82-5.71,9.73-8.72,1.23-.45,2.24-1.23,3.35-1.46.45-.89,1.68-1.01,2.24-1.57,2.01-1.12,3.91-2.91,5.93-4.03.67-.89,1.68-1.57,2.46-2.35,1.68-1.68,4.25-3.02,6.15-4.58,2.79-1.68,5.7-4.03,8.5-5.7,4.02-4.14,11.07-5.82,11.97-12.53l-.56-3.02Z"/>
      <path class="cls-1" d="m162.81,9.03c.78,0,.89.89,1.68.78.78.89,1.34,2.24,1.01,3.58-1.01,1.57-2.46,3.24-3.69,4.7-1.79,1.34-3.8-.45-5.7-.78-2.12-1.57-1.34-4.7-.67-6.82.67-1.23,2.01-1.34,3.24-1.12.89-.22,1.68.23,2.35.56.11,0,.11-.11.11-.22-1.01-.9-2.68-1.12-3.8-.9.89-.56,2.68-.89,3.8-.11.34.78,1.12,0,1.68.34Z"/>
      <path d="m165.04,12.95c-1.01-1.34-2.12-2.46-3.8-3.02.22-.22.89,0,1.23.22,1.12.45,2.35,1.68,2.57,2.8Z"/>
      <path d="m149.05,36.88c-1.68.11-3.58-1.46-4.59.34,0,.9,1.12.67,1.57,1.23,2.68.78,5.37,1.9,7.72,2.79,0,.45-.56-.22-1.01-.11-2.68-1.23-5.93-1.68-8.61-3.02-.34-.22-.56-.67-.22-.9.11,0,.22.22.45.11-.11-.67.78-1.12,1.34-1.34,1.12.34,2.35,0,3.36.9Z"/>
      <path d="m149.84,37.1l-.56-.22.11-.22c.34.22.45,0,.45.45Z"/>
      <path d="m151.74,37.55v.22c-.11-.22-.33-.22-.56-.22.22-.11.45-.22.56,0Z"/>
      <path d="m153.41,38.11h-.45c.22-.22.33-.11.45,0Z"/>
      <rect x="153.97" y="38.33" width=".11" height=".22"/>
      <path class="cls-1" d="m218.5,42.81c.56,1.45,1.23,3.13,1.23,4.81-.78.78-2.13.45-3.02,1.23-1.56.22-3.24,1.01-4.81.45-1.57-1.34-2.57-3.02-3.58-4.7,1.23-2.35,3.91-3.69,6.26-4.81.45-.11.78.11,1.23.45.23-.34.34-.78.11-1.12l-.34-.22c1.34,1.01,2.01,2.57,2.91,3.92Z"/>
      <path class="cls-1" d="m221.3,45.49c.11.45.34,1.23,0,1.68-.23.34-.45.34-.78.22-.67-3.02-1.12-5.7-2.8-8.16,1.79,1.34,3.91,3.58,3.58,6.26Z"/>
      <polygon points="156.54 39.9 155.99 39.45 156.32 39.68 156.54 39.9"/>
      <path d="m156.88,40.35l.11.45-.11-.45Z"/>
      <rect x="157.44" y="40.68" width=".11" height=".22"/>
      <polygon points="154.42 41.69 154.42 41.58 154.76 41.69 154.42 41.69"/>
      <path d="m183.5,60.93c.78,2.68,3.24,5.26,5.03,7.72-1.01-.89-2.01-1.9-2.57-3.02-1.01-.22-.23-1.23-1.34-1.34-.9-1.9-2.01-3.69-1.34-5.7.33.56-.22,1.57.22,2.35Z"/>
      <path d="m189.2,60.93c-.34,0-.67-.67-.78-1.01l.78,1.01Z"/>
      <polygon points="182.94 61.48 182.83 60.93 182.94 61.26 182.94 61.48"/>
      <polygon points="189.87 62.15 189.43 61.37 189.87 62.04 189.87 62.15"/>
      <path d="m191.89,66.96c-.67-.33-.22-1.45-.67-2.12.56.56.45,1.46.67,2.12Z"/>
      <rect x="182.04" y="66.96" width=".11" height=".22"/>
      <path d="m81.5,156.77c-.22-1.01-1.9-1.45-2.35-.34-.67,1.9-1.57,3.24-2.01,5.15-.67.78-.67,1.9-1.34,2.8-.22,1.34-.89,2.46-1.23,3.69-2.35,4.92-4.47,9.73-7.27,14.31-1.72,3.59-3.44,7.03-5.4,10.4.21,1.15.42,2.31.65,3.45.82-1.3,1.6-2.6,2.29-3.9.56-1.34,1.34-2.46,2.12-3.8.11-.9.9-1.57,1.12-2.35.56-.56.56-1.57,1.23-2.01,1.23-2.68,2.35-5.26,3.92-7.83.67-1.68,1.57-3.02,2.12-4.7.11-.56,1.01-.56.67-1.12.78-1.46,1.45-3.24,2.01-4.59.11-.34.11-.9.67-.78l-.11-.67c.67-1.01.67-2.46,1.68-3.47.23-1.34,1.12-2.8,1.23-4.25Z"/>
    </g>
  </g>
</svg>