<?xml version="1.0" encoding="UTF-8"?>
<svg id="Layer_1" data-name="Layer 1" xmlns="http://www.w3.org/2000/svg" xmlns:xlink="http://www.w3.org/1999/xlink" viewBox="0 0 284 226.77">
  <defs>
    <style>
      .cls-1 {
        fill: #fff;
      }

      .cls-2 {
        fill: url(#linear-gradient);
      }
    </style>
    <linearGradient id="linear-gradient" x1="114.73" y1="9.8" x2="128.73" y2="41.8" gradientTransform="translate(0 228) scale(1 -1)" gradientUnits="userSpaceOnUse">
      <stop offset="0" stop-color="#fff"/>
      <stop offset="1" stop-color="#ededed"/>
    </linearGradient>
  </defs>
  <rect class="cls-1" x="71.13" width="141.73" height="226.77"/>
  <g id="Färg">
    <path class="cls-2" d="m149.13,220l3.5-30.5s-23-1.5-27-5-17.92-13.07-18.21-16.29-10.79,18.79-10.79,18.79c0,0-9.5,13.5-10,15s20,24,62.5,18Z"/>
  </g>
  <g id="Lager_1" data-name="Lager 1">
    <g>
      <path d="m153.72,4.04c1.23.22,2.12,1.01,2.91,1.68,1.79,1.68,2.35,4.25,2.24,6.49l.34.22c-.22,1.34-.45,2.68-.11,3.91-.67,1.12-.34,2.91-.67,4.03.45.56-.34.67-.34,1.23-.22,1.9-.22,3.8-.56,5.7,0,1.23-.45,2.57-.33,4.25-.45,1.45-.11,3.47-.67,5.03.33.22,0,.22,0,.56-.56,6.15-.89,12.97-.78,19.01,0,1.23.11,2.8,0,4.14.45,2.01-.22,4.03.22,6.15.33,3.13,0,5.59.67,8.83,4.14-1.01,8.39-1.23,12.41-1.79,1.68.22,3.58-.22,5.48.11,1.45.67,2.79,1.68,4.14,2.57-.34.45.22.89.56.89.34.67.45,1.57,1.23,1.79.78,2.24,1.68,4.03,1.68,6.6-.22.67-.89,1.23-.78,1.9,2.8.89,4.81,3.58,6.49,5.93,1.12,1.79.89,4.7-.33,6.6,1.23.33,1.79.22,2.79.67,2.68,1.79,5.7,4.03,6.04,7.16.11,1.45.22,2.91-.34,4.25.22.22-.22.67-.33,1.01.22,1.79-1.45,2.57-1.57,4.14-.67,2.01-1.9,3.8-2.35,6.04-2.01,1.68-.78,4.59-2.12,6.38-.56.9-1.46,1.79-1.68,2.8-.78.22-1.23,1.01-1.23,1.57-1.46,1.23-1.01,4.03-1.46,5.82-.56,1.68-1.23,3.24-2.01,4.81l.11.45c-.78,0-.56.9-1,1.23.11.45-.67,1.01-.56,1.56-2.69,5.26-5.93,9.62-9.62,14.32l.22.22c-1.01.45-1.79,1.57-2.24,2.57-.67-.11-.33.78-.89.9-1.68,1.34-2.8,3.02-4.14,4.59h-.34c-2.46,2.68-4.58,5.93-7.49,7.49l-.78-.34c-.11.34-.67.67-.22,1.12-1.23,1.01-.67,2.46-1.34,3.69-.22.45-.56,1.12-.45,1.57-.34.34-.11,1.12-.56,1.57.56.56.22,1.79,1.23,2.01l.22.34c-.78,0-.78,1.01-1.12,1.45-.22,1.68-.67,3.13-.89,4.81-.78,2.24-.67,4.59-1.23,6.93.56.67-.45,1.57-.11,2.35-.11,2.35-.89,3.91-.67,6.04h.11c-.67,0,.11.9-.45,1.23.11.67-.11,1.56-.11,2.24-.11.67-.11,1.79-.89,2.12-.89.67-.78-.67-1.23-.9.56-1.45,0-3.47.45-5.03.22-5.48.78-10.4,1.9-15.77-.11-1.23,1.01-2.57.11-3.69l.11-.45c-3.92-.11-7.38.78-11.18.22-10.4-.9-19.91-5.93-27.4-14.09l-5.03-6.15c0-.34-.11-.56-.33-.9-.56.9-1.01,2.24-1.23,3.02,0,.22,0,.67-.33.67-.33,1.12-1.23,2.01-1.34,3.02-1.79,3.13-3.47,6.6-5.37,9.62-.45,1.34-1.34,2.24-1.9,3.58-1.79,2.57-2.91,6.04-5.93,7.83-1.01.11-.22-.9-.33-1.34.9-.9.9-2.35,1.9-3.24l-.11-.67h.33c4.36-7.6,8.83-15.1,12.08-23.26.33-.45.67-1.34,1.34-1.01.34-.78.9-.34,1.46-.45,0,.22.45.22.45.56,1.68-2.68,2.35-5.48,3.35-8.61,4.81-15.88,6.38-31.2,7.83-47.31-.33-.45.11-1.12,0-1.57.45-4.36.11-9.06,1.57-13.31,1.12-1.01,2.24-2.46,3.69-3.36,1.23-1.34,3.35-1.57,3.35-3.8,2.46-8.61,4.47-17.33,5.48-26.17-.11-.34.11-1.12.11-1.57.11-2.24.11-4.36.33-6.37-.56-.78.11-1.68,0-2.57l-.33-1.57c.45.22.67-.67,1.23-1.01.11-3.47.78-7.16,1.34-10.51l-.11-.11.45-.56c.56-3.92,2.12-7.83,1.9-11.74l.22-.22c.22-2.01.33-4.03.89-5.7-.11-1.12.67-2.35.33-3.58.56-.67.45-1.79.78-2.57-.45-.22.33-.45.22-.9,1.34-3.02.89-7.05,4.03-9.28,1.57.22,2.46-1.34,3.91-.67,1.68-.11,3.36-.34,4.7.56Z"/>
      <path class="cls-1" d="m153.72,6.39c-.45.22-1.01-.22-1.57-.45l-4.03.11c-.11-.11,0-.11.11-.11-.11-.22-.33-.11-.45-.11.56-.56,1.12.11,1.68-.34,1.68-.11,2.91.22,4.25.89Z"/>
      <path class="cls-1" d="m155.29,7.95c.45.56,1,1.34.45,2.12-1.34,1.45-2.35,3.47-3.92,4.92-.89-.78-2.24-.34-3.24-1.12-1.12-.45-2.68,0-3.02-1.57-.22-1.68-.22-3.24.34-4.81,2.91-1.23,6.71-1.34,9.39.45Z"/>
      <path class="cls-1" d="m144.44,10.3c-.34,1.56.11,3.36,1.45,4.36l6.04,1.79c1.01-.34,1.56-1.34,2.12-2.24l2.01-3.47c.89,4.36-.22,8.39-.34,12.75-.11.67-.33,1.45-.22,2.12,0,1.01-.22,2.12-.56,3.13.22,3.69-.56,7.49-.56,11.3-.56.22.22.45,0,.78-.9,4.81-.56,9.73-.9,14.2.45,1.9.22,3.69.34,5.7-.45,1.23.34,2.24-.11,3.35,0,3.8.78,7.94.45,11.97-.45.22-.78.34-1.23.78,0,.56.78.78,1.01,1.01,2.12-.45,4.36-.78,6.6-1.23.56.45,1.12-.22,1.79-.33.78-.11,1.68,0,2.35-.11l.11.22c1.79-1.01,5.26-.67,7.49-.56l.56.33.22-.33c.11.67.67-.33,1.01.22.45.67.9,1.01,1.68,1.01,0,.56,1.23.45,1.01,1.46,1.9,1.45,2.35,3.91,2.91,5.82-1.12,1.9-3.8,2.24-5.48,3.24-1.23,1.01-3.02.89-3.92,2.24,1.23.78,2.8.45,4.25.22,1.68-.67,3.13-.89,4.81-1.57.78,1.57,2.68,1.45,3.58,2.91,1.9,1.34,2.35,3.58,3.02,5.26-1.57,3.36-3.13,7.05-5.48,9.95.11.33.34.56.56.78,2.24,0,3.13-2.46,4.47-3.8.34-.89,1.01-1.79,1.57-2.46.45,2.01,3.47,1.79,4.25,3.58,1.45.22,1.12,1.57,2.12,2.24,1.45,4.03-1.56,7.49-2.35,11.07-.67,1.9-1.57,3.58-2.35,5.37-.44-.22-.56.11-1.01.22-.89.67.22,1.45,0,2.24-.45,1.34-1.23,2.57-1.57,3.8-1.9,2.24-3.13,5.15-2.91,8.39-.78,2.68-2.01,5.15-3.47,7.72.34.56-.67.56-.33,1.23-.34.22-.34,1.01-1.01.9.11.22.22.78-.34.78-.22,2.01-1.56,3.13-2.46,4.7-3.02,4.81-6.6,9.17-10.51,13.42-2.68,2.57-5.26,5.37-7.6,8.16,0-.56-.67-1.01-1.12-1.23h-1.23c.22.56-.44.67-.67,1.12-.56,2.01-1.12,3.8-1.57,5.82-.67.78-.56,2.12-1.01,3.13-.22.67-.22,1.57-.67,2.24.34.22.11,1.23.11,1.68-16.44,2.12-31.76-5.48-41.04-18.45-1.45-1.68,1.12-3.24,1.57-4.92,1.01-3.24,2.24-6.49,3.13-9.62,1.01-4.14,2.01-8.61,3.02-12.97.11-.34,0-1.01.33-1.34.45-2.46.56-5.26,1.34-7.6-.45-.11-.11-.67-.11-1.01.11,0,.33-.34.11-.56l.56-.22-.45-.34c.34-3.13.9-6.6.9-9.62.56-.22.11-.67.11-1.12.33-2.57.78-5.71,1.01-8.39,0-1.9.33-3.8.45-5.7.78.11-.11-.56,0-.89.22-2.68.78-5.48,1.23-8.16.78-.78,1.68-1.79,2.8-2.46-.67.89,0,2.35-1.23,2.8l1.12,1.23c.67-.11,1.23-.56,1.68-1.12.45-1.79,1.23-3.8,1.79-5.59l.33-.22c-.22-.56.11-1.34.34-1.9,1.01-4.14,2.24-8.05,3.24-12.19-.11-1.01.56-2.01.33-2.91.11-.67.78-1.34.45-2.01.78-.67.11-1.79.56-2.46.33-1.9.56-4.25.78-6.49.11-1.45.45-2.68.45-4.14l.22-.22c-.22-.9-.11-2.24.22-3.24-.22-.78-.33-1.68,0-2.46l.11.11c.34-.22-.22-.45,0-.78.34-1.01-.11-2.12.56-2.91-.22-2.24.56-4.58.78-6.93.33-1.23.11-2.24.78-3.47-.22-.22-.11-.22-.11-.56.11-.22.56,0,.56-.34.22-2.24.67-4.47,1.23-6.6l-.33-.67c.78-6.26,1.56-12.3,3.02-18.56.44-.78.56-1.9,1.23-2.35Z"/>
      <path d="m146.34,40.83c-1.79-.22-3.8.22-5.37.9,1.57-1.01,3.47-1.79,5.37-1.12v.22Z"/>
      <path d="m147.46,40.94c-.33.22-.56-.22-.78-.33.33-.11.45.22.78.33Z"/>
      <path d="m151.15,43.07l-.11.22c-2.35.33-4.47.22-6.71-.22-1.01.56-2.13-.22-2.91-.56,3.13.56,6.6.78,9.73.56Z"/>
    </g>
  </g>
</svg>