<?xml version="1.0" encoding="UTF-8"?>
<svg id="Layer_1" data-name="Layer 1" xmlns="http://www.w3.org/2000/svg" xmlns:xlink="http://www.w3.org/1999/xlink" viewBox="0 0 284 226.77">
  <defs>
    <style>
      .cls-1 {
        fill: #fff;
      }

      .cls-2 {
        fill: url(#linear-gradient);
      }
    </style>
    <linearGradient id="linear-gradient" x1="103.56" y1="10.2" x2="110.89" y2="31.54" gradientTransform="translate(0 228) scale(1 -1)" gradientUnits="userSpaceOnUse">
      <stop offset="0" stop-color="#fff"/>
      <stop offset="1" stop-color="#ededed"/>
    </linearGradient>
  </defs>
  <rect class="cls-1" x="49.87" width="184.25" height="226.77"/>
  <g id="Färg">
    <path class="cls-2" d="m137.54,218.33l5.33-24,3-14s-7.67,5.67-19.67,5-14-3.67-20-6.67-14.33-13.33-15.33-14-2,7.33-2,7.33c0,0-11.67,29.33-14.67,32s32.33,21.33,63.33,14.33Z"/>
  </g>
  <g id="Lager_1" data-name="Lager 1">
    <g>
      <path d="m171.2,5.89c.11.56.22,1.12.56,1.57-.33,1.45,1.12,2.91,0,4.25,0,1.79-.22,3.13-.89,4.81-1.12,3.24-1.68,7.05-2.91,10.18-.78,3.58-2.68,7.05-3.35,10.63-1.45,3.58-2.46,7.05-3.02,10.62-.67.56-.56,1.23-.78,2.01-1.68,7.83-4.36,15.54-6.15,23.26.22.22.56.45.78.22,6.71-12.75,10.96-26.62,16.89-39.37.11-.9.45-.9.78-1.68.45-1.01.78-2.12,1.12-3.13,1.34-1.57,1.79-3.69,3.13-5.37l-.11-.33c.9-.34,1.34-1.79,2.46-1.9,2.46-1.23,5.26-1.34,7.94-.11l.78-.33c-.11.78.9,1.34,1.57,1.68,0,.67.45,1.57.78,2.24-.11,1.45.22,2.91.22,4.14-.11.9-.78,1.79-.67,2.68-.67.9-.45,1.9-.89,2.69-1.57,5.14-3.58,10.4-4.59,15.66-.34.56-.56,1.34-.78,2.01l.34.45c-1.23.45-.11,1.9-1.12,2.46-.22,1.79-1.45,3.13-1.34,4.92-1.57,3.13-2.35,6.6-3.8,9.73-.9,2.24-1.79,4.03-2.69,6.38-.67,1.01-1.12,2.24-1.23,3.36-1.57,1.68-1.9,4.03-3.24,6.04-.22.78-1.23,1.01-.45,1.9-.78,1.23-.67,2.91-.45,4.25-.34.56.11,1.23.56,1.68,3.8-2.35,7.94-4.92,11.85-7.27,0-.56,1.01-.34,1.34-.89,1.68-1.68,4.47-2.46,6.15-4.03,4.36-3.13,8.5-6.04,12.3-9.06l.45-.11c3.35-3.47,6.71-6.71,11.41-7.16.9.45,2.12.89,3.35.78,2.01,1.57,5.7,2.91,4.59,6.6.11,1.79-1.23,3.02-1.57,4.58-.67,1.34-2.24,2.46-2.24,4.03h-.56c-8.5,7.61-17.11,14.76-25.39,22.14v.22c-.78-.33-.78.78-1.34,1.01-2.24,2.24-4.36,4.25-6.49,6.6-.78.33-1.68,1.45-2.46,1.9-.67.45-1.23,1.01-1.9,1.57-2.46,6.82-5.7,13.76-9.17,20.35-3.69,5.81-8.28,11.63-12.08,17.11l.11.11c-3.69,4.7-6.82,10.29-10.18,14.87.45.78-.34,1.12-.67,1.79-.78,1.57-1.01,3.35-1.79,4.81-.67,2.24-1.57,4.7-1.9,6.82-.45,1.01-1.45.45-2.12.34.11-.67-1.45-.9-.34-1.46-.34-.67.56-.56.56-1.23.45-2.01,1.23-3.69,1.9-5.59.22-.67.67-1.68.78-2.35,1.12-1.79.89-4.03,2.68-5.48.67-.11,1-.67,1.12-1.23,4.81-7.72,10.18-15.43,15.77-22.7-.11-.56.67-.67.78-1.12,4.25-5.7,7.27-11.97,10.07-18.45,1.79-3.47,2.68-7.38,4.47-10.96.33-.33.89-.78,1.34-.33.11.33,0,.89.45,1.01,1.9-1.9,3.58-3.8,5.7-5.82-.22-.45.34-.33.56-.67,8.5-8.5,18.68-16.55,27.62-25.16.34-.22.89-.67,1.01-1.23l-.11-.11c-1.45.33-2.57,1.68-4.36,1.23-2.01-.89-3.24-3.02-3.58-5.03.11-2.24.34-4.58,2.46-5.59v-.11c-1.79.33-3.13,1.9-4.59,2.91-.56.78-2.01,1.23-1.79,2.57-.45,1.01-1.9.45-2.24,1.68-.34.11-.67.45-1.01.33-5.37,3.91-10.51,7.72-15.99,11.07-5.26,2.91-10.4,6.37-15.32,9.51-.56-1.01-2.13-.78-2.01-2.01-1.12-.56-.45-1.9-1.23-2.46.45-2.01,0-3.91,1.45-5.59h.34c.78-3.13,2.68-5.82,3.58-8.83,1.23-1.79,1.79-4.14,2.8-6.04.45-1.57,1.34-3.13,1.79-4.58,1.01-2.35,1.68-4.81,2.35-7.38-3.13-3.13-7.49-5.37-12.08-4.36l-.11.22c1.9,1.34,4.36,2.46,6.6,3.47v.22c-2.35-.67-4.36-1.9-6.71-2.68l-.12.78c-.56-.11-.22-1.01-.89-1.12-.34.33-1.01.67-.56,1.12h-.34c-2.01,4.25-3.24,8.95-6.15,12.75l.11.22c-1.45.78-1.68,2.91-2.91,4.25l.22.22c-1.12,1.01-1.01,3.58-3.24,3.36-.9-.56-2.01-1.01-2.13-2.12.22-1.12,2.01-.89,1.57-2.35.34-.67.56-1.45.45-2.01,1.01-2.8,1.68-5.93,2.46-8.83.89-2.57,1.12-4.58,1.9-7.27,0-.78.56-1.79.11-2.57.89-1.12.67-2.57,1.01-3.91-2.91-1.34-5.93-2.35-8.72-4.14,1.57.78,3.8,1.56,5.59,2.57,1.12-.11,2.24.56,3.36.45.22-.22.33-.9-.11-1.23-2.8-2.35-6.49-2.8-9.95-3.35h-2.13v-.22c3.58.45,7.38.11,10.51,2.01.89-.34,1.34.56,2.12.78.56-2.12,1.9-3.91,2.01-6.04,1.12-3.69,2.12-7.16,3.58-10.74.67-2.68,1.79-5.82,2.35-8.72,1.34-3.24,2.24-6.71,2.24-10.62l-.22-.34c-1.79,1.9-2.12,4.14-3.35,6.26l.22.78c-2.57-.34-5.59-.78-8.28-1.57-.67-.56-.67-1.45-1.23-2.12-1.34.56-.78,1.9-1.57,2.8-.34,1.23-.78,2.35-1.45,3.35.33.67-.78,1.23-.34,1.79-1.34,1.57-1.34,3.35-2.01,5.15-1.01,1.68-1.45,3.69-2.24,5.48-1.23,3.91-3.02,7.72-4.14,11.52l.11.33c-.56.33-.67,1.34-.78,1.9-2.91,8.61-5.26,17.11-7.94,25.72l-.33.22-4.25-1.57c.11-1.23.56-3.02.9-4.14-1.23-7.04.11-14.54-.11-21.47-3.24-1.34-7.16-1.45-10.62-1.9-.34.33.22,1.01-.22,1.23-.33-1.01-1.23-1.57-2.12-1.79.45,0,1.01.34,1.57.11.67-2.46,3.24-2.57,5.26-3.02.89-.11,1.34.67,2.24.11,1.45.22,2.68.45,4.14,1.01.56-3.13.22-6.49.56-9.62-.45-1.12.33-1.79,0-3.02-.34-1.34,0-2.68-.22-4.36,1.79-1.12.78-3.92,1.57-5.59.11-1.12.45-2.46.45-3.69l-.33-.11c-.78.67-1.01,2.46-2.57,2.12-2.57.11-4.92-.9-7.49-1.12-.34-1.34-.34-2.91-.45-4.36-2.46,6.37-3.24,12.97-4.47,19.91l.22.22c-.56,1.23-.33,2.8-.56,4.02-.67,2.46.11,4.58-.67,7.05l.56.45c-.22,0-.33-.22-.45,0-.67,7.72-1.56,16.1-2.46,23.71.22.67-.33,1.34-.33,2.12-.34,1.57.11,3.69-.78,4.92.45.67-.67,1.12-.34,1.9-.67.67-.33,1.68-1.23,2.35.22.33-.22.78-.56,1.01-.78.33-1.12,1.34-1.57,2.12-.9,1.79-2.12,4.03-3.13,6.04-1.68,3.69-3.24,7.94-6.49,10.74-.33.33-.78.22-1.34.22,0-.33-.67-.89-.11-1.23,0-.22.45-.67.78-.89,1.01-2.01,2.69-4.03,3.24-6.26.33-.45.78-.89.78-1.57h-.22c.78.11.56-1.01,1.01-1.23.33-1.12,1.12-2.01,1.45-3.13,1.9-3.13,3.35-6.38,5.14-9.73,2.01-3.58,1.34-8.5,2.24-12.19.34-4.03,1.01-7.27,1.23-11.3-.34-.22-.11-.45.11-.67.22-2.46.22-5.03.56-7.27-.22-.34-.56-.45-.78-.45,1.23.22.78-1.56,1.01-2.24,0-3.58.89-6.82.89-10.62.67-2.12.89-5.15,1.45-7.38.78-3.69,1.57-6.49,2.35-9.95l.22-.11c.78-2.12,1.45-4.36,2.46-6.38,1.23-.89,2.8-.45,4.03-1.23,1.45-.11,2.91-.11,4.36.11.45.45,1.12.67,1.79.67.11.67.89,1.01,1.34,1.45.78,1.34,1.12,2.91,1.34,4.36h.22c-.45.45-.11.9-.11,1.45.67.89-.33,1.9.11,2.91-.45.78.11,1.45-.45,2.12-.34,3.13-.9,6.15-1.68,9.4,0,2.12.33,4.03,0,6.15.33.78-.22,1.9.11,2.68-.56,1.68-.11,3.69-.45,5.26.11,1.01-.33,1.9,0,2.91-.33.22-.33,1.01-.22,1.57-.11.78-.11,2.01,0,2.8-.45.45-.11,1.01-.22,1.56-.11.9-.11,2.01,0,3.02-.56,4.81-.45,9.28-.22,14.09.45.89.34,1.79.45,2.68,1.34-2.35,1.68-5.26,2.35-7.72,1.01-2.46,1.68-5.14,2.12-7.72.89-.78.67-2.24,1.23-3.35-.22-.56.67-1.12.67-1.79,4.03-12.75,8.84-25.39,13.76-37.47h-.22c1.12-1.01,1.12-2.57,1.9-3.8l-.22-.34c.56-.34,1.12-.78,1.12-1.57,1.01-.78,2.12-.9,3.02-1.9.67-.22,1.34-.22,1.9-.56,3.36.11,6.93,1.23,8.83,4.36Z"/>
      <path class="cls-1" d="m166.16,4.88c.67,0,1.23.45,1.79.78.45.11.56.45.78.89v.56c-1.9-1.79-4.36-1.79-6.71-2.12l-.9.11c0-.34.34-.67.67-.78.56.34,1.12-.11,1.46-.34.9.11,2.13.34,2.91.89Z"/>
      <path class="cls-1" d="m133.84,6.11c-2.01-.22-4.47-.78-6.49-.34-.34.45-.89.22-1.45.11.89-.34,1.57-.11,2.46-.78,1.68-.11,3.91-.56,5.48,1.01Z"/>
      <path class="cls-1" d="m167.62,7.23c.9.67.34,1.57.11,2.35l-2.8,5.7c-2.12-.45-4.36-1.01-6.38-1.79-1.57-2.24-.11-4.47.11-6.82,1.9-1.9,5.15-.78,7.38-.11l1.57.67Z"/>
      <path class="cls-1" d="m134.74,9.13c-.34,1.68-1.34,3.13-2.24,4.47-2.57.45-4.81-.67-7.27-1.01-.22-1.9-.34-4.25.11-6.15,2.01-.22,3.58-.22,5.7,0,1.45.34,3.58.89,3.69,2.68Z"/>
      <path class="cls-1" d="m183.27,23.23c1.57-.45,3.13.34,4.47,1.12.11.45.23.78.23,1.23-1.9-1.01-4.25-1.34-6.26-1.9.22-.33,1.01-.33,1.56-.56v.11Z"/>
      <path class="cls-1" d="m188.2,27.14c.67,1.01-.78,1.57-.34,2.57-.67,1.34-1.12,3.02-2.8,3.36-1.9,0-4.25.11-5.26-1.9-.22-1.9-.34-3.69,0-5.48.22-1.79,2.12-1.23,3.35-.9,1.68.56,3.58,1.01,5.03,2.35Z"/>
      <path class="cls-1" d="m180.59,33.85c2.01.45,4.36,1.01,6.26-.11-1.23,4.25-2.68,8.72-3.8,13.08-.9,4.03-2.35,7.94-3.36,11.85-1.34-1.01-2.91-2.8-4.81-3.24-2.46-1.01-5.48-2.46-8.28-1.01,0-1.01.56-2.01,1.12-2.91.45-1.79,1.23-3.24,1.79-5.03.33-.78,1.23-1.45,1.01-2.46,2.24-5.26,4.58-10.62,7.27-15.77l.34-.67c0,2.24-.11,5.03,2.46,6.26Z"/>
      <path class="cls-1" d="m132.61,40.45l-.11,1.9c-3.58-.33-7.27-.33-10.74-1.12,1.45-3.02,4.81-2.35,7.72-2.24,1.12.33,2.24.67,3.13,1.45Z"/>
      <path d="m147.6,43.35l.45.22-.45-.22Z"/>
      <rect x="149.28" y="44.25" width=".11" height=".11"/>
      <polygon points="174.78 59.35 174.33 59.12 174.66 59.24 174.78 59.35"/>
      <path d="m175.78,59.68c-.22.22-.56-.11-.67-.22.11.22.56-.11.67.22Z"/>
      <path d="m73.79,59.91c0,.56.67.45,1.01.56,2.24-.11,4.03,1.45,6.04,1.9.11.9,1.34.56,1.9,1.12,3.02,1.79,5.48,4.47,8.05,6.82,3.47,4.7,5.48,10.96,8.05,15.99.78,1.57,1.34,3.36,2.69,4.47.11.56-.56.78-.67,1.12-1.01.34-1.56-.89-2.24-1.57-1.34-2.8-2.57-5.7-3.69-8.28-1.01-.11,0-.78-.56-1.23-1.79-3.24-2.91-7.04-5.81-9.51-3.13-2.57-6.37-5.59-9.73-6.82-.78-.22-1.23-.9-2.13-.78l-.11-.22c-3.24-.67-6.6-2.01-9.73-.56-1.79,1.01-2.57,2.8-3.58,4.36-.11.56.11,1.01.45,1.34.56-.11.34.56.56.89,1.45,1.23,3.02.45,4.59,1.23,2.35,1.34,4.47,2.35,6.71,3.8.11-.56.67-1.12,1.34-1.12.22.34,1.12.22,1.01.89.34,1.9.23,4.03,1.12,5.48-.45.33.23.67.11,1.12,3.36,18.01,6.82,36.12,12.75,53.79.9.78.78,2.01,1.46,2.79-.34.9.22,1.68.45,2.46.11,2.01.33,4.02.89,5.93h.22c-.11,3.24,1.23,6.49,1.12,9.84.11,1.68,0,3.58.33,5.37-.33.56-.78,1.12-1.01,1.68-1.01,0-1.79-.56-1.9-1.57,1.23-1.12,0-2.57.34-3.8-.11-2.8-.34-5.82-1.12-8.61-.67-5.37-1.56-10.85-3.47-15.88-4.14-14.09-7.83-27.62-10.4-42.16-1.01-4.36-1.79-8.83-2.68-13.31-3.13-1.79-5.82-4.14-9.51-4.81-.78-.67-1.68-.45-2.57-.89-.89-.78-2.24-1.57-2.68-2.68h-.22c.56-1.45-.56-3.35,1.23-4.25,1.12-.9.67-3.24,2.57-3.02,1.01-.67,2.13-1.34,3.36-1.45l.33-.34c1.45.11,3.24-.45,4.59.11l.56-.22Z"/>
      <rect class="cls-1" x="213.92" y="67.18" width=".11" height=".11"/>
      <path class="cls-1" d="m218.39,69.3c1.23.22.9,1.68,1.57,2.35l-.11.22c-1.68-1.57-3.02-3.47-5.15-4.36,1.12.56,3.13.45,3.69,1.79Z"/>
      <path class="cls-1" d="m219.06,73.66c-.23,3.13-3.58,3.13-5.82,4.14-1.79-.45-2.79-2.46-3.24-4.03l.45-3.13c1.12-.67,1.68-2.46,3.13-2.68,2.57.56,4.81,3.24,5.48,5.7Z"/>
      <path d="m201.62,89.99l.11,1.12c-.56-.56-.78-1.34-.89-2.12-1.23-2.12-3.13-4.7-5.59-5.93-.23-.22,0-.56.22-.56,3.24,1.23,4.92,4.59,6.15,7.49Z"/>
      <rect x="168.29" y="96.03" width=".11" height=".22"/>
      <path d="m92.24,163.13c8.83,14.76,25.39,23.37,42.61,20.24,3.24-.56,6.49-1.57,9.62-2.46.56-.78.78-2.57,2.35-2.57,1.12,1.12-.11,2.35.22,3.47-.45,1.12-1.01,2.46-1.34,3.58.11,1.01-.67,1.56-.45,2.57-.56,1.57-1.01,3.35-1.23,4.92-1.57,4.59-2.57,9.62-3.58,14.2.22.34,0,.45-.22.67-.11,1.57-.78,2.8-1.01,4.36-.34.11-.67.34-1.12.11l-.56-.67c.78-1.01.34-2.8.67-4.03,1.01-6.93,3.58-13.31,4.81-20.13.45-1.57.78-3.58,1.45-5.26-12.75,6.38-30.31,3.91-41.27-4.59-4.47-3.13-7.72-7.38-10.96-11.41-.45,2.46-1.46,4.48-2.35,6.71,0,.78,0,1.57-.78,2.12-.45,1.23-.78,2.57-1.34,3.69-1.68,4.25-3.02,8.16-5.03,12.19-.45,1.79-1.34,3.35-2.24,4.92-.22,2.35-2.01,4.14-3.24,5.93-.56-.11-1.57.23-1.9-.56-.11-.67.11-1.45.89-1.45,2.57-4.81,4.81-10.29,6.82-15.43.45-1.01,1.12-2.24,1.23-3.24l1.12-2.46c-.56-.45.45-.45.33-1.01,2.24-4.59,3.02-9.84,5.03-14.32.45,0,1.01-.33,1.45-.11Z"/>
    </g>
  </g>
</svg>