<?xml version="1.0" encoding="UTF-8"?>
<svg id="Layer_1" data-name="Layer 1" xmlns="http://www.w3.org/2000/svg" xmlns:xlink="http://www.w3.org/1999/xlink" viewBox="0 0 284 226.77">
  <defs>
    <style>
      .cls-1 {
        fill: #fff;
      }

      .cls-2 {
        fill: url(#linear-gradient);
      }
    </style>
    <linearGradient id="linear-gradient" x1="107.82" y1="7.28" x2="111.82" y2="26.94" gradientTransform="translate(0 228) scale(1 -1)" gradientUnits="userSpaceOnUse">
      <stop offset="0" stop-color="#fff"/>
      <stop offset="1" stop-color="#ededed"/>
    </linearGradient>
  </defs>
  <rect class="cls-1" x="66.88" width="150.24" height="226.77"/>
  <g id="Färg">
    <path class="cls-2" d="m141.88,224l2-20.33,2.33-22.67-17.49,5.57s-14.17-.23-20.84-4.9-9.67-8.67-12.33-11-4.67-6-4.67-6l-4.33,12.67-7.33,21-3.33,8.67s25,19.67,66,17Z"/>
  </g>
  <g id="Lager_1" data-name="Lager 1">
    <g>
      <path d="m207.12,59.08c-1.01-.11-.9-1.23-1.23-1.79-.78-.78-1.57-2.24-2.68-2.35-.45-.9-1.23-.33-2.01-.67-.45-.56-.34,0-1.01,0-1.45-.11-2.68,1.23-3.91,1.9-1.34-.22-1.57,1.45-2.57,1.68-.67,1.34-2.24,2.35-3.13,3.47-.67.33-1.01,1.12-1.68,1.23-.22.78-1.01,1.12-1.34,1.68-1.01.78-2.01,2.46-3.58,3.02-.33,1.46-1.68,1.46-2.35,2.8-.22.11-.56,0-.45.34l-3.02,2.91c-.67.45-1.12,1.68-2.12,2.12-.56,1.12-1.79,2.46-2.68,3.02v.11c-2.8,2.8-4.47,5.59-7.16,8.72-.45.67-1.01,1.12-1.68,1.23-.67-2.46,1.12-4.36,1.23-6.6,0-.33.56-.22.11-.56,1.23-3.58,2.57-7.49,3.8-10.96.78-1.68,2.24-3.13,2.46-5.03,1.34-2.57,2.24-5.48,3.13-8.28v-.9c2.46-4.36,3.47-9.17,5.14-13.76,1.01-3.24,1.45-6.37,2.79-9.62.22-1.01.11-2.13.67-2.91.11-.45.45-.9.11-1.34,0-.9-.11-2.35-.56-3.35-.11-1.23-1.45-1.45-1.34-2.57-1.12-.45-2.01-1.34-3.24-1.68-.78-.22-1.57.11-2.01-.78-.22,1.34-1.45-.22-2.01.45-2.13-.33-3.8,1.12-5.26,2.57h.33c-.89,1.68-2.46,3.47-3.24,5.15-5.14,10.74-9.17,22.14-14.09,33.33-1.23,2.24-1.9,4.81-3.47,6.82-.45-.45.33-1.01-.11-1.45.67-4.47,1.23-8.95,1.57-13.31,0-1.01.89-.22,1.34-.22.56-.78-1.12-.56-1.01-1.23l1.34-12.75c1.45-2.68,2.01-5.81,2.68-8.72.45-1.9.22-3.91,1.12-5.48.45-4.14,1.57-8.27,1.9-12.3-.11-1.68.67-3.58,0-5.03-.45-.56-.67-1.23-.78-1.79l-.56-.34c-.56-.89-1.45-1.68-2.35-2.46-.33-.34-.89,0-1.01-.56-1.57-.34-3.36-.89-5.03-.34-1.79-.45-2.68,1.56-4.14,2.01.11.45-.33.78-.56,1.01.22,1.34-2.01,1.45-1.23,2.57-.56,1.34-1.23,2.8-1.68,4.25l-.34.11.11.23c-.67,2.57-1.68,5.37-2.46,8.16-.67,1.57-.67,3.8-1.68,5.26l.22.23c-2.12,8.61-2.91,16.89-4.7,25.39.11.45-.78.22-.22.67-1.23,6.04-2.35,11.86-4.02,17.78h-.11v.67c-.22-.11-.34,0-.34-.11l-.22.11c-.33.11-1.12.22-1.56,0,.11-.78-.11-1.56.11-2.35l-.22-.22c.22-5.14.11-9.95.22-14.87l-.11-.22c.34-.78-.22-1.68.11-2.35-.11-1.01-.56-2.8.45-3.13l-.56-.45c.11-2.12-.22-3.91-.45-6.04-.22-2.35.22-4.92.67-7.27-.22-1.34.11-2.68.45-4.02-.22-1.9.56-3.36.56-5.15.11-.67-.22-2.01.45-2.46-.22-1.45.22-3.24.22-4.81-.11-.45.78-.23.22-.56,0-.45-.22-1.12.11-1.45-.11-1.01-.22-2.24-.45-3.13.11-.22.11-.45-.11-.56-.11-.67-.67-.78-.56-1.45-1.12-1.57-3.02-3.02-4.92-3.13-.56-.34-1.56-.22-2.46-.11-1.9.22-3.69,1.12-5.14,2.24-.9,1.01-2.35,2.57-1.56,4.02-1.68,8.5-2.69,16.44-3.8,25.39-.22,1.79-.33,3.8-.78,5.48.11,2.01-.33,4.14-.67,6.15.56.34-.11.45-.22.78l.34.33c-.22,2.24-.78,4.58-.56,6.82-.11,0-.11.22-.34.22-.45,4.81-.45,9.4-.67,13.98-.22,5.15-.22,10.18-.56,15.88v3.69c-.67.89-2.01,1.57-2.68,2.68v.45c-1.79,2.91-1.23,6.49-1.45,9.84.56,3.91.67,8.17.67,11.74-.9,13.53-2.8,27.4-7.05,40.15.11.45-.9.45-.34,1.01-.45,1.12-.78,2.46-1.34,3.35-.11-.11-.34-.11-.34-.22-.56-.34-1.23-.22-1.68.22-.45,2.01-1.12,3.8-1.34,5.7-.23.23-.34.34-.56.34,0,.34.33.67.22,1.01-1.9,4.59-2.68,9.06-4.59,13.64-2.07,5.51-4.1,10.94-6.22,16.33.34.82.66,1.64.96,2.48,1.38-3.25,2.72-6.5,3.8-9.75.78-.67.22-1.79,1.12-2.46.78-1.57,1.01-3.58,1.9-5.03-.23-.56,1.01-.45.34-.89.67-1.12.9-2.01,1.23-3.13.78-1.45,1.01-3.8,2.12-5.37-.11-.67.45-1.45.33-2.01.78-1.9,1.01-3.8,1.79-5.48,6.15,12.97,20.47,20.91,34.56,20.13.67.11,1.57-.56,2.24-.22,3.91-.67,7.72-1.68,11.18-3.47,0-.9,1.01-.56,1.57-.9.11.56.67,1.12,1.23,1.12,1.12-.45.78-1.79,1.34-2.57-.11-.11-.22-.11-.22-.34.22-.45.56-1.01.11-1.45.22-.67.45-1.68.33-2.46.67-1.57.56-3.02,1.23-4.59.11-1.9,1.57-3.24,2.68-4.81h.22c.67-1.45,1.79-2.8,2.8-4.14h.22v-.22c.11-.45.45-.67.67-.78,1.79-2.8,3.69-5.82,5.26-8.5.22-.56,1.01-1.12,1.12-1.34,1.34-2.91,2.91-5.82,4.25-8.5,1-1.57,1.34-3.35,2.35-4.7.56-1.57,1.01-3.35,1.79-4.92,0-.45.78-.34.33-.9.89-2.35,1.79-4.81,2.46-7.27,0-.45.78-.89.45-1.23,1.01-3.35,1.79-7.49,2.46-11.18,3.13-4.81,5.7-9.28,9.28-13.98.67-.78,1.12-1.9,2.01-2.35.11-1.23,1.34-2.24,1.9-3.47,2.01-1.45,2.91-3.69,4.92-5.03,0-.11.11-.33-.11-.56.34-.22.78-1.23,1.23-.78-.45-.22.22-.56.11-.89,1.9-1.9,3.13-4.92,5.26-6.71,2.35-3.58,5.48-7.16,7.49-11.18.33-.45.67-.78.67-1.34.67-.78,1.01-1.79,1.12-2.57.56-1.12.45-2.68.67-3.91,0-.55-.77-1.22,0-1.56Z"/>
      <path class="cls-1" d="m153.33,6.18c.67-.34.56.67,1.12.89l.11.34c-2.13-.89-4.14-2.01-6.71-1.79-.22.11-.22.34-.22.67,2.57.11,5.03.89,6.93,2.68-.22,2.35-1.01,4.59-2.01,6.6.33.45.56-.34.9-.34,1.01-1.34,1.23-2.91,1.79-4.36,0,1.23-.22,3.02-.33,4.25-.22,1.79-.33,3.47-.89,5.03.11,1.9-.67,3.8-.67,5.59-.22.11-.45.23-.56.34.56.34.33,1.01,0,1.34,0,2.12-.67,4.36-1.01,6.38-.45.34-.78.56-.78,1.12l.11.22c-.34,2.13-.78,4.47-1.01,6.6-.56,3.58-.67,6.71-1.34,10.18-2.01-.45-3.47,0-5.37-.45-2.57.34-5.03-.56-7.27-1.56.33-1.01,1.68-1.01,2.68-1.34,2.8-.67,6.71-.78,8.61,1.45.22.45-.33,1.12.45,1.12.56-.34.56-.9.33-1.45-1.9-2.8-6.04-2.13-9.28-1.9-1.34.89-4.36,0-3.8,2.57,1.57,1.34,3.8,1.34,5.82,1.57l7.71.67c-.78,8.83-2.24,17.22-2.46,26.51l.78.33c.34-1.34.11-3.24,1.57-3.91.22-.67,1.01-1.57.56-2.01.78-1.23,1.23-2.69,2.24-3.69.11-1.12.78-2.12,1.23-3.02.45-.67.56-1.9,1.34-1.9-.11-1.23.56-2.46,1.34-3.24-.22-.56.33-1.12.56-1.68,1.12-2.69,2.35-5.48,3.58-8.05l-.22-.11c.89-1.45,1.12-3.24,2.24-4.59.56-1.79,1.12-3.35,2.01-4.92.22-.89.45-2.12,1.23-2.91.11-1.56,1.34-3.02,1.68-4.36,1.34-2.8,2.57-6.26,4.69-8.83.22-.9,1.01-1.57,1.57-2.35-.56,1.34-1.45,2.8-1.9,4.25-.56,1.45-.11,3.13.33,4.59.56.33,1.23.78,1.79,1.23,1.79.45,4.7,1.9,6.04-.22.56-.78,1.01-1.56,1.68-2.35-1.9,6.93-3.58,13.87-5.7,20.8-.78,0-1.12.56-1.57,1.01.34,1.79-.89,3.69-1.34,5.26-.45.78,0,1.9-.78,2.46-2.24-3.8-6.93-5.03-11.07-4.36-.11.34-.45.11-.67.22l-.22-.11c-.45.22-.22.67,0,.9.33.56.78.11,1.23.33,3.58,1.34,6.82,3.13,10.07,5.03-.89,1.68-1.01,4.03-2.57,5.14-.45.78-.56,1.68-1.23,2.24-.33,1.23-.56,3.02-1.45,3.92.22,1.01-.34,2.35-.89,3.35.34.67-.56,1.23-.22,2.01-.67,2.13-1.46,4.47-2.01,6.71-.22,1.34-1.34,2.46-.45,3.8,1.68.22.56,2.12,2.12,2.57.9.78,1.34-.78,2.24-.22,1.12-.33.9-1.56,1.9-2.24-.33-.11-.22-.67-.11-.89,3.36-3.8,6.26-8.16,10.18-11.97,3.02,2.35,6.38,4.14,9.4,6.6.22,1.01,1.12,2.24.22,3.24-3.24,5.03-6.71,9.73-10.07,14.65-1.34,1.9-2.68,4.03-3.8,6.04-.78.34-1.12-1.34-1.79-.56-.78,0-.34.67-.67,1.12,0,1.34-.67,2.68-1.01,4.03.22,1.23-.34,2.57-.45,3.92-.34.67-.11,1.56-.56,2.12-.45,2.01-1.01,4.47-1.57,6.38-.11.11-.34.22-.34.45.11.67-.56,1.34-.56,2.12-1.34,3.8-2.57,7.94-4.47,11.41-1.45,4.36-4.03,8.28-6.15,12.52-.56-.11-.22.67-.56.78-2.91,5.03-6.38,9.51-9.51,14.2-.45-.34-1.12.45-1.56-.22-.45.78-.56,1.79-1.12,2.35.33.11.11.56.11.78-.22.11-.22.67-.22,1.12-.78,1.23-1.57,2.13-2.46,3.13-.45.67.11,1.23.34,1.79.34-.23.78-.23,1.01,0-.11.67,0,1.34-.45,1.9.33.34-.22.34-.11.56.22,1.12,0,2.01-.11,3.02-1.12.23-1.45,1.57-2.69,1.23-10.18,4.7-22.25,4.25-31.65-1.68-4.92-3.13-9.95-7.27-12.41-12.86-1.12-.56-1.23-2.68-2.68-2.12,0-.45,0-.9.45-1.23.67.11,1.01-.9,1.34-1.46,1.01-1.34,1.12-3.13,1.9-4.7,5.37-12.52,6.38-26.84,7.72-41.38l-.11-17.67c.45-.67.78-1.23,1.57-1.68-.45,1.23.67,2.12.67,3.24,1.34-.34,1.01-2.01,1.68-2.91-.22-2.24-.11-4.14,0-6.15-.11-4.7.45-8.83.45-12.97,0-1.57.22-3.58.11-5.26-.22-1.9.56-3.91.11-5.48.33-.56-.22-1.57.22-2.24.78-5.37.33-10.96,1.45-16.22-.78-.78.9-1.01,0-1.79-.11-1.12.33-2.35.45-3.58.11,0,.11-.11.22-.11l-.22-.22,1.23-9.95h.11c-.22-1.79.78-3.24.67-5.15.9-4.36.9-8.28,2.01-12.19v-.78c.56.78.9,1.9,1.9,2.24,1.9.67,4.36.22,6.26,0,.22.45-.45,1.23.45,1.34.78-.23.45-1.45.89-2.01l1.01-2.24c.34,3.8-.34,7.83-.78,11.63-.34,4.03-.11,8.5-1.12,12.19.11,1.9.67,4.14.22,6.15-3.58-.56-7.27-.22-10.4.78-.45.22-.9.67-.9,1.23-.56.22-1.68-.78-1.79.34.67.56,1.56.56,2.24.78h10.85c.22.78.22,1.79,0,2.46.22.67.22,1.34.11,2.01,0,1.12.22,2.57-.11,3.8.34,5.03.11,9.51.11,14.43-.33.11-.45.45-.56.9,1.01,1.23.45,2.8,1.23,4.03,2.46,1.01.9-3.13,2.91-2.01-.34.56.56.45.56,1,0,.67,0,1.23-.22,1.68.11.34.67.11,1.01.11,2.01-5.7,3.35-11.97,4.7-17.67,0-.34.11-1.01.45-1.23-.22-.67,0-1.56.22-2.35.89-3.02.67-5.81,1.9-8.83-.45-.78.56-1.23.22-1.9.56-3.58,1.34-7.38,2.01-11.07.45-1.57.45-3.47,1.01-5.03.11-.45.22-1.34.56-1.79,1.01-4.7,2.68-9.84,4.47-14.54,0,1.57,1.9,3.02,3.36,3.8,1.79.56,3.91.67,5.7.22-1.34-1.23-4.03-.22-5.48-1.57-1.34-.89-2.69-2.01-2.24-4.03-.33-.34-.56-.78-.22-1.12l.67-.78c-.11-.45.45-1.23.56-1.79.45-1.01,1.57.34,1.57-.67l-.44-.23c.67-.78,1.79-.56,2.8-.9,1.23,0,2.57.34,3.58,1.34Z"/>
      <path class="cls-1" d="m122.24,9.53c-1.68.34-3.69.23-5.48.78,1.68-1.12,3.58-1.01,5.48-.78Z"/>
      <path class="cls-1" d="m123.69,11.65c.45,1.79-.45,3.58-1.01,5.15-2.69-.33-5.93,1.34-7.27-1.79-.34-1.12-.22-2.12-.22-3.13,2.35-1.34,6.26-2.24,8.5-.22Z"/>
      <path class="cls-1" d="m181.18,26.87c-.22,2.46-2.01,4.36-3.69,6.37-1.45.9-2.8-.45-4.14-.56-.89-.45-1.45-1.23-1.68-2.12-.22-2.68.78-4.92,2.01-6.93,1.45-1.34,3.58.11,5.14.45,1.01.67,2.24,1.34,2.35,2.8Z"/>
      <path class="cls-1" d="m123.02,45.65c-.11.56.33,1.34-.22,1.68-3.69-.33-6.38-.11-10.29-.45-.11-.78,1.12-.78,1.57-1.23,2.68-.78,6.26-1.01,8.95,0Z"/>
      <path class="cls-1" d="m201.98,57.06c1.23,1.01,2.35,2.24,2.35,3.91-.56-.22-1.23-1.12-1.9-1.57-.78-.78-1.01-1.9-2.12-2.35.56-1.12.89.56,1.68,0Z"/>
      <path class="cls-1" d="m170.89,61.65c-.33.22-.22.9-.67.56-3.13-1.68-5.93-3.8-9.17-5.03,1.12-.11,2.24-.56,3.35-.11,2.68.22,5.48,2.01,6.49,4.58Z"/>
      <path class="cls-1" d="m198.51,57.85c-.11.11-.34.11-.45.22-.11-.22.22-.22.45-.22Z"/>
      <path class="cls-1" d="m203.09,61.98c-.23,3.02-3.91,3.8-6.38,4.7-1.01-.45-1.79-1.34-2.46-2.12.78-.67.67-2.01,1.45-2.8,1.01-1.45,2.12-2.68,3.69-3.58,1.68.78,2.24,2.68,3.69,3.8Z"/>
      <rect class="cls-1" x="197.28" y="58.4" width=".11" height=".22"/>
      <path class="cls-1" d="m194.15,65.67c.89,1.12,2.01,1.79,3.47,1.9,1.68-1.46,4.14-1.46,5.93-3.02-1.68,4.36-4.92,7.94-7.27,11.74-1.68,2.01-3.13,4.81-5.03,6.82-1.23-.67-1.23,1.01-2.12,1.45-.45-.78-1.68-.56-1.57-1.79-1.45-2.8-4.25-4.7-7.27-4.92l-1.45-1.56c2.01-2.46,5.37-5.14,7.38-7.38l.56-.34-.11-.11c2.46-2.01,4.36-4.81,6.71-6.49.45-1.23,1.57-1.9,2.8-2.46-1.23,1.57-2.8,3.92-2.01,6.15Z"/>
      <rect class="cls-1" x="148.97" y="68.58" width=".11" height=".22"/>
      <path class="cls-1" d="m186.54,82.34c-1.57-.89-3.47-1.79-4.81-3.35,1.9.34,3.8,1.57,4.81,3.35Z"/>
      <path class="cls-1" d="m188.67,85.47c-.22-.22-.56-.67-.45-1.01.11.33,1.01.67.45,1.01Z"/>
      <path class="cls-1" d="m164.51,88.94h-.33v-.34q.22.11.33.34Z"/>
      <path d="m146.84,180.31c.56,2.12-.22,4.14-.56,6.26.22.34.22.78.22,1.23-.45.45-.22.9-.45,1.45-.22.9.11,1.57-.22,2.46-.22,3.24-.67,6.6-.78,9.73-.22,3.24-.45,5.71-.78,8.84.11.34,0,1.12,0,1.57-.56,2.35-.67,4.47-1.79,6.49-.22,0-.56-.34-.56-.56,0-1.45.22-2.91.11-4.36.11-1.68.56-3.47.22-4.92.67-3.8.89-7.49.89-11.52.45-3.24.33-5.7.78-9.17-.22-1.12.45-2.24.33-3.47v-1.01c0-.45.45-1.01.45-1.56-.22-1.12,1.01-2.12,2.12-1.45Z"/>
    </g>
  </g>
</svg>