<?xml version="1.0" encoding="UTF-8"?>
<svg id="Layer_1" xmlns="http://www.w3.org/2000/svg" xmlns:xlink="http://www.w3.org/1999/xlink" viewBox="0 0 300 240">
  <defs>
    <style>
      .cls-1 {
        stroke-width: 2px;
      }

      .cls-1, .cls-2, .cls-3, .cls-4 {
        fill: none;
        stroke: #000;
      }

      .cls-5 {
        fill: url(#linear-gradient-2);
      }

      .cls-2 {
        stroke-width: 3px;
      }

      .cls-6 {
        fill: #fff;
      }

      .cls-3 {
        stroke-width: 1.9px;
      }

      .cls-4 {
        stroke-width: 1.3px;
      }

      .cls-7 {
        fill: url(#linear-gradient);
      }
    </style>
    <linearGradient id="linear-gradient" x1="192.11" y1="462.16" x2="203.65" y2="434.31" gradientTransform="translate(0 -259.26)" gradientUnits="userSpaceOnUse">
      <stop offset="0" stop-color="#fff"/>
      <stop offset=".52" stop-color="#f3f3f3"/>
      <stop offset="1" stop-color="#ededed"/>
    </linearGradient>
    <linearGradient id="linear-gradient-2" x1="90.73" y1="85.57" x2="50.52" y2="66.15" gradientTransform="translate(0 242) scale(1 -1)" gradientUnits="userSpaceOnUse">
      <stop offset=".58" stop-color="#ededed"/>
      <stop offset="1" stop-color="#fff"/>
    </linearGradient>
  </defs>
  <rect class="cls-6" x="31" y="1" width="238" height="238"/>
  <polygon class="cls-7" points="224.84 220.94 231.14 162.95 200.48 159.04 184.17 147.04 180.67 154.58 174.39 167.54 156.29 192.32 224.84 220.94"/>
  <polygon class="cls-5" points="66.41 223.25 77.81 181.06 96.05 136.89 66.09 127.47 52.12 120 47.97 126.6 40.97 138.17 35.08 147.04 66.41 223.25"/>
  <path d="M143.3,45.36c-.19-.28-.19-.94.28-.94-.38-.38-.76-.94-1.32-1.23-1.89-.76-3.87-1.32-5.76-1.89-9.45-3.12-19.65-.19-29.57-.85-.76-.09-1.7.19-2.46,0-.47.38-.66.94-.85,1.42-3.97-.19-8.22-.28-12.18,0-3.78.47-6.8,2.93-9.73,5.1-1.42,0-2.65.47-4.06.76-2.74.76-3.59,4.06-5.95,5.48-3.21,1.23-7.18,2.27-8.78,5.86h-.28s-.09,0-.09-.09c-1.89,3.31-2.36,7.08-3.31,10.77-1.98,13.7-2.93,26.92-3.4,40.71-.7,2.44-1.6,4.72-2.52,7.04,2.48,18.99,26.1,18.81,44.14,19.35,1.18-3.7,2.71-7.28,4.47-10.72.19,0,.38-.47.57-.09,2.74-1.8,5.48-3.21,7.93-5.2.94-.47,2.08-1.32,3.02-2.08h.28c.47-.66,1.23-1.32,2.08-1.61,2.93-2.64,6.14-5.38,9.35-8.12l.09-.47c1.89-3.12,3.59-6.23,5.2-9.63.09-.38.66-.38.38-.94,1.61-2.55,2.08-5.38,3.31-8.03.38-.19.38-.47.28-.76.19-.47.66-.57,1.04-.85,2.83-4.34,5.29-9.16,8.03-13.79.76-1.51,1.7-2.64,1.98-4.44h-.09c.66-8.5.47-16.91-2.08-24.75Z"/>
  <path d="M207.73,43.09c.94-.76,1.32.57,1.98.94.19.76,1.61,1.51.47,2.27.94.09.38,1.04.38,1.51-1.13,3.4-1.98,6.8-3.21,10.2-.19,2.17-1.51,4.16-1.42,6.52-1.04.28-.47,1.98-1.89,1.79v.09c-.94.09-1.32.85-2.36.85-.57.09-.94-.28-1.23-.57v-.94c1.42-.47,2.65-1.23,3.87-1.98,1.32-5.38,2.83-10.67,4.63-15.96l.66-1.23c-.66-1.04-1.23-2.55-2.93-2.55-2.83-.57-5.67-2.46-8.78-1.89-.85.28-1.61.66-2.17,1.23-3.12.94-3.97,4.53-5.38,6.99-.76,1.13-1.51,2.36-1.79,3.68-.66-.09-.28.66-.66.85-.47,1.61-1.51,3.12-1.7,4.72-1.32,2.93-2.55,5.95-3.49,9.16-.28.85-1.42,2.08-.47,3.02l-.94.94c-1.42,2.74-1.89,6.14-3.4,8.97-.28.09-.57-.19-.66-.38-.19-2.36.94-4.82,1.42-7.08-.38.28-.94.47-1.04,1.04-1.51,4.63-1.61,9.35-1.61,14.26.94,2.27.66,4.91,1.7,7.18.38,3.31,1.23,6.61,2.17,9.82,1.79,8.22,5.48,15.77,7.65,23.9.57,3.87-.57,8.31-.38,11.81,0,.47-.47.66-.85.85-1.51-1.6-.57-4.16-.76-6.23.19-1.51.19-3.12.66-4.53.09-.28-.38-.57,0-.76-3.21-9.35-6.99-18.89-9.07-28.81-1.23-4.06-1.51-8.41-2.83-12.47.09-2.55-.09-4.82.19-7.37-.28-.28.09-.66,0-.94.09-2.83,1.04-5.2,1.32-7.84.85-1.42,2.64-1.89,3.97-2.83,3.59-9.26,5.86-19.08,11.71-27.39l.09-.66c2.17-.66,3.97-2.27,6.23-2.64,3.4.1,6.71,1.51,9.92,2.46Z"/>
  <path class="cls-6" d="M134.7,42.52c-.57.28-1.13.38-1.7.57.85.28,1.79-.19,2.36-.38,2.08,1.04,5.48.57,6.05,3.31,2.27,7.93,3.12,16.81,1.79,24.94-1.98,4.06-4.53,7.93-6.61,11.81,0-.94.94-1.6.09-2.46-1.89-1.61-4.82-1.32-7.08-.85-1.13.85-1.42,2.36-2.27,3.5l-.09.09c1.42-3.68,3.4-7.18,5.48-10.48-.19-7.18-.94-14.92-3.21-21.54.09-.38-.19-.47-.28-.85,0-.85-.85-1.79-.19-2.46-.57-2.64-3.59-1.98-5.38-2.93-.19-.09.28-.09.47-.09.09,0,.09-.19.09-.19-4.16.09-8.03-1.61-12.37-1.42-.28.09-.09.38-.19.57,1.13.85,2.65.57,3.87,1.04,1.23.28,2.83.28,3.97.76-.57.47-1.32.85-1.89,1.13h-.09l-.28.28c.57.19,1.13-.57,1.79-.66,1.7-1.23,3.31.09,5.1.19.66.76,3.3.28,2.36,1.7,2.83,7.46,3.87,16.25,4.34,24.46-1.89,3.21-3.59,6.52-5.29,9.82.09-.57-.57-.76-.38-1.23-.09-.47-.57-.85-1.13-1.13-2.17-.38-4.72-1.04-6.8.28.19.19.38.09.47.09-1.42,1.04-2.93,2.65-3.4,4.44l-.66-.47c-.85.47-.19,1.51-.09,2.17.94,1.79,3.12,1.98,4.63,2.36-1.6.47-3.4-.38-4.44-1.79-.28-.57-.38-1.23-1.04-1.42.19-.28-.28-.57-.47-.57.66-2.93,1.98-5.76,3.31-8.5,0-1.7,1.32-3.02.94-4.91.57-.94,1.42-2.36.47-3.49.66-7.37-1.89-14.26-4.53-20.78-.47-.57-.76-.76-1.42-.94-5.2-1.79-11.43-2.27-17-1.61l-1.23.57c.47.76,1.89.19,2.74.66,2.17-.19,4.72-.38,6.71.19.47-.47,1.13-.09,1.79-.09,1.32.09,2.83.19,4.06.66-1.32.28-2.93.28-4.34.94-1.79.57-3.68,1.98-4.34,3.87l-.66.76c1.32.28,1.89-1.04,2.93-1.42-.19-.47-.57,0-.94,0,1.32-2.83,4.72-2.83,7.37-3.59.76.19,1.7-.28,2.36.19,1.98,5.2,4.16,10.39,4.72,16.15l.66,4.72-3.59,9.92-.47.19c.47.19.09.57.09.85l-.19.47c-.28-1.51-1.42-.09-2.36-.47v.47c-.19-.76-.76.19-1.04-.47-1.04-.09-2.36-.28-3.31.09.09-.38-.38-.38-.57-.19-.66,1.04-2.55.66-2.46,2.17-.66.94-1.7,1.89-1.98,2.93-1.04.38-.28,1.98-1.61,1.79-.66,1.42.76,2.27,1.32,3.21.66.38,1.23.85,1.98.94l.19.28c3.02.47,6.14-.28,8.41-1.98l1.42-.94c.38.94,1.23,1.23,1.79,1.98,1.8,1.89,5.48,1.32,7.65.85.66-.66,1.7-.76,2.36-1.13q-.09,0-.09.09l.09.19c.66-.38,1.13-1.42,1.79-1.61l1.13,1.42c1.42,1.04,3.31,1.04,5.01.57.47.28.28.85.09,1.23-2.55,5.86-5.1,11.62-8.69,17.1-5.2,4.06-10.2,8.88-15.59,12.47l-3.87,2.83c-.19-.66-1.04-.66-1.7-.57-1.89,1.13-2.08,3.21-3.12,4.82-1.79,4.53-3.68,8.88-4.34,13.89.28,1.04,2.53-5.57,1.87-5-13.41-1.61-31.29.66-40.36-10.29-1.42-2.36-2.6-.57-2.98-3.31,2.08-4.06,3.87-8.12,5.38-12.37.28-.38.09-1.23-.09-1.7l-.47-.28c.94-15.3,1.98-30.51,4.72-45.62,1.42-.19,1.42-1.89,2.08-2.83,1.61-5.01,7.75-3.3,10.3-7.08,1.42-1.13,1.89-3.12,3.68-3.78,1.79-.47,3.87-.66,5.76-.94.57-.28.28-1.04.28-1.42,2.08-1.51,4.25-3.02,6.9-3.4.19-.38.66-.19.85-.19,2.08-.57,4.34-.28,6.33-.47,2.46.09,5.1.09,7.27-.28.09-.19.57-.47.19-.66l4.25-.19.09.19c1.04-.38,1.79-.09,2.93-.28,3.78-.28,8.03-.09,11.9.47l2.27-.28.28-.47c2.46-.19,4.63.38,7.08.85Z"/>
  <path d="M132.91,43.28c-.38.47-1.32.19-1.89.47.47-.47,1.61-.57,1.89-.47Z"/>
  <path d="M130.83,43.75c0,.38-.66.28-.85.47,0-.28.57-.38.85-.47Z"/>
  <path d="M129.7,44.41c-.76,0-.94.76-1.51.76-.19-.57.66-.94,1.23-1.04l.19-.09c.09,0,0,.28.09.38Z"/>
  <path d="M217.65,45.17c2.93.66,5.86,1.42,8.5,2.55.94-.76,1.32.66,2.08.47.47.57,0,1.32.38,1.79.38.76-.57,1.32-.28,1.98-.19,2.93-1.23,5.86-1.51,8.88-.57,2.83-1.04,5.86-1.51,8.6-.38.28-.47.85-.94.76-.94-.85-.38-2.27-.38-3.4.57-5.2,1.98-10.01,2.93-15.21.38-.66-.09-1.51-.38-2.17-2.64-1.13-5.67-1.98-8.5-2.83-.85.09-1.89-.66-2.74.09l-3.5,2.27c-.57-.09-1.13-.38-1.04-1.04.19-.85,1.23-1.13,1.89-1.61,1.51-.66,3.02-1.32,4.72-1.79l.28.66Z"/>
  <path d="M120.91,46.96c-.28.38-.66.19-1.13.19.38.28.76-.57,1.13-.19Z"/>
  <path d="M122.33,46.87v.19h-.28v-.19c.09,0,.28-.1.28,0Z"/>
  <path d="M119.4,47.15h-.66c.09-.19.47-.09.66-.19v.19Z"/>
  <path d="M116.57,47.25c-.28.66-1.32.94-1.61,1.7.28-.47.76-1.61,1.61-1.7Z"/>
  <path d="M242.77,53.67l1.79,2.64c-.09,2.36.09,4.91.28,7.08.57-.76,1.42-1.79,2.46-1.7,2.55.66,5.48,1.7,6.33,4.53.85,3.4,1.13,7.18,1.42,10.77.38.28-.09.76.09,1.13.38,9.73,0,18.51-.09,28.62-1.51,4.34-3.59,8.6-5.2,12.85-.66.76-.85,2.08-1.51,2.93-2.27,5.29-5.1,10.39-7.65,15.59-.76.57-.47,1.61-1.23,2.08-1.51,2.64-3.12,5.1-4.63,7.74-.38.94,0,1.98-.66,2.83,0,1.79-.76,3.4-.38,5.2-.19.57-.38,1.79-1.42,1.32-1.32-1.32-.47-3.78-.38-5.38.57-1.89.19-4.44,1.89-5.67,7.18-12.37,13.51-25.13,18.7-38.44l.47-1.79c.09-12.85,1.42-26.45-1.32-38.73-.85-1.7-2.08-3.21-4.25-3.12-.09-.19-.28-.38-.38-.57-.57.28-1.23.85-1.89.28l-.28-.19c-.38,3.78.28,8.03-.66,12,.57.38-.09.85,0,1.32.38,1.32-.76,3.02.66,3.97,0,.57.76,1.04.19,1.61-.19.57-.76.28-1.13.09-1.61-1.04-.66-2.83-.94-4.44.28-7.65.38-15.49-.57-22.86-3.12-1.61-5.95-3.59-9.35-4.35-1.13.38-1.98,1.32-3.21,1.51-.28-.09-.76-.19-.85-.57-.47-.85.66-1.23,1.04-1.61,1.23-.09,1.7-2.27,2.93-1.13l.19-.09c3.12,1.41,6.52,2.74,9.54,4.53Z"/>
  <path d="M104.01,49.89c-.28.09-.57.28-.85.38,0-.19.47-.47.85-.38Z"/>
  <path d="M102.78,50.36c-.09.28-.57.47-.85.57-.19-.28.19-.38.28-.47.19-.09.38,0,.57-.09Z"/>
  <rect x="98.53" y="52.54" width=".09" height=".09"/>
  <path d="M95.22,59.62c2.64,4.63,4.82,9.73,6.71,14.74-.47,1.32.85.85,1.23,1.51-1.23,4.91-3.59,10.01-7.84,13.03-.47.09-1.23.19-1.32.85-1.7-.38-3.49,0-5.1-.57-1.32-.94-2.83-1.89-3.87-3.21-1.42-2.08-2.83-4.53-1.51-7.08.47-.19,1.23,0,1.23.57,0,1.04.09,1.98.57,2.83.19,1.23.94,2.27,1.89,3.31.47-.94,1.42-1.61,1.7-2.64.47-.28,1.04-1.13,1.79-.66.76-.47,1.98-.38,2.74.09.85-.38,1.23.66,2.17.47.66.28,1.51.28,2.08.76,1.6-2.17,3.12-4.72,3.12-7.46-.47-.28.09-.94-.38-1.13-1.98-5.2-3.97-10.48-7.08-15.21-1.13-.19-2.17.85-3.21,1.32-1.51,1.13-3.12,2.17-4.63,3.02.66-1.23,2.17-1.32,3.02-2.46l3.97-2.93c-.28-.47-.66-1.23-1.23-1.23-.66-.19-.94-.57-1.79-.28l-1.04.57.38.09c-2.08.85-3.87,2.55-5.01,4.44-.76,1.13-1.32,2.27-1.89,3.4l-.09.09c.09-.38.19-.94.38-1.42.09.09.28.09.38-.09-.28-.38.19-.57.09-.94.28-.19.47-.38.57-.57,0,.09.09,0,.19,0,.09-.28.47-.76,0-.94,1.79-1.7,3.12-3.68,5.1-5.1l-.19-.19c-2.27-.66-4.82-.38-6.8-1.42-.09-.28.28-.38.47-.47,4.92.28,10.68-.28,13.23,4.91Z"/>
  <polygon points="88.99 57.73 89.08 57.63 89.27 57.73 88.99 57.73"/>
  <rect x="91.26" y="57.82" width=".09" height=".09"/>
  <rect x="83.79" y="65.29" width=".09" height=".09"/>
  <polygon points="81.24 66.7 81.15 66.33 81.24 66.61 81.24 66.7"/>
  <path d="M220.86,69.35c.47.19.94.47.94,1.04-.19.28.19.38.19.66.19,1.32-.09,2.83-.76,4.06,0,.94-.38,1.79-.85,2.55-.38,1.61-1.51,2.93-2.64,4.16-.28-.28.38-.47.19-.76,2.08-2.74,3.4-5.86,3.59-9.35,0-.66,0-1.7-.85-1.98l-.94.19c.66,1.61.57,3.59.38,5.39-.38.66-.19,1.51-.66,2.27v.57c-.47,0-.66.76-.94,1.23-.28,1.32-1.23,2.27-2.36,3.02v.09l-.09-.09c3.31-3.5,4.82-8.69,2.83-13.32l.19-.19c.47,1.23,1.13,0,1.79.47Z"/>
  <path d="M82.94,72.18c.94,1.61,1.7,3.49,2.83,4.82.57,1.04,1.42,1.89,2.55,2.55.19.19.19.76,0,.94-.66.85-1.42-.28-2.08-.47-1.13-.76-1.89-1.79-2.64-2.93-.38.38-.85.19-1.23.28-1.04.47-2.27.47-3.31.76.09-.47.85-.66,1.32-.66.94-.38,1.98-.47,2.93-.76.09-.19-.09-.28-.19-.38-1.89.76-3.68-.28-5.67.09-1.8-.38-3.4-1.61-4.25-3.21v-.66c1.89-.19,2.74,2.55,4.72,2.46,1.7.94,2.45-.38,4.16-.28,0-.47-.19-1.13-.57-1.51.09-.94-.38-2.27.38-2.83.76.19.85,1.13,1.04,1.8Z"/>
  <path d="M66.98,78.23c1.7,1.04,4.06.66,5.67.85,1.23-.57,2.83-.38,4.16-.94.66-.19,1.23,0,1.79-.47l.28.28c-.57.66-1.51.57-2.36.76-2.17.47-4.34.94-6.71.76-.94.19-1.79,0-2.65-.38-.57-.19-.57-.76-.76-1.13l.09-.28c.47-.09.28.28.47.57Z"/>
  <path class="cls-6" d="M135.74,80.68c-.66,2.36.19,6.33-3.02,6.99-1.98-.19-5.1.57-5.95-1.79.94-1.8,2.36-3.49,3.21-5.38,1.98-.38,3.97-.94,5.76.19Z"/>
  <path class="cls-6" d="M108.73,80.02c-.09.19,0,.19.09.28.28,0,.76.19,1.13.28v-.38c.28,1.32.09,2.83-.28,4.25l.38.09-.66,2.46c-1.98.85-4.16,1.98-6.42.94-.76-.47-1.79-.94-2.17-1.7-.09-.66-.09-1.04-.28-1.51,1.6-1.7,2.64-4.53,5.48-4.44.19-.47.57.09.76-.28.66.09,1.42.66,1.98,0Z"/>
  <path class="cls-6" d="M123.65,80.97c.66.47.76,1.61.76,2.46.47.66-.28,1.32-.09,2.17.28.57-.28.94-.38,1.42-1.6.76-3.4,1.61-5.2.94-1.32-.19-2.83-.47-3.87-1.42-.38-2.83,2.36-4.72,4.34-6.23,1.6.19,3.02.38,4.44.66Z"/>
  <rect x="217.37" y="81.91" width=".09" height=".09"/>
  <path class="cls-6" d="M92.86,82.29l.19.09c-.38-.19-.76.38-1.23.09.19-.19.85-.19,1.04-.19Z"/>
  <path class="cls-6" d="M95.41,83.52c.57.28,1.13.66,1.42,1.23.09,1.13-1.13,1.42-1.32,2.36-.47,1.04-1.32-.19-1.98.38-1.7-.38-3.68-.47-4.72-2.08,0-.47.47-1.04.94-1.13-.38-.38.28-.66.47-1.04,1.7-.09,3.59,0,5.2.28Z"/>
  <path class="cls-6" d="M127.24,83.52l-.19.19v-.47c.09,0,.19.19.19.28Z"/>
  <path d="M95.51,92.96c-.47,3.3-.47,7.08-1.04,10.39-.09,2.27-.94,4.25-1.13,6.52-.19.85-.57,1.7-.28,2.55l.28-.28c-1.61,3.12-5.1,5.2-7.75,7.37-.57-.19,0-.47.09-.76,1.23.47.66-1.23,1.89-1.23.47-.85,1.42-1.7,2.36-2.17.76-.57,1.23-1.42,2.17-1.98.28-1.42.47-2.93.94-4.06.19-2.27.57-4.53,1.13-6.61l-.19-.38c.85-2.83.19-5.67,1.13-8.41-.28-.38-.09-.66,0-1.13-.19-1.13-.09-1.98-.19-3.21.85.85.47,2.08.57,3.4Z"/>
  <path d="M61.41,115.73c.19-.28.19-.66.66-.57l.57,1.13c4.44,1.61,9.07,2.93,13.7,3.68,2.36.19,4.72.57,7.27.28l-.57.57c-.57-.57-1.51.28-2.27-.28l-.28.19c-5.76-.19-11.62-1.7-16.91-3.5.66,1.42,2.46,1.98,3.68,2.64,2.46.94,5.1,1.79,7.65,2.08.38.38,1.04-.09,1.61.19,1.23.19,3.02.19,4.34.09l-.57.57c-5.67.19-10.86-.85-15.68-3.31-2.17-.57-2.17-3.3-4.44-3.78-.28-.19-.47-.57-.85-.66l.09-.47c.57.57,1.23.85,1.98,1.13Z"/>
  <rect x="82.66" y="122.24" width=".19" height=".09"/>
  <g>
    <path class="cls-2" d="M48.92,138.08s7.66,38.74,44.97,35.11"/>
    <polygon points="109.07 169.77 89.45 183.03 92.7 173.2 85.77 165.5 109.07 169.77"/>
  </g>
  <path class="cls-1" d="M185.59,143.32c-5.09,14.48-14.09,25.95-21.76,39.25"/>
  <path class="cls-1" d="M231.58,158.5c-1.85,23.55-2.85,32.25-6.4,55.61"/>
  <path class="cls-4" d="M189.46,149.85c2.98,6.55,10.52,9.74,17.63,10.89,5.87.95,11.9.91,17.75-.12"/>
  <path class="cls-4" d="M54.6,126.6c2.98,6.55,11.61,9.74,18.72,10.89,5.87.95,11.9.91,17.75-.12"/>
  <path class="cls-3" d="M96.05,136.89c-14.18,32.76-23.41,53.81-29.64,84.05"/>
  <path class="cls-1" d="M53.33,117.79c-4.41,8.33-5.59,8.27-10.15,16.66"/>
  <path class="cls-6" d="M64.75,130.7c2.05,1.89,4.16,3.82,6.76,4.83,1.68.65,3.5.88,5.29,1.05,3.54.32,7.1.4,10.66.22.9-.04,1.85-.12,2.59-.63.52-.36.89-.9,1.24-1.42,1.26-1.87,2.54-3.79,3.05-5.99"/>
</svg>