<?xml version="1.0" encoding="UTF-8"?>
<svg id="Layer_1" data-name="Layer 1" xmlns="http://www.w3.org/2000/svg" xmlns:xlink="http://www.w3.org/1999/xlink" viewBox="0 0 284 226.77">
  <defs>
    <style>
      .cls-1 {
        fill: #fff;
      }

      .cls-2 {
        fill: url(#linear-gradient);
      }
    </style>
    <linearGradient id="linear-gradient" x1="90.95" y1="31.49" x2="115.61" y2="54.82" gradientTransform="translate(0 228) scale(1 -1)" gradientUnits="userSpaceOnUse">
      <stop offset="0" stop-color="#fff"/>
      <stop offset="1" stop-color="#ededed"/>
    </linearGradient>
  </defs>
  <rect class="cls-1" x="56.96" width="170.08" height="226.77"/>
  <g id="Färg">
    <path class="cls-2" d="m122.29,217.33l15-46,.33-2.33s-14-3.67-20.33-9.67-12.67-16.33-14.33-21.33-5.33,3.67-5.33,3.67c0,0-3.67,2.67-5.67,5.33s-19.67,21.33-19.67,21.33c0,0,11,35,50,49Z"/>
  </g>
  <g id="Lager_1" data-name="Lager 1">
    <g>
      <path d="m150.78,24.76c1.84,1.1,3.67,2.45,4.77,4.04,1.22.61,1.71,2.45,2.94,3.18.25,1.72,1.96,3.06,2.57,4.65,1.84,5.51,1.35,11.51,0,17.26-1.1,2.33-1.22,5.26-2.08,7.59.37.74-.49,1.35,0,2.21-.86.61-.12,1.59-.37,2.33.74.73,1.47-.86,2.08,0l3.43-.37.24.24c8.2-.61,16.53-.37,24.49.98,2.08.49,4.41,1.35,6.24,1.83,1.1.61,2.33,1.22,3.43,1.59,1.59.74.24,2.94,1.96,2.94.85,2.2,2.33,4.04,2.2,6.73-.12,2.81-.98,6-3.18,7.96l-.85.86c.12.24-.12.73-.37,1.1l-1.22.37c1.1,1.96,3.67,3.18,3.55,5.88,1.23,2.45.61,4.65,0,7.35-.73,2.08-1.96,4.16-3.18,6.25-.37.49-1.23.98-1.1,1.84.98.86,1.47,2.2,2.2,3.18-.37,1.1.12,2.21,0,3.31-.12,1.22-.25,2.45-.61,3.55l.49.25c-1.35.49-.98,2.57-1.71,3.31-.61,1.47-.98,4.04-3.06,4.04-.12,1.59.24,3.18-.37,4.77.49.37-.37.74-.24,1.23.12,2.57-1.35,4.9-2.33,7.1-1.84,1.59-3.55,3.43-6.37,2.82.12-.61-.61-.98-.98-.86-3.06.86-6.24,1.1-9.55,1.71-.49-.61-1.22-.49-1.84-.49l-.25.37.12.12c-.61.24-1.47.73-1.59,1.47-.61.49-1.47.86-2.08,1.47-.74.98-2.08,1.1-2.69,2.33-.37-.49-.86.12-1.1.37-1.84.61-2.69,1.71-4.53,2.2-1.1,1.1-2.69.86-3.79,1.96-1.84.74-4.41.98-5.88,2.69-1.1-.61-2.45.49-3.31,1.22-.98-.49-1.71.86-2.57.61-1.47.37-2.69,1.23-4.28,1.47-1.35,2.33-2.69,4.16-3.43,6.86-1.1-.12-1.22,1.59-2.08.98-.12-1.84-2.2-.86-3.31-1.71-12.49-3.18-22.89-14.08-27.67-25.83-.98,0-.12-1.96-1.59-1.84v-.24c-.61,0-.12.86-.86.86-.61,1.1-1.35,1.1-2.08,2.08-3.06,2.69-5.75,5.39-8.45,8.32.12.37-.12.61-.37.49-1.59,1.1-2.45,2.94-3.92,3.8l-3.92,4.41-.12-3.67c3.67-4.04,7.35-7.71,11.02-11.39l-.12-.24c1.96-1.22,3.31-3.43,5.26-4.9.86-1.23,2.08-1.96,2.94-3.18.37-.61,1.1-1.59,1.96-.98l.49.61c3.18-4.77,5.51-10.16,8.69-15.18l.12-.86c.37.25.49-.37.74-.61,3.67-7.35,6.86-14.32,9.43-22.04-.12-1.22.74-2.45,1.1-3.55.98-3.92,2.57-7.47,3.8-11.14.49-1.71.98-2.69,1.71-4.29,1.1-3.31,2.57-6.36,4.78-9.06l1.59-.24c2.82-7.84,5.02-15.3,6-23.63.12-1.59.49-3.55.49-5.26.49-.49.61-1.35.25-1.84-1.35-3.67-3.31-6.98-3.18-11.14-.25-1.35,1.22-2.2,1.84-3.06,2.57-.98,5.14-1.59,7.59-.25.86.25,1.23.49,2.08.74Z"/>
      <path class="cls-1" d="m146.01,26.48c1.35-.49,2.57.61,3.79.86,1.84,1.35,3.31,3.06,4.9,4.78-.25.61.61.49.73,1.1.86.98,1.59,2.33,2.08,3.55,1.84,2.32,1.59,6,1.84,8.81-.37,7.35-3.67,13.35-3.43,20.81-.37.37-1.1-.37-1.47.37-1.1-.37-1.96.98-2.82-.37-1.71-.37-3.43-.61-5.39-.49-.12.49-.61,1.22,0,1.71.86.61,1.96.49,2.82.98.49-.37.73,0,1.22.37,2.2.98,4.77-.86,7.1,0,.73-.49,1.83-.86,2.82-.37l.49-.37c8.32-.24,16.65-.85,25.1.86,3.67-.12,6.85,1.59,10.16,2.82,0,.61,0,1.47.86,1.59,2.08,2.21,3.43,5.14,2.57,8.08.12,1.22-.49,2.69-1.23,3.79-.73.37-1.71,1.22-2.69.74-.49.49-.98-.37-1.47.25-.86-.61-2.2-.25-3.18-.61v-.12c-3.31-.37-6.61-.98-9.92-.98l-.25-.49c-.24.12-.49.37-.86.37l-.25-.37c-.61.61-1.47.12-2.33.12-.37-.98-.49-2.08-1.84-2.33-1.35.37-1.1,2.33-1.71,3.55.49,1.1,1.84,1.22,2.69,1.96.86-.12,1.96.98,2.33-.37,3.06.25,5.39.61,8.57.98,2.2-.12,4.41.74,6.61,1.47.73.37,1.84,0,2.45.61-.24.73-1.22,1.59-.73,2.45.49.12,1.1.37,1.23.86-.24.98.86,1.1.98,1.96.12.49.24,1.1.49,1.59.12.74.25,1.47-.24,2.08l.24.12c-.24,3.55-1.84,6.36-3.43,9.3-1.96-.37-3.67-.98-5.63-1.71-1.71-.73-3.43-1.22-5.26-1.96-1.35.12-1.96-.49-3.18-.86-.37.12-1.22.25-1.22-.49-.12-.37-.37,0-.61,0-1.22-.86-1.96-2.2-3.55-1.96-.74.37-.49.98-.37,1.59,1.59,1.22,3.43,3.43,5.88,2.2.86.49,1.84,1.1,2.82,1.35,1.59.73,3.55,1.22,5.02,1.72.37,0,.37.86.98.61.61-.12,1.35.49,1.96.74.61-.25.37.98,1.1.37.37,0,.61.24.98.61-.12.12-.12.37,0,.49.37.12.98.49,1.59.49-.86.61-.37,1.72.24,2.45.86,4.28-.49,8.2-2.08,11.88-5.14-1.96-11.02-2.2-16.53-2.82-.37-.24-.74-.24-.98,0-1.1.37-2.08-.73-2.82.37-.24.49-.49,1.1.12,1.47,1.47.49,3.06-.12,4.65.25h0c3.67.25,7.71.73,11.14,1.71.49-.12.86.37,1.23.37.12,1.22.49,2.45.73,3.55-.49,2.81-.73,6.49-2.45,9.06l-.12-.12c-.37.86-1.1,2.21-2.08,2.45-.98-.24-2.08.12-3.18-.24-1.22.37-3.06.73-4.16.49-1.59.49-3.31.37-4.9.37,0-.37,0-.98-.25-1.23-1.35-1.1-1.71.74-2.69.98-6.37,7.1-15.92,11.14-24.98,14.45-1.47.86-3.67.73-5.14,1.59,0-.49-.73-.49-1.1-.73-2.21-.37-2.21,2.57-3.31,3.92-.73,1.59-1.22,3.06-2.08,4.53l-.12.61c-13.71-2.82-25.96-14.57-29.75-27.55.37-.98.98-1.71,1.47-2.45l-.12-.12c.86-1.59,1.71-3.55,2.81-4.78.61-1.84,2.08-2.94,2.69-4.77,1.35-2.69,2.94-4.65,4.16-7.35,1.1-1.96,2.33-3.92,3.18-5.88.37,0,.49-.49.24-.73.24-1.23,1.35-2.21,1.47-3.55,1.23-1.47,1.1-3.18,2.2-4.77.49-1.71,1.1-3.31,1.71-4.9.12-.12.37-.12.37-.24,0-2.45,1.35-4.53,1.71-6.86l.37-.24c1.84-5.14,3.31-10.9,5.88-15.79,0-1.35,1.1-2.2,1.47-3.43.12-.12.37,0,.49.12,1.47-.86,2.69-2.69,3.43-4.28-.12-.49.25-.74.49-.98.37-.98.49-2.45,1.22-3.31,0-1.22.86-2.21.86-3.43,2.45-6.73,2.69-14.08,4.29-20.81.73-.49-.12-.98,0-1.59-.12-1.35,1.47-3.79-.61-4.29l-.98.25c-.98-2.82-1.84-5.26-1.59-8.45.49-.61,1.1.12,1.47-.61.49-.25.98,0,1.59-.12.37-.12,1.23-.12.98.37Z"/>
      <polygon points="101.08 141.68 101.32 141.44 101.32 141.68 101.08 141.68"/>
      <path d="m129.73,197.14c.37-.61-.12-1.35.49-1.71.37-2.08,1.71-3.92,1.96-6l.25-.24c.25-1.59,1.1-2.69,1.22-4.16.74-.61.37-1.59.98-2.2.49-1.47.61-2.45,1.47-3.8.25-3.18,2.57-5.27,2.69-8.45l-.49-.61c-1.47-.98-1.47.86-2.32,1.47-1.96,5.26-3.55,10.65-5.75,16.04-.49,1.47-.73,2.69-1.35,3.92-1.1,3.67-2.57,7.96-3.92,12-.09.28-.19.57-.28.86.97-.42,1.95-.83,2.92-1.23.31-1.24.67-2.47,1.4-3.54,0-.74.24-1.59.73-2.33Z"/>
    </g>
  </g>
</svg>