<?xml version="1.0" encoding="UTF-8"?>
<svg id="Layer_1" data-name="Layer 1" xmlns="http://www.w3.org/2000/svg" xmlns:xlink="http://www.w3.org/1999/xlink" viewBox="0 0 284 226.77">
  <defs>
    <style>
      .cls-1 {
        fill: #fff;
      }

      .cls-2 {
        fill: url(#linear-gradient);
      }
    </style>
    <linearGradient id="linear-gradient" x1="103.06" y1="28.85" x2="111.56" y2="44.85" gradientTransform="translate(0 228) scale(1 -1)" gradientUnits="userSpaceOnUse">
      <stop offset="0" stop-color="#fff"/>
      <stop offset="1" stop-color="#ededed"/>
    </linearGradient>
  </defs>
  <rect class="cls-1" x="56.96" width="170.08" height="226.77"/>
  <g id="Färg">
    <path class="cls-2" d="m132.96,210l7.5-36s-18.5-5.5-20.5-6-16-12.5-18-15.5-5-9-5-9l-11,21.5-9,17s34,27.5,56,28Z"/>
  </g>
  <g id="Lager_1" data-name="Lager 1">
    <g>
      <path d="m201.06,15.33l-.11.11c.34,1.01,1.79.56,1.9,1.79,2.01,1.68,3.13,4.36,2.57,7.16-1.01,3.02-4.03,5.14-5.93,7.38-3.13,2.46-5.37,5.15-8.5,7.83.11.45-.56.33-.67.67-1.01.67-.9,1.9-2.12,2.12-7.61,8.16-15.99,16.44-22.93,25.16-1.23.78-1.57,2.12-2.91,2.68.11,1.12-2.35,1.01-1.01,1.9,4.92-.78,9.17-1.01,13.87-1.46.89.11,2.01.11,2.12,1.12.67,0,1.45.45,2.01.78h.11c.33.45.78.78,1.34,1.34.11.11.11,0,.22-.11,1.01,1.45,2.35,2.91,2.91,4.7h.22c.67,2.91,1.23,6.26.45,9.17-.22.78-.56,1.45.33,1.9h.22c0,.33,0,.45.22.67h.11c1.23,1.57,2.57,3.36,3.47,5.37.11,1.45.78,3.02.78,4.47.56.67-.34,1.9.22,2.8-.56.45-.22,1.34-.45,1.9.45.78,1.45,1.34,1.79,2.35,1.9,1.45,1.57,4.36,1.9,6.6-.34.34.22.9-.34,1.34.34.56,0,.56-.22,1.12-.45,1.68-1.45,2.24-2.24,3.91-1.01.89-2.01,2.24-2.68,3.47-3.58,3.47-7.38,7.49-10.74,10.85l-.89.22c-2.12,3.69-4.92,7.38-7.72,10.18-.45.45-.34.78-1.12,1.01-.11.45-1.01.78-1.23,1.34-2.12,2.01-5.26,4.14-7.38,6.38-3.8,2.57-7.27,4.92-10.96,7.38-.22.22-.78.67-1.23.78-.56.78-1.45.78-2.01,1.68-.22,1.68-1.45,2.57-1.68,4.25-.67.22-.11,1.23-.78,1.45-.45.9-.89,1.9-1.12,2.8.56.34,1.46,0,1.9.56-1.01.9-2.68.67-3.47,1.57-.56.34-.89-.11-1.12-.45-15.21-.45-29.86-8.39-37.69-22.37-1.45-2.91-2.68-6.04-3.58-9.06,2.24-1.01,1.79-3.35,2.35-5.03,0-1.23.78-2.46,1.12-3.58.67-2.24,1.01-4.59,1.45-7.05-.33-.33.33-.45.22-.89,4.14-20.24,6.71-43.39-.11-62.74l-.34-.22c.34-.78-.33-1.56-.45-2.46-.67-1.57-.78-3.35-1.34-4.92.45-.67,1.23-.67,1.79-.45.45.78.67,1.68,1.23,2.46-.56.34.45,1.01.22,1.57,1.23,3.8,1.9,7.49,3.24,11.07,1.01,4.47,1.23,8.95,2.01,13.98-.22,4.81.34,10.18-.22,14.87.22.45,0,.78-.11,1.34-.11,2.57-.33,4.81-.45,7.16-.22,1.9-.45,3.02-.67,5.03-.56.22.11.78-.22,1.23-.78,1.56,0,2.57-.78,4.02.33.34-.45.9,0,1.12-.22.33-.22.78,0,1.12-.67.33-.56,1.45-.78,2.24-1.23,6.6-2.57,12.86-4.58,19.24-.11.67.11,2.01-1.12,2.46.56,2.68,2.24,4.92,3.24,7.49,5.03,7.38,11.41,13.76,19.46,16.89l.45.45c5.14,1.68,10.29,3.58,15.77,3.47,1.34-2.35,2.01-5.15,3.13-7.6-.67-.34-.56-.78-.89-1.34.22-1.12,1.9-.67,2.35-1.68.67-1.23,1.01-3.13,2.68-3.58.56,0,1.12.45,1.34.78,10.51-6.71,21.81-14.65,27.85-26.28,1.23-1.12,1.34-2.91,2.79-4.03.89-.33.89.45,1.23.9l-.11.56h.45c3.24-3.58,7.16-6.93,9.84-11.18l-.11-.22c1.23-1.57,1.9-3.13,1.57-5.26-.34-.11.22-.67,0-1.12.22-1.34-.9-2.12-1.01-3.36-.56-.45-.9-1.57-1.68-1.79-.34-.45-1.01-1.01-1.68-1.01-3.8,1.45-7.38,3.13-10.62,5.14-.56.11-1.12.22-1.68.11-.22-.78,0-1.12.34-1.79.56-.11.78-.33,1.45-.56,2.46-1.34,4.81-2.57,7.16-3.69,1.68-.67,3.24-1.79,4.92-2.12-.11-.67.45-1.45-.11-1.9.45-.89-.34-1.9-.22-2.79-.78-3.58-2.91-6.93-6.49-8.28-1.57.22-2.91.45-4.47.78-2.79-.11-5.37.78-8.28.78-.22.67-.67,0-1.01.34-.56,0-1.34.22-1.79-.34-.22-.56-.11-1.01.11-1.57,4.36-.89,9.4-1,14.31-1.57.89.22,1.45-.67,2.35-.22.9-2.46.45-5.26.11-7.83-.34-.45-.11-1.45-.78-1.79.22-.67-.89-1.12-.78-1.9-1.01-2.01-3.47-2.57-4.7-4.25-1.12.45-1.9.11-3.02.67-1.34-.33-3.47.33-5.14.45-2.68.22-5.48.78-7.94,1.46-1.79-.22-4.7.67-5.59-1.57-.22-.56.34-1.12.9-1.12,1.12,0,1.9,0,2.8.22.89.45,1.01-.67,1.12-1.12,6.38-8.39,13.98-16.22,21.36-24.04-1.23-1.57-2.57-2.35-3.69-3.8-.56.22-1.01-.33-1.45-.78-2.01-1.12-4.03-2.46-5.93-3.8.22-.22-.11-.67.45-.67,4.7.78,10.4,2.57,11.97,7.6,1.45-1.46,2.79-2.8,3.91-4.59l1.23-.89c4.47-5.03,8.72-8.39,12.97-13.2-1.9.67-4.47,2.46-6.6.89-1.23-1.23-2.69-2.46-3.47-4.02v-.9c1.12.34.67-1.23,1.12-1.79.9-1.45,2.24-2.68,3.69-3.58l-.34-.22c-9.51,2.8-16.44,10.85-23.82,17.33-.11.45-1.01.67-1.23,1.23-6.38,6.15-12.53,11.85-18.01,18.45-.78.33-1.68,1.45-2.35,2.24-4.03,3.92-7.6,8.28-12.08,11.29-2.68,1.34-4.81,3.02-7.49,4.47-1.01.78-2.46,1.68-3.36,2.35-.67.56-1.23,1.12-2.01,1.23-.56.11-1.68.11-1.57-.78-.11-.67.56-.78.67-1.23-1.68-7.04-1.34-14.54-4.36-21.14-2.46-6.38-7.83-11.85-14.54-13.08-2.01-.67-4.92-1.34-6.93-.22-.45-.11-.78.45-1.12.67-.11.78-.89.56-1.34.89,0,1.23-.78,2.69,0,3.8,2.57,2.35,5.37,5.14,7.83,7.83,0,.45-.22.9-.45,1.23-1.01.33-1.79-.56-2.46-1.01-2.24-3.02-6.49-4.81-7.38-8.39,0-2.35-.78-5.15,1.57-6.71,2.12,0,3.92-1.57,6.04-1.34.78.11,1.79-.22,2.46,0l.11-.22c1.45.89,3.24.89,4.7,1.68,3.35,1.01,6.6,3.02,9.06,5.7l.56.11c-.11,1.01.9,1.34,1.12,2.35.34.78,1.46.56,1.12,1.57,1.34,1.9,2.12,4.36,3.02,6.26-.22.45.45.9.45,1.45-.22,2.01.67,3.13.9,5.03.78,2.57.56,4.92,1.12,7.49-.11.67-.22,1.9.45,2.35.22.11.22.33.22.56-.67.11-.33.89-.22,1.23l.22.67c4.92-3.24,9.51-6.04,14.54-9.39,10.29-10.62,20.58-22.03,31.99-32.21-.22-.34.22-.45.34-.34,7.16-6.49,14.76-14.65,24.83-16.1,1.46-.11,2.91.45,4.25.45Z"/>
      <path class="cls-1" d="m200.17,18.13l-.23.22c.56-.34,1.01.78,1.57,1.01l-.11.22c.56.22,1.34,1.01,1.23,1.9-1.34-1.45-3.02-2.46-4.81-3.47l-.78-.78c.45-.56,1.68,0,2.46.33.23.11.45.34.67.56Z"/>
      <path class="cls-1" d="m202.63,22.71c.78.9-.9,1.57-.9,2.35-2.01,1.01-4.25,2.12-6.6,2.46-1.57-.9-3.24-2.01-3.91-3.91.11-2.46,2.35-4.59,4.59-5.59,2.35,1.57,5.14,2.46,6.82,4.7Z"/>
      <path class="cls-1" d="m181.27,46.31c-.34.11-.34.45-.67.67-2.57-2.91-5.81-5.15-8.95-7.6v-.22c3.69.89,8.83,2.68,9.62,7.16Z"/>
      <rect class="cls-1" x="160.58" y="71.7" width=".11" height=".11"/>
      <path d="m97.05,146.18c-.45-.56-1.68-.45-2.01.22.22.78-1.23.78-.45,1.57-2.01,3.69-3.35,7.27-5.48,10.96-.78,1.34-1.34,2.69-2.35,3.8-.67,2.24-2.01,4.36-3.24,6.49-1.47,2.88-3.07,5.78-4.74,8.69.15,1.2.27,2.4.36,3.6.57-.96,1.15-1.92,1.7-2.89h.45l-.11-.56c2.68-3.91,4.58-8.61,7.16-12.86,0,.11.11.11.22.11,0-1.01.67-1.79,1.01-2.57.78-.56.56-2.24,1.56-2.57.22-1.12,1.12-2.12,1.57-3.13.45-.34.11-1.12.78-1.12,0-.67.45-1.45.78-1.9.67-2.68,3.36-4.7,2.8-7.83Z"/>
      <path d="m141.79,175.48c0-.89-1.68-1.45-2.24-.45-2.01,8.5-3.58,18.01-5.48,26.62l-.33.45c-.14,1.12-.35,2.22-.57,3.31,1.01-.93,1.98-1.86,3.02-2.66-.02-.34.21-.79,0-.98.45-1.57.89-3.35,1.12-4.81.78-2.12.78-4.7,1.68-6.93.33-1.45.22-3.13,1.01-4.58-.45-.56.22-1.12.11-1.68.45-.9.11-1.79.67-2.68-.22-1.56.56-3.69,1.01-5.59Z"/>
    </g>
  </g>
</svg>