<?xml version="1.0" encoding="UTF-8"?>
<svg id="Layer_1" data-name="Layer 1" xmlns="http://www.w3.org/2000/svg" xmlns:xlink="http://www.w3.org/1999/xlink" viewBox="0 0 284 226.77">
  <defs>
    <style>
      .cls-1 {
        fill: url(#linear-gradient-2);
      }

      .cls-2 {
        fill: #fff;
      }

      .cls-3 {
        fill: none;
        stroke: #000;
        stroke-width: 3.23px;
      }

      .cls-4 {
        fill: url(#linear-gradient);
      }
    </style>
    <linearGradient id="linear-gradient" x1="41.16" y1="15.2" x2="52.31" y2="38.45" gradientTransform="translate(0 228) scale(1 -1)" gradientUnits="userSpaceOnUse">
      <stop offset="0" stop-color="#fff"/>
      <stop offset="1" stop-color="#ededed"/>
    </linearGradient>
    <linearGradient id="linear-gradient-2" x1="245.11" y1="16.33" x2="234.11" y2="38.33" gradientTransform="translate(0 228) scale(1 -1)" gradientUnits="userSpaceOnUse">
      <stop offset="0" stop-color="#fff"/>
      <stop offset="1" stop-color="#ededed"/>
    </linearGradient>
  </defs>
  <rect class="cls-2" x="14.44" width="255.12" height="226.77"/>
  <g id="Färg">
    <path class="cls-4" d="m72.11,218l5-29.92,1-4.77s-13.33-.64-18-2.55c-4.67-1.91-10.67-6.68-12.67-8.91s-6.33-10.18-6.33-10.18l-4.33,4.77-12.67,16.87-6.67,9.23s12.67,26.74,54.67,25.46Z"/>
    <path class="cls-1" d="m218.78,217l-6.33-21.67-5-18s13.33,4.67,20,.67,13.33-7.67,14.67-9.33,5.67-7.33,5.67-7.33l3.67,8.67,14.33,25s-15.33,23.67-47,22Z"/>
  </g>
  <g id="Lager_1" data-name="Lager 1">
    <g>
      <path d="m262.25,186.63c-.77-.66-.44-1.42-1.31-1.97-.22-1.31-1.43-1.75-1.53-3.07-1.86-3.29-4.05-6.9-5.91-10.4-1.64-3.29-3.4-6.24-4.27-9.97-.99-.11-.66-1.53-1.53-1.75-.88,1.1-2.41,1.64-3.61,2.08-.44-1.09-1.42-2.08-1.32-3.4h-.22c-.22-.11-.11-.33-.11-.44h-.22c-.77-2.19-1.64-4.16-2.3-6.24-1.86-1.1-.77-3.4-1.53-5.04-.44-5.48-1.1-11.06-1.75-16.43-.11-2.19-.55-4.38-.44-6.79-.66-4.71-.99-9.2-1.32-13.91-.22-1.75-.33-4.05-.66-6.13-.44-.99-.11-2.41-.44-3.18-.66-4.82-1.75-9.42-3.61-13.69-.22-.77-.44-1.64-.77-2.41-.66-.55,0-.88.33-1.21-.44-6.57-1.75-12.27-2.41-18.73-1.2-8.76-3.07-16.98-5.48-25.3-.66-.88-.44-2.63-1.86-2.85l.55-1.31c.66-.77.11-2.19.99-2.96l-.44-.11c.44-1.75.44-3.94.33-5.69-.55-1.31-.99-2.52-1.86-3.61-1.31-1.64-3.4-1.32-4.93-1.64-.44.66-1.53.44-1.97.77.77-2.08-.22-3.5.11-5.59-.44-1.53-.88-3.83-2.85-4.05l-1.09.11c-2.08-.77-3.62-.11-5.59.44-.55.44-.98,1.1-1.75,1.32.44.77-.55.99-.77,1.53-.55,1.53-1.53,3.18-1.2,4.93-.99,3.94-.22,7.56.11,11.5.33.98.33,2.3.33,3.29.44.66.55,1.64.77,2.41,0,6.46.11,13.25,2.85,19.17,0,1.86-.55,3.72-.55,5.48-.33,5.81.22,11.94,3.18,16.54-1.42.88-3.61.22-4.93-.33l.44.66c1.42.77,3.4.88,4.82.22.77,1.86,2.74,2.52,4.05,3.83.55,0,.88.77,1.1,1.21-.33,1.1.66,1.53.33,2.74h-.11v.22h.11c.22.11.22.33.33.55-.33,1.97.77,3.5.77,5.37.77.66-.11,1.86.77,2.3-.22,1.42.88,2.41,1.1,3.61.11.22.11,1.1.66.66-.22-1.43-.11-2.74-.77-3.94-.33-.55,0-1.31-.66-1.64-.22-3.5-1.75-6.9-1.1-10.51-.77-.88,0-2.08.11-2.96-1.64-.66-.88,1.86-1.75,2.3l-.66-.55c.22-.33.33.11.66-.11-.11-1.1-1.42-1.42-2.3-2.08.22-1.64-1.64-2.52-2.19-3.94-.22-1.2-.77-1.86-.88-3.18-.88-3.72-.99-7.67-.77-11.5.77-.88-.33-2.19.44-2.85-.22-.99.22-2.19,0-3.28-1.21-.99-1.97-3.07-1.97-4.82-.55-1.97-.88-3.83-.88-5.92.44-.33-.22-.66-.11-.99.66-.88-.22-1.75.11-2.52-.11-.66.66-.55.99-.55,0-.77-.55-1.42-.88-2.08.33-.99.11-2.19.88-3.07,0-.55-.22-.88-.66-1.31-.44-.55-.98.22-1.31,0-.55-2.08-.55-4.16-.77-6.24.11-4.71-.22-9.31,2.96-12.93,1.2-.55,2.3-1.31,3.94-.99.55.55,1.1.22,1.75.11.66.55.55,1.09.66,1.86-.11.22-.11.33.11.55.33,1.75-.22,3.83.88,5.8-.11.11-.66.22-.55.66-1.43,1.2-2.19,3.07-3.07,4.71-1.32,5.15.55,10.95,1.64,16.1-.88,2.96-.44,5.8-.44,9.09.99,4.82.44,10.19,3.4,14.68-1.75,5.69,1.21,11.5,2.74,16.87l-.33.88c0,3.5.77,7.56,1.64,11.17.77.99.88,2.3.33,3.39l.22.22c-.11,2.41.22,4.93.66,6.9.11.88.66,1.86.22,2.63,0,.44.22,1.1.77,1.32.33,1.1,1.86.33,2.74.88.11-.77,1.53-.66.77-1.42-.44-.11-.44-.99-.99-.66-1.97.44-1.21-1.86-1.64-2.85.22-.22-.22-.88.33-1.2-.55-.22-.33-1.1-.33-1.53h.11c-.66-1.97-.44-3.72-.11-5.69-.11-.98.77-2.08.22-3.07-.44-.11-.99-.33-1.32-.11-.77-2.19-.88-4.38-1.2-6.68-.33-1.64,0-3.61.66-5.26.33-1.2-.88-.99-1.53-1.1-.66-2.85-1.53-5.58-1.86-8.32-.55-.77,0-1.86-.33-2.74.22-1.1.22-2.41.99-3.18.33-.88,1.75-1.31,2.63-1.97.99-.44,2.3-.22,2.85.88.33,1.86.77,4.16.55,6.02.33,1.1.44,2.74.66,3.94l-.22.11c.66,1.09.11,2.19,1.21,2.85.33-.22.55-.66.77-.99-.11-2.74,0-5.37-.44-8.1-.33-2.08-.11-4.49-1.97-5.81-.22-1.86-2.41-.77-3.5-1.31v.22c-1.32.22-2.08,1.2-3.4,1.09-.11.66-.88.88-1.2,1.2-.55-.77-.55-1.64-.55-2.52-.77-.44.44-.99-.33-1.42-.55-3.4-.88-6.24-1.1-9.53l.33-.55-.33-.22-.11-2.74c1.1-3.51-.33-6.9-.66-10.3,0-.77-.11-1.09-.44-1.86.66-.77-.55-1.42,0-2.19h-.11c-.33-3.18-.55-6.79,1.97-9.2.88-.77,1.75-2.08,3.07-2.08.77-.44,1.53-.44,2.41-.44.44.11.99.55.99,1.09,1.1.66.66,2.19.99,2.96-.22.88.11,1.64,0,2.52,0,.66-.22,1.53-.11,2.08l-.55,4.16c0,.66.88.44,1.21.55-.11.11-.11.44-.22.55,2.96,9.53,5.26,19.93,6.57,29.68.11.44.11.77,0,1.21.55,4.6,1.64,8.98,2.08,13.58-.77-1.2-1.53-3.07-3.29-3.18-1.42,1.53,1.31,2.41,1.21,4.05.88,1.32,1.53,2.19,1.86,3.72,1.75,4.27,3.18,8.87,3.83,13.47.22,3.4,1.1,6.24.88,9.53,1.2,11.06,2.19,24.42,3.4,35.49.66,1.86.22,3.72.88,5.48.11,1.1.99,2.19.66,3.18,1.86,2.52,2.63,5.37,3.83,8.32,0,0,.44.22.33.44.66.55.33,1.31-.22,1.75.66,0,1.21-.11,1.86.11.11.55.77.99.55,1.53-6.9,8.65-17.41,13.91-28.48,13.58-1.64,0-3.62-.33-5.15-.33-1.31,0-2.41-.33-2.96-1.75-.44-.11-1.1-1.1-1.31-.22,0,1.42.55,2.85.77,3.83.77,1.64,1.21,3.07,1.86,4.71.55,1.1.44,2.52,1.21,3.51,2.05,6.68,3.78,13.49,5.36,20.34,1.06.96,2.02,2.15,2.93,3.43-.93-3.97-2.01-7.92-2.92-12.05l.11-.11c-1.64-4.05-2.41-8.87-3.94-13.15-.77-2.52-1.97-4.93-2.63-7.34,5.04,1.1,10.19.88,15.33.11,8-2.08,15.88-6.46,21.14-13.58,1.97.11.44-2.3,1.97-2.96,4.6,9.86,10.3,19.28,15.44,28.81.16.16.37.49.48.83.29-.92.56-1.85.79-2.79-.63-1.08-1.18-2.17-1.71-3.31Z"/>
      <path d="m198.61,19.27c-.22.77-.44,1.75-1.31,1.86-.33-.11-.44-.44-.77-.55-2.63,1.53-3.29,4.71-3.61,7.56l-.22,4.49c.44.55-.11,1.31.11,2.08,0,.76.44,1.64.11,2.19.11.44.11.99.11,1.42.77-.11,1.43-.33,1.97.55.88.55-.44.99.11,1.53-.77.66-.55,1.97-.98,2.74.44.88-.22,1.75,0,2.63,0,1.64-.11,3.28.44,4.93.55,1.2-.44,4.16,1.86,4.05.22.11.66.44.77.99-.11.55-.55,1.42-.44,1.97l-.33,1.1c-.22,1.75-.11,4.16-.11,5.69.77,2.96.22,6.9,1.75,9.42.11,1.97,1.31,4.05,2.3,6.13,0,1.32,1.31,2.85.22,4.16.22,4.6,1.1,9.42-.22,13.58.22.11.33.22.66.22-.33.66-.22.88-.11,1.75l-.22.11c0,4.71.55,8.98.55,13.47.11.77-.77.55-1.31.55l-.44-.88c0-4.27-.33-9.09-.77-13.03.66-.55-.33-2.41,1.1-2.85-.33-5.81-.66-10.74-1.42-16.43-.55-1.31-1.1-2.63-1.86-3.72-.55.11-1.43-.22-1.86-.76-1.21,0-2.41.33-3.4.76-.22.33-.11.55-.55.55l-.22.11c-1.31,3.07-1.75,6.9-1.42,10.08-.44,1.1.11,2.41.11,3.61-.11,3.07.88,5.37,1.1,8.43,1.1,1.31,1.1,2.96,1.53,4.38l.88,3.5.44.33c-.44.44-.33,1.1-.11,1.53.22,1.75.11,3.61.11,5.15-.11,1.53-.77,3.29-.55,4.93-.88,1.64-.11,3.72-.77,5.37v4.6c-.44,2.52.22,5.26.44,7.78.22,1.75.88,3.61,1.53,5.26.44,2.41,1.42,4.16,2.63,6.46,1.75,3.62,4.71,6.9,7.12,10.19.33.76.88,1.53,1.42,2.3.33-.55.77-1.09,1.32-1.31.11.88,1.31-.11,1.31.99.55,2.08.77,3.4,1.31,5.37.44,3.73,2.63,7.34,2.52,11.06-.88.33-1.64-.77-2.3.11-.11-.44.44-.44.66-.77-2.08-4.6-2.74-9.53-4.38-14.24-.33.11-.44.77-.88.33-2.85-1.97-4.6-5.26-6.9-7.89.11-.22-.22-.66-.44-.77,0,0-.33-.33-.33-.55-5.59-7.67-7.88-16.76-7.45-26.18-.22-.22,0-.77.11-1.1-.33-1.31.22-2.74-.11-4.05.55-1.21.33-2.74.77-4.05.77-3.29.33-6.46.44-9.86l-.33-.22.22-.44c-.77-2.85-1.2-5.81-2.19-8.65.33-.44.22-.99-.11-1.53-1.31-6.24-1.86-13.91-.22-20.04,1.1-1.09.55-3.83,2.96-3.07,1.1-.88,2.41-.55,3.62-.66.55.11.88.44,1.31.22-1.42-4.6-1.75-9.64-2.08-14.13.66-.77-.44-1.97.33-2.74-.33-.99-.77-1.97-1.31-2.74-.22-1.64-.33-3.28-.88-4.71l.22-.33c-.33-2.63-.44-5.26,0-8-.66-1.31-.88-2.85-1.1-4.38-.33-5.48-1.42-12.6,2.3-17.31.99-.99,2.41-1.2,3.73-1.31.66-.11,1.42.11,1.53.66Z"/>
      <rect x="201.02" y="77.54" width=".11" height=".22"/>
      <path d="m206.28,97.15c.22,1.09.55,2.52.33,3.5,1.21,2.63,1.21,5.69,1.97,8.43l.88,4.27c-1.53-1.64-.88-4.6-1.86-6.35-.88-3.5-1.53-7.12-2.08-10.62.55-.11.65.44.77.77Z"/>
      <path d="m209.89,116.2c-.55-.44-.11-1.1-.66-1.53l.11-1.1c.44.77.55,1.64.55,2.63Z"/>
      <path d="m210.33,118.83c-.22-.88-.55-1.53-.44-2.41.22.77.44,1.64.44,2.41Z"/>
      <path d="m210.88,117.96l.22.55-.22-.55Z"/>
      <path d="m210.44,119.38l.11.33-.11-.33Z"/>
      <path d="m210.77,120.48l-.11.11-.11-.44c.22,0,.11.22.22.33Z"/>
      <rect x="210.55" y="120.8" width=".11" height=".11"/>
      <path d="m210.88,121.9c-.11-.11-.22-.11-.33-.22l.11-.44c.33,0,.22.44.22.66Z"/>
      <path d="m212.96,122.56v.11h-.33v-.22c.11,0,.22,0,.33.11Z"/>
      <polygon points="211.21 123.1 210.77 122.67 211.1 122.78 211.21 123.1"/>
      <rect x="212.96" y="123" width=".11" height=".11"/>
      <path d="m211.43,123.54l-.11.11v-.22c.11-.11,0,.11.11.11Z"/>
      <polygon points="212.41 124.75 212.52 123.98 212.63 124.64 212.41 124.75"/>
      <polygon points="212.52 125.73 212.63 125.51 212.74 125.51 212.52 125.73"/>
      <path d="m212.63,127.38h-.33c.11-.11.11-.22.33-.22v.22Z"/>
      <path d="m212.52,127.81c.22,1.31-.11,2.96.22,4.16-.33,1.75.66,3.39.33,5.04.55,1.32.11,2.41.33,3.73.44,2.3,1.1,4.6,1.64,7.01,1.64,3.72,3.18,8.1,7.12,10.29-.11.22-.22.66-.66.66-1.1.33-1.86-1.2-2.74-1.75-2.52-3.29-3.83-7.01-4.93-10.84.22-.77-.44-1.53-.22-2.08-.88-.88-.22-2.19-.88-3.18.44-.33.11-1.1-.11-1.42.44-1.2-.66-1.86-.33-2.85.33,0,.33-.22.55-.33-.55-.77-.66-1.32-.66-2.19.22-1.1-.22-2.3-.33-3.4.22,0,.33-.11.33-.22-.66,0,0-.77-.22-1.2.99-.44-.44-1.1.55-1.42Z"/>
      <path d="m213.95,139.64c.22.22,0,.44.11.66-.33,0-.44-.44-.44-.66.11,0,.22.11.33,0Z"/>
      <path d="m214.72,142.6h-.22c0-.44-.11-.55.11-.88.11.33.22.55.11.88Z"/>
      <polygon points="214.82 143.91 214.6 143.26 214.82 143.7 214.82 143.91"/>
      <path d="m215.59,145.56c-.44-.66-.33-1.21-.44-1.97.33.55.66,1.42.44,1.97Z"/>
      <path d="m216.14,146.43c-.22.11-.44-.33-.22-.44.11,0,.22.22.22.44Z"/>
      <path d="m217.67,148.84c.33,1.2,1.31,2.41,1.75,3.51,1.31,1.75,3.18,3.51,4.71,5.04,0,.33-.33.66-.66.33-2.52-1.2-3.83-3.94-5.37-6.13.22-.33-.11-1.1-.44-.99-.77-1.2-1.32-2.41-1.53-3.83,1.32.11.55,1.75,1.53,2.08Z"/>
      <path class="cls-2" d="m245.82,162.31c-.33.33-.22.77-.55,1.1l-.66-.66c.22-.44.66-.55,1.2-.44Z"/>
    </g>
    <g>
      <path d="m106.98,79.29l-.33-.22c0-3.61-.77-6.79-2.08-10.19-1.1-3.29-4.93-2.63-7.56-3.18-1.53-.11-2.52,1.64-3.4,2.63-.77,2.52-2.19,4.71-2.74,7.34,0-.66-.77-1.42,0-1.86h-.11c-.44,0-.33-.44-.33-.66-1.42-1.64.44-3.5.44-5.26,1.97-4.6,1.86-10.19,1.64-15.55.66-2.19,1.53-4.16,1.86-6.35.66-.88.33-1.97.88-2.85,0-1.1.44-2.41.33-3.4.44-2.74-1.21-4.82-1.21-7.23.11-.66.55-1.31.44-1.97.44-.33,0-1.1.77-1.42.55-6.24.66-13.14-5.04-16.98-.33-.33-.66.22-.88-.22-.66,0-1.42,0-1.86.55-.55,2.08,2.19,1.2,2.74,2.63,4.49,4.27,2.74,12.71.99,17.74h.11c.33,1.64.99,3.18,1.31,4.93l-.11.11c.55,2.19,0,4.6-.55,6.9-.55,2.08-.44,5.04-2.63,6.35.88,1.21-.66,2.96.55,3.94.55,5.15-.66,9.75-2.19,14.35,0,1.64-1.53,3.94,0,5.26.66,1.31,0,3.29,1.31,4.6l-1.21,14.35c.44.88,1.21,1.53,1.21,2.63-.55.33-.11,1.32-.88,1.64-1.1.77-.44,2.41-.66,3.61,0,.44,0,1.21.66,1.1.77-.55.33-1.86.44-2.85.33-.77.88-1.31.99-2.3.88-.77.55-2.52.22-3.61.44-4.93-.22-10.29,1.97-14.46.22-1.97.99-3.94,1.42-5.81.99-2.08,1.53-4.38,3.5-5.92,1.42.99,3.61-.22,4.49,1.31l.22-.22c2.52,3.5,2.74,8.21,2.52,12.92l-.22.22c-.44,5.04-2.08,9.2-3.29,13.8.33,2.19-1.86,2.08-2.08,4.05-.33.44,0,1.2-.55,1.64l.22.44c-.99,4.82-.22,9.75-.33,14.9-.55,6.13.22,13.14-1.31,19.49-2.08,9.97-10.29,16.87-15,25.41-.77.22-1.42.77-1.53,1.53-1.75,5.15-1.75,11.06-2.63,16.43.11.66-.22,1.64.44,1.86l-.55,1.53c-2.85.88-6.13.66-8.76-.11-10.73-1.42-22.45-9.42-26.18-20.59,1.86-2.08,2.85-4.71,4.49-7.01.44-.44.77-1.64,1.31-1.97v-.44c.33-1.53,1.53-3.51,1.42-5.37,2.41-9.53,3.61-19.49,4.27-29.68.22-1.53,0-3.29.33-5.04-.33-.77,0-1.75-.11-2.74.55-.33-.11-.44,0-.77.44-.88-.11-1.97.22-2.74-.44-1.09.11-1.97-.22-2.96-.22-.55.77-.77.11-1.1.44-.44-.22-.99.22-1.31.11-.44-.33-.77-.66-.99-.66-2.52,1.53-4.05,1.31-6.46,1.31-8.43,3.51-16.98,5.37-25.08.55-1.86.88-3.61,1.31-5.58.55-.88.22-2.19,1.1-2.85-.22-.66.88-1.1.55-1.53,1.31-1.21,1.97-2.3,2.08-4.27.55-2.08.44-4.82,1.64-6.68.66-.66,1.53.11,2.19-.11.33,0,.77.33,1.1.55,1.42-.44,1.53,1.53,2.41,1.97,2.96,5.04.55,11.5-1.21,16.32-.33-.11-.88-.22-1.21.11-.99.77.44,1.53.22,2.41.22.55-.77,1.1.11,1.53.99,3.94.11,8.32-1.1,11.94-1.1.44-.66,1.75-.99,2.74,1.75,5.81.88,12.27-.88,17.74l.11.22c2.41-.77,2.52-4.16,2.96-6.46-.11-2.08,2.63-1.86,3.4-3.39,1.42-.22,1.75-1.86,2.63-2.74.22-1.86,1.53-3.39,1.64-5.04,1.42-5.04,1.53-11.5.44-16.76.77-1.42,1.86-2.85,1.86-4.6.55-.44.11-1.21.77-1.53-.33-.99.22-2.08.11-3.07.44-1.75.66-3.51.66-5.15.22-.22.44-.55.11-.77.11-1.64-.44-3.28-.22-4.93-.77-.44-.22-1.42-.77-1.97.99-2.19,2.19-4.6,2.52-7.01-.11-2.19.77-3.94.22-6.13.44-.66-.33-1.42-.33-2.3,0-1.64-.55-3.51-1.32-5.15-.88-2.52-3.61-3.72-5.8-4.38-.77-.66-.99.22-1.86-.11.11-1.53.11-3.07.55-4.38.66,0,.55-.88.88-1.31-.55-.88-.22-2.3-.55-3.18-.11-1.64.55-3.39,2.08-4.16,1.31,0,2.52,0,3.5.77,1.42.33,1.75,1.97,2.52,2.85,2.96,6.68,2.96,14.24,1.97,21.46-1.1,1.75-.11,3.83-.55,5.69l.44.33c.11,2.19.22,4.6-.22,6.79,0,3.4-1.21,6.68-1.53,10.19l.33.44c-.11,4.49.77,8.32,0,12.6-.66,2.41-1.21,4.49-2.3,6.57-.22.22.22.44.33.77.99.33,1.21-1.1,1.86-1.53,2.19-5.69,2.74-12.16,1.1-18.18l-.33-.22c1.97-6.13,3.18-13.03,1.97-19.93.44-1.1.33-2.19.77-3.51.22-.77-.11-1.64.44-2.19.11-2.19.22-4.05.55-6.35-.22-1.75-.22-3.07-.33-4.82.11-2.63-1.32-5.26-1.64-7.77-1.1-1.32-1.42-3.18-2.85-4.16,0-.55-.55-.55-.77-.77-1.1-1.1-2.41-.66-3.72-.99-2.08-.55-4.16.99-5.48,2.74-.33,1.75-.44,4.16.11,5.91-.55,1.97-.66,4.71-.88,7.23-1.21.33-1.42,1.53-2.41,2.19-.66,2.63-.66,5.37-.66,7.89-1.42,4.05-2.74,8.33-2.74,12.82-.33.66-1.1.77-1.75.88-2.08,2.85-1.53,7.34-2.41,10.62-.11.22-.55.22-.77.11-2.3.66-1.75,3.5-2.74,5.37-.99,3.29-1.31,7.01-2.41,10.08-1.21,5.91-2.74,11.94-3.72,17.85-2.63,4.49-1.75,10.62-1.31,15.77-.11,14.13-1.1,28.59-4.71,41.73-.77,4.05-3.29,7.56-5.37,11.06l-.55-.33c-.22.11-.44.33-.44.55.22,1.53-1.64.88-1.97,2.19-6.07,8.68-12.05,17.06-17.96,25.71.13.94.26,1.88.37,2.82,2.42-3.63,4.81-7.23,7.51-10.79,1.75-1.86,2.63-4.49,4.6-6.13.44-1.64,1.86-2.74,2.63-4.27,1.31-1.97,2.74-4.16,4.38-6.02,1.42,4.27,4.16,8,7.34,11.5,2.08,1.75,3.94,4.27,6.57,5.15.77.99,2.19,1.31,3.18,2.08,1.75.66,3.4,1.2,4.82,2.19,1.64-.11,2.74.88,4.16,1.1,1.86.33,3.83.22,5.37.98,1.31-.55,3.07,0,4.6-.11-1.21,7.56-2.3,14.68-3.51,22.23.22.44-.66.33-.11.77-.23,1.3-.48,2.57-.7,3.84.66-.59,1.34-1.13,2.02-1.68.03-.21.08-.42.1-.62.77-.33.11-.99.33-1.53.99-4.05,1.42-8.32,2.19-12.6.88-2.85.77-5.59,1.42-8.43.77-1.75.44-4.27,1.97-5.59.11-.77-.66-1.31-1.31-1.31.11-1.42.77-3.07.66-4.6.44-1.75.22-3.07.88-4.71-.22-1.2.44-2.41.44-3.61,0-.44.55-.44.22-.99.22-.33.44,0,.66,0l.44-.66c-.22-1.32.88-2.19.99-3.4-.11-.55.77-.22.33-.77.55-.55.77-1.1,1.1-1.75,1.21-1.43,1.64-2.96,2.96-4.16.66-.33.33-1.31,1.31-1.2,0-.22,0-.33-.11-.44.33-.22.33-.33.66-.33,2.63-3.4,4.93-7.01,6.9-10.73,1.31-2.19,1.1-3.94,2.19-6.13.11-1.1,0-2.63.88-3.29l-.44-.66c.44-1.21.11-2.63.55-3.73-.11-2.19,0-4.16-.11-6.13.66-3.29-.11-6.79.66-10.08-.66-1.64.11-3.72-.22-5.37-.22-1.97.33-4.71.33-6.57-.11-2.41,2.19-3.61,2.3-5.91.11-.55.77-.77.55-1.42,1.75-4.82,2.85-9.53,3.29-14.57l.33-.11Z"/>
      <path class="cls-2" d="m79.27,25.63c1.1,1.09,1.53,2.63,1.64,4.16,1.21,2.08.99,4.71.99,7.34s-.77,5.37-1.75,7.78c-.33.11-.99.33-1.1.88,0,1.31.55,2.41.44,3.62.55.66.44,1.75.44,2.41.77,3.94-.66,7.67-.88,11.5-.22.99-.33,1.97-.88,2.74-.33,0-1.1-.11-1.1.55-.22,2.3.88,4.6.88,6.9.77,6.24-.88,13.14-3.51,18.62l-.11.98c-.88.44-1.86,1.75-2.96,1.64,0-3.18.55-6.35-.44-9.53.44-2.08,1.21-4.05,1.75-6.13.44-2.74.88-6.02.22-8.87.55-.44-.11-.66-.11-1.09,1.97-3.73,3.07-7.67,3.94-11.94-.44-.66.66-1.1,0-1.75.66-.66-.33-1.21-.11-1.86-.55-1.86-.66-3.94-2.3-5.26.22-.44-.88-.77-.77-1.31-.11-.44-.44.11-.77-.22-1.1-.99-2.19-1.31-3.61-1.21,0-1.97.55-3.72,1.1-5.37.55-1.75.66-3.83,1.86-5.26,0-1.64.44-2.85.33-4.6.44-1.42-.11-3.29.33-4.93,1.42-.33,1.64-1.09,3.07-1.31,1.42-.22,2.19.77,3.39,1.54Z"/>
      <path d="m72.92,122.56h-.22c-.44-2.74-1.1-5.8-1.42-8.54l.22-.66c.77,2.96.99,6.02,1.42,9.2Z"/>
      <path d="m73.14,123.65c-.33,0-.33-.11-.33-.33l.11-.44c.33.22.11.55.22.77Z"/>
      <polygon points="73.14 124.86 73.14 124.09 73.25 124.86 73.14 124.86"/>
      <path d="m73.36,127.81l-.11-2.52c.22.88.66,1.97.11,2.52Z"/>
      <path d="m74.24,131.54c-.33-.66-.33-1.86-.66-2.74l.11-.66c.11.99.55,2.19.55,3.4Z"/>
      <path d="m74.35,133.51c-.33-.33,0-1.21-.22-1.65.22.44.33,1.2.22,1.65Z"/>
      <path d="m74.57,136.36c-.44-.66-.22-1.75-.22-2.52l.22,2.52Z"/>
      <path d="m74.89,138.88c-.88-.55.11-1.43-.33-2.19l.33,2.19Z"/>
      <path d="m75,140.19c0,.11-.11.22-.22.11v-.44c.33,0,.22.22.22.33Z"/>
      <path d="m75,142.93c.11-.77-.55-1.42-.11-2.19.22.88-.11,1.31.11,2.19Z"/>
      <path d="m75.11,144.79c-.33-.33.22-1.1,0-1.53.11.44.11,1.2,0,1.53Z"/>
      <rect x="75.11" y="146.21" width=".11" height=".11"/>
      <path d="m75.33,149.5c-.77-.55.11-1.1-.11-1.75l.11,1.75Z"/>
      <path d="m75.44,152.13c-.99-.22,0-1.75-.22-2.3.22.66.44,1.53.22,2.3Z"/>
      <path d="m72.48,167.46c-.55.66-1.42.88-2.3.99-1.21,0-2.41-.99-2.96-1.64,2.63-.11,3.72-2.85,5.26-4.6.88-2.19,2.63-3.72,2.85-6.13,1.21-1.75,1.53-3.83,1.97-6.02-1.21,5.92-1.21,12.49-4.82,17.42Z"/>
      <path d="m75.55,154.32c-.33.44.11.99,0,1.31-.55-.77-.44-1.75-.11-2.74.33.66-.22.99.11,1.42Z"/>
      <path class="cls-2" d="m75,159.03c.33,1.31-.55,2.08-.66,3.4-1.31,1.64-1.86,5.26-4.93,4.71,2.85-2.52,4.16-5.91,5.69-9.2,1.32-.55-.11.77-.11,1.1Z"/>
    </g>
    <g>
      <line class="cls-3" x1="103.08" y1="128.16" x2="124.78" y2="128.16"/>
      <polygon points="118.43 136.53 121.99 128.16 118.43 119.78 138.29 128.16 118.43 136.53"/>
    </g>
    <g>
      <line class="cls-3" x1="187.57" y1="128.15" x2="154.76" y2="128.15"/>
      <polygon points="161.12 119.78 157.56 128.15 161.12 136.54 141.26 128.15 161.12 119.78"/>
    </g>
  </g>
</svg>