<?xml version="1.0" encoding="UTF-8"?>
<svg id="Layer_1" data-name="Layer 1" xmlns="http://www.w3.org/2000/svg" xmlns:xlink="http://www.w3.org/1999/xlink" viewBox="0 0 284 226.77">
  <defs>
    <style>
      .cls-1 {
        fill: #fff;
      }

      .cls-2 {
        fill: url(#linear-gradient);
      }
    </style>
    <linearGradient id="linear-gradient" x1="111.79" y1="11.3" x2="118.23" y2="30.62" gradientTransform="translate(0 228) scale(1 -1)" gradientUnits="userSpaceOnUse">
      <stop offset="0" stop-color="#fff"/>
      <stop offset="1" stop-color="#ededed"/>
    </linearGradient>
  </defs>
  <rect class="cls-1" x="71.13" width="141.73" height="226.77"/>
  <g id="Färg">
    <path class="cls-2" d="m146.63,218.16l-.59-18.73-.33-19.77s-13.13,2.21-16.64,1.62-17.56-5.85-20.49-8.19-12.35-13.26-13.2-12.78-2.02,11.02-2.02,11.02l-7.02,19.32-5.27,14.63s33.37,18.14,65.56,12.88Z"/>
  </g>
  <g id="Lager_1" data-name="Lager 1">
    <g>
      <path d="m157,2.07c-.11.22-.11.45,0,.56.11.34.67,0,.45.45,1.34,1.23,1.23,3.02,2.01,4.59.34,3.47-.33,5.82-.33,9.06-.67,1.23.45,2.12-.67,3.24-.33,4.14-1.57,8.72-1.45,12.75-.33.33.45.56,0,.78-.11,2.24-.56,4.58-.67,6.6.45,3.47.11,6.71.34,10.29.11,1.01-.56,2.01,0,2.91-.45.56-.34,1.34-.11,1.79-.56,3.13-.11,6.6-.34,9.73.11,1.57.22,3.58-.11,5.26.33.56,0,1.34.89,1.46.89-1.34,1.23-3.02,2.12-4.36,3.35-6.26,7.6-12.08,10.85-18.34,2.57-4.14,5.81-8.39,8.05-12.97,1.01-.34.56-1.45,1.46-2.01-.22-.67.56-.67.78-1.23,1.12-2.35,2.91-4.25,4.03-6.6,1.23-.78,1.79-2.57,3.36-2.35,1.79-.78,4.58-.33,6.49.78l.11-.11c1.23,1.34,2.46,2.12,3.24,3.91h.11c.11.78.22,1.79.56,2.68,0,1.9-.11,4.14-.67,6.04.56.45-.45.33-.22.9-.78,4.03-3.47,6.82-4.7,10.4-1.34,1.68-2.46,4.14-3.69,6.04v.45l-.11-.11c-1.68,2.46-3.02,5.15-4.92,7.49-.11,1.01-1.12,2.01-1.34,3.13-.89,1.68-2.35,3.47-3.02,5.48-.34-.11-.45.11-.45.45-.56,1.01-1.79,2.12-1.79,3.36-.56.22-.78.89-.78,1.34,0,.56-.9.78-.45,1.23-.78.56-1.01,1.34-1.45,2.01l-.22,1.12c0-.11.11-.22,0-.33-.34,0-.22.45-.34.67-.34.45-1.12,1.12-.89,1.79-.22-.22-.45.22-.45.33,0,.33-.45.67,0,.89-1.01,0-.78,1.12-1.57,1.45v.22c1.34-.22,3.24.11,4.47.45,1.12,1.12,2.8,1.23,3.92,2.57.33,1.01,1.56,1.34,1.34,2.46.11.89.89,2.12.22,3.02-.56.89-.33,2.01-.45,2.91-.34.45-.45,1.23-.34,1.57-.22.45-.33,1.57-.67,2.01-.34,1.79-.78,3.58-1.34,5.26.22.22.22.33,0,.56-1.12,3.47-1.57,7.49-3.13,10.62,0,.34-.22.78.11,1.01-.11,0-.22,0-.22.11.34.11.11.67-.22.89-.34,4.47-2.01,8.83-3.91,12.97-.89,1.34-1.57,2.91-1.9,4.36-.9,1.34-1.57,3.02-2.46,4.59.11.67-.78,1.01-.89,1.68-.45,1.45-1.68,2.57-2.01,4.14-1.23,1.12-1.45,2.46-2.35,3.8-1.45,2.24-3.24,4.25-4.36,6.6-1.79,1.68-2.01,3.35-3.91,5.03-1.79,2.68-3.58,5.59-4.7,8.5-1.01,2.46-1.68,4.92-1.79,7.38-.22.9-1.01.56-1.57.9-.33-.34-.22-1.12-.89-1.23.89-1.01.22-2.01.78-3.35.67-1.45.45-2.91,1.23-4.25-.56-.67.78-.9.78-1.57.45-.78,1.12-1.79,1.12-2.57,1.23-2.01,2.8-3.91,3.8-5.93.78,0,.45-1.01,1.12-1.34,1.34-1.9,3.02-3.8,3.91-5.7,3.02-3.69,4.92-8.28,7.38-12.41,1.34-2.91,3.02-5.7,3.91-8.61,2.57-4.36,4.14-9.84,4.81-14.54-.56-.56.33-.78.22-1.34.22-1.23-.56-2.35.34-3.47.33-1.23-.56-2.35.45-3.47.22-.22.67-.22,1.01,0l.45.45c.56-.89.67-2.12,1.01-3.13.9-3.8,1.9-7.72,2.35-11.41.11,0,.22-.22.34-.22-.34-.33-.67-.45-.67-1.01h.34c0-1.68-1.01-3.69-2.57-4.58-1.23.11-1.68-1.34-3.02-1.23-1.57.33-3.24,1.12-3.58,2.68-.33.45-1.12.89-1.79.89-1.23.33-1.01-.56-1.34-1.45,2.35-3.47,4.36-7.49,6.26-11.41.89-.33.67-2.01,1.56-2.68,2.69-4.59,5.03-9.17,7.61-13.76l.11-.78c-.33,0-.9-.33-1.01.33,0,.45,0,.78-.34,1.01h-.22c.22-.56.22-1.23.22-1.79-2.91-1.23-6.04-1.79-8.72-3.47-.22-.33.45-.33.67-.22,2.24,1.68,5.48,1.68,7.94,3.24.11-1.9-2.01-2.91-3.47-3.69-2.01-.89-4.03-.45-6.04-.33-.11-.67.78-.45,1.23-.78,1.9.67,3.91-.22,5.48,1.12,1.56.11,2.57,1.57,3.24,2.8-.34.56.22,1.12.67,1.34.78.45.89-.45,1.34-.78.67-2.12,2.35-3.69,2.91-5.7,1.57-2.24,2.57-4.7,4.14-7.04,1.79-3.35,3.47-6.82,4.81-10.4-.22-.45.56-1.23,0-1.79-1.23,1.23-2.46,2.46-3.91,3.13-1.57-.56-3.36-.56-4.36-2.01-1.01-.22-1.79-1.12-2.57-1.79-.11-.67-.22-1.68.11-2.46-1.01-.11-.67.9-1.34,1.23-.78,1.12-1.45,2.35-2.12,3.58-.11.78-.78,1.01-1.12,1.56-.34.78-1.23,1.45-1.12,2.24-.89.45-1.12,1.45-1.68,2.24-.34.78-1.34,1.57-1.23,2.69-.56,0-.9.45-.9,1.01-.78,1.56-2.35,3.13-2.91,4.92-1.12.78-1.57,2.57-2.57,3.69.11.67-1.01.78-.67,1.45-.11.34-.89.67-.78,1.12-1.34,1.45-2.46,3.69-3.47,5.48.22.67-.89.78-.78,1.34-1.34,2.12-2.35,4.47-3.8,6.93.22.78-1.12,1.23-1.12,2.12-.45.11-.89.56-1.01,1.01-.78,1.12-1.9-.11-2.91.56-.45-.22-1.01-.11-1.34-.45-.22-.78.67-.78.67-1.45.22-1.01-.67-1.79.11-2.68.11-.89-.22-1.79-.22-2.68.56-1.68-.22-3.24.22-4.92-.22-1.23.11-2.68-.22-3.8.56-.9.11-2.01.22-2.91.11-3.91.56-7.72,0-11.52.22-1.57.22-2.91.11-4.7.22-1.79-.11-3.35.22-5.26.78-6.82,1.68-13.76,2.35-20.69-.45-.34,0-.56,0-1.01,0-.78.22-1.57,0-2.24-.78.56-.56,2.12-1.23,2.8-.11.78,0,1.79-1.01,2.12-1.9-.9-4.25-.22-6.38-.56-.56.56-1.34-.22-2.01-.56.11-.34,0-.89-.45-1.23,0-1.45-.78-2.91-.67-4.47-.45.45-.56,1.68-.78,2.12-1.12,3.47-2.01,6.82-2.8,10.29,0,1.01-.11,2.12-.56,3.13.56.22,0,.78-.11.9-.45,4.59-1.23,8.39-1.68,12.75.22.9-.33,2.24-.11,3.24-.67,1.79-.67,4.03-.67,5.48-.34,1.9-.56,3.92-.56,5.59-.56,3.58-.67,7.83-1.01,11.41,0,1.34.11,2.68-.33,3.92.45.67-.34,1.45,0,2.12-.67,2.24-.45,4.92-2.46,6.49-.45.11-.78-.11-1.01-.45.67-.67-.11-.89-.56-1.45-.33-.56,0-1.34-.56-1.79.9-1.23-1.23-1.68-.56-2.91,1.12-1.45,0-3.47.22-5.26-.33-3.24,0-6.26-.67-9.62l-.22-.11h.22c0-1.68,0-3.24-.33-4.81-.22-.33.45-.45,0-.78.33-.34-.56-.56-.11-1.12-.11-.56-.22-1.34-.34-2.12-3.58-.78-8.39.45-12.19-.33-.22-.45-.78-.33-1.12-.45-.11,3.35.45,7.38-.11,10.85v7.49c-.56.45.33.9-.11,1.34-.11.56-.22,1.01.11,1.57h.11c-.78.89.22,1.9-.45,2.91.22.22.33.33.11.67-.11,1.9,0,4.25-.11,6.38.22.33.33,1.01,0,1.23-.45,5.03-1.23,10.74-1.68,15.99-.45,2.35-1.01,4.58-1.23,7.05-.67,3.58-1.34,8.39-2.12,11.85.22.34-.22,1.12-.22,1.57-.22,1.9-.78,4.03-1.12,6.04-.78,2.35-.78,5.14-1.56,7.6.33.67-.56,1.12-.22,1.9-.9,1.57-.67,3.69-1.34,5.15-.45,3.02-1.57,5.93-1.79,9.06-.45,1.45-1.01,3.47-1.23,5.26h-.11c0,2.46-2.12,4.59-1.68,7.05-1.01.78-.67,3.58-2.68,2.68-.78-.34,0-1.12,0-1.68.78-.22.22-1.45.78-1.9.9-2.46,1.23-4.7,1.79-7.27.56-3.47,1.34-6.26,2.01-9.73.45-1.34.56-3.02,1.01-4.36.22-1.68.9-3.58,1.01-5.26.78-3.02,1.34-6.71,2.24-9.84-.45-.34.11-.45,0-.78.22-.67.45-1.68.22-2.35.22-.11.67-.67.11-.9,1.23-2.46,1.01-5.48,1.9-8.16-.34-.22.22-.78.11-1.12,1.23-7.49,2.46-15.43,3.13-23.04.22-4.14.67-8.16.78-12.19-.56-.78.22-2.12-.33-2.91.56-1.34-.22-3.24.33-4.36-.67-.11.34-.56-.22-.78.33-.9,0-1.79.33-2.68-.11-.33-.11-.89-.11-1.23.11-3.47-.11-6.26.22-9.51.56-1.23,0-3.02.11-4.47-.34-6.26-.78-12.3-1.23-18.23.33-2.91-.33-6.15.11-8.95-.22-.67.45-2.01.11-3.02.56-1.01.67-2.35,1.01-3.47-.67-.22.45-.78.45-1.23,1.23-.9,2.35-2.35,3.69-2.91.22-.34.45-.22.56,0,2.8-.45,5.48.45,7.72,1.9,1.23.34,1.01,1.57,2.12,2.12.78,3.35,1.12,6.26,1.45,9.62-.56.45.22,1.01-.11,1.45,0,.67,0,1.45.34,2.12l-.22.22c.34,2.57.45,5.26.45,7.83l.45.67-.34.22c.45.34-.22.78,0,1.12l.34,3.24c-.34.9.11,1.9-.22,2.91.11,2.68.67,4.81,1.23,7.38-.45,1.45.56,3.13.22,4.36.34,1.12,0,2.68.45,3.69l-.11.22c.33.22-.34.56.33.78-.33,1.79-.11,3.69.11,5.48h0c-.11,1.9.33,3.69.33,5.82h.22c.67-6.04.78-13.08,1.34-19.12.45-1.23.56-2.35.45-3.58.67-3.92.89-7.72,1.57-11.85.56-5.03,1.45-10.51,2.35-15.77.67-.34,0-1.23.45-1.79.11-1.23.78-2.35.78-3.36,1.01-2.57,1.57-4.47,2.57-7.05.67-.45.89-1.9,1.9-1.23.33-.34,0-.67,0-1.01,1.34-1.9,3.91-2.12,6.04-2.01,1.9,0,3.8.44,5.47,1.23Z"/>
      <path class="cls-1" d="m152.31,3.3c.22.34.67.22,1.23.11.45.56,1.79.67,1.79,1.79.11.11.45,0,.33.34-2.79-.56-6.49-.67-9.17-.67l-.22-.78c1.68.56,2.57-1.79,4.47-.78.45.22.9.11,1.57,0Z"/>
      <path class="cls-1" d="m156,7.55c-.34,2.35-.78,4.7-1.9,6.82-2.57-.22-4.81.11-7.27-.56-.89-2.12-1.12-4.7-.56-7.05.22.11.22-.11.34-.22,0-.11-.11-.22-.22-.34.45-.78,2.12-.34,3.13-.45,2.24.22,4.92.11,6.49,1.79Z"/>
      <path class="cls-1" d="m125.58,9.12c-2.46-.56-5.37-.34-7.83-.11,2.35-.89,5.7-1.79,7.83.11Z"/>
      <path class="cls-1" d="m126.25,10.23c.22,1.79-.11,3.69-.33,5.48-1.68.34-3.58.78-5.26.9-2.12.67-2.91-2.12-4.58-2.46.34-.67-.45-1.01-.22-1.68.9-1.01.11-3.35,2.24-2.91,2.57,0,6.04-.78,8.16.67Z"/>
      <path class="cls-1" d="m127.82,17.95c0,.22-.45.67.11.9.11,1.34-.22,2.8.22,3.91-.45.56.56,1.12-.11,1.68.56.33,0,1.45.56,2.01l-.22.22c0,1.57.45,2.68.22,4.36.22,1.57.33,3.36.33,5.14-.67.45-.56,1.34-.45,2.01.45,1.23.56,2.01.67,3.47-.78-.11-1.23-.67-1.9-1.01-1.79,0-3.69-.78-5.37,0-1.79,0-3.8.56-5.26,1.9-.33-1.12-.22-2.57-.45-4.14-.33-7.72-1.34-14.99-.45-22.81l.11-.22c.9,1.01,1.9,2.57,3.35,2.68,2.68-.22,4.92-.9,7.38-1.45.11-1.01,0-1.79.45-2.8.33,1.57.33,2.68.78,4.14Z"/>
      <path class="cls-1" d="m192.23,26.56c1.01.45,1.9,1.57,2.57,2.46-1.68-1.57-4.03-1.9-5.93-2.8.45-.78,1.34.45,2.01-.33l1.34.67Z"/>
      <path class="cls-1" d="m192.23,28.69l.22-.22c1.01,1.12,2.68,1.68,2.8,3.13.11.67-.45,1.23-.22,1.68-1.79,1.45-3.8,4.25-6.38,3.02-1.01-1.34-2.46-1.45-3.69-2.35.22-2.57.67-5.03,2.35-7.05,1.56.45,3.24,1.23,4.92,1.79Z"/>
      <path class="cls-1" d="m128.6,42.44c.33-.11.56-.34.67.11-.56.56.9.78.11,1.12.34.11.11.9.45,1.34-3.58.11-7.6-.11-11.3-.33-.56-.11-1.23-.45-1.34-1.01.67-2.24,3.47-1.79,5.37-2.46,1.9.11,4.36-.11,6.04,1.23Z"/>
      <path d="m150.07,43.23c-2.46-.33-5.14-1.01-7.49.56.78.45,1.9.34,2.8.45,2.68,0,5.03.33,7.72.45-3.13.22-7.27,0-11.3.11l-.11.67c-.56-.33-.22-1.34-1.23-1.34,1.57-.45,2.8-1.68,4.81-1.68,1.56-.11,3.35.11,4.81.78Z"/>
      <path d="m151.19,43.9l-1.01-.45.22-.11c.11.56.78,0,.78.56Z"/>
      <rect x="151.41" y="43.9" width=".11" height=".11"/>
      <rect x="121.66" y="112.12" width=".11" height=".11"/>
      <rect x="113.28" y="125.09" width=".11" height=".11"/>
      <path d="m97.51,161.1c-.22-.78-1.34-1.56-2.12-.78-1.12,1.34-.45,3.13-1.23,4.7-.22,1.23-.56,2.69-1.12,3.91-1.01,5.26-3.24,10.74-4.7,15.88,0,.45-.78.22-.34.78-1.26,3.76-2.68,7.49-4.19,11.18.27,1.12.55,2.24.9,3.34.37-.79.73-1.6.94-2.44,1.12-.56.34-1.68,1.12-2.35.45-1.45,1.01-2.8,1.57-4.25,0-.45.56-.78.45-1.23l.33-.45c.45-1.12.67-2.46,1.23-3.8l.22.11c-.34-.78.11-1.45.22-2.01,0-.56.9-.67.45-1.34.67-1.23,1.34-2.8,1.45-4.14,1.68-4.7,3.13-9.62,4.14-14.54-.34-1.01.56-1.79.67-2.57Z"/>
      <path d="m99.07,160.54c7.83,12.3,20.69,19.79,34.78,19.91,3.8.11,7.72-.67,11.41-1.01.11.11.34,0,.45.22-5.82,2.91-12.86,2.8-19.24,1.68-1.23,0-2.46-.56-3.58-1.01-3.69-.78-7.05-2.91-10.62-4.47-5.7-3.69-11.18-9.06-14.54-14.88-.11-1.01.89-.56,1.34-.45Z"/>
      <path d="m147.43,208.39c.03-1.2.06-2.41-.04-3.56l.45-.11-.22-.23c-.11-3.47-.22-6.6,0-10.06-.22-1.12.22-2.57,0-3.8.45-2.91,0-5.7.45-8.61,0-.78-.45-1.12-1.23-1.23-.45.11-.67.45-.89.78-.65,8.87-.65,19.07-.65,28.94.68-.73,1.4-1.44,2.14-2.12Z"/>
    </g>
  </g>
</svg>