<?xml version="1.0" encoding="UTF-8"?>
<svg id="Layer_1" data-name="Layer 1" xmlns="http://www.w3.org/2000/svg" xmlns:xlink="http://www.w3.org/1999/xlink" viewBox="0 0 284 226.77">
  <defs>
    <style>
      .cls-1 {
        fill: #fff;
      }

      .cls-2 {
        fill: url(#linear-gradient);
      }
    </style>
    <linearGradient id="linear-gradient" x1="110.8" y1="10.17" x2="121.3" y2="31.17" gradientTransform="translate(0 228) scale(1 -1)" gradientUnits="userSpaceOnUse">
      <stop offset="0" stop-color="#fff"/>
      <stop offset="1" stop-color="#ededed"/>
    </linearGradient>
  </defs>
  <rect class="cls-1" x="71.13" width="141.73" height="226.77"/>
  <g id="Färg">
    <path class="cls-2" d="m144.13,222.5l7.5-39.5s-17-2.5-24-5-19.6-14.08-22.8-16.29-5.33,13.02-6.26,15.66-5.93,8.63-9.43,14.63-5.5,9.5-5.5,9.5c0,0,24.5,22.5,60.5,21Z"/>
  </g>
  <g id="Lager_1" data-name="Lager 1">
    <g>
      <path d="m171.26,69.44c.22-.78.78-1.46,1.12-2.12.45-1.23.9-2.46,1.34-3.69.33-3.35,2.68-5.7,4.25-8.61l.34-.11c.67-1.57,1.68-3.13,2.68-4.7.33-1.12,1.34-2.01,1.57-3.24,1.34-1.45,1.01-3.47,2.46-4.7.22-3.02,3.58-4.03,4.03-6.71,2.35-3.8,4.47-8.16,6.71-12.08,1.12-3.69,2.01-7.16,1.46-10.96-.9-.78-1.57-2.12-2.46-2.57-.45-.34-.56-1.12-1.23-1.01-.22-.11-.56-.34-.56-.67-.89,0-1.79-.22-2.57-.45-3.92-.45-6.49,3.13-8.95,5.7l-.56,1.12c-1.01.89-1.9,2.24-2.91,3.24-1.79,2.91-3.69,5.59-5.82,8.39-1.45,2.91-3.13,5.48-4.7,8.28-.11.9-1.23,1.34-1.23,2.12-5.14,9.06-10.06,17.89-14.65,26.95-.34.33-.34,1.01-1.12.78-1.12,1.23-1.68,2.57-2.91,3.69-.56-.22-1.12-.33-1.57-.78-.45-3.02-.78-7.04-1.45-9.39-.11-1.12-.56-2.12-.33-3.13-.56-1.56-.89-3.69-1.12-5.26.06-.12.1-.3.18-.41-.36-.12-.14-.86-.4-1.04-.11-2.01-.78-4.36-.78-6.6-.56-.9-.56-1.9-.56-2.91-.56-.67-.22-1.12-.45-1.9-.67-6.71-.11-13.76.22-20.58l-.22-.11c.56-2.46-.22-4.92-.22-7.38l-.22-.22c.34-1.23-1.01-1.79-1.01-2.91l-2.01-2.57c-2.57-1.12-6.04-1.79-8.72-.22-.34.78-1.45.78-1.79,1.57-.78,1.45-1.34,3.13-1.79,4.7-.34,1.01-.22,2.01-.45,2.91-.78,8.61-1.34,17.89-1.23,27.06-.11.11-.22.34-.33.34.56,1.01,0,2.35.11,3.24,0,.67.34,1.68-.22,2.12.11,8.16.22,14.2-.34,22.25.11,2.57-.22,5.03-.45,7.72,0,3.13-.34,5.93-.56,9.06-.56,3.47-.78,6.04-1.23,9.62,0,.11-.34.67-.56.33-1.12,2.01-2.69,3.36-4.03,5.59-.9,12.3-1.34,25.83-4.59,37.91-1.45,7.27-3.58,15.21-6.15,21.92l-1.34-.56c-.78.11-.9.9-1.34,1.34-3.18,11.68-8.86,22.44-14.98,32.88.25,1,.53,1.99.82,2.98.13-.18.25-.35.41-.52,2.13-4.14,4.47-7.83,6.82-12.19.67-2.13,2.13-3.58,2.91-5.59,1.23-2.35,1.9-5.03,3.24-7.38l.22-.11c.11-1.9,1.46-3.35,1.57-5.15.67-1.01.45-2.35,1.23-3.02-.22,0-.34-.45,0-.56,3.24,4.47,6.93,8.84,11.74,11.74,6.04,5.03,13.65,6.93,21.03,8.95,3.36,0,6.26.11,9.73,0,.89.67,2.13-.78,2.8.45-.22-.45.34-1.45.34-2.12.78-1.9,1.45-3.91,2.91-5.48,1.01-.78.9-2.57,2.24-2.91.34-.78.78-2.24,1.68-2.91,1.9-3.47,4.58-6.93,6.71-10.07,3.8-5.26,7.6-10.62,10.18-16.66,1.34-2.13,2.01-4.47,2.8-6.82.78-1.23,1.23-2.57,2.12-3.8-.11-.78.89-.9.56-1.57.78-1.9,2.01-3.58,2.35-5.48.89-.89.56-2.12,1.45-3.02-.22-.45.11-1.01.22-1.34l.56-.78c.22-1.34.45-2.46,1.01-3.8.67-2.01,1.01-4.25,2.12-6.04.11-1.79,1.01-3.47,1.23-5.48,1.45-.78,0-2.24.89-3.36-.11-.89.22-2.12.11-3.13-.56-.45-.45-1.34-.78-2.01-.11-.89-1.46-1.12-1.79-2.01-2.12-1.34-3.69-3.24-6.49-2.46-.22-.22-.33-.33-.22-.67.56-1.79.45-3.24-.34-4.92-.78-.78-.56-2.24-1.9-2.68.45-1.12-1.01-.78-1.12-1.45-.56-.78-1.9-1.23-1.12-2.46.78-1.57-.45-3.69-1.01-4.92-1.34-.67-3.13-1.45-4.81-.9v-.45c.9-.33,0-.78.45-1.45.56-.45.56-1.12.78-1.68Z"/>
      <path d="m143.64,49.09c-.2-.1-.31-.06-.38.03.09.03.2.03.38-.03Z"/>
      <path class="cls-1" d="m133.35,4.36c.89-.78,1.56.78,2.23.56-1.56,0-3.02.56-4.47.89-.9.78-2.01,1.01-2.8,1.9-.45-1.79,1.79-2.01,2.57-3.24.78-.78,1.34.22,2.12-.22l.34.11Z"/>
      <path class="cls-1" d="m136.82,6.93c-.34,1.01,0,2.01,0,3.13-.11,1.57-.22,3.24-1.23,4.47-1.9.11-4.03-.11-5.93-.78-.78-1.45-1.57-3.02-1.34-4.92,2.13-2.01,4.7-3.47,7.6-2.8.22.34.78.45.9.9Z"/>
      <path class="cls-1" d="m138.38,17.22c.22,2.24,0,4.36-.11,6.71.22,2.8.33,5.48.33,8.39-.11.67.56,1.68-.22,2.35.34.56.11,1.79.45,2.57-.33.45-.33-.22-.67-.11-3.58.11-6.93,1.12-10.29.56,2.01-2.01,5.15-2.46,8.05-2.24.67.11,1.23.9,1.9.67.11-.9-1.01-.9-1.45-1.34-2.8-.56-6.15.11-8.61,1.45-.45.45-1.12,1.01-1.23,1.68,1.9,1.79,5.15.56,7.49.33,1.56,0,3.13-.78,4.7-.45.22,1.23.34,2.24.67,3.35-.45.67.45,1.01.45,1.56.45,2.35.56,4.92,1.12,7.16-.11.45-.34.56-.11,1.12h.22c-.11,1.01.45,1.79.45,2.8-.11.78.56,1.79.22,2.68.9,2.35,1.12,5.15,1.45,7.72.22,1.12-.11,2.35.11,3.47l-.56.56c1.12.67.56,2.57,2.24,2.46.11-.56.89-.89,1.34-.45-.11,1.01,1.23.78,1.34,1.68.56-1.57,3.24-.22,2.8-2.46-.78-1.01.45-2.01,1.01-3.02,3.69-5.37,6.15-11.29,9.51-16.89,1.12-1.01,1.12-2.68,2.24-3.92,6.6-10.85,12.08-22.37,20.69-31.87-.89,2.01-2.91,4.47-1.12,6.49,2.35-.34,4.03,2.24,5.93,3.35,1.12.11,1.9-1.01,2.57-1.79,1.01-1.68,2.01-3.47,3.24-4.92.22,1.79-.78,4.02-1.45,5.7-1.01,2.8-2.35,4.81-3.69,7.49-.9,2.46-2.91,5.15-3.8,7.49-.67.11-1.45.33-1.79,1.12-.34.56-.34,1.01-.67,1.57-.22.9-.89,1.68-1.34,2.57l.11.22c-1.9,4.47-4.7,8.72-7.27,13.08-1.01-.11-1.12.9-1.57,1.56-.34,2.01-2.12,3.92-1.9,5.93l-3.36,8.05c-.45.22-.11,1.12-.78,1.34-.11,1.12-.56,2.35-1.23,3.13.22,1.12-.78,1.9-1.01,3.02-.56.56-1.12,1.12-1.34,2.01.22.89.45,1.23,1.23,1.68,1.01.22,1.34-.9,1.79-1.34.89-2.12,1.79-4.36,2.68-6.49,1.23,1.23,2.8-.56,4.14.56.33,1.01.67,2.24.33,3.36-1.01-.56-2.12-.11-3.02-.78-.89.89-3.35.78-2.91,2.57.22.78,1.12.89,1.68.89.78,0,1.45-.89,2.01-.34.34-.11.67-.33,1.12-.22.11.56.67.33.89.56l.22-.11c0,.45.45.67.9.67,1.23,1.34,2.8,3.13,3.13,4.7,1.12,1.9-.78,3.8-1.34,5.7-2.01,3.24-3.35,6.71-5.37,10.07,0,.67.56,1.34,1.12,1.01,1.23,0,1.9-1.57,2.46-2.46,1.23-2.24,2.12-4.36,3.8-6.49,0-.67.45-1.23.89-1.68.89,0,.22-1.23.78-1.68.11.67.56,1.23,1.23,1.68,1.34-.11,2.01,1.01,3.02,1.46.67,1.01,2.35,1.23,2.24,2.79.45.56.34,1.45.45,2.24-1.23,6.04-3.02,11.63-4.7,17.45-1.12,2.57-1.34,5.37-2.8,7.61-1.57,5.03-4.03,9.73-6.49,14.43l-.11.67c-.45,0-.11.78-.45,1.23-2.24,4.59-4.92,9.51-8.28,13.64-.22.67-.89,1.12-1.12,1.68-2.91,4.48-6.38,8.61-8.83,13.31-.56.56-.56.89-1.12,1.34-.22.11,0,.34-.11.45-.33-.22-1.12-.34-1.45.11-.9.56-.33,1.68-1.34,2.35-.45,1.79-1.01,3.47-1.79,5.26-.56.45-.22,1.34-1.01,1.57l.22.11-.22.22c-3.35.11-6.82-.9-10.07-.9-3.47-1.34-7.16-1.9-10.62-3.47-7.6-3.47-14.65-8.5-19.57-15.66.45-1.9,1.23-3.69,2.01-5.37.22-1.23.67-2.8,1.01-4.03.45-.67.56-1.9,1.01-2.8,1.12-3.91,1.45-6.71,2.68-10.62.56-3.8,1.34-6.6,2.01-10.51.45-.22-.22-.34,0-.67.11-1.12.45-2.01.56-3.24.11,0,.11-.22.22-.22-.67-.33.22-1.12-.22-1.57,0-.56.33-1.23.45-1.79-.11-1.12.22-2.24.33-3.13-.11-1.9.45-4.47.34-6.38.22-.67,0-2.12.22-2.79l.11-1.79c.11.11.11-.11.22-.11l-.22-.33c.11-1.34-.11-2.57.34-3.69-.45-1.68.78-3.13,1.68-4.25.11,1.01.11,2.68-.56,4.03.34.33,1.01.67,1.56.45,1.68-2.35,1.45-5.26,1.79-7.83.56-.22.11-.78.11-1.23.22-.89.22-2.01.67-2.8-.22-.67,0-1.57,0-2.35h.11c.78-5.7,1.12-11.07,1.45-17.11-.11-3.69.11-7.72.11-11.29,1.01-.56-.45-1.45.34-2.01,0-.78-.22-1.9.22-2.46-.22-1.23-.45-2.68-.22-4.03v-5.03c.11-.22.33-.67,0-.78.22-1.9.11-4.03.11-5.93l.22-.22-.22-.34c.22-3.8,0-7.27.56-11.3-.22-3.02-.11-6.04.45-8.95-.11-2.46.45-5.26.78-7.72.45.45.11,1.57.56,2.24.22.78.78,1.34,1.12,2.01,2.01.45,4.47.67,6.6.45,0,.22.11.56.34.67,1.23-.34.9-1.9,1.34-2.8.45-1.12.45-2.57.67-3.58,1,2.24.44,5.14.44,7.49Z"/>
      <path class="cls-1" d="m194.86,13.3c0,.56.34,1.12,0,1.57-1.23-2.35-4.25-4.14-6.93-4.25.45-.67,1.46-.45,2.24-.45,2.13-.22,3.58,1.79,4.7,3.13Z"/>
      <rect class="cls-1" x="187.37" y="10.39" width=".22" height=".11"/>
      <path class="cls-1" d="m194.19,15.54v.56c-1.68,1.9-3.13,4.14-4.81,6.04h-.45c-1.79-1.23-3.24-3.35-5.7-3.35-.11-2.12,1.01-4.47,2.46-6.26,2.8-1.68,7.38-.45,8.5,3.02Z"/>
      <path d="m178.64,45.4c-.22.33-.67,0-.89-.22-1.23-1.79-2.91-3.02-4.92-3.47-1.45-.11-2.79-.22-4.02.22,2.91,1.79,6.49,2.8,8.83,5.15-1.23-.22-2.57-1.23-3.8-1.9-2.12-.78-4.7-1.68-6.49-3.24v-.33c3.02-.78,6.71-.9,9.06,1.45.67.78,1.79,1.34,2.24,2.35Z"/>
      <path d="m152.81,181.39c.22,4.7-2.01,9.4-2.8,14.09-.33,1.9-.89,3.69-.89,5.37-.78,2.01-.45,4.02-1.34,6.04-.11,2.01-1.01,4.14-.78,6.26-.67.22.11,1.01-.45,1.57-.22.67-.67,1.68-1.23,1.9-1.23-2.01.22-4.02-.22-6.15.67-1.57,1.01-3.58,1.12-5.26,1.34-6.38,2.13-12.53,3.8-18.9-.33-.78.67-1.68.34-2.57.78-.56.33-2.8,2.12-2.68l.33.34Z"/>
    </g>
  </g>
</svg>