<?xml version="1.0" encoding="UTF-8"?>
<svg id="Kort" xmlns="http://www.w3.org/2000/svg" xmlns:xlink="http://www.w3.org/1999/xlink" viewBox="0 0 309 266">
  <defs>
    <style>
      .cls-1 {
        fill: none;
        stroke: #fff;
        stroke-linejoin: round;
        stroke-width: .75px;
      }

      .cls-2 {
        filter: url(#drop-shadow-1);
      }

      .cls-2, .cls-3 {
        fill: #fff;
      }

      .cls-4 {
        fill: #ef97c8;
      }

      .cls-3 {
        filter: url(#drop-shadow-2);
      }

      .cls-5 {
        fill: #e48db4;
      }
    </style>
    <filter id="drop-shadow-1" x="0" y="0" width="287" height="247" filterUnits="userSpaceOnUse">
      <feOffset dx="5.67" dy="2.83"/>
      <feGaussianBlur result="blur" stdDeviation="8.5"/>
      <feFlood flood-color="#000" flood-opacity=".56"/>
      <feComposite in2="blur" operator="in"/>
      <feComposite in="SourceGraphic"/>
    </filter>
    <filter id="drop-shadow-2" x="22" y="19" width="287" height="247" filterUnits="userSpaceOnUse">
      <feOffset dx="5.67" dy="2.83"/>
      <feGaussianBlur result="blur-2" stdDeviation="8.5"/>
      <feFlood flood-color="#000" flood-opacity=".56"/>
      <feComposite in2="blur-2" operator="in"/>
      <feComposite in="SourceGraphic"/>
    </filter>
  </defs>
  <g>
    <rect class="cls-2" x="27.83" y="33.81" width="220.09" height="174.71" rx="8.85" ry="8.85" transform="translate(287.66 227.25) rotate(174)"/>
    <path class="cls-1" d="M46.34,207.5c1.73,1.07.83,5.02,2.85,4.8s1.43-5.85,3.46-6.06,2.62,5.43,4.64,5.21,1.43-5.85,3.45-6.06,2.61,5.43,4.64,5.21,1.43-5.85,3.45-6.06,2.61,5.43,4.64,5.21,1.43-5.85,3.45-6.06,2.62,5.43,4.64,5.21,1.43-5.85,3.46-6.06,2.62,5.43,4.64,5.21,1.43-5.85,3.45-6.06,2.62,5.43,4.64,5.21,1.43-5.85,3.45-6.06,2.62,5.43,4.64,5.21,1.43-5.85,3.46-6.06,2.62,5.43,4.64,5.21,1.43-5.85,3.45-6.06,2.62,5.43,4.64,5.21,1.43-5.85,3.46-6.06,2.62,5.43,4.64,5.21,1.43-5.85,3.46-6.06,2.62,5.43,4.64,5.21,1.43-5.85,3.46-6.06,2.62,5.43,4.64,5.21,1.43-5.85,3.46-6.06,2.62,5.43,4.64,5.21,1.43-5.85,3.46-6.06,2.62,5.43,4.64,5.21,1.43-5.85,3.46-6.06,2.62,5.43,4.64,5.21,1.43-5.85,3.46-6.06,2.62,5.43,4.64,5.21,1.43-5.85,3.46-6.06,2.62,5.43,4.64,5.21,1.43-5.85,3.46-6.06,2.62,5.43,4.64,5.21,1.43-5.85,3.46-6.06,2.62,5.43,4.64,5.21,1.43-5.85,3.46-6.06,2.62,5.43,4.64,5.21,1.43-5.85,3.46-6.06,2.62,5.43,4.65,5.21,1.43-5.85,3.46-6.06,2.62,5.43,4.65,5.21,1.43-5.85,3.46-6.06,2.62,5.43,4.65,5.21,1.43-5.85,3.46-6.06,2.62,5.42,4.65,5.21.33-3.89,1.81-5.3c1.14-1.08,4.61.2,4.44-1.36s-5.8-.97-5.97-2.53,5.47-2.15,5.31-3.72-5.8-.97-5.97-2.53,5.47-2.15,5.31-3.71-5.8-.97-5.97-2.53,5.47-2.15,5.31-3.71-5.8-.97-5.97-2.53,5.47-2.15,5.31-3.71-5.8-.97-5.97-2.53,5.47-2.15,5.31-3.72-5.8-.97-5.97-2.53,5.47-2.15,5.31-3.71-5.8-.97-5.97-2.53,5.47-2.15,5.31-3.71-5.8-.97-5.97-2.53,5.47-2.15,5.31-3.72-5.8-.97-5.97-2.53,5.47-2.15,5.31-3.71-5.8-.97-5.97-2.53,5.47-2.16,5.31-3.72-5.8-.97-5.97-2.53,5.47-2.15,5.31-3.72-5.8-.97-5.97-2.53,5.47-2.16,5.31-3.72-5.8-.97-5.97-2.53,5.47-2.15,5.31-3.72-5.8-.97-5.97-2.53,5.47-2.15,5.31-3.72-5.8-.97-5.97-2.53,5.47-2.15,5.31-3.72-5.8-.97-5.97-2.53,5.47-2.15,5.31-3.72-5.8-.97-5.97-2.53,5.47-2.15,5.31-3.71-5.8-.97-5.97-2.53,5.47-2.15,5.31-3.71-5.8-.97-5.97-2.53,5.47-2.15,5.31-3.72-5.8-.97-5.97-2.53,5.47-2.16,5.31-3.72-5.8-.97-5.97-2.53,5.47-2.16,5.31-3.72-5.8-.97-5.97-2.54,5.47-2.15,5.31-3.72-5.8-.97-5.97-2.54,5.47-2.16,5.31-3.72-5.8-.97-5.97-2.54,5.47-2.16,5.31-3.73-3.3.4-4.64-.43c-1.73-1.07-.83-5.02-2.85-4.8s-1.43,5.85-3.46,6.06-2.62-5.43-4.64-5.21-1.43,5.85-3.45,6.06-2.61-5.43-4.64-5.21-1.43,5.85-3.45,6.06-2.61-5.43-4.64-5.21-1.43,5.85-3.45,6.06-2.62-5.43-4.64-5.21-1.43,5.85-3.46,6.06-2.62-5.43-4.64-5.21-1.43,5.85-3.45,6.06-2.62-5.43-4.64-5.21-1.43,5.85-3.45,6.06-2.62-5.43-4.64-5.21-1.43,5.85-3.46,6.06-2.62-5.43-4.64-5.21-1.43,5.85-3.45,6.06-2.62-5.43-4.64-5.21-1.43,5.85-3.46,6.06-2.62-5.43-4.64-5.21-1.43,5.85-3.46,6.06-2.62-5.43-4.64-5.21-1.43,5.85-3.46,6.06-2.62-5.43-4.64-5.21-1.43,5.85-3.46,6.06-2.62-5.43-4.64-5.21-1.43,5.85-3.46,6.06-2.62-5.43-4.64-5.21-1.43,5.85-3.46,6.06-2.62-5.43-4.64-5.21-1.43,5.85-3.46,6.06-2.62-5.43-4.64-5.21-1.43,5.85-3.46,6.06-2.62-5.43-4.64-5.21-1.43,5.85-3.46,6.06-2.62-5.43-4.64-5.21-1.43,5.85-3.46,6.06-2.62-5.43-4.64-5.21-1.43,5.85-3.46,6.06-2.62-5.43-4.64-5.21-1.43,5.85-3.46,6.06-2.62-5.43-4.65-5.21-1.43,5.85-3.46,6.06-2.62-5.43-4.65-5.21-1.43,5.85-3.46,6.06-2.62-5.43-4.65-5.21-1.43,5.85-3.46,6.06-2.62-5.42-4.65-5.21-.33,3.89-1.81,5.3c-1.14,1.08-4.61-.2-4.44,1.36s5.8.97,5.97,2.53-5.47,2.15-5.31,3.72,5.8.97,5.97,2.53-5.47,2.15-5.31,3.71,5.8.97,5.97,2.53-5.47,2.15-5.31,3.71,5.8.97,5.97,2.53-5.47,2.15-5.31,3.71,5.8.97,5.97,2.53-5.47,2.15-5.31,3.72,5.8.97,5.97,2.53-5.47,2.15-5.31,3.71,5.8.97,5.97,2.53-5.47,2.15-5.31,3.71,5.8.97,5.97,2.53-5.47,2.15-5.31,3.72,5.8.97,5.97,2.53-5.47,2.15-5.31,3.71,5.8.97,5.97,2.53-5.47,2.16-5.31,3.72,5.8.97,5.97,2.53-5.47,2.15-5.31,3.72,5.8.97,5.97,2.53-5.47,2.16-5.31,3.72,5.8.97,5.97,2.53-5.47,2.15-5.31,3.72,5.8.97,5.97,2.53-5.47,2.15-5.31,3.72,5.8.97,5.97,2.53-5.47,2.15-5.31,3.72,5.8.97,5.97,2.53-5.47,2.15-5.31,3.72,5.8.97,5.97,2.53-5.47,2.15-5.31,3.71,5.8.97,5.97,2.53-5.47,2.15-5.31,3.71,5.8.97,5.97,2.53-5.47,2.15-5.31,3.72,5.8.97,5.97,2.53-5.47,2.16-5.31,3.72,5.8.97,5.97,2.53-5.47,2.16-5.31,3.72,5.8.97,5.97,2.54-5.47,2.15-5.31,3.72,5.8.97,5.97,2.54-5.47,2.16-5.31,3.72,5.8.97,5.97,2.54-5.64,2.64-5.23,4.16c.26.96,3.22-.84,4.56,0Z"/>
    <rect id="board" class="cls-5" x="36.08" y="42.63" width="203.59" height="157.06" rx="6.63" ry="6.63" transform="translate(287.66 227.25) rotate(174)"/>
    <g id="prickar">
      <g>
        <ellipse class="cls-4" cx="223.05" cy="41.03" rx="4.65" ry="4.72" transform="translate(-3.07 23.54) rotate(-6)"/>
        <ellipse class="cls-4" cx="213.81" cy="42.01" rx="4.65" ry="4.72" transform="translate(-3.22 22.58) rotate(-6)"/>
        <ellipse class="cls-4" cx="204.56" cy="42.98" rx="4.65" ry="4.72" transform="translate(-3.37 21.62) rotate(-6)"/>
        <ellipse class="cls-4" cx="195.32" cy="43.95" rx="4.65" ry="4.72" transform="translate(-3.52 20.66) rotate(-6)"/>
        <ellipse class="cls-4" cx="186.07" cy="44.92" rx="4.65" ry="4.72" transform="translate(-3.68 19.7) rotate(-6)"/>
        <ellipse class="cls-4" cx="176.83" cy="45.89" rx="4.65" ry="4.72" transform="translate(-3.83 18.73) rotate(-6)"/>
        <ellipse class="cls-4" cx="167.58" cy="46.86" rx="4.65" ry="4.72" transform="translate(-3.98 17.77) rotate(-6)"/>
        <ellipse class="cls-4" cx="158.34" cy="47.84" rx="4.65" ry="4.72" transform="translate(-4.13 16.81) rotate(-6)"/>
        <ellipse class="cls-4" cx="149.09" cy="48.81" rx="4.65" ry="4.72" transform="translate(-4.28 15.85) rotate(-6)"/>
        <ellipse class="cls-4" cx="139.85" cy="49.78" rx="4.65" ry="4.72" transform="translate(-4.44 14.89) rotate(-6)"/>
        <ellipse class="cls-4" cx="130.6" cy="50.75" rx="4.65" ry="4.72" transform="translate(-4.59 13.93) rotate(-6)"/>
        <ellipse class="cls-4" cx="121.36" cy="51.72" rx="4.65" ry="4.72" transform="translate(-4.74 12.97) rotate(-6)"/>
        <ellipse class="cls-4" cx="112.11" cy="52.69" rx="4.65" ry="4.72" transform="translate(-4.89 12.01) rotate(-6)"/>
        <ellipse class="cls-4" cx="102.87" cy="53.67" rx="4.65" ry="4.72" transform="translate(-5.05 11.05) rotate(-6)"/>
        <ellipse class="cls-4" cx="93.62" cy="54.64" rx="4.65" ry="4.72" transform="translate(-5.2 10.09) rotate(-6)"/>
        <ellipse class="cls-4" cx="224.04" cy="50.42" rx="4.65" ry="4.72" transform="translate(-4.04 23.69) rotate(-6)"/>
        <ellipse class="cls-4" cx="214.8" cy="51.39" rx="4.65" ry="4.72" transform="translate(-4.2 22.73) rotate(-6)"/>
        <ellipse class="cls-4" cx="205.55" cy="52.36" rx="4.65" ry="4.72" transform="translate(-4.35 21.77) rotate(-6)"/>
        <ellipse class="cls-4" cx="196.31" cy="53.34" rx="4.65" ry="4.72" transform="translate(-4.5 20.81) rotate(-6)"/>
        <ellipse class="cls-4" cx="187.06" cy="54.31" rx="4.65" ry="4.72" transform="translate(-4.65 19.85) rotate(-6)"/>
        <ellipse class="cls-4" cx="177.82" cy="55.28" rx="4.65" ry="4.72" transform="translate(-4.8 18.89) rotate(-6)"/>
        <ellipse class="cls-4" cx="168.57" cy="56.25" rx="4.65" ry="4.72" transform="translate(-4.96 17.93) rotate(-6)"/>
        <ellipse class="cls-4" cx="159.33" cy="57.22" rx="4.65" ry="4.72" transform="translate(-5.11 16.97) rotate(-6)"/>
        <ellipse class="cls-4" cx="150.08" cy="58.19" rx="4.65" ry="4.72" transform="translate(-5.26 16.01) rotate(-6)"/>
        <ellipse class="cls-4" cx="140.84" cy="59.17" rx="4.65" ry="4.72" transform="translate(-5.41 15.04) rotate(-6)"/>
        <ellipse class="cls-4" cx="131.59" cy="60.14" rx="4.65" ry="4.72" transform="translate(-5.56 14.08) rotate(-6)"/>
        <ellipse class="cls-4" cx="122.35" cy="61.11" rx="4.65" ry="4.72" transform="translate(-5.72 13.12) rotate(-6)"/>
        <ellipse class="cls-4" cx="113.1" cy="62.08" rx="4.65" ry="4.72" transform="translate(-5.87 12.16) rotate(-6)"/>
        <ellipse class="cls-4" cx="103.86" cy="63.05" rx="4.65" ry="4.72" transform="translate(-6.02 11.2) rotate(-6)"/>
        <ellipse class="cls-4" cx="94.61" cy="64.02" rx="4.65" ry="4.72" transform="translate(-6.17 10.24) rotate(-6)"/>
        <ellipse class="cls-4" cx="225.03" cy="59.81" rx="4.65" ry="4.72" transform="translate(-5.02 23.85) rotate(-6)"/>
        <ellipse class="cls-4" cx="215.78" cy="60.78" rx="4.65" ry="4.72" transform="translate(-5.17 22.89) rotate(-6)"/>
        <ellipse class="cls-4" cx="206.54" cy="61.75" rx="4.65" ry="4.72" transform="translate(-5.32 21.93) rotate(-6)"/>
        <ellipse class="cls-4" cx="197.29" cy="62.72" rx="4.65" ry="4.72" transform="translate(-5.48 20.97) rotate(-6)"/>
        <ellipse class="cls-4" cx="188.05" cy="63.69" rx="4.65" ry="4.72" transform="translate(-5.63 20) rotate(-6)"/>
        <ellipse class="cls-4" cx="178.8" cy="64.67" rx="4.65" ry="4.72" transform="translate(-5.78 19.04) rotate(-6)"/>
        <ellipse class="cls-4" cx="169.56" cy="65.64" rx="4.65" ry="4.72" transform="translate(-5.93 18.08) rotate(-6)"/>
        <ellipse class="cls-4" cx="160.31" cy="66.61" rx="4.65" ry="4.72" transform="translate(-6.08 17.12) rotate(-6)"/>
        <ellipse class="cls-4" cx="151.07" cy="67.58" rx="4.65" ry="4.72" transform="translate(-6.24 16.16) rotate(-6)"/>
        <ellipse class="cls-4" cx="141.82" cy="68.55" rx="4.65" ry="4.72" transform="translate(-6.39 15.2) rotate(-6)"/>
        <ellipse class="cls-4" cx="132.58" cy="69.52" rx="4.65" ry="4.72" transform="translate(-6.54 14.24) rotate(-6)"/>
        <ellipse class="cls-4" cx="123.33" cy="70.5" rx="4.65" ry="4.72" transform="translate(-6.69 13.28) rotate(-6)"/>
        <ellipse class="cls-4" cx="114.09" cy="71.47" rx="4.65" ry="4.72" transform="translate(-6.85 12.32) rotate(-6)"/>
        <ellipse class="cls-4" cx="104.84" cy="72.44" rx="4.65" ry="4.72" transform="translate(-7 11.36) rotate(-6)"/>
        <ellipse class="cls-4" cx="95.6" cy="73.41" rx="4.65" ry="4.72" transform="translate(-7.15 10.39) rotate(-6)"/>
        <ellipse class="cls-4" cx="226.01" cy="69.19" rx="4.65" ry="4.72" transform="translate(-5.99 24) rotate(-6)"/>
        <ellipse class="cls-4" cx="216.77" cy="70.17" rx="4.65" ry="4.72" transform="translate(-6.15 23.04) rotate(-6)"/>
        <ellipse class="cls-4" cx="207.52" cy="71.14" rx="4.65" ry="4.72" transform="translate(-6.3 22.08) rotate(-6)"/>
        <ellipse class="cls-4" cx="198.28" cy="72.11" rx="4.65" ry="4.72" transform="translate(-6.45 21.12) rotate(-6)"/>
        <ellipse class="cls-4" cx="189.03" cy="73.08" rx="4.65" ry="4.72" transform="translate(-6.6 20.16) rotate(-6)"/>
        <ellipse class="cls-4" cx="179.79" cy="74.05" rx="4.65" ry="4.72" transform="translate(-6.76 19.2) rotate(-6)"/>
        <ellipse class="cls-4" cx="170.54" cy="75.02" rx="4.65" ry="4.72" transform="translate(-6.91 18.24) rotate(-6)"/>
        <ellipse class="cls-4" cx="161.3" cy="76" rx="4.65" ry="4.72" transform="translate(-7.06 17.28) rotate(-6)"/>
        <ellipse class="cls-4" cx="152.05" cy="76.97" rx="4.65" ry="4.72" transform="translate(-7.21 16.31) rotate(-6)"/>
        <ellipse class="cls-4" cx="142.81" cy="77.94" rx="4.65" ry="4.72" transform="translate(-7.36 15.35) rotate(-6)"/>
        <ellipse class="cls-4" cx="133.56" cy="78.91" rx="4.65" ry="4.72" transform="translate(-7.52 14.39) rotate(-6)"/>
        <ellipse class="cls-4" cx="124.32" cy="79.88" rx="4.65" ry="4.72" transform="translate(-7.67 13.43) rotate(-6)"/>
        <ellipse class="cls-4" cx="115.07" cy="80.85" rx="4.65" ry="4.72" transform="translate(-7.82 12.47) rotate(-6)"/>
        <ellipse class="cls-4" cx="105.83" cy="81.83" rx="4.65" ry="4.72" transform="translate(-7.97 11.51) rotate(-6)"/>
        <ellipse class="cls-4" cx="96.58" cy="82.8" rx="4.65" ry="4.72" transform="translate(-8.13 10.55) rotate(-6)"/>
        <ellipse class="cls-4" cx="227" cy="78.58" rx="4.65" ry="4.72" transform="translate(-6.97 24.16) rotate(-6)"/>
        <ellipse class="cls-4" cx="217.75" cy="79.55" rx="4.65" ry="4.72" transform="translate(-7.12 23.2) rotate(-6)"/>
        <ellipse class="cls-4" cx="208.51" cy="80.52" rx="4.65" ry="4.72" transform="translate(-7.27 22.24) rotate(-6)"/>
        <ellipse class="cls-4" cx="199.26" cy="81.5" rx="4.65" ry="4.72" transform="translate(-7.43 21.27) rotate(-6)"/>
        <ellipse class="cls-4" cx="190.02" cy="82.47" rx="4.65" ry="4.72" transform="translate(-7.58 20.31) rotate(-6)"/>
        <ellipse class="cls-4" cx="180.77" cy="83.44" rx="4.65" ry="4.72" transform="translate(-7.73 19.35) rotate(-6)"/>
        <ellipse class="cls-4" cx="171.53" cy="84.41" rx="4.65" ry="4.72" transform="translate(-7.88 18.39) rotate(-6)"/>
        <ellipse class="cls-4" cx="162.28" cy="85.38" rx="4.65" ry="4.72" transform="translate(-8.04 17.43) rotate(-6)"/>
        <ellipse class="cls-4" cx="153.04" cy="86.35" rx="4.65" ry="4.72" transform="translate(-8.19 16.47) rotate(-6)"/>
        <ellipse class="cls-4" cx="143.79" cy="87.33" rx="4.65" ry="4.72" transform="translate(-8.34 15.51) rotate(-6)"/>
        <ellipse class="cls-4" cx="134.55" cy="88.3" rx="4.65" ry="4.72" transform="translate(-8.49 14.55) rotate(-6)"/>
        <ellipse class="cls-4" cx="125.31" cy="89.27" rx="4.65" ry="4.72" transform="translate(-8.64 13.59) rotate(-6)"/>
        <ellipse class="cls-4" cx="116.06" cy="90.24" rx="4.65" ry="4.72" transform="translate(-8.8 12.63) rotate(-6)"/>
        <ellipse class="cls-4" cx="106.82" cy="91.21" rx="4.65" ry="4.72" transform="translate(-8.95 11.66) rotate(-6)"/>
        <ellipse class="cls-4" cx="97.57" cy="92.18" rx="4.65" ry="4.72" transform="translate(-9.1 10.7) rotate(-6)"/>
        <ellipse class="cls-4" cx="227.99" cy="87.97" rx="4.65" ry="4.72" transform="translate(-7.95 24.31) rotate(-6)"/>
        <ellipse class="cls-4" cx="218.74" cy="88.94" rx="4.65" ry="4.72" transform="translate(-8.1 23.35) rotate(-6)"/>
        <ellipse class="cls-4" cx="209.5" cy="89.91" rx="4.65" ry="4.72" transform="translate(-8.25 22.39) rotate(-6)"/>
        <ellipse class="cls-4" cx="200.25" cy="90.88" rx="4.65" ry="4.72" transform="translate(-8.4 21.43) rotate(-6)"/>
        <ellipse class="cls-4" cx="191.01" cy="91.85" rx="4.65" ry="4.72" transform="translate(-8.55 20.47) rotate(-6)"/>
        <ellipse class="cls-4" cx="181.76" cy="92.83" rx="4.65" ry="4.72" transform="translate(-8.71 19.51) rotate(-6)"/>
        <ellipse class="cls-4" cx="172.52" cy="93.8" rx="4.65" ry="4.72" transform="translate(-8.86 18.55) rotate(-6)"/>
        <ellipse class="cls-4" cx="163.27" cy="94.77" rx="4.65" ry="4.72" transform="translate(-9.01 17.58) rotate(-6)"/>
        <ellipse class="cls-4" cx="154.03" cy="95.74" rx="4.65" ry="4.72" transform="translate(-9.16 16.62) rotate(-6)"/>
        <ellipse class="cls-4" cx="144.78" cy="96.71" rx="4.65" ry="4.72" transform="translate(-9.32 15.66) rotate(-6)"/>
        <ellipse class="cls-4" cx="135.54" cy="97.68" rx="4.65" ry="4.72" transform="translate(-9.47 14.7) rotate(-6)"/>
        <ellipse class="cls-4" cx="126.29" cy="98.66" rx="4.65" ry="4.72" transform="translate(-9.62 13.74) rotate(-6)"/>
        <ellipse class="cls-4" cx="117.05" cy="99.63" rx="4.65" ry="4.72" transform="translate(-9.77 12.78) rotate(-6)"/>
        <ellipse class="cls-4" cx="107.8" cy="100.6" rx="4.65" ry="4.72" transform="translate(-9.92 11.82) rotate(-6)"/>
        <ellipse class="cls-4" cx="98.56" cy="101.57" rx="4.65" ry="4.72" transform="translate(-10.08 10.86) rotate(-6)"/>
        <ellipse class="cls-4" cx="228.97" cy="97.35" rx="4.65" ry="4.72" transform="translate(-8.92 24.47) rotate(-6)"/>
        <ellipse class="cls-4" cx="219.73" cy="98.33" rx="4.65" ry="4.72" transform="translate(-9.07 23.51) rotate(-6)"/>
        <ellipse class="cls-4" cx="210.48" cy="99.3" rx="4.65" ry="4.72" transform="translate(-9.23 22.54) rotate(-6)"/>
        <ellipse class="cls-4" cx="201.24" cy="100.27" rx="4.65" ry="4.72" transform="translate(-9.38 21.58) rotate(-6)"/>
        <ellipse class="cls-4" cx="191.99" cy="101.24" rx="4.65" ry="4.72" transform="translate(-9.53 20.62) rotate(-6)"/>
        <ellipse class="cls-4" cx="182.75" cy="102.21" rx="4.65" ry="4.72" transform="translate(-9.68 19.66) rotate(-6)"/>
        <ellipse class="cls-4" cx="173.5" cy="103.18" rx="4.65" ry="4.72" transform="translate(-9.83 18.7) rotate(-6)"/>
        <ellipse class="cls-4" cx="164.26" cy="104.16" rx="4.65" ry="4.72" transform="translate(-9.99 17.74) rotate(-6)"/>
        <ellipse class="cls-4" cx="155.01" cy="105.13" rx="4.65" ry="4.72" transform="translate(-10.14 16.78) rotate(-6)"/>
        <ellipse class="cls-4" cx="145.77" cy="106.1" rx="4.65" ry="4.72" transform="translate(-10.29 15.82) rotate(-6)"/>
        <ellipse class="cls-4" cx="136.52" cy="107.07" rx="4.65" ry="4.72" transform="translate(-10.44 14.86) rotate(-6)"/>
        <ellipse class="cls-4" cx="127.28" cy="108.04" rx="4.65" ry="4.72" transform="translate(-10.6 13.9) rotate(-6)"/>
        <ellipse class="cls-4" cx="118.03" cy="109.01" rx="4.65" ry="4.72" transform="translate(-10.75 12.93) rotate(-6)"/>
        <ellipse class="cls-4" cx="108.79" cy="109.99" rx="4.65" ry="4.72" transform="translate(-10.9 11.97) rotate(-6)"/>
        <ellipse class="cls-4" cx="99.54" cy="110.96" rx="4.65" ry="4.72" transform="translate(-11.05 11.01) rotate(-6)"/>
        <ellipse class="cls-4" cx="229.96" cy="106.74" rx="4.65" ry="4.72" transform="translate(-9.9 24.62) rotate(-6)"/>
        <ellipse class="cls-4" cx="220.71" cy="107.71" rx="4.65" ry="4.72" transform="translate(-10.05 23.66) rotate(-6)"/>
        <ellipse class="cls-4" cx="211.47" cy="108.68" rx="4.65" ry="4.72" transform="translate(-10.2 22.7) rotate(-6)"/>
        <ellipse class="cls-4" cx="202.22" cy="109.66" rx="4.65" ry="4.72" transform="translate(-10.35 21.74) rotate(-6)"/>
        <ellipse class="cls-4" cx="192.98" cy="110.63" rx="4.65" ry="4.72" transform="translate(-10.51 20.78) rotate(-6)"/>
        <ellipse class="cls-4" cx="183.73" cy="111.6" rx="4.65" ry="4.72" transform="translate(-10.66 19.82) rotate(-6)"/>
        <ellipse class="cls-4" cx="174.49" cy="112.57" rx="4.65" ry="4.72" transform="translate(-10.81 18.85) rotate(-6)"/>
        <ellipse class="cls-4" cx="165.24" cy="113.54" rx="4.65" ry="4.72" transform="translate(-10.96 17.89) rotate(-6)"/>
        <ellipse class="cls-4" cx="156" cy="114.51" rx="4.65" ry="4.72" transform="translate(-11.11 16.93) rotate(-6)"/>
        <ellipse class="cls-4" cx="146.75" cy="115.49" rx="4.65" ry="4.72" transform="translate(-11.27 15.97) rotate(-6)"/>
        <ellipse class="cls-4" cx="137.51" cy="116.46" rx="4.65" ry="4.72" transform="translate(-11.42 15.01) rotate(-6)"/>
        <ellipse class="cls-4" cx="128.26" cy="117.43" rx="4.65" ry="4.72" transform="translate(-11.57 14.05) rotate(-6)"/>
        <ellipse class="cls-4" cx="119.02" cy="118.4" rx="4.65" ry="4.72" transform="translate(-11.72 13.09) rotate(-6)"/>
        <ellipse class="cls-4" cx="109.77" cy="119.37" rx="4.65" ry="4.72" transform="translate(-11.88 12.13) rotate(-6)"/>
        <ellipse class="cls-4" cx="100.53" cy="120.34" rx="4.65" ry="4.72" transform="translate(-12.03 11.17) rotate(-6)"/>
        <ellipse class="cls-4" cx="230.95" cy="116.13" rx="4.65" ry="4.72" transform="translate(-10.87 24.78) rotate(-6)"/>
        <ellipse class="cls-4" cx="221.7" cy="117.1" rx="4.65" ry="4.72" transform="translate(-11.03 23.81) rotate(-6)"/>
        <ellipse class="cls-4" cx="212.46" cy="118.07" rx="4.65" ry="4.72" transform="translate(-11.18 22.85) rotate(-6)"/>
        <ellipse class="cls-4" cx="203.21" cy="119.04" rx="4.65" ry="4.72" transform="translate(-11.33 21.89) rotate(-6)"/>
        <ellipse class="cls-4" cx="193.97" cy="120.01" rx="4.65" ry="4.72" transform="translate(-11.48 20.93) rotate(-6)"/>
        <ellipse class="cls-4" cx="184.72" cy="120.99" rx="4.65" ry="4.72" transform="translate(-11.63 19.97) rotate(-6)"/>
        <ellipse class="cls-4" cx="175.48" cy="121.96" rx="4.65" ry="4.72" transform="translate(-11.79 19.01) rotate(-6)"/>
        <ellipse class="cls-4" cx="166.23" cy="122.93" rx="4.65" ry="4.72" transform="translate(-11.94 18.05) rotate(-6)"/>
        <ellipse class="cls-4" cx="156.99" cy="123.9" rx="4.65" ry="4.72" transform="translate(-12.09 17.09) rotate(-6)"/>
        <ellipse class="cls-4" cx="147.74" cy="124.87" rx="4.65" ry="4.72" transform="translate(-12.24 16.13) rotate(-6)"/>
        <ellipse class="cls-4" cx="138.5" cy="125.84" rx="4.65" ry="4.72" transform="translate(-12.39 15.17) rotate(-6)"/>
        <ellipse class="cls-4" cx="129.25" cy="126.82" rx="4.65" ry="4.72" transform="translate(-12.55 14.2) rotate(-6)"/>
        <ellipse class="cls-4" cx="120.01" cy="127.79" rx="4.65" ry="4.72" transform="translate(-12.7 13.24) rotate(-6)"/>
        <ellipse class="cls-4" cx="110.76" cy="128.76" rx="4.65" ry="4.72" transform="translate(-12.85 12.28) rotate(-6)"/>
        <ellipse class="cls-4" cx="101.52" cy="129.73" rx="4.65" ry="4.72" transform="translate(-13 11.32) rotate(-6)"/>
        <ellipse class="cls-4" cx="231.93" cy="125.51" rx="4.65" ry="4.72" transform="translate(-11.85 24.93) rotate(-6)"/>
        <ellipse class="cls-4" cx="222.69" cy="126.49" rx="4.65" ry="4.72" transform="translate(-12 23.97) rotate(-6)"/>
        <ellipse class="cls-4" cx="213.44" cy="127.46" rx="4.65" ry="4.72" transform="translate(-12.15 23.01) rotate(-6)"/>
        <ellipse class="cls-4" cx="204.2" cy="128.43" rx="4.65" ry="4.72" transform="translate(-12.31 22.05) rotate(-6)"/>
        <ellipse class="cls-4" cx="194.95" cy="129.4" rx="4.65" ry="4.72" transform="translate(-12.46 21.09) rotate(-6)"/>
        <ellipse class="cls-4" cx="185.71" cy="130.37" rx="4.65" ry="4.72" transform="translate(-12.61 20.12) rotate(-6)"/>
        <ellipse class="cls-4" cx="176.46" cy="131.34" rx="4.65" ry="4.72" transform="translate(-12.76 19.16) rotate(-6)"/>
        <ellipse class="cls-4" cx="167.22" cy="132.32" rx="4.65" ry="4.72" transform="translate(-12.91 18.2) rotate(-6)"/>
        <ellipse class="cls-4" cx="157.97" cy="133.29" rx="4.65" ry="4.72" transform="translate(-13.07 17.24) rotate(-6)"/>
        <ellipse class="cls-4" cx="148.73" cy="134.26" rx="4.65" ry="4.72" transform="translate(-13.22 16.28) rotate(-6)"/>
        <ellipse class="cls-4" cx="139.48" cy="135.23" rx="4.65" ry="4.72" transform="translate(-13.37 15.32) rotate(-6)"/>
        <ellipse class="cls-4" cx="130.24" cy="136.2" rx="4.65" ry="4.72" transform="translate(-13.52 14.36) rotate(-6)"/>
        <ellipse class="cls-4" cx="120.99" cy="137.17" rx="4.65" ry="4.72" transform="translate(-13.68 13.4) rotate(-6)"/>
        <ellipse class="cls-4" cx="111.75" cy="138.15" rx="4.65" ry="4.72" transform="translate(-13.83 12.44) rotate(-6)"/>
        <ellipse class="cls-4" cx="102.5" cy="139.12" rx="4.65" ry="4.72" transform="translate(-13.98 11.48) rotate(-6)"/>
        <ellipse class="cls-4" cx="232.92" cy="134.9" rx="4.65" ry="4.72" transform="translate(-12.82 25.08) rotate(-6)"/>
        <ellipse class="cls-4" cx="223.67" cy="135.87" rx="4.65" ry="4.72" transform="translate(-12.98 24.12) rotate(-6)"/>
        <ellipse class="cls-4" cx="214.43" cy="136.84" rx="4.65" ry="4.72" transform="translate(-13.13 23.16) rotate(-6)"/>
        <ellipse class="cls-4" cx="205.18" cy="137.82" rx="4.65" ry="4.72" transform="translate(-13.28 22.2) rotate(-6)"/>
        <ellipse class="cls-4" cx="195.94" cy="138.79" rx="4.65" ry="4.72" transform="translate(-13.43 21.24) rotate(-6)"/>
        <ellipse class="cls-4" cx="186.69" cy="139.76" rx="4.65" ry="4.72" transform="translate(-13.59 20.28) rotate(-6)"/>
        <ellipse class="cls-4" cx="177.45" cy="140.73" rx="4.65" ry="4.72" transform="translate(-13.74 19.32) rotate(-6)"/>
        <ellipse class="cls-4" cx="168.2" cy="141.7" rx="4.65" ry="4.72" transform="translate(-13.89 18.36) rotate(-6)"/>
        <ellipse class="cls-4" cx="158.96" cy="142.67" rx="4.65" ry="4.72" transform="translate(-14.04 17.4) rotate(-6)"/>
        <ellipse class="cls-4" cx="149.71" cy="143.65" rx="4.65" ry="4.72" transform="translate(-14.19 16.44) rotate(-6)"/>
        <ellipse class="cls-4" cx="140.47" cy="144.62" rx="4.65" ry="4.72" transform="translate(-14.35 15.47) rotate(-6)"/>
        <ellipse class="cls-4" cx="131.22" cy="145.59" rx="4.65" ry="4.72" transform="translate(-14.5 14.51) rotate(-6)"/>
        <ellipse class="cls-4" cx="121.98" cy="146.56" rx="4.65" ry="4.72" transform="translate(-14.65 13.55) rotate(-6)"/>
        <ellipse class="cls-4" cx="112.73" cy="147.53" rx="4.65" ry="4.72" transform="translate(-14.8 12.59) rotate(-6)"/>
        <ellipse class="cls-4" cx="103.49" cy="148.5" rx="4.65" ry="4.72" transform="translate(-14.96 11.63) rotate(-6)"/>
        <ellipse class="cls-4" cx="233.91" cy="144.29" rx="4.65" ry="4.72" transform="translate(-13.8 25.24) rotate(-6)"/>
        <ellipse class="cls-4" cx="224.66" cy="145.26" rx="4.65" ry="4.72" transform="translate(-13.95 24.28) rotate(-6)"/>
        <ellipse class="cls-4" cx="215.42" cy="146.23" rx="4.65" ry="4.72" transform="translate(-14.1 23.32) rotate(-6)"/>
        <ellipse class="cls-4" cx="206.17" cy="147.2" rx="4.65" ry="4.72" transform="translate(-14.26 22.36) rotate(-6)"/>
        <ellipse class="cls-4" cx="196.93" cy="148.17" rx="4.65" ry="4.72" transform="translate(-14.41 21.39) rotate(-6)"/>
        <ellipse class="cls-4" cx="187.68" cy="149.15" rx="4.65" ry="4.72" transform="translate(-14.56 20.43) rotate(-6)"/>
        <ellipse class="cls-4" cx="178.44" cy="150.12" rx="4.65" ry="4.72" transform="translate(-14.71 19.47) rotate(-6)"/>
        <ellipse class="cls-4" cx="169.19" cy="151.09" rx="4.65" ry="4.72" transform="translate(-14.87 18.51) rotate(-6)"/>
        <ellipse class="cls-4" cx="159.95" cy="152.06" rx="4.65" ry="4.72" transform="translate(-15.02 17.55) rotate(-6)"/>
        <ellipse class="cls-4" cx="150.7" cy="153.03" rx="4.65" ry="4.72" transform="translate(-15.17 16.59) rotate(-6)"/>
        <ellipse class="cls-4" cx="141.46" cy="154" rx="4.65" ry="4.72" transform="translate(-15.32 15.63) rotate(-6)"/>
        <ellipse class="cls-4" cx="132.21" cy="154.98" rx="4.65" ry="4.72" transform="translate(-15.47 14.67) rotate(-6)"/>
        <ellipse class="cls-4" cx="122.97" cy="155.95" rx="4.65" ry="4.72" transform="translate(-15.63 13.71) rotate(-6)"/>
        <ellipse class="cls-4" cx="113.72" cy="156.92" rx="4.65" ry="4.72" transform="translate(-15.78 12.75) rotate(-6)"/>
        <ellipse class="cls-4" cx="104.48" cy="157.89" rx="4.65" ry="4.72" transform="translate(-15.93 11.79) rotate(-6)"/>
        <ellipse class="cls-4" cx="234.89" cy="153.67" rx="4.65" ry="4.72" transform="translate(-14.78 25.39) rotate(-6)"/>
        <ellipse class="cls-4" cx="225.65" cy="154.65" rx="4.65" ry="4.72" transform="translate(-14.93 24.43) rotate(-6)"/>
        <ellipse class="cls-4" cx="216.4" cy="155.62" rx="4.65" ry="4.72" transform="translate(-15.08 23.47) rotate(-6)"/>
        <ellipse class="cls-4" cx="207.16" cy="156.59" rx="4.65" ry="4.72" transform="translate(-15.23 22.51) rotate(-6)"/>
        <ellipse class="cls-4" cx="197.91" cy="157.56" rx="4.65" ry="4.72" transform="translate(-15.38 21.55) rotate(-6)"/>
        <ellipse class="cls-4" cx="188.67" cy="158.53" rx="4.65" ry="4.72" transform="translate(-15.54 20.59) rotate(-6)"/>
        <ellipse class="cls-4" cx="179.42" cy="159.5" rx="4.65" ry="4.72" transform="translate(-15.69 19.63) rotate(-6)"/>
        <ellipse class="cls-4" cx="170.18" cy="160.48" rx="4.65" ry="4.72" transform="translate(-15.84 18.67) rotate(-6)"/>
        <ellipse class="cls-4" cx="160.93" cy="161.45" rx="4.65" ry="4.72" transform="translate(-15.99 17.71) rotate(-6)"/>
        <ellipse class="cls-4" cx="151.69" cy="162.42" rx="4.65" ry="4.72" transform="translate(-16.15 16.74) rotate(-6)"/>
        <ellipse class="cls-4" cx="142.44" cy="163.39" rx="4.65" ry="4.72" transform="translate(-16.3 15.78) rotate(-6)"/>
        <ellipse class="cls-4" cx="133.2" cy="164.36" rx="4.65" ry="4.72" transform="translate(-16.45 14.82) rotate(-6)"/>
        <ellipse class="cls-4" cx="123.95" cy="165.33" rx="4.65" ry="4.72" transform="translate(-16.6 13.86) rotate(-6)"/>
        <ellipse class="cls-4" cx="114.71" cy="166.31" rx="4.65" ry="4.72" transform="translate(-16.75 12.9) rotate(-6)"/>
        <ellipse class="cls-4" cx="105.46" cy="167.28" rx="4.65" ry="4.72" transform="translate(-16.91 11.94) rotate(-6)"/>
        <ellipse class="cls-4" cx="235.88" cy="163.06" rx="4.65" ry="4.72" transform="translate(-15.75 25.55) rotate(-6)"/>
        <ellipse class="cls-4" cx="226.63" cy="164.03" rx="4.65" ry="4.72" transform="translate(-15.9 24.59) rotate(-6)"/>
        <ellipse class="cls-4" cx="217.39" cy="165" rx="4.65" ry="4.72" transform="translate(-16.06 23.63) rotate(-6)"/>
        <ellipse class="cls-4" cx="208.14" cy="165.98" rx="4.65" ry="4.72" transform="translate(-16.21 22.66) rotate(-6)"/>
        <ellipse class="cls-4" cx="198.9" cy="166.95" rx="4.65" ry="4.72" transform="translate(-16.36 21.7) rotate(-6)"/>
        <ellipse class="cls-4" cx="189.65" cy="167.92" rx="4.65" ry="4.72" transform="translate(-16.51 20.74) rotate(-6)"/>
        <ellipse class="cls-4" cx="180.41" cy="168.89" rx="4.65" ry="4.72" transform="translate(-16.66 19.78) rotate(-6)"/>
        <ellipse class="cls-4" cx="171.16" cy="169.86" rx="4.65" ry="4.72" transform="translate(-16.82 18.82) rotate(-6)"/>
        <ellipse class="cls-4" cx="161.92" cy="170.83" rx="4.65" ry="4.72" transform="translate(-16.97 17.86) rotate(-6)"/>
        <ellipse class="cls-4" cx="152.67" cy="171.81" rx="4.65" ry="4.72" transform="translate(-17.12 16.9) rotate(-6)"/>
        <ellipse class="cls-4" cx="143.43" cy="172.78" rx="4.65" ry="4.72" transform="translate(-17.27 15.94) rotate(-6)"/>
        <ellipse class="cls-4" cx="134.18" cy="173.75" rx="4.65" ry="4.72" transform="translate(-17.43 14.98) rotate(-6)"/>
        <ellipse class="cls-4" cx="124.94" cy="174.72" rx="4.65" ry="4.72" transform="translate(-17.58 14.02) rotate(-6)"/>
        <ellipse class="cls-4" cx="115.69" cy="175.69" rx="4.65" ry="4.72" transform="translate(-17.73 13.06) rotate(-6)"/>
        <ellipse class="cls-4" cx="106.45" cy="176.66" rx="4.65" ry="4.72" transform="translate(-17.88 12.09) rotate(-6)"/>
      </g>
      <ellipse class="cls-4" cx="84.12" cy="55.64" rx="4.65" ry="4.72" transform="translate(-5.35 9.1) rotate(-6)"/>
      <ellipse class="cls-4" cx="74.88" cy="56.61" rx="4.65" ry="4.72" transform="translate(-5.51 8.14) rotate(-6)"/>
      <ellipse class="cls-4" cx="65.63" cy="57.58" rx="4.65" ry="4.72" transform="translate(-5.66 7.18) rotate(-6)"/>
      <ellipse class="cls-4" cx="56.39" cy="58.55" rx="4.65" ry="4.72" transform="translate(-5.81 6.21) rotate(-6)"/>
      <ellipse class="cls-4" cx="47.14" cy="59.52" rx="4.65" ry="4.72" transform="translate(-5.96 5.25) rotate(-6)"/>
      <ellipse class="cls-4" cx="37.9" cy="60.49" rx="4.65" ry="4.72" transform="translate(-6.12 4.29) rotate(-6)"/>
      <ellipse class="cls-4" cx="85.11" cy="65.02" rx="4.65" ry="4.72" transform="translate(-6.33 9.25) rotate(-6)"/>
      <ellipse class="cls-4" cx="75.87" cy="65.99" rx="4.65" ry="4.72" transform="translate(-6.48 8.29) rotate(-6)"/>
      <ellipse class="cls-4" cx="66.62" cy="66.97" rx="4.65" ry="4.72" transform="translate(-6.63 7.33) rotate(-6)"/>
      <ellipse class="cls-4" cx="57.38" cy="67.94" rx="4.65" ry="4.72" transform="translate(-6.79 6.37) rotate(-6)"/>
      <ellipse class="cls-4" cx="48.13" cy="68.91" rx="4.65" ry="4.72" transform="translate(-6.94 5.41) rotate(-6)"/>
      <ellipse class="cls-4" cx="38.89" cy="69.88" rx="4.65" ry="4.72" transform="translate(-7.09 4.45) rotate(-6)"/>
      <ellipse class="cls-4" cx="86.1" cy="74.41" rx="4.65" ry="4.72" transform="translate(-7.31 9.41) rotate(-6)"/>
      <ellipse class="cls-4" cx="76.85" cy="75.38" rx="4.65" ry="4.72" transform="translate(-7.46 8.45) rotate(-6)"/>
      <ellipse class="cls-4" cx="67.61" cy="76.35" rx="4.65" ry="4.72" transform="translate(-7.61 7.48) rotate(-6)"/>
      <ellipse class="cls-4" cx="58.36" cy="77.32" rx="4.65" ry="4.72" transform="translate(-7.76 6.52) rotate(-6)"/>
      <ellipse class="cls-4" cx="49.12" cy="78.3" rx="4.65" ry="4.72" transform="translate(-7.91 5.56) rotate(-6)"/>
      <ellipse class="cls-4" cx="39.87" cy="79.27" rx="4.65" ry="4.72" transform="translate(-8.07 4.6) rotate(-6)"/>
      <ellipse class="cls-4" cx="87.08" cy="83.8" rx="4.65" ry="4.72" transform="translate(-8.28 9.56) rotate(-6)"/>
      <ellipse class="cls-4" cx="77.84" cy="84.77" rx="4.65" ry="4.72" transform="translate(-8.43 8.6) rotate(-6)"/>
      <ellipse class="cls-4" cx="68.59" cy="85.74" rx="4.65" ry="4.72" transform="translate(-8.59 7.64) rotate(-6)"/>
      <ellipse class="cls-4" cx="59.35" cy="86.71" rx="4.65" ry="4.72" transform="translate(-8.74 6.68) rotate(-6)"/>
      <ellipse class="cls-4" cx="50.1" cy="87.68" rx="4.65" ry="4.72" transform="translate(-8.89 5.72) rotate(-6)"/>
      <ellipse class="cls-4" cx="40.86" cy="88.65" rx="4.65" ry="4.72" transform="translate(-9.04 4.76) rotate(-6)"/>
      <ellipse class="cls-4" cx="88.07" cy="93.18" rx="4.65" ry="4.72" transform="translate(-9.26 9.72) rotate(-6)"/>
      <ellipse class="cls-4" cx="78.83" cy="94.15" rx="4.65" ry="4.72" transform="translate(-9.41 8.75) rotate(-6)"/>
      <ellipse class="cls-4" cx="69.58" cy="95.13" rx="4.65" ry="4.72" transform="translate(-9.56 7.79) rotate(-6)"/>
      <ellipse class="cls-4" cx="60.34" cy="96.1" rx="4.65" ry="4.72" transform="translate(-9.71 6.83) rotate(-6)"/>
      <ellipse class="cls-4" cx="51.09" cy="97.07" rx="4.65" ry="4.72" transform="translate(-9.87 5.87) rotate(-6)"/>
      <ellipse class="cls-4" cx="41.85" cy="98.04" rx="4.65" ry="4.72" transform="translate(-10.02 4.91) rotate(-6)"/>
      <ellipse class="cls-4" cx="89.06" cy="102.57" rx="4.65" ry="4.72" transform="translate(-10.23 9.87) rotate(-6)"/>
      <ellipse class="cls-4" cx="79.81" cy="103.54" rx="4.65" ry="4.72" transform="translate(-10.39 8.91) rotate(-6)"/>
      <ellipse class="cls-4" cx="70.57" cy="104.51" rx="4.65" ry="4.72" transform="translate(-10.54 7.95) rotate(-6)"/>
      <ellipse class="cls-4" cx="61.32" cy="105.48" rx="4.65" ry="4.72" transform="translate(-10.69 6.99) rotate(-6)"/>
      <ellipse class="cls-4" cx="52.08" cy="106.46" rx="4.65" ry="4.72" transform="translate(-10.84 6.03) rotate(-6)"/>
      <ellipse class="cls-4" cx="42.83" cy="107.43" rx="4.65" ry="4.72" transform="translate(-10.99 5.07) rotate(-6)"/>
      <ellipse class="cls-4" cx="90.04" cy="111.96" rx="4.65" ry="4.72" transform="translate(-11.21 10.02) rotate(-6)"/>
      <ellipse class="cls-4" cx="80.8" cy="112.93" rx="4.65" ry="4.72" transform="translate(-11.36 9.06) rotate(-6)"/>
      <ellipse class="cls-4" cx="71.55" cy="113.9" rx="4.65" ry="4.72" transform="translate(-11.51 8.1) rotate(-6)"/>
      <ellipse class="cls-4" cx="62.31" cy="114.87" rx="4.65" ry="4.72" transform="translate(-11.67 7.14) rotate(-6)"/>
      <ellipse class="cls-4" cx="53.06" cy="115.84" rx="4.65" ry="4.72" transform="translate(-11.82 6.18) rotate(-6)"/>
      <ellipse class="cls-4" cx="43.82" cy="116.81" rx="4.65" ry="4.72" transform="translate(-11.97 5.22) rotate(-6)"/>
      <ellipse class="cls-4" cx="91.03" cy="121.34" rx="4.65" ry="4.72" transform="translate(-12.18 10.18) rotate(-6)"/>
      <ellipse class="cls-4" cx="81.79" cy="122.31" rx="4.65" ry="4.72" transform="translate(-12.34 9.22) rotate(-6)"/>
      <ellipse class="cls-4" cx="72.54" cy="123.29" rx="4.65" ry="4.72" transform="translate(-12.49 8.26) rotate(-6)"/>
      <ellipse class="cls-4" cx="63.3" cy="124.26" rx="4.65" ry="4.72" transform="translate(-12.64 7.3) rotate(-6)"/>
      <ellipse class="cls-4" cx="54.05" cy="125.23" rx="4.65" ry="4.72" transform="translate(-12.79 6.34) rotate(-6)"/>
      <ellipse class="cls-4" cx="44.81" cy="126.2" rx="4.65" ry="4.72" transform="translate(-12.95 5.37) rotate(-6)"/>
      <ellipse class="cls-4" cx="92.02" cy="130.73" rx="4.65" ry="4.72" transform="translate(-13.16 10.33) rotate(-6)"/>
      <ellipse class="cls-4" cx="82.77" cy="131.7" rx="4.65" ry="4.72" transform="translate(-13.31 9.37) rotate(-6)"/>
      <ellipse class="cls-4" cx="73.53" cy="132.67" rx="4.65" ry="4.72" transform="translate(-13.46 8.41) rotate(-6)"/>
      <ellipse class="cls-4" cx="64.28" cy="133.64" rx="4.65" ry="4.72" transform="translate(-13.62 7.45) rotate(-6)"/>
      <ellipse class="cls-4" cx="55.04" cy="134.62" rx="4.65" ry="4.72" transform="translate(-13.77 6.49) rotate(-6)"/>
      <ellipse class="cls-4" cx="45.79" cy="135.59" rx="4.65" ry="4.72" transform="translate(-13.92 5.53) rotate(-6)"/>
      <ellipse class="cls-4" cx="93" cy="140.12" rx="4.65" ry="4.72" transform="translate(-14.14 10.49) rotate(-6)"/>
      <ellipse class="cls-4" cx="83.76" cy="141.09" rx="4.65" ry="4.72" transform="translate(-14.29 9.53) rotate(-6)"/>
      <ellipse class="cls-4" cx="74.51" cy="142.06" rx="4.65" ry="4.72" transform="translate(-14.44 8.57) rotate(-6)"/>
      <ellipse class="cls-4" cx="65.27" cy="143.03" rx="4.65" ry="4.72" transform="translate(-14.59 7.61) rotate(-6)"/>
      <ellipse class="cls-4" cx="56.02" cy="144" rx="4.65" ry="4.72" transform="translate(-14.74 6.64) rotate(-6)"/>
      <ellipse class="cls-4" cx="46.78" cy="144.97" rx="4.65" ry="4.72" transform="translate(-14.9 5.68) rotate(-6)"/>
      <ellipse class="cls-4" cx="93.99" cy="149.5" rx="4.65" ry="4.72" transform="translate(-15.11 10.64) rotate(-6)"/>
      <ellipse class="cls-4" cx="84.74" cy="150.47" rx="4.65" ry="4.72" transform="translate(-15.26 9.68) rotate(-6)"/>
      <ellipse class="cls-4" cx="75.5" cy="151.45" rx="4.65" ry="4.72" transform="translate(-15.42 8.72) rotate(-6)"/>
      <ellipse class="cls-4" cx="66.25" cy="152.42" rx="4.65" ry="4.72" transform="translate(-15.57 7.76) rotate(-6)"/>
      <ellipse class="cls-4" cx="57.01" cy="153.39" rx="4.65" ry="4.72" transform="translate(-15.72 6.8) rotate(-6)"/>
      <ellipse class="cls-4" cx="47.77" cy="154.36" rx="4.65" ry="4.72" transform="translate(-15.87 5.84) rotate(-6)"/>
      <ellipse class="cls-4" cx="94.98" cy="158.89" rx="4.65" ry="4.72" transform="translate(-16.09 10.8) rotate(-6)"/>
      <ellipse class="cls-4" cx="85.73" cy="159.86" rx="4.65" ry="4.72" transform="translate(-16.24 9.84) rotate(-6)"/>
      <ellipse class="cls-4" cx="76.49" cy="160.83" rx="4.65" ry="4.72" transform="translate(-16.39 8.88) rotate(-6)"/>
      <ellipse class="cls-4" cx="67.24" cy="161.8" rx="4.65" ry="4.72" transform="translate(-16.54 7.91) rotate(-6)"/>
      <ellipse class="cls-4" cx="58" cy="162.78" rx="4.65" ry="4.72" transform="translate(-16.7 6.95) rotate(-6)"/>
      <ellipse class="cls-4" cx="48.75" cy="163.75" rx="4.65" ry="4.72" transform="translate(-16.85 5.99) rotate(-6)"/>
      <ellipse class="cls-4" cx="95.96" cy="168.28" rx="4.65" ry="4.72" transform="translate(-17.06 10.95) rotate(-6)"/>
      <ellipse class="cls-4" cx="86.72" cy="169.25" rx="4.65" ry="4.72" transform="translate(-17.22 9.99) rotate(-6)"/>
      <ellipse class="cls-4" cx="77.47" cy="170.22" rx="4.65" ry="4.72" transform="translate(-17.37 9.03) rotate(-6)"/>
      <ellipse class="cls-4" cx="68.23" cy="171.19" rx="4.65" ry="4.72" transform="translate(-17.52 8.07) rotate(-6)"/>
      <ellipse class="cls-4" cx="58.98" cy="172.16" rx="4.65" ry="4.72" transform="translate(-17.67 7.11) rotate(-6)"/>
      <ellipse class="cls-4" cx="49.74" cy="173.13" rx="4.65" ry="4.72" transform="translate(-17.82 6.15) rotate(-6)"/>
      <ellipse class="cls-4" cx="96.95" cy="177.66" rx="4.65" ry="4.72" transform="translate(-18.04 11.11) rotate(-6)"/>
      <ellipse class="cls-4" cx="87.7" cy="178.63" rx="4.65" ry="4.72" transform="translate(-18.19 10.15) rotate(-6)"/>
      <ellipse class="cls-4" cx="78.46" cy="179.61" rx="4.65" ry="4.72" transform="translate(-18.34 9.18) rotate(-6)"/>
      <ellipse class="cls-4" cx="69.21" cy="180.58" rx="4.65" ry="4.72" transform="translate(-18.5 8.22) rotate(-6)"/>
      <ellipse class="cls-4" cx="59.97" cy="181.55" rx="4.65" ry="4.72" transform="translate(-18.65 7.26) rotate(-6)"/>
      <ellipse class="cls-4" cx="50.72" cy="182.52" rx="4.65" ry="4.72" transform="translate(-18.8 6.3) rotate(-6)"/>
      <g>
        <g>
          <ellipse class="cls-4" cx="236.85" cy="172.27" rx="4.65" ry="4.72" transform="translate(-16.71 25.7) rotate(-6)"/>
          <ellipse class="cls-4" cx="227.6" cy="173.25" rx="4.65" ry="4.72" transform="translate(-16.86 24.74) rotate(-6)"/>
          <ellipse class="cls-4" cx="218.36" cy="174.22" rx="4.65" ry="4.72" transform="translate(-17.01 23.78) rotate(-6)"/>
          <ellipse class="cls-4" cx="209.11" cy="175.19" rx="4.65" ry="4.72" transform="translate(-17.17 22.82) rotate(-6)"/>
          <ellipse class="cls-4" cx="199.87" cy="176.16" rx="4.65" ry="4.72" transform="translate(-17.32 21.86) rotate(-6)"/>
          <ellipse class="cls-4" cx="190.62" cy="177.13" rx="4.65" ry="4.72" transform="translate(-17.47 20.89) rotate(-6)"/>
          <ellipse class="cls-4" cx="237.83" cy="181.66" rx="4.65" ry="4.72" transform="translate(-17.69 25.85) rotate(-6)"/>
          <ellipse class="cls-4" cx="228.59" cy="182.63" rx="4.65" ry="4.72" transform="translate(-17.84 24.89) rotate(-6)"/>
          <ellipse class="cls-4" cx="219.34" cy="183.6" rx="4.65" ry="4.72" transform="translate(-17.99 23.93) rotate(-6)"/>
          <ellipse class="cls-4" cx="210.1" cy="184.58" rx="4.65" ry="4.72" transform="translate(-18.14 22.97) rotate(-6)"/>
          <ellipse class="cls-4" cx="200.85" cy="185.55" rx="4.65" ry="4.72" transform="translate(-18.29 22.01) rotate(-6)"/>
          <ellipse class="cls-4" cx="191.61" cy="186.52" rx="4.65" ry="4.72" transform="translate(-18.45 21.05) rotate(-6)"/>
        </g>
        <g>
          <ellipse class="cls-4" cx="181.38" cy="178.1" rx="4.65" ry="4.72" transform="translate(-17.62 19.93) rotate(-6)"/>
          <ellipse class="cls-4" cx="172.13" cy="179.08" rx="4.65" ry="4.72" transform="translate(-17.77 18.97) rotate(-6)"/>
          <ellipse class="cls-4" cx="162.89" cy="180.05" rx="4.65" ry="4.72" transform="translate(-17.93 18.01) rotate(-6)"/>
          <ellipse class="cls-4" cx="153.64" cy="181.02" rx="4.65" ry="4.72" transform="translate(-18.08 17.05) rotate(-6)"/>
          <ellipse class="cls-4" cx="144.4" cy="181.99" rx="4.65" ry="4.72" transform="translate(-18.23 16.09) rotate(-6)"/>
          <ellipse class="cls-4" cx="135.15" cy="182.96" rx="4.65" ry="4.72" transform="translate(-18.38 15.13) rotate(-6)"/>
          <ellipse class="cls-4" cx="182.36" cy="187.49" rx="4.65" ry="4.72" transform="translate(-18.6 20.09) rotate(-6)"/>
          <ellipse class="cls-4" cx="173.12" cy="188.46" rx="4.65" ry="4.72" transform="translate(-18.75 19.13) rotate(-6)"/>
          <ellipse class="cls-4" cx="163.87" cy="189.43" rx="4.65" ry="4.72" transform="translate(-18.9 18.17) rotate(-6)"/>
          <ellipse class="cls-4" cx="154.63" cy="190.41" rx="4.65" ry="4.72" transform="translate(-19.05 17.21) rotate(-6)"/>
          <ellipse class="cls-4" cx="145.38" cy="191.38" rx="4.65" ry="4.72" transform="translate(-19.21 16.24) rotate(-6)"/>
          <ellipse class="cls-4" cx="136.14" cy="192.35" rx="4.65" ry="4.72" transform="translate(-19.36 15.28) rotate(-6)"/>
        </g>
      </g>
      <g>
        <ellipse class="cls-4" cx="125.93" cy="184.11" rx="4.65" ry="4.72" transform="translate(-18.55 14.17) rotate(-6)"/>
        <ellipse class="cls-4" cx="116.68" cy="185.08" rx="4.65" ry="4.72" transform="translate(-18.71 13.21) rotate(-6)"/>
        <ellipse class="cls-4" cx="107.44" cy="186.05" rx="4.65" ry="4.72" transform="translate(-18.86 12.25) rotate(-6)"/>
        <ellipse class="cls-4" cx="98.19" cy="187.02" rx="4.65" ry="4.72" transform="translate(-19.01 11.29) rotate(-6)"/>
        <ellipse class="cls-4" cx="88.95" cy="187.99" rx="4.65" ry="4.72" transform="translate(-19.16 10.33) rotate(-6)"/>
        <ellipse class="cls-4" cx="79.7" cy="188.96" rx="4.65" ry="4.72" transform="translate(-19.31 9.37) rotate(-6)"/>
        <ellipse class="cls-4" cx="126.91" cy="193.49" rx="4.65" ry="4.72" transform="translate(-19.53 14.33) rotate(-6)"/>
        <ellipse class="cls-4" cx="117.67" cy="194.46" rx="4.65" ry="4.72" transform="translate(-19.68 13.36) rotate(-6)"/>
        <ellipse class="cls-4" cx="108.42" cy="195.44" rx="4.65" ry="4.72" transform="translate(-19.83 12.4) rotate(-6)"/>
        <ellipse class="cls-4" cx="99.18" cy="196.41" rx="4.65" ry="4.72" transform="translate(-19.99 11.44) rotate(-6)"/>
        <ellipse class="cls-4" cx="89.93" cy="197.38" rx="4.65" ry="4.72" transform="translate(-20.14 10.48) rotate(-6)"/>
        <ellipse class="cls-4" cx="80.69" cy="198.35" rx="4.65" ry="4.72" transform="translate(-20.29 9.52) rotate(-6)"/>
      </g>
      <ellipse class="cls-4" cx="70.46" cy="189.94" rx="4.65" ry="4.72" transform="translate(-19.47 8.4) rotate(-6)"/>
      <ellipse class="cls-4" cx="61.21" cy="190.91" rx="4.65" ry="4.72" transform="translate(-19.62 7.44) rotate(-6)"/>
      <ellipse class="cls-4" cx="51.97" cy="191.88" rx="4.65" ry="4.72" transform="translate(-19.77 6.48) rotate(-6)"/>
      <ellipse class="cls-4" cx="71.44" cy="199.32" rx="4.65" ry="4.72" transform="translate(-20.44 8.56) rotate(-6)"/>
      <ellipse class="cls-4" cx="62.2" cy="200.29" rx="4.65" ry="4.72" transform="translate(-20.59 7.6) rotate(-6)"/>
      <ellipse class="cls-4" cx="52.95" cy="201.27" rx="4.65" ry="4.72" transform="translate(-20.75 6.64) rotate(-6)"/>
    </g>
  </g>
  <g>
    <rect class="cls-3" x="49.92" y="52.6" width="220.09" height="174.71" rx="8.85" ry="8.85" transform="translate(333.68 262.43) rotate(174)"/>
    <path class="cls-1" d="M68.42,226.29c1.73,1.07.83,5.02,2.85,4.8s1.43-5.85,3.46-6.06,2.62,5.43,4.64,5.21,1.43-5.85,3.45-6.06,2.61,5.43,4.64,5.21,1.43-5.85,3.45-6.06,2.61,5.43,4.64,5.21,1.43-5.85,3.45-6.06,2.62,5.43,4.64,5.21,1.43-5.85,3.46-6.06,2.62,5.43,4.64,5.21,1.43-5.85,3.45-6.06,2.62,5.43,4.64,5.21,1.43-5.85,3.45-6.06,2.62,5.43,4.64,5.21,1.43-5.85,3.46-6.06,2.62,5.43,4.64,5.21,1.43-5.85,3.45-6.06,2.62,5.43,4.64,5.21,1.43-5.85,3.46-6.06,2.62,5.43,4.64,5.21,1.43-5.85,3.46-6.06,2.62,5.43,4.64,5.21,1.43-5.85,3.46-6.06,2.62,5.43,4.64,5.21,1.43-5.85,3.46-6.06,2.62,5.43,4.64,5.21,1.43-5.85,3.46-6.06,2.62,5.43,4.64,5.21,1.43-5.85,3.46-6.06,2.62,5.43,4.64,5.21,1.43-5.85,3.46-6.06,2.62,5.43,4.64,5.21,1.43-5.85,3.46-6.06,2.62,5.43,4.64,5.21,1.43-5.85,3.46-6.06,2.62,5.43,4.64,5.21,1.43-5.85,3.46-6.06,2.62,5.43,4.64,5.21,1.43-5.85,3.46-6.06,2.62,5.43,4.64,5.21,1.43-5.85,3.46-6.06,2.62,5.43,4.65,5.21,1.43-5.85,3.46-6.06,2.62,5.43,4.65,5.21,1.43-5.85,3.46-6.06,2.62,5.43,4.65,5.21,1.43-5.85,3.46-6.06,2.62,5.42,4.65,5.21.33-3.89,1.81-5.3c1.14-1.08,4.61.2,4.44-1.36s-5.8-.97-5.97-2.53,5.47-2.15,5.31-3.72-5.8-.97-5.97-2.53,5.47-2.15,5.31-3.71-5.8-.97-5.97-2.53,5.47-2.15,5.31-3.71-5.8-.97-5.97-2.53,5.47-2.15,5.31-3.71-5.8-.97-5.97-2.53,5.47-2.15,5.31-3.72-5.8-.97-5.97-2.53,5.47-2.15,5.31-3.71-5.8-.97-5.97-2.53,5.47-2.15,5.31-3.71-5.8-.97-5.97-2.53,5.47-2.15,5.31-3.72-5.8-.97-5.97-2.53,5.47-2.15,5.31-3.71-5.8-.97-5.97-2.53,5.47-2.16,5.31-3.72-5.8-.97-5.97-2.53,5.47-2.15,5.31-3.72-5.8-.97-5.97-2.53,5.47-2.16,5.31-3.72-5.8-.97-5.97-2.53,5.47-2.15,5.31-3.72-5.8-.97-5.97-2.53,5.47-2.15,5.31-3.72-5.8-.97-5.97-2.53,5.47-2.15,5.31-3.72-5.8-.97-5.97-2.53,5.47-2.15,5.31-3.72-5.8-.97-5.97-2.53,5.47-2.15,5.31-3.71-5.8-.97-5.97-2.53,5.47-2.15,5.31-3.71-5.8-.97-5.97-2.53,5.47-2.15,5.31-3.72-5.8-.97-5.97-2.53,5.47-2.16,5.31-3.72-5.8-.97-5.97-2.53,5.47-2.16,5.31-3.72-5.8-.97-5.97-2.54,5.47-2.15,5.31-3.72-5.8-.97-5.97-2.54,5.47-2.16,5.31-3.72-5.8-.97-5.97-2.54,5.47-2.16,5.31-3.73-3.3.4-4.64-.43c-1.73-1.07-.83-5.02-2.85-4.8s-1.43,5.85-3.46,6.06-2.62-5.43-4.64-5.21-1.43,5.85-3.45,6.06-2.61-5.43-4.64-5.21-1.43,5.85-3.45,6.06-2.61-5.43-4.64-5.21-1.43,5.85-3.45,6.06-2.62-5.43-4.64-5.21-1.43,5.85-3.46,6.06-2.62-5.43-4.64-5.21-1.43,5.85-3.45,6.06-2.62-5.43-4.64-5.21-1.43,5.85-3.45,6.06-2.62-5.43-4.64-5.21-1.43,5.85-3.46,6.06-2.62-5.43-4.64-5.21-1.43,5.85-3.45,6.06-2.62-5.43-4.64-5.21-1.43,5.85-3.46,6.06-2.62-5.43-4.64-5.21-1.43,5.85-3.46,6.06-2.62-5.43-4.64-5.21-1.43,5.85-3.46,6.06-2.62-5.43-4.64-5.21-1.43,5.85-3.46,6.06-2.62-5.43-4.64-5.21-1.43,5.85-3.46,6.06-2.62-5.43-4.64-5.21-1.43,5.85-3.46,6.06-2.62-5.43-4.64-5.21-1.43,5.85-3.46,6.06-2.62-5.43-4.64-5.21-1.43,5.85-3.46,6.06-2.62-5.43-4.64-5.21-1.43,5.85-3.46,6.06-2.62-5.43-4.64-5.21-1.43,5.85-3.46,6.06-2.62-5.43-4.64-5.21-1.43,5.85-3.46,6.06-2.62-5.43-4.64-5.21-1.43,5.85-3.46,6.06-2.62-5.43-4.65-5.21-1.43,5.85-3.46,6.06-2.62-5.43-4.65-5.21-1.43,5.85-3.46,6.06-2.62-5.43-4.65-5.21-1.43,5.85-3.46,6.06-2.62-5.42-4.65-5.21-.33,3.89-1.81,5.3c-1.14,1.08-4.61-.2-4.44,1.36s5.8.97,5.97,2.53-5.47,2.15-5.31,3.72,5.8.97,5.97,2.53-5.47,2.15-5.31,3.71,5.8.97,5.97,2.53-5.47,2.15-5.31,3.71,5.8.97,5.97,2.53-5.47,2.15-5.31,3.71,5.8.97,5.97,2.53-5.47,2.15-5.31,3.72,5.8.97,5.97,2.53-5.47,2.15-5.31,3.71,5.8.97,5.97,2.53-5.47,2.15-5.31,3.71,5.8.97,5.97,2.53-5.47,2.15-5.31,3.72,5.8.97,5.97,2.53-5.47,2.15-5.31,3.71,5.8.97,5.97,2.53-5.47,2.16-5.31,3.72,5.8.97,5.97,2.53-5.47,2.15-5.31,3.72,5.8.97,5.97,2.53-5.47,2.16-5.31,3.72,5.8.97,5.97,2.53-5.47,2.15-5.31,3.72,5.8.97,5.97,2.53-5.47,2.15-5.31,3.72,5.8.97,5.97,2.53-5.47,2.15-5.31,3.72,5.8.97,5.97,2.53-5.47,2.15-5.31,3.72,5.8.97,5.97,2.53-5.47,2.15-5.31,3.71,5.8.97,5.97,2.53-5.47,2.15-5.31,3.71,5.8.97,5.97,2.53-5.47,2.15-5.31,3.72,5.8.97,5.97,2.53-5.47,2.16-5.31,3.72,5.8.97,5.97,2.53-5.47,2.16-5.31,3.72,5.8.97,5.97,2.54-5.47,2.15-5.31,3.72,5.8.97,5.97,2.54-5.47,2.16-5.31,3.72,5.8.97,5.97,2.54-5.64,2.64-5.23,4.16c.26.96,3.22-.84,4.56,0Z"/>
    <rect id="board-2" data-name="board" class="cls-5" x="58.17" y="61.43" width="203.59" height="157.06" rx="6.63" ry="6.63" transform="translate(333.68 262.43) rotate(174)"/>
    <g id="prickar-2" data-name="prickar">
      <g>
        <ellipse class="cls-4" cx="245.14" cy="59.83" rx="4.65" ry="4.72" transform="translate(-4.91 25.95) rotate(-6)"/>
        <ellipse class="cls-4" cx="235.89" cy="60.8" rx="4.65" ry="4.72" transform="translate(-5.06 24.99) rotate(-6)"/>
        <ellipse class="cls-4" cx="226.65" cy="61.77" rx="4.65" ry="4.72" transform="translate(-5.22 24.03) rotate(-6)"/>
        <ellipse class="cls-4" cx="217.4" cy="62.74" rx="4.65" ry="4.72" transform="translate(-5.37 23.07) rotate(-6)"/>
        <ellipse class="cls-4" cx="208.16" cy="63.72" rx="4.65" ry="4.72" transform="translate(-5.52 22.11) rotate(-6)"/>
        <ellipse class="cls-4" cx="198.91" cy="64.69" rx="4.65" ry="4.72" transform="translate(-5.67 21.15) rotate(-6)"/>
        <ellipse class="cls-4" cx="189.67" cy="65.66" rx="4.65" ry="4.72" transform="translate(-5.82 20.18) rotate(-6)"/>
        <ellipse class="cls-4" cx="180.42" cy="66.63" rx="4.65" ry="4.72" transform="translate(-5.98 19.22) rotate(-6)"/>
        <ellipse class="cls-4" cx="171.18" cy="67.6" rx="4.65" ry="4.72" transform="translate(-6.13 18.26) rotate(-6)"/>
        <ellipse class="cls-4" cx="161.93" cy="68.57" rx="4.65" ry="4.72" transform="translate(-6.28 17.3) rotate(-6)"/>
        <ellipse class="cls-4" cx="152.69" cy="69.54" rx="4.65" ry="4.72" transform="translate(-6.43 16.34) rotate(-6)"/>
        <ellipse class="cls-4" cx="143.44" cy="70.52" rx="4.65" ry="4.72" transform="translate(-6.58 15.38) rotate(-6)"/>
        <ellipse class="cls-4" cx="134.2" cy="71.49" rx="4.65" ry="4.72" transform="translate(-6.74 14.42) rotate(-6)"/>
        <ellipse class="cls-4" cx="124.95" cy="72.46" rx="4.65" ry="4.72" transform="translate(-6.89 13.46) rotate(-6)"/>
        <ellipse class="cls-4" cx="115.71" cy="73.43" rx="4.65" ry="4.72" transform="translate(-7.04 12.5) rotate(-6)"/>
        <ellipse class="cls-4" cx="246.13" cy="69.22" rx="4.65" ry="4.72" transform="translate(-5.89 26.1) rotate(-6)"/>
        <ellipse class="cls-4" cx="236.88" cy="70.19" rx="4.65" ry="4.72" transform="translate(-6.04 25.14) rotate(-6)"/>
        <ellipse class="cls-4" cx="227.64" cy="71.16" rx="4.65" ry="4.72" transform="translate(-6.19 24.18) rotate(-6)"/>
        <ellipse class="cls-4" cx="218.39" cy="72.13" rx="4.65" ry="4.72" transform="translate(-6.34 23.22) rotate(-6)"/>
        <ellipse class="cls-4" cx="209.15" cy="73.1" rx="4.65" ry="4.72" transform="translate(-6.5 22.26) rotate(-6)"/>
        <ellipse class="cls-4" cx="199.9" cy="74.07" rx="4.65" ry="4.72" transform="translate(-6.65 21.3) rotate(-6)"/>
        <ellipse class="cls-4" cx="190.66" cy="75.04" rx="4.65" ry="4.72" transform="translate(-6.8 20.34) rotate(-6)"/>
        <ellipse class="cls-4" cx="181.41" cy="76.02" rx="4.65" ry="4.72" transform="translate(-6.95 19.38) rotate(-6)"/>
        <ellipse class="cls-4" cx="172.17" cy="76.99" rx="4.65" ry="4.72" transform="translate(-7.1 18.42) rotate(-6)"/>
        <ellipse class="cls-4" cx="162.92" cy="77.96" rx="4.65" ry="4.72" transform="translate(-7.26 17.46) rotate(-6)"/>
        <ellipse class="cls-4" cx="153.68" cy="78.93" rx="4.65" ry="4.72" transform="translate(-7.41 16.5) rotate(-6)"/>
        <ellipse class="cls-4" cx="144.43" cy="79.9" rx="4.65" ry="4.72" transform="translate(-7.56 15.53) rotate(-6)"/>
        <ellipse class="cls-4" cx="135.19" cy="80.87" rx="4.65" ry="4.72" transform="translate(-7.71 14.57) rotate(-6)"/>
        <ellipse class="cls-4" cx="125.94" cy="81.85" rx="4.65" ry="4.72" transform="translate(-7.87 13.61) rotate(-6)"/>
        <ellipse class="cls-4" cx="116.7" cy="82.82" rx="4.65" ry="4.72" transform="translate(-8.02 12.65) rotate(-6)"/>
        <ellipse class="cls-4" cx="247.11" cy="78.6" rx="4.65" ry="4.72" transform="translate(-6.86 26.26) rotate(-6)"/>
        <ellipse class="cls-4" cx="237.87" cy="79.57" rx="4.65" ry="4.72" transform="translate(-7.01 25.3) rotate(-6)"/>
        <ellipse class="cls-4" cx="228.62" cy="80.55" rx="4.65" ry="4.72" transform="translate(-7.17 24.34) rotate(-6)"/>
        <ellipse class="cls-4" cx="219.38" cy="81.52" rx="4.65" ry="4.72" transform="translate(-7.32 23.38) rotate(-6)"/>
        <ellipse class="cls-4" cx="210.13" cy="82.49" rx="4.65" ry="4.72" transform="translate(-7.47 22.42) rotate(-6)"/>
        <ellipse class="cls-4" cx="200.89" cy="83.46" rx="4.65" ry="4.72" transform="translate(-7.62 21.45) rotate(-6)"/>
        <ellipse class="cls-4" cx="191.64" cy="84.43" rx="4.65" ry="4.72" transform="translate(-7.78 20.49) rotate(-6)"/>
        <ellipse class="cls-4" cx="182.4" cy="85.4" rx="4.65" ry="4.72" transform="translate(-7.93 19.53) rotate(-6)"/>
        <ellipse class="cls-4" cx="173.15" cy="86.37" rx="4.65" ry="4.72" transform="translate(-8.08 18.57) rotate(-6)"/>
        <ellipse class="cls-4" cx="163.91" cy="87.35" rx="4.65" ry="4.72" transform="translate(-8.23 17.61) rotate(-6)"/>
        <ellipse class="cls-4" cx="154.66" cy="88.32" rx="4.65" ry="4.72" transform="translate(-8.38 16.65) rotate(-6)"/>
        <ellipse class="cls-4" cx="145.42" cy="89.29" rx="4.65" ry="4.72" transform="translate(-8.54 15.69) rotate(-6)"/>
        <ellipse class="cls-4" cx="136.17" cy="90.26" rx="4.65" ry="4.72" transform="translate(-8.69 14.73) rotate(-6)"/>
        <ellipse class="cls-4" cx="126.93" cy="91.23" rx="4.65" ry="4.72" transform="translate(-8.84 13.77) rotate(-6)"/>
        <ellipse class="cls-4" cx="117.68" cy="92.2" rx="4.65" ry="4.72" transform="translate(-8.99 12.81) rotate(-6)"/>
        <ellipse class="cls-4" cx="248.1" cy="87.99" rx="4.65" ry="4.72" transform="translate(-7.84 26.41) rotate(-6)"/>
        <ellipse class="cls-4" cx="238.85" cy="88.96" rx="4.65" ry="4.72" transform="translate(-7.99 25.45) rotate(-6)"/>
        <ellipse class="cls-4" cx="229.61" cy="89.93" rx="4.65" ry="4.72" transform="translate(-8.14 24.49) rotate(-6)"/>
        <ellipse class="cls-4" cx="220.36" cy="90.9" rx="4.65" ry="4.72" transform="translate(-8.29 23.53) rotate(-6)"/>
        <ellipse class="cls-4" cx="211.12" cy="91.87" rx="4.65" ry="4.72" transform="translate(-8.45 22.57) rotate(-6)"/>
        <ellipse class="cls-4" cx="201.87" cy="92.85" rx="4.65" ry="4.72" transform="translate(-8.6 21.61) rotate(-6)"/>
        <ellipse class="cls-4" cx="192.63" cy="93.82" rx="4.65" ry="4.72" transform="translate(-8.75 20.65) rotate(-6)"/>
        <ellipse class="cls-4" cx="183.38" cy="94.79" rx="4.65" ry="4.72" transform="translate(-8.9 19.69) rotate(-6)"/>
        <ellipse class="cls-4" cx="174.14" cy="95.76" rx="4.65" ry="4.72" transform="translate(-9.06 18.73) rotate(-6)"/>
        <ellipse class="cls-4" cx="164.89" cy="96.73" rx="4.65" ry="4.72" transform="translate(-9.21 17.77) rotate(-6)"/>
        <ellipse class="cls-4" cx="155.65" cy="97.7" rx="4.65" ry="4.72" transform="translate(-9.36 16.8) rotate(-6)"/>
        <ellipse class="cls-4" cx="146.4" cy="98.68" rx="4.65" ry="4.72" transform="translate(-9.51 15.84) rotate(-6)"/>
        <ellipse class="cls-4" cx="137.16" cy="99.65" rx="4.65" ry="4.72" transform="translate(-9.66 14.88) rotate(-6)"/>
        <ellipse class="cls-4" cx="127.91" cy="100.62" rx="4.65" ry="4.72" transform="translate(-9.82 13.92) rotate(-6)"/>
        <ellipse class="cls-4" cx="118.67" cy="101.59" rx="4.65" ry="4.72" transform="translate(-9.97 12.96) rotate(-6)"/>
        <ellipse class="cls-4" cx="249.09" cy="97.37" rx="4.65" ry="4.72" transform="translate(-8.81 26.57) rotate(-6)"/>
        <ellipse class="cls-4" cx="239.84" cy="98.35" rx="4.65" ry="4.72" transform="translate(-8.97 25.61) rotate(-6)"/>
        <ellipse class="cls-4" cx="230.6" cy="99.32" rx="4.65" ry="4.72" transform="translate(-9.12 24.65) rotate(-6)"/>
        <ellipse class="cls-4" cx="221.35" cy="100.29" rx="4.65" ry="4.72" transform="translate(-9.27 23.69) rotate(-6)"/>
        <ellipse class="cls-4" cx="212.11" cy="101.26" rx="4.65" ry="4.72" transform="translate(-9.42 22.72) rotate(-6)"/>
        <ellipse class="cls-4" cx="202.86" cy="102.23" rx="4.65" ry="4.72" transform="translate(-9.57 21.76) rotate(-6)"/>
        <ellipse class="cls-4" cx="193.62" cy="103.2" rx="4.65" ry="4.72" transform="translate(-9.73 20.8) rotate(-6)"/>
        <ellipse class="cls-4" cx="184.37" cy="104.18" rx="4.65" ry="4.72" transform="translate(-9.88 19.84) rotate(-6)"/>
        <ellipse class="cls-4" cx="175.13" cy="105.15" rx="4.65" ry="4.72" transform="translate(-10.03 18.88) rotate(-6)"/>
        <ellipse class="cls-4" cx="165.88" cy="106.12" rx="4.65" ry="4.72" transform="translate(-10.18 17.92) rotate(-6)"/>
        <ellipse class="cls-4" cx="156.64" cy="107.09" rx="4.65" ry="4.72" transform="translate(-10.34 16.96) rotate(-6)"/>
        <ellipse class="cls-4" cx="147.39" cy="108.06" rx="4.65" ry="4.72" transform="translate(-10.49 16) rotate(-6)"/>
        <ellipse class="cls-4" cx="138.15" cy="109.03" rx="4.65" ry="4.72" transform="translate(-10.64 15.04) rotate(-6)"/>
        <ellipse class="cls-4" cx="128.9" cy="110.01" rx="4.65" ry="4.72" transform="translate(-10.79 14.08) rotate(-6)"/>
        <ellipse class="cls-4" cx="119.66" cy="110.98" rx="4.65" ry="4.72" transform="translate(-10.94 13.11) rotate(-6)"/>
        <ellipse class="cls-4" cx="250.07" cy="106.76" rx="4.65" ry="4.72" transform="translate(-9.79 26.72) rotate(-6)"/>
        <ellipse class="cls-4" cx="240.83" cy="107.73" rx="4.65" ry="4.72" transform="translate(-9.94 25.76) rotate(-6)"/>
        <ellipse class="cls-4" cx="231.58" cy="108.7" rx="4.65" ry="4.72" transform="translate(-10.09 24.8) rotate(-6)"/>
        <ellipse class="cls-4" cx="222.34" cy="109.68" rx="4.65" ry="4.72" transform="translate(-10.25 23.84) rotate(-6)"/>
        <ellipse class="cls-4" cx="213.09" cy="110.65" rx="4.65" ry="4.72" transform="translate(-10.4 22.88) rotate(-6)"/>
        <ellipse class="cls-4" cx="203.85" cy="111.62" rx="4.65" ry="4.72" transform="translate(-10.55 21.92) rotate(-6)"/>
        <ellipse class="cls-4" cx="194.6" cy="112.59" rx="4.65" ry="4.72" transform="translate(-10.7 20.96) rotate(-6)"/>
        <ellipse class="cls-4" cx="185.36" cy="113.56" rx="4.65" ry="4.72" transform="translate(-10.85 20) rotate(-6)"/>
        <ellipse class="cls-4" cx="176.11" cy="114.53" rx="4.65" ry="4.72" transform="translate(-11.01 19.04) rotate(-6)"/>
        <ellipse class="cls-4" cx="166.87" cy="115.51" rx="4.65" ry="4.72" transform="translate(-11.16 18.07) rotate(-6)"/>
        <ellipse class="cls-4" cx="157.62" cy="116.48" rx="4.65" ry="4.72" transform="translate(-11.31 17.11) rotate(-6)"/>
        <ellipse class="cls-4" cx="148.38" cy="117.45" rx="4.65" ry="4.72" transform="translate(-11.46 16.15) rotate(-6)"/>
        <ellipse class="cls-4" cx="139.13" cy="118.42" rx="4.65" ry="4.72" transform="translate(-11.62 15.19) rotate(-6)"/>
        <ellipse class="cls-4" cx="129.89" cy="119.39" rx="4.65" ry="4.72" transform="translate(-11.77 14.23) rotate(-6)"/>
        <ellipse class="cls-4" cx="120.64" cy="120.36" rx="4.65" ry="4.72" transform="translate(-11.92 13.27) rotate(-6)"/>
        <ellipse class="cls-4" cx="251.06" cy="116.15" rx="4.65" ry="4.72" transform="translate(-10.77 26.88) rotate(-6)"/>
        <ellipse class="cls-4" cx="241.81" cy="117.12" rx="4.65" ry="4.72" transform="translate(-10.92 25.92) rotate(-6)"/>
        <ellipse class="cls-4" cx="232.57" cy="118.09" rx="4.65" ry="4.72" transform="translate(-11.07 24.96) rotate(-6)"/>
        <ellipse class="cls-4" cx="223.32" cy="119.06" rx="4.65" ry="4.72" transform="translate(-11.22 23.99) rotate(-6)"/>
        <ellipse class="cls-4" cx="214.08" cy="120.03" rx="4.65" ry="4.72" transform="translate(-11.37 23.03) rotate(-6)"/>
        <ellipse class="cls-4" cx="204.83" cy="121.01" rx="4.65" ry="4.72" transform="translate(-11.53 22.07) rotate(-6)"/>
        <ellipse class="cls-4" cx="195.59" cy="121.98" rx="4.65" ry="4.72" transform="translate(-11.68 21.11) rotate(-6)"/>
        <ellipse class="cls-4" cx="186.34" cy="122.95" rx="4.65" ry="4.72" transform="translate(-11.83 20.15) rotate(-6)"/>
        <ellipse class="cls-4" cx="177.1" cy="123.92" rx="4.65" ry="4.72" transform="translate(-11.98 19.19) rotate(-6)"/>
        <ellipse class="cls-4" cx="167.85" cy="124.89" rx="4.65" ry="4.72" transform="translate(-12.13 18.23) rotate(-6)"/>
        <ellipse class="cls-4" cx="158.61" cy="125.86" rx="4.65" ry="4.72" transform="translate(-12.29 17.27) rotate(-6)"/>
        <ellipse class="cls-4" cx="149.36" cy="126.84" rx="4.65" ry="4.72" transform="translate(-12.44 16.31) rotate(-6)"/>
        <ellipse class="cls-4" cx="140.12" cy="127.81" rx="4.65" ry="4.72" transform="translate(-12.59 15.35) rotate(-6)"/>
        <ellipse class="cls-4" cx="130.87" cy="128.78" rx="4.65" ry="4.72" transform="translate(-12.74 14.38) rotate(-6)"/>
        <ellipse class="cls-4" cx="121.63" cy="129.75" rx="4.65" ry="4.72" transform="translate(-12.9 13.42) rotate(-6)"/>
        <ellipse class="cls-4" cx="252.04" cy="125.53" rx="4.65" ry="4.72" transform="translate(-11.74 27.03) rotate(-6)"/>
        <ellipse class="cls-4" cx="242.8" cy="126.51" rx="4.65" ry="4.72" transform="translate(-11.89 26.07) rotate(-6)"/>
        <ellipse class="cls-4" cx="233.55" cy="127.48" rx="4.65" ry="4.72" transform="translate(-12.05 25.11) rotate(-6)"/>
        <ellipse class="cls-4" cx="224.31" cy="128.45" rx="4.65" ry="4.72" transform="translate(-12.2 24.15) rotate(-6)"/>
        <ellipse class="cls-4" cx="215.07" cy="129.42" rx="4.65" ry="4.72" transform="translate(-12.35 23.19) rotate(-6)"/>
        <ellipse class="cls-4" cx="205.82" cy="130.39" rx="4.65" ry="4.72" transform="translate(-12.5 22.23) rotate(-6)"/>
        <ellipse class="cls-4" cx="196.58" cy="131.36" rx="4.65" ry="4.72" transform="translate(-12.65 21.27) rotate(-6)"/>
        <ellipse class="cls-4" cx="187.33" cy="132.34" rx="4.65" ry="4.72" transform="translate(-12.81 20.31) rotate(-6)"/>
        <ellipse class="cls-4" cx="178.09" cy="133.31" rx="4.65" ry="4.72" transform="translate(-12.96 19.34) rotate(-6)"/>
        <ellipse class="cls-4" cx="168.84" cy="134.28" rx="4.65" ry="4.72" transform="translate(-13.11 18.38) rotate(-6)"/>
        <ellipse class="cls-4" cx="159.6" cy="135.25" rx="4.65" ry="4.72" transform="translate(-13.26 17.42) rotate(-6)"/>
        <ellipse class="cls-4" cx="150.35" cy="136.22" rx="4.65" ry="4.72" transform="translate(-13.41 16.46) rotate(-6)"/>
        <ellipse class="cls-4" cx="141.11" cy="137.19" rx="4.65" ry="4.72" transform="translate(-13.57 15.5) rotate(-6)"/>
        <ellipse class="cls-4" cx="131.86" cy="138.17" rx="4.65" ry="4.72" transform="translate(-13.72 14.54) rotate(-6)"/>
        <ellipse class="cls-4" cx="122.62" cy="139.14" rx="4.65" ry="4.72" transform="translate(-13.87 13.58) rotate(-6)"/>
        <ellipse class="cls-4" cx="253.03" cy="134.92" rx="4.65" ry="4.72" transform="translate(-12.72 27.19) rotate(-6)"/>
        <ellipse class="cls-4" cx="243.79" cy="135.89" rx="4.65" ry="4.72" transform="translate(-12.87 26.23) rotate(-6)"/>
        <ellipse class="cls-4" cx="234.54" cy="136.86" rx="4.65" ry="4.72" transform="translate(-13.02 25.26) rotate(-6)"/>
        <ellipse class="cls-4" cx="225.3" cy="137.84" rx="4.65" ry="4.72" transform="translate(-13.17 24.3) rotate(-6)"/>
        <ellipse class="cls-4" cx="216.05" cy="138.81" rx="4.65" ry="4.72" transform="translate(-13.33 23.34) rotate(-6)"/>
        <ellipse class="cls-4" cx="206.81" cy="139.78" rx="4.65" ry="4.72" transform="translate(-13.48 22.38) rotate(-6)"/>
        <ellipse class="cls-4" cx="197.56" cy="140.75" rx="4.65" ry="4.72" transform="translate(-13.63 21.42) rotate(-6)"/>
        <ellipse class="cls-4" cx="188.32" cy="141.72" rx="4.65" ry="4.72" transform="translate(-13.78 20.46) rotate(-6)"/>
        <ellipse class="cls-4" cx="179.07" cy="142.69" rx="4.65" ry="4.72" transform="translate(-13.93 19.5) rotate(-6)"/>
        <ellipse class="cls-4" cx="169.83" cy="143.67" rx="4.65" ry="4.72" transform="translate(-14.09 18.54) rotate(-6)"/>
        <ellipse class="cls-4" cx="160.58" cy="144.64" rx="4.65" ry="4.72" transform="translate(-14.24 17.58) rotate(-6)"/>
        <ellipse class="cls-4" cx="151.34" cy="145.61" rx="4.65" ry="4.72" transform="translate(-14.39 16.62) rotate(-6)"/>
        <ellipse class="cls-4" cx="142.09" cy="146.58" rx="4.65" ry="4.72" transform="translate(-14.54 15.65) rotate(-6)"/>
        <ellipse class="cls-4" cx="132.85" cy="147.55" rx="4.65" ry="4.72" transform="translate(-14.7 14.69) rotate(-6)"/>
        <ellipse class="cls-4" cx="123.6" cy="148.52" rx="4.65" ry="4.72" transform="translate(-14.85 13.73) rotate(-6)"/>
        <ellipse class="cls-4" cx="254.02" cy="144.31" rx="4.65" ry="4.72" transform="translate(-13.69 27.34) rotate(-6)"/>
        <ellipse class="cls-4" cx="244.77" cy="145.28" rx="4.65" ry="4.72" transform="translate(-13.84 26.38) rotate(-6)"/>
        <ellipse class="cls-4" cx="235.53" cy="146.25" rx="4.65" ry="4.72" transform="translate(-14 25.42) rotate(-6)"/>
        <ellipse class="cls-4" cx="226.28" cy="147.22" rx="4.65" ry="4.72" transform="translate(-14.15 24.46) rotate(-6)"/>
        <ellipse class="cls-4" cx="217.04" cy="148.19" rx="4.65" ry="4.72" transform="translate(-14.3 23.5) rotate(-6)"/>
        <ellipse class="cls-4" cx="207.79" cy="149.17" rx="4.65" ry="4.72" transform="translate(-14.45 22.54) rotate(-6)"/>
        <ellipse class="cls-4" cx="198.55" cy="150.14" rx="4.65" ry="4.72" transform="translate(-14.61 21.58) rotate(-6)"/>
        <ellipse class="cls-4" cx="189.3" cy="151.11" rx="4.65" ry="4.72" transform="translate(-14.76 20.61) rotate(-6)"/>
        <ellipse class="cls-4" cx="180.06" cy="152.08" rx="4.65" ry="4.72" transform="translate(-14.91 19.65) rotate(-6)"/>
        <ellipse class="cls-4" cx="170.81" cy="153.05" rx="4.65" ry="4.72" transform="translate(-15.06 18.69) rotate(-6)"/>
        <ellipse class="cls-4" cx="161.57" cy="154.02" rx="4.65" ry="4.72" transform="translate(-15.21 17.73) rotate(-6)"/>
        <ellipse class="cls-4" cx="152.32" cy="155" rx="4.65" ry="4.72" transform="translate(-15.37 16.77) rotate(-6)"/>
        <ellipse class="cls-4" cx="143.08" cy="155.97" rx="4.65" ry="4.72" transform="translate(-15.52 15.81) rotate(-6)"/>
        <ellipse class="cls-4" cx="133.83" cy="156.94" rx="4.65" ry="4.72" transform="translate(-15.67 14.85) rotate(-6)"/>
        <ellipse class="cls-4" cx="124.59" cy="157.91" rx="4.65" ry="4.72" transform="translate(-15.82 13.89) rotate(-6)"/>
        <ellipse class="cls-4" cx="255" cy="153.69" rx="4.65" ry="4.72" transform="translate(-14.67 27.5) rotate(-6)"/>
        <ellipse class="cls-4" cx="245.76" cy="154.67" rx="4.65" ry="4.72" transform="translate(-14.82 26.53) rotate(-6)"/>
        <ellipse class="cls-4" cx="236.51" cy="155.64" rx="4.65" ry="4.72" transform="translate(-14.97 25.57) rotate(-6)"/>
        <ellipse class="cls-4" cx="227.27" cy="156.61" rx="4.65" ry="4.72" transform="translate(-15.12 24.61) rotate(-6)"/>
        <ellipse class="cls-4" cx="218.02" cy="157.58" rx="4.65" ry="4.72" transform="translate(-15.28 23.65) rotate(-6)"/>
        <ellipse class="cls-4" cx="208.78" cy="158.55" rx="4.65" ry="4.72" transform="translate(-15.43 22.69) rotate(-6)"/>
        <ellipse class="cls-4" cx="199.53" cy="159.52" rx="4.65" ry="4.72" transform="translate(-15.58 21.73) rotate(-6)"/>
        <ellipse class="cls-4" cx="190.29" cy="160.5" rx="4.65" ry="4.72" transform="translate(-15.73 20.77) rotate(-6)"/>
        <ellipse class="cls-4" cx="181.04" cy="161.47" rx="4.65" ry="4.72" transform="translate(-15.89 19.81) rotate(-6)"/>
        <ellipse class="cls-4" cx="171.8" cy="162.44" rx="4.65" ry="4.72" transform="translate(-16.04 18.85) rotate(-6)"/>
        <ellipse class="cls-4" cx="162.55" cy="163.41" rx="4.65" ry="4.72" transform="translate(-16.19 17.89) rotate(-6)"/>
        <ellipse class="cls-4" cx="153.31" cy="164.38" rx="4.65" ry="4.72" transform="translate(-16.34 16.92) rotate(-6)"/>
        <ellipse class="cls-4" cx="144.06" cy="165.35" rx="4.65" ry="4.72" transform="translate(-16.49 15.96) rotate(-6)"/>
        <ellipse class="cls-4" cx="134.82" cy="166.33" rx="4.65" ry="4.72" transform="translate(-16.65 15) rotate(-6)"/>
        <ellipse class="cls-4" cx="125.57" cy="167.3" rx="4.65" ry="4.72" transform="translate(-16.8 14.04) rotate(-6)"/>
        <ellipse class="cls-4" cx="255.99" cy="163.08" rx="4.65" ry="4.72" transform="translate(-15.64 27.65) rotate(-6)"/>
        <ellipse class="cls-4" cx="246.75" cy="164.05" rx="4.65" ry="4.72" transform="translate(-15.8 26.69) rotate(-6)"/>
        <ellipse class="cls-4" cx="237.5" cy="165.02" rx="4.65" ry="4.72" transform="translate(-15.95 25.73) rotate(-6)"/>
        <ellipse class="cls-4" cx="228.26" cy="166" rx="4.65" ry="4.72" transform="translate(-16.1 24.77) rotate(-6)"/>
        <ellipse class="cls-4" cx="219.01" cy="166.97" rx="4.65" ry="4.72" transform="translate(-16.25 23.81) rotate(-6)"/>
        <ellipse class="cls-4" cx="209.77" cy="167.94" rx="4.65" ry="4.72" transform="translate(-16.4 22.85) rotate(-6)"/>
        <ellipse class="cls-4" cx="200.52" cy="168.91" rx="4.65" ry="4.72" transform="translate(-16.56 21.88) rotate(-6)"/>
        <ellipse class="cls-4" cx="191.28" cy="169.88" rx="4.65" ry="4.72" transform="translate(-16.71 20.92) rotate(-6)"/>
        <ellipse class="cls-4" cx="182.03" cy="170.85" rx="4.65" ry="4.72" transform="translate(-16.86 19.96) rotate(-6)"/>
        <ellipse class="cls-4" cx="172.79" cy="171.83" rx="4.65" ry="4.72" transform="translate(-17.01 19) rotate(-6)"/>
        <ellipse class="cls-4" cx="163.54" cy="172.8" rx="4.65" ry="4.72" transform="translate(-17.17 18.04) rotate(-6)"/>
        <ellipse class="cls-4" cx="154.3" cy="173.77" rx="4.65" ry="4.72" transform="translate(-17.32 17.08) rotate(-6)"/>
        <ellipse class="cls-4" cx="145.05" cy="174.74" rx="4.65" ry="4.72" transform="translate(-17.47 16.12) rotate(-6)"/>
        <ellipse class="cls-4" cx="135.81" cy="175.71" rx="4.65" ry="4.72" transform="translate(-17.62 15.16) rotate(-6)"/>
        <ellipse class="cls-4" cx="126.56" cy="176.68" rx="4.65" ry="4.72" transform="translate(-17.77 14.2) rotate(-6)"/>
        <ellipse class="cls-4" cx="256.98" cy="172.47" rx="4.65" ry="4.72" transform="translate(-16.62 27.8) rotate(-6)"/>
        <ellipse class="cls-4" cx="247.73" cy="173.44" rx="4.65" ry="4.72" transform="translate(-16.77 26.84) rotate(-6)"/>
        <ellipse class="cls-4" cx="238.49" cy="174.41" rx="4.65" ry="4.72" transform="translate(-16.92 25.88) rotate(-6)"/>
        <ellipse class="cls-4" cx="229.24" cy="175.38" rx="4.65" ry="4.72" transform="translate(-17.08 24.92) rotate(-6)"/>
        <ellipse class="cls-4" cx="220" cy="176.35" rx="4.65" ry="4.72" transform="translate(-17.23 23.96) rotate(-6)"/>
        <ellipse class="cls-4" cx="210.75" cy="177.33" rx="4.65" ry="4.72" transform="translate(-17.38 23) rotate(-6)"/>
        <ellipse class="cls-4" cx="201.51" cy="178.3" rx="4.65" ry="4.72" transform="translate(-17.53 22.04) rotate(-6)"/>
        <ellipse class="cls-4" cx="192.26" cy="179.27" rx="4.65" ry="4.72" transform="translate(-17.68 21.08) rotate(-6)"/>
        <ellipse class="cls-4" cx="183.02" cy="180.24" rx="4.65" ry="4.72" transform="translate(-17.84 20.12) rotate(-6)"/>
        <ellipse class="cls-4" cx="173.77" cy="181.21" rx="4.65" ry="4.72" transform="translate(-17.99 19.16) rotate(-6)"/>
        <ellipse class="cls-4" cx="164.53" cy="182.18" rx="4.65" ry="4.72" transform="translate(-18.14 18.19) rotate(-6)"/>
        <ellipse class="cls-4" cx="155.28" cy="183.16" rx="4.65" ry="4.72" transform="translate(-18.29 17.23) rotate(-6)"/>
        <ellipse class="cls-4" cx="146.04" cy="184.13" rx="4.65" ry="4.72" transform="translate(-18.45 16.27) rotate(-6)"/>
        <ellipse class="cls-4" cx="136.79" cy="185.1" rx="4.65" ry="4.72" transform="translate(-18.6 15.31) rotate(-6)"/>
        <ellipse class="cls-4" cx="127.55" cy="186.07" rx="4.65" ry="4.72" transform="translate(-18.75 14.35) rotate(-6)"/>
        <ellipse class="cls-4" cx="257.96" cy="181.85" rx="4.65" ry="4.72" transform="translate(-17.6 27.96) rotate(-6)"/>
        <ellipse class="cls-4" cx="248.72" cy="182.83" rx="4.65" ry="4.72" transform="translate(-17.75 27) rotate(-6)"/>
        <ellipse class="cls-4" cx="239.47" cy="183.8" rx="4.65" ry="4.72" transform="translate(-17.9 26.04) rotate(-6)"/>
        <ellipse class="cls-4" cx="230.23" cy="184.77" rx="4.65" ry="4.72" transform="translate(-18.05 25.08) rotate(-6)"/>
        <ellipse class="cls-4" cx="220.98" cy="185.74" rx="4.65" ry="4.72" transform="translate(-18.2 24.12) rotate(-6)"/>
        <ellipse class="cls-4" cx="211.74" cy="186.71" rx="4.65" ry="4.72" transform="translate(-18.36 23.15) rotate(-6)"/>
        <ellipse class="cls-4" cx="202.49" cy="187.68" rx="4.65" ry="4.72" transform="translate(-18.51 22.19) rotate(-6)"/>
        <ellipse class="cls-4" cx="193.25" cy="188.66" rx="4.65" ry="4.72" transform="translate(-18.66 21.23) rotate(-6)"/>
        <ellipse class="cls-4" cx="184" cy="189.63" rx="4.65" ry="4.72" transform="translate(-18.81 20.27) rotate(-6)"/>
        <ellipse class="cls-4" cx="174.76" cy="190.6" rx="4.65" ry="4.72" transform="translate(-18.96 19.31) rotate(-6)"/>
        <ellipse class="cls-4" cx="165.51" cy="191.57" rx="4.65" ry="4.72" transform="translate(-19.12 18.35) rotate(-6)"/>
        <ellipse class="cls-4" cx="156.27" cy="192.54" rx="4.65" ry="4.72" transform="translate(-19.27 17.39) rotate(-6)"/>
        <ellipse class="cls-4" cx="147.02" cy="193.51" rx="4.65" ry="4.72" transform="translate(-19.42 16.43) rotate(-6)"/>
        <ellipse class="cls-4" cx="137.78" cy="194.49" rx="4.65" ry="4.72" transform="translate(-19.57 15.47) rotate(-6)"/>
        <ellipse class="cls-4" cx="128.53" cy="195.46" rx="4.65" ry="4.72" transform="translate(-19.73 14.51) rotate(-6)"/>
      </g>
      <ellipse class="cls-4" cx="106.21" cy="74.43" rx="4.65" ry="4.72" transform="translate(-7.2 11.51) rotate(-6)"/>
      <ellipse class="cls-4" cx="96.97" cy="75.4" rx="4.65" ry="4.72" transform="translate(-7.35 10.55) rotate(-6)"/>
      <ellipse class="cls-4" cx="87.72" cy="76.37" rx="4.65" ry="4.72" transform="translate(-7.5 9.59) rotate(-6)"/>
      <ellipse class="cls-4" cx="78.48" cy="77.34" rx="4.65" ry="4.72" transform="translate(-7.65 8.63) rotate(-6)"/>
      <ellipse class="cls-4" cx="69.23" cy="78.32" rx="4.65" ry="4.72" transform="translate(-7.81 7.67) rotate(-6)"/>
      <ellipse class="cls-4" cx="59.99" cy="79.29" rx="4.65" ry="4.72" transform="translate(-7.96 6.7) rotate(-6)"/>
      <ellipse class="cls-4" cx="107.2" cy="83.82" rx="4.65" ry="4.72" transform="translate(-8.17 11.66) rotate(-6)"/>
      <ellipse class="cls-4" cx="97.95" cy="84.79" rx="4.65" ry="4.72" transform="translate(-8.33 10.7) rotate(-6)"/>
      <ellipse class="cls-4" cx="88.71" cy="85.76" rx="4.65" ry="4.72" transform="translate(-8.48 9.74) rotate(-6)"/>
      <ellipse class="cls-4" cx="79.46" cy="86.73" rx="4.65" ry="4.72" transform="translate(-8.63 8.78) rotate(-6)"/>
      <ellipse class="cls-4" cx="70.22" cy="87.7" rx="4.65" ry="4.72" transform="translate(-8.78 7.82) rotate(-6)"/>
      <ellipse class="cls-4" cx="60.97" cy="88.67" rx="4.65" ry="4.72" transform="translate(-8.93 6.86) rotate(-6)"/>
      <ellipse class="cls-4" cx="108.18" cy="93.2" rx="4.65" ry="4.72" transform="translate(-9.15 11.82) rotate(-6)"/>
      <ellipse class="cls-4" cx="98.94" cy="94.17" rx="4.65" ry="4.72" transform="translate(-9.3 10.86) rotate(-6)"/>
      <ellipse class="cls-4" cx="89.69" cy="95.15" rx="4.65" ry="4.72" transform="translate(-9.45 9.9) rotate(-6)"/>
      <ellipse class="cls-4" cx="80.45" cy="96.12" rx="4.65" ry="4.72" transform="translate(-9.61 8.94) rotate(-6)"/>
      <ellipse class="cls-4" cx="71.2" cy="97.09" rx="4.65" ry="4.72" transform="translate(-9.76 7.97) rotate(-6)"/>
      <ellipse class="cls-4" cx="61.96" cy="98.06" rx="4.65" ry="4.72" transform="translate(-9.91 7.01) rotate(-6)"/>
      <ellipse class="cls-4" cx="109.17" cy="102.59" rx="4.65" ry="4.72" transform="translate(-10.13 11.97) rotate(-6)"/>
      <ellipse class="cls-4" cx="99.92" cy="103.56" rx="4.65" ry="4.72" transform="translate(-10.28 11.01) rotate(-6)"/>
      <ellipse class="cls-4" cx="90.68" cy="104.53" rx="4.65" ry="4.72" transform="translate(-10.43 10.05) rotate(-6)"/>
      <ellipse class="cls-4" cx="81.43" cy="105.5" rx="4.65" ry="4.72" transform="translate(-10.58 9.09) rotate(-6)"/>
      <ellipse class="cls-4" cx="72.19" cy="106.48" rx="4.65" ry="4.72" transform="translate(-10.73 8.13) rotate(-6)"/>
      <ellipse class="cls-4" cx="62.94" cy="107.45" rx="4.65" ry="4.72" transform="translate(-10.89 7.17) rotate(-6)"/>
      <ellipse class="cls-4" cx="110.16" cy="111.98" rx="4.65" ry="4.72" transform="translate(-11.1 12.13) rotate(-6)"/>
      <ellipse class="cls-4" cx="100.91" cy="112.95" rx="4.65" ry="4.72" transform="translate(-11.25 11.17) rotate(-6)"/>
      <ellipse class="cls-4" cx="91.67" cy="113.92" rx="4.65" ry="4.72" transform="translate(-11.41 10.21) rotate(-6)"/>
      <ellipse class="cls-4" cx="82.42" cy="114.89" rx="4.65" ry="4.72" transform="translate(-11.56 9.24) rotate(-6)"/>
      <ellipse class="cls-4" cx="73.18" cy="115.86" rx="4.65" ry="4.72" transform="translate(-11.71 8.28) rotate(-6)"/>
      <ellipse class="cls-4" cx="63.93" cy="116.83" rx="4.65" ry="4.72" transform="translate(-11.86 7.32) rotate(-6)"/>
      <ellipse class="cls-4" cx="111.14" cy="121.36" rx="4.65" ry="4.72" transform="translate(-12.08 12.28) rotate(-6)"/>
      <ellipse class="cls-4" cx="101.9" cy="122.33" rx="4.65" ry="4.72" transform="translate(-12.23 11.32) rotate(-6)"/>
      <ellipse class="cls-4" cx="92.65" cy="123.31" rx="4.65" ry="4.72" transform="translate(-12.38 10.36) rotate(-6)"/>
      <ellipse class="cls-4" cx="83.41" cy="124.28" rx="4.65" ry="4.72" transform="translate(-12.53 9.4) rotate(-6)"/>
      <ellipse class="cls-4" cx="74.16" cy="125.25" rx="4.65" ry="4.72" transform="translate(-12.69 8.44) rotate(-6)"/>
      <ellipse class="cls-4" cx="64.92" cy="126.22" rx="4.65" ry="4.72" transform="translate(-12.84 7.48) rotate(-6)"/>
      <ellipse class="cls-4" cx="112.13" cy="130.75" rx="4.65" ry="4.72" transform="translate(-13.05 12.44) rotate(-6)"/>
      <ellipse class="cls-4" cx="102.88" cy="131.72" rx="4.65" ry="4.72" transform="translate(-13.2 11.48) rotate(-6)"/>
      <ellipse class="cls-4" cx="93.64" cy="132.69" rx="4.65" ry="4.72" transform="translate(-13.36 10.51) rotate(-6)"/>
      <ellipse class="cls-4" cx="84.39" cy="133.66" rx="4.65" ry="4.72" transform="translate(-13.51 9.55) rotate(-6)"/>
      <ellipse class="cls-4" cx="75.15" cy="134.64" rx="4.65" ry="4.72" transform="translate(-13.66 8.59) rotate(-6)"/>
      <ellipse class="cls-4" cx="65.9" cy="135.61" rx="4.65" ry="4.72" transform="translate(-13.81 7.63) rotate(-6)"/>
      <ellipse class="cls-4" cx="113.12" cy="140.14" rx="4.65" ry="4.72" transform="translate(-14.03 12.59) rotate(-6)"/>
      <ellipse class="cls-4" cx="103.87" cy="141.11" rx="4.65" ry="4.72" transform="translate(-14.18 11.63) rotate(-6)"/>
      <ellipse class="cls-4" cx="94.63" cy="142.08" rx="4.65" ry="4.72" transform="translate(-14.33 10.67) rotate(-6)"/>
      <ellipse class="cls-4" cx="85.38" cy="143.05" rx="4.65" ry="4.72" transform="translate(-14.48 9.71) rotate(-6)"/>
      <ellipse class="cls-4" cx="76.14" cy="144.02" rx="4.65" ry="4.72" transform="translate(-14.64 8.75) rotate(-6)"/>
      <ellipse class="cls-4" cx="66.89" cy="144.99" rx="4.65" ry="4.72" transform="translate(-14.79 7.79) rotate(-6)"/>
      <ellipse class="cls-4" cx="114.1" cy="149.52" rx="4.65" ry="4.72" transform="translate(-15 12.75) rotate(-6)"/>
      <ellipse class="cls-4" cx="104.86" cy="150.49" rx="4.65" ry="4.72" transform="translate(-15.16 11.78) rotate(-6)"/>
      <ellipse class="cls-4" cx="95.61" cy="151.47" rx="4.65" ry="4.72" transform="translate(-15.31 10.82) rotate(-6)"/>
      <ellipse class="cls-4" cx="86.37" cy="152.44" rx="4.65" ry="4.72" transform="translate(-15.46 9.86) rotate(-6)"/>
      <ellipse class="cls-4" cx="77.12" cy="153.41" rx="4.65" ry="4.72" transform="translate(-15.61 8.9) rotate(-6)"/>
      <ellipse class="cls-4" cx="67.88" cy="154.38" rx="4.65" ry="4.72" transform="translate(-15.76 7.94) rotate(-6)"/>
      <ellipse class="cls-4" cx="115.09" cy="158.91" rx="4.65" ry="4.72" transform="translate(-15.98 12.9) rotate(-6)"/>
      <ellipse class="cls-4" cx="105.84" cy="159.88" rx="4.65" ry="4.72" transform="translate(-16.13 11.94) rotate(-6)"/>
      <ellipse class="cls-4" cx="96.6" cy="160.85" rx="4.65" ry="4.72" transform="translate(-16.28 10.98) rotate(-6)"/>
      <ellipse class="cls-4" cx="87.35" cy="161.82" rx="4.65" ry="4.72" transform="translate(-16.44 10.02) rotate(-6)"/>
      <ellipse class="cls-4" cx="78.11" cy="162.8" rx="4.65" ry="4.72" transform="translate(-16.59 9.06) rotate(-6)"/>
      <ellipse class="cls-4" cx="68.86" cy="163.77" rx="4.65" ry="4.72" transform="translate(-16.74 8.09) rotate(-6)"/>
      <ellipse class="cls-4" cx="116.08" cy="168.3" rx="4.65" ry="4.72" transform="translate(-16.96 13.05) rotate(-6)"/>
      <ellipse class="cls-4" cx="106.83" cy="169.27" rx="4.65" ry="4.72" transform="translate(-17.11 12.09) rotate(-6)"/>
      <ellipse class="cls-4" cx="97.59" cy="170.24" rx="4.65" ry="4.72" transform="translate(-17.26 11.13) rotate(-6)"/>
      <ellipse class="cls-4" cx="88.34" cy="171.21" rx="4.65" ry="4.72" transform="translate(-17.41 10.17) rotate(-6)"/>
      <ellipse class="cls-4" cx="79.1" cy="172.18" rx="4.65" ry="4.72" transform="translate(-17.56 9.21) rotate(-6)"/>
      <ellipse class="cls-4" cx="69.85" cy="173.15" rx="4.65" ry="4.72" transform="translate(-17.72 8.25) rotate(-6)"/>
      <ellipse class="cls-4" cx="117.06" cy="177.68" rx="4.65" ry="4.72" transform="translate(-17.93 13.21) rotate(-6)"/>
      <ellipse class="cls-4" cx="107.82" cy="178.65" rx="4.65" ry="4.72" transform="translate(-18.08 12.25) rotate(-6)"/>
      <ellipse class="cls-4" cx="98.57" cy="179.63" rx="4.65" ry="4.72" transform="translate(-18.24 11.29) rotate(-6)"/>
      <ellipse class="cls-4" cx="89.33" cy="180.6" rx="4.65" ry="4.72" transform="translate(-18.39 10.33) rotate(-6)"/>
      <ellipse class="cls-4" cx="80.08" cy="181.57" rx="4.65" ry="4.72" transform="translate(-18.54 9.36) rotate(-6)"/>
      <ellipse class="cls-4" cx="70.84" cy="182.54" rx="4.65" ry="4.72" transform="translate(-18.69 8.4) rotate(-6)"/>
      <ellipse class="cls-4" cx="118.05" cy="187.07" rx="4.65" ry="4.72" transform="translate(-18.91 13.36) rotate(-6)"/>
      <ellipse class="cls-4" cx="108.8" cy="188.04" rx="4.65" ry="4.72" transform="translate(-19.06 12.4) rotate(-6)"/>
      <ellipse class="cls-4" cx="99.56" cy="189.01" rx="4.65" ry="4.72" transform="translate(-19.21 11.44) rotate(-6)"/>
      <ellipse class="cls-4" cx="90.31" cy="189.98" rx="4.65" ry="4.72" transform="translate(-19.36 10.48) rotate(-6)"/>
      <ellipse class="cls-4" cx="81.07" cy="190.96" rx="4.65" ry="4.72" transform="translate(-19.52 9.52) rotate(-6)"/>
      <ellipse class="cls-4" cx="71.82" cy="191.93" rx="4.65" ry="4.72" transform="translate(-19.67 8.56) rotate(-6)"/>
      <ellipse class="cls-4" cx="119.04" cy="196.46" rx="4.65" ry="4.72" transform="translate(-19.88 13.52) rotate(-6)"/>
      <ellipse class="cls-4" cx="109.79" cy="197.43" rx="4.65" ry="4.72" transform="translate(-20.03 12.56) rotate(-6)"/>
      <ellipse class="cls-4" cx="100.55" cy="198.4" rx="4.65" ry="4.72" transform="translate(-20.19 11.6) rotate(-6)"/>
      <ellipse class="cls-4" cx="91.3" cy="199.37" rx="4.65" ry="4.72" transform="translate(-20.34 10.64) rotate(-6)"/>
      <ellipse class="cls-4" cx="82.06" cy="200.34" rx="4.65" ry="4.72" transform="translate(-20.49 9.67) rotate(-6)"/>
      <ellipse class="cls-4" cx="72.81" cy="201.31" rx="4.65" ry="4.72" transform="translate(-20.64 8.71) rotate(-6)"/>
      <g>
        <g>
          <ellipse class="cls-4" cx="258.93" cy="191.07" rx="4.65" ry="4.72" transform="translate(-18.55 28.11) rotate(-6)"/>
          <ellipse class="cls-4" cx="249.69" cy="192.04" rx="4.65" ry="4.72" transform="translate(-18.7 27.15) rotate(-6)"/>
          <ellipse class="cls-4" cx="240.44" cy="193.01" rx="4.65" ry="4.72" transform="translate(-18.86 26.19) rotate(-6)"/>
          <ellipse class="cls-4" cx="231.2" cy="193.98" rx="4.65" ry="4.72" transform="translate(-19.01 25.23) rotate(-6)"/>
          <ellipse class="cls-4" cx="221.95" cy="194.96" rx="4.65" ry="4.72" transform="translate(-19.16 24.27) rotate(-6)"/>
          <ellipse class="cls-4" cx="212.71" cy="195.93" rx="4.65" ry="4.72" transform="translate(-19.31 23.31) rotate(-6)"/>
          <ellipse class="cls-4" cx="259.92" cy="200.46" rx="4.65" ry="4.72" transform="translate(-19.53 28.27) rotate(-6)"/>
          <ellipse class="cls-4" cx="250.67" cy="201.43" rx="4.65" ry="4.72" transform="translate(-19.68 27.3) rotate(-6)"/>
          <ellipse class="cls-4" cx="241.43" cy="202.4" rx="4.65" ry="4.72" transform="translate(-19.83 26.34) rotate(-6)"/>
          <ellipse class="cls-4" cx="232.18" cy="203.37" rx="4.65" ry="4.72" transform="translate(-19.99 25.38) rotate(-6)"/>
          <ellipse class="cls-4" cx="222.94" cy="204.34" rx="4.65" ry="4.72" transform="translate(-20.14 24.42) rotate(-6)"/>
          <ellipse class="cls-4" cx="213.69" cy="205.31" rx="4.65" ry="4.72" transform="translate(-20.29 23.46) rotate(-6)"/>
        </g>
        <g>
          <ellipse class="cls-4" cx="203.46" cy="196.9" rx="4.65" ry="4.72" transform="translate(-19.47 22.35) rotate(-6)"/>
          <ellipse class="cls-4" cx="194.22" cy="197.87" rx="4.65" ry="4.72" transform="translate(-19.62 21.38) rotate(-6)"/>
          <ellipse class="cls-4" cx="184.97" cy="198.84" rx="4.65" ry="4.72" transform="translate(-19.77 20.42) rotate(-6)"/>
          <ellipse class="cls-4" cx="175.73" cy="199.81" rx="4.65" ry="4.72" transform="translate(-19.92 19.46) rotate(-6)"/>
          <ellipse class="cls-4" cx="166.48" cy="200.78" rx="4.65" ry="4.72" transform="translate(-20.07 18.5) rotate(-6)"/>
          <ellipse class="cls-4" cx="157.24" cy="201.76" rx="4.65" ry="4.72" transform="translate(-20.23 17.54) rotate(-6)"/>
          <ellipse class="cls-4" cx="204.45" cy="206.29" rx="4.65" ry="4.72" transform="translate(-20.44 22.5) rotate(-6)"/>
          <ellipse class="cls-4" cx="195.2" cy="207.26" rx="4.65" ry="4.72" transform="translate(-20.59 21.54) rotate(-6)"/>
          <ellipse class="cls-4" cx="185.96" cy="208.23" rx="4.65" ry="4.72" transform="translate(-20.75 20.58) rotate(-6)"/>
          <ellipse class="cls-4" cx="176.71" cy="209.2" rx="4.65" ry="4.72" transform="translate(-20.9 19.62) rotate(-6)"/>
          <ellipse class="cls-4" cx="167.47" cy="210.17" rx="4.65" ry="4.72" transform="translate(-21.05 18.66) rotate(-6)"/>
          <ellipse class="cls-4" cx="158.22" cy="211.14" rx="4.65" ry="4.72" transform="translate(-21.2 17.69) rotate(-6)"/>
        </g>
      </g>
      <g>
        <ellipse class="cls-4" cx="148.01" cy="202.9" rx="4.65" ry="4.72" transform="translate(-20.4 16.58) rotate(-6)"/>
        <ellipse class="cls-4" cx="138.77" cy="203.87" rx="4.65" ry="4.72" transform="translate(-20.55 15.62) rotate(-6)"/>
        <ellipse class="cls-4" cx="129.52" cy="204.84" rx="4.65" ry="4.72" transform="translate(-20.7 14.66) rotate(-6)"/>
        <ellipse class="cls-4" cx="120.28" cy="205.82" rx="4.65" ry="4.72" transform="translate(-20.85 13.7) rotate(-6)"/>
        <ellipse class="cls-4" cx="111.03" cy="206.79" rx="4.65" ry="4.72" transform="translate(-21.01 12.74) rotate(-6)"/>
        <ellipse class="cls-4" cx="101.79" cy="207.76" rx="4.65" ry="4.72" transform="translate(-21.16 11.78) rotate(-6)"/>
        <ellipse class="cls-4" cx="149" cy="212.29" rx="4.65" ry="4.72" transform="translate(-21.37 16.74) rotate(-6)"/>
        <ellipse class="cls-4" cx="139.75" cy="213.26" rx="4.65" ry="4.72" transform="translate(-21.53 15.78) rotate(-6)"/>
        <ellipse class="cls-4" cx="130.51" cy="214.23" rx="4.65" ry="4.72" transform="translate(-21.68 14.81) rotate(-6)"/>
        <ellipse class="cls-4" cx="121.26" cy="215.2" rx="4.65" ry="4.72" transform="translate(-21.83 13.85) rotate(-6)"/>
        <ellipse class="cls-4" cx="112.02" cy="216.17" rx="4.65" ry="4.72" transform="translate(-21.98 12.89) rotate(-6)"/>
        <ellipse class="cls-4" cx="102.77" cy="217.15" rx="4.65" ry="4.72" transform="translate(-22.13 11.93) rotate(-6)"/>
      </g>
      <ellipse class="cls-4" cx="92.54" cy="208.73" rx="4.65" ry="4.72" transform="translate(-21.31 10.82) rotate(-6)"/>
      <ellipse class="cls-4" cx="83.3" cy="209.7" rx="4.65" ry="4.72" transform="translate(-21.46 9.86) rotate(-6)"/>
      <ellipse class="cls-4" cx="74.05" cy="210.67" rx="4.65" ry="4.72" transform="translate(-21.61 8.89) rotate(-6)"/>
      <ellipse class="cls-4" cx="93.53" cy="218.12" rx="4.65" ry="4.72" transform="translate(-22.29 10.97) rotate(-6)"/>
      <ellipse class="cls-4" cx="84.28" cy="219.09" rx="4.65" ry="4.72" transform="translate(-22.44 10.01) rotate(-6)"/>
      <ellipse class="cls-4" cx="75.04" cy="220.06" rx="4.65" ry="4.72" transform="translate(-22.59 9.05) rotate(-6)"/>
    </g>
  </g>
</svg>