<?xml version="1.0" encoding="UTF-8"?>
<svg xmlns="http://www.w3.org/2000/svg" version="1.1" viewBox="0 0 220.1 174.7">
  <defs>
    <style>
      .cls-1 {
        fill: #fff;
      }

      .cls-2 {
        stroke: #d372a3;
        stroke-miterlimit: 10;
        stroke-width: 3px;
      }

      .cls-2, .cls-3 {
        fill: none;
      }

      .cls-3 {
        stroke: #fff;
        stroke-linejoin: round;
        stroke-width: .8px;
      }
    </style>
  </defs>
  <!-- Generator: Adobe Illustrator 28.7.4, SVG Export Plug-In . SVG Version: 1.2.0 Build 166)  -->
  <g>
    <g id="Layer_2">
      <rect class="cls-1" width="220.1" height="174.7" rx="8.9" ry="8.9"/>
      <path class="cls-3" d="M213.5,168.2c-1.6,1.2-3.8-5.1-5.8-5.1s-2,5.7-4.1,5.7-2-5.7-4.1-5.7-2,5.7-4.1,5.7-2-5.7-4.1-5.7-2,5.7-4.1,5.7-2-5.7-4.1-5.7-2,5.7-4.1,5.7-2-5.7-4.1-5.7-2,5.7-4.1,5.7-2-5.7-4.1-5.7-2,5.7-4.1,5.7-2-5.7-4.1-5.7-2,5.7-4.1,5.7-2-5.7-4.1-5.7-2,5.7-4.1,5.7-2-5.7-4.1-5.7-2,5.7-4.1,5.7-2-5.7-4.1-5.7-2,5.7-4.1,5.7-2-5.7-4.1-5.7-2,5.7-4.1,5.7-2-5.7-4.1-5.7-2,5.7-4.1,5.7-2-5.7-4.1-5.7-2,5.7-4.1,5.7-2-5.7-4.1-5.7-2,5.7-4.1,5.7-2-5.7-4.1-5.7-2,5.7-4.1,5.7-2-5.7-4.1-5.7-2,5.7-4.1,5.7-2-5.7-4.1-5.7-2,5.7-4.1,5.7-2-5.7-4.1-5.7-2,5.7-4.1,5.7-2-5.7-4.1-5.7-2,5.7-4.1,5.7-2-5.7-4.1-5.7-2,5.7-4.1,5.7-2-5.7-4.1-5.7-2,5.7-4.1,5.7-2-5.7-4.1-5.7-2,5.7-4.1,5.7-2-5.7-4.1-5.7-2,5.7-4.1,5.7-2-5.7-4.1-5.7-2,5.7-4.1,5.7-2-5.7-4.1-5.7-4.2,6.3-5.8,5.1c-1.2-1,4.6-3.8,4.6-5.4s-5.7-1.6-5.7-3.1,5.7-1.6,5.7-3.1-5.7-1.6-5.7-3.1,5.7-1.6,5.7-3.1-5.7-1.6-5.7-3.1,5.7-1.6,5.7-3.1-5.7-1.6-5.7-3.1,5.7-1.6,5.7-3.1-5.7-1.6-5.7-3.1,5.7-1.6,5.7-3.1-5.7-1.6-5.7-3.1,5.7-1.6,5.7-3.1-5.7-1.6-5.7-3.1,5.7-1.6,5.7-3.1-5.7-1.6-5.7-3.1,5.7-1.6,5.7-3.1-5.7-1.6-5.7-3.1,5.7-1.6,5.7-3.1-5.7-1.6-5.7-3.1,5.7-1.6,5.7-3.1-5.7-1.6-5.7-3.1,5.7-1.6,5.7-3.1-5.7-1.6-5.7-3.1,5.7-1.6,5.7-3.1-5.7-1.6-5.7-3.1,5.7-1.6,5.7-3.1-5.7-1.6-5.7-3.1,5.7-1.6,5.7-3.1-5.7-1.6-5.7-3.1,5.7-1.6,5.7-3.1-5.7-1.6-5.7-3.1,5.7-1.6,5.7-3.1-5.7-1.6-5.7-3.1,5.7-1.6,5.7-3.1-5.7-1.6-5.7-3.1,5.7-1.6,5.7-3.1-5.7-1.6-5.7-3.1,5.7-1.6,5.7-3.1-5.7-1.6-5.7-3.1,5.7-1.6,5.7-3.1-5.7-1.6-5.7-3.1,5.7-1.6,5.7-3.2-5.7-1.6-5.7-3.2,5.7-1.6,5.7-3.1-5.7-1.6-5.7-3.2,5.7-1.6,5.7-3.2-5.7-1.6-5.7-3.2,5.7-1.6,5.7-3.2-5.8-4.4-4.6-5.4c1.6-1.2,3.8,5.1,5.8,5.1s2-5.7,4.1-5.7,2,5.7,4.1,5.7,2-5.7,4.1-5.7,2,5.7,4.1,5.7,2-5.7,4.1-5.7,2,5.7,4.1,5.7,2-5.7,4.1-5.7,2,5.7,4.1,5.7,2-5.7,4.1-5.7,2,5.7,4.1,5.7,2-5.7,4.1-5.7,2,5.7,4.1,5.7,2-5.7,4.1-5.7,2,5.7,4.1,5.7,2-5.7,4.1-5.7,2,5.7,4.1,5.7,2-5.7,4.1-5.7,2,5.7,4.1,5.7,2-5.7,4.1-5.7,2,5.7,4.1,5.7,2-5.7,4.1-5.7,2,5.7,4.1,5.7,2-5.7,4.1-5.7,2,5.7,4.1,5.7,2-5.7,4.1-5.7,2,5.7,4.1,5.7,2-5.7,4.1-5.7,2,5.7,4.1,5.7,2-5.7,4.1-5.7,2,5.7,4.1,5.7,2-5.7,4.1-5.7,2,5.7,4.1,5.7,2-5.7,4.1-5.7,2,5.7,4.1,5.7,2-5.7,4.1-5.7,2,5.7,4.1,5.7,2-5.7,4.1-5.7,2,5.7,4.1,5.7,2-5.7,4.1-5.7,2,5.7,4.1,5.7,2-5.7,4.1-5.7,2,5.7,4.1,5.7,2-5.7,4.1-5.7,2,5.7,4.1,5.7,2-5.7,4.1-5.7,2,5.7,4.1,5.7,2-5.7,4.1-5.7,2,5.7,4.1,5.7,4.2-6.3,5.8-5.1c1.2,1-4.6,3.8-4.6,5.4s5.7,1.6,5.7,3.1-5.7,1.6-5.7,3.1,5.7,1.6,5.7,3.1-5.7,1.6-5.7,3.1,5.7,1.6,5.7,3.1-5.7,1.6-5.7,3.1,5.7,1.6,5.7,3.1-5.7,1.6-5.7,3.1,5.7,1.6,5.7,3.1-5.7,1.6-5.7,3.1,5.7,1.6,5.7,3.1-5.7,1.6-5.7,3.1,5.7,1.6,5.7,3.1-5.7,1.6-5.7,3.1,5.7,1.6,5.7,3.1-5.7,1.6-5.7,3.1,5.7,1.6,5.7,3.1-5.7,1.6-5.7,3.1,5.7,1.6,5.7,3.1-5.7,1.6-5.7,3.1,5.7,1.6,5.7,3.1-5.7,1.6-5.7,3.1,5.7,1.6,5.7,3.1-5.7,1.6-5.7,3.1,5.7,1.6,5.7,3.1-5.7,1.6-5.7,3.1,5.7,1.6,5.7,3.1-5.7,1.6-5.7,3.1,5.7,1.6,5.7,3.1-5.7,1.6-5.7,3.1,5.7,1.6,5.7,3.1-5.7,1.6-5.7,3.1,5.7,1.6,5.7,3.1-5.7,1.6-5.7,3.1,5.7,1.6,5.7,3.1-5.7,1.6-5.7,3.1,5.7,1.6,5.7,3.1-5.7,1.6-5.7,3.1,5.7,1.6,5.7,3.1-5.7,1.6-5.7,3.1,5.7,1.6,5.7,3.1-5.7,1.6-5.7,3.1,5.7,1.6,5.7,3.1-5.7,1.6-5.7,3.1,5.7,1.6,5.7,3.1-5.7,1.6-5.7,3.1,5.7,1.6,5.7,3.1-6.1,2.7-5.5,4.2c1.1,2.8,5.6,3.4,4.4,4.4h0v.5h0Z"/>
      <rect id="board" class="cls-2" x="8.2" y="8.9" width="203.6" height="157.1" rx="6.6" ry="6.6"/>
    </g>
  </g>
</svg>