<?xml version="1.0" encoding="UTF-8"?>
<svg id="Lager_1" data-name="Lager 1" xmlns="http://www.w3.org/2000/svg" xmlns:xlink="http://www.w3.org/1999/xlink" viewBox="0 0 422 337.18">
  <defs>
    <style>
      .cls-1 {
        fill: url(#linear-gradient-2);
      }

      .cls-2 {
        fill: #fff;
      }

      .cls-3, .cls-4, .cls-5 {
        fill: none;
        stroke: #000;
        stroke-linecap: round;
      }

      .cls-4 {
        stroke-width: .5px;
      }

      .cls-5 {
        stroke-width: 2px;
      }

      .cls-6 {
        fill: url(#linear-gradient-3);
      }

      .cls-7 {
        fill: url(#linear-gradient);
      }

      .cls-8 {
        fill: url(#linear-gradient-4);
      }
    </style>
    <linearGradient id="linear-gradient" x1="139.9" y1="16.82" x2="148.03" y2="28.89" gradientTransform="translate(102.75 305.42) rotate(-10.61) scale(1 -1)" gradientUnits="userSpaceOnUse">
      <stop offset="0" stop-color="#fff"/>
      <stop offset="1" stop-color="#ededed"/>
    </linearGradient>
    <linearGradient id="linear-gradient-2" x1="18.33" y1="22.84" x2="25.51" y2="33.51" gradientTransform="translate(0 281.57) scale(1 -1)" gradientUnits="userSpaceOnUse">
      <stop offset="0" stop-color="#fff"/>
      <stop offset="1" stop-color="#ededed"/>
    </linearGradient>
    <linearGradient id="linear-gradient-3" x1="126.92" y1="1226.74" x2="136.75" y2="1203.02" gradientTransform="translate(0 -963.08)" gradientUnits="userSpaceOnUse">
      <stop offset="0" stop-color="#fff"/>
      <stop offset="1" stop-color="#ededed"/>
    </linearGradient>
    <linearGradient id="linear-gradient-4" x1="343.22" y1="1226.72" x2="353.05" y2="1203" gradientTransform="translate(0 -963.08)" gradientUnits="userSpaceOnUse">
      <stop offset="0" stop-color="#fff"/>
      <stop offset="1" stop-color="#ededed"/>
    </linearGradient>
  </defs>
  <g>
    <g id="Färg">
      <polygon class="cls-7" points="263.1 276.39 267.5 246.09 270.1 234.99 260 233.49 244.3 228.69 234.1 222.59 228.7 217.39 208.6 255.89 263.1 276.39"/>
    </g>
    <path d="m246,72.79s.1.4.1,1c.1.7.2,1.6.4,2.7.1.6.2,1.2.3,1.8.1.3.1.6.2.9.1.3.2.6.3.8h0l.1.1.1.1c.1.1.3.1.4.2.3.1.6.2.9.2.7.1,1.3.2,2,.3.7.1,1.4.1,2,0,.3,0,.7-.1.8-.2.2-.1.4-.3.5-.6.3-.5.6-1.1.7-1.7.2-.6.3-1.2.4-1.7.2-1.1.2-2,.2-2.7v-1s.1.4.2,1c.1.7.2,1.6.1,2.8-.1,1.2-.2,2.5-.9,3.9-.2.3-.4.7-.8.9-.4.2-.8.3-1.2.3-.7.1-1.5.1-2.2,0-.7,0-1.4-.2-2.2-.3-.4-.1-.7-.2-1.1-.3-.2-.1-.3-.1-.5-.2-.1-.1-.2-.1-.3-.2-.1,0-.1-.1-.1-.1l-.1-.1-.1-.1c-.3-.4-.3-.8-.4-1.1-.1-.4-.1-.7-.2-1-.1-.7-.1-1.3-.1-1.9.3-2.3.5-3.8.5-3.8Z"/>
    <path d="m272.4,70.29s-.2,1.5-.5,3.8c-.1.6-.1,1.2-.2,1.9-.1.6-.1,1.4-.1,2,0,.4.1.5.3.6.2.2.5.3.8.4.6.3,1.3.5,2,.6.7.2,1.4.3,2.1.4.3.1.7.1,1,.1h.4c.1,0,.2-.1.3-.2.5-.3.9-.9,1.2-1.4.3-.5.6-1.1.8-1.6.4-1,.7-2,.9-2.6.2-.7.3-1,.3-1,0,0,0,.4-.1,1.1s-.2,1.6-.6,2.8c-.2.6-.4,1.2-.7,1.8-.3.6-.7,1.3-1.3,1.8-.2.1-.3.2-.6.3-.3.1-.4.1-.6.1-.4,0-.7,0-1.1-.1-.7-.1-1.4-.2-2.2-.4-.7-.2-1.4-.4-2.1-.7-.3-.2-.7-.3-1-.6-.1-.1-.2-.1-.3-.3-.1-.2-.1-.1-.2-.4s-.1-.5-.1-.7c0-.8.1-1.5.2-2.2s.2-1.3.4-1.9c.2-1.1.5-2.1.7-2.7.2-.5.3-.9.3-.9Z"/>
    <path d="m300.4,87.29s-.5,1.4-1.1,3.4c-.3,1-.8,2.2-1,3.5v.6h0c.1.2.4.4.6.6.5.4,1.1.7,1.7,1s1.2.6,1.8.8c.3.1.6.2.9.3h.3c.1,0,.2-.1.3-.1.5-.3.9-.7,1.3-1.1.4-.4.7-.9,1-1.3.6-.9,1-1.7,1.3-2.2.3-.6.4-.9.4-.9,0,0-.1.3-.3.9-.2.6-.5,1.4-1,2.4-.3.5-.5,1-.9,1.5s-.8,1-1.4,1.4c-.2.1-.3.2-.5.2h-.6c-.4-.1-.7-.2-1-.3-.6-.2-1.3-.5-1.9-.8s-1.2-.7-1.8-1.1c-.3-.2-.6-.5-.8-.9,0-.1-.1-.1-.1-.2v-.5c0-.2,0-.4.1-.6.2-.7.4-1.3.6-1.9.2-.6.5-1.1.7-1.6.7-1.8,1.4-3.1,1.4-3.1Z"/>
    <path class="cls-4" d="m266,104.59s6.2-.8,10.1,2.8"/>
    <path class="cls-4" d="m265.6,107.19s4.4,2.1,10.3,1.9"/>
    <path class="cls-4" d="m285.4,118.59s6.1.8,9.1,5.4"/>
    <path class="cls-4" d="m284.4,120.99s3.7,3.2,9.5,4.6"/>
    <path class="cls-4" d="m243.1,103.59s5.8-2.3,10.4.3"/>
    <path class="cls-4" d="m243.3,106.29s4.7,1,10.4-.6"/>
    <path d="m273.2,69.49h.4c.2,0,.5-.1.9-.2.8-.2,1.8-.4,2.9-.3.5.1,1.1.1,1.6.3.5.1.9.3,1.3.5s.6.4.8.6c.2.1.3.2.3.2,0,0-.1,0-.4-.1-.2-.1-.5-.2-.9-.3s-.8-.2-1.3-.3c-.2-.1-.5-.1-.7-.1s-.5-.1-.7-.1c-1-.1-2,0-2.8-.1-.4,0-.7,0-1-.1-.3.1-.4,0-.4,0Z"/>
    <path d="m301.4,86.39s.1,0,.4.1c.2,0,.5.1.9.1.8.1,1.8.2,2.9.6.5.2,1,.5,1.4.8s.8.6,1.1.9c.3.3.5.6.6.8s.2.3.2.3c0,0-.1-.1-.3-.2-.2-.2-.5-.3-.8-.6-.3-.2-.7-.5-1.1-.7-.2-.1-.4-.2-.7-.3-.2-.1-.5-.2-.7-.3-.9-.4-1.9-.7-2.7-.9-.4-.1-.7-.3-.9-.4-.2-.1-.3-.2-.3-.2Z"/>
    <path d="m247.2,70.29h.4c.2,0,.5-.1.9-.2.8-.2,1.8-.4,2.9-.3.5.1,1.1.1,1.6.3.5.1.9.3,1.3.5.4.2.6.4.8.6.2.1.3.2.3.2,0,0-.1,0-.4-.1-.2-.1-.5-.2-.9-.3s-.8-.2-1.3-.3c-.2-.1-.5-.1-.7-.1s-.5-.1-.7-.1c-1-.1-2,0-2.8-.1-.4,0-.7,0-1-.1-.3,0-.4,0-.4,0Z"/>
    <path class="cls-5" d="m212.3,249.39s21.3-39.6,21.2-43.5c-.1-3.9,3.7-60.1,3.6-62.4-.3-9.9,3.3-35.8,3.4-38.1.1-2.2,3.1-29.6,4.2-32.1,1.8-4.4,6.1-6.4,9.8-4.6,3.7,1.8,3.6,9.8,3.2,13-.4,3.3-.9,11.6-4.6,49.3"/>
    <path class="cls-5" d="m254.6,133.29s7.4-25.3,8.5-30,4.4-19.4,5.8-25.7c1.4-6.3,1.7-11.3,8.6-10.8s6.5,8.4,4,19.1-6.6,45.4-8.8,53.1"/>
    <path class="cls-5" d="m273.8,141.49l10.6-26.3s11-25.1,15.5-28.5c4.8-3.6,11-.8,8.5,7.4s-15.8,40.5-19.1,49.1"/>
    <path class="cls-5" d="m286.4,150.89s5.3-11.6,8.4-12,8.9,2.1,7.4,9.2-6,22.9-6,22.9"/>
    <path class="cls-5" d="m296.1,164.99s-3.3,13.7-6.3,28.1c-3.1,14.4-12.1,25.8-17.7,30.8,0,0-6.7,35.5-7.9,43.1"/>
    <path class="cls-3" d="m231.3,219.19s3.3,10.2,34.3,14.9"/>
  </g>
  <g>
    <path d="m97.2,105.29c1.8,2.1,3.1,4.7,3.7,7.6.3,1.4.3,3,.1,4.5-.3,1.5-.8,2.9-1.7,4.2-1.6,2.5-4,4.3-6.4,5.6-1.2.7-2.5,1.2-3.7,1.7-1.3.5-2.6.9-3.9,1.2l.5-.3c-.4.4-.7.7-1.1,1l-1.1,1c-.8.6-1.5,1.2-2.3,1.8-1.6,1.2-3.2,2.3-4.8,3.3-1.7,1-3.3,2-5.1,2.8-.9.4-1.8.8-2.6,1.2-.9.4-1.8.7-2.7,1.1l.5-.4c-.6.8-1.2,1.6-1.8,2.3-.6.7-1.3,1.5-1.9,2.2-1.3,1.4-2.7,2.8-4.1,4.1-1.4,1.3-3,2.4-4.6,3.5-.8.5-1.6,1-2.5,1.4-.8.4-1.7.8-2.6,1.1,1.7-.9,3.2-1.9,4.7-3.1s2.8-2.5,4.1-3.8c1.3-1.4,2.5-2.8,3.7-4.3.6-.7,1.2-1.5,1.7-2.2.6-.8,1.1-1.5,1.6-2.3l.2-.2.3-.1c.9-.4,1.7-.7,2.6-1.1.8-.4,1.7-.8,2.5-1.2.8-.4,1.6-.9,2.5-1.3.8-.5,1.6-.9,2.4-1.5,1.6-1,3.1-2.1,4.7-3.2.8-.6,1.5-1.2,2.2-1.8l1.1-.9c.4-.3.7-.6,1-.9l.2-.2.3-.1c2.5-.7,4.9-1.5,7.2-2.6,1.1-.6,2.2-1.2,3.3-2,1-.8,1.9-1.6,2.7-2.7.7-1,1.3-2.2,1.7-3.4.3-1.3.4-2.6.3-3.9-.1-1.3-.5-2.7-.9-4-.7-1.7-1.3-2.9-2-4.1Z"/>
    <g id="Färg-2" data-name="Färg">
      <polygon class="cls-1" points="35.1 274.99 44.6 255.09 51.9 239.99 48.2 239.29 34.7 236.19 24.9 229.79 18.8 221.89 0 244.79 35.1 274.99"/>
    </g>
    <path class="cls-3" d="m19.8,224.19s9.7,15.5,30.8,15.1"/>
    <path d="m36.4,76.59c1.4-.3,2.8-.4,4.1-.3,1.4.1,2.8.4,4.2.9s2.6,1.3,3.7,2.4c1.1,1.1,1.9,2.5,2.5,3.9,1.1,3,1.2,6.2.9,9.2-.2,1.5-.4,3-.7,4.5s-.7,2.9-1.1,4.3v-.9c.2.5.3.8.5,1.3.1.4.3.8.4,1.2.2.8.5,1.7.6,2.5.2.9.3,1.7.4,2.6.1.9.2,1.7.2,2.6v2.6c0,.4-.1.9-.1,1.3s-.1.9-.2,1.3c-.3,1.7-.7,3.4-1.2,5.1v-.6c.2,1,.4,1.9.5,2.9.2,1,.3,1.9.4,2.9.2,1.9.4,3.9.4,5.8v3c0,1-.1,2-.2,2.9-.1,1-.2,1.9-.4,2.9-.1,1-.4,1.9-.6,2.8l.1-1.4c.1-.5.1-1,.1-1.4.1-1,0-1.9,0-2.9s-.1-1.9-.1-2.9c-.1-1-.2-1.9-.3-2.9-.1-.9-.2-1.9-.4-2.8-.1-.9-.3-1.9-.5-2.8s-.3-1.9-.6-2.8c-.2-.9-.4-1.9-.6-2.7l-.1-.3.1-.3c.4-1.6.8-3.1,1-4.7,0-.4.1-.8.1-1.2s.1-.8.1-1.2v-2.4c0-.8-.1-1.6-.2-2.4-.1-.8-.2-1.6-.4-2.4-.2-.8-.4-1.6-.6-2.3-.1-.4-.2-.8-.4-1.1-.1-.4-.3-.8-.4-1.1v-.5s.1-.5.1-.5c.4-1.4.8-2.7,1.1-4.1.3-1.4.6-2.8.8-4.2s.3-2.8.2-4.2c0-1.4-.2-2.8-.6-4.1-.4-1.3-1-2.5-1.9-3.5-.8-1-1.9-1.8-3.1-2.5-1.2-.6-2.5-1-3.8-1.3-1.2-.2-2.6-.3-4-.2Z"/>
    <path d="m97.7,107.49s-.3.1-.8.4c-.5.2-1.3.6-2.2,1.1-.5.2-.9.5-1.4.7-.5.3-1,.6-1.5.9-.1.1-.2.2-.3.3v.3c0,.3,0,.6.1.9.1.7.3,1.3.5,2s.4,1.3.7,2c.1.3.3.6.4.9,0,.1.1.1.1.2,0,0,.1.1,0,0l.1.1.1.1s.1,0,.1.1c.5.2,1.1.2,1.6.1.5-.1,1.1-.2,1.5-.3.9-.3,1.7-.6,2.2-.9.5-.3.8-.4.8-.4,0,0-.1.1-.2.2-.1.1-.3.3-.6.4-.5.3-1.2.8-2.2,1.2-.5.2-1,.4-1.6.5s-1.2.2-2,0c-.1,0-.4-.2-.5-.3l-.1-.1q-.1-.1-.1-.2c-.1-.1-.1-.2-.2-.2-.2-.3-.4-.6-.5-1-.3-.7-.5-1.4-.7-2.1-.2-.7-.4-1.4-.4-2.2,0-.4-.1-.7,0-1.2,0-.1,0-.3.1-.3.1-.2.1-.3.2-.4.1-.2.3-.3.4-.4.6-.4,1.1-.7,1.7-.9.5-.2,1.1-.4,1.5-.6,1-.3,1.8-.6,2.3-.7.6-.1.9-.2.9-.2Z"/>
    <path class="cls-5" d="m32.6,135.39s2.1-23.2,3.3-26.5c1.3-3.3,2.1-21.8,2.1-21.8"/>
    <line class="cls-5" x1="38.7" y1="86.79" x2="38.6" y2="76.19"/>
    <line class="cls-5" x1="91" y1="110.79" x2="98.4" y2="108.19"/>
    <path class="cls-5" d="m39.9,165.89s22-1.9,23.9-1.3,9.7,10.2,11,14.8c1.3,4.5-2.6,10.8-2.6,10.8"/>
    <path class="cls-5" d="m54.3,121.19s1.4-7.9,5.5-8.8c4.7-1,8.5-1.1,9.9,3.5"/>
    <path class="cls-5" d="m73.4,141.49s-.4,9.2.1,13.5"/>
    <line class="cls-5" x1="72.5" y1="187.69" x2="71.5" y2="198.79"/>
    <path d="m56.7,178.09c-.1,1.1-.1,2.1.2,3.1s.8,1.7,1.5,2.3,1.5.8,2.4,1.1c.4.1.9.2,1.4.2s.9.1,1.4.1h1.2l-.4,1.3c-.1.3-.2.7-.3,1-.1.4-.1.7-.2,1.1-.1.7-.2,1.5-.2,2.2v1.1c0,.4.1.7.1,1.1.1.7.3,1.4.6,2,.1.3.3.6.5.9.2.3.4.6.6.9.2.3.5.5.7.8.3.2.5.5.8.7.6.4,1.2.7,1.9,1,.7.3,1.4.5,2.1.7h-1.1c-.4,0-.8-.1-1.1-.1-.7-.1-1.5-.3-2.2-.7-.4-.2-.7-.4-1.1-.6l-.5-.4-.5-.4c-.3-.3-.6-.6-.8-1-.3-.3-.5-.7-.7-1.1-.4-.8-.7-1.6-.9-2.5-.1-.4-.2-.9-.2-1.3s-.1-.9,0-1.3c0-.9.1-1.7.2-2.5l.3-1.2c.1-.4.2-.8.4-1.2l.8,1.3c-.5,0-1,0-1.6-.1-.5-.1-1-.2-1.6-.4-1-.3-2.1-.9-2.9-1.7-.8-.9-1.3-2-1.4-3.2-.1-1.1.2-2.2.6-3.2Z"/>
    <path d="m50.1,183.39s.5-.2,1.3-.4c.8-.2,1.7-.5,2.5-.9.2-.1.4-.2.6-.3.2-.1.4-.2.6-.3.2-.1.4-.2.6-.3.2-.1.3-.2.5-.3.2-.1.3-.2.5-.3.1-.1.3-.2.4-.3l.4-.2v.4c0,.3-.1.7-.3,1.1-.1.2-.2.5-.4.7s-.3.5-.5.7-.4.4-.7.6c-.3.2-.5.3-.8.5-1.1.5-2.4.5-3.2.2-1.1-.4-1.5-.9-1.5-.9Z"/>
    <path d="m51.6,181.99s1.9,2.2,4.1,6.1c1.1,1.9,2.2,4.3,3.2,7,.5,1.3,1,2.7,1.3,4.2.4,1.4.7,3,.9,4.5s.3,3.1.4,4.6v2.3c0,.4,0,.7-.1,1.1,0,.4-.1.7-.1,1.1-.2,1.4-.5,2.8-.9,4.1-.2.6-.4,1.2-.6,1.8-.2.6-.5,1.1-.7,1.6-.4,1.1-1,1.9-1.5,2.7-.5.7-1,1.4-1.4,1.9-.8,1-1.3,1.5-1.3,1.5,0,0,.4-.6,1-1.7.3-.6.6-1.3,1.1-2.1.3-.8.8-1.7,1.1-2.8.2-.5.4-1,.5-1.6s.3-1.1.4-1.8c.1-.6.3-1.2.3-1.9.1-.7.2-1.3.2-2,0-.3.1-.7.1-1v-3.1c0-1.4-.2-2.9-.4-4.3-.2-1.4-.5-2.9-.8-4.3-.3-1.4-.7-2.8-1.1-4.1-.4-1.3-.8-2.6-1.3-3.7-.5-1.2-.9-2.3-1.3-3.3-1.7-4.2-3.1-6.8-3.1-6.8Z"/>
    <line class="cls-5" x1="75.6" y1="190.79" x2="74.8" y2="202.99"/>
    <line class="cls-5" x1="35.3" y1="150.09" x2="43.4" y2="153.29"/>
    <line class="cls-5" x1="35.5" y1="163.59" x2="42.6" y2="165.69"/>
    <path class="cls-5" d="m73.2,204.59s-2.8,12.1-15.8,24.1l-21.7,44.5"/>
    <path d="m41.9,78.19s.3.6.4,1.7c.1.5.1,1.1.1,1.8s-.2,1.4-.3,2c-.2.7-.5,1.3-.8,1.9-.2.3-.3.5-.5.8-.2.2-.4.4-.6.6-.4.4-.7.6-1,.7-.2.1-.4.2-.4.2,0,0,.1-.1.3-.4.1-.1.2-.2.3-.4.1-.2.2-.4.4-.6.1-.2.3-.4.4-.7.1-.2.3-.5.4-.8.1-.3.2-.5.4-.8.1-.3.2-.6.3-.9s.2-.6.2-.9c.1-.3.1-.6.2-.9.1-.6.2-1.2.2-1.7,0-.9,0-1.6,0-1.6Z"/>
    <path d="m67.5,199.39s-.3-.6-.4-1.6c-.1-.5-.1-1.1-.1-1.8,0-.6.2-1.3.4-2,.1-.3.2-.7.4-1,.1-.3.3-.6.5-.9.1-.1.2-.3.3-.4.1-.1.2-.2.3-.3.2-.2.4-.4.6-.5.4-.3.8-.5,1-.5.3-.1.4-.1.4-.1,0,0-.1.1-.3.3-.1.1-.2.2-.4.3-.1.1-.3.3-.4.5-.2.2-.3.4-.5.6-.2.2-.3.4-.4.7-.2.2-.3.5-.4.8s-.2.6-.3.9c-.1.3-.2.6-.2.9s-.1.6-.2.9c-.1.6-.1,1.1-.2,1.6-.1.9-.1,1.6-.1,1.6Z"/>
    <polyline class="cls-2" points="53 151.19 61.8 151.19 53.6 159.59 44.7 159.29"/>
    <polyline class="cls-2" points="99.1 98.69 107.9 98.69 99.7 107.19 90.7 106.89"/>
    <polyline class="cls-2" points="31.9 73.29 38.3 66.79 37.7 78.99 31 85.29"/>
    <polyline class="cls-2" points="45.5 126.09 53.9 123.09 55.7 145.59 40 136.59"/>
    <path class="cls-5" d="m40,152.29s19.8-1.4,27.1.2c7.3,1.7,13.5,21.5,13.5,25.4s-4,13.5-4.8,15.9"/>
    <path class="cls-5" d="m3.5,240.69s16-18,19.6-25.5-5.3-55.2-3.6-63.6,26.7-21,31-24.9,37.6-14.9,40.5-16"/>
    <path d="m66.1,198.49s.4.6,1,1.4c.2.2.4.4.5.6.2.2.4.4.6.6.2.2.5.4.7.6.2.2.5.3.8.5.3.1.6.3.8.4.3.1.6.2.9.3s.6.2.8.3c.3.1.5.1.8.2.5.2.9.2,1.2.3.3.1.5.1.5.1,0,0-.2.1-.5.2-.3.1-.7.3-1.3.3-.3,0-.6.1-.9.1s-.6,0-1-.1c-.3,0-.7-.2-1-.3s-.7-.3-1-.4c-.3-.2-.6-.4-.9-.6-.3-.2-.6-.5-.8-.8-.2-.3-.4-.6-.6-.8-.2-.3-.3-.6-.4-.8-.3-1.3-.2-2.1-.2-2.1Z"/>
  </g>
  <g>
    <polygon class="cls-6" points="155.8 267.69 167.2 233.99 147.6 229.59 132.5 221.79 130.4 217.29 118.9 231.59 99.5 256.09 155.8 267.69"/>
    <path class="cls-3" d="m132.5,221.79s9.9,11.1,30,11.8"/>
    <path class="cls-5" d="m194.9,146.79s5,4.1,6.4,5.6c1.1,1.2-.2,11.5-1.9,14.7-1.8,3.2-6,11.8-6.9,23.5-1.3,15.9-19.8,30.1-23.7,35.4l-10.4,40.2"/>
    <path class="cls-5" d="m99.5,256.09s32.4-35.4,33.6-43.2c1.2-7.8-5.9-58.6-5.9-62s5.2-11.5,5.2-11.5"/>
    <path class="cls-5" d="m137.1,153.49s-5-24.9-5.2-28.3,1.2-25.7,1.2-25.7"/>
    <line class="cls-5" x1="134.8" y1="98.49" x2="134.5" y2="86.79"/>
    <line class="cls-5" x1="184.7" y1="173.19" x2="184.1" y2="160.69"/>
    <path d="m133.5,86.29c1.2-.2,2.4-.2,3.7-.1,1.2.1,2.5.4,3.7.8,1.2.5,2.3,1.2,3.3,2.2.5.5.9,1,1.2,1.6.4.6.6,1.2.9,1.9.2.7.4,1.4.5,2,.1.7.2,1.4.2,2.1v2c0,.7,0,1.3-.1,2-.1,1.3-.2,2.7-.4,4-.1.7-.2,1.3-.4,2-.1.3-.2.7-.3,1-.1.2-.2.4-.2.5l-.2.3c-.1.1-.1.2-.3.4l.2-1.4c.2.4.3.8.5,1.2s.3.8.4,1.2c.3.8.5,1.6.7,2.5.4,1.7.8,3.4,1,5.1.1.9.2,1.7.3,2.6s.1,1.7.2,2.6v2.6c0,.9-.1,1.7-.1,2.6l-.1-.5c.3.7.6,1.4.9,2.1.3.7.5,1.4.7,2.2.5,1.4.8,2.9,1.1,4.4.2,1.5.4,3,.3,4.6,0,1.5-.3,3-.8,4.4.3-1.5.3-3,.2-4.4-.1-1.5-.4-2.9-.7-4.3-.4-1.4-.8-2.8-1.4-4.1-.3-.7-.6-1.3-.9-2-.3-.6-.6-1.3-1-1.9l-.1-.2v-.3c0-.8,0-1.7-.1-2.5s-.1-1.7-.2-2.5c-.1-.8-.2-1.6-.3-2.5,0-.4-.1-.8-.2-1.2-.1-.4-.1-.8-.2-1.2-.3-1.6-.6-3.2-1-4.8-.2-.8-.4-1.6-.7-2.4-.1-.4-.2-.8-.4-1.2-.1-.4-.3-.8-.4-1.1l.2-1.4c-.1.1,0,0,0,0l.1-.1c.1-.1.1-.2.2-.3.1-.2.2-.5.3-.8.2-.6.3-1.2.4-1.8.2-1.2.4-2.5.5-3.7.1-.6.1-1.3.2-1.9,0-.6.1-1.3.1-1.9v-1.8c-.1-.6-.2-1.2-.3-1.8-.2-.6-.3-1.1-.6-1.7-.2-.5-.6-1-.9-1.5-.7-.9-1.7-1.6-2.7-2.2-1-.6-2.2-.9-3.4-1.2-1.1,0-2.3-.2-3.6-.2Z"/>
    <path class="cls-5" d="m151,130.99c6.4-3.2,11.7-7.1,17.1-7.4,7.5-.4,12.2,14.8,14.9,21.3,1.7,4.2,2.2,16,2.2,16"/>
    <path class="cls-5" d="m149.9,127.89s9-5.7,17.2-9.8,20,22.1,20,22.1"/>
    <path d="m156.3,144.59s.2.1.4.3c.3.2.6.5,1.1.7.2.1.5.2.7.3.3.1.5.2.8.2.3.1.5,0,.8,0,.3-.1.6-.1.8-.2l.4-.1c.1-.1.3-.1.4-.2.1-.1.3-.1.4-.2.1-.1.3-.2.4-.3.3-.2.5-.3.8-.5.2-.2.5-.3.7-.5s.4-.3.6-.4c.2-.1.4-.2.5-.3.3-.2.5-.3.5-.3,0,0-.1.2-.2.5-.1.2-.1.4-.3.6-.1.2-.2.5-.4.7-.2.3-.4.5-.6.8-.2.3-.5.6-.8.8-.3.3-.6.5-1,.7-.2.1-.4.2-.5.3-.2.1-.4.2-.6.2-.4.2-.9.2-1.3.2s-.9-.1-1.3-.3c-.4-.1-.7-.4-1.1-.6-.3-.3-.5-.5-.7-.8-.4-.5-.6-1-.7-1.4.2,0,.2-.2.2-.2Z"/>
    <path d="m165.1,143.89c-.1.7-.2,1.5-.2,2.2s0,1.5.1,2.2.2,1.4.4,2.1.4,1.3.7,1.9.6,1.2,1,1.7c.2.3.4.5.6.8.2.2.4.5.7.7.5.5,1,.9,1.5,1.3s1.1.8,1.7,1.1l.6.4v2.1c0,.5.1,1,.1,1.5.1,1,.3,1.9.5,2.9.1.5.2.9.4,1.4.1.5.3.9.5,1.3s.4.9.6,1.3c.2.4.5.8.7,1.2.3.4.6.7.9,1.1l.5.5.5.4c.4.3.7.5,1.2.7.4.2.8.4,1.3.5.4.1.9.3,1.3.4.5.1.9.2,1.4.2.5.1,1,.1,1.4.1h1.5c-.5.1-.9.3-1.4.4s-1,.2-1.5.2c-.5.1-1,.1-1.5.1s-1-.1-1.5-.1c-.5-.1-1-.2-1.5-.4-.5-.2-1-.4-1.4-.7-.5-.3-.9-.6-1.3-.9-.4-.4-.8-.7-1.2-1.2-.4-.4-.7-.8-1-1.3s-.6-.9-.8-1.4c-.5-1-.9-2-1.1-3.1-.3-1.1-.5-2.1-.6-3.2-.1-.5-.1-1.1-.1-1.6v-1.7l.6,1.1c-1.3-.8-2.5-1.7-3.6-2.9-.3-.3-.5-.6-.7-.9s-.5-.7-.7-1c-.4-.7-.7-1.4-1-2.2-.5-1.5-.7-3.2-.5-4.7-.2-1.6.2-3.1.9-4.5Z"/>
    <path d="m157.7,144.09c1.2,2.4,2,5,2.4,7.8.4,2.7.3,5.6-.5,8.2v-.3c1.4,2.9,2.8,5.8,4.2,8.7,1.4,2.9,2.8,5.8,4.1,8.7l4.1,8.8,4,8.8h0c.2.4.4.8.5,1.2s.2.8.3,1.3c.1.4.1.9.1,1.3v.6c0,.2,0,.4-.1.6-.1.4-.1.8-.2,1.3-.1.4-.2.8-.3,1.2s-.3.8-.5,1.2l-.6,1.1.5-1.2c.1-.4.3-.8.4-1.2.1-.4.2-.8.3-1.2s.1-.8.2-1.2v-1.2c0-.4-.1-.8-.2-1.2-.1-.4-.2-.8-.3-1.2s-.3-.8-.5-1.1h0l-4.3-8.7-4.2-8.7c-1.4-2.9-2.7-5.8-4.1-8.8-1.3-2.9-2.7-5.8-4.1-8.8l-.1-.2.1-.1c.9-2.5,1-5.2.7-7.9-.1-1.3-.4-2.7-.7-4-.3-1.2-.7-2.5-1.2-3.8Z"/>
    <line class="cls-5" x1="194.7" y1="147.29" x2="189.1" y2="142.59"/>
    <path d="m188.3,142.59s-.2.4-.4,1c-.1.3-.3.7-.5,1.1-.1.4-.3.9-.5,1.5-.1.3-.2.5-.3.8s-.1.6-.2.9c-.2.6-.2,1.3-.3,1.9,0,.7-.1,1.4-.1,2,0,.3,0,.7.1,1l.2,1c0,.3.1.7.2,1,.1.3.2.7.3,1,.3.6.5,1.3.8,1.9s.7,1.1,1,1.7c.4.5.7,1,1,1.5.2.2.3.5.5.7s.3.4.5.6c.3.3.5.7.7.9.4.5.6.9.6.9,0,0-.3-.2-.9-.5-.3-.2-.6-.4-1-.6-.2-.1-.4-.3-.6-.4-.2-.2-.4-.4-.6-.5-.4-.4-.9-.8-1.4-1.3-.4-.5-.9-1.1-1.3-1.7-.4-.7-.8-1.4-1.1-2.1-.1-.4-.3-.8-.4-1.2-.1-.4-.3-.8-.3-1.2l-.2-1.3c-.1-.4,0-.8,0-1.3,0-.8.2-1.6.3-2.4.1-.4.2-.7.3-1.1s.2-.7.4-1c.1-.3.3-.6.4-.9.2-.3.3-.6.5-.8.3-.5.6-.9.9-1.3.3-.4.6-.7.8-.9.2-.7.6-.9.6-.9Z"/>
    <path d="m189.7,142.29s.1.1.2.2c.1.1.2.4.3.7.3.6.6,1.5.7,2.6.1.6.1,1.2.1,1.9,0,.6-.2,1.4-.3,2s0,1.3.2,1.9.5,1.2,1,1.7c.4.5.9,1.1,1.4,1.5s1.1.8,1.2.5c.3-.3.4-1.1.5-1.7s.1-1.2.1-1.8v-3.7s.2,1.5.5,3.7c0,.6.1,1.2.1,1.8,0,.3,0,.7-.1,1-.1.4-.1.7-.4,1.1-.2.2-.4.3-.7.4-.2,0-.5,0-.7-.1-.4-.2-.7-.4-1-.6-.5-.5-1.1-1-1.5-1.6-.5-.6-.9-1.3-1.2-2-.3-.8-.3-1.6-.2-2.4.2-.7.3-1.3.4-1.9.1-.6.1-1.2.1-1.7,0-1.1-.1-2-.3-2.6-.3-.5-.4-.9-.4-.9Z"/>
    <path d="m182.4,161.39s.1-.1,0,0c-.1,0-.2.1-.3.2-.2.2-.5.6-.8,1-.6.9-1,2.4-1.4,3.8-.4,1.5-.7,3-1,4.2-.1.6-.3,1.1-.4,1.4-.1.3-.2.5-.2.5,0,0-.2-.8-.3-2s0-2.9.4-4.5,1.2-3.2,2.2-4c.5-.4.9-.7,1.3-.7.3,0,.4,0,.5.1,0-.1.1-.1,0,0q.1,0,0,0h0Z"/>
    <path d="m152.7,218.99s.2.1.5.2c.3.1.8.1,1.3.2,1.1,0,2.5-.2,3.9-.5s2.8-.8,3.9-1.1c1.1-.3,1.8-.5,1.8-.5,0,0-.6.5-1.6,1-.5.3-1.1.6-1.8.8-.3.1-.7.3-1,.4-.4.1-.7.2-1.1.3-.7.2-1.5.3-2.2.3h-1c-.3,0-.6-.1-.9-.1-.6-.1-1-.3-1.3-.5-.4-.4-.5-.5-.5-.5Z"/>
    <path d="m171.5,188.99s.2.2.4.7c.2.4.6,1.1.9,1.9.1.4.3.8.4,1.3.1.5.3,1,.4,1.5.1.5.2,1.1.3,1.6.1.6.1,1.1.1,1.7,0,1.2,0,2.3-.1,3.4-.1,1.1-.3,2.1-.4,2.9-.1.8-.4,1.5-.5,2s-.2.7-.2.7c0,0,0-.3.1-.8s.1-1.2.2-2c0-.4.1-.9.1-1.4s0-1,.1-1.5v-3.3c0-.6-.1-1.1-.1-1.7-.1-.5-.1-1.1-.2-1.6-.1-.5-.1-1-.2-1.5-.1-.5-.2-.9-.3-1.3-.2-.8-.4-1.5-.5-2-.4-.3-.5-.6-.5-.6Z"/>
  </g>
  <g>
    <polygon class="cls-8" points="372.1 267.69 383.6 233.99 364 229.59 348.8 221.79 346.7 217.29 335.3 231.59 315.8 256.09 372.1 267.69"/>
    <path class="cls-3" d="m348.8,221.79s9.9,11.1,30,11.8"/>
    <path class="cls-5" d="m411.3,146.79s5,4.1,6.4,5.6c1.1,1.2-.2,11.5-1.9,14.7-1.8,3.2-6,11.8-6.9,23.5-1.3,15.9-19.8,30.1-23.7,35.4l-10.5,40.2"/>
    <path class="cls-5" d="m315.8,256.09s32.4-35.4,33.6-43.2-5.9-58.6-5.9-62,5.2-11.5,5.2-11.5"/>
    <path class="cls-5" d="m353.5,153.49s-5-24.9-5.2-28.3,1.2-25.7,1.2-25.7"/>
    <line class="cls-5" x1="351.2" y1="98.49" x2="350.9" y2="86.79"/>
    <line class="cls-5" x1="401" y1="173.19" x2="400.4" y2="160.69"/>
    <path d="m349.9,86.29c1.2-.2,2.4-.2,3.7-.1,1.2.1,2.5.4,3.7.8,1.2.5,2.3,1.2,3.3,2.2.5.5.9,1,1.2,1.6.4.6.6,1.2.9,1.9.2.7.4,1.4.5,2,.1.7.2,1.4.2,2.1v2c0,.7,0,1.3-.1,2-.1,1.3-.2,2.7-.4,4-.1.7-.2,1.3-.4,2-.1.3-.2.7-.3,1-.1.2-.2.4-.2.5l-.2.3c-.1.1-.1.2-.3.4l.2-1.4c.2.4.3.8.5,1.2s.3.8.4,1.2c.3.8.5,1.6.7,2.5.4,1.7.8,3.4,1,5.1.1.9.2,1.7.3,2.6.1.9.1,1.7.2,2.6v2.6c0,.9-.1,1.7-.1,2.6l-.1-.5c.3.7.6,1.4.9,2.1s.5,1.4.7,2.2c.5,1.4.8,2.9,1.1,4.4.2,1.5.4,3,.3,4.6,0,1.5-.3,3-.8,4.4.3-1.5.3-3,.2-4.4-.1-1.5-.4-2.9-.7-4.3-.4-1.4-.8-2.8-1.4-4.1-.3-.7-.6-1.3-.9-2-.3-.6-.6-1.3-1-1.9l-.1-.2v-.3c0-.8,0-1.7-.1-2.5s-.1-1.7-.2-2.5-.2-1.6-.3-2.5c0-.4-.1-.8-.2-1.2-.1-.4-.1-.8-.2-1.2-.3-1.6-.6-3.2-1-4.8-.2-.8-.4-1.6-.7-2.4-.1-.4-.2-.8-.4-1.2-.1-.4-.3-.8-.4-1.1l.2-1.4c-.1.1,0,0,0,0l.1-.1c.1-.1.1-.2.2-.3.1-.2.2-.5.3-.8.2-.6.3-1.2.4-1.8.2-1.2.4-2.5.5-3.7.1-.6.1-1.3.2-1.9,0-.6.1-1.3.1-1.9v-1.8c-.1-.6-.2-1.2-.3-1.8-.2-.6-.3-1.1-.6-1.7-.2-.5-.6-1-.9-1.5-.7-.9-1.7-1.6-2.7-2.2-1-.6-2.2-.9-3.4-1.2-1.2,0-2.4-.2-3.6-.2Z"/>
    <path class="cls-5" d="m367.4,130.99c6.4-3.2,11.7-7.1,17.1-7.4,7.5-.4,12.2,14.8,14.9,21.3,1.7,4.2,2.2,16,2.2,16"/>
    <path class="cls-5" d="m366.3,127.89s9-5.7,17.2-9.8,20,22.1,20,22.1"/>
    <path d="m372.6,144.59s.2.1.4.3c.3.2.6.5,1.1.7.2.1.5.2.7.3.3.1.5.2.8.2.3.1.5,0,.8,0,.3-.1.6-.1.8-.2l.4-.1c.1-.1.3-.1.4-.2s.3-.1.4-.2.3-.2.4-.3c.3-.2.5-.3.8-.5.2-.2.5-.3.7-.5s.4-.3.6-.4.4-.2.5-.3c.3-.2.5-.3.5-.3,0,0-.1.2-.2.5-.1.2-.1.4-.3.6-.1.2-.2.5-.4.7-.2.3-.4.5-.6.8s-.5.6-.8.8c-.3.3-.6.5-1,.7-.2.1-.4.2-.5.3-.2.1-.4.2-.6.2-.4.2-.9.2-1.3.2s-.9-.1-1.3-.3c-.4-.1-.7-.4-1.1-.6-.3-.3-.5-.5-.7-.8-.4-.5-.6-1-.7-1.4.3,0,.2-.2.2-.2Z"/>
    <path d="m381.5,143.89c-.1.7-.2,1.5-.2,2.2s0,1.5.1,2.2.2,1.4.4,2.1c.2.7.4,1.3.7,1.9.3.6.6,1.2,1,1.7.2.3.4.5.6.8.2.2.4.5.7.7.5.5,1,.9,1.5,1.3s1.1.8,1.7,1.1l.6.4v2.1c0,.5.1,1,.1,1.5.1,1,.3,1.9.5,2.9.1.5.2.9.4,1.4.1.5.3.9.5,1.3s.4.9.6,1.3.5.8.7,1.2c.3.4.6.7.9,1.1l.5.5.5.4c.4.3.7.5,1.2.7.4.2.8.4,1.3.5.4.1.9.3,1.3.4.5.1.9.2,1.4.2.5.1,1,.1,1.4.1h1.5c-.5.1-.9.3-1.4.4s-1,.2-1.5.2c-.5.1-1,.1-1.5.1s-1-.1-1.5-.1c-.5-.1-1-.2-1.5-.4-.5-.2-1-.4-1.4-.7-.5-.3-.9-.6-1.3-.9-.4-.4-.8-.7-1.2-1.2-.4-.4-.7-.8-1-1.3s-.6-.9-.8-1.4c-.5-1-.9-2-1.1-3.1-.3-1.1-.5-2.1-.6-3.2-.1-.5-.1-1.1-.1-1.6v-1.7l.6,1.1c-1.3-.8-2.5-1.7-3.6-2.9-.3-.3-.5-.6-.7-.9s-.5-.7-.7-1c-.4-.7-.7-1.4-1-2.2-.5-1.5-.7-3.2-.5-4.7-.2-1.6.2-3.1.9-4.5Z"/>
    <path d="m374,144.09c1.2,2.4,2,5,2.4,7.8.4,2.7.3,5.6-.5,8.2v-.3c1.4,2.9,2.8,5.8,4.2,8.7,1.4,2.9,2.8,5.8,4.1,8.7l4.1,8.8,4,8.8h0c.2.4.4.8.5,1.2s.2.8.3,1.3c.1.4.1.9.1,1.3v.6c0,.2,0,.4-.1.6-.1.4-.1.8-.2,1.3-.1.4-.2.8-.3,1.2-.1.4-.3.8-.5,1.2l-.6,1.1.5-1.2c.1-.4.3-.8.4-1.2s.2-.8.3-1.2c.1-.4.1-.8.2-1.2v-1.2c0-.4-.1-.8-.2-1.2s-.2-.8-.3-1.2c-.1-.4-.3-.8-.5-1.1h0l-4.3-8.7-4.2-8.7c-1.4-2.9-2.7-5.8-4.1-8.8-1.3-2.9-2.7-5.8-4.1-8.8l-.1-.2.1-.1c.9-2.5,1-5.2.7-7.9-.1-1.3-.4-2.7-.7-4-.2-1.2-.6-2.5-1.2-3.8Z"/>
    <line class="cls-5" x1="411.1" y1="147.29" x2="405.5" y2="142.59"/>
    <path d="m404.6,142.59s-.2.4-.4,1c-.1.3-.3.7-.5,1.1-.1.4-.3.9-.5,1.5-.1.3-.2.5-.3.8-.1.3-.1.6-.2.9-.2.6-.2,1.3-.3,1.9,0,.7-.1,1.4-.1,2,0,.3,0,.7.1,1l.2,1c0,.3.1.7.2,1s.2.7.3,1c.3.6.5,1.3.8,1.9s.7,1.1,1,1.7c.4.5.7,1,1,1.5.2.2.3.5.5.7s.3.4.5.6c.3.3.5.7.7.9.4.5.6.9.6.9,0,0-.3-.2-.9-.5-.3-.2-.6-.4-1-.6-.2-.1-.4-.3-.6-.4-.2-.2-.4-.4-.6-.5-.4-.4-.9-.8-1.4-1.3-.4-.5-.9-1.1-1.3-1.7-.4-.7-.8-1.4-1.1-2.1-.1-.4-.3-.8-.4-1.2-.1-.4-.3-.8-.3-1.2l-.2-1.3c-.1-.4,0-.8,0-1.3,0-.8.2-1.6.3-2.4.1-.4.2-.7.3-1.1.1-.4.2-.7.4-1,.1-.3.3-.6.4-.9.2-.3.3-.6.5-.8.3-.5.6-.9.9-1.3s.6-.7.8-.9c.3-.7.6-.9.6-.9Z"/>
    <path d="m406,142.29l.2.2c.1.1.2.4.3.7.3.6.6,1.5.7,2.6.1.6.1,1.2.1,1.9,0,.6-.2,1.4-.3,2-.1.6,0,1.3.2,1.9s.5,1.2,1,1.7c.4.5.9,1.1,1.4,1.5s1.1.8,1.2.5c.3-.3.4-1.1.5-1.7s.1-1.2.1-1.8v-3.7s.2,1.5.5,3.7c0,.6.1,1.2.1,1.8,0,.3,0,.7-.1,1-.1.4-.1.7-.4,1.1-.2.2-.4.3-.7.4-.2,0-.5,0-.7-.1-.4-.2-.7-.4-1-.6-.5-.5-1.1-1-1.5-1.6-.5-.6-.9-1.3-1.2-2-.3-.8-.3-1.6-.2-2.4.2-.7.3-1.3.4-1.9s.1-1.2.1-1.7c0-1.1-.1-2-.3-2.6-.2-.5-.4-.9-.4-.9Z"/>
    <path d="m398.8,161.39s.1-.1,0,0c-.1,0-.2.1-.3.2-.2.2-.5.6-.8,1-.6.9-1,2.4-1.4,3.8-.4,1.5-.7,3-1,4.2-.1.6-.3,1.1-.4,1.4s-.2.5-.2.5c0,0-.2-.8-.3-2-.1-1.2,0-2.9.4-4.5s1.2-3.2,2.2-4c.5-.4.9-.7,1.3-.7.2,0,.4,0,.5.1q0-.1,0,0c.1,0,0,0,0,0h0Z"/>
    <path d="m369,218.99s.2.1.5.2c.3.1.8.1,1.3.2,1.1,0,2.5-.2,3.9-.5s2.8-.8,3.9-1.1,1.8-.5,1.8-.5c0,0-.6.5-1.6,1-.5.3-1.1.6-1.8.8-.3.1-.7.3-1,.4-.4.1-.7.2-1.1.3-.7.2-1.5.3-2.2.3h-1c-.3,0-.6-.1-.9-.1-.6-.1-1-.3-1.3-.5-.4-.4-.5-.5-.5-.5Z"/>
    <path d="m387.9,188.99s.2.2.4.7c.2.4.6,1.1.9,1.9.1.4.3.8.4,1.3s.3,1,.4,1.5.2,1.1.3,1.6c.1.6.1,1.1.1,1.7,0,1.2,0,2.3-.1,3.4-.1,1.1-.3,2.1-.4,2.9-.1.8-.4,1.5-.5,2s-.2.7-.2.7c0,0,0-.3.1-.8,0-.5.1-1.2.2-2,0-.4.1-.9.1-1.4s0-1,.1-1.5v-3.3c0-.6-.1-1.1-.1-1.7-.1-.5-.1-1.1-.2-1.6s-.1-1-.2-1.5-.2-.9-.3-1.3c-.2-.8-.4-1.5-.5-2-.4-.3-.5-.6-.5-.6Z"/>
  </g>
</svg>