<?xml version="1.0" encoding="UTF-8"?>
<svg id="Kategori_ikoner" xmlns="http://www.w3.org/2000/svg" xmlns:xlink="http://www.w3.org/1999/xlink" viewBox="0 0 272 228">
  <defs>
    <style>
      .cls-1 {
        fill: none;
        stroke: #fff;
        stroke-linejoin: round;
        stroke-width: .75px;
      }

      .cls-2, .cls-3 {
        fill: #fff;
      }

      .cls-4 {
        fill: #76c0b5;
      }

      .cls-3 {
        filter: url(#drop-shadow-1);
      }

      .cls-5 {
        fill: #448e80;
      }

      .cls-6 {
        fill: #5bb2a3;
      }
    </style>
    <filter id="drop-shadow-1" x=".28" y=".93" width="272" height="227" filterUnits="userSpaceOnUse">
      <feOffset dx="5.67" dy="2.83"/>
      <feGaussianBlur result="blur" stdDeviation="8.5"/>
      <feFlood flood-color="#000" flood-opacity=".56"/>
      <feComposite in2="blur" operator="in"/>
      <feComposite in="SourceGraphic"/>
    </filter>
  </defs>
  <rect class="cls-3" x="20.2" y="24.33" width="220.09" height="174.71" rx="8.85" ry="8.85"/>
  <path class="cls-1" d="M233.77,192.46c-1.61,1.25-3.77-5.08-5.81-5.08s-2.04,5.67-4.07,5.67-2.04-5.67-4.07-5.67-2.03,5.67-4.07,5.67-2.03-5.67-4.07-5.67-2.03,5.67-4.07,5.67-2.03-5.67-4.07-5.67-2.03,5.67-4.07,5.67-2.03-5.67-4.07-5.67-2.04,5.67-4.07,5.67-2.04-5.67-4.07-5.67-2.03,5.67-4.07,5.67-2.03-5.67-4.07-5.67-2.03,5.67-4.07,5.67-2.03-5.67-4.07-5.67-2.04,5.67-4.07,5.67-2.04-5.67-4.07-5.67-2.03,5.67-4.07,5.67-2.03-5.67-4.07-5.67-2.04,5.67-4.07,5.67-2.04-5.67-4.07-5.67-2.04,5.67-4.07,5.67-2.03-5.67-4.07-5.67-2.04,5.67-4.07,5.67-2.04-5.67-4.07-5.67-2.04,5.67-4.07,5.67-2.04-5.67-4.07-5.67-2.04,5.67-4.07,5.67-2.04-5.67-4.07-5.67-2.04,5.67-4.07,5.67-2.04-5.67-4.07-5.67-2.04,5.67-4.07,5.67-2.04-5.67-4.07-5.67-2.04,5.67-4.07,5.67-2.04-5.67-4.07-5.67-2.04,5.67-4.07,5.67-2.03-5.67-4.07-5.67-2.04,5.67-4.07,5.67-2.04-5.67-4.07-5.67-2.04,5.67-4.07,5.67-2.04-5.67-4.07-5.67-2.04,5.67-4.07,5.67-2.04-5.67-4.08-5.67-2.04,5.67-4.08,5.67-2.04-5.67-4.08-5.67-2.04,5.67-4.07,5.67-2.04-5.67-4.08-5.67-2.04,5.67-4.08,5.67-2.04-5.67-4.08-5.67-4.19,6.33-5.81,5.08c-1.24-.96,4.56-3.82,4.56-5.38s-5.67-1.57-5.67-3.14,5.67-1.57,5.67-3.14-5.67-1.57-5.67-3.14,5.67-1.57,5.67-3.14-5.67-1.57-5.67-3.14,5.67-1.57,5.67-3.14-5.67-1.57-5.67-3.14,5.67-1.57,5.67-3.14-5.67-1.57-5.67-3.14,5.67-1.57,5.67-3.14-5.67-1.57-5.67-3.14,5.67-1.57,5.67-3.14-5.67-1.57-5.67-3.14,5.67-1.57,5.67-3.14-5.67-1.57-5.67-3.14,5.67-1.57,5.67-3.14-5.67-1.57-5.67-3.14,5.67-1.57,5.67-3.14-5.67-1.57-5.67-3.14,5.67-1.57,5.67-3.14-5.67-1.57-5.67-3.14,5.67-1.57,5.67-3.14-5.67-1.57-5.67-3.14,5.67-1.57,5.67-3.14-5.67-1.57-5.67-3.14,5.67-1.57,5.67-3.14-5.67-1.57-5.67-3.14,5.67-1.57,5.67-3.14-5.67-1.57-5.67-3.14,5.67-1.57,5.67-3.14-5.67-1.57-5.67-3.14,5.67-1.57,5.67-3.14-5.67-1.57-5.67-3.14,5.67-1.57,5.67-3.14-5.67-1.57-5.67-3.14,5.67-1.57,5.67-3.14-5.67-1.57-5.67-3.14,5.67-1.57,5.67-3.14-5.67-1.57-5.67-3.14,5.67-1.57,5.67-3.14-5.67-1.57-5.67-3.14,5.67-1.57,5.67-3.15-5.67-1.57-5.67-3.15,5.67-1.57,5.67-3.14-5.67-1.57-5.67-3.15,5.67-1.57,5.67-3.15-5.67-1.57-5.67-3.15,5.67-1.58,5.67-3.15-5.82-4.43-4.57-5.39c1.61-1.25,3.77,5.08,5.81,5.08s2.04-5.67,4.07-5.67,2.04,5.67,4.07,5.67,2.03-5.67,4.07-5.67,2.03,5.67,4.07,5.67,2.03-5.67,4.07-5.67,2.03,5.67,4.07,5.67,2.03-5.67,4.07-5.67,2.03,5.67,4.07,5.67,2.04-5.67,4.07-5.67,2.04,5.67,4.07,5.67,2.03-5.67,4.07-5.67,2.03,5.67,4.07,5.67,2.03-5.67,4.07-5.67,2.03,5.67,4.07,5.67,2.04-5.67,4.07-5.67,2.04,5.67,4.07,5.67,2.03-5.67,4.07-5.67,2.03,5.67,4.07,5.67,2.04-5.67,4.07-5.67,2.04,5.67,4.07,5.67,2.04-5.67,4.07-5.67,2.03,5.67,4.07,5.67,2.04-5.67,4.07-5.67,2.04,5.67,4.07,5.67,2.04-5.67,4.07-5.67,2.04,5.67,4.07,5.67,2.04-5.67,4.07-5.67,2.04,5.67,4.07,5.67,2.04-5.67,4.07-5.67,2.04,5.67,4.07,5.67,2.04-5.67,4.07-5.67,2.04,5.67,4.07,5.67,2.04-5.67,4.07-5.67,2.04,5.67,4.07,5.67,2.04-5.67,4.07-5.67,2.03,5.67,4.07,5.67,2.04-5.67,4.07-5.67,2.04,5.67,4.07,5.67,2.04-5.67,4.07-5.67,2.04,5.67,4.07,5.67,2.04-5.67,4.07-5.67,2.04,5.67,4.08,5.67,2.04-5.67,4.08-5.67,2.04,5.67,4.08,5.67,2.04-5.67,4.07-5.67,2.04,5.67,4.08,5.67,2.04-5.67,4.08-5.67,2.04,5.67,4.08,5.67,4.19-6.33,5.81-5.08c1.24.96-4.56,3.82-4.56,5.38s5.67,1.57,5.67,3.14-5.67,1.57-5.67,3.14,5.67,1.57,5.67,3.14-5.67,1.57-5.67,3.14,5.67,1.57,5.67,3.14-5.67,1.57-5.67,3.14,5.67,1.57,5.67,3.14-5.67,1.57-5.67,3.14,5.67,1.57,5.67,3.14-5.67,1.57-5.67,3.14,5.67,1.57,5.67,3.14-5.67,1.57-5.67,3.14,5.67,1.57,5.67,3.14-5.67,1.57-5.67,3.14,5.67,1.57,5.67,3.14-5.67,1.57-5.67,3.14,5.67,1.57,5.67,3.14-5.67,1.57-5.67,3.14,5.67,1.57,5.67,3.14-5.67,1.57-5.67,3.14,5.67,1.57,5.67,3.14-5.67,1.57-5.67,3.14,5.67,1.57,5.67,3.14-5.67,1.57-5.67,3.14,5.67,1.57,5.67,3.14-5.67,1.57-5.67,3.14,5.67,1.57,5.67,3.14-5.67,1.57-5.67,3.14,5.67,1.57,5.67,3.14-5.67,1.57-5.67,3.14,5.67,1.57,5.67,3.14-5.67,1.57-5.67,3.14,5.67,1.57,5.67,3.14-5.67,1.57-5.67,3.14,5.67,1.57,5.67,3.14-5.67,1.57-5.67,3.14,5.67,1.57,5.67,3.14-5.67,1.57-5.67,3.14,5.67,1.57,5.67,3.14-5.67,1.57-5.67,3.14,5.67,1.57,5.67,3.14-5.67,1.57-5.67,3.15,5.67,1.57,5.67,3.15-5.67,1.57-5.67,3.14,5.67,1.57,5.67,3.15-5.67,1.57-5.67,3.15,5.67,1.57,5.67,3.15-6.05,2.72-5.47,4.19c1.09,2.77,5.62,3.39,4.37,4.36Z"/>
  <rect id="board" class="cls-6" x="28.44" y="33.15" width="203.59" height="157.06" rx="6.63" ry="6.63"/>
  <g>
    <ellipse class="cls-4" cx="37.41" cy="40.9" rx="4.65" ry="4.72"/>
    <ellipse class="cls-4" cx="37.41" cy="50.34" rx="4.65" ry="4.72"/>
    <ellipse class="cls-4" cx="37.41" cy="59.78" rx="4.65" ry="4.72"/>
    <ellipse class="cls-4" cx="37.41" cy="69.21" rx="4.65" ry="4.72"/>
    <ellipse class="cls-4" cx="37.41" cy="78.65" rx="4.65" ry="4.72"/>
    <ellipse class="cls-4" cx="37.41" cy="88.09" rx="4.65" ry="4.72"/>
    <ellipse class="cls-4" cx="37.41" cy="97.53" rx="4.65" ry="4.72"/>
    <ellipse class="cls-4" cx="37.41" cy="106.97" rx="4.65" ry="4.72"/>
    <ellipse class="cls-4" cx="37.41" cy="116.41" rx="4.65" ry="4.72"/>
    <ellipse class="cls-4" cx="37.41" cy="125.84" rx="4.65" ry="4.72"/>
    <ellipse class="cls-4" cx="37.41" cy="135.28" rx="4.65" ry="4.72"/>
    <ellipse class="cls-4" cx="37.41" cy="144.72" rx="4.65" ry="4.72"/>
    <ellipse class="cls-4" cx="37.41" cy="154.16" rx="4.65" ry="4.72"/>
    <ellipse class="cls-4" cx="37.41" cy="163.6" rx="4.65" ry="4.72"/>
    <ellipse class="cls-4" cx="46.7" cy="40.9" rx="4.65" ry="4.72"/>
    <ellipse class="cls-4" cx="56" cy="40.9" rx="4.65" ry="4.72"/>
    <ellipse class="cls-4" cx="65.3" cy="40.9" rx="4.65" ry="4.72"/>
    <ellipse class="cls-4" cx="74.59" cy="40.9" rx="4.65" ry="4.72"/>
    <ellipse class="cls-4" cx="83.89" cy="40.9" rx="4.65" ry="4.72"/>
    <ellipse class="cls-4" cx="93.18" cy="40.9" rx="4.65" ry="4.72"/>
    <ellipse class="cls-4" cx="102.48" cy="40.9" rx="4.65" ry="4.72"/>
    <ellipse class="cls-4" cx="111.78" cy="40.9" rx="4.65" ry="4.72"/>
    <ellipse class="cls-4" cx="121.07" cy="40.9" rx="4.65" ry="4.72"/>
    <ellipse class="cls-4" cx="130.37" cy="40.9" rx="4.65" ry="4.72"/>
    <ellipse class="cls-4" cx="139.66" cy="40.9" rx="4.65" ry="4.72"/>
    <ellipse class="cls-4" cx="148.96" cy="40.9" rx="4.65" ry="4.72"/>
    <ellipse class="cls-4" cx="158.26" cy="40.9" rx="4.65" ry="4.72"/>
    <ellipse class="cls-4" cx="167.55" cy="40.9" rx="4.65" ry="4.72"/>
    <ellipse class="cls-4" cx="46.7" cy="50.34" rx="4.65" ry="4.72"/>
    <ellipse class="cls-4" cx="56" cy="50.34" rx="4.65" ry="4.72"/>
    <ellipse class="cls-4" cx="65.3" cy="50.34" rx="4.65" ry="4.72"/>
    <ellipse class="cls-4" cx="74.59" cy="50.34" rx="4.65" ry="4.72"/>
    <ellipse class="cls-4" cx="83.89" cy="50.34" rx="4.65" ry="4.72"/>
    <ellipse class="cls-4" cx="93.18" cy="50.34" rx="4.65" ry="4.72"/>
    <ellipse class="cls-4" cx="102.48" cy="50.34" rx="4.65" ry="4.72"/>
    <ellipse class="cls-4" cx="111.78" cy="50.34" rx="4.65" ry="4.72"/>
    <ellipse class="cls-4" cx="121.07" cy="50.34" rx="4.65" ry="4.72"/>
    <ellipse class="cls-4" cx="130.37" cy="50.34" rx="4.65" ry="4.72"/>
    <ellipse class="cls-4" cx="139.66" cy="50.34" rx="4.65" ry="4.72"/>
    <ellipse class="cls-4" cx="148.96" cy="50.34" rx="4.65" ry="4.72"/>
    <ellipse class="cls-4" cx="158.26" cy="50.34" rx="4.65" ry="4.72"/>
    <ellipse class="cls-4" cx="167.55" cy="50.34" rx="4.65" ry="4.72"/>
    <ellipse class="cls-4" cx="46.7" cy="59.78" rx="4.65" ry="4.72"/>
    <ellipse class="cls-4" cx="56" cy="59.78" rx="4.65" ry="4.72"/>
    <ellipse class="cls-4" cx="65.3" cy="59.78" rx="4.65" ry="4.72"/>
    <ellipse class="cls-4" cx="74.59" cy="59.78" rx="4.65" ry="4.72"/>
    <ellipse class="cls-4" cx="83.89" cy="59.78" rx="4.65" ry="4.72"/>
    <ellipse class="cls-4" cx="93.18" cy="59.78" rx="4.65" ry="4.72"/>
    <ellipse class="cls-4" cx="102.48" cy="59.78" rx="4.65" ry="4.72"/>
    <ellipse class="cls-4" cx="111.78" cy="59.78" rx="4.65" ry="4.72"/>
    <ellipse class="cls-4" cx="121.07" cy="59.78" rx="4.65" ry="4.72"/>
    <ellipse class="cls-4" cx="130.37" cy="59.78" rx="4.65" ry="4.72"/>
    <ellipse class="cls-4" cx="139.66" cy="59.78" rx="4.65" ry="4.72"/>
    <ellipse class="cls-4" cx="148.96" cy="59.78" rx="4.65" ry="4.72"/>
    <ellipse class="cls-4" cx="158.26" cy="59.78" rx="4.65" ry="4.72"/>
    <ellipse class="cls-4" cx="167.55" cy="59.78" rx="4.65" ry="4.72"/>
    <ellipse class="cls-4" cx="46.7" cy="69.21" rx="4.65" ry="4.72"/>
    <ellipse class="cls-4" cx="56" cy="69.21" rx="4.65" ry="4.72"/>
    <ellipse class="cls-4" cx="65.3" cy="69.21" rx="4.65" ry="4.72"/>
    <ellipse class="cls-4" cx="74.59" cy="69.21" rx="4.65" ry="4.72"/>
    <ellipse class="cls-4" cx="83.89" cy="69.21" rx="4.65" ry="4.72"/>
    <ellipse class="cls-4" cx="93.18" cy="69.21" rx="4.65" ry="4.72"/>
    <ellipse class="cls-4" cx="102.48" cy="69.21" rx="4.65" ry="4.72"/>
    <ellipse class="cls-4" cx="111.78" cy="69.21" rx="4.65" ry="4.72"/>
    <ellipse class="cls-4" cx="121.07" cy="69.21" rx="4.65" ry="4.72"/>
    <ellipse class="cls-4" cx="130.37" cy="69.21" rx="4.65" ry="4.72"/>
    <ellipse class="cls-4" cx="139.66" cy="69.21" rx="4.65" ry="4.72"/>
    <ellipse class="cls-4" cx="148.96" cy="69.21" rx="4.65" ry="4.72"/>
    <ellipse class="cls-4" cx="158.26" cy="69.21" rx="4.65" ry="4.72"/>
    <ellipse class="cls-4" cx="167.55" cy="69.21" rx="4.65" ry="4.72"/>
    <ellipse class="cls-4" cx="46.71" cy="78.65" rx="4.65" ry="4.72"/>
    <ellipse class="cls-4" cx="56" cy="78.65" rx="4.65" ry="4.72"/>
    <ellipse class="cls-4" cx="65.3" cy="78.65" rx="4.65" ry="4.72"/>
    <ellipse class="cls-4" cx="74.59" cy="78.65" rx="4.65" ry="4.72"/>
    <ellipse class="cls-4" cx="83.89" cy="78.65" rx="4.65" ry="4.72"/>
    <ellipse class="cls-4" cx="93.18" cy="78.65" rx="4.65" ry="4.72"/>
    <ellipse class="cls-4" cx="102.48" cy="78.65" rx="4.65" ry="4.72"/>
    <ellipse class="cls-4" cx="111.78" cy="78.65" rx="4.65" ry="4.72"/>
    <ellipse class="cls-4" cx="121.07" cy="78.65" rx="4.65" ry="4.72"/>
    <ellipse class="cls-4" cx="130.37" cy="78.65" rx="4.65" ry="4.72"/>
    <ellipse class="cls-4" cx="139.66" cy="78.65" rx="4.65" ry="4.72"/>
    <ellipse class="cls-4" cx="148.96" cy="78.65" rx="4.65" ry="4.72"/>
    <ellipse class="cls-4" cx="158.26" cy="78.65" rx="4.65" ry="4.72"/>
    <ellipse class="cls-4" cx="167.55" cy="78.65" rx="4.65" ry="4.72"/>
    <ellipse class="cls-4" cx="46.71" cy="88.09" rx="4.65" ry="4.72"/>
    <ellipse class="cls-4" cx="56" cy="88.09" rx="4.65" ry="4.72"/>
    <ellipse class="cls-4" cx="65.3" cy="88.09" rx="4.65" ry="4.72"/>
    <ellipse class="cls-4" cx="74.59" cy="88.09" rx="4.65" ry="4.72"/>
    <ellipse class="cls-4" cx="83.89" cy="88.09" rx="4.65" ry="4.72"/>
    <ellipse class="cls-4" cx="93.18" cy="88.09" rx="4.65" ry="4.72"/>
    <ellipse class="cls-4" cx="102.48" cy="88.09" rx="4.65" ry="4.72"/>
    <ellipse class="cls-4" cx="111.78" cy="88.09" rx="4.65" ry="4.72"/>
    <ellipse class="cls-4" cx="121.07" cy="88.09" rx="4.65" ry="4.72"/>
    <ellipse class="cls-4" cx="130.37" cy="88.09" rx="4.65" ry="4.72"/>
    <ellipse class="cls-4" cx="139.66" cy="88.09" rx="4.65" ry="4.72"/>
    <ellipse class="cls-4" cx="148.96" cy="88.09" rx="4.65" ry="4.72"/>
    <ellipse class="cls-4" cx="158.26" cy="88.09" rx="4.65" ry="4.72"/>
    <ellipse class="cls-4" cx="167.55" cy="88.09" rx="4.65" ry="4.72"/>
    <ellipse class="cls-4" cx="46.71" cy="97.53" rx="4.65" ry="4.72"/>
    <ellipse class="cls-4" cx="56" cy="97.53" rx="4.65" ry="4.72"/>
    <ellipse class="cls-4" cx="65.3" cy="97.53" rx="4.65" ry="4.72"/>
    <ellipse class="cls-4" cx="74.59" cy="97.53" rx="4.65" ry="4.72"/>
    <ellipse class="cls-4" cx="83.89" cy="97.53" rx="4.65" ry="4.72"/>
    <ellipse class="cls-4" cx="93.18" cy="97.53" rx="4.65" ry="4.72"/>
    <ellipse class="cls-4" cx="102.48" cy="97.53" rx="4.65" ry="4.72"/>
    <ellipse class="cls-4" cx="111.78" cy="97.53" rx="4.65" ry="4.72"/>
    <ellipse class="cls-4" cx="121.07" cy="97.53" rx="4.65" ry="4.72"/>
    <ellipse class="cls-4" cx="130.37" cy="97.53" rx="4.65" ry="4.72"/>
    <ellipse class="cls-4" cx="139.66" cy="97.53" rx="4.65" ry="4.72"/>
    <ellipse class="cls-4" cx="148.96" cy="97.53" rx="4.65" ry="4.72"/>
    <ellipse class="cls-4" cx="158.26" cy="97.53" rx="4.65" ry="4.72"/>
    <ellipse class="cls-4" cx="167.55" cy="97.53" rx="4.65" ry="4.72"/>
    <ellipse class="cls-4" cx="46.71" cy="106.97" rx="4.65" ry="4.72"/>
    <ellipse class="cls-4" cx="56" cy="106.97" rx="4.65" ry="4.72"/>
    <ellipse class="cls-4" cx="65.3" cy="106.97" rx="4.65" ry="4.72"/>
    <ellipse class="cls-4" cx="74.59" cy="106.97" rx="4.65" ry="4.72"/>
    <ellipse class="cls-4" cx="83.89" cy="106.97" rx="4.65" ry="4.72"/>
    <ellipse class="cls-4" cx="93.18" cy="106.97" rx="4.65" ry="4.72"/>
    <ellipse class="cls-4" cx="102.48" cy="106.97" rx="4.65" ry="4.72"/>
    <ellipse class="cls-4" cx="111.78" cy="106.97" rx="4.65" ry="4.72"/>
    <ellipse class="cls-4" cx="121.07" cy="106.97" rx="4.65" ry="4.72"/>
    <ellipse class="cls-4" cx="130.37" cy="106.97" rx="4.65" ry="4.72"/>
    <ellipse class="cls-4" cx="139.66" cy="106.97" rx="4.65" ry="4.72"/>
    <ellipse class="cls-4" cx="148.96" cy="106.97" rx="4.65" ry="4.72"/>
    <ellipse class="cls-4" cx="158.26" cy="106.97" rx="4.65" ry="4.72"/>
    <ellipse class="cls-4" cx="167.55" cy="106.97" rx="4.65" ry="4.72"/>
    <ellipse class="cls-4" cx="46.71" cy="116.41" rx="4.65" ry="4.72"/>
    <ellipse class="cls-4" cx="56" cy="116.41" rx="4.65" ry="4.72"/>
    <ellipse class="cls-4" cx="65.3" cy="116.41" rx="4.65" ry="4.72"/>
    <ellipse class="cls-4" cx="74.59" cy="116.41" rx="4.65" ry="4.72"/>
    <ellipse class="cls-4" cx="83.89" cy="116.41" rx="4.65" ry="4.72"/>
    <ellipse class="cls-4" cx="93.18" cy="116.41" rx="4.65" ry="4.72"/>
    <ellipse class="cls-4" cx="102.48" cy="116.41" rx="4.65" ry="4.72"/>
    <ellipse class="cls-4" cx="111.78" cy="116.41" rx="4.65" ry="4.72"/>
    <ellipse class="cls-4" cx="121.07" cy="116.41" rx="4.65" ry="4.72"/>
    <ellipse class="cls-4" cx="130.37" cy="116.41" rx="4.65" ry="4.72"/>
    <ellipse class="cls-4" cx="139.66" cy="116.41" rx="4.65" ry="4.72"/>
    <ellipse class="cls-4" cx="148.96" cy="116.41" rx="4.65" ry="4.72"/>
    <ellipse class="cls-4" cx="158.26" cy="116.41" rx="4.65" ry="4.72"/>
    <ellipse class="cls-4" cx="167.55" cy="116.41" rx="4.65" ry="4.72"/>
    <ellipse class="cls-4" cx="46.71" cy="125.84" rx="4.65" ry="4.72"/>
    <ellipse class="cls-4" cx="56" cy="125.84" rx="4.65" ry="4.72"/>
    <ellipse class="cls-4" cx="65.3" cy="125.84" rx="4.65" ry="4.72"/>
    <ellipse class="cls-4" cx="74.59" cy="125.84" rx="4.65" ry="4.72"/>
    <ellipse class="cls-4" cx="83.89" cy="125.84" rx="4.65" ry="4.72"/>
    <ellipse class="cls-4" cx="93.18" cy="125.84" rx="4.65" ry="4.72"/>
    <ellipse class="cls-4" cx="102.48" cy="125.84" rx="4.65" ry="4.72"/>
    <ellipse class="cls-4" cx="111.78" cy="125.84" rx="4.65" ry="4.72"/>
    <ellipse class="cls-4" cx="121.07" cy="125.84" rx="4.65" ry="4.72"/>
    <ellipse class="cls-4" cx="130.37" cy="125.84" rx="4.65" ry="4.72"/>
    <ellipse class="cls-4" cx="139.66" cy="125.84" rx="4.65" ry="4.72"/>
    <ellipse class="cls-4" cx="148.96" cy="125.84" rx="4.65" ry="4.72"/>
    <ellipse class="cls-4" cx="158.26" cy="125.84" rx="4.65" ry="4.72"/>
    <ellipse class="cls-4" cx="167.55" cy="125.84" rx="4.65" ry="4.72"/>
    <ellipse class="cls-4" cx="46.71" cy="135.28" rx="4.65" ry="4.72"/>
    <ellipse class="cls-4" cx="56" cy="135.28" rx="4.65" ry="4.72"/>
    <ellipse class="cls-4" cx="65.3" cy="135.28" rx="4.65" ry="4.72"/>
    <ellipse class="cls-4" cx="74.59" cy="135.28" rx="4.65" ry="4.72"/>
    <ellipse class="cls-4" cx="83.89" cy="135.28" rx="4.65" ry="4.72"/>
    <ellipse class="cls-4" cx="93.18" cy="135.28" rx="4.65" ry="4.72"/>
    <ellipse class="cls-4" cx="102.48" cy="135.28" rx="4.65" ry="4.72"/>
    <ellipse class="cls-4" cx="111.78" cy="135.28" rx="4.65" ry="4.72"/>
    <ellipse class="cls-4" cx="121.07" cy="135.28" rx="4.65" ry="4.72"/>
    <ellipse class="cls-4" cx="130.37" cy="135.28" rx="4.65" ry="4.72"/>
    <ellipse class="cls-4" cx="139.66" cy="135.28" rx="4.65" ry="4.72"/>
    <ellipse class="cls-4" cx="148.96" cy="135.28" rx="4.65" ry="4.72"/>
    <ellipse class="cls-4" cx="158.26" cy="135.28" rx="4.65" ry="4.72"/>
    <ellipse class="cls-4" cx="167.55" cy="135.28" rx="4.65" ry="4.72"/>
    <ellipse class="cls-4" cx="46.71" cy="144.72" rx="4.65" ry="4.72"/>
    <ellipse class="cls-4" cx="56" cy="144.72" rx="4.65" ry="4.72"/>
    <ellipse class="cls-4" cx="65.3" cy="144.72" rx="4.65" ry="4.72"/>
    <ellipse class="cls-4" cx="74.59" cy="144.72" rx="4.65" ry="4.72"/>
    <ellipse class="cls-4" cx="83.89" cy="144.72" rx="4.65" ry="4.72"/>
    <ellipse class="cls-4" cx="93.18" cy="144.72" rx="4.65" ry="4.72"/>
    <ellipse class="cls-4" cx="102.48" cy="144.72" rx="4.65" ry="4.72"/>
    <ellipse class="cls-4" cx="111.78" cy="144.72" rx="4.65" ry="4.72"/>
    <ellipse class="cls-4" cx="121.07" cy="144.72" rx="4.65" ry="4.72"/>
    <ellipse class="cls-4" cx="130.37" cy="144.72" rx="4.65" ry="4.72"/>
    <ellipse class="cls-4" cx="139.66" cy="144.72" rx="4.65" ry="4.72"/>
    <ellipse class="cls-4" cx="148.96" cy="144.72" rx="4.65" ry="4.72"/>
    <ellipse class="cls-4" cx="158.26" cy="144.72" rx="4.65" ry="4.72"/>
    <ellipse class="cls-4" cx="167.55" cy="144.72" rx="4.65" ry="4.72"/>
    <ellipse class="cls-4" cx="46.71" cy="154.16" rx="4.65" ry="4.72"/>
    <ellipse class="cls-4" cx="56" cy="154.16" rx="4.65" ry="4.72"/>
    <ellipse class="cls-4" cx="65.3" cy="154.16" rx="4.65" ry="4.72"/>
    <ellipse class="cls-4" cx="74.59" cy="154.16" rx="4.65" ry="4.72"/>
    <ellipse class="cls-4" cx="83.89" cy="154.16" rx="4.65" ry="4.72"/>
    <ellipse class="cls-4" cx="93.18" cy="154.16" rx="4.65" ry="4.72"/>
    <ellipse class="cls-4" cx="102.48" cy="154.16" rx="4.65" ry="4.72"/>
    <ellipse class="cls-4" cx="111.78" cy="154.16" rx="4.65" ry="4.72"/>
    <ellipse class="cls-4" cx="121.07" cy="154.16" rx="4.65" ry="4.72"/>
    <ellipse class="cls-4" cx="130.37" cy="154.16" rx="4.65" ry="4.72"/>
    <ellipse class="cls-4" cx="139.66" cy="154.16" rx="4.65" ry="4.72"/>
    <ellipse class="cls-4" cx="148.96" cy="154.16" rx="4.65" ry="4.72"/>
    <ellipse class="cls-4" cx="158.26" cy="154.16" rx="4.65" ry="4.72"/>
    <ellipse class="cls-4" cx="167.55" cy="154.16" rx="4.65" ry="4.72"/>
    <ellipse class="cls-4" cx="46.71" cy="163.6" rx="4.65" ry="4.72"/>
    <ellipse class="cls-4" cx="37.41" cy="40.9" rx="4.65" ry="4.72"/>
    <ellipse class="cls-4" cx="37.41" cy="50.34" rx="4.65" ry="4.72"/>
    <ellipse class="cls-4" cx="37.41" cy="59.78" rx="4.65" ry="4.72"/>
    <ellipse class="cls-4" cx="37.41" cy="69.21" rx="4.65" ry="4.72"/>
    <ellipse class="cls-4" cx="37.41" cy="78.65" rx="4.65" ry="4.72"/>
    <ellipse class="cls-4" cx="37.41" cy="88.09" rx="4.65" ry="4.72"/>
    <ellipse class="cls-4" cx="37.41" cy="97.53" rx="4.65" ry="4.72"/>
    <ellipse class="cls-4" cx="37.41" cy="106.97" rx="4.65" ry="4.72"/>
    <ellipse class="cls-4" cx="37.41" cy="116.41" rx="4.65" ry="4.72"/>
    <ellipse class="cls-4" cx="37.41" cy="125.84" rx="4.65" ry="4.72"/>
    <ellipse class="cls-4" cx="37.41" cy="135.28" rx="4.65" ry="4.72"/>
    <ellipse class="cls-4" cx="37.41" cy="144.72" rx="4.65" ry="4.72"/>
    <ellipse class="cls-4" cx="37.41" cy="154.16" rx="4.65" ry="4.72"/>
    <ellipse class="cls-4" cx="37.41" cy="163.6" rx="4.65" ry="4.72"/>
    <ellipse class="cls-4" cx="56" cy="163.6" rx="4.65" ry="4.72"/>
    <ellipse class="cls-4" cx="65.3" cy="163.6" rx="4.65" ry="4.72"/>
    <ellipse class="cls-4" cx="74.59" cy="163.6" rx="4.65" ry="4.72"/>
    <ellipse class="cls-4" cx="83.89" cy="163.6" rx="4.65" ry="4.72"/>
    <ellipse class="cls-4" cx="93.18" cy="163.6" rx="4.65" ry="4.72"/>
    <ellipse class="cls-4" cx="102.48" cy="163.6" rx="4.65" ry="4.72"/>
    <ellipse class="cls-4" cx="111.78" cy="163.6" rx="4.65" ry="4.72"/>
    <ellipse class="cls-4" cx="121.07" cy="163.6" rx="4.65" ry="4.72"/>
    <ellipse class="cls-4" cx="130.37" cy="163.6" rx="4.65" ry="4.72"/>
    <ellipse class="cls-4" cx="139.66" cy="163.6" rx="4.65" ry="4.72"/>
    <ellipse class="cls-4" cx="148.96" cy="163.6" rx="4.65" ry="4.72"/>
    <ellipse class="cls-4" cx="158.26" cy="163.6" rx="4.65" ry="4.72"/>
    <ellipse class="cls-4" cx="167.55" cy="163.6" rx="4.65" ry="4.72"/>
    <ellipse class="cls-4" cx="177.1" cy="40.9" rx="4.65" ry="4.72"/>
    <ellipse class="cls-4" cx="186.4" cy="40.9" rx="4.65" ry="4.72"/>
    <ellipse class="cls-4" cx="195.7" cy="40.9" rx="4.65" ry="4.72"/>
    <ellipse class="cls-4" cx="204.99" cy="40.9" rx="4.65" ry="4.72"/>
    <ellipse class="cls-4" cx="214.29" cy="40.9" rx="4.65" ry="4.72"/>
    <ellipse class="cls-4" cx="223.58" cy="40.9" rx="4.65" ry="4.72"/>
    <ellipse class="cls-4" cx="177.1" cy="50.34" rx="4.65" ry="4.72"/>
    <ellipse class="cls-4" cx="186.4" cy="50.34" rx="4.65" ry="4.72"/>
    <ellipse class="cls-4" cx="195.7" cy="50.34" rx="4.65" ry="4.72"/>
    <ellipse class="cls-4" cx="204.99" cy="50.34" rx="4.65" ry="4.72"/>
    <ellipse class="cls-4" cx="214.29" cy="50.34" rx="4.65" ry="4.72"/>
    <ellipse class="cls-4" cx="223.58" cy="50.34" rx="4.65" ry="4.72"/>
    <ellipse class="cls-4" cx="177.1" cy="59.78" rx="4.65" ry="4.72"/>
    <ellipse class="cls-4" cx="186.4" cy="59.78" rx="4.65" ry="4.72"/>
    <ellipse class="cls-4" cx="195.7" cy="59.78" rx="4.65" ry="4.72"/>
    <ellipse class="cls-4" cx="204.99" cy="59.78" rx="4.65" ry="4.72"/>
    <ellipse class="cls-4" cx="214.29" cy="59.78" rx="4.65" ry="4.72"/>
    <ellipse class="cls-4" cx="223.58" cy="59.78" rx="4.65" ry="4.72"/>
    <ellipse class="cls-4" cx="177.1" cy="69.21" rx="4.65" ry="4.72"/>
    <ellipse class="cls-4" cx="186.4" cy="69.21" rx="4.65" ry="4.72"/>
    <ellipse class="cls-4" cx="195.7" cy="69.21" rx="4.65" ry="4.72"/>
    <ellipse class="cls-4" cx="204.99" cy="69.21" rx="4.65" ry="4.72"/>
    <ellipse class="cls-4" cx="214.29" cy="69.21" rx="4.65" ry="4.72"/>
    <ellipse class="cls-4" cx="223.58" cy="69.21" rx="4.65" ry="4.72"/>
    <ellipse class="cls-4" cx="177.1" cy="78.65" rx="4.65" ry="4.72"/>
    <ellipse class="cls-4" cx="186.4" cy="78.65" rx="4.65" ry="4.72"/>
    <ellipse class="cls-4" cx="195.7" cy="78.65" rx="4.65" ry="4.72"/>
    <ellipse class="cls-4" cx="204.99" cy="78.65" rx="4.65" ry="4.72"/>
    <ellipse class="cls-4" cx="214.29" cy="78.65" rx="4.65" ry="4.72"/>
    <ellipse class="cls-4" cx="223.58" cy="78.65" rx="4.65" ry="4.72"/>
    <ellipse class="cls-4" cx="177.1" cy="88.09" rx="4.65" ry="4.72"/>
    <ellipse class="cls-4" cx="186.4" cy="88.09" rx="4.65" ry="4.72"/>
    <ellipse class="cls-4" cx="195.7" cy="88.09" rx="4.65" ry="4.72"/>
    <ellipse class="cls-4" cx="204.99" cy="88.09" rx="4.65" ry="4.72"/>
    <ellipse class="cls-4" cx="214.29" cy="88.09" rx="4.65" ry="4.72"/>
    <ellipse class="cls-4" cx="223.58" cy="88.09" rx="4.65" ry="4.72"/>
    <ellipse class="cls-4" cx="177.1" cy="97.53" rx="4.65" ry="4.72"/>
    <ellipse class="cls-4" cx="186.4" cy="97.53" rx="4.65" ry="4.72"/>
    <ellipse class="cls-4" cx="195.7" cy="97.53" rx="4.65" ry="4.72"/>
    <ellipse class="cls-4" cx="204.99" cy="97.53" rx="4.65" ry="4.72"/>
    <ellipse class="cls-4" cx="214.29" cy="97.53" rx="4.65" ry="4.72"/>
    <ellipse class="cls-4" cx="223.58" cy="97.53" rx="4.65" ry="4.72"/>
    <ellipse class="cls-4" cx="177.1" cy="106.97" rx="4.65" ry="4.72"/>
    <ellipse class="cls-4" cx="186.4" cy="106.97" rx="4.65" ry="4.72"/>
    <ellipse class="cls-4" cx="195.7" cy="106.97" rx="4.65" ry="4.72"/>
    <ellipse class="cls-4" cx="204.99" cy="106.97" rx="4.65" ry="4.72"/>
    <ellipse class="cls-4" cx="214.29" cy="106.97" rx="4.65" ry="4.72"/>
    <ellipse class="cls-4" cx="223.58" cy="106.97" rx="4.65" ry="4.72"/>
    <ellipse class="cls-4" cx="177.1" cy="116.41" rx="4.65" ry="4.72"/>
    <ellipse class="cls-4" cx="186.4" cy="116.41" rx="4.65" ry="4.72"/>
    <ellipse class="cls-4" cx="195.7" cy="116.41" rx="4.65" ry="4.72"/>
    <ellipse class="cls-4" cx="204.99" cy="116.41" rx="4.65" ry="4.72"/>
    <ellipse class="cls-4" cx="214.29" cy="116.41" rx="4.65" ry="4.72"/>
    <ellipse class="cls-4" cx="223.58" cy="116.41" rx="4.65" ry="4.72"/>
    <ellipse class="cls-4" cx="177.1" cy="125.84" rx="4.65" ry="4.72"/>
    <ellipse class="cls-4" cx="186.4" cy="125.84" rx="4.65" ry="4.72"/>
    <ellipse class="cls-4" cx="195.7" cy="125.84" rx="4.65" ry="4.72"/>
    <ellipse class="cls-4" cx="204.99" cy="125.84" rx="4.65" ry="4.72"/>
    <ellipse class="cls-4" cx="214.29" cy="125.84" rx="4.65" ry="4.72"/>
    <ellipse class="cls-4" cx="223.58" cy="125.84" rx="4.65" ry="4.72"/>
    <ellipse class="cls-4" cx="177.1" cy="135.28" rx="4.65" ry="4.72"/>
    <ellipse class="cls-4" cx="186.4" cy="135.28" rx="4.65" ry="4.72"/>
    <ellipse class="cls-4" cx="195.7" cy="135.28" rx="4.65" ry="4.72"/>
    <ellipse class="cls-4" cx="204.99" cy="135.28" rx="4.65" ry="4.72"/>
    <ellipse class="cls-4" cx="214.29" cy="135.28" rx="4.65" ry="4.72"/>
    <ellipse class="cls-4" cx="223.58" cy="135.28" rx="4.65" ry="4.72"/>
    <ellipse class="cls-4" cx="177.1" cy="144.72" rx="4.65" ry="4.72"/>
    <ellipse class="cls-4" cx="186.4" cy="144.72" rx="4.65" ry="4.72"/>
    <ellipse class="cls-4" cx="195.7" cy="144.72" rx="4.65" ry="4.72"/>
    <ellipse class="cls-4" cx="204.99" cy="144.72" rx="4.65" ry="4.72"/>
    <ellipse class="cls-4" cx="214.29" cy="144.72" rx="4.65" ry="4.72"/>
    <ellipse class="cls-4" cx="223.58" cy="144.72" rx="4.65" ry="4.72"/>
    <ellipse class="cls-4" cx="177.1" cy="154.16" rx="4.65" ry="4.72"/>
    <ellipse class="cls-4" cx="186.4" cy="154.16" rx="4.65" ry="4.72"/>
    <ellipse class="cls-4" cx="195.7" cy="154.16" rx="4.65" ry="4.72"/>
    <ellipse class="cls-4" cx="204.99" cy="154.16" rx="4.65" ry="4.72"/>
    <ellipse class="cls-4" cx="214.29" cy="154.16" rx="4.65" ry="4.72"/>
    <ellipse class="cls-4" cx="223.58" cy="154.16" rx="4.65" ry="4.72"/>
    <ellipse class="cls-4" cx="177.1" cy="163.6" rx="4.65" ry="4.72"/>
    <ellipse class="cls-4" cx="186.4" cy="163.6" rx="4.65" ry="4.72"/>
    <ellipse class="cls-4" cx="195.7" cy="163.6" rx="4.65" ry="4.72"/>
    <ellipse class="cls-4" cx="204.99" cy="163.6" rx="4.65" ry="4.72"/>
    <ellipse class="cls-4" cx="214.29" cy="163.6" rx="4.65" ry="4.72"/>
    <ellipse class="cls-4" cx="223.58" cy="163.6" rx="4.65" ry="4.72"/>
    <ellipse class="cls-4" cx="37.41" cy="172.86" rx="4.65" ry="4.72"/>
    <ellipse class="cls-4" cx="46.71" cy="172.86" rx="4.65" ry="4.72"/>
    <ellipse class="cls-4" cx="56" cy="172.86" rx="4.65" ry="4.72"/>
    <ellipse class="cls-4" cx="65.3" cy="172.86" rx="4.65" ry="4.72"/>
    <ellipse class="cls-4" cx="74.59" cy="172.86" rx="4.65" ry="4.72"/>
    <ellipse class="cls-4" cx="83.89" cy="172.86" rx="4.65" ry="4.72"/>
    <ellipse class="cls-4" cx="37.41" cy="182.3" rx="4.65" ry="4.72"/>
    <ellipse class="cls-4" cx="46.71" cy="182.3" rx="4.65" ry="4.72"/>
    <ellipse class="cls-4" cx="56" cy="182.3" rx="4.65" ry="4.72"/>
    <ellipse class="cls-4" cx="65.3" cy="182.3" rx="4.65" ry="4.72"/>
    <ellipse class="cls-4" cx="74.59" cy="182.3" rx="4.65" ry="4.72"/>
    <ellipse class="cls-4" cx="83.89" cy="182.3" rx="4.65" ry="4.72"/>
    <ellipse class="cls-4" cx="93.18" cy="172.86" rx="4.65" ry="4.72"/>
    <ellipse class="cls-4" cx="102.48" cy="172.86" rx="4.65" ry="4.72"/>
    <ellipse class="cls-4" cx="111.78" cy="172.86" rx="4.65" ry="4.72"/>
    <ellipse class="cls-4" cx="121.07" cy="172.86" rx="4.65" ry="4.72"/>
    <ellipse class="cls-4" cx="130.37" cy="172.86" rx="4.65" ry="4.72"/>
    <ellipse class="cls-4" cx="139.66" cy="172.86" rx="4.65" ry="4.72"/>
    <ellipse class="cls-4" cx="93.18" cy="182.3" rx="4.65" ry="4.72"/>
    <ellipse class="cls-4" cx="102.48" cy="182.3" rx="4.65" ry="4.72"/>
    <ellipse class="cls-4" cx="111.78" cy="182.3" rx="4.65" ry="4.72"/>
    <ellipse class="cls-4" cx="121.07" cy="182.3" rx="4.65" ry="4.72"/>
    <ellipse class="cls-4" cx="130.37" cy="182.3" rx="4.65" ry="4.72"/>
    <ellipse class="cls-4" cx="139.66" cy="182.3" rx="4.65" ry="4.72"/>
    <ellipse class="cls-4" cx="148.96" cy="173.04" rx="4.65" ry="4.72"/>
    <ellipse class="cls-4" cx="158.26" cy="173.04" rx="4.65" ry="4.72"/>
    <ellipse class="cls-4" cx="167.55" cy="173.04" rx="4.65" ry="4.72"/>
    <ellipse class="cls-4" cx="176.85" cy="173.04" rx="4.65" ry="4.72"/>
    <ellipse class="cls-4" cx="186.14" cy="173.04" rx="4.65" ry="4.72"/>
    <ellipse class="cls-4" cx="195.44" cy="173.04" rx="4.65" ry="4.72"/>
    <ellipse class="cls-4" cx="148.96" cy="182.47" rx="4.65" ry="4.72"/>
    <ellipse class="cls-4" cx="158.26" cy="182.47" rx="4.65" ry="4.72"/>
    <ellipse class="cls-4" cx="167.55" cy="182.47" rx="4.65" ry="4.72"/>
    <ellipse class="cls-4" cx="176.85" cy="182.47" rx="4.65" ry="4.72"/>
    <ellipse class="cls-4" cx="186.14" cy="182.47" rx="4.65" ry="4.72"/>
    <ellipse class="cls-4" cx="195.44" cy="182.47" rx="4.65" ry="4.72"/>
    <ellipse class="cls-4" cx="204.74" cy="173.04" rx="4.65" ry="4.72"/>
    <ellipse class="cls-4" cx="214.03" cy="173.04" rx="4.65" ry="4.72"/>
    <ellipse class="cls-4" cx="223.33" cy="173.04" rx="4.65" ry="4.72"/>
    <ellipse class="cls-4" cx="204.74" cy="182.47" rx="4.65" ry="4.72"/>
    <ellipse class="cls-4" cx="214.03" cy="182.47" rx="4.65" ry="4.72"/>
    <ellipse class="cls-4" cx="223.33" cy="182.47" rx="4.65" ry="4.72"/>
  </g>
  <g>
    <path class="cls-5" d="M106.81,91.77h9.62s0-4.94,0-4.94h-9.45c-1.06,0-1.39-.79-1.49-1.12-.09-.31-.21-1.06.49-1.61l24.27-8.28,24.27,8.28c.69.55.58,1.3.49,1.61-.1.34-.43,1.12-1.49,1.12h-7.63l-.08,4.94h7.71c2.93,0,5.44-1.89,6.25-4.71.8-2.82-.33-5.75-2.82-7.3-.16-.1-.33-.18-.5-.24l-23.68-8.08v-3.11c0-1.37-1.11-2.47-2.47-2.47-2.34,0-4.25-1.91-4.25-4.25s1.91-4.25,4.25-4.25c1.64,0,3.11.92,3.83,2.39.6,1.23,2.08,1.74,3.31,1.14,1.23-.6,1.74-2.08,1.14-3.31-1.56-3.19-4.72-5.17-8.27-5.17-5.07,0-9.2,4.13-9.2,9.2,0,4.22,2.85,7.78,6.72,8.86v.96l-23.74,8.1c-.18.06-.35.14-.5.24-2.49,1.55-3.63,4.48-2.82,7.3.8,2.82,3.31,4.71,6.25,4.71"/>
    <g>
      <path class="cls-2" d="M150.39,76.19c-5,10.12-15.02,12-20.15,12.27-5.13-.27-15.16-2.15-20.15-12.27l-11.6,4.55-26.18,22.48,17.79,19.79,8.67-7.27v56.08h62.93v-56.08l8.67,7.27,17.79-19.79-26.22-22.28-11.56-4.75Z"/>
      <path class="cls-5" d="M162.21,172.32h-63.93v-55.51l-8.22,6.89-18.46-20.53,26.71-22.9,12.03-4.72.2.41c4.83,9.78,14.44,11.71,19.73,11.99,5.24-.28,14.85-2.21,19.68-11.99l.21-.42,12.12,5.01,26.61,22.62-18.46,20.53-8.22-6.89v55.51ZM99.27,171.32h61.93v-56.65l9.12,7.64,17.12-19.05-25.77-21.9-11.06-4.54c-5.12,9.88-14.93,11.84-20.36,12.13-5.49-.29-15.3-2.25-20.42-12.13l-11.1,4.36-25.72,22.09,17.12,19.05,9.12-7.64v56.65Z"/>
    </g>
  </g>
</svg>