<?xml version="1.0" encoding="UTF-8"?>
<svg id="Layer_2" xmlns="http://www.w3.org/2000/svg" viewBox="0 0 54.94 46.58">
  <defs>
    <style>
      .cls-1 {
        stroke: #000;
      }

      .cls-1, .cls-2 {
        fill: none;
        stroke-width: 2.4px;
      }

      .cls-2 {
        stroke: #1d1d1b;
      }

      .cls-3 {
        fill: #fff;
      }

      .cls-4 {
        fill: #1d1d1b;
      }
    </style>
  </defs>
  <g id="card-settings">
    <g>
      <path class="cls-3" d="M53.71,32.84c.24,2.28-1.42,4.33-3.7,4.57l-36.21,3.78c-2.28.24-4.34-1.43-4.58-3.71l-2.95-27.91c-.24-2.28,1.42-4.33,3.7-4.57L46.18,1.22c2.28-.24,4.34,1.43,4.58,3.71,0,0,2.95,27.91,2.95,27.91Z"/>
      <path class="cls-2" d="M53.71,32.84c.24,2.28-1.42,4.33-3.7,4.57l-36.21,3.78c-2.28.24-4.34-1.43-4.58-3.71l-2.95-27.91c-.24-2.28,1.42-4.33,3.7-4.57L46.18,1.22c2.28-.24,4.34,1.43,4.58,3.71,0,0,2.95,27.91,2.95,27.91Z"/>
    </g>
    <g>
      <path class="cls-3" d="M48.66,37c.24,2.28-1.42,4.33-3.7,4.57l-36.21,3.78c-2.28.24-4.34-1.43-4.58-3.71L1.22,13.73c-.24-2.28,1.42-4.33,3.7-4.57l36.21-3.78c2.28-.24,4.34,1.43,4.58,3.71l2.95,27.91Z"/>
      <path class="cls-1" d="M48.66,37c.24,2.28-1.42,4.33-3.7,4.57l-36.21,3.78c-2.28.24-4.34-1.43-4.58-3.71L1.22,13.73c-.24-2.28,1.42-4.33,3.7-4.57l36.21-3.78c2.28-.24,4.34,1.43,4.58,3.71l2.95,27.91Z"/>
    </g>
    <path class="cls-4" d="M36.98,26.96c.05-.45.08-.91.08-1.38s-.03-.98-.09-1.46l-2.94-1.11-.5-1.78,1.07-2.76c-.57-.72-1.18-1.33-1.9-1.9l-3.05,1.23-1.62-.84-1.11-2.8c-.45-.05-.9-.08-1.37-.08-.5,0-.99.03-1.47.09l-1.18,3.04-1.7.59-2.86-1.17c-.78.63-1.48,1.36-2.07,2.17l1.27,2.72-.61,1.62-2.79,1.02c-.06.47-.09.95-.09,1.44,0,.54.04,1.07.11,1.58l2.77,1.03.61,1.59-1.16,2.75c.59.78,1.28,1.48,2.04,2.08l2.91-1.29,1.78,1.03.99,2.64c.48.06.95.09,1.44.09.45,0,.9-.03,1.34-.08l1.33-3.07,1.42-.61,3.13,1.21c.69-.56,1.32-1.2,1.86-1.9l-1.23-2.94.64-1.55,2.92-1.19h.03ZM25.56,28.88c-1.71,0-3.1-1.48-3.1-3.3s1.39-3.29,3.1-3.29,3.1,1.47,3.1,3.29-1.39,3.3-3.1,3.3Z"/>
  </g>
</svg>