<?xml version="1.0" encoding="UTF-8"?>
<svg id="Layer_2" xmlns="http://www.w3.org/2000/svg" viewBox="0 0 45.65 42.94">
  <defs>
    <style>
      .cls-1 {
        fill: #1d1d1b;
      }
    </style>
  </defs>
  <g id="Layer_1-2" data-name="Layer_1">
    <g id="e">
      <g id="f">
        <path class="cls-1" d="M38.89,15.15c-.06-.06-.12-.18-.12-.27V2.76c0-.09-.07-.16-.16-.16h-6.43c-.09,0-.16.07-.16.16v5.74c0,.09-.05.11-.12.05L22.92.04c-.06-.06-.17-.06-.23,0L.03,21.47c-.06.06-.04.11.04.11h4.72c.09,0,.16.07.16.16v21.03c0,.09.07.16.16.16h11.65c.09,0,.16-.07.16-.16v-12.2c0-.09.07-.16.16-.16h11.47c.09,0,.16.07.16.16v12.2c0,.09.07.16.16.16h11.65c.09,0,.16-.07.16-.16v-21.03c0-.09.07-.16.16-.16h4.72c.09,0,.11-.05.04-.11l-6.7-6.34h-.01Z"/>
      </g>
    </g>
  </g>
</svg>