<?xml version="1.0" encoding="UTF-8"?>
<svg id="Kort" xmlns="http://www.w3.org/2000/svg" xmlns:xlink="http://www.w3.org/1999/xlink" viewBox="0 0 309 266">
  <defs>
    <style>
      .cls-1 {
        fill: none;
        stroke: #fff;
        stroke-linejoin: round;
        stroke-width: .75px;
      }

      .cls-2 {
        fill: #4094d3;
      }

      .cls-3 {
        filter: url(#drop-shadow-1);
      }

      .cls-3, .cls-4 {
        fill: #fff;
      }

      .cls-5 {
        fill: #56a1e4;
      }

      .cls-4 {
        filter: url(#drop-shadow-2);
      }
    </style>
    <filter id="drop-shadow-1" x="21.71" y=".19" width="287" height="247" filterUnits="userSpaceOnUse">
      <feOffset dx="5.67" dy="2.83"/>
      <feGaussianBlur result="blur" stdDeviation="8.5"/>
      <feFlood flood-color="#000" flood-opacity=".56"/>
      <feComposite in2="blur" operator="in"/>
      <feComposite in="SourceGraphic"/>
    </filter>
    <filter id="drop-shadow-2" x="-.29" y="19.19" width="287" height="247" filterUnits="userSpaceOnUse">
      <feOffset dx="5.67" dy="2.83"/>
      <feGaussianBlur result="blur-2" stdDeviation="8.5"/>
      <feFlood flood-color="#000" flood-opacity=".56"/>
      <feComposite in2="blur-2" operator="in"/>
      <feComposite in="SourceGraphic"/>
    </filter>
  </defs>
  <g>
    <rect class="cls-3" x="49.66" y="33.81" width="220.09" height="174.71" rx="8.85" ry="8.85" transform="translate(13.54 -16.03) rotate(6)"/>
    <path class="cls-1" d="M254.22,212.32c-1.73,1.07-3.22-5.44-5.24-5.65s-2.62,5.43-4.64,5.21-1.43-5.85-3.46-6.06-2.62,5.43-4.64,5.21-1.43-5.85-3.45-6.06-2.61,5.43-4.64,5.21-1.43-5.85-3.45-6.06-2.61,5.43-4.64,5.21-1.43-5.85-3.45-6.06-2.62,5.43-4.64,5.21-1.43-5.85-3.46-6.06-2.62,5.43-4.64,5.21-1.43-5.85-3.45-6.06-2.62,5.43-4.64,5.21-1.43-5.85-3.45-6.06-2.62,5.43-4.64,5.21-1.43-5.85-3.46-6.06-2.62,5.43-4.64,5.21-1.43-5.85-3.45-6.06-2.62,5.43-4.64,5.21-1.43-5.85-3.46-6.06-2.62,5.43-4.64,5.21-1.43-5.85-3.45-6.06-2.62,5.43-4.64,5.21-1.43-5.85-3.46-6.06-2.62,5.43-4.64,5.21-1.43-5.85-3.46-6.06-2.62,5.43-4.64,5.21-1.43-5.85-3.46-6.06-2.62,5.43-4.64,5.21-1.43-5.85-3.46-6.06-2.62,5.43-4.64,5.21-1.43-5.85-3.46-6.06-2.62,5.43-4.64,5.21-1.43-5.85-3.46-6.06-2.62,5.43-4.64,5.21-1.43-5.85-3.45-6.06-2.62,5.43-4.64,5.21-1.43-5.85-3.46-6.06-2.62,5.43-4.64,5.21-1.43-5.85-3.46-6.06-2.62,5.43-4.64,5.21-1.43-5.85-3.46-6.06-2.62,5.43-4.65,5.21-1.43-5.85-3.46-6.06-2.62,5.43-4.65,5.21-1.43-5.85-3.46-6.06-2.62,5.43-4.65,5.21-1.44-5.85-3.47-6.07-4.83,5.85-6.31,4.45c-1.14-1.08,4.94-3.32,5.1-4.88s-5.47-2.15-5.31-3.71,5.8-.97,5.97-2.53-5.47-2.15-5.31-3.71,5.8-.97,5.97-2.53-5.47-2.15-5.31-3.71,5.8-.97,5.97-2.53-5.47-2.15-5.31-3.71,5.8-.97,5.97-2.53-5.47-2.15-5.31-3.72,5.8-.97,5.97-2.53-5.47-2.15-5.31-3.71,5.8-.97,5.97-2.53-5.47-2.15-5.31-3.71,5.8-.97,5.97-2.53-5.47-2.15-5.31-3.72,5.8-.97,5.97-2.53-5.47-2.15-5.31-3.71,5.8-.97,5.97-2.53-5.47-2.15-5.31-3.72,5.8-.97,5.97-2.53-5.47-2.15-5.31-3.72,5.8-.97,5.97-2.53-5.47-2.15-5.31-3.72,5.8-.97,5.97-2.53-5.47-2.15-5.31-3.72,5.8-.97,5.97-2.53-5.47-2.16-5.31-3.72,5.8-.97,5.97-2.53-5.47-2.16-5.31-3.72,5.8-.97,5.97-2.53-5.47-2.16-5.31-3.72,5.8-.97,5.97-2.53-5.47-2.15-5.31-3.71,5.8-.97,5.97-2.53-5.47-2.16-5.31-3.72,5.8-.97,5.97-2.53-5.47-2.16-5.31-3.72,5.8-.97,5.97-2.53-5.47-2.16-5.31-3.72,5.8-.97,5.97-2.53-5.47-2.16-5.31-3.72,5.8-.97,5.97-2.54-5.47-2.16-5.31-3.72,5.8-.97,5.97-2.53-5.47-2.16-5.31-3.72,5.8-.97,5.97-2.54-5.47-2.16-5.31-3.72,5.8-.97,5.97-2.54-5.32-5.01-3.98-5.84c1.73-1.07,3.22,5.44,5.24,5.65s2.62-5.43,4.64-5.21,1.43,5.85,3.46,6.06,2.62-5.43,4.64-5.21,1.43,5.85,3.45,6.06,2.61-5.43,4.64-5.21,1.43,5.85,3.45,6.06,2.61-5.43,4.64-5.21,1.43,5.85,3.45,6.06,2.62-5.43,4.64-5.21,1.43,5.85,3.46,6.06,2.62-5.43,4.64-5.21,1.43,5.85,3.45,6.06,2.62-5.43,4.64-5.21,1.43,5.85,3.45,6.06,2.62-5.43,4.64-5.21,1.43,5.85,3.46,6.06,2.62-5.43,4.64-5.21,1.43,5.85,3.45,6.06,2.62-5.43,4.64-5.21,1.43,5.85,3.46,6.06,2.62-5.43,4.64-5.21,1.43,5.85,3.45,6.06,2.62-5.43,4.64-5.21,1.43,5.85,3.46,6.06,2.62-5.43,4.64-5.21,1.43,5.85,3.46,6.06,2.62-5.43,4.64-5.21,1.43,5.85,3.46,6.06,2.62-5.43,4.64-5.21,1.43,5.85,3.46,6.06,2.62-5.43,4.64-5.21,1.43,5.85,3.46,6.06,2.62-5.43,4.64-5.21,1.43,5.85,3.46,6.06,2.62-5.43,4.64-5.21,1.43,5.85,3.45,6.06,2.62-5.43,4.64-5.21,1.43,5.85,3.46,6.06,2.62-5.43,4.64-5.21,1.43,5.85,3.46,6.06,2.62-5.43,4.64-5.21,1.43,5.85,3.46,6.06,2.62-5.43,4.65-5.21,1.43,5.85,3.46,6.06,2.62-5.43,4.65-5.21,1.43,5.85,3.46,6.06,2.62-5.43,4.65-5.21,1.44,5.85,3.47,6.07,4.83-5.85,6.31-4.45c1.14,1.08-4.94,3.32-5.1,4.88s5.47,2.15,5.31,3.71-5.8.97-5.97,2.53,5.47,2.15,5.31,3.71-5.8.97-5.97,2.53,5.47,2.15,5.31,3.71-5.8.97-5.97,2.53,5.47,2.15,5.31,3.71-5.8.97-5.97,2.53,5.47,2.15,5.31,3.72-5.8.97-5.97,2.53,5.47,2.15,5.31,3.71-5.8.97-5.97,2.53,5.47,2.15,5.31,3.71-5.8.97-5.97,2.53,5.47,2.15,5.31,3.72-5.8.97-5.97,2.53,5.47,2.15,5.31,3.71-5.8.97-5.97,2.53,5.47,2.15,5.31,3.72-5.8.97-5.97,2.53,5.47,2.15,5.31,3.72-5.8.97-5.97,2.53,5.47,2.15,5.31,3.72-5.8.97-5.97,2.53,5.47,2.15,5.31,3.72-5.8.97-5.97,2.53,5.47,2.16,5.31,3.72-5.8.97-5.97,2.53,5.47,2.16,5.31,3.72-5.8.97-5.97,2.53,5.47,2.16,5.31,3.72-5.8.97-5.97,2.53,5.47,2.15,5.31,3.71-5.8.97-5.97,2.53,5.47,2.16,5.31,3.72-5.8.97-5.97,2.53,5.47,2.16,5.31,3.72-5.8.97-5.97,2.53,5.47,2.16,5.31,3.72-5.8.97-5.97,2.53,5.47,2.16,5.31,3.72-5.8.97-5.97,2.54,5.47,2.16,5.31,3.72-5.8.97-5.97,2.53,5.47,2.16,5.31,3.72-5.8.97-5.97,2.54,5.47,2.16,5.31,3.72-6.3,2.08-5.88,3.59c.8,2.87,5.23,3.96,3.89,4.79Z"/>
    <rect id="board" class="cls-2" x="57.91" y="42.63" width="203.59" height="157.06" rx="6.63" ry="6.63" transform="translate(13.54 -16.03) rotate(6)"/>
    <g id="prickar">
      <g>
        <ellipse class="cls-5" cx="74.78" cy="41.06" rx="4.72" ry="4.65" transform="translate(26.13 111.14) rotate(-84)"/>
        <ellipse class="cls-5" cx="84.02" cy="42.03" rx="4.72" ry="4.65" transform="translate(33.44 121.2) rotate(-84)"/>
        <ellipse class="cls-5" cx="93.27" cy="43" rx="4.72" ry="4.65" transform="translate(40.75 131.27) rotate(-84)"/>
        <ellipse class="cls-5" cx="102.51" cy="43.98" rx="4.72" ry="4.65" transform="translate(48.06 141.33) rotate(-84)"/>
        <ellipse class="cls-5" cx="111.76" cy="44.95" rx="4.72" ry="4.65" transform="translate(55.38 151.39) rotate(-84)"/>
        <ellipse class="cls-5" cx="121" cy="45.92" rx="4.72" ry="4.65" transform="translate(62.69 161.46) rotate(-84)"/>
        <ellipse class="cls-5" cx="130.25" cy="46.89" rx="4.72" ry="4.65" transform="translate(70 171.52) rotate(-84)"/>
        <ellipse class="cls-5" cx="139.49" cy="47.86" rx="4.72" ry="4.65" transform="translate(77.31 181.59) rotate(-84)"/>
        <ellipse class="cls-5" cx="148.74" cy="48.83" rx="4.72" ry="4.65" transform="translate(84.63 191.65) rotate(-84)"/>
        <ellipse class="cls-5" cx="157.98" cy="49.8" rx="4.72" ry="4.65" transform="translate(91.94 201.72) rotate(-84)"/>
        <ellipse class="cls-5" cx="167.23" cy="50.78" rx="4.72" ry="4.65" transform="translate(99.25 211.78) rotate(-84)"/>
        <ellipse class="cls-5" cx="176.47" cy="51.75" rx="4.72" ry="4.65" transform="translate(106.56 221.85) rotate(-84)"/>
        <ellipse class="cls-5" cx="185.72" cy="52.72" rx="4.72" ry="4.65" transform="translate(113.88 231.91) rotate(-84)"/>
        <ellipse class="cls-5" cx="194.96" cy="53.69" rx="4.72" ry="4.65" transform="translate(121.19 241.97) rotate(-84)"/>
        <ellipse class="cls-5" cx="204.21" cy="54.66" rx="4.72" ry="4.65" transform="translate(128.5 252.04) rotate(-84)"/>
        <ellipse class="cls-5" cx="73.79" cy="50.45" rx="4.72" ry="4.65" transform="translate(15.91 118.56) rotate(-84)"/>
        <ellipse class="cls-5" cx="83.04" cy="51.42" rx="4.72" ry="4.65" transform="translate(23.22 128.63) rotate(-84)"/>
        <ellipse class="cls-5" cx="92.28" cy="52.39" rx="4.72" ry="4.65" transform="translate(30.53 138.69) rotate(-84)"/>
        <ellipse class="cls-5" cx="101.53" cy="53.36" rx="4.72" ry="4.65" transform="translate(37.85 148.75) rotate(-84)"/>
        <ellipse class="cls-5" cx="110.77" cy="54.33" rx="4.72" ry="4.65" transform="translate(45.16 158.82) rotate(-84)"/>
        <ellipse class="cls-5" cx="120.02" cy="55.3" rx="4.72" ry="4.65" transform="translate(52.47 168.88) rotate(-84)"/>
        <ellipse class="cls-5" cx="129.26" cy="56.28" rx="4.72" ry="4.65" transform="translate(59.78 178.95) rotate(-84)"/>
        <ellipse class="cls-5" cx="138.51" cy="57.25" rx="4.72" ry="4.65" transform="translate(67.09 189.01) rotate(-84)"/>
        <ellipse class="cls-5" cx="147.75" cy="58.22" rx="4.72" ry="4.65" transform="translate(74.41 199.08) rotate(-84)"/>
        <ellipse class="cls-5" cx="157" cy="59.19" rx="4.72" ry="4.65" transform="translate(81.72 209.14) rotate(-84)"/>
        <ellipse class="cls-5" cx="166.24" cy="60.16" rx="4.72" ry="4.65" transform="translate(89.03 219.21) rotate(-84)"/>
        <ellipse class="cls-5" cx="175.49" cy="61.13" rx="4.72" ry="4.65" transform="translate(96.34 229.27) rotate(-84)"/>
        <ellipse class="cls-5" cx="184.73" cy="62.11" rx="4.72" ry="4.65" transform="translate(103.66 239.33) rotate(-84)"/>
        <ellipse class="cls-5" cx="193.98" cy="63.08" rx="4.72" ry="4.65" transform="translate(110.97 249.4) rotate(-84)"/>
        <ellipse class="cls-5" cx="203.22" cy="64.05" rx="4.72" ry="4.65" transform="translate(118.28 259.46) rotate(-84)"/>
        <ellipse class="cls-5" cx="72.81" cy="59.83" rx="4.72" ry="4.65" transform="translate(5.69 125.99) rotate(-84)"/>
        <ellipse class="cls-5" cx="82.05" cy="60.81" rx="4.72" ry="4.65" transform="translate(13 136.05) rotate(-84)"/>
        <ellipse class="cls-5" cx="91.3" cy="61.78" rx="4.72" ry="4.65" transform="translate(20.31 146.11) rotate(-84)"/>
        <ellipse class="cls-5" cx="100.54" cy="62.75" rx="4.72" ry="4.65" transform="translate(27.63 156.18) rotate(-84)"/>
        <ellipse class="cls-5" cx="109.79" cy="63.72" rx="4.72" ry="4.65" transform="translate(34.94 166.24) rotate(-84)"/>
        <ellipse class="cls-5" cx="119.03" cy="64.69" rx="4.72" ry="4.65" transform="translate(42.25 176.31) rotate(-84)"/>
        <ellipse class="cls-5" cx="128.28" cy="65.66" rx="4.72" ry="4.65" transform="translate(49.56 186.37) rotate(-84)"/>
        <ellipse class="cls-5" cx="137.52" cy="66.63" rx="4.72" ry="4.65" transform="translate(56.88 196.44) rotate(-84)"/>
        <ellipse class="cls-5" cx="146.77" cy="67.61" rx="4.72" ry="4.65" transform="translate(64.19 206.5) rotate(-84)"/>
        <ellipse class="cls-5" cx="156.01" cy="68.58" rx="4.72" ry="4.65" transform="translate(71.5 216.57) rotate(-84)"/>
        <ellipse class="cls-5" cx="165.26" cy="69.55" rx="4.72" ry="4.65" transform="translate(78.81 226.63) rotate(-84)"/>
        <ellipse class="cls-5" cx="174.5" cy="70.52" rx="4.72" ry="4.65" transform="translate(86.13 236.69) rotate(-84)"/>
        <ellipse class="cls-5" cx="183.75" cy="71.49" rx="4.72" ry="4.65" transform="translate(93.44 246.76) rotate(-84)"/>
        <ellipse class="cls-5" cx="192.99" cy="72.46" rx="4.72" ry="4.65" transform="translate(100.75 256.82) rotate(-84)"/>
        <ellipse class="cls-5" cx="202.24" cy="73.44" rx="4.72" ry="4.65" transform="translate(108.06 266.89) rotate(-84)"/>
        <ellipse class="cls-5" cx="71.82" cy="69.22" rx="4.72" ry="4.65" transform="translate(-4.53 133.41) rotate(-84)"/>
        <ellipse class="cls-5" cx="81.06" cy="70.19" rx="4.72" ry="4.65" transform="translate(2.78 143.47) rotate(-84)"/>
        <ellipse class="cls-5" cx="90.31" cy="71.16" rx="4.72" ry="4.65" transform="translate(10.1 153.54) rotate(-84)"/>
        <ellipse class="cls-5" cx="99.55" cy="72.13" rx="4.72" ry="4.65" transform="translate(17.41 163.6) rotate(-84)"/>
        <ellipse class="cls-5" cx="108.8" cy="73.11" rx="4.72" ry="4.65" transform="translate(24.72 173.67) rotate(-84)"/>
        <ellipse class="cls-5" cx="118.04" cy="74.08" rx="4.72" ry="4.65" transform="translate(32.03 183.73) rotate(-84)"/>
        <ellipse class="cls-5" cx="127.29" cy="75.05" rx="4.72" ry="4.65" transform="translate(39.35 193.8) rotate(-84)"/>
        <ellipse class="cls-5" cx="136.53" cy="76.02" rx="4.72" ry="4.65" transform="translate(46.66 203.86) rotate(-84)"/>
        <ellipse class="cls-5" cx="145.78" cy="76.99" rx="4.72" ry="4.65" transform="translate(53.97 213.93) rotate(-84)"/>
        <ellipse class="cls-5" cx="155.02" cy="77.96" rx="4.72" ry="4.65" transform="translate(61.28 223.99) rotate(-84)"/>
        <ellipse class="cls-5" cx="164.27" cy="78.94" rx="4.72" ry="4.65" transform="translate(68.59 234.05) rotate(-84)"/>
        <ellipse class="cls-5" cx="173.51" cy="79.91" rx="4.72" ry="4.65" transform="translate(75.91 244.12) rotate(-84)"/>
        <ellipse class="cls-5" cx="182.76" cy="80.88" rx="4.72" ry="4.65" transform="translate(83.22 254.18) rotate(-84)"/>
        <ellipse class="cls-5" cx="192" cy="81.85" rx="4.72" ry="4.65" transform="translate(90.53 264.25) rotate(-84)"/>
        <ellipse class="cls-5" cx="201.25" cy="82.82" rx="4.72" ry="4.65" transform="translate(97.84 274.31) rotate(-84)"/>
        <ellipse class="cls-5" cx="70.83" cy="78.61" rx="4.72" ry="4.65" transform="translate(-14.75 140.83) rotate(-84)"/>
        <ellipse class="cls-5" cx="80.08" cy="79.58" rx="4.72" ry="4.65" transform="translate(-7.44 150.9) rotate(-84)"/>
        <ellipse class="cls-5" cx="89.32" cy="80.55" rx="4.72" ry="4.65" transform="translate(-.12 160.96) rotate(-84)"/>
        <ellipse class="cls-5" cx="98.57" cy="81.52" rx="4.72" ry="4.65" transform="translate(7.19 171.03) rotate(-84)"/>
        <ellipse class="cls-5" cx="107.81" cy="82.49" rx="4.72" ry="4.65" transform="translate(14.5 181.09) rotate(-84)"/>
        <ellipse class="cls-5" cx="117.06" cy="83.46" rx="4.72" ry="4.65" transform="translate(21.81 191.16) rotate(-84)"/>
        <ellipse class="cls-5" cx="126.3" cy="84.44" rx="4.72" ry="4.65" transform="translate(29.13 201.22) rotate(-84)"/>
        <ellipse class="cls-5" cx="135.55" cy="85.41" rx="4.72" ry="4.65" transform="translate(36.44 211.29) rotate(-84)"/>
        <ellipse class="cls-5" cx="144.79" cy="86.38" rx="4.72" ry="4.65" transform="translate(43.75 221.35) rotate(-84)"/>
        <ellipse class="cls-5" cx="154.04" cy="87.35" rx="4.72" ry="4.65" transform="translate(51.06 231.41) rotate(-84)"/>
        <ellipse class="cls-5" cx="163.28" cy="88.32" rx="4.72" ry="4.65" transform="translate(58.38 241.48) rotate(-84)"/>
        <ellipse class="cls-5" cx="172.53" cy="89.29" rx="4.72" ry="4.65" transform="translate(65.69 251.54) rotate(-84)"/>
        <ellipse class="cls-5" cx="181.77" cy="90.27" rx="4.72" ry="4.65" transform="translate(73 261.61) rotate(-84)"/>
        <ellipse class="cls-5" cx="191.02" cy="91.24" rx="4.72" ry="4.65" transform="translate(80.31 271.67) rotate(-84)"/>
        <ellipse class="cls-5" cx="200.26" cy="92.21" rx="4.72" ry="4.65" transform="translate(87.63 281.74) rotate(-84)"/>
        <ellipse class="cls-5" cx="69.85" cy="87.99" rx="4.72" ry="4.65" transform="translate(-24.97 148.26) rotate(-84)"/>
        <ellipse class="cls-5" cx="79.09" cy="88.96" rx="4.72" ry="4.65" transform="translate(-17.65 158.32) rotate(-84)"/>
        <ellipse class="cls-5" cx="88.34" cy="89.94" rx="4.72" ry="4.65" transform="translate(-10.34 168.39) rotate(-84)"/>
        <ellipse class="cls-5" cx="97.58" cy="90.91" rx="4.72" ry="4.65" transform="translate(-3.03 178.45) rotate(-84)"/>
        <ellipse class="cls-5" cx="106.83" cy="91.88" rx="4.72" ry="4.65" transform="translate(4.28 188.52) rotate(-84)"/>
        <ellipse class="cls-5" cx="116.07" cy="92.85" rx="4.72" ry="4.65" transform="translate(11.6 198.58) rotate(-84)"/>
        <ellipse class="cls-5" cx="125.32" cy="93.82" rx="4.72" ry="4.65" transform="translate(18.91 208.65) rotate(-84)"/>
        <ellipse class="cls-5" cx="134.56" cy="94.79" rx="4.72" ry="4.65" transform="translate(26.22 218.71) rotate(-84)"/>
        <ellipse class="cls-5" cx="143.81" cy="95.77" rx="4.72" ry="4.65" transform="translate(33.53 228.77) rotate(-84)"/>
        <ellipse class="cls-5" cx="153.05" cy="96.74" rx="4.72" ry="4.65" transform="translate(40.85 238.84) rotate(-84)"/>
        <ellipse class="cls-5" cx="162.3" cy="97.71" rx="4.72" ry="4.65" transform="translate(48.16 248.9) rotate(-84)"/>
        <ellipse class="cls-5" cx="171.54" cy="98.68" rx="4.72" ry="4.65" transform="translate(55.47 258.97) rotate(-84)"/>
        <ellipse class="cls-5" cx="180.79" cy="99.65" rx="4.72" ry="4.65" transform="translate(62.78 269.03) rotate(-84)"/>
        <ellipse class="cls-5" cx="190.03" cy="100.62" rx="4.72" ry="4.65" transform="translate(70.09 279.1) rotate(-84)"/>
        <ellipse class="cls-5" cx="199.28" cy="101.6" rx="4.72" ry="4.65" transform="translate(77.41 289.16) rotate(-84)"/>
        <ellipse class="cls-5" cx="68.86" cy="97.38" rx="4.72" ry="4.65" transform="translate(-35.18 155.68) rotate(-84)"/>
        <ellipse class="cls-5" cx="78.1" cy="98.35" rx="4.72" ry="4.65" transform="translate(-27.87 165.75) rotate(-84)"/>
        <ellipse class="cls-5" cx="87.35" cy="99.32" rx="4.72" ry="4.65" transform="translate(-20.56 175.81) rotate(-84)"/>
        <ellipse class="cls-5" cx="96.59" cy="100.29" rx="4.72" ry="4.65" transform="translate(-13.25 185.88) rotate(-84)"/>
        <ellipse class="cls-5" cx="105.84" cy="101.27" rx="4.72" ry="4.65" transform="translate(-5.94 195.94) rotate(-84)"/>
        <ellipse class="cls-5" cx="115.08" cy="102.24" rx="4.72" ry="4.65" transform="translate(1.38 206.01) rotate(-84)"/>
        <ellipse class="cls-5" cx="124.33" cy="103.21" rx="4.72" ry="4.65" transform="translate(8.69 216.07) rotate(-84)"/>
        <ellipse class="cls-5" cx="133.57" cy="104.18" rx="4.72" ry="4.65" transform="translate(16 226.13) rotate(-84)"/>
        <ellipse class="cls-5" cx="142.82" cy="105.15" rx="4.72" ry="4.65" transform="translate(23.31 236.2) rotate(-84)"/>
        <ellipse class="cls-5" cx="152.06" cy="106.12" rx="4.72" ry="4.65" transform="translate(30.63 246.26) rotate(-84)"/>
        <ellipse class="cls-5" cx="161.31" cy="107.1" rx="4.72" ry="4.65" transform="translate(37.94 256.33) rotate(-84)"/>
        <ellipse class="cls-5" cx="170.55" cy="108.07" rx="4.72" ry="4.65" transform="translate(45.25 266.39) rotate(-84)"/>
        <ellipse class="cls-5" cx="179.8" cy="109.04" rx="4.72" ry="4.65" transform="translate(52.56 276.46) rotate(-84)"/>
        <ellipse class="cls-5" cx="189.04" cy="110.01" rx="4.72" ry="4.65" transform="translate(59.88 286.52) rotate(-84)"/>
        <ellipse class="cls-5" cx="198.29" cy="110.98" rx="4.72" ry="4.65" transform="translate(67.19 296.59) rotate(-84)"/>
        <ellipse class="cls-5" cx="67.87" cy="106.77" rx="4.72" ry="4.65" transform="translate(-45.4 163.11) rotate(-84)"/>
        <ellipse class="cls-5" cx="77.12" cy="107.74" rx="4.72" ry="4.65" transform="translate(-38.09 173.17) rotate(-84)"/>
        <ellipse class="cls-5" cx="86.36" cy="108.71" rx="4.72" ry="4.65" transform="translate(-30.78 183.24) rotate(-84)"/>
        <ellipse class="cls-5" cx="95.61" cy="109.68" rx="4.72" ry="4.65" transform="translate(-23.47 193.3) rotate(-84)"/>
        <ellipse class="cls-5" cx="104.85" cy="110.65" rx="4.72" ry="4.65" transform="translate(-16.15 203.37) rotate(-84)"/>
        <ellipse class="cls-5" cx="114.1" cy="111.62" rx="4.72" ry="4.65" transform="translate(-8.84 213.43) rotate(-84)"/>
        <ellipse class="cls-5" cx="123.34" cy="112.6" rx="4.72" ry="4.65" transform="translate(-1.53 223.49) rotate(-84)"/>
        <ellipse class="cls-5" cx="132.59" cy="113.57" rx="4.72" ry="4.65" transform="translate(5.78 233.56) rotate(-84)"/>
        <ellipse class="cls-5" cx="141.83" cy="114.54" rx="4.72" ry="4.65" transform="translate(13.1 243.62) rotate(-84)"/>
        <ellipse class="cls-5" cx="151.08" cy="115.51" rx="4.72" ry="4.65" transform="translate(20.41 253.69) rotate(-84)"/>
        <ellipse class="cls-5" cx="160.32" cy="116.48" rx="4.72" ry="4.65" transform="translate(27.72 263.75) rotate(-84)"/>
        <ellipse class="cls-5" cx="169.57" cy="117.45" rx="4.72" ry="4.65" transform="translate(35.03 273.82) rotate(-84)"/>
        <ellipse class="cls-5" cx="178.81" cy="118.43" rx="4.72" ry="4.65" transform="translate(42.34 283.88) rotate(-84)"/>
        <ellipse class="cls-5" cx="188.06" cy="119.4" rx="4.72" ry="4.65" transform="translate(49.66 293.95) rotate(-84)"/>
        <ellipse class="cls-5" cx="197.3" cy="120.37" rx="4.72" ry="4.65" transform="translate(56.97 304.01) rotate(-84)"/>
        <ellipse class="cls-5" cx="66.89" cy="116.15" rx="4.72" ry="4.65" transform="translate(-55.62 170.53) rotate(-84)"/>
        <ellipse class="cls-5" cx="76.13" cy="117.12" rx="4.72" ry="4.65" transform="translate(-48.31 180.6) rotate(-84)"/>
        <ellipse class="cls-5" cx="85.38" cy="118.1" rx="4.72" ry="4.65" transform="translate(-41 190.66) rotate(-84)"/>
        <ellipse class="cls-5" cx="94.62" cy="119.07" rx="4.72" ry="4.65" transform="translate(-33.68 200.73) rotate(-84)"/>
        <ellipse class="cls-5" cx="103.87" cy="120.04" rx="4.72" ry="4.65" transform="translate(-26.37 210.79) rotate(-84)"/>
        <ellipse class="cls-5" cx="113.11" cy="121.01" rx="4.72" ry="4.65" transform="translate(-19.06 220.85) rotate(-84)"/>
        <ellipse class="cls-5" cx="122.36" cy="121.98" rx="4.72" ry="4.65" transform="translate(-11.75 230.92) rotate(-84)"/>
        <ellipse class="cls-5" cx="131.6" cy="122.95" rx="4.72" ry="4.65" transform="translate(-4.44 240.98) rotate(-84)"/>
        <ellipse class="cls-5" cx="140.85" cy="123.93" rx="4.72" ry="4.65" transform="translate(2.88 251.05) rotate(-84)"/>
        <ellipse class="cls-5" cx="150.09" cy="124.9" rx="4.72" ry="4.65" transform="translate(10.19 261.11) rotate(-84)"/>
        <ellipse class="cls-5" cx="159.34" cy="125.87" rx="4.72" ry="4.65" transform="translate(17.5 271.18) rotate(-84)"/>
        <ellipse class="cls-5" cx="168.58" cy="126.84" rx="4.72" ry="4.65" transform="translate(24.81 281.24) rotate(-84)"/>
        <ellipse class="cls-5" cx="177.83" cy="127.81" rx="4.72" ry="4.65" transform="translate(32.13 291.31) rotate(-84)"/>
        <ellipse class="cls-5" cx="187.07" cy="128.78" rx="4.72" ry="4.65" transform="translate(39.44 301.37) rotate(-84)"/>
        <ellipse class="cls-5" cx="196.32" cy="129.76" rx="4.72" ry="4.65" transform="translate(46.75 311.43) rotate(-84)"/>
        <ellipse class="cls-5" cx="65.9" cy="125.54" rx="4.72" ry="4.65" transform="translate(-65.84 177.96) rotate(-84)"/>
        <ellipse class="cls-5" cx="75.14" cy="126.51" rx="4.72" ry="4.65" transform="translate(-58.53 188.02) rotate(-84)"/>
        <ellipse class="cls-5" cx="84.39" cy="127.48" rx="4.72" ry="4.65" transform="translate(-51.22 198.09) rotate(-84)"/>
        <ellipse class="cls-5" cx="93.63" cy="128.45" rx="4.72" ry="4.65" transform="translate(-43.9 208.15) rotate(-84)"/>
        <ellipse class="cls-5" cx="102.88" cy="129.43" rx="4.72" ry="4.65" transform="translate(-36.59 218.21) rotate(-84)"/>
        <ellipse class="cls-5" cx="112.12" cy="130.4" rx="4.72" ry="4.65" transform="translate(-29.28 228.28) rotate(-84)"/>
        <ellipse class="cls-5" cx="121.37" cy="131.37" rx="4.72" ry="4.65" transform="translate(-21.97 238.34) rotate(-84)"/>
        <ellipse class="cls-5" cx="130.61" cy="132.34" rx="4.72" ry="4.65" transform="translate(-14.65 248.41) rotate(-84)"/>
        <ellipse class="cls-5" cx="139.86" cy="133.31" rx="4.72" ry="4.65" transform="translate(-7.34 258.47) rotate(-84)"/>
        <ellipse class="cls-5" cx="149.1" cy="134.28" rx="4.72" ry="4.65" transform="translate(-.03 268.54) rotate(-84)"/>
        <ellipse class="cls-5" cx="158.35" cy="135.26" rx="4.72" ry="4.65" transform="translate(7.28 278.6) rotate(-84)"/>
        <ellipse class="cls-5" cx="167.59" cy="136.23" rx="4.72" ry="4.65" transform="translate(14.6 288.67) rotate(-84)"/>
        <ellipse class="cls-5" cx="176.84" cy="137.2" rx="4.72" ry="4.65" transform="translate(21.91 298.73) rotate(-84)"/>
        <ellipse class="cls-5" cx="186.08" cy="138.17" rx="4.72" ry="4.65" transform="translate(29.22 308.79) rotate(-84)"/>
        <ellipse class="cls-5" cx="195.33" cy="139.14" rx="4.72" ry="4.65" transform="translate(36.53 318.86) rotate(-84)"/>
        <ellipse class="cls-5" cx="64.91" cy="134.93" rx="4.72" ry="4.65" transform="translate(-76.06 185.38) rotate(-84)"/>
        <ellipse class="cls-5" cx="74.16" cy="135.9" rx="4.72" ry="4.65" transform="translate(-68.75 195.45) rotate(-84)"/>
        <ellipse class="cls-5" cx="83.4" cy="136.87" rx="4.72" ry="4.65" transform="translate(-61.43 205.51) rotate(-84)"/>
        <ellipse class="cls-5" cx="92.65" cy="137.84" rx="4.72" ry="4.65" transform="translate(-54.12 215.57) rotate(-84)"/>
        <ellipse class="cls-5" cx="101.89" cy="138.81" rx="4.72" ry="4.65" transform="translate(-46.81 225.64) rotate(-84)"/>
        <ellipse class="cls-5" cx="111.14" cy="139.78" rx="4.72" ry="4.65" transform="translate(-39.5 235.7) rotate(-84)"/>
        <ellipse class="cls-5" cx="120.38" cy="140.76" rx="4.72" ry="4.65" transform="translate(-32.19 245.77) rotate(-84)"/>
        <ellipse class="cls-5" cx="129.63" cy="141.73" rx="4.72" ry="4.65" transform="translate(-24.87 255.83) rotate(-84)"/>
        <ellipse class="cls-5" cx="138.87" cy="142.7" rx="4.72" ry="4.65" transform="translate(-17.56 265.9) rotate(-84)"/>
        <ellipse class="cls-5" cx="148.12" cy="143.67" rx="4.72" ry="4.65" transform="translate(-10.25 275.96) rotate(-84)"/>
        <ellipse class="cls-5" cx="157.36" cy="144.64" rx="4.72" ry="4.65" transform="translate(-2.94 286.03) rotate(-84)"/>
        <ellipse class="cls-5" cx="166.61" cy="145.61" rx="4.72" ry="4.65" transform="translate(4.38 296.09) rotate(-84)"/>
        <ellipse class="cls-5" cx="175.85" cy="146.59" rx="4.72" ry="4.65" transform="translate(11.69 306.15) rotate(-84)"/>
        <ellipse class="cls-5" cx="185.1" cy="147.56" rx="4.72" ry="4.65" transform="translate(19 316.22) rotate(-84)"/>
        <ellipse class="cls-5" cx="194.34" cy="148.53" rx="4.72" ry="4.65" transform="translate(26.31 326.28) rotate(-84)"/>
        <ellipse class="cls-5" cx="63.93" cy="144.31" rx="4.72" ry="4.65" transform="translate(-86.28 192.81) rotate(-84)"/>
        <ellipse class="cls-5" cx="73.17" cy="145.28" rx="4.72" ry="4.65" transform="translate(-78.97 202.87) rotate(-84)"/>
        <ellipse class="cls-5" cx="82.42" cy="146.26" rx="4.72" ry="4.65" transform="translate(-71.65 212.93) rotate(-84)"/>
        <ellipse class="cls-5" cx="91.66" cy="147.23" rx="4.72" ry="4.65" transform="translate(-64.34 223) rotate(-84)"/>
        <ellipse class="cls-5" cx="100.91" cy="148.2" rx="4.72" ry="4.65" transform="translate(-57.03 233.06) rotate(-84)"/>
        <ellipse class="cls-5" cx="110.15" cy="149.17" rx="4.72" ry="4.65" transform="translate(-49.72 243.13) rotate(-84)"/>
        <ellipse class="cls-5" cx="119.4" cy="150.14" rx="4.72" ry="4.65" transform="translate(-42.4 253.19) rotate(-84)"/>
        <ellipse class="cls-5" cx="128.64" cy="151.11" rx="4.72" ry="4.65" transform="translate(-35.09 263.26) rotate(-84)"/>
        <ellipse class="cls-5" cx="137.89" cy="152.09" rx="4.72" ry="4.65" transform="translate(-27.78 273.32) rotate(-84)"/>
        <ellipse class="cls-5" cx="147.13" cy="153.06" rx="4.72" ry="4.65" transform="translate(-20.47 283.39) rotate(-84)"/>
        <ellipse class="cls-5" cx="156.38" cy="154.03" rx="4.72" ry="4.65" transform="translate(-13.15 293.45) rotate(-84)"/>
        <ellipse class="cls-5" cx="165.62" cy="155" rx="4.72" ry="4.65" transform="translate(-5.84 303.51) rotate(-84)"/>
        <ellipse class="cls-5" cx="174.87" cy="155.97" rx="4.72" ry="4.65" transform="translate(1.47 313.58) rotate(-84)"/>
        <ellipse class="cls-5" cx="184.11" cy="156.94" rx="4.72" ry="4.65" transform="translate(8.78 323.64) rotate(-84)"/>
        <ellipse class="cls-5" cx="193.36" cy="157.92" rx="4.72" ry="4.65" transform="translate(16.09 333.71) rotate(-84)"/>
        <ellipse class="cls-5" cx="62.94" cy="153.7" rx="4.72" ry="4.65" transform="translate(-96.5 200.23) rotate(-84)"/>
        <ellipse class="cls-5" cx="72.19" cy="154.67" rx="4.72" ry="4.65" transform="translate(-89.18 210.29) rotate(-84)"/>
        <ellipse class="cls-5" cx="81.43" cy="155.64" rx="4.72" ry="4.65" transform="translate(-81.87 220.36) rotate(-84)"/>
        <ellipse class="cls-5" cx="90.67" cy="156.61" rx="4.72" ry="4.65" transform="translate(-74.56 230.42) rotate(-84)"/>
        <ellipse class="cls-5" cx="99.92" cy="157.59" rx="4.72" ry="4.65" transform="translate(-67.25 240.49) rotate(-84)"/>
        <ellipse class="cls-5" cx="109.16" cy="158.56" rx="4.72" ry="4.65" transform="translate(-59.93 250.55) rotate(-84)"/>
        <ellipse class="cls-5" cx="118.41" cy="159.53" rx="4.72" ry="4.65" transform="translate(-52.62 260.62) rotate(-84)"/>
        <ellipse class="cls-5" cx="127.65" cy="160.5" rx="4.72" ry="4.65" transform="translate(-45.31 270.68) rotate(-84)"/>
        <ellipse class="cls-5" cx="136.9" cy="161.47" rx="4.72" ry="4.65" transform="translate(-38 280.75) rotate(-84)"/>
        <ellipse class="cls-5" cx="146.14" cy="162.44" rx="4.72" ry="4.65" transform="translate(-30.69 290.81) rotate(-84)"/>
        <ellipse class="cls-5" cx="155.39" cy="163.42" rx="4.72" ry="4.65" transform="translate(-23.37 300.87) rotate(-84)"/>
        <ellipse class="cls-5" cx="164.63" cy="164.39" rx="4.72" ry="4.65" transform="translate(-16.06 310.94) rotate(-84)"/>
        <ellipse class="cls-5" cx="173.88" cy="165.36" rx="4.72" ry="4.65" transform="translate(-8.75 321) rotate(-84)"/>
        <ellipse class="cls-5" cx="183.12" cy="166.33" rx="4.72" ry="4.65" transform="translate(-1.44 331.07) rotate(-84)"/>
        <ellipse class="cls-5" cx="192.37" cy="167.3" rx="4.72" ry="4.65" transform="translate(5.88 341.13) rotate(-84)"/>
        <ellipse class="cls-5" cx="61.95" cy="163.09" rx="4.72" ry="4.65" transform="translate(-106.72 207.65) rotate(-84)"/>
        <ellipse class="cls-5" cx="71.2" cy="164.06" rx="4.72" ry="4.65" transform="translate(-99.4 217.72) rotate(-84)"/>
        <ellipse class="cls-5" cx="80.44" cy="165.03" rx="4.72" ry="4.65" transform="translate(-92.09 227.78) rotate(-84)"/>
        <ellipse class="cls-5" cx="89.69" cy="166" rx="4.72" ry="4.65" transform="translate(-84.78 237.85) rotate(-84)"/>
        <ellipse class="cls-5" cx="98.93" cy="166.97" rx="4.72" ry="4.65" transform="translate(-77.47 247.91) rotate(-84)"/>
        <ellipse class="cls-5" cx="108.18" cy="167.94" rx="4.72" ry="4.65" transform="translate(-70.15 257.98) rotate(-84)"/>
        <ellipse class="cls-5" cx="117.42" cy="168.92" rx="4.72" ry="4.65" transform="translate(-62.84 268.04) rotate(-84)"/>
        <ellipse class="cls-5" cx="126.67" cy="169.89" rx="4.72" ry="4.65" transform="translate(-55.53 278.11) rotate(-84)"/>
        <ellipse class="cls-5" cx="135.91" cy="170.86" rx="4.72" ry="4.65" transform="translate(-48.22 288.17) rotate(-84)"/>
        <ellipse class="cls-5" cx="145.16" cy="171.83" rx="4.72" ry="4.65" transform="translate(-40.9 298.23) rotate(-84)"/>
        <ellipse class="cls-5" cx="154.4" cy="172.8" rx="4.72" ry="4.65" transform="translate(-33.59 308.3) rotate(-84)"/>
        <ellipse class="cls-5" cx="163.65" cy="173.77" rx="4.72" ry="4.65" transform="translate(-26.28 318.36) rotate(-84)"/>
        <ellipse class="cls-5" cx="172.89" cy="174.75" rx="4.72" ry="4.65" transform="translate(-18.97 328.43) rotate(-84)"/>
        <ellipse class="cls-5" cx="182.14" cy="175.72" rx="4.72" ry="4.65" transform="translate(-11.65 338.49) rotate(-84)"/>
        <ellipse class="cls-5" cx="191.38" cy="176.69" rx="4.72" ry="4.65" transform="translate(-4.34 348.56) rotate(-84)"/>
      </g>
      <ellipse class="cls-5" cx="213.71" cy="55.66" rx="4.72" ry="4.65" transform="translate(136.01 262.38) rotate(-84)"/>
      <ellipse class="cls-5" cx="222.95" cy="56.63" rx="4.72" ry="4.65" transform="translate(143.33 272.45) rotate(-84)"/>
      <ellipse class="cls-5" cx="232.2" cy="57.6" rx="4.72" ry="4.65" transform="translate(150.64 282.51) rotate(-84)"/>
      <ellipse class="cls-5" cx="241.44" cy="58.58" rx="4.72" ry="4.65" transform="translate(157.95 292.57) rotate(-84)"/>
      <ellipse class="cls-5" cx="250.69" cy="59.55" rx="4.72" ry="4.65" transform="translate(165.26 302.64) rotate(-84)"/>
      <ellipse class="cls-5" cx="259.93" cy="60.52" rx="4.72" ry="4.65" transform="translate(172.58 312.7) rotate(-84)"/>
      <ellipse class="cls-5" cx="212.72" cy="65.05" rx="4.72" ry="4.65" transform="translate(125.79 269.81) rotate(-84)"/>
      <ellipse class="cls-5" cx="221.97" cy="66.02" rx="4.72" ry="4.65" transform="translate(133.11 279.87) rotate(-84)"/>
      <ellipse class="cls-5" cx="231.21" cy="66.99" rx="4.72" ry="4.65" transform="translate(140.42 289.93) rotate(-84)"/>
      <ellipse class="cls-5" cx="240.46" cy="67.96" rx="4.72" ry="4.65" transform="translate(147.73 300) rotate(-84)"/>
      <ellipse class="cls-5" cx="249.7" cy="68.93" rx="4.72" ry="4.65" transform="translate(155.04 310.06) rotate(-84)"/>
      <ellipse class="cls-5" cx="258.95" cy="69.91" rx="4.72" ry="4.65" transform="translate(162.36 320.13) rotate(-84)"/>
      <ellipse class="cls-5" cx="211.73" cy="74.43" rx="4.72" ry="4.65" transform="translate(115.58 277.23) rotate(-84)"/>
      <ellipse class="cls-5" cx="220.98" cy="75.41" rx="4.72" ry="4.65" transform="translate(122.89 287.29) rotate(-84)"/>
      <ellipse class="cls-5" cx="230.22" cy="76.38" rx="4.72" ry="4.65" transform="translate(130.2 297.36) rotate(-84)"/>
      <ellipse class="cls-5" cx="239.47" cy="77.35" rx="4.72" ry="4.65" transform="translate(137.51 307.42) rotate(-84)"/>
      <ellipse class="cls-5" cx="248.71" cy="78.32" rx="4.72" ry="4.65" transform="translate(144.83 317.49) rotate(-84)"/>
      <ellipse class="cls-5" cx="257.96" cy="79.29" rx="4.72" ry="4.65" transform="translate(152.14 327.55) rotate(-84)"/>
      <ellipse class="cls-5" cx="210.75" cy="83.82" rx="4.72" ry="4.65" transform="translate(105.36 284.65) rotate(-84)"/>
      <ellipse class="cls-5" cx="219.99" cy="84.79" rx="4.72" ry="4.65" transform="translate(112.67 294.72) rotate(-84)"/>
      <ellipse class="cls-5" cx="229.24" cy="85.76" rx="4.72" ry="4.65" transform="translate(119.98 304.78) rotate(-84)"/>
      <ellipse class="cls-5" cx="238.48" cy="86.74" rx="4.72" ry="4.65" transform="translate(127.29 314.85) rotate(-84)"/>
      <ellipse class="cls-5" cx="247.73" cy="87.71" rx="4.72" ry="4.65" transform="translate(134.61 324.91) rotate(-84)"/>
      <ellipse class="cls-5" cx="256.97" cy="88.68" rx="4.72" ry="4.65" transform="translate(141.92 334.98) rotate(-84)"/>
      <ellipse class="cls-5" cx="209.76" cy="93.21" rx="4.72" ry="4.65" transform="translate(95.14 292.08) rotate(-84)"/>
      <ellipse class="cls-5" cx="219.01" cy="94.18" rx="4.72" ry="4.65" transform="translate(102.45 302.14) rotate(-84)"/>
      <ellipse class="cls-5" cx="228.25" cy="95.15" rx="4.72" ry="4.65" transform="translate(109.76 312.21) rotate(-84)"/>
      <ellipse class="cls-5" cx="237.5" cy="96.12" rx="4.72" ry="4.65" transform="translate(117.08 322.27) rotate(-84)"/>
      <ellipse class="cls-5" cx="246.74" cy="97.09" rx="4.72" ry="4.65" transform="translate(124.39 332.34) rotate(-84)"/>
      <ellipse class="cls-5" cx="255.99" cy="98.07" rx="4.72" ry="4.65" transform="translate(131.7 342.4) rotate(-84)"/>
      <ellipse class="cls-5" cx="208.77" cy="102.59" rx="4.72" ry="4.65" transform="translate(84.92 299.5) rotate(-84)"/>
      <ellipse class="cls-5" cx="218.02" cy="103.57" rx="4.72" ry="4.65" transform="translate(92.23 309.57) rotate(-84)"/>
      <ellipse class="cls-5" cx="227.26" cy="104.54" rx="4.72" ry="4.65" transform="translate(99.54 319.63) rotate(-84)"/>
      <ellipse class="cls-5" cx="236.51" cy="105.51" rx="4.72" ry="4.65" transform="translate(106.86 329.7) rotate(-84)"/>
      <ellipse class="cls-5" cx="245.75" cy="106.48" rx="4.72" ry="4.65" transform="translate(114.17 339.76) rotate(-84)"/>
      <ellipse class="cls-5" cx="255" cy="107.45" rx="4.72" ry="4.65" transform="translate(121.48 349.82) rotate(-84)"/>
      <ellipse class="cls-5" cx="207.79" cy="111.98" rx="4.72" ry="4.65" transform="translate(74.7 306.93) rotate(-84)"/>
      <ellipse class="cls-5" cx="217.03" cy="112.95" rx="4.72" ry="4.65" transform="translate(82.01 316.99) rotate(-84)"/>
      <ellipse class="cls-5" cx="226.28" cy="113.92" rx="4.72" ry="4.65" transform="translate(89.33 327.06) rotate(-84)"/>
      <ellipse class="cls-5" cx="235.52" cy="114.9" rx="4.72" ry="4.65" transform="translate(96.64 337.12) rotate(-84)"/>
      <ellipse class="cls-5" cx="244.77" cy="115.87" rx="4.72" ry="4.65" transform="translate(103.95 347.18) rotate(-84)"/>
      <ellipse class="cls-5" cx="254.01" cy="116.84" rx="4.72" ry="4.65" transform="translate(111.26 357.25) rotate(-84)"/>
      <ellipse class="cls-5" cx="206.8" cy="121.37" rx="4.72" ry="4.65" transform="translate(64.48 314.35) rotate(-84)"/>
      <ellipse class="cls-5" cx="216.05" cy="122.34" rx="4.72" ry="4.65" transform="translate(71.8 324.42) rotate(-84)"/>
      <ellipse class="cls-5" cx="225.29" cy="123.31" rx="4.72" ry="4.65" transform="translate(79.11 334.48) rotate(-84)"/>
      <ellipse class="cls-5" cx="234.54" cy="124.28" rx="4.72" ry="4.65" transform="translate(86.42 344.54) rotate(-84)"/>
      <ellipse class="cls-5" cx="243.78" cy="125.25" rx="4.72" ry="4.65" transform="translate(93.73 354.61) rotate(-84)"/>
      <ellipse class="cls-5" cx="253.03" cy="126.23" rx="4.72" ry="4.65" transform="translate(101.04 364.67) rotate(-84)"/>
      <ellipse class="cls-5" cx="205.82" cy="130.75" rx="4.72" ry="4.65" transform="translate(54.26 321.78) rotate(-84)"/>
      <ellipse class="cls-5" cx="215.06" cy="131.73" rx="4.72" ry="4.65" transform="translate(61.58 331.84) rotate(-84)"/>
      <ellipse class="cls-5" cx="224.31" cy="132.7" rx="4.72" ry="4.65" transform="translate(68.89 341.9) rotate(-84)"/>
      <ellipse class="cls-5" cx="233.55" cy="133.67" rx="4.72" ry="4.65" transform="translate(76.2 351.97) rotate(-84)"/>
      <ellipse class="cls-5" cx="242.8" cy="134.64" rx="4.72" ry="4.65" transform="translate(83.51 362.03) rotate(-84)"/>
      <ellipse class="cls-5" cx="252.04" cy="135.61" rx="4.72" ry="4.65" transform="translate(90.83 372.1) rotate(-84)"/>
      <ellipse class="cls-5" cx="204.83" cy="140.14" rx="4.72" ry="4.65" transform="translate(44.05 329.2) rotate(-84)"/>
      <ellipse class="cls-5" cx="214.07" cy="141.11" rx="4.72" ry="4.65" transform="translate(51.36 339.26) rotate(-84)"/>
      <ellipse class="cls-5" cx="223.32" cy="142.08" rx="4.72" ry="4.65" transform="translate(58.67 349.33) rotate(-84)"/>
      <ellipse class="cls-5" cx="232.56" cy="143.06" rx="4.72" ry="4.65" transform="translate(65.98 359.39) rotate(-84)"/>
      <ellipse class="cls-5" cx="241.81" cy="144.03" rx="4.72" ry="4.65" transform="translate(73.3 369.46) rotate(-84)"/>
      <ellipse class="cls-5" cx="251.05" cy="145" rx="4.72" ry="4.65" transform="translate(80.61 379.52) rotate(-84)"/>
      <ellipse class="cls-5" cx="203.84" cy="149.53" rx="4.72" ry="4.65" transform="translate(33.83 336.62) rotate(-84)"/>
      <ellipse class="cls-5" cx="213.09" cy="150.5" rx="4.72" ry="4.65" transform="translate(41.14 346.69) rotate(-84)"/>
      <ellipse class="cls-5" cx="222.33" cy="151.47" rx="4.72" ry="4.65" transform="translate(48.45 356.75) rotate(-84)"/>
      <ellipse class="cls-5" cx="231.58" cy="152.44" rx="4.72" ry="4.65" transform="translate(55.76 366.82) rotate(-84)"/>
      <ellipse class="cls-5" cx="240.82" cy="153.41" rx="4.72" ry="4.65" transform="translate(63.08 376.88) rotate(-84)"/>
      <ellipse class="cls-5" cx="250.07" cy="154.39" rx="4.72" ry="4.65" transform="translate(70.39 386.95) rotate(-84)"/>
      <ellipse class="cls-5" cx="202.86" cy="158.91" rx="4.72" ry="4.65" transform="translate(23.61 344.05) rotate(-84)"/>
      <ellipse class="cls-5" cx="212.1" cy="159.89" rx="4.72" ry="4.65" transform="translate(30.92 354.11) rotate(-84)"/>
      <ellipse class="cls-5" cx="221.35" cy="160.86" rx="4.72" ry="4.65" transform="translate(38.23 364.18) rotate(-84)"/>
      <ellipse class="cls-5" cx="230.59" cy="161.83" rx="4.72" ry="4.65" transform="translate(45.55 374.24) rotate(-84)"/>
      <ellipse class="cls-5" cx="239.84" cy="162.8" rx="4.72" ry="4.65" transform="translate(52.86 384.31) rotate(-84)"/>
      <ellipse class="cls-5" cx="249.08" cy="163.77" rx="4.72" ry="4.65" transform="translate(60.17 394.37) rotate(-84)"/>
      <ellipse class="cls-5" cx="201.87" cy="168.3" rx="4.72" ry="4.65" transform="translate(13.39 351.47) rotate(-84)"/>
      <ellipse class="cls-5" cx="211.11" cy="169.27" rx="4.72" ry="4.65" transform="translate(20.7 361.54) rotate(-84)"/>
      <ellipse class="cls-5" cx="220.36" cy="170.24" rx="4.72" ry="4.65" transform="translate(28.01 371.6) rotate(-84)"/>
      <ellipse class="cls-5" cx="229.6" cy="171.22" rx="4.72" ry="4.65" transform="translate(35.33 381.67) rotate(-84)"/>
      <ellipse class="cls-5" cx="238.85" cy="172.19" rx="4.72" ry="4.65" transform="translate(42.64 391.73) rotate(-84)"/>
      <ellipse class="cls-5" cx="248.09" cy="173.16" rx="4.72" ry="4.65" transform="translate(49.95 401.8) rotate(-84)"/>
      <ellipse class="cls-5" cx="200.88" cy="177.69" rx="4.72" ry="4.65" transform="translate(3.17 358.9) rotate(-84)"/>
      <ellipse class="cls-5" cx="210.13" cy="178.66" rx="4.72" ry="4.65" transform="translate(10.48 368.96) rotate(-84)"/>
      <ellipse class="cls-5" cx="219.37" cy="179.63" rx="4.72" ry="4.65" transform="translate(17.8 379.03) rotate(-84)"/>
      <ellipse class="cls-5" cx="228.62" cy="180.6" rx="4.72" ry="4.65" transform="translate(25.11 389.09) rotate(-84)"/>
      <ellipse class="cls-5" cx="237.86" cy="181.57" rx="4.72" ry="4.65" transform="translate(32.42 399.16) rotate(-84)"/>
      <ellipse class="cls-5" cx="247.11" cy="182.55" rx="4.72" ry="4.65" transform="translate(39.73 409.22) rotate(-84)"/>
      <g>
        <g>
          <ellipse class="cls-5" cx="60.99" cy="172.3" rx="4.72" ry="4.65" transform="translate(-116.75 214.94) rotate(-84)"/>
          <ellipse class="cls-5" cx="70.23" cy="173.27" rx="4.72" ry="4.65" transform="translate(-109.43 225.01) rotate(-84)"/>
          <ellipse class="cls-5" cx="79.48" cy="174.24" rx="4.72" ry="4.65" transform="translate(-102.12 235.07) rotate(-84)"/>
          <ellipse class="cls-5" cx="88.72" cy="175.22" rx="4.72" ry="4.65" transform="translate(-94.81 245.14) rotate(-84)"/>
          <ellipse class="cls-5" cx="97.97" cy="176.19" rx="4.72" ry="4.65" transform="translate(-87.5 255.2) rotate(-84)"/>
          <ellipse class="cls-5" cx="107.21" cy="177.16" rx="4.72" ry="4.65" transform="translate(-80.18 265.26) rotate(-84)"/>
          <ellipse class="cls-5" cx="60" cy="181.69" rx="4.72" ry="4.65" transform="translate(-126.96 222.37) rotate(-84)"/>
          <ellipse class="cls-5" cx="69.24" cy="182.66" rx="4.72" ry="4.65" transform="translate(-119.65 232.43) rotate(-84)"/>
          <ellipse class="cls-5" cx="78.49" cy="183.63" rx="4.72" ry="4.65" transform="translate(-112.34 242.5) rotate(-84)"/>
          <ellipse class="cls-5" cx="87.73" cy="184.6" rx="4.72" ry="4.65" transform="translate(-105.03 252.56) rotate(-84)"/>
          <ellipse class="cls-5" cx="96.98" cy="185.57" rx="4.72" ry="4.65" transform="translate(-97.71 262.62) rotate(-84)"/>
          <ellipse class="cls-5" cx="106.22" cy="186.55" rx="4.72" ry="4.65" transform="translate(-90.4 272.69) rotate(-84)"/>
        </g>
        <g>
          <ellipse class="cls-5" cx="116.45" cy="178.13" rx="4.72" ry="4.65" transform="translate(-72.87 275.33) rotate(-84)"/>
          <ellipse class="cls-5" cx="125.7" cy="179.1" rx="4.72" ry="4.65" transform="translate(-65.56 285.39) rotate(-84)"/>
          <ellipse class="cls-5" cx="134.94" cy="180.07" rx="4.72" ry="4.65" transform="translate(-58.25 295.46) rotate(-84)"/>
          <ellipse class="cls-5" cx="144.19" cy="181.04" rx="4.72" ry="4.65" transform="translate(-50.93 305.52) rotate(-84)"/>
          <ellipse class="cls-5" cx="153.43" cy="182.02" rx="4.72" ry="4.65" transform="translate(-43.62 315.59) rotate(-84)"/>
          <ellipse class="cls-5" cx="162.68" cy="182.99" rx="4.72" ry="4.65" transform="translate(-36.31 325.65) rotate(-84)"/>
          <ellipse class="cls-5" cx="115.47" cy="187.52" rx="4.72" ry="4.65" transform="translate(-83.09 282.75) rotate(-84)"/>
          <ellipse class="cls-5" cx="124.71" cy="188.49" rx="4.72" ry="4.65" transform="translate(-75.78 292.82) rotate(-84)"/>
          <ellipse class="cls-5" cx="133.96" cy="189.46" rx="4.72" ry="4.65" transform="translate(-68.47 302.88) rotate(-84)"/>
          <ellipse class="cls-5" cx="143.2" cy="190.43" rx="4.72" ry="4.65" transform="translate(-61.15 312.95) rotate(-84)"/>
          <ellipse class="cls-5" cx="152.45" cy="191.4" rx="4.72" ry="4.65" transform="translate(-53.84 323.01) rotate(-84)"/>
          <ellipse class="cls-5" cx="161.69" cy="192.37" rx="4.72" ry="4.65" transform="translate(-46.53 333.07) rotate(-84)"/>
        </g>
      </g>
      <g>
        <ellipse class="cls-5" cx="171.91" cy="184.13" rx="4.72" ry="4.65" transform="translate(-29.19 335.85) rotate(-84)"/>
        <ellipse class="cls-5" cx="181.15" cy="185.1" rx="4.72" ry="4.65" transform="translate(-21.87 345.92) rotate(-84)"/>
        <ellipse class="cls-5" cx="190.4" cy="186.08" rx="4.72" ry="4.65" transform="translate(-14.56 355.98) rotate(-84)"/>
        <ellipse class="cls-5" cx="199.64" cy="187.05" rx="4.72" ry="4.65" transform="translate(-7.25 366.04) rotate(-84)"/>
        <ellipse class="cls-5" cx="208.89" cy="188.02" rx="4.72" ry="4.65" transform="translate(.06 376.11) rotate(-84)"/>
        <ellipse class="cls-5" cx="218.13" cy="188.99" rx="4.72" ry="4.65" transform="translate(7.38 386.17) rotate(-84)"/>
        <ellipse class="cls-5" cx="170.92" cy="193.52" rx="4.72" ry="4.65" transform="translate(-39.4 343.28) rotate(-84)"/>
        <ellipse class="cls-5" cx="180.17" cy="194.49" rx="4.72" ry="4.65" transform="translate(-32.09 353.34) rotate(-84)"/>
        <ellipse class="cls-5" cx="189.41" cy="195.46" rx="4.72" ry="4.65" transform="translate(-24.78 363.4) rotate(-84)"/>
        <ellipse class="cls-5" cx="198.66" cy="196.43" rx="4.72" ry="4.65" transform="translate(-17.47 373.47) rotate(-84)"/>
        <ellipse class="cls-5" cx="207.9" cy="197.41" rx="4.72" ry="4.65" transform="translate(-10.15 383.53) rotate(-84)"/>
        <ellipse class="cls-5" cx="217.15" cy="198.38" rx="4.72" ry="4.65" transform="translate(-2.84 393.6) rotate(-84)"/>
      </g>
      <ellipse class="cls-5" cx="227.38" cy="189.96" rx="4.72" ry="4.65" transform="translate(14.69 396.24) rotate(-84)"/>
      <ellipse class="cls-5" cx="236.62" cy="190.93" rx="4.72" ry="4.65" transform="translate(22 406.3) rotate(-84)"/>
      <ellipse class="cls-5" cx="245.87" cy="191.91" rx="4.72" ry="4.65" transform="translate(29.31 416.37) rotate(-84)"/>
      <ellipse class="cls-5" cx="226.39" cy="199.35" rx="4.72" ry="4.65" transform="translate(4.47 403.66) rotate(-84)"/>
      <ellipse class="cls-5" cx="235.64" cy="200.32" rx="4.72" ry="4.65" transform="translate(11.78 413.73) rotate(-84)"/>
      <ellipse class="cls-5" cx="244.88" cy="201.29" rx="4.72" ry="4.65" transform="translate(19.09 423.79) rotate(-84)"/>
    </g>
  </g>
  <g>
    <rect class="cls-4" x="27.57" y="52.6" width="220.09" height="174.71" rx="8.85" ry="8.85" transform="translate(15.38 -13.62) rotate(6)"/>
    <path class="cls-1" d="M232.14,231.11c-1.73,1.07-3.22-5.44-5.24-5.65s-2.62,5.43-4.64,5.21-1.43-5.85-3.46-6.06-2.62,5.43-4.64,5.21-1.43-5.85-3.45-6.06-2.61,5.43-4.64,5.21-1.43-5.85-3.45-6.06-2.61,5.43-4.64,5.21-1.43-5.85-3.45-6.06-2.62,5.43-4.64,5.21-1.43-5.85-3.46-6.06-2.62,5.43-4.64,5.21-1.43-5.85-3.45-6.06-2.62,5.43-4.64,5.21-1.43-5.85-3.45-6.06-2.62,5.43-4.64,5.21-1.43-5.85-3.46-6.06-2.62,5.43-4.64,5.21-1.43-5.85-3.45-6.06-2.62,5.43-4.64,5.21-1.43-5.85-3.46-6.06-2.62,5.43-4.64,5.21-1.43-5.85-3.45-6.06-2.62,5.43-4.64,5.21-1.43-5.85-3.46-6.06-2.62,5.43-4.64,5.21-1.43-5.85-3.46-6.06-2.62,5.43-4.64,5.21-1.43-5.85-3.46-6.06-2.62,5.43-4.64,5.21-1.43-5.85-3.46-6.06-2.62,5.43-4.64,5.21-1.43-5.85-3.46-6.06-2.62,5.43-4.64,5.21-1.43-5.85-3.46-6.06-2.62,5.43-4.64,5.21-1.43-5.85-3.45-6.06-2.62,5.43-4.64,5.21-1.43-5.85-3.46-6.06-2.62,5.43-4.64,5.21-1.43-5.85-3.46-6.06-2.62,5.43-4.64,5.21-1.43-5.85-3.46-6.06-2.62,5.43-4.65,5.21-1.43-5.85-3.46-6.06-2.62,5.43-4.65,5.21-1.43-5.85-3.46-6.06-2.62,5.43-4.65,5.21-1.44-5.85-3.47-6.07-4.83,5.85-6.31,4.45c-1.14-1.08,4.94-3.32,5.1-4.88s-5.47-2.15-5.31-3.71,5.8-.97,5.97-2.53-5.47-2.15-5.31-3.71,5.8-.97,5.97-2.53-5.47-2.15-5.31-3.71,5.8-.97,5.97-2.53-5.47-2.15-5.31-3.71,5.8-.97,5.97-2.53-5.47-2.15-5.31-3.72,5.8-.97,5.97-2.53-5.47-2.15-5.31-3.71,5.8-.97,5.97-2.53-5.47-2.15-5.31-3.71,5.8-.97,5.97-2.53-5.47-2.15-5.31-3.72,5.8-.97,5.97-2.53-5.47-2.15-5.31-3.71,5.8-.97,5.97-2.53-5.47-2.15-5.31-3.72,5.8-.97,5.97-2.53-5.47-2.15-5.31-3.72,5.8-.97,5.97-2.53-5.47-2.15-5.31-3.72,5.8-.97,5.97-2.53-5.47-2.15-5.31-3.72,5.8-.97,5.97-2.53-5.47-2.16-5.31-3.72,5.8-.97,5.97-2.53-5.47-2.16-5.31-3.72,5.8-.97,5.97-2.53-5.47-2.16-5.31-3.72,5.8-.97,5.97-2.53-5.47-2.15-5.31-3.71,5.8-.97,5.97-2.53-5.47-2.16-5.31-3.72,5.8-.97,5.97-2.53-5.47-2.16-5.31-3.72,5.8-.97,5.97-2.53-5.47-2.16-5.31-3.72,5.8-.97,5.97-2.53-5.47-2.16-5.31-3.72,5.8-.97,5.97-2.54-5.47-2.16-5.31-3.72,5.8-.97,5.97-2.53-5.47-2.16-5.31-3.72,5.8-.97,5.97-2.54-5.47-2.16-5.31-3.72,5.8-.97,5.97-2.54-5.32-5.01-3.98-5.84c1.73-1.07,3.22,5.44,5.24,5.65s2.62-5.43,4.64-5.21,1.43,5.85,3.46,6.06,2.62-5.43,4.64-5.21,1.43,5.85,3.45,6.06,2.61-5.43,4.64-5.21,1.43,5.85,3.45,6.06,2.61-5.43,4.64-5.21,1.43,5.85,3.45,6.06,2.62-5.43,4.64-5.21,1.43,5.85,3.46,6.06,2.62-5.43,4.64-5.21,1.43,5.85,3.45,6.06,2.62-5.43,4.64-5.21,1.43,5.85,3.45,6.06,2.62-5.43,4.64-5.21,1.43,5.85,3.46,6.06,2.62-5.43,4.64-5.21,1.43,5.85,3.45,6.06,2.62-5.43,4.64-5.21,1.43,5.85,3.46,6.06,2.62-5.43,4.64-5.21,1.43,5.85,3.45,6.06,2.62-5.43,4.64-5.21,1.43,5.85,3.46,6.06,2.62-5.43,4.64-5.21,1.43,5.85,3.46,6.06,2.62-5.43,4.64-5.21,1.43,5.85,3.46,6.06,2.62-5.43,4.64-5.21,1.43,5.85,3.46,6.06,2.62-5.43,4.64-5.21,1.43,5.85,3.46,6.06,2.62-5.43,4.64-5.21,1.43,5.85,3.46,6.06,2.62-5.43,4.64-5.21,1.43,5.85,3.45,6.06,2.62-5.43,4.64-5.21,1.43,5.85,3.46,6.06,2.62-5.43,4.64-5.21,1.43,5.85,3.46,6.06,2.62-5.43,4.64-5.21,1.43,5.85,3.46,6.06,2.62-5.43,4.65-5.21,1.43,5.85,3.46,6.06,2.62-5.43,4.65-5.21,1.43,5.85,3.46,6.06,2.62-5.43,4.65-5.21,1.44,5.85,3.47,6.07,4.83-5.85,6.31-4.45c1.14,1.08-4.94,3.32-5.1,4.88s5.47,2.15,5.31,3.71-5.8.97-5.97,2.53,5.47,2.15,5.31,3.71-5.8.97-5.97,2.53,5.47,2.15,5.31,3.71-5.8.97-5.97,2.53,5.47,2.15,5.31,3.71-5.8.97-5.97,2.53,5.47,2.15,5.31,3.72-5.8.97-5.97,2.53,5.47,2.15,5.31,3.71-5.8.97-5.97,2.53,5.47,2.15,5.31,3.71-5.8.97-5.97,2.53,5.47,2.15,5.31,3.72-5.8.97-5.97,2.53,5.47,2.15,5.31,3.71-5.8.97-5.97,2.53,5.47,2.15,5.31,3.72-5.8.97-5.97,2.53,5.47,2.15,5.31,3.72-5.8.97-5.97,2.53,5.47,2.15,5.31,3.72-5.8.97-5.97,2.53,5.47,2.15,5.31,3.72-5.8.97-5.97,2.53,5.47,2.16,5.31,3.72-5.8.97-5.97,2.53,5.47,2.16,5.31,3.72-5.8.97-5.97,2.53,5.47,2.16,5.31,3.72-5.8.97-5.97,2.53,5.47,2.15,5.31,3.71-5.8.97-5.97,2.53,5.47,2.16,5.31,3.72-5.8.97-5.97,2.53,5.47,2.16,5.31,3.72-5.8.97-5.97,2.53,5.47,2.16,5.31,3.72-5.8.97-5.97,2.53,5.47,2.16,5.31,3.72-5.8.97-5.97,2.54,5.47,2.16,5.31,3.72-5.8.97-5.97,2.53,5.47,2.16,5.31,3.72-5.8.97-5.97,2.54,5.47,2.16,5.31,3.72-6.3,2.08-5.88,3.59c.8,2.87,5.23,3.96,3.89,4.79Z"/>
    <rect id="board-2" data-name="board" class="cls-2" x="35.82" y="61.43" width="203.59" height="157.06" rx="6.63" ry="6.63" transform="translate(15.38 -13.62) rotate(6)"/>
    <g id="prickar-2" data-name="prickar">
      <g>
        <ellipse class="cls-5" cx="52.69" cy="59.85" rx="4.72" ry="4.65" transform="translate(-12.34 106) rotate(-84)"/>
        <ellipse class="cls-5" cx="61.94" cy="60.83" rx="4.72" ry="4.65" transform="translate(-5.03 116.07) rotate(-84)"/>
        <ellipse class="cls-5" cx="71.18" cy="61.8" rx="4.72" ry="4.65" transform="translate(2.28 126.13) rotate(-84)"/>
        <ellipse class="cls-5" cx="80.43" cy="62.77" rx="4.72" ry="4.65" transform="translate(9.6 136.2) rotate(-84)"/>
        <ellipse class="cls-5" cx="89.67" cy="63.74" rx="4.72" ry="4.65" transform="translate(16.91 146.26) rotate(-84)"/>
        <ellipse class="cls-5" cx="98.92" cy="64.71" rx="4.72" ry="4.65" transform="translate(24.22 156.32) rotate(-84)"/>
        <ellipse class="cls-5" cx="108.16" cy="65.68" rx="4.72" ry="4.65" transform="translate(31.53 166.39) rotate(-84)"/>
        <ellipse class="cls-5" cx="117.41" cy="66.66" rx="4.72" ry="4.65" transform="translate(38.85 176.45) rotate(-84)"/>
        <ellipse class="cls-5" cx="126.65" cy="67.63" rx="4.72" ry="4.65" transform="translate(46.16 186.52) rotate(-84)"/>
        <ellipse class="cls-5" cx="135.9" cy="68.6" rx="4.72" ry="4.65" transform="translate(53.47 196.58) rotate(-84)"/>
        <ellipse class="cls-5" cx="145.14" cy="69.57" rx="4.72" ry="4.65" transform="translate(60.78 206.65) rotate(-84)"/>
        <ellipse class="cls-5" cx="154.39" cy="70.54" rx="4.72" ry="4.65" transform="translate(68.09 216.71) rotate(-84)"/>
        <ellipse class="cls-5" cx="163.63" cy="71.51" rx="4.72" ry="4.65" transform="translate(75.41 226.78) rotate(-84)"/>
        <ellipse class="cls-5" cx="172.88" cy="72.49" rx="4.72" ry="4.65" transform="translate(82.72 236.84) rotate(-84)"/>
        <ellipse class="cls-5" cx="182.12" cy="73.46" rx="4.72" ry="4.65" transform="translate(90.03 246.9) rotate(-84)"/>
        <ellipse class="cls-5" cx="51.71" cy="69.24" rx="4.72" ry="4.65" transform="translate(-22.56 113.43) rotate(-84)"/>
        <ellipse class="cls-5" cx="60.95" cy="70.21" rx="4.72" ry="4.65" transform="translate(-15.25 123.49) rotate(-84)"/>
        <ellipse class="cls-5" cx="70.2" cy="71.18" rx="4.72" ry="4.65" transform="translate(-7.94 133.56) rotate(-84)"/>
        <ellipse class="cls-5" cx="79.44" cy="72.16" rx="4.72" ry="4.65" transform="translate(-.62 143.62) rotate(-84)"/>
        <ellipse class="cls-5" cx="88.69" cy="73.13" rx="4.72" ry="4.65" transform="translate(6.69 153.68) rotate(-84)"/>
        <ellipse class="cls-5" cx="97.93" cy="74.1" rx="4.72" ry="4.65" transform="translate(14 163.75) rotate(-84)"/>
        <ellipse class="cls-5" cx="107.18" cy="75.07" rx="4.72" ry="4.65" transform="translate(21.31 173.81) rotate(-84)"/>
        <ellipse class="cls-5" cx="116.42" cy="76.04" rx="4.72" ry="4.65" transform="translate(28.63 183.88) rotate(-84)"/>
        <ellipse class="cls-5" cx="125.67" cy="77.01" rx="4.72" ry="4.65" transform="translate(35.94 193.94) rotate(-84)"/>
        <ellipse class="cls-5" cx="134.91" cy="77.99" rx="4.72" ry="4.65" transform="translate(43.25 204.01) rotate(-84)"/>
        <ellipse class="cls-5" cx="144.16" cy="78.96" rx="4.72" ry="4.65" transform="translate(50.56 214.07) rotate(-84)"/>
        <ellipse class="cls-5" cx="153.4" cy="79.93" rx="4.72" ry="4.65" transform="translate(57.88 224.14) rotate(-84)"/>
        <ellipse class="cls-5" cx="162.65" cy="80.9" rx="4.72" ry="4.65" transform="translate(65.19 234.2) rotate(-84)"/>
        <ellipse class="cls-5" cx="171.89" cy="81.87" rx="4.72" ry="4.65" transform="translate(72.5 244.26) rotate(-84)"/>
        <ellipse class="cls-5" cx="181.14" cy="82.84" rx="4.72" ry="4.65" transform="translate(79.81 254.33) rotate(-84)"/>
        <ellipse class="cls-5" cx="50.72" cy="78.63" rx="4.72" ry="4.65" transform="translate(-32.78 120.85) rotate(-84)"/>
        <ellipse class="cls-5" cx="59.96" cy="79.6" rx="4.72" ry="4.65" transform="translate(-25.47 130.92) rotate(-84)"/>
        <ellipse class="cls-5" cx="69.21" cy="80.57" rx="4.72" ry="4.65" transform="translate(-18.15 140.98) rotate(-84)"/>
        <ellipse class="cls-5" cx="78.45" cy="81.54" rx="4.72" ry="4.65" transform="translate(-10.84 151.04) rotate(-84)"/>
        <ellipse class="cls-5" cx="87.7" cy="82.51" rx="4.72" ry="4.65" transform="translate(-3.53 161.11) rotate(-84)"/>
        <ellipse class="cls-5" cx="96.94" cy="83.49" rx="4.72" ry="4.65" transform="translate(3.78 171.17) rotate(-84)"/>
        <ellipse class="cls-5" cx="106.19" cy="84.46" rx="4.72" ry="4.65" transform="translate(11.1 181.24) rotate(-84)"/>
        <ellipse class="cls-5" cx="115.43" cy="85.43" rx="4.72" ry="4.65" transform="translate(18.41 191.3) rotate(-84)"/>
        <ellipse class="cls-5" cx="124.68" cy="86.4" rx="4.72" ry="4.65" transform="translate(25.72 201.37) rotate(-84)"/>
        <ellipse class="cls-5" cx="133.92" cy="87.37" rx="4.72" ry="4.65" transform="translate(33.03 211.43) rotate(-84)"/>
        <ellipse class="cls-5" cx="143.17" cy="88.34" rx="4.72" ry="4.65" transform="translate(40.34 221.5) rotate(-84)"/>
        <ellipse class="cls-5" cx="152.41" cy="89.32" rx="4.72" ry="4.65" transform="translate(47.66 231.56) rotate(-84)"/>
        <ellipse class="cls-5" cx="161.66" cy="90.29" rx="4.72" ry="4.65" transform="translate(54.97 241.62) rotate(-84)"/>
        <ellipse class="cls-5" cx="170.9" cy="91.26" rx="4.72" ry="4.65" transform="translate(62.28 251.69) rotate(-84)"/>
        <ellipse class="cls-5" cx="180.15" cy="92.23" rx="4.72" ry="4.65" transform="translate(69.59 261.75) rotate(-84)"/>
        <ellipse class="cls-5" cx="49.73" cy="88.01" rx="4.72" ry="4.65" transform="translate(-43 128.28) rotate(-84)"/>
        <ellipse class="cls-5" cx="58.98" cy="88.99" rx="4.72" ry="4.65" transform="translate(-35.68 138.34) rotate(-84)"/>
        <ellipse class="cls-5" cx="68.22" cy="89.96" rx="4.72" ry="4.65" transform="translate(-28.37 148.4) rotate(-84)"/>
        <ellipse class="cls-5" cx="77.47" cy="90.93" rx="4.72" ry="4.65" transform="translate(-21.06 158.47) rotate(-84)"/>
        <ellipse class="cls-5" cx="86.71" cy="91.9" rx="4.72" ry="4.65" transform="translate(-13.75 168.53) rotate(-84)"/>
        <ellipse class="cls-5" cx="95.96" cy="92.87" rx="4.72" ry="4.65" transform="translate(-6.44 178.6) rotate(-84)"/>
        <ellipse class="cls-5" cx="105.2" cy="93.84" rx="4.72" ry="4.65" transform="translate(.88 188.66) rotate(-84)"/>
        <ellipse class="cls-5" cx="114.45" cy="94.82" rx="4.72" ry="4.65" transform="translate(8.19 198.73) rotate(-84)"/>
        <ellipse class="cls-5" cx="123.69" cy="95.79" rx="4.72" ry="4.65" transform="translate(15.5 208.79) rotate(-84)"/>
        <ellipse class="cls-5" cx="132.94" cy="96.76" rx="4.72" ry="4.65" transform="translate(22.81 218.86) rotate(-84)"/>
        <ellipse class="cls-5" cx="142.18" cy="97.73" rx="4.72" ry="4.65" transform="translate(30.13 228.92) rotate(-84)"/>
        <ellipse class="cls-5" cx="151.43" cy="98.7" rx="4.72" ry="4.65" transform="translate(37.44 238.98) rotate(-84)"/>
        <ellipse class="cls-5" cx="160.67" cy="99.67" rx="4.72" ry="4.65" transform="translate(44.75 249.05) rotate(-84)"/>
        <ellipse class="cls-5" cx="169.92" cy="100.65" rx="4.72" ry="4.65" transform="translate(52.06 259.11) rotate(-84)"/>
        <ellipse class="cls-5" cx="179.16" cy="101.62" rx="4.72" ry="4.65" transform="translate(59.38 269.18) rotate(-84)"/>
        <ellipse class="cls-5" cx="48.75" cy="97.4" rx="4.72" ry="4.65" transform="translate(-53.22 135.7) rotate(-84)"/>
        <ellipse class="cls-5" cx="57.99" cy="98.37" rx="4.72" ry="4.65" transform="translate(-45.9 145.76) rotate(-84)"/>
        <ellipse class="cls-5" cx="67.24" cy="99.34" rx="4.72" ry="4.65" transform="translate(-38.59 155.83) rotate(-84)"/>
        <ellipse class="cls-5" cx="76.48" cy="100.32" rx="4.72" ry="4.65" transform="translate(-31.28 165.89) rotate(-84)"/>
        <ellipse class="cls-5" cx="85.73" cy="101.29" rx="4.72" ry="4.65" transform="translate(-23.97 175.96) rotate(-84)"/>
        <ellipse class="cls-5" cx="94.97" cy="102.26" rx="4.72" ry="4.65" transform="translate(-16.65 186.02) rotate(-84)"/>
        <ellipse class="cls-5" cx="104.22" cy="103.23" rx="4.72" ry="4.65" transform="translate(-9.34 196.09) rotate(-84)"/>
        <ellipse class="cls-5" cx="113.46" cy="104.2" rx="4.72" ry="4.65" transform="translate(-2.03 206.15) rotate(-84)"/>
        <ellipse class="cls-5" cx="122.71" cy="105.17" rx="4.72" ry="4.65" transform="translate(5.28 216.22) rotate(-84)"/>
        <ellipse class="cls-5" cx="131.95" cy="106.15" rx="4.72" ry="4.65" transform="translate(12.6 226.28) rotate(-84)"/>
        <ellipse class="cls-5" cx="141.2" cy="107.12" rx="4.72" ry="4.65" transform="translate(19.91 236.34) rotate(-84)"/>
        <ellipse class="cls-5" cx="150.44" cy="108.09" rx="4.72" ry="4.65" transform="translate(27.22 246.41) rotate(-84)"/>
        <ellipse class="cls-5" cx="159.69" cy="109.06" rx="4.72" ry="4.65" transform="translate(34.53 256.47) rotate(-84)"/>
        <ellipse class="cls-5" cx="168.93" cy="110.03" rx="4.72" ry="4.65" transform="translate(41.84 266.54) rotate(-84)"/>
        <ellipse class="cls-5" cx="178.18" cy="111" rx="4.72" ry="4.65" transform="translate(49.16 276.6) rotate(-84)"/>
        <ellipse class="cls-5" cx="47.76" cy="106.79" rx="4.72" ry="4.65" transform="translate(-63.43 143.12) rotate(-84)"/>
        <ellipse class="cls-5" cx="57.01" cy="107.76" rx="4.72" ry="4.65" transform="translate(-56.12 153.19) rotate(-84)"/>
        <ellipse class="cls-5" cx="66.25" cy="108.73" rx="4.72" ry="4.65" transform="translate(-48.81 163.25) rotate(-84)"/>
        <ellipse class="cls-5" cx="75.5" cy="109.7" rx="4.72" ry="4.65" transform="translate(-41.5 173.32) rotate(-84)"/>
        <ellipse class="cls-5" cx="84.74" cy="110.67" rx="4.72" ry="4.65" transform="translate(-34.19 183.38) rotate(-84)"/>
        <ellipse class="cls-5" cx="93.99" cy="111.65" rx="4.72" ry="4.65" transform="translate(-26.87 193.45) rotate(-84)"/>
        <ellipse class="cls-5" cx="103.23" cy="112.62" rx="4.72" ry="4.65" transform="translate(-19.56 203.51) rotate(-84)"/>
        <ellipse class="cls-5" cx="112.48" cy="113.59" rx="4.72" ry="4.65" transform="translate(-12.25 213.58) rotate(-84)"/>
        <ellipse class="cls-5" cx="121.72" cy="114.56" rx="4.72" ry="4.65" transform="translate(-4.94 223.64) rotate(-84)"/>
        <ellipse class="cls-5" cx="130.97" cy="115.53" rx="4.72" ry="4.65" transform="translate(2.38 233.7) rotate(-84)"/>
        <ellipse class="cls-5" cx="140.21" cy="116.5" rx="4.72" ry="4.65" transform="translate(9.69 243.77) rotate(-84)"/>
        <ellipse class="cls-5" cx="149.46" cy="117.48" rx="4.72" ry="4.65" transform="translate(17 253.83) rotate(-84)"/>
        <ellipse class="cls-5" cx="158.7" cy="118.45" rx="4.72" ry="4.65" transform="translate(24.31 263.9) rotate(-84)"/>
        <ellipse class="cls-5" cx="167.94" cy="119.42" rx="4.72" ry="4.65" transform="translate(31.63 273.96) rotate(-84)"/>
        <ellipse class="cls-5" cx="177.19" cy="120.39" rx="4.72" ry="4.65" transform="translate(38.94 284.03) rotate(-84)"/>
        <ellipse class="cls-5" cx="46.77" cy="116.17" rx="4.72" ry="4.65" transform="translate(-73.65 150.55) rotate(-84)"/>
        <ellipse class="cls-5" cx="56.02" cy="117.15" rx="4.72" ry="4.65" transform="translate(-66.34 160.61) rotate(-84)"/>
        <ellipse class="cls-5" cx="65.26" cy="118.12" rx="4.72" ry="4.65" transform="translate(-59.03 170.68) rotate(-84)"/>
        <ellipse class="cls-5" cx="74.51" cy="119.09" rx="4.72" ry="4.65" transform="translate(-51.72 180.74) rotate(-84)"/>
        <ellipse class="cls-5" cx="83.75" cy="120.06" rx="4.72" ry="4.65" transform="translate(-44.4 190.81) rotate(-84)"/>
        <ellipse class="cls-5" cx="93" cy="121.03" rx="4.72" ry="4.65" transform="translate(-37.09 200.87) rotate(-84)"/>
        <ellipse class="cls-5" cx="102.24" cy="122" rx="4.72" ry="4.65" transform="translate(-29.78 210.94) rotate(-84)"/>
        <ellipse class="cls-5" cx="111.49" cy="122.98" rx="4.72" ry="4.65" transform="translate(-22.47 221) rotate(-84)"/>
        <ellipse class="cls-5" cx="120.73" cy="123.95" rx="4.72" ry="4.65" transform="translate(-15.15 231.06) rotate(-84)"/>
        <ellipse class="cls-5" cx="129.98" cy="124.92" rx="4.72" ry="4.65" transform="translate(-7.84 241.13) rotate(-84)"/>
        <ellipse class="cls-5" cx="139.22" cy="125.89" rx="4.72" ry="4.65" transform="translate(-.53 251.19) rotate(-84)"/>
        <ellipse class="cls-5" cx="148.47" cy="126.86" rx="4.72" ry="4.65" transform="translate(6.78 261.26) rotate(-84)"/>
        <ellipse class="cls-5" cx="157.71" cy="127.83" rx="4.72" ry="4.65" transform="translate(14.09 271.32) rotate(-84)"/>
        <ellipse class="cls-5" cx="166.96" cy="128.81" rx="4.72" ry="4.65" transform="translate(21.41 281.39) rotate(-84)"/>
        <ellipse class="cls-5" cx="176.2" cy="129.78" rx="4.72" ry="4.65" transform="translate(28.72 291.45) rotate(-84)"/>
        <ellipse class="cls-5" cx="45.79" cy="125.56" rx="4.72" ry="4.65" transform="translate(-83.87 157.97) rotate(-84)"/>
        <ellipse class="cls-5" cx="55.03" cy="126.53" rx="4.72" ry="4.65" transform="translate(-76.56 168.04) rotate(-84)"/>
        <ellipse class="cls-5" cx="64.28" cy="127.5" rx="4.72" ry="4.65" transform="translate(-69.25 178.1) rotate(-84)"/>
        <ellipse class="cls-5" cx="73.52" cy="128.48" rx="4.72" ry="4.65" transform="translate(-61.93 188.17) rotate(-84)"/>
        <ellipse class="cls-5" cx="82.77" cy="129.45" rx="4.72" ry="4.65" transform="translate(-54.62 198.23) rotate(-84)"/>
        <ellipse class="cls-5" cx="92.01" cy="130.42" rx="4.72" ry="4.65" transform="translate(-47.31 208.3) rotate(-84)"/>
        <ellipse class="cls-5" cx="101.26" cy="131.39" rx="4.72" ry="4.65" transform="translate(-40 218.36) rotate(-84)"/>
        <ellipse class="cls-5" cx="110.5" cy="132.36" rx="4.72" ry="4.65" transform="translate(-32.69 228.42) rotate(-84)"/>
        <ellipse class="cls-5" cx="119.75" cy="133.33" rx="4.72" ry="4.65" transform="translate(-25.37 238.49) rotate(-84)"/>
        <ellipse class="cls-5" cx="128.99" cy="134.31" rx="4.72" ry="4.65" transform="translate(-18.06 248.55) rotate(-84)"/>
        <ellipse class="cls-5" cx="138.24" cy="135.28" rx="4.72" ry="4.65" transform="translate(-10.75 258.62) rotate(-84)"/>
        <ellipse class="cls-5" cx="147.48" cy="136.25" rx="4.72" ry="4.65" transform="translate(-3.44 268.68) rotate(-84)"/>
        <ellipse class="cls-5" cx="156.73" cy="137.22" rx="4.72" ry="4.65" transform="translate(3.88 278.75) rotate(-84)"/>
        <ellipse class="cls-5" cx="165.97" cy="138.19" rx="4.72" ry="4.65" transform="translate(11.19 288.81) rotate(-84)"/>
        <ellipse class="cls-5" cx="175.22" cy="139.16" rx="4.72" ry="4.65" transform="translate(18.5 298.88) rotate(-84)"/>
        <ellipse class="cls-5" cx="44.8" cy="134.95" rx="4.72" ry="4.65" transform="translate(-94.09 165.4) rotate(-84)"/>
        <ellipse class="cls-5" cx="54.05" cy="135.92" rx="4.72" ry="4.65" transform="translate(-86.78 175.46) rotate(-84)"/>
        <ellipse class="cls-5" cx="63.29" cy="136.89" rx="4.72" ry="4.65" transform="translate(-79.47 185.53) rotate(-84)"/>
        <ellipse class="cls-5" cx="72.54" cy="137.86" rx="4.72" ry="4.65" transform="translate(-72.15 195.59) rotate(-84)"/>
        <ellipse class="cls-5" cx="81.78" cy="138.83" rx="4.72" ry="4.65" transform="translate(-64.84 205.66) rotate(-84)"/>
        <ellipse class="cls-5" cx="91.03" cy="139.81" rx="4.72" ry="4.65" transform="translate(-57.53 215.72) rotate(-84)"/>
        <ellipse class="cls-5" cx="100.27" cy="140.78" rx="4.72" ry="4.65" transform="translate(-50.22 225.78) rotate(-84)"/>
        <ellipse class="cls-5" cx="109.52" cy="141.75" rx="4.72" ry="4.65" transform="translate(-42.9 235.85) rotate(-84)"/>
        <ellipse class="cls-5" cx="118.76" cy="142.72" rx="4.72" ry="4.65" transform="translate(-35.59 245.91) rotate(-84)"/>
        <ellipse class="cls-5" cx="128.01" cy="143.69" rx="4.72" ry="4.65" transform="translate(-28.28 255.98) rotate(-84)"/>
        <ellipse class="cls-5" cx="137.25" cy="144.66" rx="4.72" ry="4.65" transform="translate(-20.97 266.04) rotate(-84)"/>
        <ellipse class="cls-5" cx="146.5" cy="145.64" rx="4.72" ry="4.65" transform="translate(-13.65 276.11) rotate(-84)"/>
        <ellipse class="cls-5" cx="155.74" cy="146.61" rx="4.72" ry="4.65" transform="translate(-6.34 286.17) rotate(-84)"/>
        <ellipse class="cls-5" cx="164.99" cy="147.58" rx="4.72" ry="4.65" transform="translate(.97 296.24) rotate(-84)"/>
        <ellipse class="cls-5" cx="174.23" cy="148.55" rx="4.72" ry="4.65" transform="translate(8.28 306.3) rotate(-84)"/>
        <ellipse class="cls-5" cx="43.81" cy="144.33" rx="4.72" ry="4.65" transform="translate(-104.31 172.82) rotate(-84)"/>
        <ellipse class="cls-5" cx="53.06" cy="145.31" rx="4.72" ry="4.65" transform="translate(-97 182.89) rotate(-84)"/>
        <ellipse class="cls-5" cx="62.3" cy="146.28" rx="4.72" ry="4.65" transform="translate(-89.68 192.95) rotate(-84)"/>
        <ellipse class="cls-5" cx="71.55" cy="147.25" rx="4.72" ry="4.65" transform="translate(-82.37 203.02) rotate(-84)"/>
        <ellipse class="cls-5" cx="80.79" cy="148.22" rx="4.72" ry="4.65" transform="translate(-75.06 213.08) rotate(-84)"/>
        <ellipse class="cls-5" cx="90.04" cy="149.19" rx="4.72" ry="4.65" transform="translate(-67.75 223.14) rotate(-84)"/>
        <ellipse class="cls-5" cx="99.28" cy="150.16" rx="4.72" ry="4.65" transform="translate(-60.44 233.21) rotate(-84)"/>
        <ellipse class="cls-5" cx="108.53" cy="151.14" rx="4.72" ry="4.65" transform="translate(-53.12 243.27) rotate(-84)"/>
        <ellipse class="cls-5" cx="117.77" cy="152.11" rx="4.72" ry="4.65" transform="translate(-45.81 253.34) rotate(-84)"/>
        <ellipse class="cls-5" cx="127.02" cy="153.08" rx="4.72" ry="4.65" transform="translate(-38.5 263.4) rotate(-84)"/>
        <ellipse class="cls-5" cx="136.26" cy="154.05" rx="4.72" ry="4.65" transform="translate(-31.19 273.47) rotate(-84)"/>
        <ellipse class="cls-5" cx="145.51" cy="155.02" rx="4.72" ry="4.65" transform="translate(-23.87 283.53) rotate(-84)"/>
        <ellipse class="cls-5" cx="154.75" cy="155.99" rx="4.72" ry="4.65" transform="translate(-16.56 293.6) rotate(-84)"/>
        <ellipse class="cls-5" cx="164" cy="156.97" rx="4.72" ry="4.65" transform="translate(-9.25 303.66) rotate(-84)"/>
        <ellipse class="cls-5" cx="173.24" cy="157.94" rx="4.72" ry="4.65" transform="translate(-1.94 313.72) rotate(-84)"/>
        <ellipse class="cls-5" cx="42.83" cy="153.72" rx="4.72" ry="4.65" transform="translate(-114.53 180.25) rotate(-84)"/>
        <ellipse class="cls-5" cx="52.07" cy="154.69" rx="4.72" ry="4.65" transform="translate(-107.22 190.31) rotate(-84)"/>
        <ellipse class="cls-5" cx="61.32" cy="155.66" rx="4.72" ry="4.65" transform="translate(-99.9 200.38) rotate(-84)"/>
        <ellipse class="cls-5" cx="70.56" cy="156.64" rx="4.72" ry="4.65" transform="translate(-92.59 210.44) rotate(-84)"/>
        <ellipse class="cls-5" cx="79.81" cy="157.61" rx="4.72" ry="4.65" transform="translate(-85.28 220.5) rotate(-84)"/>
        <ellipse class="cls-5" cx="89.05" cy="158.58" rx="4.72" ry="4.65" transform="translate(-77.97 230.57) rotate(-84)"/>
        <ellipse class="cls-5" cx="98.3" cy="159.55" rx="4.72" ry="4.65" transform="translate(-70.65 240.63) rotate(-84)"/>
        <ellipse class="cls-5" cx="107.54" cy="160.52" rx="4.72" ry="4.65" transform="translate(-63.34 250.7) rotate(-84)"/>
        <ellipse class="cls-5" cx="116.79" cy="161.49" rx="4.72" ry="4.65" transform="translate(-56.03 260.76) rotate(-84)"/>
        <ellipse class="cls-5" cx="126.03" cy="162.47" rx="4.72" ry="4.65" transform="translate(-48.72 270.83) rotate(-84)"/>
        <ellipse class="cls-5" cx="135.28" cy="163.44" rx="4.72" ry="4.65" transform="translate(-41.4 280.89) rotate(-84)"/>
        <ellipse class="cls-5" cx="144.52" cy="164.41" rx="4.72" ry="4.65" transform="translate(-34.09 290.96) rotate(-84)"/>
        <ellipse class="cls-5" cx="153.77" cy="165.38" rx="4.72" ry="4.65" transform="translate(-26.78 301.02) rotate(-84)"/>
        <ellipse class="cls-5" cx="163.01" cy="166.35" rx="4.72" ry="4.65" transform="translate(-19.47 311.08) rotate(-84)"/>
        <ellipse class="cls-5" cx="172.26" cy="167.32" rx="4.72" ry="4.65" transform="translate(-12.15 321.15) rotate(-84)"/>
        <ellipse class="cls-5" cx="41.84" cy="163.11" rx="4.72" ry="4.65" transform="translate(-124.75 187.67) rotate(-84)"/>
        <ellipse class="cls-5" cx="51.09" cy="164.08" rx="4.72" ry="4.65" transform="translate(-117.43 197.74) rotate(-84)"/>
        <ellipse class="cls-5" cx="60.33" cy="165.05" rx="4.72" ry="4.65" transform="translate(-110.12 207.8) rotate(-84)"/>
        <ellipse class="cls-5" cx="69.58" cy="166.02" rx="4.72" ry="4.65" transform="translate(-102.81 217.86) rotate(-84)"/>
        <ellipse class="cls-5" cx="78.82" cy="166.99" rx="4.72" ry="4.65" transform="translate(-95.5 227.93) rotate(-84)"/>
        <ellipse class="cls-5" cx="88.07" cy="167.97" rx="4.72" ry="4.65" transform="translate(-88.18 237.99) rotate(-84)"/>
        <ellipse class="cls-5" cx="97.31" cy="168.94" rx="4.72" ry="4.65" transform="translate(-80.87 248.06) rotate(-84)"/>
        <ellipse class="cls-5" cx="106.56" cy="169.91" rx="4.72" ry="4.65" transform="translate(-73.56 258.12) rotate(-84)"/>
        <ellipse class="cls-5" cx="115.8" cy="170.88" rx="4.72" ry="4.65" transform="translate(-66.25 268.19) rotate(-84)"/>
        <ellipse class="cls-5" cx="125.05" cy="171.85" rx="4.72" ry="4.65" transform="translate(-58.94 278.25) rotate(-84)"/>
        <ellipse class="cls-5" cx="134.29" cy="172.82" rx="4.72" ry="4.65" transform="translate(-51.62 288.32) rotate(-84)"/>
        <ellipse class="cls-5" cx="143.54" cy="173.8" rx="4.72" ry="4.65" transform="translate(-44.31 298.38) rotate(-84)"/>
        <ellipse class="cls-5" cx="152.78" cy="174.77" rx="4.72" ry="4.65" transform="translate(-37 308.44) rotate(-84)"/>
        <ellipse class="cls-5" cx="162.03" cy="175.74" rx="4.72" ry="4.65" transform="translate(-29.69 318.51) rotate(-84)"/>
        <ellipse class="cls-5" cx="171.27" cy="176.71" rx="4.72" ry="4.65" transform="translate(-22.37 328.57) rotate(-84)"/>
        <ellipse class="cls-5" cx="40.85" cy="172.49" rx="4.72" ry="4.65" transform="translate(-134.96 195.1) rotate(-84)"/>
        <ellipse class="cls-5" cx="50.1" cy="173.47" rx="4.72" ry="4.65" transform="translate(-127.65 205.16) rotate(-84)"/>
        <ellipse class="cls-5" cx="59.34" cy="174.44" rx="4.72" ry="4.65" transform="translate(-120.34 215.22) rotate(-84)"/>
        <ellipse class="cls-5" cx="68.59" cy="175.41" rx="4.72" ry="4.65" transform="translate(-113.03 225.29) rotate(-84)"/>
        <ellipse class="cls-5" cx="77.83" cy="176.38" rx="4.72" ry="4.65" transform="translate(-105.72 235.35) rotate(-84)"/>
        <ellipse class="cls-5" cx="87.08" cy="177.35" rx="4.72" ry="4.65" transform="translate(-98.4 245.42) rotate(-84)"/>
        <ellipse class="cls-5" cx="96.32" cy="178.32" rx="4.72" ry="4.65" transform="translate(-91.09 255.48) rotate(-84)"/>
        <ellipse class="cls-5" cx="105.57" cy="179.3" rx="4.72" ry="4.65" transform="translate(-83.78 265.55) rotate(-84)"/>
        <ellipse class="cls-5" cx="114.81" cy="180.27" rx="4.72" ry="4.65" transform="translate(-76.47 275.61) rotate(-84)"/>
        <ellipse class="cls-5" cx="124.06" cy="181.24" rx="4.72" ry="4.65" transform="translate(-69.15 285.67) rotate(-84)"/>
        <ellipse class="cls-5" cx="133.3" cy="182.21" rx="4.72" ry="4.65" transform="translate(-61.84 295.74) rotate(-84)"/>
        <ellipse class="cls-5" cx="142.55" cy="183.18" rx="4.72" ry="4.65" transform="translate(-54.53 305.8) rotate(-84)"/>
        <ellipse class="cls-5" cx="151.79" cy="184.15" rx="4.72" ry="4.65" transform="translate(-47.22 315.87) rotate(-84)"/>
        <ellipse class="cls-5" cx="161.04" cy="185.13" rx="4.72" ry="4.65" transform="translate(-39.9 325.93) rotate(-84)"/>
        <ellipse class="cls-5" cx="170.28" cy="186.1" rx="4.72" ry="4.65" transform="translate(-32.59 336) rotate(-84)"/>
        <ellipse class="cls-5" cx="39.87" cy="181.88" rx="4.72" ry="4.65" transform="translate(-145.18 202.52) rotate(-84)"/>
        <ellipse class="cls-5" cx="49.11" cy="182.85" rx="4.72" ry="4.65" transform="translate(-137.87 212.58) rotate(-84)"/>
        <ellipse class="cls-5" cx="58.36" cy="183.82" rx="4.72" ry="4.65" transform="translate(-130.56 222.65) rotate(-84)"/>
        <ellipse class="cls-5" cx="67.6" cy="184.8" rx="4.72" ry="4.65" transform="translate(-123.25 232.71) rotate(-84)"/>
        <ellipse class="cls-5" cx="76.85" cy="185.77" rx="4.72" ry="4.65" transform="translate(-115.93 242.78) rotate(-84)"/>
        <ellipse class="cls-5" cx="86.09" cy="186.74" rx="4.72" ry="4.65" transform="translate(-108.62 252.84) rotate(-84)"/>
        <ellipse class="cls-5" cx="95.34" cy="187.71" rx="4.72" ry="4.65" transform="translate(-101.31 262.91) rotate(-84)"/>
        <ellipse class="cls-5" cx="104.58" cy="188.68" rx="4.72" ry="4.65" transform="translate(-94 272.97) rotate(-84)"/>
        <ellipse class="cls-5" cx="113.83" cy="189.65" rx="4.72" ry="4.65" transform="translate(-86.68 283.03) rotate(-84)"/>
        <ellipse class="cls-5" cx="123.07" cy="190.63" rx="4.72" ry="4.65" transform="translate(-79.37 293.1) rotate(-84)"/>
        <ellipse class="cls-5" cx="132.32" cy="191.6" rx="4.72" ry="4.65" transform="translate(-72.06 303.16) rotate(-84)"/>
        <ellipse class="cls-5" cx="141.56" cy="192.57" rx="4.72" ry="4.65" transform="translate(-64.75 313.23) rotate(-84)"/>
        <ellipse class="cls-5" cx="150.81" cy="193.54" rx="4.72" ry="4.65" transform="translate(-57.44 323.29) rotate(-84)"/>
        <ellipse class="cls-5" cx="160.05" cy="194.51" rx="4.72" ry="4.65" transform="translate(-50.12 333.36) rotate(-84)"/>
        <ellipse class="cls-5" cx="169.3" cy="195.48" rx="4.72" ry="4.65" transform="translate(-42.81 343.42) rotate(-84)"/>
      </g>
      <ellipse class="cls-5" cx="191.62" cy="74.46" rx="4.72" ry="4.65" transform="translate(97.54 257.25) rotate(-84)"/>
      <ellipse class="cls-5" cx="200.87" cy="75.43" rx="4.72" ry="4.65" transform="translate(104.86 267.31) rotate(-84)"/>
      <ellipse class="cls-5" cx="210.11" cy="76.4" rx="4.72" ry="4.65" transform="translate(112.17 277.37) rotate(-84)"/>
      <ellipse class="cls-5" cx="219.36" cy="77.37" rx="4.72" ry="4.65" transform="translate(119.48 287.44) rotate(-84)"/>
      <ellipse class="cls-5" cx="228.6" cy="78.34" rx="4.72" ry="4.65" transform="translate(126.79 297.5) rotate(-84)"/>
      <ellipse class="cls-5" cx="237.85" cy="79.31" rx="4.72" ry="4.65" transform="translate(134.11 307.57) rotate(-84)"/>
      <ellipse class="cls-5" cx="190.64" cy="83.84" rx="4.72" ry="4.65" transform="translate(87.33 264.67) rotate(-84)"/>
      <ellipse class="cls-5" cx="199.88" cy="84.81" rx="4.72" ry="4.65" transform="translate(94.64 274.73) rotate(-84)"/>
      <ellipse class="cls-5" cx="209.13" cy="85.79" rx="4.72" ry="4.65" transform="translate(101.95 284.8) rotate(-84)"/>
      <ellipse class="cls-5" cx="218.37" cy="86.76" rx="4.72" ry="4.65" transform="translate(109.26 294.86) rotate(-84)"/>
      <ellipse class="cls-5" cx="227.62" cy="87.73" rx="4.72" ry="4.65" transform="translate(116.58 304.93) rotate(-84)"/>
      <ellipse class="cls-5" cx="236.86" cy="88.7" rx="4.72" ry="4.65" transform="translate(123.89 314.99) rotate(-84)"/>
      <ellipse class="cls-5" cx="189.65" cy="93.23" rx="4.72" ry="4.65" transform="translate(77.11 272.09) rotate(-84)"/>
      <ellipse class="cls-5" cx="198.89" cy="94.2" rx="4.72" ry="4.65" transform="translate(84.42 282.16) rotate(-84)"/>
      <ellipse class="cls-5" cx="208.14" cy="95.17" rx="4.72" ry="4.65" transform="translate(91.73 292.22) rotate(-84)"/>
      <ellipse class="cls-5" cx="217.38" cy="96.14" rx="4.72" ry="4.65" transform="translate(99.04 302.29) rotate(-84)"/>
      <ellipse class="cls-5" cx="226.63" cy="97.12" rx="4.72" ry="4.65" transform="translate(106.36 312.35) rotate(-84)"/>
      <ellipse class="cls-5" cx="235.87" cy="98.09" rx="4.72" ry="4.65" transform="translate(113.67 322.42) rotate(-84)"/>
      <ellipse class="cls-5" cx="188.66" cy="102.62" rx="4.72" ry="4.65" transform="translate(66.89 279.52) rotate(-84)"/>
      <ellipse class="cls-5" cx="197.91" cy="103.59" rx="4.72" ry="4.65" transform="translate(74.2 289.58) rotate(-84)"/>
      <ellipse class="cls-5" cx="207.15" cy="104.56" rx="4.72" ry="4.65" transform="translate(81.51 299.65) rotate(-84)"/>
      <ellipse class="cls-5" cx="216.4" cy="105.53" rx="4.72" ry="4.65" transform="translate(88.83 309.71) rotate(-84)"/>
      <ellipse class="cls-5" cx="225.64" cy="106.5" rx="4.72" ry="4.65" transform="translate(96.14 319.78) rotate(-84)"/>
      <ellipse class="cls-5" cx="234.89" cy="107.47" rx="4.72" ry="4.65" transform="translate(103.45 329.84) rotate(-84)"/>
      <ellipse class="cls-5" cx="187.68" cy="112" rx="4.72" ry="4.65" transform="translate(56.67 286.94) rotate(-84)"/>
      <ellipse class="cls-5" cx="196.92" cy="112.97" rx="4.72" ry="4.65" transform="translate(63.98 297.01) rotate(-84)"/>
      <ellipse class="cls-5" cx="206.17" cy="113.95" rx="4.72" ry="4.65" transform="translate(71.3 307.07) rotate(-84)"/>
      <ellipse class="cls-5" cx="215.41" cy="114.92" rx="4.72" ry="4.65" transform="translate(78.61 317.14) rotate(-84)"/>
      <ellipse class="cls-5" cx="224.66" cy="115.89" rx="4.72" ry="4.65" transform="translate(85.92 327.2) rotate(-84)"/>
      <ellipse class="cls-5" cx="233.9" cy="116.86" rx="4.72" ry="4.65" transform="translate(93.23 337.27) rotate(-84)"/>
      <ellipse class="cls-5" cx="186.69" cy="121.39" rx="4.72" ry="4.65" transform="translate(46.45 294.37) rotate(-84)"/>
      <ellipse class="cls-5" cx="195.93" cy="122.36" rx="4.72" ry="4.65" transform="translate(53.76 304.43) rotate(-84)"/>
      <ellipse class="cls-5" cx="205.18" cy="123.33" rx="4.72" ry="4.65" transform="translate(61.08 314.5) rotate(-84)"/>
      <ellipse class="cls-5" cx="214.42" cy="124.3" rx="4.72" ry="4.65" transform="translate(68.39 324.56) rotate(-84)"/>
      <ellipse class="cls-5" cx="223.67" cy="125.28" rx="4.72" ry="4.65" transform="translate(75.7 334.63) rotate(-84)"/>
      <ellipse class="cls-5" cx="232.91" cy="126.25" rx="4.72" ry="4.65" transform="translate(83.01 344.69) rotate(-84)"/>
      <ellipse class="cls-5" cx="185.7" cy="130.78" rx="4.72" ry="4.65" transform="translate(36.23 301.79) rotate(-84)"/>
      <ellipse class="cls-5" cx="194.95" cy="131.75" rx="4.72" ry="4.65" transform="translate(43.55 311.86) rotate(-84)"/>
      <ellipse class="cls-5" cx="204.19" cy="132.72" rx="4.72" ry="4.65" transform="translate(50.86 321.92) rotate(-84)"/>
      <ellipse class="cls-5" cx="213.44" cy="133.69" rx="4.72" ry="4.65" transform="translate(58.17 331.99) rotate(-84)"/>
      <ellipse class="cls-5" cx="222.68" cy="134.66" rx="4.72" ry="4.65" transform="translate(65.48 342.05) rotate(-84)"/>
      <ellipse class="cls-5" cx="231.93" cy="135.63" rx="4.72" ry="4.65" transform="translate(72.79 352.11) rotate(-84)"/>
      <ellipse class="cls-5" cx="184.72" cy="140.16" rx="4.72" ry="4.65" transform="translate(26.01 309.22) rotate(-84)"/>
      <ellipse class="cls-5" cx="193.96" cy="141.13" rx="4.72" ry="4.65" transform="translate(33.33 319.28) rotate(-84)"/>
      <ellipse class="cls-5" cx="203.21" cy="142.11" rx="4.72" ry="4.65" transform="translate(40.64 329.35) rotate(-84)"/>
      <ellipse class="cls-5" cx="212.45" cy="143.08" rx="4.72" ry="4.65" transform="translate(47.95 339.41) rotate(-84)"/>
      <ellipse class="cls-5" cx="221.7" cy="144.05" rx="4.72" ry="4.65" transform="translate(55.26 349.47) rotate(-84)"/>
      <ellipse class="cls-5" cx="230.94" cy="145.02" rx="4.72" ry="4.65" transform="translate(62.58 359.54) rotate(-84)"/>
      <ellipse class="cls-5" cx="183.73" cy="149.55" rx="4.72" ry="4.65" transform="translate(15.8 316.64) rotate(-84)"/>
      <ellipse class="cls-5" cx="192.97" cy="150.52" rx="4.72" ry="4.65" transform="translate(23.11 326.71) rotate(-84)"/>
      <ellipse class="cls-5" cx="202.22" cy="151.49" rx="4.72" ry="4.65" transform="translate(30.42 336.77) rotate(-84)"/>
      <ellipse class="cls-5" cx="211.46" cy="152.46" rx="4.72" ry="4.65" transform="translate(37.73 346.83) rotate(-84)"/>
      <ellipse class="cls-5" cx="220.71" cy="153.44" rx="4.72" ry="4.65" transform="translate(45.05 356.9) rotate(-84)"/>
      <ellipse class="cls-5" cx="229.95" cy="154.41" rx="4.72" ry="4.65" transform="translate(52.36 366.96) rotate(-84)"/>
      <ellipse class="cls-5" cx="182.74" cy="158.94" rx="4.72" ry="4.65" transform="translate(5.58 324.07) rotate(-84)"/>
      <ellipse class="cls-5" cx="191.99" cy="159.91" rx="4.72" ry="4.65" transform="translate(12.89 334.13) rotate(-84)"/>
      <ellipse class="cls-5" cx="201.23" cy="160.88" rx="4.72" ry="4.65" transform="translate(20.2 344.19) rotate(-84)"/>
      <ellipse class="cls-5" cx="210.48" cy="161.85" rx="4.72" ry="4.65" transform="translate(27.51 354.26) rotate(-84)"/>
      <ellipse class="cls-5" cx="219.72" cy="162.82" rx="4.72" ry="4.65" transform="translate(34.83 364.32) rotate(-84)"/>
      <ellipse class="cls-5" cx="228.97" cy="163.79" rx="4.72" ry="4.65" transform="translate(42.14 374.39) rotate(-84)"/>
      <ellipse class="cls-5" cx="181.76" cy="168.32" rx="4.72" ry="4.65" transform="translate(-4.64 331.49) rotate(-84)"/>
      <ellipse class="cls-5" cx="191" cy="169.29" rx="4.72" ry="4.65" transform="translate(2.67 341.55) rotate(-84)"/>
      <ellipse class="cls-5" cx="200.25" cy="170.27" rx="4.72" ry="4.65" transform="translate(9.98 351.62) rotate(-84)"/>
      <ellipse class="cls-5" cx="209.49" cy="171.24" rx="4.72" ry="4.65" transform="translate(17.3 361.68) rotate(-84)"/>
      <ellipse class="cls-5" cx="218.74" cy="172.21" rx="4.72" ry="4.65" transform="translate(24.61 371.75) rotate(-84)"/>
      <ellipse class="cls-5" cx="227.98" cy="173.18" rx="4.72" ry="4.65" transform="translate(31.92 381.81) rotate(-84)"/>
      <ellipse class="cls-5" cx="180.77" cy="177.71" rx="4.72" ry="4.65" transform="translate(-14.86 338.91) rotate(-84)"/>
      <ellipse class="cls-5" cx="190.02" cy="178.68" rx="4.72" ry="4.65" transform="translate(-7.55 348.98) rotate(-84)"/>
      <ellipse class="cls-5" cx="199.26" cy="179.65" rx="4.72" ry="4.65" transform="translate(-.24 359.04) rotate(-84)"/>
      <ellipse class="cls-5" cx="208.51" cy="180.62" rx="4.72" ry="4.65" transform="translate(7.08 369.11) rotate(-84)"/>
      <ellipse class="cls-5" cx="217.75" cy="181.6" rx="4.72" ry="4.65" transform="translate(14.39 379.17) rotate(-84)"/>
      <ellipse class="cls-5" cx="227" cy="182.57" rx="4.72" ry="4.65" transform="translate(21.7 389.24) rotate(-84)"/>
      <ellipse class="cls-5" cx="179.78" cy="187.1" rx="4.72" ry="4.65" transform="translate(-25.08 346.34) rotate(-84)"/>
      <ellipse class="cls-5" cx="189.03" cy="188.07" rx="4.72" ry="4.65" transform="translate(-17.77 356.4) rotate(-84)"/>
      <ellipse class="cls-5" cx="198.27" cy="189.04" rx="4.72" ry="4.65" transform="translate(-10.45 366.47) rotate(-84)"/>
      <ellipse class="cls-5" cx="207.52" cy="190.01" rx="4.72" ry="4.65" transform="translate(-3.14 376.53) rotate(-84)"/>
      <ellipse class="cls-5" cx="216.76" cy="190.98" rx="4.72" ry="4.65" transform="translate(4.17 386.6) rotate(-84)"/>
      <ellipse class="cls-5" cx="226.01" cy="191.95" rx="4.72" ry="4.65" transform="translate(11.48 396.66) rotate(-84)"/>
      <ellipse class="cls-5" cx="178.8" cy="196.48" rx="4.72" ry="4.65" transform="translate(-35.3 353.76) rotate(-84)"/>
      <ellipse class="cls-5" cx="188.04" cy="197.45" rx="4.72" ry="4.65" transform="translate(-27.98 363.83) rotate(-84)"/>
      <ellipse class="cls-5" cx="197.29" cy="198.43" rx="4.72" ry="4.65" transform="translate(-20.67 373.89) rotate(-84)"/>
      <ellipse class="cls-5" cx="206.53" cy="199.4" rx="4.72" ry="4.65" transform="translate(-13.36 383.96) rotate(-84)"/>
      <ellipse class="cls-5" cx="215.78" cy="200.37" rx="4.72" ry="4.65" transform="translate(-6.05 394.02) rotate(-84)"/>
      <ellipse class="cls-5" cx="225.02" cy="201.34" rx="4.72" ry="4.65" transform="translate(1.26 404.09) rotate(-84)"/>
      <g>
        <g>
          <ellipse class="cls-5" cx="38.9" cy="191.09" rx="4.72" ry="4.65" transform="translate(-155.21 209.81) rotate(-84)"/>
          <ellipse class="cls-5" cx="48.14" cy="192.07" rx="4.72" ry="4.65" transform="translate(-147.9 219.87) rotate(-84)"/>
          <ellipse class="cls-5" cx="57.39" cy="193.04" rx="4.72" ry="4.65" transform="translate(-140.59 229.94) rotate(-84)"/>
          <ellipse class="cls-5" cx="66.63" cy="194.01" rx="4.72" ry="4.65" transform="translate(-133.28 240) rotate(-84)"/>
          <ellipse class="cls-5" cx="75.88" cy="194.98" rx="4.72" ry="4.65" transform="translate(-125.96 250.06) rotate(-84)"/>
          <ellipse class="cls-5" cx="85.12" cy="195.95" rx="4.72" ry="4.65" transform="translate(-118.65 260.13) rotate(-84)"/>
          <ellipse class="cls-5" cx="37.91" cy="200.48" rx="4.72" ry="4.65" transform="translate(-165.43 217.23) rotate(-84)"/>
          <ellipse class="cls-5" cx="47.16" cy="201.45" rx="4.72" ry="4.65" transform="translate(-158.12 227.3) rotate(-84)"/>
          <ellipse class="cls-5" cx="56.4" cy="202.42" rx="4.72" ry="4.65" transform="translate(-150.81 237.36) rotate(-84)"/>
          <ellipse class="cls-5" cx="65.65" cy="203.4" rx="4.72" ry="4.65" transform="translate(-143.5 247.42) rotate(-84)"/>
          <ellipse class="cls-5" cx="74.89" cy="204.37" rx="4.72" ry="4.65" transform="translate(-136.18 257.49) rotate(-84)"/>
          <ellipse class="cls-5" cx="84.14" cy="205.34" rx="4.72" ry="4.65" transform="translate(-128.87 267.55) rotate(-84)"/>
        </g>
        <g>
          <ellipse class="cls-5" cx="94.37" cy="196.92" rx="4.72" ry="4.65" transform="translate(-111.34 270.19) rotate(-84)"/>
          <ellipse class="cls-5" cx="103.61" cy="197.9" rx="4.72" ry="4.65" transform="translate(-104.03 280.26) rotate(-84)"/>
          <ellipse class="cls-5" cx="112.86" cy="198.87" rx="4.72" ry="4.65" transform="translate(-96.72 290.32) rotate(-84)"/>
          <ellipse class="cls-5" cx="122.1" cy="199.84" rx="4.72" ry="4.65" transform="translate(-89.4 300.39) rotate(-84)"/>
          <ellipse class="cls-5" cx="131.35" cy="200.81" rx="4.72" ry="4.65" transform="translate(-82.09 310.45) rotate(-84)"/>
          <ellipse class="cls-5" cx="140.59" cy="201.78" rx="4.72" ry="4.65" transform="translate(-74.78 320.52) rotate(-84)"/>
          <ellipse class="cls-5" cx="93.38" cy="206.31" rx="4.72" ry="4.65" transform="translate(-121.56 277.62) rotate(-84)"/>
          <ellipse class="cls-5" cx="102.63" cy="207.28" rx="4.72" ry="4.65" transform="translate(-114.25 287.68) rotate(-84)"/>
          <ellipse class="cls-5" cx="111.87" cy="208.25" rx="4.72" ry="4.65" transform="translate(-106.93 297.75) rotate(-84)"/>
          <ellipse class="cls-5" cx="121.12" cy="209.23" rx="4.72" ry="4.65" transform="translate(-99.62 307.81) rotate(-84)"/>
          <ellipse class="cls-5" cx="130.36" cy="210.2" rx="4.72" ry="4.65" transform="translate(-92.31 317.88) rotate(-84)"/>
          <ellipse class="cls-5" cx="139.61" cy="211.17" rx="4.72" ry="4.65" transform="translate(-85 327.94) rotate(-84)"/>
        </g>
      </g>
      <g>
        <ellipse class="cls-5" cx="149.82" cy="202.93" rx="4.72" ry="4.65" transform="translate(-67.65 330.72) rotate(-84)"/>
        <ellipse class="cls-5" cx="159.07" cy="203.9" rx="4.72" ry="4.65" transform="translate(-60.34 340.78) rotate(-84)"/>
        <ellipse class="cls-5" cx="168.31" cy="204.87" rx="4.72" ry="4.65" transform="translate(-53.03 350.85) rotate(-84)"/>
        <ellipse class="cls-5" cx="177.56" cy="205.84" rx="4.72" ry="4.65" transform="translate(-45.72 360.91) rotate(-84)"/>
        <ellipse class="cls-5" cx="186.8" cy="206.81" rx="4.72" ry="4.65" transform="translate(-38.4 370.97) rotate(-84)"/>
        <ellipse class="cls-5" cx="196.05" cy="207.79" rx="4.72" ry="4.65" transform="translate(-31.09 381.04) rotate(-84)"/>
        <ellipse class="cls-5" cx="148.83" cy="212.31" rx="4.72" ry="4.65" transform="translate(-77.87 338.14) rotate(-84)"/>
        <ellipse class="cls-5" cx="158.08" cy="213.29" rx="4.72" ry="4.65" transform="translate(-70.56 348.21) rotate(-84)"/>
        <ellipse class="cls-5" cx="167.32" cy="214.26" rx="4.72" ry="4.65" transform="translate(-63.25 358.27) rotate(-84)"/>
        <ellipse class="cls-5" cx="176.57" cy="215.23" rx="4.72" ry="4.65" transform="translate(-55.94 368.33) rotate(-84)"/>
        <ellipse class="cls-5" cx="185.81" cy="216.2" rx="4.72" ry="4.65" transform="translate(-48.62 378.4) rotate(-84)"/>
        <ellipse class="cls-5" cx="195.06" cy="217.17" rx="4.72" ry="4.65" transform="translate(-41.31 388.46) rotate(-84)"/>
      </g>
      <ellipse class="cls-5" cx="205.29" cy="208.76" rx="4.72" ry="4.65" transform="translate(-23.78 391.1) rotate(-84)"/>
      <ellipse class="cls-5" cx="214.54" cy="209.73" rx="4.72" ry="4.65" transform="translate(-16.47 401.17) rotate(-84)"/>
      <ellipse class="cls-5" cx="223.78" cy="210.7" rx="4.72" ry="4.65" transform="translate(-9.16 411.23) rotate(-84)"/>
      <ellipse class="cls-5" cx="204.3" cy="218.14" rx="4.72" ry="4.65" transform="translate(-34 398.53) rotate(-84)"/>
      <ellipse class="cls-5" cx="213.55" cy="219.12" rx="4.72" ry="4.65" transform="translate(-26.69 408.59) rotate(-84)"/>
      <ellipse class="cls-5" cx="222.79" cy="220.09" rx="4.72" ry="4.65" transform="translate(-19.37 418.66) rotate(-84)"/>
    </g>
  </g>
</svg>