<?xml version="1.0" encoding="UTF-8"?>
<svg id="Layer_2" xmlns="http://www.w3.org/2000/svg" viewBox="0 0 220.09 174.71">
  <defs>
    <style>
      .cls-1 {
        fill: none;
        stroke: #fff;
        stroke-linejoin: round;
        stroke-width: .75px;
      }

      .cls-2 {
        fill: #4094d3;
      }

      .cls-3 {
        fill: #fff;
      }

      .cls-4 {
        fill: #56a1e4;
      }
    </style>
  </defs>
  <g id="Kort">
    <g>
      <rect class="cls-3" width="220.09" height="174.71" rx="8.85" ry="8.85"/>
      <path class="cls-1" d="M213.58,168.13c-1.61,1.25-3.77-5.08-5.81-5.08s-2.04,5.67-4.07,5.67-2.04-5.67-4.07-5.67-2.03,5.67-4.07,5.67-2.03-5.67-4.07-5.67-2.03,5.67-4.07,5.67-2.03-5.67-4.07-5.67-2.03,5.67-4.07,5.67-2.03-5.67-4.07-5.67-2.04,5.67-4.07,5.67-2.04-5.67-4.07-5.67-2.03,5.67-4.07,5.67-2.03-5.67-4.07-5.67-2.03,5.67-4.07,5.67-2.03-5.67-4.07-5.67-2.04,5.67-4.07,5.67-2.04-5.67-4.07-5.67-2.03,5.67-4.07,5.67-2.03-5.67-4.07-5.67-2.04,5.67-4.07,5.67-2.04-5.67-4.07-5.67-2.04,5.67-4.07,5.67-2.03-5.67-4.07-5.67-2.04,5.67-4.07,5.67-2.04-5.67-4.07-5.67-2.04,5.67-4.07,5.67-2.04-5.67-4.07-5.67-2.04,5.67-4.07,5.67-2.04-5.67-4.07-5.67-2.04,5.67-4.07,5.67-2.04-5.67-4.07-5.67-2.04,5.67-4.07,5.67-2.04-5.67-4.07-5.67-2.04,5.67-4.07,5.67-2.04-5.67-4.07-5.67-2.04,5.67-4.07,5.67-2.03-5.67-4.07-5.67-2.04,5.67-4.07,5.67-2.04-5.67-4.07-5.67-2.04,5.67-4.07,5.67-2.04-5.67-4.07-5.67-2.04,5.67-4.07,5.67-2.04-5.67-4.08-5.67-2.04,5.67-4.08,5.67-2.04-5.67-4.08-5.67-2.04,5.67-4.07,5.67-2.04-5.67-4.08-5.67-2.04,5.67-4.08,5.67-2.04-5.67-4.08-5.67-4.19,6.33-5.81,5.08c-1.24-.96,4.56-3.82,4.56-5.38s-5.67-1.57-5.67-3.14,5.67-1.57,5.67-3.14-5.67-1.57-5.67-3.14,5.67-1.57,5.67-3.14-5.67-1.57-5.67-3.14,5.67-1.57,5.67-3.14-5.67-1.57-5.67-3.14,5.67-1.57,5.67-3.14-5.67-1.57-5.67-3.14,5.67-1.57,5.67-3.14-5.67-1.57-5.67-3.14,5.67-1.57,5.67-3.14-5.67-1.57-5.67-3.14,5.67-1.57,5.67-3.14-5.67-1.57-5.67-3.14,5.67-1.57,5.67-3.14-5.67-1.57-5.67-3.14,5.67-1.57,5.67-3.14-5.67-1.57-5.67-3.14,5.67-1.57,5.67-3.14-5.67-1.57-5.67-3.14,5.67-1.57,5.67-3.14-5.67-1.57-5.67-3.14,5.67-1.57,5.67-3.14-5.67-1.57-5.67-3.14,5.67-1.57,5.67-3.14-5.67-1.57-5.67-3.14,5.67-1.57,5.67-3.14-5.67-1.57-5.67-3.14,5.67-1.57,5.67-3.14-5.67-1.57-5.67-3.14,5.67-1.57,5.67-3.14-5.67-1.57-5.67-3.14,5.67-1.57,5.67-3.14-5.67-1.57-5.67-3.14,5.67-1.57,5.67-3.14-5.67-1.57-5.67-3.14,5.67-1.57,5.67-3.14-5.67-1.57-5.67-3.14,5.67-1.57,5.67-3.14-5.67-1.57-5.67-3.14,5.67-1.57,5.67-3.15-5.67-1.57-5.67-3.15,5.67-1.57,5.67-3.14-5.67-1.57-5.67-3.15,5.67-1.57,5.67-3.15-5.67-1.57-5.67-3.15,5.67-1.58,5.67-3.15-5.82-4.43-4.57-5.39c1.61-1.25,3.77,5.08,5.81,5.08s2.04-5.67,4.07-5.67,2.04,5.67,4.07,5.67,2.03-5.67,4.07-5.67,2.03,5.67,4.07,5.67,2.03-5.67,4.07-5.67,2.03,5.67,4.07,5.67,2.03-5.67,4.07-5.67,2.03,5.67,4.07,5.67,2.04-5.67,4.07-5.67,2.04,5.67,4.07,5.67,2.03-5.67,4.07-5.67,2.03,5.67,4.07,5.67,2.03-5.67,4.07-5.67,2.03,5.67,4.07,5.67,2.04-5.67,4.07-5.67,2.04,5.67,4.07,5.67,2.03-5.67,4.07-5.67,2.03,5.67,4.07,5.67,2.04-5.67,4.07-5.67,2.04,5.67,4.07,5.67,2.04-5.67,4.07-5.67,2.03,5.67,4.07,5.67,2.04-5.67,4.07-5.67,2.04,5.67,4.07,5.67,2.04-5.67,4.07-5.67,2.04,5.67,4.07,5.67,2.04-5.67,4.07-5.67,2.04,5.67,4.07,5.67,2.04-5.67,4.07-5.67,2.04,5.67,4.07,5.67,2.04-5.67,4.07-5.67,2.04,5.67,4.07,5.67,2.04-5.67,4.07-5.67,2.04,5.67,4.07,5.67,2.04-5.67,4.07-5.67,2.03,5.67,4.07,5.67,2.04-5.67,4.07-5.67,2.04,5.67,4.07,5.67,2.04-5.67,4.07-5.67,2.04,5.67,4.07,5.67,2.04-5.67,4.07-5.67,2.04,5.67,4.08,5.67,2.04-5.67,4.08-5.67,2.04,5.67,4.08,5.67,2.04-5.67,4.07-5.67,2.04,5.67,4.08,5.67,2.04-5.67,4.08-5.67,2.04,5.67,4.08,5.67,4.19-6.33,5.81-5.08c1.24.96-4.56,3.82-4.56,5.38s5.67,1.57,5.67,3.14-5.67,1.57-5.67,3.14,5.67,1.57,5.67,3.14-5.67,1.57-5.67,3.14,5.67,1.57,5.67,3.14-5.67,1.57-5.67,3.14,5.67,1.57,5.67,3.14-5.67,1.57-5.67,3.14,5.67,1.57,5.67,3.14-5.67,1.57-5.67,3.14,5.67,1.57,5.67,3.14-5.67,1.57-5.67,3.14,5.67,1.57,5.67,3.14-5.67,1.57-5.67,3.14,5.67,1.57,5.67,3.14-5.67,1.57-5.67,3.14,5.67,1.57,5.67,3.14-5.67,1.57-5.67,3.14,5.67,1.57,5.67,3.14-5.67,1.57-5.67,3.14,5.67,1.57,5.67,3.14-5.67,1.57-5.67,3.14,5.67,1.57,5.67,3.14-5.67,1.57-5.67,3.14,5.67,1.57,5.67,3.14-5.67,1.57-5.67,3.14,5.67,1.57,5.67,3.14-5.67,1.57-5.67,3.14,5.67,1.57,5.67,3.14-5.67,1.57-5.67,3.14,5.67,1.57,5.67,3.14-5.67,1.57-5.67,3.14,5.67,1.57,5.67,3.14-5.67,1.57-5.67,3.14,5.67,1.57,5.67,3.14-5.67,1.57-5.67,3.14,5.67,1.57,5.67,3.14-5.67,1.57-5.67,3.14,5.67,1.57,5.67,3.14-5.67,1.57-5.67,3.14,5.67,1.57,5.67,3.14-5.67,1.57-5.67,3.15,5.67,1.57,5.67,3.15-5.67,1.57-5.67,3.14,5.67,1.57,5.67,3.15-5.67,1.57-5.67,3.15,5.67,1.57,5.67,3.15-6.05,2.72-5.47,4.19c1.09,2.77,5.62,3.39,4.37,4.36h0Z"/>
      <rect id="board" class="cls-2" x="8.25" y="8.82" width="203.59" height="157.06" rx="6.63" ry="6.63"/>
      <g id="prickar">
        <g>
          <ellipse class="cls-4" cx="17.21" cy="16.57" rx="4.65" ry="4.72"/>
          <ellipse class="cls-4" cx="26.51" cy="16.57" rx="4.65" ry="4.72"/>
          <ellipse class="cls-4" cx="35.8" cy="16.57" rx="4.65" ry="4.72"/>
          <ellipse class="cls-4" cx="45.1" cy="16.57" rx="4.65" ry="4.72"/>
          <ellipse class="cls-4" cx="54.4" cy="16.57" rx="4.65" ry="4.72"/>
          <ellipse class="cls-4" cx="63.69" cy="16.57" rx="4.65" ry="4.72"/>
          <ellipse class="cls-4" cx="72.99" cy="16.57" rx="4.65" ry="4.72"/>
          <ellipse class="cls-4" cx="82.28" cy="16.57" rx="4.65" ry="4.72"/>
          <ellipse class="cls-4" cx="91.58" cy="16.57" rx="4.65" ry="4.72"/>
          <ellipse class="cls-4" cx="100.88" cy="16.57" rx="4.65" ry="4.72"/>
          <ellipse class="cls-4" cx="110.17" cy="16.57" rx="4.65" ry="4.72"/>
          <ellipse class="cls-4" cx="119.47" cy="16.57" rx="4.65" ry="4.72"/>
          <ellipse class="cls-4" cx="128.76" cy="16.57" rx="4.65" ry="4.72"/>
          <ellipse class="cls-4" cx="138.06" cy="16.57" rx="4.65" ry="4.72"/>
          <ellipse class="cls-4" cx="147.36" cy="16.57" rx="4.65" ry="4.72"/>
          <ellipse class="cls-4" cx="17.21" cy="26.01" rx="4.65" ry="4.72"/>
          <ellipse class="cls-4" cx="26.51" cy="26.01" rx="4.65" ry="4.72"/>
          <ellipse class="cls-4" cx="35.8" cy="26.01" rx="4.65" ry="4.72"/>
          <ellipse class="cls-4" cx="45.1" cy="26.01" rx="4.65" ry="4.72"/>
          <ellipse class="cls-4" cx="54.4" cy="26.01" rx="4.65" ry="4.72"/>
          <ellipse class="cls-4" cx="63.69" cy="26.01" rx="4.65" ry="4.72"/>
          <ellipse class="cls-4" cx="72.99" cy="26.01" rx="4.65" ry="4.72"/>
          <ellipse class="cls-4" cx="82.28" cy="26.01" rx="4.65" ry="4.72"/>
          <ellipse class="cls-4" cx="91.58" cy="26.01" rx="4.65" ry="4.72"/>
          <ellipse class="cls-4" cx="100.88" cy="26.01" rx="4.65" ry="4.72"/>
          <ellipse class="cls-4" cx="110.17" cy="26.01" rx="4.65" ry="4.72"/>
          <ellipse class="cls-4" cx="119.47" cy="26.01" rx="4.65" ry="4.72"/>
          <ellipse class="cls-4" cx="128.76" cy="26.01" rx="4.65" ry="4.72"/>
          <ellipse class="cls-4" cx="138.06" cy="26.01" rx="4.65" ry="4.72"/>
          <ellipse class="cls-4" cx="147.36" cy="26.01" rx="4.65" ry="4.72"/>
          <ellipse class="cls-4" cx="17.21" cy="35.45" rx="4.65" ry="4.72"/>
          <ellipse class="cls-4" cx="26.51" cy="35.45" rx="4.65" ry="4.72"/>
          <ellipse class="cls-4" cx="35.8" cy="35.45" rx="4.65" ry="4.72"/>
          <ellipse class="cls-4" cx="45.1" cy="35.45" rx="4.65" ry="4.72"/>
          <ellipse class="cls-4" cx="54.4" cy="35.45" rx="4.65" ry="4.72"/>
          <ellipse class="cls-4" cx="63.69" cy="35.44" rx="4.65" ry="4.72"/>
          <ellipse class="cls-4" cx="72.99" cy="35.44" rx="4.65" ry="4.72"/>
          <ellipse class="cls-4" cx="82.28" cy="35.44" rx="4.65" ry="4.72"/>
          <ellipse class="cls-4" cx="91.58" cy="35.44" rx="4.65" ry="4.72"/>
          <ellipse class="cls-4" cx="100.88" cy="35.44" rx="4.65" ry="4.72"/>
          <ellipse class="cls-4" cx="110.17" cy="35.44" rx="4.65" ry="4.72"/>
          <ellipse class="cls-4" cx="119.47" cy="35.44" rx="4.65" ry="4.72"/>
          <ellipse class="cls-4" cx="128.76" cy="35.44" rx="4.65" ry="4.72"/>
          <ellipse class="cls-4" cx="138.06" cy="35.44" rx="4.65" ry="4.72"/>
          <ellipse class="cls-4" cx="147.36" cy="35.44" rx="4.65" ry="4.72"/>
          <ellipse class="cls-4" cx="17.21" cy="44.88" rx="4.65" ry="4.72"/>
          <ellipse class="cls-4" cx="26.51" cy="44.88" rx="4.65" ry="4.72"/>
          <ellipse class="cls-4" cx="35.8" cy="44.88" rx="4.65" ry="4.72"/>
          <ellipse class="cls-4" cx="45.1" cy="44.88" rx="4.65" ry="4.72"/>
          <ellipse class="cls-4" cx="54.4" cy="44.88" rx="4.65" ry="4.72"/>
          <ellipse class="cls-4" cx="63.69" cy="44.88" rx="4.65" ry="4.72"/>
          <ellipse class="cls-4" cx="72.99" cy="44.88" rx="4.65" ry="4.72"/>
          <ellipse class="cls-4" cx="82.28" cy="44.88" rx="4.65" ry="4.72"/>
          <ellipse class="cls-4" cx="91.58" cy="44.88" rx="4.65" ry="4.72"/>
          <ellipse class="cls-4" cx="100.88" cy="44.88" rx="4.65" ry="4.72"/>
          <ellipse class="cls-4" cx="110.17" cy="44.88" rx="4.65" ry="4.72"/>
          <ellipse class="cls-4" cx="119.47" cy="44.88" rx="4.65" ry="4.72"/>
          <ellipse class="cls-4" cx="128.76" cy="44.88" rx="4.65" ry="4.72"/>
          <ellipse class="cls-4" cx="138.06" cy="44.88" rx="4.65" ry="4.72"/>
          <ellipse class="cls-4" cx="147.36" cy="44.88" rx="4.65" ry="4.72"/>
          <ellipse class="cls-4" cx="17.21" cy="54.32" rx="4.65" ry="4.72"/>
          <ellipse class="cls-4" cx="26.51" cy="54.32" rx="4.65" ry="4.72"/>
          <ellipse class="cls-4" cx="35.8" cy="54.32" rx="4.65" ry="4.72"/>
          <ellipse class="cls-4" cx="45.1" cy="54.32" rx="4.65" ry="4.72"/>
          <ellipse class="cls-4" cx="54.4" cy="54.32" rx="4.65" ry="4.72"/>
          <ellipse class="cls-4" cx="63.69" cy="54.32" rx="4.65" ry="4.72"/>
          <ellipse class="cls-4" cx="72.99" cy="54.32" rx="4.65" ry="4.72"/>
          <ellipse class="cls-4" cx="82.28" cy="54.32" rx="4.65" ry="4.72"/>
          <ellipse class="cls-4" cx="91.58" cy="54.32" rx="4.65" ry="4.72"/>
          <ellipse class="cls-4" cx="100.88" cy="54.32" rx="4.65" ry="4.72"/>
          <ellipse class="cls-4" cx="110.17" cy="54.32" rx="4.65" ry="4.72"/>
          <ellipse class="cls-4" cx="119.47" cy="54.32" rx="4.65" ry="4.72"/>
          <ellipse class="cls-4" cx="128.76" cy="54.32" rx="4.65" ry="4.72"/>
          <ellipse class="cls-4" cx="138.06" cy="54.32" rx="4.65" ry="4.72"/>
          <ellipse class="cls-4" cx="147.36" cy="54.32" rx="4.65" ry="4.72"/>
          <ellipse class="cls-4" cx="17.21" cy="63.76" rx="4.65" ry="4.72"/>
          <ellipse class="cls-4" cx="26.51" cy="63.76" rx="4.65" ry="4.72"/>
          <ellipse class="cls-4" cx="35.8" cy="63.76" rx="4.65" ry="4.72"/>
          <ellipse class="cls-4" cx="45.1" cy="63.76" rx="4.65" ry="4.72"/>
          <ellipse class="cls-4" cx="54.4" cy="63.76" rx="4.65" ry="4.72"/>
          <ellipse class="cls-4" cx="63.69" cy="63.76" rx="4.65" ry="4.72"/>
          <ellipse class="cls-4" cx="72.99" cy="63.76" rx="4.65" ry="4.72"/>
          <ellipse class="cls-4" cx="82.28" cy="63.76" rx="4.65" ry="4.72"/>
          <ellipse class="cls-4" cx="91.58" cy="63.76" rx="4.65" ry="4.72"/>
          <ellipse class="cls-4" cx="100.88" cy="63.76" rx="4.65" ry="4.72"/>
          <ellipse class="cls-4" cx="110.17" cy="63.76" rx="4.65" ry="4.72"/>
          <ellipse class="cls-4" cx="119.47" cy="63.76" rx="4.65" ry="4.72"/>
          <ellipse class="cls-4" cx="128.76" cy="63.76" rx="4.65" ry="4.72"/>
          <ellipse class="cls-4" cx="138.06" cy="63.76" rx="4.65" ry="4.72"/>
          <ellipse class="cls-4" cx="147.36" cy="63.76" rx="4.65" ry="4.72"/>
          <ellipse class="cls-4" cx="17.21" cy="73.2" rx="4.65" ry="4.72"/>
          <ellipse class="cls-4" cx="26.51" cy="73.2" rx="4.65" ry="4.72"/>
          <ellipse class="cls-4" cx="35.8" cy="73.2" rx="4.65" ry="4.72"/>
          <ellipse class="cls-4" cx="45.1" cy="73.2" rx="4.65" ry="4.72"/>
          <ellipse class="cls-4" cx="54.4" cy="73.2" rx="4.65" ry="4.72"/>
          <ellipse class="cls-4" cx="63.69" cy="73.2" rx="4.65" ry="4.72"/>
          <ellipse class="cls-4" cx="72.99" cy="73.2" rx="4.65" ry="4.72"/>
          <ellipse class="cls-4" cx="82.28" cy="73.2" rx="4.65" ry="4.72"/>
          <ellipse class="cls-4" cx="91.58" cy="73.2" rx="4.65" ry="4.72"/>
          <ellipse class="cls-4" cx="100.88" cy="73.2" rx="4.65" ry="4.72"/>
          <ellipse class="cls-4" cx="110.17" cy="73.2" rx="4.65" ry="4.72"/>
          <ellipse class="cls-4" cx="119.47" cy="73.2" rx="4.65" ry="4.72"/>
          <ellipse class="cls-4" cx="128.76" cy="73.2" rx="4.65" ry="4.72"/>
          <ellipse class="cls-4" cx="138.06" cy="73.2" rx="4.65" ry="4.72"/>
          <ellipse class="cls-4" cx="147.36" cy="73.2" rx="4.65" ry="4.72"/>
          <ellipse class="cls-4" cx="17.21" cy="82.64" rx="4.65" ry="4.72"/>
          <ellipse class="cls-4" cx="26.51" cy="82.64" rx="4.65" ry="4.72"/>
          <ellipse class="cls-4" cx="35.8" cy="82.64" rx="4.65" ry="4.72"/>
          <ellipse class="cls-4" cx="45.1" cy="82.64" rx="4.65" ry="4.72"/>
          <ellipse class="cls-4" cx="54.4" cy="82.64" rx="4.65" ry="4.72"/>
          <ellipse class="cls-4" cx="63.69" cy="82.64" rx="4.65" ry="4.72"/>
          <ellipse class="cls-4" cx="72.99" cy="82.64" rx="4.65" ry="4.72"/>
          <ellipse class="cls-4" cx="82.28" cy="82.64" rx="4.65" ry="4.72"/>
          <ellipse class="cls-4" cx="91.58" cy="82.64" rx="4.65" ry="4.72"/>
          <ellipse class="cls-4" cx="100.88" cy="82.64" rx="4.65" ry="4.72"/>
          <ellipse class="cls-4" cx="110.17" cy="82.64" rx="4.65" ry="4.72"/>
          <ellipse class="cls-4" cx="119.47" cy="82.64" rx="4.65" ry="4.72"/>
          <ellipse class="cls-4" cx="128.76" cy="82.64" rx="4.65" ry="4.72"/>
          <ellipse class="cls-4" cx="138.06" cy="82.64" rx="4.65" ry="4.72"/>
          <ellipse class="cls-4" cx="147.36" cy="82.64" rx="4.65" ry="4.72"/>
          <ellipse class="cls-4" cx="17.21" cy="92.08" rx="4.65" ry="4.72"/>
          <ellipse class="cls-4" cx="26.51" cy="92.08" rx="4.65" ry="4.72"/>
          <ellipse class="cls-4" cx="35.8" cy="92.08" rx="4.65" ry="4.72"/>
          <ellipse class="cls-4" cx="45.1" cy="92.08" rx="4.65" ry="4.72"/>
          <ellipse class="cls-4" cx="54.4" cy="92.07" rx="4.65" ry="4.72"/>
          <ellipse class="cls-4" cx="63.69" cy="92.07" rx="4.65" ry="4.72"/>
          <ellipse class="cls-4" cx="72.99" cy="92.07" rx="4.65" ry="4.72"/>
          <ellipse class="cls-4" cx="82.28" cy="92.07" rx="4.65" ry="4.72"/>
          <ellipse class="cls-4" cx="91.58" cy="92.07" rx="4.65" ry="4.72"/>
          <ellipse class="cls-4" cx="100.88" cy="92.07" rx="4.65" ry="4.72"/>
          <ellipse class="cls-4" cx="110.17" cy="92.07" rx="4.65" ry="4.72"/>
          <ellipse class="cls-4" cx="119.47" cy="92.07" rx="4.65" ry="4.72"/>
          <ellipse class="cls-4" cx="128.76" cy="92.07" rx="4.65" ry="4.72"/>
          <ellipse class="cls-4" cx="138.06" cy="92.07" rx="4.65" ry="4.72"/>
          <ellipse class="cls-4" cx="147.36" cy="92.07" rx="4.65" ry="4.72"/>
          <ellipse class="cls-4" cx="17.21" cy="101.51" rx="4.65" ry="4.72"/>
          <ellipse class="cls-4" cx="26.51" cy="101.51" rx="4.65" ry="4.72"/>
          <ellipse class="cls-4" cx="35.8" cy="101.51" rx="4.65" ry="4.72"/>
          <ellipse class="cls-4" cx="45.1" cy="101.51" rx="4.65" ry="4.72"/>
          <ellipse class="cls-4" cx="54.4" cy="101.51" rx="4.65" ry="4.72"/>
          <ellipse class="cls-4" cx="63.69" cy="101.51" rx="4.65" ry="4.72"/>
          <ellipse class="cls-4" cx="72.99" cy="101.51" rx="4.65" ry="4.72"/>
          <ellipse class="cls-4" cx="82.28" cy="101.51" rx="4.65" ry="4.72"/>
          <ellipse class="cls-4" cx="91.58" cy="101.51" rx="4.65" ry="4.72"/>
          <ellipse class="cls-4" cx="100.88" cy="101.51" rx="4.65" ry="4.72"/>
          <ellipse class="cls-4" cx="110.17" cy="101.51" rx="4.65" ry="4.72"/>
          <ellipse class="cls-4" cx="119.47" cy="101.51" rx="4.65" ry="4.72"/>
          <ellipse class="cls-4" cx="128.76" cy="101.51" rx="4.65" ry="4.72"/>
          <ellipse class="cls-4" cx="138.06" cy="101.51" rx="4.65" ry="4.72"/>
          <ellipse class="cls-4" cx="147.36" cy="101.51" rx="4.65" ry="4.72"/>
          <ellipse class="cls-4" cx="17.21" cy="110.95" rx="4.65" ry="4.72"/>
          <ellipse class="cls-4" cx="26.51" cy="110.95" rx="4.65" ry="4.72"/>
          <ellipse class="cls-4" cx="35.8" cy="110.95" rx="4.65" ry="4.72"/>
          <ellipse class="cls-4" cx="45.1" cy="110.95" rx="4.65" ry="4.72"/>
          <ellipse class="cls-4" cx="54.4" cy="110.95" rx="4.65" ry="4.72"/>
          <ellipse class="cls-4" cx="63.69" cy="110.95" rx="4.65" ry="4.72"/>
          <ellipse class="cls-4" cx="72.99" cy="110.95" rx="4.65" ry="4.72"/>
          <ellipse class="cls-4" cx="82.28" cy="110.95" rx="4.65" ry="4.72"/>
          <ellipse class="cls-4" cx="91.58" cy="110.95" rx="4.65" ry="4.72"/>
          <ellipse class="cls-4" cx="100.88" cy="110.95" rx="4.65" ry="4.72"/>
          <ellipse class="cls-4" cx="110.17" cy="110.95" rx="4.65" ry="4.72"/>
          <ellipse class="cls-4" cx="119.47" cy="110.95" rx="4.65" ry="4.72"/>
          <ellipse class="cls-4" cx="128.76" cy="110.95" rx="4.65" ry="4.72"/>
          <ellipse class="cls-4" cx="138.06" cy="110.95" rx="4.65" ry="4.72"/>
          <ellipse class="cls-4" cx="147.36" cy="110.95" rx="4.65" ry="4.72"/>
          <ellipse class="cls-4" cx="17.21" cy="120.39" rx="4.65" ry="4.72"/>
          <ellipse class="cls-4" cx="26.51" cy="120.39" rx="4.65" ry="4.72"/>
          <ellipse class="cls-4" cx="35.8" cy="120.39" rx="4.65" ry="4.72"/>
          <ellipse class="cls-4" cx="45.1" cy="120.39" rx="4.65" ry="4.72"/>
          <ellipse class="cls-4" cx="54.4" cy="120.39" rx="4.65" ry="4.72"/>
          <ellipse class="cls-4" cx="63.69" cy="120.39" rx="4.65" ry="4.72"/>
          <ellipse class="cls-4" cx="72.99" cy="120.39" rx="4.65" ry="4.72"/>
          <ellipse class="cls-4" cx="82.28" cy="120.39" rx="4.65" ry="4.72"/>
          <ellipse class="cls-4" cx="91.58" cy="120.39" rx="4.65" ry="4.72"/>
          <ellipse class="cls-4" cx="100.88" cy="120.39" rx="4.65" ry="4.72"/>
          <ellipse class="cls-4" cx="110.17" cy="120.39" rx="4.65" ry="4.72"/>
          <ellipse class="cls-4" cx="119.47" cy="120.39" rx="4.65" ry="4.72"/>
          <ellipse class="cls-4" cx="128.76" cy="120.39" rx="4.65" ry="4.72"/>
          <ellipse class="cls-4" cx="138.06" cy="120.39" rx="4.65" ry="4.72"/>
          <ellipse class="cls-4" cx="147.36" cy="120.39" rx="4.65" ry="4.72"/>
          <ellipse class="cls-4" cx="17.21" cy="129.83" rx="4.65" ry="4.72"/>
          <ellipse class="cls-4" cx="26.51" cy="129.83" rx="4.65" ry="4.72"/>
          <ellipse class="cls-4" cx="35.81" cy="129.83" rx="4.65" ry="4.72"/>
          <ellipse class="cls-4" cx="45.1" cy="129.83" rx="4.65" ry="4.72"/>
          <ellipse class="cls-4" cx="54.4" cy="129.83" rx="4.65" ry="4.72"/>
          <ellipse class="cls-4" cx="63.69" cy="129.83" rx="4.65" ry="4.72"/>
          <ellipse class="cls-4" cx="72.99" cy="129.83" rx="4.65" ry="4.72"/>
          <ellipse class="cls-4" cx="82.28" cy="129.83" rx="4.65" ry="4.72"/>
          <ellipse class="cls-4" cx="91.58" cy="129.83" rx="4.65" ry="4.72"/>
          <ellipse class="cls-4" cx="100.88" cy="129.83" rx="4.65" ry="4.72"/>
          <ellipse class="cls-4" cx="110.17" cy="129.83" rx="4.65" ry="4.72"/>
          <ellipse class="cls-4" cx="119.47" cy="129.83" rx="4.65" ry="4.72"/>
          <ellipse class="cls-4" cx="128.76" cy="129.83" rx="4.65" ry="4.72"/>
          <ellipse class="cls-4" cx="138.06" cy="129.83" rx="4.65" ry="4.72"/>
          <ellipse class="cls-4" cx="147.36" cy="129.83" rx="4.65" ry="4.72"/>
          <ellipse class="cls-4" cx="17.21" cy="139.27" rx="4.65" ry="4.72"/>
          <ellipse class="cls-4" cx="26.51" cy="139.27" rx="4.65" ry="4.72"/>
          <ellipse class="cls-4" cx="35.81" cy="139.27" rx="4.65" ry="4.72"/>
          <ellipse class="cls-4" cx="45.1" cy="139.27" rx="4.65" ry="4.72"/>
          <ellipse class="cls-4" cx="54.4" cy="139.27" rx="4.65" ry="4.72"/>
          <ellipse class="cls-4" cx="63.69" cy="139.27" rx="4.65" ry="4.72"/>
          <ellipse class="cls-4" cx="72.99" cy="139.27" rx="4.65" ry="4.72"/>
          <ellipse class="cls-4" cx="82.28" cy="139.27" rx="4.65" ry="4.72"/>
          <ellipse class="cls-4" cx="91.58" cy="139.27" rx="4.65" ry="4.72"/>
          <ellipse class="cls-4" cx="100.88" cy="139.27" rx="4.65" ry="4.72"/>
          <ellipse class="cls-4" cx="110.17" cy="139.27" rx="4.65" ry="4.72"/>
          <ellipse class="cls-4" cx="119.47" cy="139.27" rx="4.65" ry="4.72"/>
          <ellipse class="cls-4" cx="128.76" cy="139.27" rx="4.65" ry="4.72"/>
          <ellipse class="cls-4" cx="138.06" cy="139.27" rx="4.65" ry="4.72"/>
          <ellipse class="cls-4" cx="147.36" cy="139.27" rx="4.65" ry="4.72"/>
        </g>
        <ellipse class="cls-4" cx="156.91" cy="16.57" rx="4.65" ry="4.72"/>
        <ellipse class="cls-4" cx="166.2" cy="16.57" rx="4.65" ry="4.72"/>
        <ellipse class="cls-4" cx="175.5" cy="16.57" rx="4.65" ry="4.72"/>
        <ellipse class="cls-4" cx="184.79" cy="16.57" rx="4.65" ry="4.72"/>
        <ellipse class="cls-4" cx="194.09" cy="16.57" rx="4.65" ry="4.72"/>
        <ellipse class="cls-4" cx="203.39" cy="16.57" rx="4.65" ry="4.72"/>
        <ellipse class="cls-4" cx="156.91" cy="26.01" rx="4.65" ry="4.72"/>
        <ellipse class="cls-4" cx="166.2" cy="26.01" rx="4.65" ry="4.72"/>
        <ellipse class="cls-4" cx="175.5" cy="26.01" rx="4.65" ry="4.72"/>
        <ellipse class="cls-4" cx="184.79" cy="26.01" rx="4.65" ry="4.72"/>
        <ellipse class="cls-4" cx="194.09" cy="26.01" rx="4.65" ry="4.72"/>
        <ellipse class="cls-4" cx="203.39" cy="26.01" rx="4.65" ry="4.72"/>
        <ellipse class="cls-4" cx="156.91" cy="35.44" rx="4.65" ry="4.72"/>
        <ellipse class="cls-4" cx="166.2" cy="35.44" rx="4.65" ry="4.72"/>
        <ellipse class="cls-4" cx="175.5" cy="35.44" rx="4.65" ry="4.72"/>
        <ellipse class="cls-4" cx="184.79" cy="35.44" rx="4.65" ry="4.72"/>
        <ellipse class="cls-4" cx="194.09" cy="35.44" rx="4.65" ry="4.72"/>
        <ellipse class="cls-4" cx="203.39" cy="35.44" rx="4.65" ry="4.72"/>
        <ellipse class="cls-4" cx="156.91" cy="44.88" rx="4.65" ry="4.72"/>
        <ellipse class="cls-4" cx="166.2" cy="44.88" rx="4.65" ry="4.72"/>
        <ellipse class="cls-4" cx="175.5" cy="44.88" rx="4.65" ry="4.72"/>
        <ellipse class="cls-4" cx="184.79" cy="44.88" rx="4.65" ry="4.72"/>
        <ellipse class="cls-4" cx="194.09" cy="44.88" rx="4.65" ry="4.72"/>
        <ellipse class="cls-4" cx="203.39" cy="44.88" rx="4.65" ry="4.72"/>
        <ellipse class="cls-4" cx="156.91" cy="54.32" rx="4.65" ry="4.72"/>
        <ellipse class="cls-4" cx="166.2" cy="54.32" rx="4.65" ry="4.72"/>
        <ellipse class="cls-4" cx="175.5" cy="54.32" rx="4.65" ry="4.72"/>
        <ellipse class="cls-4" cx="184.79" cy="54.32" rx="4.65" ry="4.72"/>
        <ellipse class="cls-4" cx="194.09" cy="54.32" rx="4.65" ry="4.72"/>
        <ellipse class="cls-4" cx="203.39" cy="54.32" rx="4.65" ry="4.72"/>
        <ellipse class="cls-4" cx="156.91" cy="63.76" rx="4.65" ry="4.72"/>
        <ellipse class="cls-4" cx="166.2" cy="63.76" rx="4.65" ry="4.72"/>
        <ellipse class="cls-4" cx="175.5" cy="63.76" rx="4.65" ry="4.72"/>
        <ellipse class="cls-4" cx="184.79" cy="63.76" rx="4.65" ry="4.72"/>
        <ellipse class="cls-4" cx="194.09" cy="63.76" rx="4.65" ry="4.72"/>
        <ellipse class="cls-4" cx="203.39" cy="63.76" rx="4.65" ry="4.72"/>
        <ellipse class="cls-4" cx="156.91" cy="73.2" rx="4.65" ry="4.72"/>
        <ellipse class="cls-4" cx="166.2" cy="73.2" rx="4.65" ry="4.72"/>
        <ellipse class="cls-4" cx="175.5" cy="73.2" rx="4.65" ry="4.72"/>
        <ellipse class="cls-4" cx="184.79" cy="73.2" rx="4.65" ry="4.72"/>
        <ellipse class="cls-4" cx="194.09" cy="73.2" rx="4.65" ry="4.72"/>
        <ellipse class="cls-4" cx="203.39" cy="73.2" rx="4.65" ry="4.72"/>
        <ellipse class="cls-4" cx="156.91" cy="82.64" rx="4.65" ry="4.72"/>
        <ellipse class="cls-4" cx="166.2" cy="82.64" rx="4.65" ry="4.72"/>
        <ellipse class="cls-4" cx="175.5" cy="82.64" rx="4.65" ry="4.72"/>
        <ellipse class="cls-4" cx="184.8" cy="82.64" rx="4.65" ry="4.72"/>
        <ellipse class="cls-4" cx="194.09" cy="82.64" rx="4.65" ry="4.72"/>
        <ellipse class="cls-4" cx="203.39" cy="82.64" rx="4.65" ry="4.72"/>
        <ellipse class="cls-4" cx="156.91" cy="92.07" rx="4.65" ry="4.72"/>
        <ellipse class="cls-4" cx="166.2" cy="92.07" rx="4.65" ry="4.72"/>
        <ellipse class="cls-4" cx="175.5" cy="92.07" rx="4.65" ry="4.72"/>
        <ellipse class="cls-4" cx="184.8" cy="92.07" rx="4.65" ry="4.72"/>
        <ellipse class="cls-4" cx="194.09" cy="92.07" rx="4.65" ry="4.72"/>
        <ellipse class="cls-4" cx="203.39" cy="92.07" rx="4.65" ry="4.72"/>
        <ellipse class="cls-4" cx="156.91" cy="101.51" rx="4.65" ry="4.72"/>
        <ellipse class="cls-4" cx="166.2" cy="101.51" rx="4.65" ry="4.72"/>
        <ellipse class="cls-4" cx="175.5" cy="101.51" rx="4.65" ry="4.72"/>
        <ellipse class="cls-4" cx="184.8" cy="101.51" rx="4.65" ry="4.72"/>
        <ellipse class="cls-4" cx="194.09" cy="101.51" rx="4.65" ry="4.72"/>
        <ellipse class="cls-4" cx="203.39" cy="101.51" rx="4.65" ry="4.72"/>
        <ellipse class="cls-4" cx="156.91" cy="110.95" rx="4.65" ry="4.72"/>
        <ellipse class="cls-4" cx="166.2" cy="110.95" rx="4.65" ry="4.72"/>
        <ellipse class="cls-4" cx="175.5" cy="110.95" rx="4.65" ry="4.72"/>
        <ellipse class="cls-4" cx="184.8" cy="110.95" rx="4.65" ry="4.72"/>
        <ellipse class="cls-4" cx="194.09" cy="110.95" rx="4.65" ry="4.72"/>
        <ellipse class="cls-4" cx="203.39" cy="110.95" rx="4.65" ry="4.72"/>
        <ellipse class="cls-4" cx="156.91" cy="120.39" rx="4.65" ry="4.72"/>
        <ellipse class="cls-4" cx="166.2" cy="120.39" rx="4.65" ry="4.72"/>
        <ellipse class="cls-4" cx="175.5" cy="120.39" rx="4.65" ry="4.72"/>
        <ellipse class="cls-4" cx="184.8" cy="120.39" rx="4.65" ry="4.72"/>
        <ellipse class="cls-4" cx="194.09" cy="120.39" rx="4.65" ry="4.72"/>
        <ellipse class="cls-4" cx="203.39" cy="120.39" rx="4.65" ry="4.72"/>
        <ellipse class="cls-4" cx="156.91" cy="129.83" rx="4.65" ry="4.72"/>
        <ellipse class="cls-4" cx="166.2" cy="129.83" rx="4.65" ry="4.72"/>
        <ellipse class="cls-4" cx="175.5" cy="129.83" rx="4.65" ry="4.72"/>
        <ellipse class="cls-4" cx="184.8" cy="129.83" rx="4.65" ry="4.72"/>
        <ellipse class="cls-4" cx="194.09" cy="129.83" rx="4.65" ry="4.72"/>
        <ellipse class="cls-4" cx="203.39" cy="129.83" rx="4.65" ry="4.72"/>
        <ellipse class="cls-4" cx="156.91" cy="139.27" rx="4.65" ry="4.72"/>
        <ellipse class="cls-4" cx="166.2" cy="139.27" rx="4.65" ry="4.72"/>
        <ellipse class="cls-4" cx="175.5" cy="139.27" rx="4.65" ry="4.72"/>
        <ellipse class="cls-4" cx="184.8" cy="139.27" rx="4.65" ry="4.72"/>
        <ellipse class="cls-4" cx="194.09" cy="139.27" rx="4.65" ry="4.72"/>
        <ellipse class="cls-4" cx="203.39" cy="139.27" rx="4.65" ry="4.72"/>
        <g>
          <g>
            <ellipse class="cls-4" cx="17.21" cy="148.53" rx="4.65" ry="4.72"/>
            <ellipse class="cls-4" cx="26.51" cy="148.53" rx="4.65" ry="4.72"/>
            <ellipse class="cls-4" cx="35.81" cy="148.53" rx="4.65" ry="4.72"/>
            <ellipse class="cls-4" cx="45.1" cy="148.53" rx="4.65" ry="4.72"/>
            <ellipse class="cls-4" cx="54.4" cy="148.53" rx="4.65" ry="4.72"/>
            <ellipse class="cls-4" cx="63.69" cy="148.53" rx="4.65" ry="4.72"/>
            <ellipse class="cls-4" cx="17.21" cy="157.97" rx="4.65" ry="4.72"/>
            <ellipse class="cls-4" cx="26.51" cy="157.97" rx="4.65" ry="4.72"/>
            <ellipse class="cls-4" cx="35.81" cy="157.97" rx="4.65" ry="4.72"/>
            <ellipse class="cls-4" cx="45.1" cy="157.97" rx="4.65" ry="4.72"/>
            <ellipse class="cls-4" cx="54.4" cy="157.97" rx="4.65" ry="4.72"/>
            <ellipse class="cls-4" cx="63.69" cy="157.97" rx="4.65" ry="4.72"/>
          </g>
          <g>
            <ellipse class="cls-4" cx="72.99" cy="148.53" rx="4.65" ry="4.72"/>
            <ellipse class="cls-4" cx="82.28" cy="148.53" rx="4.65" ry="4.72"/>
            <ellipse class="cls-4" cx="91.58" cy="148.53" rx="4.65" ry="4.72"/>
            <ellipse class="cls-4" cx="100.88" cy="148.53" rx="4.65" ry="4.72"/>
            <ellipse class="cls-4" cx="110.17" cy="148.53" rx="4.65" ry="4.72"/>
            <ellipse class="cls-4" cx="119.47" cy="148.53" rx="4.65" ry="4.72"/>
            <ellipse class="cls-4" cx="72.99" cy="157.97" rx="4.65" ry="4.72"/>
            <ellipse class="cls-4" cx="82.28" cy="157.97" rx="4.65" ry="4.72"/>
            <ellipse class="cls-4" cx="91.58" cy="157.97" rx="4.65" ry="4.72"/>
            <ellipse class="cls-4" cx="100.88" cy="157.97" rx="4.65" ry="4.72"/>
            <ellipse class="cls-4" cx="110.17" cy="157.97" rx="4.65" ry="4.72"/>
            <ellipse class="cls-4" cx="119.47" cy="157.97" rx="4.65" ry="4.72"/>
          </g>
        </g>
        <g>
          <ellipse class="cls-4" cx="128.76" cy="148.7" rx="4.65" ry="4.72"/>
          <ellipse class="cls-4" cx="138.06" cy="148.7" rx="4.65" ry="4.72"/>
          <ellipse class="cls-4" cx="147.36" cy="148.7" rx="4.65" ry="4.72"/>
          <ellipse class="cls-4" cx="156.65" cy="148.7" rx="4.65" ry="4.72"/>
          <ellipse class="cls-4" cx="165.95" cy="148.7" rx="4.65" ry="4.72"/>
          <ellipse class="cls-4" cx="175.24" cy="148.7" rx="4.65" ry="4.72"/>
          <ellipse class="cls-4" cx="128.76" cy="158.14" rx="4.65" ry="4.72"/>
          <ellipse class="cls-4" cx="138.06" cy="158.14" rx="4.65" ry="4.72"/>
          <ellipse class="cls-4" cx="147.36" cy="158.14" rx="4.65" ry="4.72"/>
          <ellipse class="cls-4" cx="156.65" cy="158.14" rx="4.65" ry="4.72"/>
          <ellipse class="cls-4" cx="165.95" cy="158.14" rx="4.65" ry="4.72"/>
          <ellipse class="cls-4" cx="175.24" cy="158.14" rx="4.65" ry="4.72"/>
        </g>
        <ellipse class="cls-4" cx="184.54" cy="148.7" rx="4.65" ry="4.72"/>
        <ellipse class="cls-4" cx="193.84" cy="148.7" rx="4.65" ry="4.72"/>
        <ellipse class="cls-4" cx="203.13" cy="148.7" rx="4.65" ry="4.72"/>
        <ellipse class="cls-4" cx="184.54" cy="158.14" rx="4.65" ry="4.72"/>
        <ellipse class="cls-4" cx="193.84" cy="158.14" rx="4.65" ry="4.72"/>
        <ellipse class="cls-4" cx="203.13" cy="158.14" rx="4.65" ry="4.72"/>
      </g>
    </g>
  </g>
</svg>