<?xml version="1.0" encoding="UTF-8"?>
<!-- Generator: Adobe Illustrator 28.2.0, SVG Export Plug-In . SVG Version: 6.00 Build 0)  -->
<svg xmlns="http://www.w3.org/2000/svg" xmlns:xlink="http://www.w3.org/1999/xlink" version="1.1" id="Lager_1" x="0px" y="0px" width="451.445px" height="226.772px" viewBox="0 0 451.445 226.772" style="enable-background:new 0 0 451.445 226.772;" xml:space="preserve"><rect fill="#FFFFFF" x="0px" y="0px" width="451.445px" height="226.772px" />
<g id="F채rg_00000134957013428009008830000007710775736176596641_">
	
		<linearGradient id="SVGID_1_" gradientUnits="userSpaceOnUse" x1="-556.986" y1="-442.4371" x2="-539.1433" y2="-430.4206" gradientTransform="matrix(1.3443 -0.423 -0.3001 -0.9539 636.3267 -474.8896)">
		<stop offset="0" style="stop-color:#FFFFFF" />
		<stop offset="0.9986" style="stop-color:#E6E6E6" />
	</linearGradient>
	<path style="fill:url(#SVGID_1_);" d="M55.003,153.875c0,0-8.884,4.46-17.544-2.53c-5.745-2.803-13.501-9.439-13.501-9.439   L9.732,160.801l-8.013,9.518l41.681,28.413L55.003,153.875z" />
</g>
<g id="F채rg_00000103958237636934207940000007820422241996822961_">
	
		<linearGradient id="SVGID_00000152251869915763072720000002907373392866893712_" gradientUnits="userSpaceOnUse" x1="-420.1646" y1="-504.3785" x2="-401.7034" y2="-491.9454" gradientTransform="matrix(1.2843 -0.5802 -0.4117 -0.9113 556.1691 -513.0086)">
		<stop offset="0" style="stop-color:#FFFFFF" />
		<stop offset="0.9986" style="stop-color:#E6E6E6" />
	</linearGradient>
	<path style="fill:url(#SVGID_00000152251869915763072720000002907373392866893712_);" d="M259.351,157.76   c0,0-8.348,5.619-17.687-0.159c-6.001-2.013-14.405-7.561-14.405-7.561l-12.122,20.668l-9.956,15.083l41.742,14.471L259.351,157.76   z" />
</g>
<g id="F채rg_00000021091984269456968510000011340388945858603701_">
	
		<linearGradient id="SVGID_00000003814450255917875410000010835711650557661860_" gradientUnits="userSpaceOnUse" x1="-494.1885" y1="-440.0634" x2="-478.7735" y2="-429.6818" gradientTransform="matrix(1.379 0.2907 0.2063 -0.9785 869.7614 -151.9048)">
		<stop offset="0" style="stop-color:#FFFFFF" />
		<stop offset="0.9986" style="stop-color:#E6E6E6" />
	</linearGradient>
	<path style="fill:url(#SVGID_00000003814450255917875410000010835711650557661860_);" d="M129.867,132.113   c0,0-9.141-0.247-13.641-11.116c-3.784-5.613,0.418-24.206,0.418-24.206l-16.423,16.435l-9.105,9.403l21.908,42.228   L129.867,132.113z" />
</g>
<g>
	<path style="fill:#FFFDFD;" d="M230.17,140.623c3.07-7.479,5.07-15.504,8.14-22.983c0.951-2.317,1.49-2.822,2.064-5.291   c0.682-2.936,1.361-6.769,1.608-9.791c0.777-9.538,4.015-18.34,7.209-27.219c0.355-0.988,0.756-2.016,1.511-2.66   c0.81-0.692,1.882-0.82,2.896-0.923c10.034-1.021,20.138-2.041,30.167-0.958c15.108,1.633,29.46,7.966,43.543,14.333   c1.726,0.78,3.578,1.682,4.499,3.5c1.535,3.028-0.503,7.08-3.349,8.457s-6.105,0.837-9.152,0.202   c-3.047-0.635-6.248-1.332-9.187-0.228c-1.841,0.691-3.456,2.055-5.338,2.591c-1.672,0.477-3.431,0.266-5.146,0.052   c-7.446-0.929-14.891-1.859-22.337-2.788c-0.774,1.887,0.063,3.579,0.048,5.657c-0.015,2.078-0.66,4.585,1.101,5.213   c1.262,0.45,5.336,0.163,6.558-0.408c5.209-2.43,6.662-7.21,11.652-10.164c4.895-2.897,10.429-4.098,15.902-4.991   c2.812-0.459,6.251-0.553,7.841,2.096c1.194,1.989,0.708,4.799-0.587,6.706c-1.295,1.907-3.23,3.106-5.124,4.208   c-5.002,2.912-10.135,5.541-15.059,8.616c-2.316,1.446-3.758,6.178-5.31,8.594c-1.208,1.88-3.58,3.798-4.601,5.813   c-2.452,4.838-9.312,10.617-13.404,13.753c-9.08,6.96-10.991,7.895-16.791,18.392c-0.097,0.176-6.758,0.583-7.09,0.467   c-1.225-0.426-2.057-0.381-3.268-0.853c-2.404-0.938-5.319,0.399-7.661-0.718s-4.433-1.581-6.704-2.873   c-1.144-0.651-3.186-2.717-4.309-3.412c-0.852-0.526-3.907-2.112-4.469-3.052C224.781,147.885,229.409,142.478,230.17,140.623z" />
	<g>
		
			<line style="fill:none;stroke:#000000;stroke-width:1.6803;stroke-linecap:round;" x1="248.081" y1="196.811" x2="263.138" y2="149.2" />
		<path style="fill:none;stroke:#000000;stroke-width:1.6803;stroke-linecap:round;" d="M258.849,152.802    c0,0,18.214-5,35.465-30.173" />
		<path style="fill:none;stroke:#000000;stroke-width:1.6803;" d="M293.325,124.047c0,0,8.224-14.564,22.554-20.019    c7.321-2.787,4.917-7.237,4.917-7.237" />
		<path style="fill:none;stroke:#000000;stroke-width:1.6803;stroke-linecap:round;" d="M211.644,178.544    c0,0,16.858-36.677,20.217-42.766c3.36-6.089,10.085-35.934,11.875-42.25c1.789-6.316,2.202-6.682,6.046-8.953" />
		<path style="fill:none;stroke:#000000;stroke-width:1.6803;" d="M278.176,99.269c0,0-1.605,6.318,1.244,7.946    c2.849,1.628,4.661,1.473,8.924-2.441c4.262-3.914,6.308-5.826,6.308-5.826" />
		<g>
			<path d="M262.353,96.141c0.694,0.332,1.419,0.556,2.14,0.769c0.725,0.2,1.455,0.364,2.191,0.475     c0.366,0.066,0.733,0.12,1.103,0.151c0.368,0.038,0.735,0.084,1.106,0.088c0.37,0.007,0.737,0.044,1.105,0.038l1.104-0.015     c0.368-0.014,0.734-0.057,1.1-0.084c0.367-0.021,0.731-0.068,1.094-0.132l1.089-0.16l1.079-0.235     c0.722-0.129,1.422-0.395,2.131-0.588c0.354-0.099,0.696-0.254,1.046-0.372l1.042-0.381l0.237-0.086l0.256,0.07     c0.609,0.168,1.269,0.317,1.911,0.446c0.647,0.129,1.297,0.241,1.949,0.335c1.301,0.209,2.609,0.34,3.915,0.392     c2.6,0.07,5.23-0.101,7.61-1.031l0.29-0.113l0.294,0.101c0.911,0.313,1.869,0.624,2.815,0.892     c0.951,0.272,1.908,0.508,2.869,0.709c1.918,0.396,3.866,0.696,5.767,0.57c0.941-0.065,1.887-0.231,2.686-0.675     c0.377-0.224,0.871-0.544,1.235-0.829c0.394-0.286,0.783-0.627,1.141-0.985c0.366-0.355,0.707-0.743,1.021-1.158     c0.325-0.407,0.608-0.854,0.875-1.315c0.508-0.937,0.936-1.956,1.142-3.06c-0.143,2.257-1.114,4.441-2.528,6.123     c-0.353,0.427-0.722,0.823-1.137,1.194c-0.425,0.402-0.779,0.679-1.262,1.023c-0.955,0.646-2.014,0.923-3.047,1.1     c-1.039,0.156-2.077,0.176-3.103,0.135c-1.026-0.05-2.046-0.143-3.054-0.313c-1.008-0.167-2.008-0.37-3.001-0.609     c-0.997-0.241-1.972-0.496-2.97-0.838l0.583-0.012c-1.351,0.546-2.742,0.871-4.133,1.055c-1.392,0.186-2.785,0.205-4.166,0.137     c-1.381-0.074-2.751-0.232-4.108-0.469c-0.677-0.127-1.351-0.272-2.023-0.436c-0.676-0.167-1.329-0.341-2.018-0.562l0.493-0.016     l-1.115,0.356c-0.373,0.112-0.738,0.254-1.12,0.331c-0.762,0.155-1.508,0.379-2.28,0.463l-1.148,0.168l-1.155,0.085     c-0.384,0.03-0.769,0.042-1.156,0.027c-0.386-0.009-0.77-0.003-1.154-0.024l-1.15-0.096c-0.383-0.029-0.763-0.108-1.142-0.166     c-0.38-0.053-0.756-0.146-1.13-0.232c-0.376-0.078-0.748-0.181-1.117-0.294c-0.741-0.207-1.462-0.499-2.17-0.806     C263.681,96.962,262.994,96.589,262.353,96.141z" />
		</g>
		<g>
			<path d="M267.104,96.602c0,0,0.085,0.459-0.021,1.133c-0.048,0.337-0.141,0.724-0.288,1.118     c-0.136,0.401-0.348,0.794-0.573,1.173c-0.242,0.368-0.51,0.712-0.794,0.995c-0.288,0.278-0.571,0.516-0.84,0.675     c-0.255,0.178-0.496,0.274-0.661,0.343c-0.166,0.067-0.263,0.096-0.263,0.096s0.062-0.094,0.174-0.243     c0.112-0.15,0.279-0.347,0.463-0.594c0.192-0.238,0.398-0.526,0.623-0.821c0.213-0.309,0.447-0.626,0.652-0.967     c0.216-0.331,0.417-0.677,0.597-1.009c0.182-0.331,0.343-0.651,0.481-0.93C266.926,97.012,267.104,96.602,267.104,96.602z" />
		</g>
		<g>
			<path d="M264.208,103.531c-0.042,3.163-0.097,6.326-0.198,9.486c-0.101,3.16-0.17,6.321-0.313,9.479l-0.382,9.475l-0.478,9.47     l-0.002,0.028l-0.002,0.014c-0.073,0.422-0.175,0.778-0.295,1.15c-0.119,0.366-0.26,0.722-0.414,1.068     c-0.31,0.692-0.688,1.343-1.114,1.947c-0.849,1.212-1.894,2.231-3.043,3.04c-1.145,0.822-2.403,1.411-3.691,1.836     c-0.643,0.217-1.298,0.381-1.954,0.527c-0.658,0.135-1.322,0.223-1.986,0.297c0.657-0.128,1.308-0.287,1.954-0.461     c0.643-0.188,1.282-0.392,1.903-0.648c1.243-0.509,2.437-1.158,3.522-1.984c1.084-0.825,2.05-1.84,2.815-3.017     c0.386-0.585,0.714-1.215,0.992-1.868c0.139-0.326,0.268-0.659,0.373-0.997c0.105-0.333,0.2-0.696,0.252-1.011l-0.004,0.042     l0.381-9.475l0.477-9.47c0.144-3.157,0.361-6.311,0.546-9.465C263.734,109.835,263.964,106.683,264.208,103.531z" />
		</g>
		<path style="fill:none;stroke:#000000;stroke-width:0.8402;" d="M228.522,151.939c0,0,8.579,8.808,27.757,9.54" />
		<path style="fill:none;stroke:#000000;stroke-width:1.6803;stroke-linecap:round;" d="M258.296,81.59    c0,0,19.568-1.832,23.234-2.164c3.666-0.332,5.559,0.749,8.911,1.471c3.351,0.722,16.227,4.272,16.227,4.272" />
		
			<line style="fill:none;stroke:#000000;stroke-width:1.6803;stroke-linecap:round;" x1="306.914" y1="86.103" x2="315.491" y2="90.059" />
		<path style="fill:none;stroke:#000000;stroke-width:1.6803;stroke-linecap:round;" d="M245.107,85.158    c0,0,1.119-8.071,5.908-8.359" />
		<path style="fill:none;stroke:#000000;stroke-width:1.2602;stroke-linecap:round;stroke-linejoin:bevel;" d="M249.247,75.067    c0,0,1.963-5.012,5.753-4.415c3.79,0.597,32.405,2.487,32.405,2.487l30.493,10.881" />
		<path style="fill:none;stroke:#000000;stroke-width:1.6803;stroke-linecap:round;" d="M318.699,84.923l7.836,2.845    c0,0,0.143,10.783-11.737,7.904" />
		<path style="fill:none;stroke:#000000;stroke-width:1.6803;stroke-linecap:round;" d="M291.252,71.166    c2.539-0.641,33.467,12.507,33.467,12.507" />
		<path style="fill:none;stroke:#000000;stroke-width:1.2602;stroke-linecap:round;" d="M324.489,83.808l9.079,2.988    c0,0-0.55,10.063-9.468,9.848" />
		<g>
			<path d="M282.852,112.408c0,0,0.152,0.085,0.393,0.281c0.238,0.196,0.571,0.496,0.924,0.904c0.359,0.403,0.749,0.903,1.127,1.469     c0.389,0.56,0.753,1.195,1.105,1.835c0.337,0.651,0.666,1.307,0.93,1.947c0.278,0.632,0.498,1.241,0.68,1.768     c0.357,1.054,0.517,1.792,0.517,1.792s-0.402-0.612-0.924-1.564c-0.271-0.471-0.564-1.03-0.886-1.623     c-0.318-0.593-0.656-1.227-0.994-1.861c-0.331-0.636-0.675-1.264-0.999-1.849c-0.322-0.587-0.634-1.127-0.905-1.591     C283.277,112.993,282.852,112.408,282.852,112.408z" />
		</g>
		<g>
			<path d="M296.734,101.025c0,0,0.36,0.379,0.811,1.008c0.456,0.626,1.007,1.498,1.503,2.407c0.492,0.912,0.929,1.862,1.213,2.603     c0.289,0.738,0.422,1.271,0.422,1.271s-0.361-0.379-0.812-1.007c-0.456-0.625-1.006-1.498-1.502-2.408     c-0.491-0.912-0.928-1.862-1.212-2.604C296.867,101.557,296.734,101.025,296.734,101.025z" />
		</g>
		<g>
			<path d="M283.335,79.374c0,0,0.12,0.477,0.236,1.176c0.123,0.7,0.248,1.624,0.369,2.541c0.123,0.918,0.246,1.836,0.339,2.524     c0.055,0.35,0.101,0.642,0.133,0.846c0.032,0.209,0.045,0.334,0.045,0.334s-0.072-0.091-0.189-0.262     c-0.123-0.168-0.267-0.429-0.42-0.756c-0.147-0.328-0.295-0.726-0.412-1.164c-0.124-0.437-0.206-0.914-0.279-1.393     c-0.121-0.961-0.116-1.931-0.038-2.653C283.19,79.846,283.335,79.374,283.335,79.374z" />
		</g>
		<path style="fill:none;stroke:#000000;stroke-width:0.8402;stroke-linecap:round;" d="M285.814,80.689    c0,0-0.305,4.512-0.503,7.185" />
		<g>
			<path d="M306.767,87.33c0,0,0.262,0.749,0.741,1.788c0.482,1.029,1.21,2.367,2.223,3.307c0.255,0.229,0.522,0.438,0.8,0.609     c0.285,0.179,0.561,0.29,0.776,0.303c0.478,0.037,0.981-0.382,1.388-0.724c0.412-0.353,0.764-0.668,1.023-0.864     c0.257-0.201,0.414-0.301,0.414-0.301s-0.106,0.161-0.292,0.444c-0.188,0.28-0.448,0.676-0.807,1.133     c-0.18,0.231-0.39,0.468-0.661,0.695c-0.265,0.226-0.632,0.426-1.057,0.444c-0.452,0.025-0.822-0.176-1.147-0.356     c-0.337-0.188-0.653-0.431-0.936-0.71c-1.165-1.106-1.8-2.652-2.119-3.797C306.788,88.141,306.767,87.33,306.767,87.33z" />
		</g>
		<g>
			<path d="M316.539,86.171c0,0,0.521,0.543,1.303,1.356c0.391,0.398,0.847,0.859,1.348,1.319c0.506,0.447,1.052,0.926,1.638,1.235     c0.288,0.161,0.585,0.281,0.862,0.311c0.283,0.02,0.507-0.021,0.753-0.186c0.577-0.371,1.126-0.701,1.603-0.97     c0.951-0.546,1.624-0.844,1.624-0.844s-0.528,0.549-1.376,1.273c-0.422,0.366-0.924,0.776-1.472,1.199     c-0.306,0.252-0.774,0.432-1.189,0.385c-0.42-0.034-0.802-0.184-1.151-0.368c-0.691-0.391-1.262-0.919-1.754-1.451     c-0.49-0.534-0.897-1.076-1.221-1.562C316.855,86.903,316.539,86.171,316.539,86.171z" />
		</g>
		<path style="fill:none;stroke:#000000;stroke-width:0.8402;stroke-linecap:round;" d="M328.384,89.17    c1.306,0.142,2.363-2.171,3.408-2.958" />
		<g>
			<path d="M258.851,99.428c0,0,0.419,0.152,1.009,0.4c0.582,0.247,1.359,0.576,2.136,0.904c0.775,0.335,1.549,0.67,2.13,0.921     c0.295,0.137,0.541,0.252,0.714,0.332c0.173,0.087,0.272,0.145,0.272,0.145s-0.438,0.081-1.086,0.021     c-0.649-0.045-1.503-0.241-2.311-0.589c-0.807-0.349-1.564-0.838-2.075-1.292C259.121,99.828,258.851,99.428,258.851,99.428z" />
		</g>
		<path style="fill:none;stroke:#000000;stroke-width:1.1762;stroke-linecap:round;" d="M267.884,70.052    c10.473-0.431,26.359,1.551,26.359,1.551" />
	</g>
</g>
<g>
	<path style="fill:#FFFDFD;" d="M23.958,141.907c0.959-2.354,2.267,1.766,2.006-7.063c-0.262-8.829-4.447-52.975-3.139-56.507   c1.308-3.532,2.355-2.943,2.878-5.886c0.523-2.943-1.125-28.657,0.523-33.551c1.649-4.894,2.251-3.314,1.649-4.894   c-0.602-1.58-1.91-12.175,0.706-10.998s6.802,2.943,7.064,5.886c0.262,2.943,0.213,5.15,0.262,8.829   c0.048,3.679,1.831,2.649,2.093,7.946s0.523,11.478,0.785,12.361c0.262,0.883-0.226,2.446,1.046,2.354   c1.273-0.091,13.866-9.124,17.528-8.241s6.802,4.415,9.68,8.241s7.587,12.95,7.587,12.95s8.372,5.886,8.895,7.063   c0.523,1.177,0.785-1.766,1.308,2.354s0.785,5.003-0.262,9.124c-1.046,4.12-4.709,8.829-5.494,12.95s-1.57,15.304-4.709,21.19   s-10.203,14.715-12.558,16.481s-5.756,4.12-6.017,6.18c-0.262,2.06-0.785,5.199-0.785,5.199s-10.203,0.687-13.866-0.785   c-3.663-1.472-11.25-6.475-11.25-6.475" />
	<path style="fill:none;stroke:#000000;stroke-width:0.8402;stroke-linecap:round;" d="M26.29,143.877   c0,0,8.396,9.891,25.427,10.515" />
	<path style="fill:none;stroke:#000000;stroke-width:1.6803;stroke-linecap:round;" d="M79.282,77.045c0,0,4.198,3.654,5.466,4.99   c0.951,1.069-0.158,10.248-1.663,13.099c-1.505,2.852-5.07,10.515-5.862,20.941c-1.03,14.168-16.872,26.822-20.12,31.545   l-8.872,35.733" />
	<path style="fill:none;stroke:#000000;stroke-width:1.6803;stroke-linecap:round;" d="M6.317,164.858   c0,0,19.497-21.961,20.527-28.912s-5.07-52.218-4.99-55.248s3.089-8.287,3.089-8.287" />
	<path style="fill:none;stroke:#000000;stroke-width:1.6803;stroke-linecap:round;" d="M27.24,83.906c0,0-1.188-23.079-1.347-26.02   c-0.158-3.03,0.634-22.901,0.634-22.901" />
	
		<line style="fill:none;stroke:#000000;stroke-width:1.6803;stroke-linecap:round;" x1="27.874" y1="34.005" x2="27.636" y2="23.579" />
	
		<line style="fill:none;stroke:#000000;stroke-width:1.6803;stroke-linecap:round;" x1="70.569" y1="100.57" x2="70.094" y2="89.431" />
	<path style="fill:none;stroke:#000000;stroke-width:1.6803;stroke-linecap:round;" d="M41.974,63.054   c5.386-2.852,9.981-6.327,14.496-6.594c6.337-0.356,10.377,13.188,12.595,18.98c1.426,3.743,1.901,14.258,1.901,14.258" />
	<path style="fill:none;stroke:#000000;stroke-width:1.6803;stroke-linecap:round;" d="M41.102,60.292c0,0,7.684-5.079,14.575-8.733   c6.891-3.654,16.951,19.693,16.951,19.693" />
	<g>
		<path d="M46.489,75.084c0,0,0.158,0.089,0.396,0.267s0.554,0.446,0.951,0.624c0.158,0.089,0.396,0.178,0.634,0.267    c0.238,0.089,0.475,0.178,0.634,0.178c0.238,0.089,0.475,0,0.713,0c0.238-0.089,0.475-0.089,0.713-0.178l0.396-0.089    c0.079-0.089,0.238-0.089,0.396-0.178c0.079-0.089,0.238-0.089,0.396-0.178c0.079-0.089,0.238-0.178,0.317-0.267    c0.238-0.178,0.475-0.267,0.634-0.446c0.238-0.178,0.396-0.267,0.634-0.446c0.158-0.178,0.396-0.267,0.554-0.356    c0.158-0.089,0.317-0.178,0.396-0.267c0.238-0.178,0.396-0.267,0.396-0.267s-0.079,0.178-0.158,0.446    c-0.079,0.178-0.158,0.356-0.238,0.535c-0.079,0.178-0.158,0.446-0.317,0.624c-0.158,0.267-0.317,0.446-0.475,0.713    c-0.158,0.267-0.396,0.535-0.634,0.713c-0.238,0.267-0.475,0.446-0.792,0.624c-0.158,0.089-0.317,0.178-0.475,0.267    c-0.158,0.089-0.317,0.178-0.554,0.178c-0.317,0.178-0.713,0.178-1.109,0.178c-0.396,0-0.792-0.089-1.109-0.267    c-0.317-0.089-0.634-0.356-0.871-0.535c-0.238-0.267-0.475-0.446-0.634-0.713c-0.317-0.446-0.475-0.891-0.634-1.248    C46.489,75.262,46.489,75.084,46.489,75.084z" />
	</g>
	<path style="fill:none;stroke:#000000;stroke-width:0.8402;stroke-linecap:round;" d="M54.014,74.55" />
	<g>
		<path d="M54.014,74.55c-0.158,0.624-0.158,1.337-0.238,1.96c0,0.624,0,1.337,0.079,1.96c0.079,0.624,0.158,1.248,0.317,1.871    s0.317,1.158,0.554,1.693c0.238,0.535,0.554,1.069,0.871,1.515c0.158,0.267,0.317,0.446,0.475,0.713    c0.158,0.178,0.396,0.446,0.554,0.624c0.396,0.446,0.792,0.802,1.267,1.158c0.475,0.356,0.951,0.713,1.426,0.98l0.475,0.356v0.624    c0,0.356,0,0.891,0,1.248c0,0.446,0.079,0.891,0.079,1.337c0.079,0.891,0.238,1.693,0.396,2.584    c0.079,0.446,0.238,0.802,0.317,1.248c0.158,0.446,0.238,0.802,0.396,1.158c0.158,0.356,0.317,0.802,0.554,1.158    c0.158,0.356,0.396,0.713,0.634,1.069c0.238,0.356,0.475,0.624,0.713,0.98l0.396,0.446l0.475,0.356    c0.317,0.267,0.634,0.446,0.951,0.624c0.317,0.178,0.713,0.356,1.109,0.446c0.396,0.089,0.713,0.267,1.109,0.356    c0.396,0.089,0.792,0.178,1.188,0.178c0.396,0.089,0.792,0.089,1.188,0.089s0.792,0,1.267,0c-0.396,0.089-0.792,0.267-1.188,0.356    c-0.396,0.089-0.792,0.178-1.267,0.178c-0.396,0.089-0.871,0.089-1.267,0.089s-0.871-0.089-1.267-0.089    c-0.396-0.089-0.871-0.178-1.267-0.356c-0.396-0.178-0.792-0.356-1.188-0.624c-0.396-0.267-0.792-0.535-1.109-0.802    c-0.317-0.356-0.713-0.624-0.951-1.069c-0.317-0.356-0.634-0.713-0.871-1.158c-0.238-0.446-0.475-0.802-0.713-1.248    c-0.396-0.891-0.713-1.782-0.951-2.762c-0.238-0.98-0.396-1.871-0.475-2.852c-0.079-0.446-0.079-0.98-0.158-1.426    c0-0.535,0-0.98,0-1.515l0.475,0.98c-1.109-0.713-2.139-1.515-3.01-2.584c-0.238-0.267-0.396-0.535-0.634-0.802    c-0.158-0.267-0.396-0.624-0.554-0.891c-0.317-0.624-0.634-1.248-0.871-1.96c-0.475-1.337-0.554-2.852-0.475-4.188    C53.063,77.045,53.38,75.708,54.014,74.55z" />
	</g>
	<g>
		<path d="M47.677,74.639c1.03,2.139,1.663,4.455,2.06,6.951c0.317,2.406,0.317,4.99-0.475,7.307v-0.267    c1.188,2.584,2.376,5.168,3.565,7.753c1.188,2.584,2.376,5.168,3.485,7.753l3.485,7.842l3.406,7.842l0,0    c0.238,0.356,0.317,0.713,0.475,1.069c0.079,0.356,0.158,0.713,0.238,1.158c0.079,0.356,0.079,0.802,0.079,1.158    c0,0.178,0,0.356,0,0.535c0,0.178,0,0.356-0.079,0.535c-0.079,0.356-0.079,0.713-0.158,1.158    c-0.079,0.356-0.158,0.713-0.317,1.069c-0.079,0.356-0.238,0.713-0.396,1.069l-0.475,0.98l0.396-1.069    c0.079-0.356,0.238-0.713,0.317-1.069c0.079-0.356,0.158-0.713,0.238-1.069c0.079-0.356,0.079-0.713,0.158-1.069    c0-0.178,0-0.356,0-0.535c0-0.178,0-0.356,0-0.535c0-0.356-0.079-0.713-0.158-1.069c-0.079-0.356-0.158-0.713-0.317-1.069    c-0.079-0.356-0.238-0.713-0.396-0.98l0,0l0,0l-3.644-7.753l-3.565-7.753c-1.188-2.584-2.297-5.168-3.485-7.842    c-1.109-2.584-2.297-5.168-3.406-7.842l-0.079-0.178l0.079-0.089c0.713-2.228,0.871-4.634,0.634-7.04    c-0.079-1.158-0.317-2.406-0.634-3.564C48.469,76.956,48.152,75.797,47.677,74.639z" />
	</g>
	
		<line style="fill:none;stroke:#000000;stroke-width:1.6803;stroke-linecap:round;" x1="79.124" y1="77.49" x2="74.371" y2="73.302" />
	<g>
		<path d="M73.658,73.302c0,0-0.158,0.356-0.396,0.891c-0.158,0.267-0.238,0.624-0.396,0.98c-0.158,0.356-0.317,0.802-0.396,1.337    c-0.079,0.267-0.158,0.446-0.238,0.713c-0.079,0.267-0.079,0.535-0.158,0.802c-0.158,0.535-0.158,1.158-0.317,1.693    c0,0.624-0.079,1.248-0.079,1.782c0,0.267,0,0.624,0.079,0.891l0.158,0.891c0,0.267,0.158,0.624,0.238,0.891    s0.158,0.624,0.238,0.891c0.238,0.535,0.475,1.158,0.713,1.693c0.317,0.535,0.554,0.98,0.792,1.515    c0.317,0.446,0.554,0.891,0.871,1.337c0.158,0.178,0.238,0.446,0.396,0.624s0.238,0.356,0.396,0.535    c0.238,0.267,0.475,0.624,0.634,0.802c0.317,0.446,0.554,0.802,0.554,0.802s-0.317-0.178-0.792-0.446    c-0.238-0.178-0.554-0.356-0.871-0.535c-0.158-0.089-0.317-0.267-0.554-0.356c-0.158-0.178-0.317-0.356-0.554-0.446    c-0.396-0.356-0.792-0.713-1.188-1.158c-0.396-0.446-0.713-0.98-1.109-1.515c-0.317-0.624-0.634-1.248-0.951-1.871    c-0.079-0.356-0.238-0.713-0.317-1.069c-0.079-0.356-0.238-0.713-0.238-1.069l-0.158-1.158c-0.079-0.356,0-0.713,0-1.158    c0-0.713,0.158-1.426,0.238-2.139c0.079-0.356,0.158-0.624,0.238-0.98c0.079-0.356,0.158-0.624,0.317-0.891    c0.158-0.267,0.238-0.535,0.396-0.802c0.158-0.267,0.238-0.535,0.396-0.713c0.238-0.446,0.554-0.802,0.792-1.158    c0.238-0.356,0.475-0.624,0.713-0.802C73.342,73.48,73.658,73.302,73.658,73.302z" />
	</g>
	<g>
		<path d="M74.847,73.035c0,0,0.079,0.089,0.158,0.178c0.079,0.089,0.158,0.356,0.317,0.624c0.238,0.535,0.475,1.337,0.634,2.317    c0.079,0.535,0.079,1.069,0.079,1.693c0,0.535-0.158,1.248-0.238,1.782c-0.079,0.535,0,1.158,0.158,1.693    c0.158,0.535,0.475,1.069,0.792,1.515c0.396,0.446,0.792,0.98,1.188,1.337c0.396,0.356,0.871,0.713,1.03,0.446    c0.238-0.267,0.317-0.98,0.396-1.515s0.079-1.069,0.079-1.604c0-0.98,0-1.782,0-2.406c0-0.624,0-0.891,0-0.891    s0.238,1.337,0.396,3.297c0.079,0.535,0.079,1.069,0.079,1.604c0,0.267,0,0.624-0.079,0.891c-0.079,0.356-0.079,0.624-0.396,0.98    c-0.158,0.178-0.317,0.267-0.554,0.356c-0.238,0-0.396,0-0.554-0.089c-0.317-0.178-0.554-0.356-0.871-0.535    c-0.475-0.446-0.951-0.891-1.347-1.426c-0.396-0.535-0.792-1.158-0.951-1.782c-0.238-0.713-0.238-1.426-0.158-2.139    c0.158-0.624,0.238-1.158,0.317-1.693c0.079-0.535,0.079-1.069,0.079-1.515c0-0.98-0.158-1.782-0.238-2.317    C74.926,73.391,74.847,73.035,74.847,73.035z" />
	</g>
	<g>
		<path d="M68.668,90.055C68.668,90.055,68.747,90.055,68.668,90.055c-0.079,0-0.158,0.089-0.238,0.178    c-0.238,0.178-0.475,0.535-0.713,0.891c-0.475,0.802-0.871,2.139-1.188,3.386c-0.317,1.337-0.554,2.673-0.792,3.743    c-0.079,0.535-0.238,0.98-0.317,1.248c-0.079,0.267-0.158,0.446-0.158,0.446s-0.158-0.713-0.238-1.782    c-0.079-1.069,0-2.584,0.317-4.01s1.03-2.852,1.822-3.564c0.396-0.356,0.792-0.624,1.109-0.624    C68.51,89.966,68.589,89.966,68.668,90.055C68.668,89.966,68.747,89.966,68.668,90.055C68.747,90.055,68.747,90.055,68.668,90.055    L68.668,90.055z" />
	</g>
	<g>
		<path d="M43.399,141.382c0,0,0.158,0.089,0.396,0.178c0.238,0.089,0.634,0.089,1.109,0.178c0.871,0,2.139-0.178,3.327-0.446    s2.376-0.713,3.248-0.98c0.871-0.267,1.505-0.446,1.505-0.446s-0.554,0.446-1.347,0.891c-0.396,0.267-0.951,0.535-1.505,0.713    c-0.317,0.089-0.554,0.267-0.871,0.356s-0.634,0.178-0.951,0.267c-0.634,0.178-1.267,0.267-1.901,0.267c-0.317,0-0.634,0-0.871,0    c-0.238,0-0.554-0.089-0.792-0.089c-0.475-0.089-0.871-0.267-1.109-0.446C43.558,141.56,43.399,141.382,43.399,141.382z" />
	</g>
	<g>
		<path d="M59.4,114.738c0,0,0.158,0.178,0.317,0.624c0.158,0.356,0.475,0.98,0.713,1.693c0.079,0.356,0.238,0.713,0.396,1.158    c0.079,0.446,0.238,0.891,0.317,1.337c0.079,0.446,0.158,0.98,0.238,1.426c0.079,0.535,0.079,0.98,0.079,1.515    c0,1.069,0,2.05-0.079,3.03c-0.079,0.98-0.238,1.871-0.396,2.584c-0.158,0.713-0.317,1.337-0.475,1.782    c-0.079,0.446-0.158,0.624-0.158,0.624s0-0.267,0.079-0.713c0.079-0.446,0.079-1.069,0.158-1.782c0-0.356,0.079-0.802,0.079-1.248    s0-0.891,0.079-1.337c0-0.446,0-0.98,0-1.426s0-0.98,0-1.515c0-0.535-0.079-0.98-0.079-1.515c-0.079-0.446-0.079-0.98-0.158-1.426    c-0.079-0.446-0.079-0.891-0.158-1.337c-0.079-0.446-0.158-0.802-0.238-1.158c-0.158-0.713-0.317-1.337-0.396-1.782    C59.559,114.916,59.4,114.738,59.4,114.738z" />
	</g>
	<path style="fill:none;stroke:#000000;stroke-width:1.6803;stroke-linecap:round;" d="M28.508,22.153   c0,0,11.961,1.158,7.446,19.248" />
	<g>
		<path style="fill:#222223;" d="M35.082,38.014c1.03,1.515,1.822,3.297,2.376,5.168c0.634,1.782,1.03,3.743,1.267,5.614    c0.238,1.96,0.396,3.921,0.238,5.792c-0.079,1.96-0.396,3.832-0.871,5.703c-0.158-1.96-0.158-3.832-0.317-5.703    c-0.158-1.871-0.317-3.743-0.554-5.614c-0.238-1.871-0.554-3.654-0.951-5.525C35.953,41.757,35.557,39.886,35.082,38.014z" />
	</g>
	<g>
		<path style="fill:#222223;" d="M37.934,56.015c1.03,1.515,1.743,3.208,2.297,4.99c0.554,1.782,0.951,3.564,1.188,5.525    c0.238,1.871,0.238,3.743,0,5.614c-0.158,1.871-0.634,3.743-1.347,5.436c0.079-1.871,0.158-3.654,0.158-5.436    c0-1.782-0.158-3.564-0.317-5.347c-0.158-1.782-0.475-3.564-0.792-5.347C38.726,59.579,38.409,57.797,37.934,56.015z" />
	</g>
</g>
<g id="F채rg_00000015347429395572051760000014405338166011437461_">
	
		<linearGradient id="SVGID_00000016771071769907551160000014089249510838336159_" gradientUnits="userSpaceOnUse" x1="-328.0754" y1="-391.8123" x2="-312.6604" y2="-381.4307" gradientTransform="matrix(1.379 0.2907 0.2063 -0.9785 869.7614 -151.9048)">
		<stop offset="0" style="stop-color:#FFFFFF" />
		<stop offset="0.9986" style="stop-color:#E6E6E6" />
	</linearGradient>
	<path style="fill:url(#SVGID_00000016771071769907551160000014089249510838336159_);" d="M368.891,133.19   c0,0-9.141-0.247-13.641-11.116c-3.784-5.613,0.418-24.206,0.418-24.206l-16.423,16.435l-9.105,9.403l21.908,42.228L368.891,133.19   z" />
</g>
<g>
	<path style="fill:#FFFDFD;" d="M356.067,99.623c5.425-5.548,8.631-14.148,20.468-13.038c11.837,1.11,45.374,10.819,47.347,12.761   c1.973,1.942,7.151,13.871,9.864,17.754s5.672,12.761,7.645,16.367c1.973,3.606,8.138,18.032,7.891,20.806   c-0.247,2.774-1.726,4.716-2.713,5.548c-0.986,0.832-0.74-0.555-0.986,0.832c-0.247,1.387-0.986,4.439-2.219,5.826   c-1.233,1.387-3.206,4.161-6.658,3.606c-3.452-0.555-3.206-0.832-5.179,0.555c-1.973,1.387-4.124,4.107-6.412,2.219   c-2.287-1.888-6.658-7.213-7.645-8.877s-4.685-8.322-4.685-8.322s-4.192,0.832-5.425,2.497c-1.233,1.664-3.206,4.716-3.206,4.716   s-4.439-2.774-4.439-3.884s0-1.942,0-3.884c0-1.942,1.48-1.11-1.726-3.052s-5.425-6.935-5.425-6.935s-6.658-9.432-7.891-9.432   c-1.233,0-7.151,0.277-9.124-1.942c-1.973-2.219-3.306-5.362-4.192-3.329c-0.886,2.033-0.493,4.161-2.466,2.774   c-1.973-1.387-13.316-9.432-13.316-9.432s-2.713-13.871-2.466-14.98" />
	<g>
		<path d="M443.192,164.204c0,0-0.164-0.255-0.451-0.7c-0.277-0.451-0.701-1.076-1.194-1.825c-0.253-0.369-0.525-0.77-0.827-1.17    c-0.151-0.199-0.311-0.398-0.48-0.58c-0.154-0.176-0.37-0.371-0.471-0.397c-0.112-0.03-0.333,0.024-0.573,0.107    c-0.234,0.083-0.478,0.184-0.719,0.302c-0.486,0.232-0.966,0.523-1.442,0.815c-0.475,0.296-0.941,0.618-1.366,0.962    c-0.21,0.166-0.423,0.352-0.558,0.52c-0.135,0.189-0.177,0.36-0.221,0.622c-0.072,0.501-0.028,1.046,0.07,1.544    c0.099,0.501,0.235,0.971,0.384,1.398c0.309,0.849,0.642,1.535,0.906,1.993c0.262,0.462,0.413,0.727,0.413,0.727    s-0.048-0.056-0.14-0.162c-0.087-0.11-0.234-0.254-0.389-0.469c-0.319-0.419-0.763-1.041-1.178-1.885    c-0.194-0.429-0.398-0.904-0.542-1.445c-0.141-0.54-0.249-1.139-0.193-1.806c0.028-0.315,0.135-0.739,0.339-1.026    c0.214-0.293,0.431-0.488,0.657-0.692c0.456-0.39,0.938-0.73,1.431-1.051c0.493-0.322,1.007-0.598,1.532-0.844    c0.264-0.119,0.529-0.235,0.813-0.315c0.141-0.041,0.288-0.075,0.443-0.096c0.083-0.007,0.151-0.019,0.265-0.012    c0.059,0.001,0.097,0.006,0.124,0.012l0.076,0.013l0.081,0.028c0.391,0.18,0.546,0.42,0.742,0.638    c0.177,0.227,0.33,0.455,0.473,0.681c0.288,0.448,0.528,0.887,0.739,1.297C442.773,163.033,443.192,164.204,443.192,164.204z" />
	</g>
	<g>
		<path d="M430.444,166.026c0,0-0.157-0.243-0.432-0.67c-0.266-0.431-0.668-1.032-1.141-1.747c-0.239-0.356-0.503-0.737-0.787-1.127    c-0.284-0.375-0.614-0.798-0.939-1.052c-0.148-0.196-0.699,0.02-1.141,0.209c-0.465,0.204-0.933,0.462-1.389,0.74    c-0.459,0.274-0.911,0.568-1.334,0.883c-0.411,0.327-0.855,0.623-1.043,1.002c-0.165,0.327-0.196,0.852-0.113,1.304    c0.08,0.463,0.22,0.907,0.375,1.306c0.322,0.795,0.658,1.444,0.913,1.881c0.252,0.443,0.395,0.697,0.395,0.697    s-0.197-0.204-0.518-0.591c-0.311-0.395-0.77-0.956-1.194-1.752c-0.211-0.397-0.417-0.855-0.549-1.394    c-0.123-0.535-0.21-1.174,0.093-1.857c0.307-0.612,0.782-0.956,1.212-1.308c0.446-0.345,0.912-0.662,1.39-0.956    c0.484-0.282,0.978-0.544,1.493-0.759c0.257-0.11,0.525-0.196,0.81-0.258c0.17-0.024,0.371-0.048,0.476-0.026    c0.18,0.001,0.409,0.135,0.512,0.228c0.48,0.415,0.741,0.873,1.021,1.303c0.268,0.431,0.493,0.855,0.695,1.248    C430.043,164.907,430.444,166.026,430.444,166.026z" />
	</g>
	<g>
		<path d="M448.26,154.882c0,0-0.409-0.632-1.021-1.579c-0.31-0.468-0.661-1.021-1.063-1.583c-0.197-0.283-0.406-0.57-0.629-0.84    c-0.217-0.258-0.473-0.551-0.672-0.655c-0.054-0.026-0.029-0.017-0.129-0.02c-0.023,0.008-0.094,0.015-0.161,0.036    c-0.135,0.034-0.284,0.082-0.429,0.145c-0.292,0.13-0.585,0.278-0.867,0.43c-0.561,0.315-1.089,0.625-1.537,0.902    c-0.45,0.274-0.822,0.513-1.081,0.69c-0.257,0.177-0.397,0.302-0.397,0.302s0.063-0.193,0.257-0.475    c0.189-0.283,0.495-0.652,0.901-1.04c0.408-0.384,0.91-0.798,1.504-1.152c0.295-0.182,0.612-0.351,0.962-0.479    c0.175-0.064,0.358-0.126,0.563-0.158c0.103-0.014,0.204-0.023,0.355-0.011c0.071,0.004,0.271,0.051,0.369,0.12    c0.413,0.272,0.618,0.587,0.848,0.902c0.219,0.315,0.411,0.634,0.592,0.945c0.352,0.628,0.654,1.225,0.892,1.749    C448.001,154.152,448.26,154.882,448.26,154.882z" />
	</g>
	<path style="fill:none;stroke:#000000;stroke-width:1.6803;stroke-linecap:round;" d="M331.313,122.847   c2.04-2.546,32.529-35.271,45.001-37.009c9.485-1.321,43.067,12.431,43.067,12.431s5.397-0.649,9.794,10.859l12.131,22.377   l8.138,22.482c0,0,1.579,6.633-5.752,6.911" />
	<path style="fill:none;stroke:#000000;stroke-width:1.6803;stroke-linecap:round;" d="M356.806,156.987   c0,0,8.709-18.383,13.665-24.538" />
	<path style="fill:none;stroke:#000000;stroke-width:1.6803;stroke-linecap:round;" d="M367.163,126.939c0,0,8.187,8.5,17.634,9.609   " />
	<path style="fill:none;stroke:#000000;stroke-width:1.6803;stroke-linecap:round;" d="M420.176,112.999l11.558,20.51l13.424,31.102   c0,0-1.709,5.803-7.944,5.275c-5.449-0.461-7.707-8.007-7.707-8.007" />
	
		<line style="fill:none;stroke:#000000;stroke-width:1.6803;stroke-linecap:round;" x1="420.912" y1="110.031" x2="422.319" y2="116.802" />
	<path style="fill:none;stroke:#000000;stroke-width:1.6803;stroke-linecap:round;" d="M409.345,119.276l10.865,22.068   l12.184,27.129c0,0-4.418,7.871-9.566,2.5c-3.067-3.2-13.425-19.391-13.425-19.391l-12.427-22.522l-1.873-1.281" />
	<path style="fill:none;stroke:#000000;stroke-width:1.6803;stroke-linecap:round;" d="M382.82,132.096l11.802,17.144   c0,0,6.876,7.384,11.372-1.411" />
	<path style="fill:none;stroke:#000000;stroke-width:1.6803;stroke-linecap:round;" d="M399.259,155.396   c0,0-0.745,3.823,2.698,6.482" />
	
		<line style="fill:none;stroke:#000000;stroke-width:1.6803;stroke-linecap:round;" x1="403.24" y1="162.827" x2="408.767" y2="156.963" />
	
		<line style="fill:none;stroke:#000000;stroke-width:1.6803;stroke-linecap:round;" x1="406.68" y1="157.296" x2="411.247" y2="156.836" />
	<path style="fill:none;stroke:#000000;stroke-width:0.8402;" d="M355.781,102.204c0,0-9.679,21.958,11.312,30.647" />
	<path style="fill:none;stroke:#000000;stroke-width:0.8402;stroke-linecap:round;" d="M409.757,103.72c0,0,5.743,0.891,7.327,8.465   " />
	<path style="fill:none;stroke:#000000;stroke-width:0.4201;" d="M429.844,135.561c0,0-6.225,2.688-7.215,4.025" />
	<path style="fill:none;stroke:#000000;stroke-width:0.4201;" d="M429.956,137.582c0,0-2.434,1.811-5.941,3.119" />
	<path style="fill:none;stroke:#000000;stroke-width:0.4201;" d="M418.067,141.582c0,0-3.643,3.71-7.604,5.269" />
	<path style="fill:none;stroke:#000000;stroke-width:0.4201;" d="M417.296,140.427c0,0-5.668,2.663-7.737,5.175" />
	<path style="fill:none;stroke:#000000;stroke-width:0.4201;" d="M438.878,130.381c0,0-2.408,0.325-5.201,3.142" />
	<path style="fill:none;stroke:#000000;stroke-width:0.4201;" d="M439.744,131.464c0,0-1.142,1.726-6.261,3.251" />
</g>
<g>
	<path style="fill:#FFFDFD;" d="M117.044,98.546c5.425-5.548,8.631-14.148,20.468-13.038s45.374,10.819,47.347,12.761   c1.973,1.942,7.151,13.871,9.864,17.754c2.713,3.884,5.672,12.761,7.645,16.367c1.973,3.606,8.138,18.032,7.891,20.806   c-0.247,2.774-1.726,4.716-2.713,5.548c-0.986,0.832-0.74-0.555-0.986,0.832c-0.247,1.387-0.986,4.439-2.219,5.826   c-1.233,1.387-3.206,4.161-6.658,3.606c-3.452-0.555-3.206-0.832-5.179,0.555c-1.973,1.387-4.124,4.107-6.412,2.219   c-2.287-1.888-6.658-7.213-7.645-8.877c-0.986-1.664-4.685-8.322-4.685-8.322s-4.192,0.832-5.425,2.497   c-1.233,1.664-3.206,4.716-3.206,4.716s-4.439-2.774-4.439-3.884c0-1.11,0-1.942,0-3.884s1.48-1.11-1.726-3.052   c-3.206-1.942-5.425-6.935-5.425-6.935s-6.658-9.432-7.891-9.432c-1.233,0-7.151,0.277-9.124-1.942s-3.306-5.362-4.192-3.329   s-0.493,4.161-2.466,2.774c-1.973-1.387-13.316-9.432-13.316-9.432s-2.713-13.871-2.466-14.98" />
	<g>
		<path d="M204.168,163.127c0,0-0.164-0.255-0.451-0.7c-0.277-0.451-0.701-1.076-1.194-1.825c-0.253-0.369-0.525-0.77-0.827-1.17    c-0.151-0.199-0.311-0.398-0.48-0.58c-0.154-0.176-0.37-0.371-0.471-0.397c-0.112-0.03-0.333,0.024-0.573,0.107    c-0.234,0.083-0.478,0.184-0.719,0.302c-0.486,0.232-0.966,0.523-1.442,0.815c-0.475,0.296-0.941,0.618-1.366,0.961    c-0.21,0.166-0.423,0.352-0.558,0.52c-0.135,0.189-0.177,0.36-0.221,0.622c-0.072,0.501-0.028,1.046,0.07,1.544    c0.099,0.501,0.235,0.971,0.384,1.398c0.309,0.849,0.642,1.535,0.906,1.993c0.262,0.462,0.413,0.727,0.413,0.727    s-0.048-0.056-0.14-0.162c-0.087-0.11-0.234-0.254-0.389-0.469c-0.319-0.419-0.763-1.041-1.178-1.885    c-0.194-0.429-0.398-0.904-0.542-1.445c-0.141-0.54-0.249-1.139-0.193-1.806c0.028-0.315,0.135-0.739,0.339-1.026    c0.214-0.293,0.431-0.488,0.657-0.692c0.456-0.39,0.938-0.73,1.431-1.051c0.493-0.322,1.007-0.598,1.532-0.844    c0.264-0.119,0.529-0.235,0.813-0.315c0.141-0.041,0.288-0.075,0.443-0.096c0.083-0.007,0.151-0.019,0.265-0.012    c0.059,0.001,0.097,0.006,0.124,0.012l0.076,0.013l0.081,0.028c0.391,0.18,0.546,0.42,0.742,0.638    c0.177,0.227,0.33,0.455,0.473,0.681c0.288,0.448,0.528,0.887,0.739,1.297C203.75,161.956,204.168,163.127,204.168,163.127z" />
	</g>
	<g>
		<path d="M191.421,164.949c0,0-0.157-0.243-0.432-0.67c-0.266-0.431-0.668-1.032-1.141-1.747c-0.239-0.356-0.503-0.737-0.787-1.127    c-0.284-0.375-0.614-0.798-0.939-1.052c-0.148-0.196-0.699,0.02-1.141,0.209c-0.465,0.204-0.933,0.462-1.389,0.74    c-0.459,0.274-0.911,0.568-1.334,0.883c-0.411,0.327-0.855,0.623-1.043,1.002c-0.165,0.327-0.196,0.852-0.113,1.304    c0.08,0.463,0.22,0.907,0.375,1.306c0.322,0.795,0.658,1.444,0.913,1.881c0.252,0.443,0.395,0.697,0.395,0.697    s-0.197-0.204-0.518-0.591c-0.311-0.395-0.77-0.956-1.194-1.752c-0.211-0.397-0.417-0.855-0.549-1.394    c-0.123-0.535-0.21-1.174,0.093-1.857c0.307-0.612,0.782-0.956,1.212-1.308c0.446-0.345,0.912-0.662,1.39-0.956    c0.484-0.282,0.978-0.544,1.493-0.759c0.257-0.111,0.525-0.196,0.81-0.258c0.17-0.024,0.371-0.048,0.476-0.026    c0.18,0.001,0.409,0.135,0.513,0.228c0.48,0.415,0.741,0.873,1.021,1.303c0.268,0.431,0.493,0.855,0.695,1.248    C191.02,163.83,191.421,164.949,191.421,164.949z" />
	</g>
	<g>
		<path d="M209.237,153.805c0,0-0.409-0.632-1.021-1.579c-0.31-0.468-0.661-1.021-1.063-1.583c-0.197-0.283-0.406-0.57-0.629-0.84    c-0.217-0.258-0.473-0.551-0.672-0.655c-0.054-0.026-0.029-0.017-0.129-0.02c-0.023,0.008-0.094,0.015-0.161,0.036    c-0.135,0.034-0.284,0.082-0.429,0.145c-0.291,0.13-0.585,0.278-0.867,0.43c-0.561,0.315-1.089,0.625-1.537,0.902    c-0.45,0.274-0.822,0.513-1.081,0.69c-0.257,0.177-0.397,0.302-0.397,0.302s0.063-0.193,0.257-0.475    c0.189-0.283,0.495-0.652,0.901-1.04c0.408-0.384,0.91-0.798,1.504-1.152c0.295-0.182,0.612-0.351,0.962-0.479    c0.175-0.064,0.358-0.126,0.563-0.158c0.103-0.014,0.204-0.023,0.355-0.011c0.071,0.004,0.271,0.051,0.369,0.12    c0.413,0.272,0.618,0.587,0.848,0.902c0.219,0.315,0.411,0.634,0.592,0.945c0.352,0.628,0.654,1.225,0.892,1.749    C208.978,153.076,209.237,153.805,209.237,153.805z" />
	</g>
	<path style="fill:none;stroke:#000000;stroke-width:1.6803;stroke-linecap:round;" d="M92.29,121.77   c2.04-2.546,32.529-35.271,45.001-37.009c9.485-1.322,43.067,12.431,43.067,12.431s5.397-0.649,9.794,10.859l12.131,22.377   l8.138,22.482c0,0,1.579,6.633-5.752,6.911" />
	<path style="fill:none;stroke:#000000;stroke-width:1.6803;stroke-linecap:round;" d="M117.782,155.91   c0,0,8.709-18.383,13.665-24.538" />
	<path style="fill:none;stroke:#000000;stroke-width:1.6803;stroke-linecap:round;" d="M128.14,125.862c0,0,8.187,8.5,17.634,9.609" />
	<path style="fill:none;stroke:#000000;stroke-width:1.6803;stroke-linecap:round;" d="M181.153,111.922l11.558,20.51l13.424,31.102   c0,0-1.709,5.803-7.944,5.275c-5.449-0.461-7.707-8.007-7.707-8.007" />
	
		<line style="fill:none;stroke:#000000;stroke-width:1.6803;stroke-linecap:round;" x1="181.889" y1="108.955" x2="183.296" y2="115.725" />
	<path style="fill:none;stroke:#000000;stroke-width:1.6803;stroke-linecap:round;" d="M170.322,118.199l10.865,22.068   l12.184,27.129c0,0-4.418,7.871-9.566,2.5c-3.067-3.2-13.425-19.391-13.425-19.391l-12.427-22.522l-1.873-1.281" />
	<path style="fill:none;stroke:#000000;stroke-width:1.6803;stroke-linecap:round;" d="M143.797,131.019l11.802,17.144   c0,0,6.876,7.384,11.372-1.411" />
	<path style="fill:none;stroke:#000000;stroke-width:1.6803;stroke-linecap:round;" d="M160.236,154.32c0,0-0.745,3.823,2.698,6.482   " />
	
		<line style="fill:none;stroke:#000000;stroke-width:1.6803;stroke-linecap:round;" x1="164.216" y1="161.75" x2="169.744" y2="155.886" />
	
		<line style="fill:none;stroke:#000000;stroke-width:1.6803;stroke-linecap:round;" x1="167.657" y1="156.219" x2="172.224" y2="155.759" />
	<path style="fill:none;stroke:#000000;stroke-width:0.8402;" d="M116.758,101.127c0,0-9.679,21.958,11.312,30.647" />
	<path style="fill:none;stroke:#000000;stroke-width:0.8402;stroke-linecap:round;" d="M170.734,102.643   c0,0,5.743,0.891,7.327,8.465" />
	<path style="fill:none;stroke:#000000;stroke-width:0.4201;" d="M190.821,134.485c0,0-6.225,2.688-7.215,4.025" />
	<path style="fill:none;stroke:#000000;stroke-width:0.4201;" d="M190.933,136.505c0,0-2.434,1.811-5.941,3.119" />
	<path style="fill:none;stroke:#000000;stroke-width:0.4201;" d="M179.044,140.505c0,0-3.643,3.71-7.604,5.269" />
	<path style="fill:none;stroke:#000000;stroke-width:0.4201;" d="M178.273,139.35c0,0-5.668,2.663-7.737,5.175" />
	<path style="fill:none;stroke:#000000;stroke-width:0.4201;" d="M199.855,129.304c0,0-2.408,0.325-5.201,3.142" />
	<path style="fill:none;stroke:#000000;stroke-width:0.4201;" d="M200.721,130.387c0,0-1.142,1.726-6.261,3.251" />
</g>
</svg>
