<?xml version="1.0" encoding="UTF-8"?>
<!-- Generator: Adobe Illustrator 28.2.0, SVG Export Plug-In . SVG Version: 6.00 Build 0)  -->
<svg xmlns="http://www.w3.org/2000/svg" xmlns:xlink="http://www.w3.org/1999/xlink" version="1.1" id="Lager_1" x="0px" y="0px" width="546.79px" height="226.772px" viewBox="0 0 546.79 226.772" style="enable-background:new 0 0 546.79 226.772;" xml:space="preserve"><rect fill="#FFFFFF" x="0px" y="0px" width="546.79px" height="226.772px" />
<g id="Färg_30_">
	
		<linearGradient id="SVGID_1_" gradientUnits="userSpaceOnUse" x1="-575.8539" y1="-425.4171" x2="-554.019" y2="-410.712" gradientTransform="matrix(0.96 0.28 0.28 -0.96 677.5659 -98.3194)">
		<stop offset="0" style="stop-color:#FFFFFF" />
		<stop offset="0.9986" style="stop-color:#E6E6E6" />
	</linearGradient>
	<path style="fill:url(#SVGID_1_);" d="M47.696,143.264c0,0-17.322,0.875-19.56-9.868c-2.358-5.542-1.924-17.014-1.924-17.014   l-17.277,8.22l-6.433,3.331l7.998,45.276L47.696,143.264z" />
</g>
<g id="Färg_00000021087772371798693270000002057520161091885757_">
	
		<linearGradient id="SVGID_00000161615590857897229630000000533726378689304991_" gradientUnits="userSpaceOnUse" x1="-353.7554" y1="-373.9666" x2="-338.4048" y2="-363.6284" gradientTransform="matrix(0.96 0.28 0.28 -0.96 677.5659 -98.3194)">
		<stop offset="0" style="stop-color:#FFFFFF" />
		<stop offset="0.9986" style="stop-color:#E6E6E6" />
	</linearGradient>
	<path style="fill:url(#SVGID_00000161615590857897229630000000533726378689304991_);" d="M265.717,166.772   c0,0-9.954-11.234-12.192-21.977c-2.358-5.542-4.963-15.855-4.963-15.855l-17.277,8.22l-0.506,1.183l8.681,49.145L265.717,166.772z   " />
</g>
<g id="Färg_00000067938655896837041040000000038035835558933889_">
	
		<linearGradient id="SVGID_00000164512274873865898350000001946664741021431201_" gradientUnits="userSpaceOnUse" x1="-438.0985" y1="-448.8537" x2="-416.7645" y2="-434.4858" gradientTransform="matrix(0.9309 -0.3654 -0.3654 -0.9309 375.9496 -392.8603)">
		<stop offset="0" style="stop-color:#FFFFFF" />
		<stop offset="0.9986" style="stop-color:#E6E6E6" />
	</linearGradient>
	<path style="fill:url(#SVGID_00000164512274873865898350000001946664741021431201_);" d="M166.17,158.926   c0,0-13.046,2.135-21.257-4.971c-5.187-2.915-14.241-8.129-14.241-8.129l-6.822,10.602l-4.075,7.346l30.153,36.817L166.17,158.926z   " />
</g>
<g id="Färg_00000034047537896812899930000013349193963487328152_">
	
		<linearGradient id="SVGID_00000168796522999431680250000006147269405922863504_" gradientUnits="userSpaceOnUse" x1="-219.4613" y1="-537.6967" x2="-199.1279" y2="-524.0028" gradientTransform="matrix(0.9309 -0.3654 -0.3654 -0.9309 375.9496 -392.8603)">
		<stop offset="0" style="stop-color:#FFFFFF" />
		<stop offset="0.9986" style="stop-color:#E6E6E6" />
	</linearGradient>
	<path style="fill:url(#SVGID_00000168796522999431680250000006147269405922863504_);" d="M397.669,160.974   c0,0-8.492,2.798-16.703-4.309c-5.187-2.915-14.241-8.129-14.241-8.129l-6.822,10.602l-4.075,7.346l30.153,36.817L397.669,160.974z   " />
</g>
<g id="Färg_00000103265776007640765580000008303789027018464151_">
	
		<linearGradient id="SVGID_00000112626526411609369010000012107684115349614778_" gradientUnits="userSpaceOnUse" x1="-137.5098" y1="-540.4344" x2="-116.1541" y2="-526.0519" gradientTransform="matrix(0.995 -0.1004 -0.1004 -0.995 522.2462 -398.7003)">
		<stop offset="0" style="stop-color:#FFFFFF" />
		<stop offset="0.9986" style="stop-color:#E6E6E6" />
	</linearGradient>
	<path style="fill:url(#SVGID_00000112626526411609369010000012107684115349614778_);" d="M475.74,132.288   c0,0-11.915,4.046-17.939-5.058c-4.223-4.236-5.418-21.124-5.418-21.124l-10.412,9.004l-5.493,5.421l18.877,55.388L475.74,132.288z   " />
</g>
<g>
	<path d="M111.218,116.848c-1.344,0.643-3.495,1.456-3.959,2.839c-0.049,0.137-0.006,0.247-0.002,0.396   c0.5,1.901,1.702,3.818,3.142,5.144c0.04,0.032,0.09,0.037-0.019,0.017c-0.044-0.013-0.292,0.025-0.376,0.12   c-0.017,0.016,0.015-0.01,0.02-0.012c2.239-1.56,4.79-3.545,7.668-3.352c-2.62,0.856-4.561,2.917-6.66,4.616   c-0.205,0.199-0.625,0.294-0.831,0.249c-0.337-0.046-0.496-0.149-0.65-0.233c-1.49-1.038-2.371-2.592-3.123-4.189   C104.491,118.488,107.779,116.975,111.218,116.848L111.218,116.848z" />
</g>
<path style="fill:none;stroke:#000000;stroke-width:1.7;stroke-linecap:round;" d="M13.46,122.449c0,0,15.404-4.745,17.788-14.234  s2.981-13.285,7.452-14.55s5.365-1.582,8.346-6.326s5.067-4.428,8.048-4.112s7.154-1.265,10.73-3.796s4.471,0,8.644,0  s7.154-1.582,10.432-0.633c3.279,0.949,13.23,8.931,21.759,20.244c2.385,3.163,2.534,5.456,2.086,6.959" />
<path style="fill:none;stroke:#000000;stroke-width:1.7;stroke-linecap:round;" d="M83.709,82.277c0,0,16.99,15.183,18.48,16.765  c1.49,1.582,11.625,15.816,12.221,16.765s0.596,0.949,0.596,0.949" />
<g>
	<path d="M114.41,118.021c2.063,1.897,4.045,3.865,6.03,5.833l-0.095,0.348c-2.411,8.502-9.447,9.204-16.252,4.922   c-1.983-1.358-3.686-2.627-4.849-4.942c0,0,0.65,0.673,0.65,0.673c-4.484-2.217-8.364-5.381-11.285-9.425   c-0.982-1.328-1.733-2.814-2.43-4.303l0.841,0.513c-2.547-0.086-4.965-0.632-7.25-1.709c-2.218-1.067-4.151-2.878-5.002-5.196   c0.65,1.016,1.431,1.906,2.362,2.605c2.961,2.13,6.821,2.681,10.369,2.486c2.941,5.718,8.083,10.254,13.859,12.959   c1.556,3.392,5.779,5.794,9.34,6.623c3.993,1.182,7.144-2.001,8.509-5.549c0,0,0.126,0.567,0.126,0.567   C117.665,122.314,116,120.201,114.41,118.021L114.41,118.021z" />
</g>
<path style="fill:none;stroke:#000000;stroke-width:1.7;stroke-linecap:round;" d="M67.613,90.818v2.214  c0,0,10.432,20.244,11.923,25.305c1.49,5.061-0.298,13.285-2.683,15.183c-2.385,1.898-9.24,2.847-10.134,2.847" />
<path style="fill:none;stroke:#000000;stroke-width:1.7;stroke-linecap:round;" d="M51.517,102.521c0,0,13.413,27.203,14.307,29.417  c0.894,2.214,3.577,7.275-1.49,7.908c-5.067,0.633-11.029-1.582-12.817-3.479c-1.788-1.898-14.009-18.662-14.009-18.662" />
<path style="fill:none;stroke:#000000;stroke-width:1.7;stroke-linecap:round;" d="M39.892,122.449c0,0-2.683-1.265-3.577-2.214" />
<g>
	<path d="M80.678,137.14c-3.007-5.701-0.073-12.858,4.884-16.457c0,0-0.245,0.568-0.245,0.568c-0.014-0.741,0.06-1.47,0.26-2.156   c0.586-1.986,1.831-3.752,3.358-5.087c-0.747,1.11-1.376,2.278-1.82,3.487c-0.488,1.313-0.677,2.646-0.47,3.934   C82.373,125.42,79.714,131.217,80.678,137.14L80.678,137.14z" />
</g>
<line style="fill:none;stroke:#000000;stroke-width:1.7;stroke-linecap:round;" x1="99.658" y1="126.51" x2="97.268" y2="128.355" />
<path style="fill:none;stroke:#000000;stroke-width:1.7;stroke-linecap:round;" d="M86.838,129.092  c3.426-2.529,8.456-2.168,13.562,3.638c2.086,2.372,2.683,3.796,1.192,8.54c-1.49,4.745-2.385,7.117-6.856,7.117  c0,0-9.389,0.949-11.923-4.428C80.775,139.63,79.983,134.153,86.838,129.092z" />
<g>
	<path d="M89.223,130.989c-0.146-0.198,0.151-0.284,0.308-0.269c2.791,0.219,4.905,2.936,4.707,5.703   c0.077,4.788-1.431,10.828-7.512,7.697c-0.329-0.22-0.497-0.928-0.326-1.261c0.259-0.624,0.418-0.688,0.583-1.025   C88.606,138.62,90.936,134.586,89.223,130.989L89.223,130.989z M89.223,130.989c0.74,1.22,0.792,2.722,0.687,4.122   c-0.233,2.741-0.958,5.699-2.104,8.166c0.043-0.024-0.043-0.284-0.092-0.304c0.669,0.111,2.083,0.492,2.753,0.2   c2.037-1.276,2.449-4.553,2.928-6.812c0.663-2.538-1.193-5.397-3.864-5.625C89.378,130.722,89.086,130.784,89.223,130.989   L89.223,130.989z" />
</g>
<path style="fill:none;stroke:#000000;stroke-width:1.7;stroke-linecap:round;" d="M80.579,145.54c0,0-11.923,4.27-28.913-4.903" />
<path style="fill:none;stroke:#000000;stroke-width:1.7;stroke-linecap:round;" d="M53.529,140.637c0,0-28.168,19.216-31.074,23.249  " />
<path style="fill:none;stroke:#000000;stroke-linecap:round;" d="M26.032,118.574c0,0-4.695,22.775,19.673,25.147" />
<line style="fill:none;stroke:#000000;stroke-width:1.7;stroke-linecap:round;" x1="114.335" y1="117.625" x2="119.477" y2="123.437" />
<path style="fill:none;stroke:#000000;stroke-linecap:round;" d="M93.089,101.971c0.419-1.343,1.67-2.241,2.968-2.566  c1.298-0.325,2.654-0.174,3.979-0.021" />
<path style="fill:none;stroke:#000000;stroke-linecap:round;" d="M94.021,103.849c0.685-1.799,2.531-2.818,4.334-3.136  c1.803-0.318,3.65-0.088,5.475-0.191" />
<g>
	
		<line style="fill:none;stroke:#000000;stroke-width:1.7;stroke-linecap:round;" x1="155.252" y1="191.492" x2="170.561" y2="145.826" />
	<path style="fill:none;stroke:#000000;stroke-width:1.7;stroke-linecap:round;" d="M166.2,149.281c0,0,18.519-4.796,36.059-28.94" />
	<path style="fill:none;stroke:#000000;stroke-width:1.7;" d="M201.254,121.701c0,0,8.362-13.969,22.932-19.202   c7.444-2.674,5-6.941,5-6.941" />
	<path style="fill:none;stroke:#000000;stroke-width:1.7;stroke-linecap:round;" d="M128.269,149.495   c0,0,7.075-10.702,10.491-16.543c3.417-5.84,10.254-34.466,12.074-40.524c1.819-6.058,2.239-6.409,6.148-8.587" />
	<path style="fill:none;stroke:#000000;stroke-width:1.7;" d="M185.851,97.934c0,0-1.632,6.06,1.265,7.621   c2.897,1.562,4.739,1.413,9.074-2.341c4.334-3.754,6.414-5.588,6.414-5.588" />
	<g>
		<path d="M169.763,94.934c0.706,0.319,1.443,0.533,2.176,0.738c0.737,0.191,1.48,0.35,2.228,0.456    c0.372,0.063,0.745,0.115,1.121,0.144c0.374,0.037,0.747,0.08,1.124,0.085c0.376,0.007,0.749,0.042,1.124,0.037l1.123-0.015    c0.374-0.014,0.747-0.055,1.119-0.08c0.373-0.021,0.743-0.065,1.112-0.126l1.107-0.153l1.097-0.226    c0.735-0.124,1.446-0.379,2.167-0.564c0.36-0.095,0.708-0.244,1.064-0.356l1.06-0.365l0.241-0.083l0.26,0.068    c0.619,0.161,1.29,0.304,1.943,0.428c0.658,0.124,1.319,0.232,1.982,0.321c1.323,0.2,2.653,0.326,3.98,0.376    c2.643,0.068,5.318-0.097,7.737-0.989l0.295-0.109l0.299,0.097c0.926,0.3,1.9,0.598,2.862,0.856    c0.966,0.261,1.94,0.487,2.917,0.68c1.95,0.379,3.931,0.668,5.863,0.547c0.957-0.062,1.918-0.221,2.731-0.647    c0.383-0.215,0.886-0.521,1.256-0.795c0.401-0.274,0.796-0.602,1.161-0.944c0.372-0.34,0.719-0.713,1.038-1.111    c0.33-0.391,0.618-0.819,0.889-1.262c0.516-0.898,0.952-1.876,1.161-2.935c-0.146,2.165-1.132,4.26-2.571,5.873    c-0.359,0.409-0.735,0.79-1.156,1.145c-0.432,0.385-0.793,0.651-1.283,0.981c-0.971,0.62-2.047,0.885-3.098,1.055    c-1.057,0.15-2.112,0.169-3.155,0.129c-1.043-0.048-2.08-0.138-3.106-0.3c-1.024-0.16-2.042-0.355-3.052-0.584    c-1.014-0.232-2.005-0.476-3.019-0.803l0.593-0.012c-1.373,0.524-2.788,0.836-4.203,1.012c-1.415,0.179-2.832,0.197-4.236,0.132    c-1.404-0.071-2.797-0.222-4.177-0.45c-0.689-0.121-1.374-0.261-2.057-0.418c-0.687-0.16-1.351-0.327-2.052-0.539l0.501-0.015    l-1.134,0.342c-0.379,0.108-0.751,0.244-1.139,0.317c-0.775,0.149-1.533,0.363-2.318,0.444l-1.167,0.161L181,97.556    c-0.391,0.029-0.782,0.04-1.175,0.026c-0.392-0.009-0.783-0.003-1.173-0.023l-1.169-0.092c-0.389-0.027-0.776-0.103-1.161-0.159    c-0.387-0.05-0.768-0.14-1.149-0.222c-0.383-0.075-0.76-0.174-1.136-0.282c-0.754-0.198-1.487-0.479-2.207-0.774    C171.113,95.721,170.415,95.364,169.763,94.934z" />
	</g>
	<g>
		<path d="M174.594,95.376c0,0,0.086,0.44-0.022,1.087c-0.048,0.323-0.143,0.695-0.293,1.073c-0.139,0.385-0.354,0.762-0.583,1.125    c-0.246,0.353-0.519,0.683-0.808,0.955c-0.292,0.267-0.581,0.495-0.854,0.647c-0.259,0.171-0.504,0.263-0.672,0.329    c-0.168,0.064-0.267,0.092-0.267,0.092s0.063-0.09,0.177-0.233c0.114-0.144,0.284-0.332,0.47-0.57    c0.195-0.228,0.404-0.504,0.634-0.787c0.217-0.297,0.454-0.6,0.663-0.927c0.22-0.318,0.424-0.65,0.607-0.968    c0.185-0.317,0.349-0.624,0.489-0.892C174.413,95.769,174.594,95.376,174.594,95.376z" />
	</g>
	<g>
		<path d="M171.649,102.022c-0.043,3.034-0.099,6.068-0.201,9.098c-0.103,3.031-0.173,6.063-0.318,9.091l-0.388,9.088l-0.486,9.083    l-0.002,0.027l-0.002,0.014c-0.074,0.404-0.178,0.746-0.3,1.103c-0.121,0.351-0.264,0.692-0.42,1.025    c-0.316,0.664-0.699,1.288-1.132,1.868c-0.863,1.162-1.926,2.14-3.094,2.915c-1.164,0.788-2.444,1.353-3.753,1.761    c-0.654,0.209-1.32,0.366-1.987,0.505c-0.669,0.13-1.344,0.214-2.019,0.285c0.668-0.123,1.33-0.275,1.987-0.442    c0.654-0.18,1.303-0.376,1.935-0.621c1.264-0.488,2.478-1.11,3.581-1.903c1.103-0.791,2.084-1.765,2.862-2.894    c0.392-0.562,0.726-1.166,1.008-1.791c0.142-0.313,0.272-0.632,0.379-0.956c0.107-0.32,0.204-0.668,0.256-0.97l-0.004,0.04    l0.387-9.088l0.485-9.083c0.147-3.028,0.367-6.053,0.555-9.079C171.167,108.069,171.401,105.045,171.649,102.022z" />
	</g>
	<path style="fill:none;stroke:#000000;" d="M135.364,148.453c0,0,8.723,8.448,28.222,9.15" />
	<path style="fill:none;stroke:#000000;stroke-width:1.7;stroke-linecap:round;" d="M165.639,80.978c0,0,19.896-1.757,23.623-2.076   c3.727-0.319,5.652,0.719,9.06,1.411c3.408,0.692,16.499,4.097,16.499,4.097" />
	
		<line style="fill:none;stroke:#000000;stroke-width:1.7;stroke-linecap:round;" x1="215.072" y1="85.306" x2="223.792" y2="89.101" />
	<path style="fill:none;stroke:#000000;stroke-width:1.7;stroke-linecap:round;" d="M152.228,84.4c0,0,1.138-7.741,6.007-8.017" />
	<path style="fill:none;stroke:#000000;stroke-width:1.5;stroke-linecap:round;stroke-linejoin:bevel;" d="M156.437,74.721   c0,0,1.996-4.807,5.85-4.234c3.854,0.573,32.948,2.385,32.948,2.385l31.004,10.437" />
	<path style="fill:none;stroke:#000000;stroke-width:1.7;stroke-linecap:round;" d="M227.054,84.174l7.968,2.729   c0,0,0.146,10.343-11.934,7.581" />
	<path style="fill:none;stroke:#000000;stroke-width:1.7;stroke-linecap:round;" d="M199.147,70.98   c2.581-0.615,34.028,11.997,34.028,11.997" />
	<path style="fill:none;stroke:#000000;stroke-width:1.5;stroke-linecap:round;" d="M232.941,83.105l9.232,2.866   c0,0-0.559,9.652-9.627,9.445" />
	<g>
		<path d="M190.606,110.537c0,0,0.155,0.081,0.399,0.269c0.242,0.188,0.581,0.476,0.939,0.868c0.365,0.386,0.762,0.866,1.146,1.409    c0.395,0.537,0.765,1.146,1.124,1.76c0.343,0.624,0.677,1.254,0.946,1.868c0.283,0.606,0.507,1.191,0.691,1.696    c0.363,1.011,0.526,1.719,0.526,1.719s-0.409-0.587-0.94-1.5c-0.275-0.451-0.573-0.988-0.901-1.556    c-0.323-0.569-0.667-1.177-1.011-1.785c-0.337-0.61-0.686-1.212-1.016-1.774c-0.328-0.563-0.645-1.081-0.92-1.526    C191.038,111.098,190.606,110.537,190.606,110.537z" />
	</g>
	<g>
		<path d="M204.721,99.619c0,0,0.366,0.363,0.825,0.967c0.464,0.6,1.024,1.437,1.528,2.309c0.5,0.875,0.945,1.785,1.233,2.497    c0.294,0.708,0.429,1.219,0.429,1.219s-0.367-0.363-0.826-0.966c-0.464-0.599-1.023-1.437-1.527-2.309    c-0.499-0.875-0.943-1.786-1.232-2.497C204.856,100.129,204.721,99.619,204.721,99.619z" />
	</g>
	<g>
		<path d="M191.097,78.852c0,0,0.122,0.457,0.24,1.128c0.125,0.672,0.252,1.558,0.375,2.438c0.125,0.88,0.25,1.761,0.345,2.421    c0.056,0.336,0.102,0.615,0.135,0.811c0.033,0.2,0.046,0.321,0.046,0.321s-0.073-0.087-0.192-0.251    c-0.125-0.162-0.271-0.411-0.427-0.725c-0.15-0.315-0.3-0.697-0.419-1.116c-0.126-0.419-0.209-0.877-0.283-1.336    c-0.123-0.921-0.118-1.852-0.039-2.544C190.949,79.305,191.097,78.852,191.097,78.852z" />
	</g>
	<path style="fill:none;stroke:#000000;stroke-linecap:round;" d="M193.618,80.114c0,0-0.31,4.327-0.511,6.891" />
	<g>
		<path d="M214.922,86.483c0,0,0.267,0.718,0.753,1.715c0.49,0.987,1.231,2.27,2.261,3.172c0.259,0.22,0.531,0.42,0.813,0.584    c0.29,0.172,0.57,0.278,0.789,0.291c0.486,0.036,0.998-0.367,1.411-0.694c0.419-0.338,0.776-0.641,1.04-0.829    c0.261-0.193,0.42-0.289,0.42-0.289s-0.108,0.155-0.296,0.426c-0.191,0.268-0.456,0.649-0.821,1.087    c-0.183,0.221-0.396,0.449-0.672,0.667c-0.27,0.217-0.643,0.409-1.075,0.426c-0.459,0.024-0.836-0.168-1.166-0.341    c-0.342-0.18-0.664-0.414-0.952-0.681c-1.185-1.061-1.831-2.544-2.154-3.642C214.944,87.261,214.922,86.483,214.922,86.483z" />
	</g>
	<g>
		<path d="M224.858,85.372c0,0,0.53,0.521,1.325,1.301c0.398,0.382,0.861,0.824,1.371,1.265c0.515,0.429,1.07,0.888,1.666,1.185    c0.292,0.155,0.594,0.269,0.876,0.298c0.288,0.019,0.515-0.021,0.765-0.179c0.587-0.356,1.144-0.673,1.63-0.931    c0.967-0.524,1.651-0.809,1.651-0.809s-0.536,0.526-1.399,1.221c-0.429,0.351-0.939,0.744-1.496,1.15    c-0.311,0.242-0.787,0.415-1.209,0.369c-0.427-0.032-0.815-0.176-1.17-0.353c-0.702-0.375-1.283-0.881-1.783-1.391    c-0.499-0.512-0.913-1.032-1.242-1.498C225.18,86.074,224.858,85.372,224.858,85.372z" />
	</g>
	<path style="fill:none;stroke:#000000;stroke-linecap:round;" d="M236.901,88.248c1.328,0.136,2.403-2.082,3.466-2.838" />
	<g>
		<path d="M166.202,98.087c0,0,0.426,0.146,1.026,0.384c0.592,0.237,1.382,0.552,2.171,0.868c0.788,0.321,1.575,0.643,2.166,0.884    c0.3,0.132,0.55,0.242,0.726,0.319c0.176,0.084,0.276,0.139,0.276,0.139s-0.445,0.078-1.104,0.021    c-0.66-0.044-1.529-0.232-2.35-0.565c-0.821-0.335-1.59-0.803-2.109-1.239C166.477,98.471,166.202,98.087,166.202,98.087z" />
	</g>
	<path style="fill:none;stroke:#000000;stroke-width:1.4;stroke-linecap:round;" d="M175.387,69.911   c10.648-0.414,26.801,1.488,26.801,1.488" />
</g>
<g>
	<g>
		<path style="fill:#020506;" d="M288.839,74.21c2.232,0.321,4.222,1.586,5.648,3.335C292.276,76.934,290.493,75.776,288.839,74.21    L288.839,74.21z" />
	</g>
	<g>
		<path style="fill:#020506;" d="M289.309,71.95c-0.011-0.167,0.13-0.351,0.316-0.398c0.518-0.156,1.058,0.09,1.509,0.305    c1.733,0.943,3.109,2.403,4.153,4.065c-1.911-1.194-3.316-2.917-5.219-4.054C289.818,71.737,289.488,71.645,289.309,71.95    L289.309,71.95z" />
	</g>
	
		<line style="fill:none;stroke:#020506;stroke-width:1.7;stroke-linecap:round;" x1="240.435" y1="132.694" x2="264.469" y2="119.286" />
	<path style="fill:none;stroke:#020506;stroke-width:1.7;stroke-linecap:round;" d="M261.398,122.277c0,0,14.013-20.58,16.55-32.639   c0,0,13.537-15.454,14.978-26.269" />
	<g>
		<path style="fill:#020506;" d="M298.247,92.217c3.279,1.148,6.109,3.415,7.924,6.38C302.887,97.457,300.068,95.176,298.247,92.217    L298.247,92.217z" />
	</g>
	<path style="fill:none;stroke:#020506;stroke-width:1.7;stroke-linecap:round;" d="M313.373,160.771   c-10.514,0.745-33.701,2.32-38.116,1.846c-4.415-0.474-26.45,15.008-26.45,15.008" />
	<path style="fill:none;stroke:#020506;stroke-width:1.7;stroke-linecap:round;" d="M302.092,97.212c0,0,15.787-6.209,20.497-1.895" />
	<path style="fill:none;stroke:#020506;" d="M248.806,131.997c0,0,3.613,20.968,14.497,32.479" />
	<g>
		<path style="fill:#020506;" d="M292.424,67.687c0.072-4.538,0.228-9.072,0.442-13.604c9.024-5.161,11.869,3.029,12.301,10.668    c0.089,6.46-2.069,12.535-3.351,18.78c-0.799,3.521-2.733,8.575-2.448,12.214c-1.042-4.132,0.304-8.447,0.846-12.551    c0,0,1.018-6.193,1.018-6.193c0.6-3.518,1.855-8.651,1.667-12.161c-0.449-5.816-1.312-13.273-9.103-9.845    c0,0,0.311-0.495,0.311-0.495C293.607,58.903,293.058,63.3,292.424,67.687L292.424,67.687z" />
	</g>
	<g>
		<path style="fill:#020506;" d="M294.22,64.019c0.839,0.148,2.264,0.574,2.918,0.098c0.186-0.281,0.32-0.939,0.396-1.337    c0.41-2.61,0.716-5.434-0.578-7.866c2.364,1.882,2.404,7.499,0.691,9.79C296.492,65.394,295.211,64.602,294.22,64.019    L294.22,64.019z" />
	</g>
	<path style="fill:none;stroke:#000000;stroke-width:1.7;stroke-linecap:round;" d="M321.544,94.578   c2.29-0.073,4.611-0.062,6.831,0.538s4.356,1.849,5.678,3.835c1.3,1.954,1.703,4.508,1.241,6.849   c-0.462,2.341-1.75,4.457-3.459,6.015c-1.062,0.968-2.287,1.734-3.599,2.251" />
	<path style="fill:none;stroke:#000000;stroke-width:1.7;stroke-linecap:round;" d="M332.154,112.149   c2.433,2.571,3.548,6.468,2.873,10.041c-0.953,5.046-4.994,8.7-8.911,11.735" />
	<path style="fill:none;stroke:#000000;stroke-width:1.7;stroke-linecap:round;" d="M332.6,127.23   c1.028,0.61,1.853,1.677,2.269,2.935c0.608,1.84,0.332,3.934-0.28,5.772c-0.892,2.682-2.489,5.035-4.518,6.66" />
	<path style="fill:none;stroke:#000000;stroke-width:1.7;stroke-linecap:round;" d="M333.208,140.168   c0.902,2.842-0.385,5.917-1.856,8.478c-1.242,2.162-2.638,4.224-4.173,6.163" />
	<path style="fill:none;stroke:#000000;stroke-width:1.7;stroke-linecap:round;" d="M327.076,154.709   c-4.172,3.321-9.224,5.384-14.418,5.888" />
	<g>
		<path d="M325.424,99.057c4.592-0.028,4.991,6.464,3.784,9.733c-0.425,1.24-1.076,2.405-1.981,3.331    c0.363-1.239,0.656-2.423,0.845-3.615C328.391,105.317,328.951,100.63,325.424,99.057L325.424,99.057z" />
	</g>
	<g>
		<path d="M328.103,116.96c1.32,0.303,2.209,1.615,2.661,2.823c1.483,3.734,0.09,8.391-3.346,10.518    c0.625-1.128,1.223-2.194,1.643-3.308c0.879-2.198,0.994-4.561,0.582-6.888C329.409,118.965,329.07,117.822,328.103,116.96    L328.103,116.96z" />
	</g>
	<g>
		<path d="M326.536,135.243c4.904,0.886,2.77,6.361,0.812,9.042c-0.613,0.962-1.252,1.867-1.877,2.865    c0.089-2.317,1.338-4.425,2.15-6.487C328.554,138.6,328.606,136.652,326.536,135.243L326.536,135.243z" />
	</g>
	<g>
		<path d="M326.851,147.493c1.798,2.446,0.987,6.049-0.903,8.219c-0.63,0.728-1.632,1.456-2.64,1.263    c0.861-0.457,1.268-1.188,1.681-1.934C326.186,152.66,326.923,150.209,326.851,147.493L326.851,147.493z" />
	</g>
</g>
<g>
	<path style="fill:#FFFDFD;" d="M366.104,149.495c0.975-2.258,2.305,1.694,2.039-6.775c-0.266-8.469-4.522-50.811-3.192-54.199   s2.394-2.823,2.926-5.646c0.532-2.823-1.144-27.486,0.532-32.181s2.288-3.179,1.676-4.694c-0.612-1.516-1.942-11.678,0.718-10.549   s6.916,2.823,7.182,5.646s0.217,4.94,0.266,8.469c0.049,3.529,1.862,2.541,2.128,7.622c0.266,5.081,0.532,11.009,0.798,11.856   c0.266,0.847-0.23,2.346,1.064,2.258c1.294-0.088,14.098-8.751,17.822-7.904c3.724,0.847,6.916,4.234,9.842,7.904   c2.926,3.67,7.714,12.421,7.714,12.421s8.512,5.646,9.044,6.775s0.798-1.694,1.33,2.258c0.532,3.952,0.798,4.799-0.266,8.751   c-1.064,3.952-4.788,8.469-5.586,12.421c-0.798,3.952-1.596,14.679-4.788,20.325c-3.192,5.646-10.374,14.114-12.768,15.808   c-2.394,1.694-5.852,3.952-6.118,5.928c-0.266,1.976-0.798,4.987-0.798,4.987s-10.374,0.659-14.098-0.753   c-3.724-1.411-11.438-6.21-11.438-6.21" />
	<path style="fill:none;stroke:#000000;stroke-linecap:round;" d="M368.474,151.385c0,0,8.537,9.487,25.853,10.085" />
	<path style="fill:none;stroke:#000000;stroke-width:1.7;stroke-linecap:round;" d="M422.356,87.282c0,0,4.269,3.504,5.557,4.786   c0.966,1.026-0.161,9.829-1.691,12.564s-5.155,10.085-5.96,20.085c-1.047,13.59-17.155,25.726-20.457,30.256l-11.542,43.853" />
	<path style="fill:none;stroke:#000000;stroke-width:1.7;stroke-linecap:round;" d="M354.56,167.832   c0,0,13.431-17.387,14.478-24.054c1.047-6.667-5.155-50.085-5.074-52.991c0.081-2.906,3.141-7.949,3.141-7.949" />
	<path style="fill:none;stroke:#000000;stroke-width:1.7;stroke-linecap:round;" d="M369.441,93.864c0,0-1.208-22.137-1.369-24.957   c-0.161-2.906,0.644-21.966,0.644-21.966" />
	<line style="fill:none;stroke:#000000;stroke-width:1.7;stroke-linecap:round;" x1="370.085" y1="46" x2="369.844" y2="36" />
	
		<line style="fill:none;stroke:#000000;stroke-width:1.7;stroke-linecap:round;" x1="413.496" y1="109.846" x2="413.013" y2="99.163" />
	<path style="fill:none;stroke:#000000;stroke-width:1.7;stroke-linecap:round;" d="M384.421,73.864   c5.477-2.735,10.148-6.068,14.739-6.325c6.443-0.342,10.551,12.65,12.806,18.205c1.45,3.59,1.933,13.675,1.933,13.675" />
	<path style="fill:none;stroke:#000000;stroke-width:1.7;stroke-linecap:round;" d="M383.535,71.214c0,0,7.812-4.872,14.819-8.376   c7.007-3.504,17.236,18.889,17.236,18.889" />
	<g>
		<path d="M389.012,85.402c0,0,0.161,0.085,0.403,0.256c0.242,0.171,0.564,0.427,0.966,0.598c0.161,0.085,0.403,0.171,0.644,0.256    c0.242,0.085,0.483,0.171,0.644,0.171c0.242,0.085,0.483,0,0.725,0c0.242-0.085,0.483-0.085,0.725-0.171l0.403-0.085    c0.081-0.085,0.242-0.085,0.403-0.171c0.081-0.085,0.242-0.085,0.403-0.171c0.081-0.085,0.242-0.171,0.322-0.256    c0.242-0.171,0.483-0.256,0.644-0.427c0.242-0.171,0.403-0.256,0.644-0.427c0.161-0.171,0.403-0.256,0.564-0.342    c0.161-0.085,0.322-0.171,0.403-0.256c0.242-0.171,0.403-0.256,0.403-0.256s-0.081,0.171-0.161,0.427    c-0.081,0.171-0.161,0.342-0.242,0.513s-0.161,0.427-0.322,0.598c-0.161,0.256-0.322,0.427-0.483,0.684    c-0.161,0.256-0.403,0.513-0.644,0.684c-0.242,0.256-0.483,0.427-0.805,0.598c-0.161,0.085-0.322,0.171-0.483,0.256    s-0.322,0.171-0.564,0.171c-0.322,0.171-0.725,0.171-1.128,0.171s-0.805-0.085-1.128-0.256c-0.322-0.085-0.644-0.342-0.886-0.513    c-0.242-0.256-0.483-0.427-0.644-0.684c-0.322-0.427-0.483-0.855-0.644-1.197C389.012,85.573,389.012,85.402,389.012,85.402z" />
	</g>
	<path style="fill:none;stroke:#000000;stroke-linecap:round;" d="M396.663,84.889" />
	<g>
		<path d="M396.663,84.889c-0.161,0.598-0.161,1.282-0.242,1.88c0,0.598,0,1.282,0.081,1.88c0.081,0.598,0.161,1.197,0.322,1.795    c0.161,0.598,0.322,1.111,0.564,1.624c0.242,0.513,0.564,1.026,0.886,1.453c0.161,0.256,0.322,0.427,0.483,0.684    c0.161,0.171,0.403,0.427,0.564,0.598c0.403,0.427,0.805,0.769,1.289,1.111s0.966,0.684,1.45,0.94l0.483,0.342v0.598    c0,0.342,0,0.855,0,1.197c0,0.427,0.081,0.855,0.081,1.282c0.081,0.855,0.242,1.624,0.403,2.479    c0.081,0.427,0.242,0.769,0.322,1.197c0.161,0.427,0.242,0.769,0.403,1.111s0.322,0.769,0.564,1.111    c0.161,0.342,0.403,0.684,0.644,1.026c0.242,0.342,0.483,0.598,0.725,0.94l0.403,0.427l0.483,0.342    c0.322,0.256,0.644,0.427,0.966,0.598c0.322,0.171,0.725,0.342,1.128,0.427c0.403,0.085,0.725,0.256,1.128,0.342    c0.403,0.085,0.805,0.171,1.208,0.171c0.403,0.085,0.805,0.085,1.208,0.085c0.403,0,0.805,0,1.289,0    c-0.403,0.085-0.805,0.256-1.208,0.342c-0.403,0.085-0.805,0.171-1.289,0.171c-0.403,0.085-0.886,0.085-1.289,0.085    s-0.886-0.085-1.289-0.085c-0.403-0.085-0.886-0.171-1.289-0.342c-0.403-0.171-0.805-0.342-1.208-0.598    c-0.403-0.256-0.805-0.513-1.128-0.769c-0.322-0.342-0.725-0.598-0.966-1.026c-0.322-0.342-0.644-0.684-0.886-1.111    c-0.242-0.427-0.483-0.769-0.725-1.197c-0.403-0.855-0.725-1.709-0.966-2.65c-0.242-0.94-0.403-1.795-0.483-2.735    c-0.081-0.427-0.081-0.94-0.161-1.368c0-0.513,0-0.94,0-1.453l0.483,0.94c-1.128-0.684-2.175-1.453-3.061-2.479    c-0.242-0.256-0.403-0.513-0.644-0.769c-0.161-0.256-0.403-0.598-0.564-0.855c-0.322-0.598-0.644-1.197-0.886-1.88    c-0.483-1.282-0.564-2.735-0.483-4.017C395.697,87.282,396.019,86,396.663,84.889z" />
	</g>
	<g>
		<path d="M390.22,84.975c1.047,2.051,1.691,4.273,2.094,6.667c0.322,2.308,0.322,4.786-0.483,7.009v-0.256    c1.208,2.479,2.416,4.957,3.624,7.436c1.208,2.479,2.416,4.957,3.544,7.436l3.544,7.521l3.463,7.521l0,0    c0.242,0.342,0.322,0.684,0.483,1.026c0.081,0.342,0.161,0.684,0.242,1.111c0.081,0.342,0.081,0.769,0.081,1.111    c0,0.171,0,0.342,0,0.513s0,0.342-0.081,0.513c-0.081,0.342-0.081,0.684-0.161,1.111c-0.081,0.342-0.161,0.684-0.322,1.026    c-0.081,0.342-0.242,0.684-0.403,1.026l-0.483,0.94l0.403-1.026c0.081-0.342,0.242-0.684,0.322-1.026s0.161-0.684,0.242-1.026    c0.081-0.342,0.081-0.684,0.161-1.026c0-0.171,0-0.342,0-0.513s0-0.342,0-0.513c0-0.342-0.081-0.684-0.161-1.026    s-0.161-0.684-0.322-1.026c-0.081-0.342-0.242-0.684-0.403-0.94l0,0l0,0l-3.705-7.436l-3.624-7.436    c-1.208-2.479-2.336-4.957-3.544-7.521c-1.128-2.479-2.336-4.957-3.463-7.521l-0.081-0.171l0.081-0.085    c0.725-2.137,0.886-4.444,0.644-6.752c-0.081-1.111-0.322-2.308-0.644-3.419C391.026,87.197,390.704,86.086,390.22,84.975z" />
	</g>
	
		<line style="fill:none;stroke:#000000;stroke-width:1.7;stroke-linecap:round;" x1="422.195" y1="87.71" x2="417.362" y2="83.693" />
	<g>
		<path d="M416.637,83.693c0,0-0.161,0.342-0.403,0.855c-0.161,0.256-0.242,0.598-0.403,0.94s-0.322,0.769-0.403,1.282    c-0.081,0.256-0.161,0.427-0.242,0.684c-0.081,0.256-0.081,0.513-0.161,0.769c-0.161,0.513-0.161,1.111-0.322,1.624    c0,0.598-0.081,1.197-0.081,1.709c0,0.256,0,0.598,0.081,0.855l0.161,0.855c0,0.256,0.161,0.598,0.242,0.855    c0.081,0.256,0.161,0.598,0.242,0.855c0.242,0.513,0.483,1.111,0.725,1.624c0.322,0.513,0.564,0.94,0.805,1.453    c0.322,0.427,0.564,0.855,0.886,1.282c0.161,0.171,0.242,0.427,0.403,0.598c0.161,0.171,0.242,0.342,0.403,0.513    c0.242,0.256,0.483,0.598,0.644,0.769c0.322,0.427,0.564,0.769,0.564,0.769s-0.322-0.171-0.805-0.427    c-0.242-0.171-0.564-0.342-0.886-0.513c-0.161-0.085-0.322-0.256-0.564-0.342c-0.161-0.171-0.322-0.342-0.564-0.427    c-0.403-0.342-0.805-0.684-1.208-1.111c-0.403-0.427-0.725-0.94-1.128-1.453c-0.322-0.598-0.644-1.197-0.966-1.795    c-0.081-0.342-0.242-0.684-0.322-1.026c-0.081-0.342-0.242-0.684-0.242-1.026l-0.161-1.111c-0.081-0.342,0-0.684,0-1.111    c0-0.684,0.161-1.368,0.242-2.051c0.081-0.342,0.161-0.598,0.242-0.94c0.081-0.342,0.161-0.598,0.322-0.855    c0.161-0.256,0.242-0.513,0.403-0.769c0.161-0.256,0.242-0.513,0.403-0.684c0.242-0.427,0.564-0.769,0.805-1.111    c0.242-0.342,0.483-0.598,0.725-0.769C416.315,83.864,416.637,83.693,416.637,83.693z" />
	</g>
	<g>
		<path d="M417.846,83.436c0,0,0.081,0.085,0.161,0.171c0.081,0.085,0.161,0.342,0.322,0.598c0.242,0.513,0.483,1.282,0.644,2.222    c0.081,0.513,0.081,1.026,0.081,1.624c0,0.513-0.161,1.197-0.242,1.709c-0.081,0.513,0,1.111,0.161,1.624    c0.161,0.513,0.483,1.026,0.805,1.453c0.403,0.427,0.805,0.94,1.208,1.282s0.886,0.684,1.047,0.427    c0.242-0.256,0.322-0.94,0.403-1.453c0.081-0.513,0.081-1.026,0.081-1.538c0-0.94,0-1.709,0-2.308s0-0.855,0-0.855    s0.242,1.282,0.403,3.162C423,92.069,423,92.582,423,93.094c0,0.256,0,0.598-0.081,0.855c-0.081,0.342-0.081,0.598-0.403,0.94    c-0.161,0.171-0.322,0.256-0.564,0.342c-0.242,0-0.403,0-0.564-0.085c-0.322-0.171-0.564-0.342-0.886-0.513    c-0.483-0.427-0.966-0.855-1.369-1.368c-0.403-0.513-0.805-1.111-0.966-1.709c-0.242-0.684-0.242-1.368-0.161-2.051    c0.161-0.598,0.242-1.111,0.322-1.624c0.081-0.513,0.081-1.026,0.081-1.453c0-0.94-0.161-1.709-0.242-2.222    C417.926,83.778,417.846,83.436,417.846,83.436z" />
	</g>
	<g>
		<path d="M411.563,99.761C411.563,99.761,411.644,99.761,411.563,99.761s-0.161,0.085-0.242,0.171    c-0.242,0.171-0.483,0.513-0.725,0.855c-0.483,0.769-0.886,2.051-1.208,3.248c-0.322,1.282-0.564,2.564-0.805,3.59    c-0.081,0.513-0.242,0.94-0.322,1.197c-0.081,0.256-0.161,0.427-0.161,0.427s-0.161-0.684-0.242-1.709s0-2.479,0.322-3.846    c0.322-1.368,1.047-2.735,1.852-3.419c0.403-0.342,0.805-0.598,1.128-0.598C411.402,99.676,411.483,99.676,411.563,99.761    C411.563,99.676,411.644,99.676,411.563,99.761C411.644,99.761,411.644,99.761,411.563,99.761L411.563,99.761z" />
	</g>
	<g>
		<path d="M385.871,148.992c0,0,0.161,0.085,0.403,0.171c0.242,0.085,0.644,0.085,1.128,0.171c0.886,0,2.175-0.171,3.383-0.427    c1.208-0.256,2.416-0.684,3.302-0.94c0.886-0.256,1.53-0.427,1.53-0.427s-0.564,0.427-1.369,0.855    c-0.403,0.256-0.966,0.513-1.53,0.684c-0.322,0.085-0.564,0.256-0.886,0.342c-0.322,0.085-0.644,0.171-0.966,0.256    c-0.644,0.171-1.289,0.256-1.933,0.256c-0.322,0-0.644,0-0.886,0s-0.564-0.085-0.805-0.085c-0.483-0.085-0.886-0.256-1.128-0.427    C386.032,149.163,385.871,148.992,385.871,148.992z" />
	</g>
	<g>
		<path d="M402.14,123.436c0,0,0.161,0.171,0.322,0.598c0.161,0.342,0.483,0.94,0.725,1.624c0.081,0.342,0.242,0.684,0.403,1.111    c0.081,0.427,0.242,0.855,0.322,1.282c0.081,0.427,0.161,0.94,0.242,1.368c0.081,0.513,0.081,0.94,0.081,1.453    c0,1.026,0,1.966-0.081,2.906c-0.081,0.94-0.242,1.795-0.403,2.479c-0.161,0.684-0.322,1.282-0.483,1.709    c-0.081,0.427-0.161,0.598-0.161,0.598s0-0.256,0.081-0.684c0.081-0.427,0.081-1.026,0.161-1.709c0-0.342,0.081-0.769,0.081-1.197    s0-0.855,0.081-1.282c0-0.427,0-0.94,0-1.368c0-0.427,0-0.94,0-1.453c0-0.513-0.081-0.94-0.081-1.453    c-0.081-0.427-0.081-0.94-0.161-1.368c-0.081-0.427-0.081-0.855-0.161-1.282c-0.081-0.427-0.161-0.769-0.242-1.111    c-0.161-0.684-0.322-1.282-0.403-1.709C402.301,123.607,402.14,123.436,402.14,123.436z" />
	</g>
	<path style="fill:none;stroke:#000000;stroke-width:1.7;stroke-linecap:round;" d="M370.73,34.633c0,0,12.162,1.111,7.571,18.462" />
	<g>
		<path style="fill:#222223;" d="M377.414,49.847c1.047,1.453,1.852,3.162,2.416,4.957c0.644,1.709,1.047,3.59,1.289,5.385    c0.242,1.88,0.403,3.761,0.242,5.556c-0.081,1.88-0.403,3.675-0.886,5.47c-0.161-1.88-0.161-3.675-0.322-5.47    c-0.161-1.795-0.322-3.59-0.564-5.385c-0.242-1.795-0.564-3.504-0.966-5.299C378.3,53.436,377.898,51.641,377.414,49.847z" />
	</g>
	<g>
		<path style="fill:#222223;" d="M380.314,67.111c1.047,1.453,1.772,3.077,2.336,4.786c0.564,1.709,0.966,3.419,1.208,5.299    c0.242,1.795,0.242,3.59,0,5.385c-0.161,1.795-0.644,3.59-1.369,5.214c0.081-1.795,0.161-3.504,0.161-5.214    c0-1.709-0.161-3.419-0.322-5.128c-0.161-1.709-0.483-3.419-0.805-5.128C381.119,70.53,380.797,68.821,380.314,67.111z" />
	</g>
</g>
<g>
	<g>
		<path style="fill:#FFFDFD;" d="M543.648,148.032c-1.701-3.955-3.573-7.846-4.511-9.465c-2.006-3.459-5.015-11.974-7.773-15.699    c-2.758-3.725-8.023-15.167-10.029-17.029c-2.006-1.863-36.106-11.175-48.141-12.24c-12.035-1.064-15.295,7.184-20.811,12.506    l-3.009,8.781c-0.251,1.064,8.427,12.343,8.427,12.343s5.614,9.741,7.62,11.072c2.006,1.33,1.606-0.711,2.507-2.661    c0.236-0.51,0.503-0.674,0.804-0.61c3.831,7.243,7.661,14.485,11.492,21.728c0.312,0.591,0.638,1.198,1.143,1.613    c0.854,0.7,2.034,0.708,3.109,0.594c3.179-0.335,6.46-1.613,8.364-4.325c0.653,0.683,1.38,1.305,2.167,1.755    c3.26,1.863,1.755,1.064,1.755,2.927c0,1.863,0,2.661,0,3.725c0,1.064,4.513,3.725,4.513,3.725s2.006-2.927,3.26-4.523    c0.464-0.59,1.339-1.071,2.258-1.443c2.511-3.754,6.947-4.734,8.478-8.795c6.443,5.128,12.886,21.367,17.719,11.111    c3.222-5.983,1.611-9.402,9.665-11.966C543.585,151.156,543.709,149.73,543.648,148.032z" />
		<g>
			<path d="M533.279,157.296c0,0-0.19-0.288-0.523-0.791c-0.321-0.51-0.821-1.212-1.391-2.063c-0.292-0.421-0.613-0.873-0.975-1.321     c-0.18-0.223-0.371-0.448-0.573-0.654c-0.187-0.2-0.437-0.422-0.582-0.464c-0.158-0.042-0.428,0.024-0.717,0.115     c-0.282,0.092-0.573,0.208-0.862,0.339c-0.58,0.261-1.153,0.585-1.72,0.915c-0.565,0.333-1.12,0.695-1.627,1.084     c-0.25,0.189-0.504,0.398-0.671,0.596c-0.165,0.22-0.221,0.431-0.273,0.729c-0.085,0.574-0.033,1.191,0.085,1.754     c0.118,0.567,0.294,1.091,0.476,1.568c0.201,0.468,0.38,0.906,0.574,1.276c0.188,0.374,0.371,0.689,0.528,0.946     c0.311,0.515,0.499,0.806,0.499,0.806s-0.057-0.064-0.163-0.184c-0.102-0.124-0.273-0.289-0.454-0.53     c-0.374-0.473-0.893-1.173-1.373-2.12c-0.226-0.481-0.452-1.015-0.623-1.616c-0.166-0.6-0.294-1.265-0.228-1.999     c0.035-0.348,0.155-0.803,0.392-1.116c0.247-0.318,0.505-0.536,0.772-0.762c0.539-0.433,1.109-0.812,1.693-1.17     s1.191-0.668,1.811-0.943c0.312-0.133,0.625-0.262,0.957-0.352c0.166-0.046,0.337-0.084,0.517-0.109     c0.096-0.009,0.176-0.021,0.303-0.015c0.065,0.001,0.11,0.007,0.143,0.013l0.085,0.015l0.09,0.03     c0.44,0.19,0.629,0.454,0.859,0.696c0.209,0.252,0.388,0.507,0.558,0.758c0.338,0.502,0.625,0.99,0.885,1.442     c0.525,0.902,0.878,1.703,1.144,2.25C533.152,156.97,533.279,157.296,533.279,157.296z" />
		</g>
		<g>
			<path d="M541.605,146.342c0,0-0.171-0.299-0.47-0.822c-0.3-0.518-0.73-1.259-1.244-2.147c-0.261-0.438-0.551-0.909-0.88-1.378     c-0.163-0.234-0.344-0.464-0.524-0.68c-0.091-0.109-0.188-0.204-0.28-0.283c-0.046-0.037-0.089-0.063-0.119-0.079     c0.02,0.008-0.056-0.021-0.081-0.029l-0.063-0.012c-0.461-0.069-1.096,0.085-1.666,0.281c-0.583,0.205-1.154,0.497-1.695,0.833     c-0.543,0.334-1.05,0.732-1.492,1.181c-0.221,0.225-0.428,0.458-0.613,0.705c-0.093,0.122-0.181,0.249-0.263,0.377l-0.1,0.162     c-0.026,0.066-0.086,0.167-0.084,0.202c-0.107,0.368,0.073,1.036,0.271,1.55c0.203,0.54,0.434,1.05,0.647,1.519     c0.435,0.936,0.76,1.743,0.997,2.299c0.23,0.562,0.347,0.889,0.347,0.889s-0.176-0.295-0.486-0.811     c-0.295-0.524-0.758-1.245-1.258-2.149c-0.251-0.452-0.524-0.942-0.784-1.493c-0.13-0.275-0.253-0.571-0.352-0.9     c-0.095-0.337-0.165-0.692-0.044-1.174c0.03-0.126,0.061-0.164,0.093-0.251c0.066-0.145,0.092-0.17,0.141-0.262     c0.087-0.15,0.181-0.298,0.282-0.441c0.198-0.288,0.42-0.562,0.665-0.813c0.486-0.507,1.037-0.95,1.625-1.322     c0.589-0.373,1.216-0.67,1.861-0.891c0.656-0.205,1.297-0.391,2.061-0.25l0.161,0.047l0.134,0.058     c0.106,0.057,0.188,0.121,0.261,0.185c0.139,0.128,0.255,0.259,0.354,0.39c0.206,0.26,0.364,0.531,0.518,0.791     c0.302,0.524,0.554,1.029,0.78,1.499c0.46,0.934,0.755,1.755,0.979,2.317C541.502,146.008,541.605,146.342,541.605,146.342z" />
		</g>
		<path style="fill:none;stroke:#000000;stroke-width:1.7;stroke-linecap:round;" d="M441.971,115.11    c2.075-2.442,17.664-20.75,30.345-22.418c9.643-1.268,41.437,11.75,41.437,11.75s7.047-0.641,10.873,8.761l9.905,12.522    l8.619,22.022c0,0-0.481,5.941-7.935,6.208" />
		<path style="fill:none;" d="M429.424,131.292" />
		<path style="fill:none;stroke:#000000;stroke-width:1.7;stroke-linecap:round;" d="M454.358,117.814    c0,0,1.922,14.273,15.955,21.573" />
		<path style="fill:none;stroke:#000000;" d="M452.677,108.715c0,0-3.896,8.85,4.025,16.451" />
		<path style="fill:none;stroke:#000000;stroke-width:1.7;stroke-linecap:round;" d="M468.42,135.559l11.539,21.31    c0,0,2.647,3.278,7.338,1.557c3.474-1.274,3.839-2.873,3.839-2.873" />
		<path style="fill:none;stroke:#000000;stroke-width:1.7;stroke-linecap:round;" d="M483.713,131.163l8.45,22.296    c0,0,2.155,3.58,6.421,1.554c4.265-2.026,4.021-4.024,3.883-5.809c-0.138-1.785-5.283-24.523-5.283-24.523l0.318-3.31" />
		
			<line style="fill:none;stroke:#000000;stroke-width:1.7;stroke-linecap:round;" x1="469.996" y1="143.768" x2="456.716" y2="170.388" />
		<path style="fill:none;stroke:#000000;stroke-width:1.7;stroke-linecap:round;" d="M495.915,157.399c0,0-2.16,7.65,4.919,9.932" />
		
			<line style="fill:none;stroke:#000000;stroke-width:1.7;stroke-linecap:round;" x1="508.324" y1="158.184" x2="501.766" y2="167.238" />
		<path style="fill:none;stroke:#000000;stroke-width:1.7;stroke-linecap:round;" d="M513.149,154.869" />
		<path style="fill:none;stroke:#000000;stroke-width:1.7;stroke-linecap:round;" d="M514.49,153.484c0,0-2.71,5.884-8.201,6.361" />
		<path style="fill:none;stroke:#000000;stroke-width:0.5;stroke-linecap:round;" d="M511.421,138.074c0,0,3.086-6.352,9.052-6.103" />
		<path style="fill:none;stroke:#000000;stroke-width:0.5;stroke-linecap:round;" d="M513.35,137.561c0,0,6.367-4.299,6.525-4.104" />
		<path style="fill:none;stroke:#000000;stroke-width:0.5;stroke-linecap:round;" d="M522.817,128.958c0,0,3.437-4.179,8.319-5.038" />
		<g>
			<path d="M526.164,161.676c0,0,0.204-0.561,0.728-1.254c0.254-0.352,0.591-0.729,0.984-1.097c0.395-0.366,0.849-0.718,1.334-1.017     c0.24-0.155,0.497-0.275,0.744-0.405c0.242-0.14,0.511-0.211,0.753-0.315c0.242-0.108,0.497-0.15,0.727-0.218     c0.23-0.071,0.457-0.1,0.664-0.127c0.412-0.073,0.762-0.068,1.005-0.062c0.242,0.005,0.38,0.017,0.38,0.017     s-0.129,0.055-0.354,0.15c-0.225,0.088-0.544,0.203-0.915,0.368c-0.186,0.078-0.388,0.157-0.594,0.259     c-0.206,0.104-0.43,0.189-0.649,0.309c-0.442,0.23-0.913,0.471-1.359,0.761c-0.461,0.263-0.891,0.581-1.302,0.869     c-0.404,0.3-0.779,0.59-1.095,0.851C526.584,161.289,526.164,161.676,526.164,161.676z" />
		</g>
		<g>
			<path d="M534.667,150.436c0,0,0.204-0.561,0.728-1.254c0.255-0.352,0.591-0.729,0.984-1.097c0.395-0.366,0.849-0.718,1.334-1.017     c0.24-0.155,0.497-0.275,0.744-0.405c0.242-0.14,0.511-0.211,0.753-0.315c0.242-0.108,0.497-0.15,0.727-0.218     c0.23-0.071,0.457-0.1,0.664-0.127c0.412-0.073,0.762-0.068,1.005-0.062c0.242,0.005,0.38,0.017,0.38,0.017     s-0.129,0.055-0.354,0.15c-0.226,0.088-0.544,0.203-0.915,0.368c-0.186,0.078-0.388,0.157-0.594,0.259     c-0.206,0.104-0.43,0.189-0.649,0.309c-0.442,0.23-0.913,0.471-1.359,0.761c-0.461,0.263-0.891,0.581-1.302,0.869     c-0.404,0.3-0.779,0.59-1.095,0.851C535.087,150.049,534.667,150.436,534.667,150.436z" />
		</g>
		
			<line style="fill:none;stroke:#000000;stroke-width:1.7;stroke-linecap:round;" x1="510.104" y1="112.932" x2="512.898" y2="120.464" />
		<path style="fill:none;stroke:#000000;stroke-width:1.7;stroke-linecap:round;" d="M501.001,131.792l11.544,14.815    c0,0,7.786,15.1,12.081,18.803c4.295,3.703,13.387-2.276,10.169-7.396l-3.657-5.82l-7.719-17.316l-12.377-16.958" />
		<path style="fill:none;stroke:#000000;stroke-width:0.5;stroke-linecap:round;" d="M524.671,129.738c0,0,4.447-0.765,7.332-4.082" />
	</g>
</g>
<g>
	<g>
		
			<line style="fill:none;stroke:#000000;stroke-width:2.2;stroke-linecap:round;" x1="312.341" y1="67.111" x2="340.398" y2="67.111" />
		<g>
			<polygon points="351.272,67.111 335.95,73.372 339.586,67.111 335.95,60.852    " />
		</g>
	</g>
</g>
</svg>
