<?xml version="1.0" encoding="UTF-8"?>
<svg id="Kort" xmlns="http://www.w3.org/2000/svg" xmlns:xlink="http://www.w3.org/1999/xlink" viewBox="0 0 310 266">
  <defs>
    <style>
      .cls-1 {
        fill: none;
        stroke: #fff;
        stroke-linejoin: round;
        stroke-width: .75px;
      }

      .cls-2 {
        filter: url(#drop-shadow-1);
      }

      .cls-2, .cls-3 {
        fill: #fff;
      }

      .cls-4 {
        fill: #aac064;
      }

      .cls-3 {
        filter: url(#drop-shadow-2);
      }

      .cls-5 {
        fill: #99b54d;
      }
    </style>
    <filter id="drop-shadow-1" x="22" y="19" width="288" height="247" filterUnits="userSpaceOnUse">
      <feOffset dx="5.67" dy="2.83"/>
      <feGaussianBlur result="blur" stdDeviation="8.5"/>
      <feFlood flood-color="#000" flood-opacity=".56"/>
      <feComposite in2="blur" operator="in"/>
      <feComposite in="SourceGraphic"/>
    </filter>
    <filter id="drop-shadow-2" x="0" y="0" width="288" height="247" filterUnits="userSpaceOnUse">
      <feOffset dx="5.67" dy="2.83"/>
      <feGaussianBlur result="blur-2" stdDeviation="8.5"/>
      <feFlood flood-color="#000" flood-opacity=".56"/>
      <feComposite in2="blur-2" operator="in"/>
      <feComposite in="SourceGraphic"/>
    </filter>
  </defs>
  <g>
    <rect class="cls-2" x="50.43" y="52.6" width="220.09" height="174.71" rx="8.85" ry="8.85" transform="translate(-13.75 17.54) rotate(-6)"/>
    <path class="cls-1" d="M252.02,53.63c-1.73-1.07-.83-5.02-2.85-4.8s-1.43,5.85-3.46,6.06-2.62-5.43-4.64-5.21-1.43,5.85-3.45,6.06-2.61-5.43-4.64-5.21-1.43,5.85-3.45,6.06-2.61-5.43-4.64-5.21-1.43,5.85-3.45,6.06-2.62-5.43-4.64-5.21-1.43,5.85-3.46,6.06-2.62-5.43-4.64-5.21-1.43,5.85-3.45,6.06-2.62-5.43-4.64-5.21-1.43,5.85-3.45,6.06-2.62-5.43-4.64-5.21-1.43,5.85-3.46,6.06-2.62-5.43-4.64-5.21-1.43,5.85-3.45,6.06-2.62-5.43-4.64-5.21-1.43,5.85-3.46,6.06-2.62-5.43-4.64-5.21-1.43,5.85-3.46,6.06-2.62-5.43-4.64-5.21-1.43,5.85-3.46,6.06-2.62-5.43-4.64-5.21-1.43,5.85-3.46,6.06-2.62-5.43-4.64-5.21-1.43,5.85-3.46,6.06-2.62-5.43-4.64-5.21-1.43,5.85-3.46,6.06-2.62-5.43-4.64-5.21-1.43,5.85-3.46,6.06-2.62-5.43-4.64-5.21-1.43,5.85-3.46,6.06-2.62-5.43-4.64-5.21-1.43,5.85-3.46,6.06-2.62-5.43-4.64-5.21-1.43,5.85-3.46,6.06-2.62-5.43-4.64-5.21-1.43,5.85-3.46,6.06-2.62-5.43-4.64-5.21-1.43,5.85-3.46,6.06-2.62-5.43-4.65-5.21-1.43,5.85-3.46,6.06-2.62-5.43-4.65-5.21-1.43,5.85-3.46,6.06-2.62-5.43-4.65-5.21-1.43,5.85-3.46,6.06-2.62-5.42-4.65-5.21-.33,3.89-1.81,5.3c-1.14,1.08-4.61-.2-4.44,1.36s5.8.97,5.97,2.53-5.47,2.15-5.31,3.72,5.8.97,5.97,2.53-5.47,2.15-5.31,3.71,5.8.97,5.97,2.53-5.47,2.15-5.31,3.71,5.8.97,5.97,2.53-5.47,2.15-5.31,3.71,5.8.97,5.97,2.53-5.47,2.15-5.31,3.72,5.8.97,5.97,2.53-5.47,2.15-5.31,3.71,5.8.97,5.97,2.53-5.47,2.15-5.31,3.71,5.8.97,5.97,2.53-5.47,2.15-5.31,3.72,5.8.97,5.97,2.53-5.47,2.15-5.31,3.71,5.8.97,5.97,2.53-5.47,2.16-5.31,3.72,5.8.97,5.97,2.53-5.47,2.15-5.31,3.72,5.8.97,5.97,2.53-5.47,2.16-5.31,3.72,5.8.97,5.97,2.53-5.47,2.15-5.31,3.72,5.8.97,5.97,2.53-5.47,2.15-5.31,3.72,5.8.97,5.97,2.53-5.47,2.15-5.31,3.72,5.8.97,5.97,2.53-5.47,2.15-5.31,3.72,5.8.97,5.97,2.53-5.47,2.15-5.31,3.71,5.8.97,5.97,2.53-5.47,2.15-5.31,3.71,5.8.97,5.97,2.53-5.47,2.15-5.31,3.72,5.8.97,5.97,2.53-5.47,2.16-5.31,3.72,5.8.97,5.97,2.53-5.47,2.16-5.31,3.72,5.8.97,5.97,2.54-5.47,2.15-5.31,3.72,5.8.97,5.97,2.54-5.47,2.16-5.31,3.72,5.8.97,5.97,2.54-5.47,2.16-5.31,3.73,3.3-.4,4.64.43c1.73,1.07.83,5.02,2.85,4.8s1.43-5.85,3.46-6.06,2.62,5.43,4.64,5.21,1.43-5.85,3.45-6.06,2.61,5.43,4.64,5.21,1.43-5.85,3.45-6.06,2.61,5.43,4.64,5.21,1.43-5.85,3.45-6.06,2.62,5.43,4.64,5.21,1.43-5.85,3.46-6.06,2.62,5.43,4.64,5.21,1.43-5.85,3.45-6.06,2.62,5.43,4.64,5.21,1.43-5.85,3.45-6.06,2.62,5.43,4.64,5.21,1.43-5.85,3.46-6.06,2.62,5.43,4.64,5.21,1.43-5.85,3.45-6.06,2.62,5.43,4.64,5.21,1.43-5.85,3.46-6.06,2.62,5.43,4.64,5.21,1.43-5.85,3.46-6.06,2.62,5.43,4.64,5.21,1.43-5.85,3.46-6.06,2.62,5.43,4.64,5.21,1.43-5.85,3.46-6.06,2.62,5.43,4.64,5.21,1.43-5.85,3.46-6.06,2.62,5.43,4.64,5.21,1.43-5.85,3.46-6.06,2.62,5.43,4.64,5.21,1.43-5.85,3.46-6.06,2.62,5.43,4.64,5.21,1.43-5.85,3.46-6.06,2.62,5.43,4.64,5.21,1.43-5.85,3.46-6.06,2.62,5.43,4.64,5.21,1.43-5.85,3.46-6.06,2.62,5.43,4.64,5.21,1.43-5.85,3.46-6.06,2.62,5.43,4.64,5.21,1.43-5.85,3.46-6.06,2.62,5.43,4.65,5.21,1.43-5.85,3.46-6.06,2.62,5.43,4.65,5.21,1.43-5.85,3.46-6.06,2.62,5.43,4.65,5.21,1.43-5.85,3.46-6.06,2.62,5.42,4.65,5.21.33-3.89,1.81-5.3c1.14-1.08,4.61.2,4.44-1.36s-5.8-.97-5.97-2.53,5.47-2.15,5.31-3.72-5.8-.97-5.97-2.53,5.47-2.15,5.31-3.71-5.8-.97-5.97-2.53,5.47-2.15,5.31-3.71-5.8-.97-5.97-2.53,5.47-2.15,5.31-3.71-5.8-.97-5.97-2.53,5.47-2.15,5.31-3.72-5.8-.97-5.97-2.53,5.47-2.15,5.31-3.71-5.8-.97-5.97-2.53,5.47-2.15,5.31-3.71-5.8-.97-5.97-2.53,5.47-2.15,5.31-3.72-5.8-.97-5.97-2.53,5.47-2.15,5.31-3.71-5.8-.97-5.97-2.53,5.47-2.16,5.31-3.72-5.8-.97-5.97-2.53,5.47-2.15,5.31-3.72-5.8-.97-5.97-2.53,5.47-2.16,5.31-3.72-5.8-.97-5.97-2.53,5.47-2.15,5.31-3.72-5.8-.97-5.97-2.53,5.47-2.15,5.31-3.72-5.8-.97-5.97-2.53,5.47-2.15,5.31-3.72-5.8-.97-5.97-2.53,5.47-2.15,5.31-3.72-5.8-.97-5.97-2.53,5.47-2.15,5.31-3.71-5.8-.97-5.97-2.53,5.47-2.15,5.31-3.71-5.8-.97-5.97-2.53,5.47-2.15,5.31-3.72-5.8-.97-5.97-2.53,5.47-2.16,5.31-3.72-5.8-.97-5.97-2.53,5.47-2.16,5.31-3.72-5.8-.97-5.97-2.54,5.47-2.15,5.31-3.72-5.8-.97-5.97-2.54,5.47-2.16,5.31-3.72-5.8-.97-5.97-2.54,5.64-2.64,5.23-4.16c-.26-.96-3.22.84-4.56,0Z"/>
    <rect id="board" class="cls-5" x="58.68" y="61.43" width="203.59" height="157.06" rx="6.63" ry="6.63" transform="translate(-13.75 17.54) rotate(-6)"/>
    <g id="prickar">
      <g>
        <ellipse class="cls-4" cx="75.56" cy="220.06" rx="4.65" ry="4.72" transform="translate(-22.59 9.1) rotate(-6)"/>
        <ellipse class="cls-4" cx="84.8" cy="219.09" rx="4.65" ry="4.72" transform="translate(-22.44 10.06) rotate(-6)"/>
        <ellipse class="cls-4" cx="94.05" cy="218.12" rx="4.65" ry="4.72" transform="translate(-22.28 11.02) rotate(-6)"/>
        <ellipse class="cls-4" cx="103.29" cy="217.15" rx="4.65" ry="4.72" transform="translate(-22.13 11.99) rotate(-6)"/>
        <ellipse class="cls-4" cx="112.54" cy="216.17" rx="4.65" ry="4.72" transform="translate(-21.98 12.95) rotate(-6)"/>
        <ellipse class="cls-4" cx="121.78" cy="215.2" rx="4.65" ry="4.72" transform="translate(-21.83 13.91) rotate(-6)"/>
        <ellipse class="cls-4" cx="131.03" cy="214.23" rx="4.65" ry="4.72" transform="translate(-21.67 14.87) rotate(-6)"/>
        <ellipse class="cls-4" cx="140.27" cy="213.26" rx="4.65" ry="4.72" transform="translate(-21.52 15.83) rotate(-6)"/>
        <ellipse class="cls-4" cx="149.52" cy="212.29" rx="4.65" ry="4.72" transform="translate(-21.37 16.79) rotate(-6)"/>
        <ellipse class="cls-4" cx="158.76" cy="211.32" rx="4.65" ry="4.72" transform="translate(-21.22 17.75) rotate(-6)"/>
        <ellipse class="cls-4" cx="168.01" cy="210.34" rx="4.65" ry="4.72" transform="translate(-21.07 18.71) rotate(-6)"/>
        <ellipse class="cls-4" cx="177.25" cy="209.37" rx="4.65" ry="4.72" transform="translate(-20.91 19.67) rotate(-6)"/>
        <ellipse class="cls-4" cx="186.5" cy="208.4" rx="4.65" ry="4.72" transform="translate(-20.76 20.63) rotate(-6)"/>
        <ellipse class="cls-4" cx="195.74" cy="207.43" rx="4.65" ry="4.72" transform="translate(-20.61 21.6) rotate(-6)"/>
        <ellipse class="cls-4" cx="204.99" cy="206.46" rx="4.65" ry="4.72" transform="translate(-20.46 22.56) rotate(-6)"/>
        <ellipse class="cls-4" cx="74.57" cy="210.67" rx="4.65" ry="4.72" transform="translate(-21.61 8.95) rotate(-6)"/>
        <ellipse class="cls-4" cx="83.81" cy="209.7" rx="4.65" ry="4.72" transform="translate(-21.46 9.91) rotate(-6)"/>
        <ellipse class="cls-4" cx="93.06" cy="208.73" rx="4.65" ry="4.72" transform="translate(-21.31 10.87) rotate(-6)"/>
        <ellipse class="cls-4" cx="102.3" cy="207.76" rx="4.65" ry="4.72" transform="translate(-21.16 11.83) rotate(-6)"/>
        <ellipse class="cls-4" cx="111.55" cy="206.79" rx="4.65" ry="4.72" transform="translate(-21 12.79) rotate(-6)"/>
        <ellipse class="cls-4" cx="120.79" cy="205.82" rx="4.65" ry="4.72" transform="translate(-20.85 13.75) rotate(-6)"/>
        <ellipse class="cls-4" cx="130.04" cy="204.84" rx="4.65" ry="4.72" transform="translate(-20.7 14.71) rotate(-6)"/>
        <ellipse class="cls-4" cx="139.28" cy="203.87" rx="4.65" ry="4.72" transform="translate(-20.55 15.68) rotate(-6)"/>
        <ellipse class="cls-4" cx="148.53" cy="202.9" rx="4.65" ry="4.72" transform="translate(-20.39 16.64) rotate(-6)"/>
        <ellipse class="cls-4" cx="157.77" cy="201.93" rx="4.65" ry="4.72" transform="translate(-20.24 17.6) rotate(-6)"/>
        <ellipse class="cls-4" cx="167.02" cy="200.96" rx="4.65" ry="4.72" transform="translate(-20.09 18.56) rotate(-6)"/>
        <ellipse class="cls-4" cx="176.26" cy="199.99" rx="4.65" ry="4.72" transform="translate(-19.94 19.52) rotate(-6)"/>
        <ellipse class="cls-4" cx="185.51" cy="199.01" rx="4.65" ry="4.72" transform="translate(-19.79 20.48) rotate(-6)"/>
        <ellipse class="cls-4" cx="194.75" cy="198.04" rx="4.65" ry="4.72" transform="translate(-19.63 21.44) rotate(-6)"/>
        <ellipse class="cls-4" cx="204" cy="197.07" rx="4.65" ry="4.72" transform="translate(-19.48 22.4) rotate(-6)"/>
        <ellipse class="cls-4" cx="73.58" cy="201.29" rx="4.65" ry="4.72" transform="translate(-20.64 8.79) rotate(-6)"/>
        <ellipse class="cls-4" cx="82.83" cy="200.32" rx="4.65" ry="4.72" transform="translate(-20.48 9.75) rotate(-6)"/>
        <ellipse class="cls-4" cx="92.07" cy="199.34" rx="4.65" ry="4.72" transform="translate(-20.33 10.72) rotate(-6)"/>
        <ellipse class="cls-4" cx="101.32" cy="198.37" rx="4.65" ry="4.72" transform="translate(-20.18 11.68) rotate(-6)"/>
        <ellipse class="cls-4" cx="110.56" cy="197.4" rx="4.65" ry="4.72" transform="translate(-20.03 12.64) rotate(-6)"/>
        <ellipse class="cls-4" cx="119.81" cy="196.43" rx="4.65" ry="4.72" transform="translate(-19.88 13.6) rotate(-6)"/>
        <ellipse class="cls-4" cx="129.05" cy="195.46" rx="4.65" ry="4.72" transform="translate(-19.72 14.56) rotate(-6)"/>
        <ellipse class="cls-4" cx="138.3" cy="194.49" rx="4.65" ry="4.72" transform="translate(-19.57 15.52) rotate(-6)"/>
        <ellipse class="cls-4" cx="147.54" cy="193.51" rx="4.65" ry="4.72" transform="translate(-19.42 16.48) rotate(-6)"/>
        <ellipse class="cls-4" cx="156.79" cy="192.54" rx="4.65" ry="4.72" transform="translate(-19.27 17.44) rotate(-6)"/>
        <ellipse class="cls-4" cx="166.03" cy="191.57" rx="4.65" ry="4.72" transform="translate(-19.11 18.4) rotate(-6)"/>
        <ellipse class="cls-4" cx="175.28" cy="190.6" rx="4.65" ry="4.72" transform="translate(-18.96 19.36) rotate(-6)"/>
        <ellipse class="cls-4" cx="184.52" cy="189.63" rx="4.65" ry="4.72" transform="translate(-18.81 20.33) rotate(-6)"/>
        <ellipse class="cls-4" cx="193.77" cy="188.66" rx="4.65" ry="4.72" transform="translate(-18.66 21.29) rotate(-6)"/>
        <ellipse class="cls-4" cx="203.01" cy="187.68" rx="4.65" ry="4.72" transform="translate(-18.51 22.25) rotate(-6)"/>
        <ellipse class="cls-4" cx="72.6" cy="191.9" rx="4.65" ry="4.72" transform="translate(-19.66 8.64) rotate(-6)"/>
        <ellipse class="cls-4" cx="81.84" cy="190.93" rx="4.65" ry="4.72" transform="translate(-19.51 9.6) rotate(-6)"/>
        <ellipse class="cls-4" cx="91.09" cy="189.96" rx="4.65" ry="4.72" transform="translate(-19.36 10.56) rotate(-6)"/>
        <ellipse class="cls-4" cx="100.33" cy="188.99" rx="4.65" ry="4.72" transform="translate(-19.2 11.52) rotate(-6)"/>
        <ellipse class="cls-4" cx="109.58" cy="188.01" rx="4.65" ry="4.72" transform="translate(-19.05 12.48) rotate(-6)"/>
        <ellipse class="cls-4" cx="118.82" cy="187.04" rx="4.65" ry="4.72" transform="translate(-18.9 13.44) rotate(-6)"/>
        <ellipse class="cls-4" cx="128.07" cy="186.07" rx="4.65" ry="4.72" transform="translate(-18.75 14.41) rotate(-6)"/>
        <ellipse class="cls-4" cx="137.31" cy="185.1" rx="4.65" ry="4.72" transform="translate(-18.6 15.37) rotate(-6)"/>
        <ellipse class="cls-4" cx="146.56" cy="184.13" rx="4.65" ry="4.72" transform="translate(-18.44 16.33) rotate(-6)"/>
        <ellipse class="cls-4" cx="155.8" cy="183.16" rx="4.65" ry="4.72" transform="translate(-18.29 17.29) rotate(-6)"/>
        <ellipse class="cls-4" cx="165.05" cy="182.18" rx="4.65" ry="4.72" transform="translate(-18.14 18.25) rotate(-6)"/>
        <ellipse class="cls-4" cx="174.29" cy="181.21" rx="4.65" ry="4.72" transform="translate(-17.99 19.21) rotate(-6)"/>
        <ellipse class="cls-4" cx="183.54" cy="180.24" rx="4.65" ry="4.72" transform="translate(-17.83 20.17) rotate(-6)"/>
        <ellipse class="cls-4" cx="192.78" cy="179.27" rx="4.65" ry="4.72" transform="translate(-17.68 21.13) rotate(-6)"/>
        <ellipse class="cls-4" cx="202.03" cy="178.3" rx="4.65" ry="4.72" transform="translate(-17.53 22.09) rotate(-6)"/>
        <ellipse class="cls-4" cx="71.61" cy="182.51" rx="4.65" ry="4.72" transform="translate(-18.68 8.48) rotate(-6)"/>
        <ellipse class="cls-4" cx="80.85" cy="181.54" rx="4.65" ry="4.72" transform="translate(-18.53 9.45) rotate(-6)"/>
        <ellipse class="cls-4" cx="90.1" cy="180.57" rx="4.65" ry="4.72" transform="translate(-18.38 10.41) rotate(-6)"/>
        <ellipse class="cls-4" cx="99.34" cy="179.6" rx="4.65" ry="4.72" transform="translate(-18.23 11.37) rotate(-6)"/>
        <ellipse class="cls-4" cx="108.59" cy="178.63" rx="4.65" ry="4.72" transform="translate(-18.08 12.33) rotate(-6)"/>
        <ellipse class="cls-4" cx="117.83" cy="177.66" rx="4.65" ry="4.72" transform="translate(-17.92 13.29) rotate(-6)"/>
        <ellipse class="cls-4" cx="127.08" cy="176.68" rx="4.65" ry="4.72" transform="translate(-17.77 14.25) rotate(-6)"/>
        <ellipse class="cls-4" cx="136.32" cy="175.71" rx="4.65" ry="4.72" transform="translate(-17.62 15.21) rotate(-6)"/>
        <ellipse class="cls-4" cx="145.57" cy="174.74" rx="4.65" ry="4.72" transform="translate(-17.47 16.17) rotate(-6)"/>
        <ellipse class="cls-4" cx="154.81" cy="173.77" rx="4.65" ry="4.72" transform="translate(-17.31 17.13) rotate(-6)"/>
        <ellipse class="cls-4" cx="164.06" cy="172.8" rx="4.65" ry="4.72" transform="translate(-17.16 18.09) rotate(-6)"/>
        <ellipse class="cls-4" cx="173.3" cy="171.83" rx="4.65" ry="4.72" transform="translate(-17.01 19.06) rotate(-6)"/>
        <ellipse class="cls-4" cx="182.55" cy="170.85" rx="4.65" ry="4.72" transform="translate(-16.86 20.02) rotate(-6)"/>
        <ellipse class="cls-4" cx="191.79" cy="169.88" rx="4.65" ry="4.72" transform="translate(-16.71 20.98) rotate(-6)"/>
        <ellipse class="cls-4" cx="201.04" cy="168.91" rx="4.65" ry="4.72" transform="translate(-16.55 21.94) rotate(-6)"/>
        <ellipse class="cls-4" cx="70.62" cy="173.13" rx="4.65" ry="4.72" transform="translate(-17.71 8.33) rotate(-6)"/>
        <ellipse class="cls-4" cx="79.87" cy="172.16" rx="4.65" ry="4.72" transform="translate(-17.56 9.29) rotate(-6)"/>
        <ellipse class="cls-4" cx="89.11" cy="171.18" rx="4.65" ry="4.72" transform="translate(-17.4 10.25) rotate(-6)"/>
        <ellipse class="cls-4" cx="98.36" cy="170.21" rx="4.65" ry="4.72" transform="translate(-17.25 11.21) rotate(-6)"/>
        <ellipse class="cls-4" cx="107.6" cy="169.24" rx="4.65" ry="4.72" transform="translate(-17.1 12.17) rotate(-6)"/>
        <ellipse class="cls-4" cx="116.85" cy="168.27" rx="4.65" ry="4.72" transform="translate(-16.95 13.14) rotate(-6)"/>
        <ellipse class="cls-4" cx="126.09" cy="167.3" rx="4.65" ry="4.72" transform="translate(-16.8 14.1) rotate(-6)"/>
        <ellipse class="cls-4" cx="135.34" cy="166.33" rx="4.65" ry="4.72" transform="translate(-16.64 15.06) rotate(-6)"/>
        <ellipse class="cls-4" cx="144.58" cy="165.35" rx="4.65" ry="4.72" transform="translate(-16.49 16.02) rotate(-6)"/>
        <ellipse class="cls-4" cx="153.83" cy="164.38" rx="4.65" ry="4.72" transform="translate(-16.34 16.98) rotate(-6)"/>
        <ellipse class="cls-4" cx="163.07" cy="163.41" rx="4.65" ry="4.72" transform="translate(-16.19 17.94) rotate(-6)"/>
        <ellipse class="cls-4" cx="172.32" cy="162.44" rx="4.65" ry="4.72" transform="translate(-16.03 18.9) rotate(-6)"/>
        <ellipse class="cls-4" cx="181.56" cy="161.47" rx="4.65" ry="4.72" transform="translate(-15.88 19.86) rotate(-6)"/>
        <ellipse class="cls-4" cx="190.81" cy="160.5" rx="4.65" ry="4.72" transform="translate(-15.73 20.82) rotate(-6)"/>
        <ellipse class="cls-4" cx="200.05" cy="159.52" rx="4.65" ry="4.72" transform="translate(-15.58 21.78) rotate(-6)"/>
        <ellipse class="cls-4" cx="69.64" cy="163.74" rx="4.65" ry="4.72" transform="translate(-16.73 8.18) rotate(-6)"/>
        <ellipse class="cls-4" cx="78.88" cy="162.77" rx="4.65" ry="4.72" transform="translate(-16.58 9.14) rotate(-6)"/>
        <ellipse class="cls-4" cx="88.13" cy="161.8" rx="4.65" ry="4.72" transform="translate(-16.43 10.1) rotate(-6)"/>
        <ellipse class="cls-4" cx="97.37" cy="160.83" rx="4.65" ry="4.72" transform="translate(-16.28 11.06) rotate(-6)"/>
        <ellipse class="cls-4" cx="106.62" cy="159.85" rx="4.65" ry="4.72" transform="translate(-16.12 12.02) rotate(-6)"/>
        <ellipse class="cls-4" cx="115.86" cy="158.88" rx="4.65" ry="4.72" transform="translate(-15.97 12.98) rotate(-6)"/>
        <ellipse class="cls-4" cx="125.11" cy="157.91" rx="4.65" ry="4.72" transform="translate(-15.82 13.94) rotate(-6)"/>
        <ellipse class="cls-4" cx="134.35" cy="156.94" rx="4.65" ry="4.72" transform="translate(-15.67 14.9) rotate(-6)"/>
        <ellipse class="cls-4" cx="143.6" cy="155.97" rx="4.65" ry="4.72" transform="translate(-15.52 15.86) rotate(-6)"/>
        <ellipse class="cls-4" cx="152.84" cy="155" rx="4.65" ry="4.72" transform="translate(-15.36 16.82) rotate(-6)"/>
        <ellipse class="cls-4" cx="162.09" cy="154.02" rx="4.65" ry="4.72" transform="translate(-15.21 17.79) rotate(-6)"/>
        <ellipse class="cls-4" cx="171.33" cy="153.05" rx="4.65" ry="4.72" transform="translate(-15.06 18.75) rotate(-6)"/>
        <ellipse class="cls-4" cx="180.58" cy="152.08" rx="4.65" ry="4.72" transform="translate(-14.91 19.71) rotate(-6)"/>
        <ellipse class="cls-4" cx="189.82" cy="151.11" rx="4.65" ry="4.72" transform="translate(-14.75 20.67) rotate(-6)"/>
        <ellipse class="cls-4" cx="199.07" cy="150.14" rx="4.65" ry="4.72" transform="translate(-14.6 21.63) rotate(-6)"/>
        <ellipse class="cls-4" cx="68.65" cy="154.35" rx="4.65" ry="4.72" transform="translate(-15.76 8.02) rotate(-6)"/>
        <ellipse class="cls-4" cx="77.9" cy="153.38" rx="4.65" ry="4.72" transform="translate(-15.61 8.98) rotate(-6)"/>
        <ellipse class="cls-4" cx="87.14" cy="152.41" rx="4.65" ry="4.72" transform="translate(-15.45 9.94) rotate(-6)"/>
        <ellipse class="cls-4" cx="96.39" cy="151.44" rx="4.65" ry="4.72" transform="translate(-15.3 10.9) rotate(-6)"/>
        <ellipse class="cls-4" cx="105.63" cy="150.47" rx="4.65" ry="4.72" transform="translate(-15.15 11.86) rotate(-6)"/>
        <ellipse class="cls-4" cx="114.88" cy="149.5" rx="4.65" ry="4.72" transform="translate(-15 12.83) rotate(-6)"/>
        <ellipse class="cls-4" cx="124.12" cy="148.52" rx="4.65" ry="4.72" transform="translate(-14.84 13.79) rotate(-6)"/>
        <ellipse class="cls-4" cx="133.37" cy="147.55" rx="4.65" ry="4.72" transform="translate(-14.69 14.75) rotate(-6)"/>
        <ellipse class="cls-4" cx="142.61" cy="146.58" rx="4.65" ry="4.72" transform="translate(-14.54 15.71) rotate(-6)"/>
        <ellipse class="cls-4" cx="151.85" cy="145.61" rx="4.65" ry="4.72" transform="translate(-14.39 16.67) rotate(-6)"/>
        <ellipse class="cls-4" cx="161.1" cy="144.64" rx="4.65" ry="4.72" transform="translate(-14.24 17.63) rotate(-6)"/>
        <ellipse class="cls-4" cx="170.34" cy="143.67" rx="4.65" ry="4.72" transform="translate(-14.08 18.59) rotate(-6)"/>
        <ellipse class="cls-4" cx="179.59" cy="142.69" rx="4.65" ry="4.72" transform="translate(-13.93 19.55) rotate(-6)"/>
        <ellipse class="cls-4" cx="188.83" cy="141.72" rx="4.65" ry="4.72" transform="translate(-13.78 20.51) rotate(-6)"/>
        <ellipse class="cls-4" cx="198.08" cy="140.75" rx="4.65" ry="4.72" transform="translate(-13.63 21.47) rotate(-6)"/>
        <ellipse class="cls-4" cx="67.66" cy="144.97" rx="4.65" ry="4.72" transform="translate(-14.78 7.87) rotate(-6)"/>
        <ellipse class="cls-4" cx="76.91" cy="144" rx="4.65" ry="4.72" transform="translate(-14.63 8.83) rotate(-6)"/>
        <ellipse class="cls-4" cx="86.15" cy="143.02" rx="4.65" ry="4.72" transform="translate(-14.48 9.79) rotate(-6)"/>
        <ellipse class="cls-4" cx="95.4" cy="142.05" rx="4.65" ry="4.72" transform="translate(-14.33 10.75) rotate(-6)"/>
        <ellipse class="cls-4" cx="104.64" cy="141.08" rx="4.65" ry="4.72" transform="translate(-14.17 11.71) rotate(-6)"/>
        <ellipse class="cls-4" cx="113.89" cy="140.11" rx="4.65" ry="4.72" transform="translate(-14.02 12.67) rotate(-6)"/>
        <ellipse class="cls-4" cx="123.13" cy="139.14" rx="4.65" ry="4.72" transform="translate(-13.87 13.63) rotate(-6)"/>
        <ellipse class="cls-4" cx="132.38" cy="138.17" rx="4.65" ry="4.72" transform="translate(-13.72 14.59) rotate(-6)"/>
        <ellipse class="cls-4" cx="141.62" cy="137.19" rx="4.65" ry="4.72" transform="translate(-13.56 15.55) rotate(-6)"/>
        <ellipse class="cls-4" cx="150.87" cy="136.22" rx="4.65" ry="4.72" transform="translate(-13.41 16.52) rotate(-6)"/>
        <ellipse class="cls-4" cx="160.11" cy="135.25" rx="4.65" ry="4.72" transform="translate(-13.26 17.48) rotate(-6)"/>
        <ellipse class="cls-4" cx="169.36" cy="134.28" rx="4.65" ry="4.72" transform="translate(-13.11 18.44) rotate(-6)"/>
        <ellipse class="cls-4" cx="178.6" cy="133.31" rx="4.65" ry="4.72" transform="translate(-12.96 19.4) rotate(-6)"/>
        <ellipse class="cls-4" cx="187.85" cy="132.34" rx="4.65" ry="4.72" transform="translate(-12.8 20.36) rotate(-6)"/>
        <ellipse class="cls-4" cx="197.09" cy="131.37" rx="4.65" ry="4.72" transform="translate(-12.65 21.32) rotate(-6)"/>
        <ellipse class="cls-4" cx="66.68" cy="135.58" rx="4.65" ry="4.72" transform="translate(-13.81 7.71) rotate(-6)"/>
        <ellipse class="cls-4" cx="75.92" cy="134.61" rx="4.65" ry="4.72" transform="translate(-13.65 8.67) rotate(-6)"/>
        <ellipse class="cls-4" cx="85.17" cy="133.64" rx="4.65" ry="4.72" transform="translate(-13.5 9.63) rotate(-6)"/>
        <ellipse class="cls-4" cx="94.41" cy="132.67" rx="4.65" ry="4.72" transform="translate(-13.35 10.59) rotate(-6)"/>
        <ellipse class="cls-4" cx="103.66" cy="131.69" rx="4.65" ry="4.72" transform="translate(-13.2 11.56) rotate(-6)"/>
        <ellipse class="cls-4" cx="112.9" cy="130.72" rx="4.65" ry="4.72" transform="translate(-13.05 12.52) rotate(-6)"/>
        <ellipse class="cls-4" cx="122.15" cy="129.75" rx="4.65" ry="4.72" transform="translate(-12.89 13.48) rotate(-6)"/>
        <ellipse class="cls-4" cx="131.39" cy="128.78" rx="4.65" ry="4.72" transform="translate(-12.74 14.44) rotate(-6)"/>
        <ellipse class="cls-4" cx="140.64" cy="127.81" rx="4.65" ry="4.72" transform="translate(-12.59 15.4) rotate(-6)"/>
        <ellipse class="cls-4" cx="149.88" cy="126.84" rx="4.65" ry="4.72" transform="translate(-12.44 16.36) rotate(-6)"/>
        <ellipse class="cls-4" cx="159.13" cy="125.86" rx="4.65" ry="4.72" transform="translate(-12.28 17.32) rotate(-6)"/>
        <ellipse class="cls-4" cx="168.37" cy="124.89" rx="4.65" ry="4.72" transform="translate(-12.13 18.28) rotate(-6)"/>
        <ellipse class="cls-4" cx="177.62" cy="123.92" rx="4.65" ry="4.72" transform="translate(-11.98 19.24) rotate(-6)"/>
        <ellipse class="cls-4" cx="186.86" cy="122.95" rx="4.65" ry="4.72" transform="translate(-11.83 20.2) rotate(-6)"/>
        <ellipse class="cls-4" cx="196.11" cy="121.98" rx="4.65" ry="4.72" transform="translate(-11.68 21.17) rotate(-6)"/>
        <ellipse class="cls-4" cx="65.69" cy="126.19" rx="4.65" ry="4.72" transform="translate(-12.83 7.56) rotate(-6)"/>
        <ellipse class="cls-4" cx="74.94" cy="125.22" rx="4.65" ry="4.72" transform="translate(-12.68 8.52) rotate(-6)"/>
        <ellipse class="cls-4" cx="84.18" cy="124.25" rx="4.65" ry="4.72" transform="translate(-12.53 9.48) rotate(-6)"/>
        <ellipse class="cls-4" cx="93.43" cy="123.28" rx="4.65" ry="4.72" transform="translate(-12.37 10.44) rotate(-6)"/>
        <ellipse class="cls-4" cx="102.67" cy="122.31" rx="4.65" ry="4.72" transform="translate(-12.22 11.4) rotate(-6)"/>
        <ellipse class="cls-4" cx="111.92" cy="121.34" rx="4.65" ry="4.72" transform="translate(-12.07 12.36) rotate(-6)"/>
        <ellipse class="cls-4" cx="121.16" cy="120.36" rx="4.65" ry="4.72" transform="translate(-11.92 13.32) rotate(-6)"/>
        <ellipse class="cls-4" cx="130.41" cy="119.39" rx="4.65" ry="4.72" transform="translate(-11.77 14.28) rotate(-6)"/>
        <ellipse class="cls-4" cx="139.65" cy="118.42" rx="4.65" ry="4.72" transform="translate(-11.61 15.25) rotate(-6)"/>
        <ellipse class="cls-4" cx="148.9" cy="117.45" rx="4.65" ry="4.72" transform="translate(-11.46 16.21) rotate(-6)"/>
        <ellipse class="cls-4" cx="158.14" cy="116.48" rx="4.65" ry="4.72" transform="translate(-11.31 17.17) rotate(-6)"/>
        <ellipse class="cls-4" cx="167.39" cy="115.51" rx="4.65" ry="4.72" transform="translate(-11.16 18.13) rotate(-6)"/>
        <ellipse class="cls-4" cx="176.63" cy="114.54" rx="4.65" ry="4.72" transform="translate(-11 19.09) rotate(-6)"/>
        <ellipse class="cls-4" cx="185.88" cy="113.56" rx="4.65" ry="4.72" transform="translate(-10.85 20.05) rotate(-6)"/>
        <ellipse class="cls-4" cx="195.12" cy="112.59" rx="4.65" ry="4.72" transform="translate(-10.7 21.01) rotate(-6)"/>
        <ellipse class="cls-4" cx="64.7" cy="116.81" rx="4.65" ry="4.72" transform="translate(-11.85 7.4) rotate(-6)"/>
        <ellipse class="cls-4" cx="73.95" cy="115.84" rx="4.65" ry="4.72" transform="translate(-11.7 8.36) rotate(-6)"/>
        <ellipse class="cls-4" cx="83.19" cy="114.86" rx="4.65" ry="4.72" transform="translate(-11.55 9.32) rotate(-6)"/>
        <ellipse class="cls-4" cx="92.44" cy="113.89" rx="4.65" ry="4.72" transform="translate(-11.4 10.29) rotate(-6)"/>
        <ellipse class="cls-4" cx="101.68" cy="112.92" rx="4.65" ry="4.72" transform="translate(-11.25 11.25) rotate(-6)"/>
        <ellipse class="cls-4" cx="110.93" cy="111.95" rx="4.65" ry="4.72" transform="translate(-11.09 12.21) rotate(-6)"/>
        <ellipse class="cls-4" cx="120.17" cy="110.98" rx="4.65" ry="4.72" transform="translate(-10.94 13.17) rotate(-6)"/>
        <ellipse class="cls-4" cx="129.42" cy="110.01" rx="4.65" ry="4.72" transform="translate(-10.79 14.13) rotate(-6)"/>
        <ellipse class="cls-4" cx="138.66" cy="109.04" rx="4.65" ry="4.72" transform="translate(-10.64 15.09) rotate(-6)"/>
        <ellipse class="cls-4" cx="147.91" cy="108.06" rx="4.65" ry="4.72" transform="translate(-10.48 16.05) rotate(-6)"/>
        <ellipse class="cls-4" cx="157.15" cy="107.09" rx="4.65" ry="4.72" transform="translate(-10.33 17.01) rotate(-6)"/>
        <ellipse class="cls-4" cx="166.4" cy="106.12" rx="4.65" ry="4.72" transform="translate(-10.18 17.97) rotate(-6)"/>
        <ellipse class="cls-4" cx="175.64" cy="105.15" rx="4.65" ry="4.72" transform="translate(-10.03 18.93) rotate(-6)"/>
        <ellipse class="cls-4" cx="184.89" cy="104.18" rx="4.65" ry="4.72" transform="translate(-9.88 19.9) rotate(-6)"/>
        <ellipse class="cls-4" cx="194.13" cy="103.21" rx="4.65" ry="4.72" transform="translate(-9.72 20.86) rotate(-6)"/>
        <ellipse class="cls-4" cx="63.72" cy="107.42" rx="4.65" ry="4.72" transform="translate(-10.88 7.25) rotate(-6)"/>
        <ellipse class="cls-4" cx="72.96" cy="106.45" rx="4.65" ry="4.72" transform="translate(-10.73 8.21) rotate(-6)"/>
        <ellipse class="cls-4" cx="82.21" cy="105.48" rx="4.65" ry="4.72" transform="translate(-10.57 9.17) rotate(-6)"/>
        <ellipse class="cls-4" cx="91.45" cy="104.51" rx="4.65" ry="4.72" transform="translate(-10.42 10.13) rotate(-6)"/>
        <ellipse class="cls-4" cx="100.7" cy="103.53" rx="4.65" ry="4.72" transform="translate(-10.27 11.09) rotate(-6)"/>
        <ellipse class="cls-4" cx="109.94" cy="102.56" rx="4.65" ry="4.72" transform="translate(-10.12 12.05) rotate(-6)"/>
        <ellipse class="cls-4" cx="119.19" cy="101.59" rx="4.65" ry="4.72" transform="translate(-9.97 13.01) rotate(-6)"/>
        <ellipse class="cls-4" cx="128.43" cy="100.62" rx="4.65" ry="4.72" transform="translate(-9.81 13.98) rotate(-6)"/>
        <ellipse class="cls-4" cx="137.68" cy="99.65" rx="4.65" ry="4.72" transform="translate(-9.66 14.94) rotate(-6)"/>
        <ellipse class="cls-4" cx="146.92" cy="98.68" rx="4.65" ry="4.72" transform="translate(-9.51 15.9) rotate(-6)"/>
        <ellipse class="cls-4" cx="156.17" cy="97.71" rx="4.65" ry="4.72" transform="translate(-9.36 16.86) rotate(-6)"/>
        <ellipse class="cls-4" cx="165.41" cy="96.73" rx="4.65" ry="4.72" transform="translate(-9.2 17.82) rotate(-6)"/>
        <ellipse class="cls-4" cx="174.66" cy="95.76" rx="4.65" ry="4.72" transform="translate(-9.05 18.78) rotate(-6)"/>
        <ellipse class="cls-4" cx="183.9" cy="94.79" rx="4.65" ry="4.72" transform="translate(-8.9 19.74) rotate(-6)"/>
        <ellipse class="cls-4" cx="193.15" cy="93.82" rx="4.65" ry="4.72" transform="translate(-8.75 20.7) rotate(-6)"/>
        <ellipse class="cls-4" cx="62.73" cy="98.03" rx="4.65" ry="4.72" transform="translate(-9.9 7.09) rotate(-6)"/>
        <ellipse class="cls-4" cx="71.98" cy="97.06" rx="4.65" ry="4.72" transform="translate(-9.75 8.05) rotate(-6)"/>
        <ellipse class="cls-4" cx="81.22" cy="96.09" rx="4.65" ry="4.72" transform="translate(-9.6 9.02) rotate(-6)"/>
        <ellipse class="cls-4" cx="90.47" cy="95.12" rx="4.65" ry="4.72" transform="translate(-9.45 9.98) rotate(-6)"/>
        <ellipse class="cls-4" cx="99.71" cy="94.15" rx="4.65" ry="4.72" transform="translate(-9.29 10.94) rotate(-6)"/>
        <ellipse class="cls-4" cx="108.96" cy="93.18" rx="4.65" ry="4.72" transform="translate(-9.14 11.9) rotate(-6)"/>
        <ellipse class="cls-4" cx="118.2" cy="92.21" rx="4.65" ry="4.72" transform="translate(-8.99 12.86) rotate(-6)"/>
        <ellipse class="cls-4" cx="127.45" cy="91.23" rx="4.65" ry="4.72" transform="translate(-8.84 13.82) rotate(-6)"/>
        <ellipse class="cls-4" cx="136.69" cy="90.26" rx="4.65" ry="4.72" transform="translate(-8.69 14.78) rotate(-6)"/>
        <ellipse class="cls-4" cx="145.94" cy="89.29" rx="4.65" ry="4.72" transform="translate(-8.53 15.74) rotate(-6)"/>
        <ellipse class="cls-4" cx="155.18" cy="88.32" rx="4.65" ry="4.72" transform="translate(-8.38 16.7) rotate(-6)"/>
        <ellipse class="cls-4" cx="164.43" cy="87.35" rx="4.65" ry="4.72" transform="translate(-8.23 17.66) rotate(-6)"/>
        <ellipse class="cls-4" cx="173.67" cy="86.38" rx="4.65" ry="4.72" transform="translate(-8.08 18.63) rotate(-6)"/>
        <ellipse class="cls-4" cx="182.92" cy="85.4" rx="4.65" ry="4.72" transform="translate(-7.92 19.59) rotate(-6)"/>
        <ellipse class="cls-4" cx="192.16" cy="84.43" rx="4.65" ry="4.72" transform="translate(-7.77 20.55) rotate(-6)"/>
      </g>
      <ellipse class="cls-4" cx="214.48" cy="205.46" rx="4.65" ry="4.72" transform="translate(-20.3 23.54) rotate(-6)"/>
      <ellipse class="cls-4" cx="223.73" cy="204.49" rx="4.65" ry="4.72" transform="translate(-20.15 24.5) rotate(-6)"/>
      <ellipse class="cls-4" cx="232.97" cy="203.52" rx="4.65" ry="4.72" transform="translate(-20 25.47) rotate(-6)"/>
      <ellipse class="cls-4" cx="242.22" cy="202.54" rx="4.65" ry="4.72" transform="translate(-19.84 26.43) rotate(-6)"/>
      <ellipse class="cls-4" cx="251.46" cy="201.57" rx="4.65" ry="4.72" transform="translate(-19.69 27.39) rotate(-6)"/>
      <ellipse class="cls-4" cx="260.71" cy="200.6" rx="4.65" ry="4.72" transform="translate(-19.54 28.35) rotate(-6)"/>
      <ellipse class="cls-4" cx="213.5" cy="196.07" rx="4.65" ry="4.72" transform="translate(-19.32 23.39) rotate(-6)"/>
      <ellipse class="cls-4" cx="222.74" cy="195.1" rx="4.65" ry="4.72" transform="translate(-19.17 24.35) rotate(-6)"/>
      <ellipse class="cls-4" cx="231.99" cy="194.13" rx="4.65" ry="4.72" transform="translate(-19.02 25.31) rotate(-6)"/>
      <ellipse class="cls-4" cx="241.23" cy="193.16" rx="4.65" ry="4.72" transform="translate(-18.87 26.27) rotate(-6)"/>
      <ellipse class="cls-4" cx="250.48" cy="192.19" rx="4.65" ry="4.72" transform="translate(-18.72 27.23) rotate(-6)"/>
      <ellipse class="cls-4" cx="259.72" cy="191.21" rx="4.65" ry="4.72" transform="translate(-18.56 28.19) rotate(-6)"/>
      <ellipse class="cls-4" cx="212.51" cy="186.69" rx="4.65" ry="4.72" transform="translate(-18.35 23.23) rotate(-6)"/>
      <ellipse class="cls-4" cx="221.76" cy="185.71" rx="4.65" ry="4.72" transform="translate(-18.2 24.2) rotate(-6)"/>
      <ellipse class="cls-4" cx="231" cy="184.74" rx="4.65" ry="4.72" transform="translate(-18.04 25.16) rotate(-6)"/>
      <ellipse class="cls-4" cx="240.25" cy="183.77" rx="4.65" ry="4.72" transform="translate(-17.89 26.12) rotate(-6)"/>
      <ellipse class="cls-4" cx="249.49" cy="182.8" rx="4.65" ry="4.72" transform="translate(-17.74 27.08) rotate(-6)"/>
      <ellipse class="cls-4" cx="258.74" cy="181.83" rx="4.65" ry="4.72" transform="translate(-17.59 28.04) rotate(-6)"/>
      <ellipse class="cls-4" cx="211.53" cy="177.3" rx="4.65" ry="4.72" transform="translate(-17.37 23.08) rotate(-6)"/>
      <ellipse class="cls-4" cx="220.77" cy="176.33" rx="4.65" ry="4.72" transform="translate(-17.22 24.04) rotate(-6)"/>
      <ellipse class="cls-4" cx="230.02" cy="175.36" rx="4.65" ry="4.72" transform="translate(-17.07 25) rotate(-6)"/>
      <ellipse class="cls-4" cx="239.26" cy="174.38" rx="4.65" ry="4.72" transform="translate(-16.92 25.96) rotate(-6)"/>
      <ellipse class="cls-4" cx="248.51" cy="173.41" rx="4.65" ry="4.72" transform="translate(-16.76 26.92) rotate(-6)"/>
      <ellipse class="cls-4" cx="257.75" cy="172.44" rx="4.65" ry="4.72" transform="translate(-16.61 27.89) rotate(-6)"/>
      <ellipse class="cls-4" cx="210.54" cy="167.91" rx="4.65" ry="4.72" transform="translate(-16.4 22.93) rotate(-6)"/>
      <ellipse class="cls-4" cx="219.78" cy="166.94" rx="4.65" ry="4.72" transform="translate(-16.25 23.89) rotate(-6)"/>
      <ellipse class="cls-4" cx="229.03" cy="165.97" rx="4.65" ry="4.72" transform="translate(-16.09 24.85) rotate(-6)"/>
      <ellipse class="cls-4" cx="238.27" cy="165" rx="4.65" ry="4.72" transform="translate(-15.94 25.81) rotate(-6)"/>
      <ellipse class="cls-4" cx="247.52" cy="164.03" rx="4.65" ry="4.72" transform="translate(-15.79 26.77) rotate(-6)"/>
      <ellipse class="cls-4" cx="256.76" cy="163.05" rx="4.65" ry="4.72" transform="translate(-15.64 27.73) rotate(-6)"/>
      <ellipse class="cls-4" cx="209.55" cy="158.53" rx="4.65" ry="4.72" transform="translate(-15.42 22.77) rotate(-6)"/>
      <ellipse class="cls-4" cx="218.8" cy="157.55" rx="4.65" ry="4.72" transform="translate(-15.27 23.73) rotate(-6)"/>
      <ellipse class="cls-4" cx="228.04" cy="156.58" rx="4.65" ry="4.72" transform="translate(-15.12 24.69) rotate(-6)"/>
      <ellipse class="cls-4" cx="237.29" cy="155.61" rx="4.65" ry="4.72" transform="translate(-14.97 25.65) rotate(-6)"/>
      <ellipse class="cls-4" cx="246.53" cy="154.64" rx="4.65" ry="4.72" transform="translate(-14.81 26.62) rotate(-6)"/>
      <ellipse class="cls-4" cx="255.78" cy="153.67" rx="4.65" ry="4.72" transform="translate(-14.66 27.58) rotate(-6)"/>
      <ellipse class="cls-4" cx="208.57" cy="149.14" rx="4.65" ry="4.72" transform="translate(-14.45 22.62) rotate(-6)"/>
      <ellipse class="cls-4" cx="217.81" cy="148.17" rx="4.65" ry="4.72" transform="translate(-14.29 23.58) rotate(-6)"/>
      <ellipse class="cls-4" cx="227.06" cy="147.2" rx="4.65" ry="4.72" transform="translate(-14.14 24.54) rotate(-6)"/>
      <ellipse class="cls-4" cx="236.3" cy="146.22" rx="4.65" ry="4.72" transform="translate(-13.99 25.5) rotate(-6)"/>
      <ellipse class="cls-4" cx="245.55" cy="145.25" rx="4.65" ry="4.72" transform="translate(-13.84 26.46) rotate(-6)"/>
      <ellipse class="cls-4" cx="254.79" cy="144.28" rx="4.65" ry="4.72" transform="translate(-13.69 27.42) rotate(-6)"/>
      <ellipse class="cls-4" cx="207.58" cy="139.75" rx="4.65" ry="4.72" transform="translate(-13.47 22.46) rotate(-6)"/>
      <ellipse class="cls-4" cx="216.82" cy="138.78" rx="4.65" ry="4.72" transform="translate(-13.32 23.42) rotate(-6)"/>
      <ellipse class="cls-4" cx="226.07" cy="137.81" rx="4.65" ry="4.72" transform="translate(-13.17 24.38) rotate(-6)"/>
      <ellipse class="cls-4" cx="235.31" cy="136.84" rx="4.65" ry="4.72" transform="translate(-13.01 25.35) rotate(-6)"/>
      <ellipse class="cls-4" cx="244.56" cy="135.87" rx="4.65" ry="4.72" transform="translate(-12.86 26.31) rotate(-6)"/>
      <ellipse class="cls-4" cx="253.8" cy="134.9" rx="4.65" ry="4.72" transform="translate(-12.71 27.27) rotate(-6)"/>
      <ellipse class="cls-4" cx="206.59" cy="130.37" rx="4.65" ry="4.72" transform="translate(-12.49 22.31) rotate(-6)"/>
      <ellipse class="cls-4" cx="215.84" cy="129.39" rx="4.65" ry="4.72" transform="translate(-12.34 23.27) rotate(-6)"/>
      <ellipse class="cls-4" cx="225.08" cy="128.42" rx="4.65" ry="4.72" transform="translate(-12.19 24.23) rotate(-6)"/>
      <ellipse class="cls-4" cx="234.33" cy="127.45" rx="4.65" ry="4.72" transform="translate(-12.04 25.19) rotate(-6)"/>
      <ellipse class="cls-4" cx="243.57" cy="126.48" rx="4.65" ry="4.72" transform="translate(-11.89 26.15) rotate(-6)"/>
      <ellipse class="cls-4" cx="252.82" cy="125.51" rx="4.65" ry="4.72" transform="translate(-11.73 27.11) rotate(-6)"/>
      <ellipse class="cls-4" cx="205.61" cy="120.98" rx="4.65" ry="4.72" transform="translate(-11.52 22.15) rotate(-6)"/>
      <ellipse class="cls-4" cx="214.85" cy="120.01" rx="4.65" ry="4.72" transform="translate(-11.37 23.11) rotate(-6)"/>
      <ellipse class="cls-4" cx="224.1" cy="119.04" rx="4.65" ry="4.72" transform="translate(-11.21 24.08) rotate(-6)"/>
      <ellipse class="cls-4" cx="233.34" cy="118.07" rx="4.65" ry="4.72" transform="translate(-11.06 25.04) rotate(-6)"/>
      <ellipse class="cls-4" cx="242.59" cy="117.09" rx="4.65" ry="4.72" transform="translate(-10.91 26) rotate(-6)"/>
      <ellipse class="cls-4" cx="251.83" cy="116.12" rx="4.65" ry="4.72" transform="translate(-10.76 26.96) rotate(-6)"/>
      <ellipse class="cls-4" cx="204.62" cy="111.59" rx="4.65" ry="4.72" transform="translate(-10.54 22) rotate(-6)"/>
      <ellipse class="cls-4" cx="213.86" cy="110.62" rx="4.65" ry="4.72" transform="translate(-10.39 22.96) rotate(-6)"/>
      <ellipse class="cls-4" cx="223.11" cy="109.65" rx="4.65" ry="4.72" transform="translate(-10.24 23.92) rotate(-6)"/>
      <ellipse class="cls-4" cx="232.35" cy="108.68" rx="4.65" ry="4.72" transform="translate(-10.09 24.88) rotate(-6)"/>
      <ellipse class="cls-4" cx="241.6" cy="107.71" rx="4.65" ry="4.72" transform="translate(-9.93 25.84) rotate(-6)"/>
      <ellipse class="cls-4" cx="250.84" cy="106.74" rx="4.65" ry="4.72" transform="translate(-9.78 26.8) rotate(-6)"/>
      <ellipse class="cls-4" cx="203.63" cy="102.21" rx="4.65" ry="4.72" transform="translate(-9.57 21.84) rotate(-6)"/>
      <ellipse class="cls-4" cx="212.88" cy="101.24" rx="4.65" ry="4.72" transform="translate(-9.42 22.81) rotate(-6)"/>
      <ellipse class="cls-4" cx="222.12" cy="100.26" rx="4.65" ry="4.72" transform="translate(-9.26 23.77) rotate(-6)"/>
      <ellipse class="cls-4" cx="231.37" cy="99.29" rx="4.65" ry="4.72" transform="translate(-9.11 24.73) rotate(-6)"/>
      <ellipse class="cls-4" cx="240.61" cy="98.32" rx="4.65" ry="4.72" transform="translate(-8.96 25.69) rotate(-6)"/>
      <ellipse class="cls-4" cx="249.86" cy="97.35" rx="4.65" ry="4.72" transform="translate(-8.81 26.65) rotate(-6)"/>
      <ellipse class="cls-4" cx="202.65" cy="92.82" rx="4.65" ry="4.72" transform="translate(-8.59 21.69) rotate(-6)"/>
      <ellipse class="cls-4" cx="211.89" cy="91.85" rx="4.65" ry="4.72" transform="translate(-8.44 22.65) rotate(-6)"/>
      <ellipse class="cls-4" cx="221.14" cy="90.88" rx="4.65" ry="4.72" transform="translate(-8.29 23.61) rotate(-6)"/>
      <ellipse class="cls-4" cx="230.38" cy="89.91" rx="4.65" ry="4.72" transform="translate(-8.14 24.57) rotate(-6)"/>
      <ellipse class="cls-4" cx="239.63" cy="88.93" rx="4.65" ry="4.72" transform="translate(-7.98 25.53) rotate(-6)"/>
      <ellipse class="cls-4" cx="248.87" cy="87.96" rx="4.65" ry="4.72" transform="translate(-7.83 26.49) rotate(-6)"/>
      <ellipse class="cls-4" cx="201.66" cy="83.43" rx="4.65" ry="4.72" transform="translate(-7.62 21.54) rotate(-6)"/>
      <ellipse class="cls-4" cx="210.91" cy="82.46" rx="4.65" ry="4.72" transform="translate(-7.46 22.5) rotate(-6)"/>
      <ellipse class="cls-4" cx="220.15" cy="81.49" rx="4.65" ry="4.72" transform="translate(-7.31 23.46) rotate(-6)"/>
      <ellipse class="cls-4" cx="229.39" cy="80.52" rx="4.65" ry="4.72" transform="translate(-7.16 24.42) rotate(-6)"/>
      <ellipse class="cls-4" cx="238.64" cy="79.55" rx="4.65" ry="4.72" transform="translate(-7.01 25.38) rotate(-6)"/>
      <ellipse class="cls-4" cx="247.88" cy="78.58" rx="4.65" ry="4.72" transform="translate(-6.86 26.34) rotate(-6)"/>
      <g>
        <g>
          <ellipse class="cls-4" cx="61.76" cy="88.82" rx="4.65" ry="4.72" transform="translate(-8.95 6.94) rotate(-6)"/>
          <ellipse class="cls-4" cx="71.01" cy="87.85" rx="4.65" ry="4.72" transform="translate(-8.79 7.9) rotate(-6)"/>
          <ellipse class="cls-4" cx="80.25" cy="86.88" rx="4.65" ry="4.72" transform="translate(-8.64 8.86) rotate(-6)"/>
          <ellipse class="cls-4" cx="89.5" cy="85.91" rx="4.65" ry="4.72" transform="translate(-8.49 9.83) rotate(-6)"/>
          <ellipse class="cls-4" cx="98.74" cy="84.93" rx="4.65" ry="4.72" transform="translate(-8.34 10.79) rotate(-6)"/>
          <ellipse class="cls-4" cx="107.99" cy="83.96" rx="4.65" ry="4.72" transform="translate(-8.18 11.75) rotate(-6)"/>
          <ellipse class="cls-4" cx="60.78" cy="79.43" rx="4.65" ry="4.72" transform="translate(-7.97 6.79) rotate(-6)"/>
          <ellipse class="cls-4" cx="70.02" cy="78.46" rx="4.65" ry="4.72" transform="translate(-7.82 7.75) rotate(-6)"/>
          <ellipse class="cls-4" cx="79.27" cy="77.49" rx="4.65" ry="4.72" transform="translate(-7.67 8.71) rotate(-6)"/>
          <ellipse class="cls-4" cx="88.51" cy="76.52" rx="4.65" ry="4.72" transform="translate(-7.51 9.67) rotate(-6)"/>
          <ellipse class="cls-4" cx="97.76" cy="75.55" rx="4.65" ry="4.72" transform="translate(-7.36 10.63) rotate(-6)"/>
          <ellipse class="cls-4" cx="107" cy="74.58" rx="4.65" ry="4.72" transform="translate(-7.21 11.59) rotate(-6)"/>
        </g>
        <g>
          <ellipse class="cls-4" cx="117.23" cy="82.99" rx="4.65" ry="4.72" transform="translate(-8.03 12.71) rotate(-6)"/>
          <ellipse class="cls-4" cx="126.48" cy="82.02" rx="4.65" ry="4.72" transform="translate(-7.88 13.67) rotate(-6)"/>
          <ellipse class="cls-4" cx="135.72" cy="81.05" rx="4.65" ry="4.72" transform="translate(-7.73 14.63) rotate(-6)"/>
          <ellipse class="cls-4" cx="144.97" cy="80.08" rx="4.65" ry="4.72" transform="translate(-7.58 15.59) rotate(-6)"/>
          <ellipse class="cls-4" cx="154.21" cy="79.1" rx="4.65" ry="4.72" transform="translate(-7.42 16.55) rotate(-6)"/>
          <ellipse class="cls-4" cx="163.46" cy="78.13" rx="4.65" ry="4.72" transform="translate(-7.27 17.51) rotate(-6)"/>
          <ellipse class="cls-4" cx="116.25" cy="73.6" rx="4.65" ry="4.72" transform="translate(-7.06 12.55) rotate(-6)"/>
          <ellipse class="cls-4" cx="125.49" cy="72.63" rx="4.65" ry="4.72" transform="translate(-6.9 13.51) rotate(-6)"/>
          <ellipse class="cls-4" cx="134.74" cy="71.66" rx="4.65" ry="4.72" transform="translate(-6.75 14.48) rotate(-6)"/>
          <ellipse class="cls-4" cx="143.98" cy="70.69" rx="4.65" ry="4.72" transform="translate(-6.6 15.44) rotate(-6)"/>
          <ellipse class="cls-4" cx="153.23" cy="69.72" rx="4.65" ry="4.72" transform="translate(-6.45 16.4) rotate(-6)"/>
          <ellipse class="cls-4" cx="162.47" cy="68.75" rx="4.65" ry="4.72" transform="translate(-6.3 17.36) rotate(-6)"/>
        </g>
      </g>
      <g>
        <ellipse class="cls-4" cx="172.68" cy="76.99" rx="4.65" ry="4.72" transform="translate(-7.1 18.47) rotate(-6)"/>
        <ellipse class="cls-4" cx="181.93" cy="76.02" rx="4.65" ry="4.72" transform="translate(-6.95 19.43) rotate(-6)"/>
        <ellipse class="cls-4" cx="191.17" cy="75.05" rx="4.65" ry="4.72" transform="translate(-6.8 20.39) rotate(-6)"/>
        <ellipse class="cls-4" cx="200.42" cy="74.07" rx="4.65" ry="4.72" transform="translate(-6.64 21.35) rotate(-6)"/>
        <ellipse class="cls-4" cx="209.66" cy="73.1" rx="4.65" ry="4.72" transform="translate(-6.49 22.32) rotate(-6)"/>
        <ellipse class="cls-4" cx="218.91" cy="72.13" rx="4.65" ry="4.72" transform="translate(-6.34 23.28) rotate(-6)"/>
        <ellipse class="cls-4" cx="171.7" cy="67.6" rx="4.65" ry="4.72" transform="translate(-6.13 18.32) rotate(-6)"/>
        <ellipse class="cls-4" cx="180.94" cy="66.63" rx="4.65" ry="4.72" transform="translate(-5.97 19.28) rotate(-6)"/>
        <ellipse class="cls-4" cx="190.19" cy="65.66" rx="4.65" ry="4.72" transform="translate(-5.82 20.24) rotate(-6)"/>
        <ellipse class="cls-4" cx="199.43" cy="64.69" rx="4.65" ry="4.72" transform="translate(-5.67 21.2) rotate(-6)"/>
        <ellipse class="cls-4" cx="208.68" cy="63.72" rx="4.65" ry="4.72" transform="translate(-5.52 22.16) rotate(-6)"/>
        <ellipse class="cls-4" cx="217.92" cy="62.74" rx="4.65" ry="4.72" transform="translate(-5.36 23.12) rotate(-6)"/>
      </g>
      <ellipse class="cls-4" cx="228.15" cy="71.16" rx="4.65" ry="4.72" transform="translate(-6.19 24.24) rotate(-6)"/>
      <ellipse class="cls-4" cx="237.4" cy="70.19" rx="4.65" ry="4.72" transform="translate(-6.04 25.2) rotate(-6)"/>
      <ellipse class="cls-4" cx="246.64" cy="69.22" rx="4.65" ry="4.72" transform="translate(-5.88 26.16) rotate(-6)"/>
      <ellipse class="cls-4" cx="227.17" cy="61.77" rx="4.65" ry="4.72" transform="translate(-5.21 24.08) rotate(-6)"/>
      <ellipse class="cls-4" cx="236.41" cy="60.8" rx="4.65" ry="4.72" transform="translate(-5.06 25.04) rotate(-6)"/>
      <ellipse class="cls-4" cx="245.66" cy="59.83" rx="4.65" ry="4.72" transform="translate(-4.91 26) rotate(-6)"/>
    </g>
  </g>
  <g>
    <rect class="cls-3" x="28.35" y="33.81" width="220.09" height="174.71" rx="8.85" ry="8.85" transform="translate(-11.91 15.13) rotate(-6)"/>
    <path class="cls-1" d="M229.93,34.83c-1.73-1.07-.83-5.02-2.85-4.8s-1.43,5.85-3.46,6.06-2.62-5.43-4.64-5.21-1.43,5.85-3.45,6.06-2.61-5.43-4.64-5.21-1.43,5.85-3.45,6.06-2.61-5.43-4.64-5.21-1.43,5.85-3.45,6.06-2.62-5.43-4.64-5.21-1.43,5.85-3.46,6.06-2.62-5.43-4.64-5.21-1.43,5.85-3.45,6.06-2.62-5.43-4.64-5.21-1.43,5.85-3.45,6.06-2.62-5.43-4.64-5.21-1.43,5.85-3.46,6.06-2.62-5.43-4.64-5.21-1.43,5.85-3.45,6.06-2.62-5.43-4.64-5.21-1.43,5.85-3.46,6.06-2.62-5.43-4.64-5.21-1.43,5.85-3.46,6.06-2.62-5.43-4.64-5.21-1.43,5.85-3.46,6.06-2.62-5.43-4.64-5.21-1.43,5.85-3.46,6.06-2.62-5.43-4.64-5.21-1.43,5.85-3.46,6.06-2.62-5.43-4.64-5.21-1.43,5.85-3.46,6.06-2.62-5.43-4.64-5.21-1.43,5.85-3.46,6.06-2.62-5.43-4.64-5.21-1.43,5.85-3.46,6.06-2.62-5.43-4.64-5.21-1.43,5.85-3.46,6.06-2.62-5.43-4.64-5.21-1.43,5.85-3.46,6.06-2.62-5.43-4.64-5.21-1.43,5.85-3.46,6.06-2.62-5.43-4.64-5.21-1.43,5.85-3.46,6.06-2.62-5.43-4.65-5.21-1.43,5.85-3.46,6.06-2.62-5.43-4.65-5.21-1.43,5.85-3.46,6.06-2.62-5.43-4.65-5.21-1.43,5.85-3.46,6.06-2.62-5.42-4.65-5.21-.33,3.89-1.81,5.3c-1.14,1.08-4.61-.2-4.44,1.36s5.8.97,5.97,2.53-5.47,2.15-5.31,3.72,5.8.97,5.97,2.53-5.47,2.15-5.31,3.71,5.8.97,5.97,2.53-5.47,2.15-5.31,3.71,5.8.97,5.97,2.53-5.47,2.15-5.31,3.71,5.8.97,5.97,2.53-5.47,2.15-5.31,3.72,5.8.97,5.97,2.53-5.47,2.15-5.31,3.71,5.8.97,5.97,2.53-5.47,2.15-5.31,3.71,5.8.97,5.97,2.53-5.47,2.15-5.31,3.72,5.8.97,5.97,2.53-5.47,2.15-5.31,3.71,5.8.97,5.97,2.53-5.47,2.16-5.31,3.72,5.8.97,5.97,2.53-5.47,2.15-5.31,3.72,5.8.97,5.97,2.53-5.47,2.16-5.31,3.72,5.8.97,5.97,2.53-5.47,2.15-5.31,3.72,5.8.97,5.97,2.53-5.47,2.15-5.31,3.72,5.8.97,5.97,2.53-5.47,2.15-5.31,3.72,5.8.97,5.97,2.53-5.47,2.15-5.31,3.72,5.8.97,5.97,2.53-5.47,2.15-5.31,3.71,5.8.97,5.97,2.53-5.47,2.15-5.31,3.71,5.8.97,5.97,2.53-5.47,2.15-5.31,3.72,5.8.97,5.97,2.53-5.47,2.16-5.31,3.72,5.8.97,5.97,2.53-5.47,2.16-5.31,3.72,5.8.97,5.97,2.54-5.47,2.15-5.31,3.72,5.8.97,5.97,2.54-5.47,2.16-5.31,3.72,5.8.97,5.97,2.54-5.47,2.16-5.31,3.73,3.3-.4,4.64.43c1.73,1.07.83,5.02,2.85,4.8s1.43-5.85,3.46-6.06,2.62,5.43,4.64,5.21,1.43-5.85,3.45-6.06,2.61,5.43,4.64,5.21,1.43-5.85,3.45-6.06,2.61,5.43,4.64,5.21,1.43-5.85,3.45-6.06,2.62,5.43,4.64,5.21,1.43-5.85,3.46-6.06,2.62,5.43,4.64,5.21,1.43-5.85,3.45-6.06,2.62,5.43,4.64,5.21,1.43-5.85,3.45-6.06,2.62,5.43,4.64,5.21,1.43-5.85,3.46-6.06,2.62,5.43,4.64,5.21,1.43-5.85,3.45-6.06,2.62,5.43,4.64,5.21,1.43-5.85,3.46-6.06,2.62,5.43,4.64,5.21,1.43-5.85,3.46-6.06,2.62,5.43,4.64,5.21,1.43-5.85,3.46-6.06,2.62,5.43,4.64,5.21,1.43-5.85,3.46-6.06,2.62,5.43,4.64,5.21,1.43-5.85,3.46-6.06,2.62,5.43,4.64,5.21,1.43-5.85,3.46-6.06,2.62,5.43,4.64,5.21,1.43-5.85,3.46-6.06,2.62,5.43,4.64,5.21,1.43-5.85,3.46-6.06,2.62,5.43,4.64,5.21,1.43-5.85,3.46-6.06,2.62,5.43,4.64,5.21,1.43-5.85,3.46-6.06,2.62,5.43,4.64,5.21,1.43-5.85,3.46-6.06,2.62,5.43,4.64,5.21,1.43-5.85,3.46-6.06,2.62,5.43,4.65,5.21,1.43-5.85,3.46-6.06,2.62,5.43,4.65,5.21,1.43-5.85,3.46-6.06,2.62,5.43,4.65,5.21,1.43-5.85,3.46-6.06,2.62,5.42,4.65,5.21.33-3.89,1.81-5.3c1.14-1.08,4.61.2,4.44-1.36s-5.8-.97-5.97-2.53,5.47-2.15,5.31-3.72-5.8-.97-5.97-2.53,5.47-2.15,5.31-3.71-5.8-.97-5.97-2.53,5.47-2.15,5.31-3.71-5.8-.97-5.97-2.53,5.47-2.15,5.31-3.71-5.8-.97-5.97-2.53,5.47-2.15,5.31-3.72-5.8-.97-5.97-2.53,5.47-2.15,5.31-3.71-5.8-.97-5.97-2.53,5.47-2.15,5.31-3.71-5.8-.97-5.97-2.53,5.47-2.15,5.31-3.72-5.8-.97-5.97-2.53,5.47-2.15,5.31-3.71-5.8-.97-5.97-2.53,5.47-2.16,5.31-3.72-5.8-.97-5.97-2.53,5.47-2.15,5.31-3.72-5.8-.97-5.97-2.53,5.47-2.16,5.31-3.72-5.8-.97-5.97-2.53,5.47-2.15,5.31-3.72-5.8-.97-5.97-2.53,5.47-2.15,5.31-3.72-5.8-.97-5.97-2.53,5.47-2.15,5.31-3.72-5.8-.97-5.97-2.53,5.47-2.15,5.31-3.72-5.8-.97-5.97-2.53,5.47-2.15,5.31-3.71-5.8-.97-5.97-2.53,5.47-2.15,5.31-3.71-5.8-.97-5.97-2.53,5.47-2.15,5.31-3.72-5.8-.97-5.97-2.53,5.47-2.16,5.31-3.72-5.8-.97-5.97-2.53,5.47-2.16,5.31-3.72-5.8-.97-5.97-2.54,5.47-2.15,5.31-3.72-5.8-.97-5.97-2.54,5.47-2.16,5.31-3.72-5.8-.97-5.97-2.54,5.64-2.64,5.23-4.16c-.26-.96-3.22.84-4.56,0Z"/>
    <rect id="board-2" data-name="board" class="cls-5" x="36.6" y="42.63" width="203.59" height="157.06" rx="6.63" ry="6.63" transform="translate(-11.91 15.13) rotate(-6)"/>
    <g id="prickar-2" data-name="prickar">
      <g>
        <ellipse class="cls-4" cx="53.47" cy="201.27" rx="4.65" ry="4.72" transform="translate(-20.74 6.69) rotate(-6)"/>
        <ellipse class="cls-4" cx="62.72" cy="200.3" rx="4.65" ry="4.72" transform="translate(-20.59 7.65) rotate(-6)"/>
        <ellipse class="cls-4" cx="71.96" cy="199.32" rx="4.65" ry="4.72" transform="translate(-20.44 8.61) rotate(-6)"/>
        <ellipse class="cls-4" cx="81.21" cy="198.35" rx="4.65" ry="4.72" transform="translate(-20.29 9.57) rotate(-6)"/>
        <ellipse class="cls-4" cx="90.45" cy="197.38" rx="4.65" ry="4.72" transform="translate(-20.14 10.54) rotate(-6)"/>
        <ellipse class="cls-4" cx="99.7" cy="196.41" rx="4.65" ry="4.72" transform="translate(-19.98 11.5) rotate(-6)"/>
        <ellipse class="cls-4" cx="108.94" cy="195.44" rx="4.65" ry="4.72" transform="translate(-19.83 12.46) rotate(-6)"/>
        <ellipse class="cls-4" cx="118.19" cy="194.47" rx="4.65" ry="4.72" transform="translate(-19.68 13.42) rotate(-6)"/>
        <ellipse class="cls-4" cx="127.43" cy="193.49" rx="4.65" ry="4.72" transform="translate(-19.53 14.38) rotate(-6)"/>
        <ellipse class="cls-4" cx="136.68" cy="192.52" rx="4.65" ry="4.72" transform="translate(-19.37 15.34) rotate(-6)"/>
        <ellipse class="cls-4" cx="145.92" cy="191.55" rx="4.65" ry="4.72" transform="translate(-19.22 16.3) rotate(-6)"/>
        <ellipse class="cls-4" cx="155.17" cy="190.58" rx="4.65" ry="4.72" transform="translate(-19.07 17.26) rotate(-6)"/>
        <ellipse class="cls-4" cx="164.41" cy="189.61" rx="4.65" ry="4.72" transform="translate(-18.92 18.22) rotate(-6)"/>
        <ellipse class="cls-4" cx="173.66" cy="188.64" rx="4.65" ry="4.72" transform="translate(-18.77 19.18) rotate(-6)"/>
        <ellipse class="cls-4" cx="182.9" cy="187.66" rx="4.65" ry="4.72" transform="translate(-18.61 20.15) rotate(-6)"/>
        <ellipse class="cls-4" cx="52.48" cy="191.88" rx="4.65" ry="4.72" transform="translate(-19.77 6.54) rotate(-6)"/>
        <ellipse class="cls-4" cx="61.73" cy="190.91" rx="4.65" ry="4.72" transform="translate(-19.62 7.5) rotate(-6)"/>
        <ellipse class="cls-4" cx="70.97" cy="189.94" rx="4.65" ry="4.72" transform="translate(-19.46 8.46) rotate(-6)"/>
        <ellipse class="cls-4" cx="80.22" cy="188.97" rx="4.65" ry="4.72" transform="translate(-19.31 9.42) rotate(-6)"/>
        <ellipse class="cls-4" cx="89.46" cy="187.99" rx="4.65" ry="4.72" transform="translate(-19.16 10.38) rotate(-6)"/>
        <ellipse class="cls-4" cx="98.71" cy="187.02" rx="4.65" ry="4.72" transform="translate(-19.01 11.34) rotate(-6)"/>
        <ellipse class="cls-4" cx="107.95" cy="186.05" rx="4.65" ry="4.72" transform="translate(-18.86 12.3) rotate(-6)"/>
        <ellipse class="cls-4" cx="117.2" cy="185.08" rx="4.65" ry="4.72" transform="translate(-18.7 13.26) rotate(-6)"/>
        <ellipse class="cls-4" cx="126.44" cy="184.11" rx="4.65" ry="4.72" transform="translate(-18.55 14.22) rotate(-6)"/>
        <ellipse class="cls-4" cx="135.69" cy="183.14" rx="4.65" ry="4.72" transform="translate(-18.4 15.19) rotate(-6)"/>
        <ellipse class="cls-4" cx="144.93" cy="182.16" rx="4.65" ry="4.72" transform="translate(-18.25 16.15) rotate(-6)"/>
        <ellipse class="cls-4" cx="154.18" cy="181.19" rx="4.65" ry="4.72" transform="translate(-18.09 17.11) rotate(-6)"/>
        <ellipse class="cls-4" cx="163.42" cy="180.22" rx="4.65" ry="4.72" transform="translate(-17.94 18.07) rotate(-6)"/>
        <ellipse class="cls-4" cx="172.67" cy="179.25" rx="4.65" ry="4.72" transform="translate(-17.79 19.03) rotate(-6)"/>
        <ellipse class="cls-4" cx="181.91" cy="178.28" rx="4.65" ry="4.72" transform="translate(-17.64 19.99) rotate(-6)"/>
        <ellipse class="cls-4" cx="51.5" cy="182.49" rx="4.65" ry="4.72" transform="translate(-18.79 6.38) rotate(-6)"/>
        <ellipse class="cls-4" cx="60.74" cy="181.52" rx="4.65" ry="4.72" transform="translate(-18.64 7.34) rotate(-6)"/>
        <ellipse class="cls-4" cx="69.99" cy="180.55" rx="4.65" ry="4.72" transform="translate(-18.49 8.3) rotate(-6)"/>
        <ellipse class="cls-4" cx="79.23" cy="179.58" rx="4.65" ry="4.72" transform="translate(-18.34 9.27) rotate(-6)"/>
        <ellipse class="cls-4" cx="88.48" cy="178.61" rx="4.65" ry="4.72" transform="translate(-18.18 10.23) rotate(-6)"/>
        <ellipse class="cls-4" cx="97.72" cy="177.64" rx="4.65" ry="4.72" transform="translate(-18.03 11.19) rotate(-6)"/>
        <ellipse class="cls-4" cx="106.97" cy="176.66" rx="4.65" ry="4.72" transform="translate(-17.88 12.15) rotate(-6)"/>
        <ellipse class="cls-4" cx="116.21" cy="175.69" rx="4.65" ry="4.72" transform="translate(-17.73 13.11) rotate(-6)"/>
        <ellipse class="cls-4" cx="125.46" cy="174.72" rx="4.65" ry="4.72" transform="translate(-17.58 14.07) rotate(-6)"/>
        <ellipse class="cls-4" cx="134.7" cy="173.75" rx="4.65" ry="4.72" transform="translate(-17.42 15.03) rotate(-6)"/>
        <ellipse class="cls-4" cx="143.95" cy="172.78" rx="4.65" ry="4.72" transform="translate(-17.27 15.99) rotate(-6)"/>
        <ellipse class="cls-4" cx="153.19" cy="171.81" rx="4.65" ry="4.72" transform="translate(-17.12 16.95) rotate(-6)"/>
        <ellipse class="cls-4" cx="162.44" cy="170.83" rx="4.65" ry="4.72" transform="translate(-16.97 17.91) rotate(-6)"/>
        <ellipse class="cls-4" cx="171.68" cy="169.86" rx="4.65" ry="4.72" transform="translate(-16.81 18.88) rotate(-6)"/>
        <ellipse class="cls-4" cx="180.93" cy="168.89" rx="4.65" ry="4.72" transform="translate(-16.66 19.84) rotate(-6)"/>
        <ellipse class="cls-4" cx="50.51" cy="173.11" rx="4.65" ry="4.72" transform="translate(-17.82 6.23) rotate(-6)"/>
        <ellipse class="cls-4" cx="59.76" cy="172.14" rx="4.65" ry="4.72" transform="translate(-17.66 7.19) rotate(-6)"/>
        <ellipse class="cls-4" cx="69" cy="171.16" rx="4.65" ry="4.72" transform="translate(-17.51 8.15) rotate(-6)"/>
        <ellipse class="cls-4" cx="78.25" cy="170.19" rx="4.65" ry="4.72" transform="translate(-17.36 9.11) rotate(-6)"/>
        <ellipse class="cls-4" cx="87.49" cy="169.22" rx="4.65" ry="4.72" transform="translate(-17.21 10.07) rotate(-6)"/>
        <ellipse class="cls-4" cx="96.74" cy="168.25" rx="4.65" ry="4.72" transform="translate(-17.06 11.03) rotate(-6)"/>
        <ellipse class="cls-4" cx="105.98" cy="167.28" rx="4.65" ry="4.72" transform="translate(-16.9 11.99) rotate(-6)"/>
        <ellipse class="cls-4" cx="115.23" cy="166.31" rx="4.65" ry="4.72" transform="translate(-16.75 12.95) rotate(-6)"/>
        <ellipse class="cls-4" cx="124.47" cy="165.33" rx="4.65" ry="4.72" transform="translate(-16.6 13.92) rotate(-6)"/>
        <ellipse class="cls-4" cx="133.72" cy="164.36" rx="4.65" ry="4.72" transform="translate(-16.45 14.88) rotate(-6)"/>
        <ellipse class="cls-4" cx="142.96" cy="163.39" rx="4.65" ry="4.72" transform="translate(-16.29 15.84) rotate(-6)"/>
        <ellipse class="cls-4" cx="152.21" cy="162.42" rx="4.65" ry="4.72" transform="translate(-16.14 16.8) rotate(-6)"/>
        <ellipse class="cls-4" cx="161.45" cy="161.45" rx="4.65" ry="4.72" transform="translate(-15.99 17.76) rotate(-6)"/>
        <ellipse class="cls-4" cx="170.7" cy="160.48" rx="4.65" ry="4.72" transform="translate(-15.84 18.72) rotate(-6)"/>
        <ellipse class="cls-4" cx="179.94" cy="159.5" rx="4.65" ry="4.72" transform="translate(-15.69 19.68) rotate(-6)"/>
        <ellipse class="cls-4" cx="49.52" cy="163.72" rx="4.65" ry="4.72" transform="translate(-16.84 6.07) rotate(-6)"/>
        <ellipse class="cls-4" cx="58.77" cy="162.75" rx="4.65" ry="4.72" transform="translate(-16.69 7.03) rotate(-6)"/>
        <ellipse class="cls-4" cx="68.01" cy="161.78" rx="4.65" ry="4.72" transform="translate(-16.54 8) rotate(-6)"/>
        <ellipse class="cls-4" cx="77.26" cy="160.81" rx="4.65" ry="4.72" transform="translate(-16.38 8.96) rotate(-6)"/>
        <ellipse class="cls-4" cx="86.5" cy="159.83" rx="4.65" ry="4.72" transform="translate(-16.23 9.92) rotate(-6)"/>
        <ellipse class="cls-4" cx="95.75" cy="158.86" rx="4.65" ry="4.72" transform="translate(-16.08 10.88) rotate(-6)"/>
        <ellipse class="cls-4" cx="104.99" cy="157.89" rx="4.65" ry="4.72" transform="translate(-15.93 11.84) rotate(-6)"/>
        <ellipse class="cls-4" cx="114.24" cy="156.92" rx="4.65" ry="4.72" transform="translate(-15.78 12.8) rotate(-6)"/>
        <ellipse class="cls-4" cx="123.48" cy="155.95" rx="4.65" ry="4.72" transform="translate(-15.62 13.76) rotate(-6)"/>
        <ellipse class="cls-4" cx="132.73" cy="154.98" rx="4.65" ry="4.72" transform="translate(-15.47 14.72) rotate(-6)"/>
        <ellipse class="cls-4" cx="141.97" cy="154" rx="4.65" ry="4.72" transform="translate(-15.32 15.68) rotate(-6)"/>
        <ellipse class="cls-4" cx="151.22" cy="153.03" rx="4.65" ry="4.72" transform="translate(-15.17 16.64) rotate(-6)"/>
        <ellipse class="cls-4" cx="160.46" cy="152.06" rx="4.65" ry="4.72" transform="translate(-15.01 17.61) rotate(-6)"/>
        <ellipse class="cls-4" cx="169.71" cy="151.09" rx="4.65" ry="4.72" transform="translate(-14.86 18.57) rotate(-6)"/>
        <ellipse class="cls-4" cx="178.95" cy="150.12" rx="4.65" ry="4.72" transform="translate(-14.71 19.53) rotate(-6)"/>
        <ellipse class="cls-4" cx="48.54" cy="154.33" rx="4.65" ry="4.72" transform="translate(-15.87 5.92) rotate(-6)"/>
        <ellipse class="cls-4" cx="57.78" cy="153.36" rx="4.65" ry="4.72" transform="translate(-15.71 6.88) rotate(-6)"/>
        <ellipse class="cls-4" cx="67.03" cy="152.39" rx="4.65" ry="4.72" transform="translate(-15.56 7.84) rotate(-6)"/>
        <ellipse class="cls-4" cx="76.27" cy="151.42" rx="4.65" ry="4.72" transform="translate(-15.41 8.8) rotate(-6)"/>
        <ellipse class="cls-4" cx="85.52" cy="150.45" rx="4.65" ry="4.72" transform="translate(-15.26 9.76) rotate(-6)"/>
        <ellipse class="cls-4" cx="94.76" cy="149.48" rx="4.65" ry="4.72" transform="translate(-15.1 10.72) rotate(-6)"/>
        <ellipse class="cls-4" cx="104.01" cy="148.5" rx="4.65" ry="4.72" transform="translate(-14.95 11.68) rotate(-6)"/>
        <ellipse class="cls-4" cx="113.25" cy="147.53" rx="4.65" ry="4.72" transform="translate(-14.8 12.65) rotate(-6)"/>
        <ellipse class="cls-4" cx="122.5" cy="146.56" rx="4.65" ry="4.72" transform="translate(-14.65 13.61) rotate(-6)"/>
        <ellipse class="cls-4" cx="131.74" cy="145.59" rx="4.65" ry="4.72" transform="translate(-14.5 14.57) rotate(-6)"/>
        <ellipse class="cls-4" cx="140.99" cy="144.62" rx="4.65" ry="4.72" transform="translate(-14.34 15.53) rotate(-6)"/>
        <ellipse class="cls-4" cx="150.23" cy="143.65" rx="4.65" ry="4.72" transform="translate(-14.19 16.49) rotate(-6)"/>
        <ellipse class="cls-4" cx="159.48" cy="142.67" rx="4.65" ry="4.72" transform="translate(-14.04 17.45) rotate(-6)"/>
        <ellipse class="cls-4" cx="168.72" cy="141.7" rx="4.65" ry="4.72" transform="translate(-13.89 18.41) rotate(-6)"/>
        <ellipse class="cls-4" cx="177.97" cy="140.73" rx="4.65" ry="4.72" transform="translate(-13.73 19.37) rotate(-6)"/>
        <ellipse class="cls-4" cx="47.55" cy="144.95" rx="4.65" ry="4.72" transform="translate(-14.89 5.76) rotate(-6)"/>
        <ellipse class="cls-4" cx="56.8" cy="143.98" rx="4.65" ry="4.72" transform="translate(-14.74 6.73) rotate(-6)"/>
        <ellipse class="cls-4" cx="66.04" cy="143" rx="4.65" ry="4.72" transform="translate(-14.59 7.69) rotate(-6)"/>
        <ellipse class="cls-4" cx="75.29" cy="142.03" rx="4.65" ry="4.72" transform="translate(-14.43 8.65) rotate(-6)"/>
        <ellipse class="cls-4" cx="84.53" cy="141.06" rx="4.65" ry="4.72" transform="translate(-14.28 9.61) rotate(-6)"/>
        <ellipse class="cls-4" cx="93.78" cy="140.09" rx="4.65" ry="4.72" transform="translate(-14.13 10.57) rotate(-6)"/>
        <ellipse class="cls-4" cx="103.02" cy="139.12" rx="4.65" ry="4.72" transform="translate(-13.98 11.53) rotate(-6)"/>
        <ellipse class="cls-4" cx="112.27" cy="138.15" rx="4.65" ry="4.72" transform="translate(-13.82 12.49) rotate(-6)"/>
        <ellipse class="cls-4" cx="121.51" cy="137.17" rx="4.65" ry="4.72" transform="translate(-13.67 13.45) rotate(-6)"/>
        <ellipse class="cls-4" cx="130.76" cy="136.2" rx="4.65" ry="4.72" transform="translate(-13.52 14.41) rotate(-6)"/>
        <ellipse class="cls-4" cx="140" cy="135.23" rx="4.65" ry="4.72" transform="translate(-13.37 15.37) rotate(-6)"/>
        <ellipse class="cls-4" cx="149.25" cy="134.26" rx="4.65" ry="4.72" transform="translate(-13.22 16.34) rotate(-6)"/>
        <ellipse class="cls-4" cx="158.49" cy="133.29" rx="4.65" ry="4.72" transform="translate(-13.06 17.3) rotate(-6)"/>
        <ellipse class="cls-4" cx="167.74" cy="132.32" rx="4.65" ry="4.72" transform="translate(-12.91 18.26) rotate(-6)"/>
        <ellipse class="cls-4" cx="176.98" cy="131.34" rx="4.65" ry="4.72" transform="translate(-12.76 19.22) rotate(-6)"/>
        <ellipse class="cls-4" cx="46.56" cy="135.56" rx="4.65" ry="4.72" transform="translate(-13.91 5.61) rotate(-6)"/>
        <ellipse class="cls-4" cx="55.81" cy="134.59" rx="4.65" ry="4.72" transform="translate(-13.76 6.57) rotate(-6)"/>
        <ellipse class="cls-4" cx="65.05" cy="133.62" rx="4.65" ry="4.72" transform="translate(-13.61 7.53) rotate(-6)"/>
        <ellipse class="cls-4" cx="74.3" cy="132.65" rx="4.65" ry="4.72" transform="translate(-13.46 8.49) rotate(-6)"/>
        <ellipse class="cls-4" cx="83.54" cy="131.67" rx="4.65" ry="4.72" transform="translate(-13.31 9.45) rotate(-6)"/>
        <ellipse class="cls-4" cx="92.79" cy="130.7" rx="4.65" ry="4.72" transform="translate(-13.15 10.41) rotate(-6)"/>
        <ellipse class="cls-4" cx="102.03" cy="129.73" rx="4.65" ry="4.72" transform="translate(-13 11.38) rotate(-6)"/>
        <ellipse class="cls-4" cx="111.28" cy="128.76" rx="4.65" ry="4.72" transform="translate(-12.85 12.34) rotate(-6)"/>
        <ellipse class="cls-4" cx="120.52" cy="127.79" rx="4.65" ry="4.72" transform="translate(-12.7 13.3) rotate(-6)"/>
        <ellipse class="cls-4" cx="129.77" cy="126.82" rx="4.65" ry="4.72" transform="translate(-12.54 14.26) rotate(-6)"/>
        <ellipse class="cls-4" cx="139.01" cy="125.84" rx="4.65" ry="4.72" transform="translate(-12.39 15.22) rotate(-6)"/>
        <ellipse class="cls-4" cx="148.26" cy="124.87" rx="4.65" ry="4.72" transform="translate(-12.24 16.18) rotate(-6)"/>
        <ellipse class="cls-4" cx="157.5" cy="123.9" rx="4.65" ry="4.72" transform="translate(-12.09 17.14) rotate(-6)"/>
        <ellipse class="cls-4" cx="166.75" cy="122.93" rx="4.65" ry="4.72" transform="translate(-11.94 18.1) rotate(-6)"/>
        <ellipse class="cls-4" cx="175.99" cy="121.96" rx="4.65" ry="4.72" transform="translate(-11.78 19.06) rotate(-6)"/>
        <ellipse class="cls-4" cx="45.58" cy="126.17" rx="4.65" ry="4.72" transform="translate(-12.94 5.46) rotate(-6)"/>
        <ellipse class="cls-4" cx="54.82" cy="125.2" rx="4.65" ry="4.72" transform="translate(-12.79 6.42) rotate(-6)"/>
        <ellipse class="cls-4" cx="64.07" cy="124.23" rx="4.65" ry="4.72" transform="translate(-12.63 7.38) rotate(-6)"/>
        <ellipse class="cls-4" cx="73.31" cy="123.26" rx="4.65" ry="4.72" transform="translate(-12.48 8.34) rotate(-6)"/>
        <ellipse class="cls-4" cx="82.56" cy="122.29" rx="4.65" ry="4.72" transform="translate(-12.33 9.3) rotate(-6)"/>
        <ellipse class="cls-4" cx="91.8" cy="121.32" rx="4.65" ry="4.72" transform="translate(-12.18 10.26) rotate(-6)"/>
        <ellipse class="cls-4" cx="101.05" cy="120.34" rx="4.65" ry="4.72" transform="translate(-12.03 11.22) rotate(-6)"/>
        <ellipse class="cls-4" cx="110.29" cy="119.37" rx="4.65" ry="4.72" transform="translate(-11.87 12.18) rotate(-6)"/>
        <ellipse class="cls-4" cx="119.54" cy="118.4" rx="4.65" ry="4.72" transform="translate(-11.72 13.14) rotate(-6)"/>
        <ellipse class="cls-4" cx="128.78" cy="117.43" rx="4.65" ry="4.72" transform="translate(-11.57 14.1) rotate(-6)"/>
        <ellipse class="cls-4" cx="138.03" cy="116.46" rx="4.65" ry="4.72" transform="translate(-11.42 15.06) rotate(-6)"/>
        <ellipse class="cls-4" cx="147.27" cy="115.49" rx="4.65" ry="4.72" transform="translate(-11.26 16.03) rotate(-6)"/>
        <ellipse class="cls-4" cx="156.52" cy="114.51" rx="4.65" ry="4.72" transform="translate(-11.11 16.99) rotate(-6)"/>
        <ellipse class="cls-4" cx="165.76" cy="113.54" rx="4.65" ry="4.72" transform="translate(-10.96 17.95) rotate(-6)"/>
        <ellipse class="cls-4" cx="175.01" cy="112.57" rx="4.65" ry="4.72" transform="translate(-10.81 18.91) rotate(-6)"/>
        <ellipse class="cls-4" cx="44.59" cy="116.79" rx="4.65" ry="4.72" transform="translate(-11.96 5.3) rotate(-6)"/>
        <ellipse class="cls-4" cx="53.84" cy="115.82" rx="4.65" ry="4.72" transform="translate(-11.81 6.26) rotate(-6)"/>
        <ellipse class="cls-4" cx="63.08" cy="114.84" rx="4.65" ry="4.72" transform="translate(-11.66 7.22) rotate(-6)"/>
        <ellipse class="cls-4" cx="72.33" cy="113.87" rx="4.65" ry="4.72" transform="translate(-11.51 8.18) rotate(-6)"/>
        <ellipse class="cls-4" cx="81.57" cy="112.9" rx="4.65" ry="4.72" transform="translate(-11.35 9.14) rotate(-6)"/>
        <ellipse class="cls-4" cx="90.82" cy="111.93" rx="4.65" ry="4.72" transform="translate(-11.2 10.11) rotate(-6)"/>
        <ellipse class="cls-4" cx="100.06" cy="110.96" rx="4.65" ry="4.72" transform="translate(-11.05 11.07) rotate(-6)"/>
        <ellipse class="cls-4" cx="109.31" cy="109.99" rx="4.65" ry="4.72" transform="translate(-10.9 12.03) rotate(-6)"/>
        <ellipse class="cls-4" cx="118.55" cy="109.01" rx="4.65" ry="4.72" transform="translate(-10.75 12.99) rotate(-6)"/>
        <ellipse class="cls-4" cx="127.8" cy="108.04" rx="4.65" ry="4.72" transform="translate(-10.59 13.95) rotate(-6)"/>
        <ellipse class="cls-4" cx="137.04" cy="107.07" rx="4.65" ry="4.72" transform="translate(-10.44 14.91) rotate(-6)"/>
        <ellipse class="cls-4" cx="146.29" cy="106.1" rx="4.65" ry="4.72" transform="translate(-10.29 15.87) rotate(-6)"/>
        <ellipse class="cls-4" cx="155.53" cy="105.13" rx="4.65" ry="4.72" transform="translate(-10.14 16.83) rotate(-6)"/>
        <ellipse class="cls-4" cx="164.78" cy="104.16" rx="4.65" ry="4.72" transform="translate(-9.98 17.79) rotate(-6)"/>
        <ellipse class="cls-4" cx="174.02" cy="103.18" rx="4.65" ry="4.72" transform="translate(-9.83 18.75) rotate(-6)"/>
        <ellipse class="cls-4" cx="43.61" cy="107.4" rx="4.65" ry="4.72" transform="translate(-10.99 5.15) rotate(-6)"/>
        <ellipse class="cls-4" cx="52.85" cy="106.43" rx="4.65" ry="4.72" transform="translate(-10.83 6.11) rotate(-6)"/>
        <ellipse class="cls-4" cx="62.09" cy="105.46" rx="4.65" ry="4.72" transform="translate(-10.68 7.07) rotate(-6)"/>
        <ellipse class="cls-4" cx="71.34" cy="104.49" rx="4.65" ry="4.72" transform="translate(-10.53 8.03) rotate(-6)"/>
        <ellipse class="cls-4" cx="80.58" cy="103.51" rx="4.65" ry="4.72" transform="translate(-10.38 8.99) rotate(-6)"/>
        <ellipse class="cls-4" cx="89.83" cy="102.54" rx="4.65" ry="4.72" transform="translate(-10.23 9.95) rotate(-6)"/>
        <ellipse class="cls-4" cx="99.07" cy="101.57" rx="4.65" ry="4.72" transform="translate(-10.07 10.91) rotate(-6)"/>
        <ellipse class="cls-4" cx="108.32" cy="100.6" rx="4.65" ry="4.72" transform="translate(-9.92 11.87) rotate(-6)"/>
        <ellipse class="cls-4" cx="117.56" cy="99.63" rx="4.65" ry="4.72" transform="translate(-9.77 12.83) rotate(-6)"/>
        <ellipse class="cls-4" cx="126.81" cy="98.66" rx="4.65" ry="4.72" transform="translate(-9.62 13.79) rotate(-6)"/>
        <ellipse class="cls-4" cx="136.05" cy="97.68" rx="4.65" ry="4.72" transform="translate(-9.46 14.76) rotate(-6)"/>
        <ellipse class="cls-4" cx="145.3" cy="96.71" rx="4.65" ry="4.72" transform="translate(-9.31 15.72) rotate(-6)"/>
        <ellipse class="cls-4" cx="154.54" cy="95.74" rx="4.65" ry="4.72" transform="translate(-9.16 16.68) rotate(-6)"/>
        <ellipse class="cls-4" cx="163.79" cy="94.77" rx="4.65" ry="4.72" transform="translate(-9.01 17.64) rotate(-6)"/>
        <ellipse class="cls-4" cx="173.03" cy="93.8" rx="4.65" ry="4.72" transform="translate(-8.86 18.6) rotate(-6)"/>
        <ellipse class="cls-4" cx="42.62" cy="98.01" rx="4.65" ry="4.72" transform="translate(-10.01 4.99) rotate(-6)"/>
        <ellipse class="cls-4" cx="51.86" cy="97.04" rx="4.65" ry="4.72" transform="translate(-9.86 5.95) rotate(-6)"/>
        <ellipse class="cls-4" cx="61.11" cy="96.07" rx="4.65" ry="4.72" transform="translate(-9.71 6.91) rotate(-6)"/>
        <ellipse class="cls-4" cx="70.35" cy="95.1" rx="4.65" ry="4.72" transform="translate(-9.55 7.87) rotate(-6)"/>
        <ellipse class="cls-4" cx="79.6" cy="94.13" rx="4.65" ry="4.72" transform="translate(-9.4 8.84) rotate(-6)"/>
        <ellipse class="cls-4" cx="88.84" cy="93.16" rx="4.65" ry="4.72" transform="translate(-9.25 9.8) rotate(-6)"/>
        <ellipse class="cls-4" cx="98.09" cy="92.18" rx="4.65" ry="4.72" transform="translate(-9.1 10.76) rotate(-6)"/>
        <ellipse class="cls-4" cx="107.33" cy="91.21" rx="4.65" ry="4.72" transform="translate(-8.95 11.72) rotate(-6)"/>
        <ellipse class="cls-4" cx="116.58" cy="90.24" rx="4.65" ry="4.72" transform="translate(-8.79 12.68) rotate(-6)"/>
        <ellipse class="cls-4" cx="125.82" cy="89.27" rx="4.65" ry="4.72" transform="translate(-8.64 13.64) rotate(-6)"/>
        <ellipse class="cls-4" cx="135.07" cy="88.3" rx="4.65" ry="4.72" transform="translate(-8.49 14.6) rotate(-6)"/>
        <ellipse class="cls-4" cx="144.31" cy="87.33" rx="4.65" ry="4.72" transform="translate(-8.34 15.56) rotate(-6)"/>
        <ellipse class="cls-4" cx="153.56" cy="86.35" rx="4.65" ry="4.72" transform="translate(-8.18 16.52) rotate(-6)"/>
        <ellipse class="cls-4" cx="162.8" cy="85.38" rx="4.65" ry="4.72" transform="translate(-8.03 17.48) rotate(-6)"/>
        <ellipse class="cls-4" cx="172.05" cy="84.41" rx="4.65" ry="4.72" transform="translate(-7.88 18.45) rotate(-6)"/>
        <ellipse class="cls-4" cx="41.63" cy="88.63" rx="4.65" ry="4.72" transform="translate(-9.04 4.84) rotate(-6)"/>
        <ellipse class="cls-4" cx="50.88" cy="87.66" rx="4.65" ry="4.72" transform="translate(-8.88 5.8) rotate(-6)"/>
        <ellipse class="cls-4" cx="60.12" cy="86.68" rx="4.65" ry="4.72" transform="translate(-8.73 6.76) rotate(-6)"/>
        <ellipse class="cls-4" cx="69.37" cy="85.71" rx="4.65" ry="4.72" transform="translate(-8.58 7.72) rotate(-6)"/>
        <ellipse class="cls-4" cx="78.61" cy="84.74" rx="4.65" ry="4.72" transform="translate(-8.43 8.68) rotate(-6)"/>
        <ellipse class="cls-4" cx="87.86" cy="83.77" rx="4.65" ry="4.72" transform="translate(-8.27 9.64) rotate(-6)"/>
        <ellipse class="cls-4" cx="97.1" cy="82.8" rx="4.65" ry="4.72" transform="translate(-8.12 10.6) rotate(-6)"/>
        <ellipse class="cls-4" cx="106.35" cy="81.83" rx="4.65" ry="4.72" transform="translate(-7.97 11.56) rotate(-6)"/>
        <ellipse class="cls-4" cx="115.59" cy="80.85" rx="4.65" ry="4.72" transform="translate(-7.82 12.52) rotate(-6)"/>
        <ellipse class="cls-4" cx="124.84" cy="79.88" rx="4.65" ry="4.72" transform="translate(-7.67 13.49) rotate(-6)"/>
        <ellipse class="cls-4" cx="134.08" cy="78.91" rx="4.65" ry="4.72" transform="translate(-7.51 14.45) rotate(-6)"/>
        <ellipse class="cls-4" cx="143.33" cy="77.94" rx="4.65" ry="4.72" transform="translate(-7.36 15.41) rotate(-6)"/>
        <ellipse class="cls-4" cx="152.57" cy="76.97" rx="4.65" ry="4.72" transform="translate(-7.21 16.37) rotate(-6)"/>
        <ellipse class="cls-4" cx="161.82" cy="76" rx="4.65" ry="4.72" transform="translate(-7.06 17.33) rotate(-6)"/>
        <ellipse class="cls-4" cx="171.06" cy="75.02" rx="4.65" ry="4.72" transform="translate(-6.9 18.29) rotate(-6)"/>
        <ellipse class="cls-4" cx="40.65" cy="79.24" rx="4.65" ry="4.72" transform="translate(-8.06 4.68) rotate(-6)"/>
        <ellipse class="cls-4" cx="49.89" cy="78.27" rx="4.65" ry="4.72" transform="translate(-7.91 5.64) rotate(-6)"/>
        <ellipse class="cls-4" cx="59.14" cy="77.3" rx="4.65" ry="4.72" transform="translate(-7.76 6.6) rotate(-6)"/>
        <ellipse class="cls-4" cx="68.38" cy="76.33" rx="4.65" ry="4.72" transform="translate(-7.6 7.57) rotate(-6)"/>
        <ellipse class="cls-4" cx="77.63" cy="75.35" rx="4.65" ry="4.72" transform="translate(-7.45 8.53) rotate(-6)"/>
        <ellipse class="cls-4" cx="86.87" cy="74.38" rx="4.65" ry="4.72" transform="translate(-7.3 9.49) rotate(-6)"/>
        <ellipse class="cls-4" cx="96.12" cy="73.41" rx="4.65" ry="4.72" transform="translate(-7.15 10.45) rotate(-6)"/>
        <ellipse class="cls-4" cx="105.36" cy="72.44" rx="4.65" ry="4.72" transform="translate(-6.99 11.41) rotate(-6)"/>
        <ellipse class="cls-4" cx="114.61" cy="71.47" rx="4.65" ry="4.72" transform="translate(-6.84 12.37) rotate(-6)"/>
        <ellipse class="cls-4" cx="123.85" cy="70.5" rx="4.65" ry="4.72" transform="translate(-6.69 13.33) rotate(-6)"/>
        <ellipse class="cls-4" cx="133.1" cy="69.52" rx="4.65" ry="4.72" transform="translate(-6.54 14.29) rotate(-6)"/>
        <ellipse class="cls-4" cx="142.34" cy="68.55" rx="4.65" ry="4.72" transform="translate(-6.39 15.25) rotate(-6)"/>
        <ellipse class="cls-4" cx="151.59" cy="67.58" rx="4.65" ry="4.72" transform="translate(-6.23 16.21) rotate(-6)"/>
        <ellipse class="cls-4" cx="160.83" cy="66.61" rx="4.65" ry="4.72" transform="translate(-6.08 17.18) rotate(-6)"/>
        <ellipse class="cls-4" cx="170.08" cy="65.64" rx="4.65" ry="4.72" transform="translate(-5.93 18.14) rotate(-6)"/>
      </g>
      <ellipse class="cls-4" cx="192.4" cy="186.67" rx="4.65" ry="4.72" transform="translate(-18.46 21.13) rotate(-6)"/>
      <ellipse class="cls-4" cx="201.64" cy="185.69" rx="4.65" ry="4.72" transform="translate(-18.3 22.09) rotate(-6)"/>
      <ellipse class="cls-4" cx="210.89" cy="184.72" rx="4.65" ry="4.72" transform="translate(-18.15 23.05) rotate(-6)"/>
      <ellipse class="cls-4" cx="220.13" cy="183.75" rx="4.65" ry="4.72" transform="translate(-18 24.02) rotate(-6)"/>
      <ellipse class="cls-4" cx="229.38" cy="182.78" rx="4.65" ry="4.72" transform="translate(-17.85 24.98) rotate(-6)"/>
      <ellipse class="cls-4" cx="238.62" cy="181.81" rx="4.65" ry="4.72" transform="translate(-17.7 25.94) rotate(-6)"/>
      <ellipse class="cls-4" cx="191.41" cy="177.28" rx="4.65" ry="4.72" transform="translate(-17.48 20.98) rotate(-6)"/>
      <ellipse class="cls-4" cx="200.66" cy="176.31" rx="4.65" ry="4.72" transform="translate(-17.33 21.94) rotate(-6)"/>
      <ellipse class="cls-4" cx="209.9" cy="175.34" rx="4.65" ry="4.72" transform="translate(-17.18 22.9) rotate(-6)"/>
      <ellipse class="cls-4" cx="219.15" cy="174.36" rx="4.65" ry="4.72" transform="translate(-17.02 23.86) rotate(-6)"/>
      <ellipse class="cls-4" cx="228.39" cy="173.39" rx="4.65" ry="4.72" transform="translate(-16.87 24.82) rotate(-6)"/>
      <ellipse class="cls-4" cx="237.64" cy="172.42" rx="4.65" ry="4.72" transform="translate(-16.72 25.78) rotate(-6)"/>
      <ellipse class="cls-4" cx="190.43" cy="167.89" rx="4.65" ry="4.72" transform="translate(-16.51 20.82) rotate(-6)"/>
      <ellipse class="cls-4" cx="199.67" cy="166.92" rx="4.65" ry="4.72" transform="translate(-16.35 21.78) rotate(-6)"/>
      <ellipse class="cls-4" cx="208.92" cy="165.95" rx="4.65" ry="4.72" transform="translate(-16.2 22.75) rotate(-6)"/>
      <ellipse class="cls-4" cx="218.16" cy="164.98" rx="4.65" ry="4.72" transform="translate(-16.05 23.71) rotate(-6)"/>
      <ellipse class="cls-4" cx="227.41" cy="164.01" rx="4.65" ry="4.72" transform="translate(-15.9 24.67) rotate(-6)"/>
      <ellipse class="cls-4" cx="236.65" cy="163.03" rx="4.65" ry="4.72" transform="translate(-15.74 25.63) rotate(-6)"/>
      <ellipse class="cls-4" cx="189.44" cy="158.51" rx="4.65" ry="4.72" transform="translate(-15.53 20.67) rotate(-6)"/>
      <ellipse class="cls-4" cx="198.68" cy="157.53" rx="4.65" ry="4.72" transform="translate(-15.38 21.63) rotate(-6)"/>
      <ellipse class="cls-4" cx="207.93" cy="156.56" rx="4.65" ry="4.72" transform="translate(-15.23 22.59) rotate(-6)"/>
      <ellipse class="cls-4" cx="217.17" cy="155.59" rx="4.65" ry="4.72" transform="translate(-15.07 23.55) rotate(-6)"/>
      <ellipse class="cls-4" cx="226.42" cy="154.62" rx="4.65" ry="4.72" transform="translate(-14.92 24.51) rotate(-6)"/>
      <ellipse class="cls-4" cx="235.66" cy="153.65" rx="4.65" ry="4.72" transform="translate(-14.77 25.47) rotate(-6)"/>
      <ellipse class="cls-4" cx="188.45" cy="149.12" rx="4.65" ry="4.72" transform="translate(-14.55 20.51) rotate(-6)"/>
      <ellipse class="cls-4" cx="197.7" cy="148.15" rx="4.65" ry="4.72" transform="translate(-14.4 21.48) rotate(-6)"/>
      <ellipse class="cls-4" cx="206.94" cy="147.18" rx="4.65" ry="4.72" transform="translate(-14.25 22.44) rotate(-6)"/>
      <ellipse class="cls-4" cx="216.19" cy="146.2" rx="4.65" ry="4.72" transform="translate(-14.1 23.4) rotate(-6)"/>
      <ellipse class="cls-4" cx="225.43" cy="145.23" rx="4.65" ry="4.72" transform="translate(-13.95 24.36) rotate(-6)"/>
      <ellipse class="cls-4" cx="234.68" cy="144.26" rx="4.65" ry="4.72" transform="translate(-13.79 25.32) rotate(-6)"/>
      <ellipse class="cls-4" cx="187.47" cy="139.73" rx="4.65" ry="4.72" transform="translate(-13.58 20.36) rotate(-6)"/>
      <ellipse class="cls-4" cx="196.71" cy="138.76" rx="4.65" ry="4.72" transform="translate(-13.43 21.32) rotate(-6)"/>
      <ellipse class="cls-4" cx="205.96" cy="137.79" rx="4.65" ry="4.72" transform="translate(-13.27 22.28) rotate(-6)"/>
      <ellipse class="cls-4" cx="215.2" cy="136.82" rx="4.65" ry="4.72" transform="translate(-13.12 23.24) rotate(-6)"/>
      <ellipse class="cls-4" cx="224.45" cy="135.85" rx="4.65" ry="4.72" transform="translate(-12.97 24.2) rotate(-6)"/>
      <ellipse class="cls-4" cx="233.69" cy="134.87" rx="4.65" ry="4.72" transform="translate(-12.82 25.16) rotate(-6)"/>
      <ellipse class="cls-4" cx="186.48" cy="130.35" rx="4.65" ry="4.72" transform="translate(-12.6 20.21) rotate(-6)"/>
      <ellipse class="cls-4" cx="195.73" cy="129.37" rx="4.65" ry="4.72" transform="translate(-12.45 21.17) rotate(-6)"/>
      <ellipse class="cls-4" cx="204.97" cy="128.4" rx="4.65" ry="4.72" transform="translate(-12.3 22.13) rotate(-6)"/>
      <ellipse class="cls-4" cx="214.22" cy="127.43" rx="4.65" ry="4.72" transform="translate(-12.15 23.09) rotate(-6)"/>
      <ellipse class="cls-4" cx="223.46" cy="126.46" rx="4.65" ry="4.72" transform="translate(-11.99 24.05) rotate(-6)"/>
      <ellipse class="cls-4" cx="232.71" cy="125.49" rx="4.65" ry="4.72" transform="translate(-11.84 25.01) rotate(-6)"/>
      <ellipse class="cls-4" cx="185.49" cy="120.96" rx="4.65" ry="4.72" transform="translate(-11.63 20.05) rotate(-6)"/>
      <ellipse class="cls-4" cx="194.74" cy="119.99" rx="4.65" ry="4.72" transform="translate(-11.47 21.01) rotate(-6)"/>
      <ellipse class="cls-4" cx="203.98" cy="119.02" rx="4.65" ry="4.72" transform="translate(-11.32 21.97) rotate(-6)"/>
      <ellipse class="cls-4" cx="213.23" cy="118.04" rx="4.65" ry="4.72" transform="translate(-11.17 22.93) rotate(-6)"/>
      <ellipse class="cls-4" cx="222.47" cy="117.07" rx="4.65" ry="4.72" transform="translate(-11.02 23.89) rotate(-6)"/>
      <ellipse class="cls-4" cx="231.72" cy="116.1" rx="4.65" ry="4.72" transform="translate(-10.87 24.86) rotate(-6)"/>
      <ellipse class="cls-4" cx="184.51" cy="111.57" rx="4.65" ry="4.72" transform="translate(-10.65 19.9) rotate(-6)"/>
      <ellipse class="cls-4" cx="193.75" cy="110.6" rx="4.65" ry="4.72" transform="translate(-10.5 20.86) rotate(-6)"/>
      <ellipse class="cls-4" cx="203" cy="109.63" rx="4.65" ry="4.72" transform="translate(-10.35 21.82) rotate(-6)"/>
      <ellipse class="cls-4" cx="212.24" cy="108.66" rx="4.65" ry="4.72" transform="translate(-10.19 22.78) rotate(-6)"/>
      <ellipse class="cls-4" cx="221.49" cy="107.69" rx="4.65" ry="4.72" transform="translate(-10.04 23.74) rotate(-6)"/>
      <ellipse class="cls-4" cx="230.73" cy="106.71" rx="4.65" ry="4.72" transform="translate(-9.89 24.7) rotate(-6)"/>
      <ellipse class="cls-4" cx="183.52" cy="102.19" rx="4.65" ry="4.72" transform="translate(-9.68 19.74) rotate(-6)"/>
      <ellipse class="cls-4" cx="192.77" cy="101.21" rx="4.65" ry="4.72" transform="translate(-9.52 20.7) rotate(-6)"/>
      <ellipse class="cls-4" cx="202.01" cy="100.24" rx="4.65" ry="4.72" transform="translate(-9.37 21.66) rotate(-6)"/>
      <ellipse class="cls-4" cx="211.26" cy="99.27" rx="4.65" ry="4.72" transform="translate(-9.22 22.62) rotate(-6)"/>
      <ellipse class="cls-4" cx="220.5" cy="98.3" rx="4.65" ry="4.72" transform="translate(-9.07 23.59) rotate(-6)"/>
      <ellipse class="cls-4" cx="229.75" cy="97.33" rx="4.65" ry="4.72" transform="translate(-8.91 24.55) rotate(-6)"/>
      <ellipse class="cls-4" cx="182.53" cy="92.8" rx="4.65" ry="4.72" transform="translate(-8.7 19.59) rotate(-6)"/>
      <ellipse class="cls-4" cx="191.78" cy="91.83" rx="4.65" ry="4.72" transform="translate(-8.55 20.55) rotate(-6)"/>
      <ellipse class="cls-4" cx="201.02" cy="90.86" rx="4.65" ry="4.72" transform="translate(-8.4 21.51) rotate(-6)"/>
      <ellipse class="cls-4" cx="210.27" cy="89.88" rx="4.65" ry="4.72" transform="translate(-8.24 22.47) rotate(-6)"/>
      <ellipse class="cls-4" cx="219.51" cy="88.91" rx="4.65" ry="4.72" transform="translate(-8.09 23.43) rotate(-6)"/>
      <ellipse class="cls-4" cx="228.76" cy="87.94" rx="4.65" ry="4.72" transform="translate(-7.94 24.39) rotate(-6)"/>
      <ellipse class="cls-4" cx="181.55" cy="83.41" rx="4.65" ry="4.72" transform="translate(-7.72 19.43) rotate(-6)"/>
      <ellipse class="cls-4" cx="190.79" cy="82.44" rx="4.65" ry="4.72" transform="translate(-7.57 20.39) rotate(-6)"/>
      <ellipse class="cls-4" cx="200.04" cy="81.47" rx="4.65" ry="4.72" transform="translate(-7.42 21.35) rotate(-6)"/>
      <ellipse class="cls-4" cx="209.28" cy="80.5" rx="4.65" ry="4.72" transform="translate(-7.27 22.32) rotate(-6)"/>
      <ellipse class="cls-4" cx="218.53" cy="79.53" rx="4.65" ry="4.72" transform="translate(-7.12 23.28) rotate(-6)"/>
      <ellipse class="cls-4" cx="227.77" cy="78.55" rx="4.65" ry="4.72" transform="translate(-6.96 24.24) rotate(-6)"/>
      <ellipse class="cls-4" cx="180.56" cy="74.03" rx="4.65" ry="4.72" transform="translate(-6.75 19.28) rotate(-6)"/>
      <ellipse class="cls-4" cx="189.81" cy="73.05" rx="4.65" ry="4.72" transform="translate(-6.6 20.24) rotate(-6)"/>
      <ellipse class="cls-4" cx="199.05" cy="72.08" rx="4.65" ry="4.72" transform="translate(-6.44 21.2) rotate(-6)"/>
      <ellipse class="cls-4" cx="208.3" cy="71.11" rx="4.65" ry="4.72" transform="translate(-6.29 22.16) rotate(-6)"/>
      <ellipse class="cls-4" cx="217.54" cy="70.14" rx="4.65" ry="4.72" transform="translate(-6.14 23.12) rotate(-6)"/>
      <ellipse class="cls-4" cx="226.79" cy="69.17" rx="4.65" ry="4.72" transform="translate(-5.99 24.08) rotate(-6)"/>
      <ellipse class="cls-4" cx="179.57" cy="64.64" rx="4.65" ry="4.72" transform="translate(-5.77 19.12) rotate(-6)"/>
      <ellipse class="cls-4" cx="188.82" cy="63.67" rx="4.65" ry="4.72" transform="translate(-5.62 20.08) rotate(-6)"/>
      <ellipse class="cls-4" cx="198.06" cy="62.7" rx="4.65" ry="4.72" transform="translate(-5.47 21.05) rotate(-6)"/>
      <ellipse class="cls-4" cx="207.31" cy="61.72" rx="4.65" ry="4.72" transform="translate(-5.32 22.01) rotate(-6)"/>
      <ellipse class="cls-4" cx="216.55" cy="60.75" rx="4.65" ry="4.72" transform="translate(-5.16 22.97) rotate(-6)"/>
      <ellipse class="cls-4" cx="225.8" cy="59.78" rx="4.65" ry="4.72" transform="translate(-5.01 23.93) rotate(-6)"/>
      <g>
        <g>
          <ellipse class="cls-4" cx="39.68" cy="70.03" rx="4.65" ry="4.72" transform="translate(-7.1 4.53) rotate(-6)"/>
          <ellipse class="cls-4" cx="48.92" cy="69.06" rx="4.65" ry="4.72" transform="translate(-6.95 5.49) rotate(-6)"/>
          <ellipse class="cls-4" cx="58.17" cy="68.08" rx="4.65" ry="4.72" transform="translate(-6.8 6.45) rotate(-6)"/>
          <ellipse class="cls-4" cx="67.41" cy="67.11" rx="4.65" ry="4.72" transform="translate(-6.65 7.41) rotate(-6)"/>
          <ellipse class="cls-4" cx="76.66" cy="66.14" rx="4.65" ry="4.72" transform="translate(-6.49 8.37) rotate(-6)"/>
          <ellipse class="cls-4" cx="85.9" cy="65.17" rx="4.65" ry="4.72" transform="translate(-6.34 9.34) rotate(-6)"/>
          <ellipse class="cls-4" cx="38.69" cy="60.64" rx="4.65" ry="4.72" transform="translate(-6.13 4.38) rotate(-6)"/>
          <ellipse class="cls-4" cx="47.94" cy="59.67" rx="4.65" ry="4.72" transform="translate(-5.97 5.34) rotate(-6)"/>
          <ellipse class="cls-4" cx="57.18" cy="58.7" rx="4.65" ry="4.72" transform="translate(-5.82 6.3) rotate(-6)"/>
          <ellipse class="cls-4" cx="66.43" cy="57.73" rx="4.65" ry="4.72" transform="translate(-5.67 7.26) rotate(-6)"/>
          <ellipse class="cls-4" cx="75.67" cy="56.75" rx="4.65" ry="4.72" transform="translate(-5.52 8.22) rotate(-6)"/>
          <ellipse class="cls-4" cx="84.92" cy="55.78" rx="4.65" ry="4.72" transform="translate(-5.37 9.18) rotate(-6)"/>
        </g>
        <g>
          <ellipse class="cls-4" cx="95.15" cy="64.2" rx="4.65" ry="4.72" transform="translate(-6.19 10.3) rotate(-6)"/>
          <ellipse class="cls-4" cx="104.39" cy="63.23" rx="4.65" ry="4.72" transform="translate(-6.04 11.26) rotate(-6)"/>
          <ellipse class="cls-4" cx="113.64" cy="62.25" rx="4.65" ry="4.72" transform="translate(-5.88 12.22) rotate(-6)"/>
          <ellipse class="cls-4" cx="122.88" cy="61.28" rx="4.65" ry="4.72" transform="translate(-5.73 13.18) rotate(-6)"/>
          <ellipse class="cls-4" cx="132.13" cy="60.31" rx="4.65" ry="4.72" transform="translate(-5.58 14.14) rotate(-6)"/>
          <ellipse class="cls-4" cx="141.37" cy="59.34" rx="4.65" ry="4.72" transform="translate(-5.43 15.1) rotate(-6)"/>
          <ellipse class="cls-4" cx="94.16" cy="54.81" rx="4.65" ry="4.72" transform="translate(-5.21 10.14) rotate(-6)"/>
          <ellipse class="cls-4" cx="103.41" cy="53.84" rx="4.65" ry="4.72" transform="translate(-5.06 11.1) rotate(-6)"/>
          <ellipse class="cls-4" cx="112.65" cy="52.87" rx="4.65" ry="4.72" transform="translate(-4.91 12.06) rotate(-6)"/>
          <ellipse class="cls-4" cx="121.9" cy="51.9" rx="4.65" ry="4.72" transform="translate(-4.76 13.03) rotate(-6)"/>
          <ellipse class="cls-4" cx="131.14" cy="50.92" rx="4.65" ry="4.72" transform="translate(-4.6 13.99) rotate(-6)"/>
          <ellipse class="cls-4" cx="140.39" cy="49.95" rx="4.65" ry="4.72" transform="translate(-4.45 14.95) rotate(-6)"/>
        </g>
      </g>
      <g>
        <ellipse class="cls-4" cx="150.6" cy="58.19" rx="4.65" ry="4.72" transform="translate(-5.26 16.06) rotate(-6)"/>
        <ellipse class="cls-4" cx="159.84" cy="57.22" rx="4.65" ry="4.72" transform="translate(-5.11 17.02) rotate(-6)"/>
        <ellipse class="cls-4" cx="169.09" cy="56.25" rx="4.65" ry="4.72" transform="translate(-4.95 17.98) rotate(-6)"/>
        <ellipse class="cls-4" cx="178.33" cy="55.28" rx="4.65" ry="4.72" transform="translate(-4.8 18.94) rotate(-6)"/>
        <ellipse class="cls-4" cx="187.58" cy="54.31" rx="4.65" ry="4.72" transform="translate(-4.65 19.9) rotate(-6)"/>
        <ellipse class="cls-4" cx="196.82" cy="53.34" rx="4.65" ry="4.72" transform="translate(-4.5 20.86) rotate(-6)"/>
        <ellipse class="cls-4" cx="149.61" cy="48.81" rx="4.65" ry="4.72" transform="translate(-4.28 15.91) rotate(-6)"/>
        <ellipse class="cls-4" cx="158.86" cy="47.84" rx="4.65" ry="4.72" transform="translate(-4.13 16.87) rotate(-6)"/>
        <ellipse class="cls-4" cx="168.1" cy="46.86" rx="4.65" ry="4.72" transform="translate(-3.98 17.83) rotate(-6)"/>
        <ellipse class="cls-4" cx="177.35" cy="45.89" rx="4.65" ry="4.72" transform="translate(-3.83 18.79) rotate(-6)"/>
        <ellipse class="cls-4" cx="186.59" cy="44.92" rx="4.65" ry="4.72" transform="translate(-3.67 19.75) rotate(-6)"/>
        <ellipse class="cls-4" cx="195.84" cy="43.95" rx="4.65" ry="4.72" transform="translate(-3.52 20.71) rotate(-6)"/>
      </g>
      <ellipse class="cls-4" cx="206.07" cy="52.36" rx="4.65" ry="4.72" transform="translate(-4.34 21.83) rotate(-6)"/>
      <ellipse class="cls-4" cx="215.31" cy="51.39" rx="4.65" ry="4.72" transform="translate(-4.19 22.79) rotate(-6)"/>
      <ellipse class="cls-4" cx="224.56" cy="50.42" rx="4.65" ry="4.72" transform="translate(-4.04 23.75) rotate(-6)"/>
      <ellipse class="cls-4" cx="205.08" cy="42.98" rx="4.65" ry="4.72" transform="translate(-3.37 21.67) rotate(-6)"/>
      <ellipse class="cls-4" cx="214.33" cy="42.01" rx="4.65" ry="4.72" transform="translate(-3.22 22.63) rotate(-6)"/>
      <ellipse class="cls-4" cx="223.57" cy="41.03" rx="4.65" ry="4.72" transform="translate(-3.06 23.59) rotate(-6)"/>
    </g>
  </g>
</svg>