<svg width="44" height="39" viewBox="0 0 44 39" fill="none" xmlns="http://www.w3.org/2000/svg">
<path fill-rule="evenodd" clip-rule="evenodd" d="M16 21.375C16.0065 20.8797 16.2061 20.4065 16.5563 20.0562C16.9066 19.706 17.3797 19.5065 17.875 19.5H25.875C26.3703 19.5065 26.8435 19.706 27.1938 20.0562C27.544 20.4065 27.7435 20.8797 27.75 21.375V36.875C27.7454 37.2267 27.7473 37.817 27.7488 38.2769L27.7488 38.2785C27.7495 38.4657 27.75 38.6311 27.75 38.75H36.875C37.3703 38.7435 37.8435 38.544 38.1937 38.1937C38.544 37.8435 38.7435 37.3703 38.75 36.875V16.8757L40.75 18.375C41.0737 18.62 41.469 18.7518 41.875 18.75C42.1775 18.738 42.4725 18.652 42.734 18.4995C42.9955 18.347 43.2157 18.1325 43.375 17.875C43.6355 17.4865 43.7415 17.0148 43.6722 16.5523C43.6027 16.0898 43.363 15.6698 43 15.375L23 0.375C22.6755 0.131575 22.2807 0 21.875 0C21.4692 0 21.0745 0.131575 20.75 0.375L0.750001 15.375C0.352176 15.6733 0.0891759 16.1175 0.0188509 16.6098C-0.0514741 17.102 0.0766512 17.6023 0.375001 18C0.673376 18.3978 1.11755 18.6608 1.60985 18.7313C2.10213 18.8015 2.60218 18.6733 3 18.375L5 16.8757V36.875C5.00647 37.3703 5.2061 37.8435 5.55632 38.1937C5.90658 38.544 6.37972 38.7435 6.875 38.75H16V21.375ZM15 37.75V21.3619C15.0099 20.606 15.3146 19.8838 15.8492 19.3492C16.3839 18.8145 17.1061 18.51 17.8619 18.5001L17.875 18.4999L25.8881 18.5C26.6438 18.5099 27.3661 18.8144 27.9009 19.3491C28.4356 19.8839 28.74 20.6062 28.7499 21.3619L28.7501 21.375L28.75 36.8881C28.7471 37.108 28.7468 37.4269 28.7474 37.75H36.8673C37.1002 37.7455 37.3222 37.6511 37.4866 37.4866C37.6511 37.3222 37.7455 37.1002 37.75 36.8673V14.8762L41.3534 17.5776C41.4976 17.6867 41.6726 17.7469 41.853 17.7499C41.986 17.7419 42.1152 17.7027 42.2302 17.6357C42.3504 17.5656 42.4515 17.467 42.5245 17.349L42.5342 17.3334L42.5444 17.3181C42.6661 17.1366 42.7156 16.9163 42.6833 16.7003C42.6515 16.4896 42.544 16.298 42.3817 16.1612L22.4 1.175C22.2487 1.06148 22.0644 1 21.875 1C21.6856 1 21.5014 1.06142 21.3501 1.17494L1.35 16.175C1.16454 16.314 1.04163 16.5214 1.0088 16.7512C0.975977 16.9809 1.03582 17.2144 1.17494 17.3999M15 37.75H6.88269C6.64987 37.7455 6.42795 37.6512 6.26343 37.4866C6.09882 37.322 6.00442 37.0999 6 36.8673V14.8762L2.40017 17.5749C2.21429 17.7142 1.98076 17.7741 1.75112 17.7413C1.5213 17.7082 1.31409 17.5854 1.17494 17.3999" fill="black"/>
<path d="M15.8492 19.3492C15.3146 19.8838 15.0099 20.606 15 21.3619V37.75H6.88269C6.64987 37.7455 6.42795 37.6512 6.26343 37.4866C6.09882 37.322 6.00442 37.0999 6 36.8673V14.8762L2.40017 17.5749C2.21429 17.7142 1.98076 17.7741 1.75112 17.7413C1.5213 17.7082 1.31409 17.5854 1.17494 17.3999C1.03582 17.2144 0.975977 16.9809 1.0088 16.7512C1.04163 16.5214 1.16454 16.314 1.35 16.175L21.3501 1.17494C21.5014 1.06142 21.6856 1 21.875 1C22.0644 1 22.2487 1.06148 22.4 1.175L42.3817 16.1612C42.544 16.298 42.6515 16.4896 42.6833 16.7003C42.7156 16.9163 42.6661 17.1366 42.5444 17.3181L42.5342 17.3334L42.5245 17.349C42.4515 17.467 42.3504 17.5656 42.2302 17.6357C42.1152 17.7027 41.986 17.7419 41.853 17.7499C41.6726 17.7469 41.4976 17.6867 41.3534 17.5776L37.75 14.8762V36.8673C37.7455 37.1002 37.6511 37.3222 37.4866 37.4866C37.3222 37.6511 37.1002 37.7455 36.8673 37.75H28.7474C28.7468 37.4269 28.7471 37.108 28.75 36.8881L28.7501 21.375L28.7499 21.3619C28.74 20.6062 28.4356 19.8839 27.9009 19.3491C27.3661 18.8144 26.6438 18.5099 25.8881 18.5L17.875 18.4999L17.8619 18.5001C17.1061 18.51 16.3839 18.8145 15.8492 19.3492Z" fill="black"/>
<path d="M15.8404 19.3492C15.3058 19.8838 15.0011 20.606 14.9912 21.3619V37.75H6.87389C6.64107 37.7455 6.41916 37.6512 6.25464 37.4866C6.09003 37.322 5.99562 37.0999 5.99121 36.8673V14.8762L2.39138 17.5749C2.2055 17.7142 1.97197 17.7741 1.74233 17.7413C1.51251 17.7082 1.30529 17.5854 1.16615 17.3999C1.02702 17.2144 0.967184 16.9809 1.00001 16.7512C1.03283 16.5214 1.15575 16.314 1.34121 16.175L21.3413 1.17494C21.4926 1.06142 21.6768 1 21.8662 1C22.0556 1 22.2399 1.06148 22.3912 1.175L42.3729 16.1612C42.5352 16.298 42.6427 16.4896 42.6745 16.7003C42.7068 16.9163 42.6573 17.1366 42.5356 17.3181L42.5254 17.3334L42.5157 17.349C42.4427 17.467 42.3416 17.5656 42.2214 17.6357C42.1064 17.7027 41.9772 17.7419 41.8442 17.7499C41.6638 17.7469 41.4888 17.6867 41.3447 17.5776L37.7412 14.8762V36.8673C37.7367 37.1002 37.6423 37.3222 37.4778 37.4866C37.3134 37.6511 37.0914 37.7455 36.8585 37.75H28.7386C28.738 37.4269 28.7383 37.108 28.7412 36.8881L28.7413 21.375L28.7411 21.3619C28.7312 20.6062 28.4268 19.8839 27.8921 19.3491C27.3573 18.8144 26.635 18.5099 25.8793 18.5L17.8662 18.4999L17.8531 18.5001C17.0973 18.51 16.3751 18.8145 15.8404 19.3492Z" fill="white"/>
</svg>
