<svg width="44" height="39" viewBox="0 0 44 39" fill="none" xmlns="http://www.w3.org/2000/svg">
<path d="M40.75 18.375C41.0737 18.62 41.469 18.7518 41.875 18.75C42.1775 18.738 42.4725 18.652 42.734 18.4995C42.9955 18.347 43.2157 18.1325 43.375 17.875C43.6355 17.4865 43.7415 17.0148 43.6722 16.5523C43.6027 16.0898 43.363 15.6698 43 15.375L23 0.375C22.6755 0.131575 22.2807 0 21.875 0C21.4692 0 21.0745 0.131575 20.75 0.375L5.75424 11.6218L5.74579 11.6282L0.750001 15.375C0.352176 15.6733 0.0891759 16.1175 0.0188509 16.6098C-0.0514741 17.102 0.0766512 17.6023 0.375001 18C0.673376 18.3978 1.11755 18.6608 1.60985 18.7313C2.10213 18.8015 2.60218 18.6733 3 18.375L5 16.8757V36.875C5.00647 37.3702 5.2061 37.8435 5.55632 38.1937C5.90657 38.544 6.37973 38.7435 6.875 38.75H16V36.875V35V21.375C16.0065 20.8798 16.2061 20.4065 16.5563 20.0562C16.9066 19.706 17.3797 19.5065 17.875 19.5H25.875C26.3702 19.5065 26.8435 19.706 27.1938 20.0562C27.544 20.4065 27.7435 20.8798 27.75 21.375V35V36.875C27.7454 37.2267 27.7473 37.8171 27.7488 38.277L27.7488 38.2785C27.7495 38.4657 27.75 38.6311 27.75 38.75H36.875C37.3702 38.7435 37.8435 38.544 38.1937 38.1937C38.544 37.8435 38.7435 37.3702 38.75 36.875V16.8757L40.75 18.375Z" fill="black"/>
</svg>
