<svg width="68" height="40" viewBox="0 0 68 40" fill="none" xmlns="http://www.w3.org/2000/svg">
<rect x="0.5" y="0.5" width="67" height="39" rx="4.5" fill="white"/>
<rect x="0.5" y="0.5" width="67" height="39" rx="4.5" stroke="black"/>
<path d="M18.8 8.66667C18.8 7.54591 19.1343 6.45032 19.7606 5.51844C20.3869 4.58656 21.2772 3.86025 22.3187 3.43135C23.3602 3.00246 24.5063 2.89024 25.612 3.10889C26.7177 3.32754 27.7333 3.86723 28.5305 4.65973C29.3277 5.45223 29.8705 6.46193 30.0905 7.56116C30.3104 8.66038 30.1975 9.79976 29.7661 10.8352C29.3347 11.8707 28.6041 12.7557 27.6668 13.3783C26.7294 14.001 25.6274 14.3333 24.5 14.3333C22.9883 14.3333 21.5384 13.7363 20.4695 12.6736C19.4005 11.6109 18.8 10.1696 18.8 8.66667ZM34 27.5556L26.4 21.8889L15 37H53L45.4 14.3333L34 27.5556Z" fill="black"/>
</svg>
