<svg width="129" height="51" viewBox="0 0 129 51" fill="none" xmlns="http://www.w3.org/2000/svg">
<path d="M35.1148 0C37.8852 0 40.1311 2.23858 40.1311 5V46C40.1311 48.7614 37.8852 51 35.1148 51H5.01639C2.24592 51 0 48.7614 0 46V5C0 2.23858 2.24592 0 5.01639 0H35.1148Z" fill="white"/>
<path fill-rule="evenodd" clip-rule="evenodd" d="M37.1311 46V5C37.1311 3.90468 36.2376 3 35.1148 3H5.01639C3.8935 3 3 3.90468 3 5V46C3 47.0953 3.8935 48 5.01639 48H35.1148C36.2376 48 37.1311 47.0953 37.1311 46ZM40.1311 5C40.1311 2.23858 37.8852 0 35.1148 0H5.01639C2.24592 0 0 2.23858 0 5V46C0 48.7614 2.24592 51 5.01639 51H35.1148C37.8852 51 40.1311 48.7614 40.1311 46V5Z" fill="black"/>
<path d="M41.1148 0C43.8852 0 46.1311 2.23858 46.1311 5V46C46.1311 48.7614 43.8852 51 41.1148 51H11.0164C8.24592 51 6 48.7614 6 46V5C6 2.23858 8.24592 0 11.0164 0H41.1148Z" fill="white"/>
<path fill-rule="evenodd" clip-rule="evenodd" d="M43.1311 46V5C43.1311 3.90468 42.2376 3 41.1148 3H11.0164C9.8935 3 9 3.90468 9 5V46C9 47.0953 9.8935 48 11.0164 48H41.1148C42.2376 48 43.1311 47.0953 43.1311 46ZM46.1311 5C46.1311 2.23858 43.8852 0 41.1148 0H11.0164C8.24592 0 6 2.23858 6 5V46C6 48.7614 8.24592 51 11.0164 51H41.1148C43.8852 51 46.1311 48.7614 46.1311 46V5Z" fill="black"/>
<path d="M97.766 0C100.509 0 102.733 2.23858 102.733 5V46C102.733 48.7614 100.509 51 97.766 51H67.9666C65.2236 51 63 48.7614 63 46V5C63 2.23858 65.2236 0 67.9666 0H97.766Z" fill="white"/>
<path fill-rule="evenodd" clip-rule="evenodd" d="M99.7326 46V5C99.7326 3.87642 98.8332 3 97.766 3H67.9666C66.8994 3 66 3.87642 66 5V46C66 47.1236 66.8994 48 67.9666 48H97.766C98.8332 48 99.7326 47.1236 99.7326 46ZM102.733 5C102.733 2.23858 100.509 0 97.766 0H67.9666C65.2236 0 63 2.23858 63 5V46C63 48.7614 65.2236 51 67.9666 51H97.766C100.509 51 102.733 48.7614 102.733 46V5Z" fill="black"/>
<path d="M106.766 0C109.509 0 111.733 2.23858 111.733 5V46C111.733 48.7614 109.509 51 106.766 51H76.9666C74.2236 51 72 48.7614 72 46V5C72 2.23858 74.2236 0 76.9666 0H106.766Z" fill="white"/>
<path fill-rule="evenodd" clip-rule="evenodd" d="M108.733 46V5C108.733 3.87642 107.833 3 106.766 3H76.9666C75.8994 3 75 3.87642 75 5V46C75 47.1236 75.8994 48 76.9666 48H106.766C107.833 48 108.733 47.1236 108.733 46ZM111.733 5C111.733 2.23858 109.509 0 106.766 0H76.9666C74.2236 0 72 2.23858 72 5V46C72 48.7614 74.2236 51 76.9666 51H106.766C109.509 51 111.733 48.7614 111.733 46V5Z" fill="black"/>
<path d="M115.766 0C118.509 0 120.733 2.23858 120.733 5V46C120.733 48.7614 118.509 51 115.766 51H85.9666C83.2236 51 81 48.7614 81 46V5C81 2.23858 83.2236 0 85.9666 0H115.766Z" fill="white"/>
<path fill-rule="evenodd" clip-rule="evenodd" d="M117.733 46V5C117.733 3.87642 116.833 3 115.766 3H85.9666C84.8994 3 84 3.87642 84 5V46C84 47.1236 84.8994 48 85.9666 48H115.766C116.833 48 117.733 47.1236 117.733 46ZM120.733 5C120.733 2.23858 118.509 0 115.766 0H85.9666C83.2236 0 81 2.23858 81 5V46C81 48.7614 83.2236 51 85.9666 51H115.766C118.509 51 120.733 48.7614 120.733 46V5Z" fill="black"/>
<path d="M123.766 0C126.509 0 128.733 2.23858 128.733 5V46C128.733 48.7614 126.509 51 123.766 51H93.9666C91.2236 51 89 48.7614 89 46V5C89 2.23858 91.2236 0 93.9666 0H123.766Z" fill="white"/>
<path fill-rule="evenodd" clip-rule="evenodd" d="M125.733 46V5C125.733 3.87642 124.833 3 123.766 3H93.9666C92.8994 3 92 3.87642 92 5V46C92 47.1236 92.8994 48 93.9666 48H123.766C124.833 48 125.733 47.1236 125.733 46ZM128.733 5C128.733 2.23858 126.509 0 123.766 0H93.9666C91.2236 0 89 2.23858 89 5V46C89 48.7614 91.2236 51 93.9666 51H123.766C126.509 51 128.733 48.7614 128.733 46V5Z" fill="black"/>
<path fill-rule="evenodd" clip-rule="evenodd" d="M55.3431 18.9289L61.7071 25.2929C62.0976 25.6834 62.0976 26.3166 61.7071 26.7071L55.3431 33.0711C54.9526 33.4616 54.3195 33.4616 53.9289 33.0711C53.5384 32.6805 53.5384 32.0474 53.9289 31.6569L58.5858 27H48C47.4477 27 47 26.5523 47 26C47 25.4477 47.4477 25 48 25H58.5858L53.9289 20.3432C53.5384 19.9526 53.5384 19.3195 53.9289 18.9289C54.3195 18.5384 54.9526 18.5384 55.3431 18.9289Z" fill="black"/>
<path d="M21.0724 33V30.4716L26.3778 25.8267C26.7756 25.4669 27.1141 25.1378 27.3935 24.8395C27.6728 24.5365 27.8859 24.2334 28.0327 23.9304C28.1795 23.6226 28.2528 23.2888 28.2528 22.929C28.2528 22.5265 28.1652 22.1832 27.9901 21.8991C27.8149 21.6103 27.5734 21.3878 27.2656 21.2315C26.9579 21.0753 26.6051 20.9972 26.2074 20.9972C25.8049 20.9972 25.4522 21.08 25.1491 21.2457C24.8461 21.4067 24.6094 21.6411 24.4389 21.9489C24.2732 22.2566 24.1903 22.6307 24.1903 23.071H20.8594C20.8594 22.0814 21.0819 21.2268 21.527 20.5071C21.9721 19.7874 22.5971 19.2334 23.402 18.8452C24.2116 18.4522 25.1515 18.2557 26.2216 18.2557C27.3248 18.2557 28.2836 18.4403 29.098 18.8097C29.9124 19.179 30.5421 19.6951 30.9872 20.3579C31.437 21.0161 31.6619 21.7808 31.6619 22.652C31.6619 23.206 31.5507 23.7552 31.3281 24.2997C31.1056 24.8442 30.7055 25.4455 30.1278 26.1037C29.5549 26.7618 28.7405 27.5502 27.6847 28.4687L25.9446 30.0739V30.1662H31.8395V33H21.0724Z" fill="black"/>
<path d="M101.895 30.5852V27.8437L107.854 18.4545H110.29V22.1761H108.876L105.389 27.7017V27.8153H114.018V30.5852H101.895ZM108.919 33V29.7471L108.99 28.5469V18.4545H112.278V33H108.919Z" fill="black"/>
</svg>
