<svg width="68" height="40" viewBox="0 0 68 40" fill="none" xmlns="http://www.w3.org/2000/svg">
<rect x="0.5" y="0.5" width="67" height="39" rx="4.5" fill="white"/>
<rect x="0.5" y="0.5" width="67" height="39" rx="4.5" stroke="black"/>
<path d="M26.8295 19.7273C26.8295 21.3277 26.5218 22.6842 25.9062 23.7969C25.2907 24.9096 24.4574 25.7547 23.4062 26.3324C22.3598 26.91 21.1856 27.1989 19.8835 27.1989C18.5767 27.1989 17.4001 26.9077 16.3537 26.3253C15.3073 25.7429 14.4763 24.8977 13.8608 23.7898C13.25 22.6771 12.9446 21.3229 12.9446 19.7273C12.9446 18.1269 13.25 16.7704 13.8608 15.6577C14.4763 14.545 15.3073 13.6998 16.3537 13.1222C17.4001 12.5445 18.5767 12.2557 19.8835 12.2557C21.1856 12.2557 22.3598 12.5445 23.4062 13.1222C24.4574 13.6998 25.2907 14.545 25.9062 15.6577C26.5218 16.7704 26.8295 18.1269 26.8295 19.7273ZM23.2358 19.7273C23.2358 18.7803 23.1009 17.9801 22.831 17.3267C22.5658 16.6733 22.1823 16.1785 21.6804 15.8423C21.1832 15.5062 20.5843 15.3381 19.8835 15.3381C19.1875 15.3381 18.5885 15.5062 18.0866 15.8423C17.5848 16.1785 17.1989 16.6733 16.929 17.3267C16.6638 17.9801 16.5312 18.7803 16.5312 19.7273C16.5312 20.6742 16.6638 21.4744 16.929 22.1278C17.1989 22.7812 17.5848 23.276 18.0866 23.6122C18.5885 23.9484 19.1875 24.1165 19.8835 24.1165C20.5843 24.1165 21.1832 23.9484 21.6804 23.6122C22.1823 23.276 22.5658 22.7812 22.831 22.1278C23.1009 21.4744 23.2358 20.6742 23.2358 19.7273ZM28.8821 27V12.4545H34.8906C35.9796 12.4545 36.9195 12.651 37.7102 13.044C38.5057 13.4323 39.1188 13.991 39.5497 14.7202C39.9806 15.4446 40.196 16.304 40.196 17.2983C40.196 18.3068 39.9759 19.1638 39.5355 19.8693C39.0952 20.5701 38.4702 21.1051 37.6605 21.4744C36.8509 21.839 35.892 22.0213 34.7841 22.0213H30.9844V19.2514H34.1307C34.661 19.2514 35.1037 19.1828 35.4588 19.0455C35.8187 18.9034 36.0909 18.6903 36.2756 18.4062C36.4602 18.1174 36.5526 17.7481 36.5526 17.2983C36.5526 16.8485 36.4602 16.4768 36.2756 16.1832C36.0909 15.8849 35.8187 15.6624 35.4588 15.5156C35.099 15.3641 34.6563 15.2884 34.1307 15.2884H32.3977V27H28.8821ZM37.071 20.3523L40.6932 27H36.858L33.3068 20.3523H37.071ZM47.5007 27H42.1243V12.4545H47.4936C48.9756 12.4545 50.2517 12.7457 51.3217 13.3281C52.3965 13.9058 53.2251 14.7391 53.8075 15.8281C54.3899 16.9124 54.6811 18.2098 54.6811 19.7202C54.6811 21.2353 54.3899 22.5374 53.8075 23.6264C53.2299 24.7154 52.4036 25.5511 51.3288 26.1335C50.254 26.7112 48.978 27 47.5007 27ZM45.6399 24.0028H47.3658C48.1802 24.0028 48.8691 23.8655 49.4325 23.5909C50.0007 23.3116 50.4292 22.8594 50.718 22.2344C51.0116 21.6046 51.1584 20.7666 51.1584 19.7202C51.1584 18.6738 51.0116 17.8404 50.718 17.2202C50.4245 16.5952 49.9912 16.1454 49.4183 15.8707C48.8501 15.5914 48.1494 15.4517 47.3161 15.4517H45.6399V24.0028Z" fill="black"/>
</svg>
