<svg width="36" height="31" viewBox="0 0 26 31" fill="none" xmlns="http://www.w3.org/2000/svg">
<path d="M21.3064 10.4862C23.9377 12.1487 25.2532 12.98 25.7045 14.0445C26.0985 14.9739 26.0985 16.0261 25.7045 16.9557C25.2532 18.02 23.9377 18.8512 21.3064 20.514L8.94787 28.323C6.02748 30.1683 4.56727 31.091 3.36227 30.9929C2.31192 30.9076 1.34909 30.3682 0.720801 29.5129C2.17865e-07 28.5318 0 26.7909 0 23.3091V7.69097C0 4.20923 2.17865e-07 2.46838 0.720801 1.4872C1.34909 0.631945 2.31192 0.0924396 3.36227 0.00705809C4.56727 -0.0908692 6.02748 0.83179 8.94787 2.67711L21.3064 10.4862Z" fill="#FFFDFD"/>
</svg>
