<svg width="36" height="31" viewBox="0 0 60 54" fill="none" xmlns="http://www.w3.org/2000/svg">
<path d="M26.25 0.779296C25.1367 0.764649 24.082 1.24805 23.3643 2.09766L11.25 15.75H7.5C3.39844 15.75 0 18.9141 0 23.25V30.75C0 34.8369 3.41309 38.25 7.5 38.25H11.25L23.3643 51.9023C24.1553 52.8545 25.21 53.2646 26.25 53.25V0.779296ZM50.4785 4.38281C49.7607 4.36817 49.0283 4.58789 48.3838 5.0127C46.6699 6.18457 46.2158 8.51367 47.373 10.2275C54.2139 20.3789 54.2139 33.6211 47.373 43.7725C46.2158 45.4863 46.6699 47.8154 48.3838 48.9873C50.0977 50.1445 52.4268 49.6904 53.5986 47.9766C57.8613 41.6338 60 34.3242 60 27C60 19.6758 57.8613 12.3662 53.5986 6.02344C52.8662 4.9541 51.6797 4.38281 50.4785 4.38281ZM37.6465 11.9561C36.8115 11.9268 35.9473 12.1758 35.2295 12.7178C34.248 13.4648 33.75 14.5928 33.75 15.7354V15.9551C33.7939 16.6729 34.0283 17.3613 34.4971 17.9619C38.5254 23.3232 38.5254 30.6768 34.4971 36.0234C34.0283 36.6387 33.7939 37.3271 33.75 38.0303V38.2646C33.75 39.4072 34.248 40.5352 35.2295 41.2822C36.8848 42.5273 39.2285 42.1904 40.4736 40.5352C43.4912 36.5361 45 31.7754 45 27C45 22.2246 43.4912 17.4639 40.4736 13.4502C39.7852 12.5273 38.7305 12.0146 37.6465 11.9561Z" fill="black"/>
</svg>
