<svg width="60" height="60" viewBox="0 0 60 60" fill="none" xmlns="http://www.w3.org/2000/svg">
<path d="M19.6249 1.85117C25.8004 -0.424991 32.553 -0.607181 38.8421 1.33267C43.1921 2.67441 47.1536 4.97985 50.4472 8.04739L53.5984 4.89615C55.9609 2.53378 60 4.2069 60 7.54781V22.5001H45.0476C41.7068 22.5001 40.0339 18.4608 42.396 16.0984L45.1395 13.3551C42.7087 11.1444 39.8085 9.47933 36.6317 8.49949C31.9147 7.0446 26.8503 7.18125 22.2187 8.88836C17.5871 10.5955 13.6454 13.7784 11.001 17.9465C8.35665 22.1146 7.15635 27.0367 7.58505 31.9542C8.01379 36.8717 10.0478 41.5117 13.3735 45.1594C16.6993 48.807 21.1323 51.2599 25.9895 52.1396C30.8466 53.0194 35.8583 52.2776 40.2521 50.0284C44.6464 47.7795 48.1785 44.1476 50.3051 39.693C51.1972 37.824 53.4356 37.032 55.305 37.9241C57.174 38.8163 57.9656 41.055 57.0735 42.924C54.2381 48.8632 49.5285 53.7056 43.6699 56.7049C37.8109 59.7037 31.1288 60.6926 24.6526 59.5196C18.1764 58.3462 12.2657 55.0763 7.83135 50.2125C3.39698 45.3491 0.685031 39.1624 0.113398 32.6056C-0.458231 26.0489 1.14218 19.4861 4.668 13.9286C8.19386 8.37112 13.4495 4.12733 19.6249 1.85117Z" fill="black"/>
</svg>
