<svg width="68" height="40" viewBox="0 0 68 40" fill="none" xmlns="http://www.w3.org/2000/svg">
<rect x="0.5" y="0.5" width="67" height="39" rx="4.5" fill="white"/>
<rect x="0.5" y="0.5" width="67" height="39" rx="4.5" stroke="black"/>
<path d="M10.0326 19V4.45455H16.0411C17.1301 4.45455 18.07 4.65104 18.8607 5.04403C19.6562 5.43229 20.2693 5.991 20.7002 6.72017C21.1311 7.4446 21.3465 8.30398 21.3465 9.2983C21.3465 10.3068 21.1263 11.1638 20.686 11.8693C20.2457 12.5701 19.6207 13.1051 18.811 13.4744C18.0013 13.839 17.0425 14.0213 15.9346 14.0213H12.1349V11.2514H15.2812C15.8115 11.2514 16.2542 11.1828 16.6093 11.0455C16.9691 10.9034 17.2414 10.6903 17.4261 10.4062C17.6107 10.1174 17.703 9.74811 17.703 9.2983C17.703 8.84848 17.6107 8.4768 17.4261 8.18324C17.2414 7.88494 16.9691 7.66241 16.6093 7.51562C16.2494 7.36411 15.8067 7.28835 15.2812 7.28835H13.5482V19H10.0326ZM18.2215 12.3523L21.8437 19H18.0084L14.4573 12.3523H18.2215ZM9.55673 25.3097V22.4545H21.8508V25.3097H17.4403V37H13.9743V25.3097H9.55673Z" fill="black"/>
<path fill-rule="evenodd" clip-rule="evenodd" d="M51.1577 18.7672C50.8961 18.4218 50.4742 18.5608 50.1191 18.8297C49.4838 19.3107 48.5789 19.1856 48.0979 18.5503C47.6169 17.915 47.742 17.0101 48.3773 16.5291L55.5091 11.1295C55.8267 10.889 55.8892 10.4364 55.6488 10.1189C55.4083 9.80126 54.9558 9.73866 54.6382 9.97915L45.243 17.0925C43.9684 18.0574 42.1786 16.9271 42.5024 15.3615L43.6327 9.89579C43.7027 9.55712 43.6 9.20585 43.3587 8.95813C42.787 8.3713 41.7929 8.64395 41.6005 9.44033L39.0911 19.8285C38.4017 22.6822 39.0297 25.6947 40.8018 28.0353C43.5969 31.7271 48.8557 32.4539 52.5474 29.6588L55.9854 27.0559C56.3031 26.8154 56.9057 26.3591 56.4699 25.7837C56.2958 25.5536 55.8825 25.2814 55.3446 25.7314C54.7093 26.2124 53.8044 26.0873 53.3234 25.452C52.8424 24.8167 52.9675 23.9118 53.6028 23.4308C54.1056 23.0501 54.2056 22.7929 53.8572 22.3328C53.5088 21.8727 53.1769 21.9436 52.7318 22.2805C52.0965 22.7615 51.1917 22.6365 50.7106 22.0012C50.2296 21.3658 50.3547 20.461 50.99 19.98C51.3451 19.5389 51.6035 19.3561 51.1577 18.7672ZM53.5523 19.8497C54.36 18.6946 53.9876 18.0344 53.4933 17.3815C52.999 16.7286 52.5624 16.7983 52.1581 16.7424C52.0929 16.6009 54.9188 14.6522 57.2194 12.9104C58.7856 11.4315 58.6852 9.87853 57.6043 8.63831C56.7331 7.48763 54.8297 6.21482 53.2414 7.41729L45.9502 12.9376L46.4585 10.4802C46.7225 9.20318 46.3355 7.87838 45.4255 6.9444C43.2696 4.73172 39.521 5.75985 38.7956 8.76279L36.2862 19.1509C35.3936 22.8459 36.2067 26.7465 38.5013 29.7771C42.2584 34.7395 49.3269 35.7165 54.2893 31.9594L57.67 29.3998C59.4759 27.6735 59.3555 25.7705 58.3104 24.3902C58.1362 24.1601 57.4336 23.0639 56.165 23.3005C56.8237 22.2584 56.4032 21.2249 56.0087 20.7038C55.7046 20.3022 54.8826 19.3848 53.5523 19.8497Z" fill="black"/>
</svg>
