<svg width="40" height="51" viewBox="0 0 40 51" fill="none" xmlns="http://www.w3.org/2000/svg">
<path d="M35 0C37.7614 0 40 2.23858 40 5V46C40 48.7614 37.7614 51 35 51H5C2.23858 51 0 48.7614 0 46V5C0 2.23858 2.23858 0 5 0H35Z" fill="white"/>
<path fill-rule="evenodd" clip-rule="evenodd" d="M37 46V5C37 3.89543 36.1046 3 35 3H5C3.89543 3 3 3.89543 3 5V46C3 47.1046 3.89543 48 5 48H35C36.1046 48 37 47.1046 37 46ZM40 5C40 2.23858 37.7614 0 35 0H5C2.23858 0 0 2.23858 0 5V46C0 48.7614 2.23858 51 5 51H35C37.7614 51 40 48.7614 40 46V5Z" fill="black"/>
<path d="M15.8312 12.833C18.6102 11.8088 21.6488 11.7268 24.479 12.5997C26.4365 13.2035 28.2191 14.2409 29.7013 15.6213L31.1193 14.2033C32.1824 13.1402 34 13.8931 34 15.3965V22.125H27.2714C25.768 22.125 25.0152 20.3074 26.0782 19.2443L27.3128 18.0098C26.2189 17.015 24.9138 16.2657 23.4843 15.8248C21.3616 15.1701 19.0826 15.2316 16.9984 15.9998C14.9142 16.768 13.1404 18.2003 11.9505 20.0759C10.7605 21.9516 10.2204 24.1665 10.4133 26.3794C10.6062 28.5923 11.5215 30.6803 13.0181 32.3217C14.5147 33.9631 16.5095 35.0669 18.6953 35.4628C20.881 35.8587 23.1362 35.5249 25.1135 34.5128C27.0909 33.5008 28.6803 31.8664 29.6373 29.8618C30.0388 29.0208 31.046 28.6644 31.8873 29.0658C32.7283 29.4673 33.0845 30.4747 32.6831 31.3158C31.4072 33.9884 29.2878 36.1675 26.6514 37.5172C24.0149 38.8667 21.008 39.3117 18.0937 38.7838C15.1794 38.2558 12.5196 36.7843 10.5241 34.5956C8.52864 32.4071 7.30826 29.6231 7.05103 26.6725C6.7938 23.722 7.51398 20.7688 9.1006 18.2679C10.6872 15.767 13.0523 13.8573 15.8312 12.833Z" fill="black"/>
</svg>
