<svg width="61" height="63" viewBox="0 0 61 63" fill="none" xmlns="http://www.w3.org/2000/svg">
<path d="M56.8031 7.88755C59.474 8.58875 61.0708 11.3224 60.3696 13.9933L49.9585 53.6494C49.2573 56.3204 46.5236 57.9171 43.8527 57.2159L14.836 49.598C12.1651 48.8968 10.5684 46.1632 11.2696 43.4923L21.6807 3.83613C22.3819 1.16522 25.1155 -0.431543 27.7864 0.269664L56.8031 7.88755Z" fill="white"/>
<path fill-rule="evenodd" clip-rule="evenodd" d="M47.0568 52.8877L57.4679 13.2315C57.7484 12.1632 57.1097 11.0697 56.0413 10.7892L27.0247 3.17133C25.9563 2.89085 24.8628 3.52955 24.5824 4.59792L14.1712 44.2541C13.8908 45.3224 14.5295 46.4159 15.5978 46.6964L44.6145 54.3142C45.6829 54.5947 46.7763 53.956 47.0568 52.8877ZM60.3696 13.9933C61.0708 11.3224 59.474 8.58875 56.8031 7.88755L27.7864 0.269664C25.1155 -0.431543 22.3819 1.16522 21.6807 3.83613L11.2696 43.4923C10.5684 46.1632 12.1651 48.8968 14.836 49.598L43.8527 57.2159C46.5236 57.9171 49.2573 56.3204 49.9585 53.6494L60.3696 13.9933Z" fill="black"/>
<path d="M45.5 6.00003C48.2614 6.00003 50.5 8.23861 50.5 11V52C50.5 54.7615 48.2614 57 45.5 57H15.5C12.7385 57 10.5 54.7615 10.5 52V11C10.5 8.23861 12.7385 6.00003 15.5 6.00003H45.5Z" fill="white"/>
<path fill-rule="evenodd" clip-rule="evenodd" d="M47.5 52V11C47.5 9.89546 46.6045 9.00003 45.5 9.00003H15.5C14.3954 9.00003 13.5 9.89546 13.5 11V52C13.5 53.1046 14.3954 54 15.5 54H45.5C46.6045 54 47.5 53.1046 47.5 52ZM50.5 11C50.5 8.23861 48.2614 6.00003 45.5 6.00003H15.5C12.7385 6.00003 10.5 8.23861 10.5 11V52C10.5 54.7615 12.7385 57 15.5 57H45.5C48.2614 57 50.5 54.7615 50.5 52V11Z" fill="black"/>
<path d="M34.2494 6.02994C36.9516 5.46114 39.6033 7.1906 40.1721 9.89281L48.6174 50.0136C49.1862 52.7158 47.4567 55.3675 44.7545 55.9363L15.3979 62.1158C12.6957 62.6846 10.044 60.9551 9.47518 58.2529L1.02987 18.1321C0.461063 15.4299 2.19053 12.7782 4.89273 12.2094L34.2494 6.02994Z" fill="white"/>
<path fill-rule="evenodd" clip-rule="evenodd" d="M45.6817 50.6315L37.2364 10.5108C37.0089 9.42987 35.9482 8.73809 34.8673 8.96561L5.51068 15.1451C4.4298 15.3726 3.73801 16.4333 3.96554 17.5142L12.4108 57.635C12.6384 58.7158 13.699 59.4076 14.7799 59.1801L44.1366 53.0006C45.2175 52.7731 45.9093 51.7124 45.6817 50.6315ZM40.1721 9.89281C39.6033 7.1906 36.9516 5.46114 34.2494 6.02994L4.89273 12.2094C2.19053 12.7782 0.461063 15.4299 1.02987 18.1321L9.47518 58.2529C10.044 60.9551 12.6957 62.6846 15.3979 62.1158L44.7545 55.9363C47.4567 55.3675 49.1862 52.7158 48.6174 50.0136L40.1721 9.89281Z" fill="black"/>
</svg>
