<svg width="48" height="46" viewBox="0 0 48 46" fill="none" xmlns="http://www.w3.org/2000/svg">
<path d="M22.2268 4.62248C22.8055 3.32403 23.095 2.6748 23.498 2.47488C23.848 2.30118 24.259 2.30118 24.609 2.47488C25.012 2.6748 25.3015 3.32403 25.8803 4.62248L30.4903 14.9648C30.6615 15.3487 30.747 15.5406 30.8795 15.6876C30.9965 15.8176 31.1398 15.9216 31.2995 15.9928C31.4803 16.0733 31.6893 16.0954 32.1073 16.1395L43.368 17.328C44.7818 17.4772 45.4885 17.5518 45.8033 17.8733C46.0765 18.1525 46.2035 18.5435 46.1465 18.9301C46.081 19.3751 45.553 19.8509 44.497 20.8026L36.0853 28.3831C35.7733 28.6644 35.617 28.8051 35.5183 28.9764C35.4308 29.1281 35.376 29.2964 35.3578 29.4704C35.337 29.6671 35.3805 29.8726 35.4678 30.2839L37.8173 41.3606C38.1123 42.7514 38.2598 43.4466 38.0513 43.8451C37.87 44.1916 37.5375 44.4331 37.1523 44.4984C36.7088 44.5734 36.093 44.2184 34.8615 43.5081L25.0528 37.8506C24.6888 37.6406 24.5068 37.5359 24.3133 37.4946C24.142 37.4584 23.965 37.4584 23.7938 37.4946C23.6003 37.5359 23.4183 37.6406 23.0543 37.8506L13.2456 43.5081C12.0141 44.2184 11.3984 44.5734 10.9549 44.4984C10.5696 44.4331 10.237 44.1916 10.0559 43.8451C9.84745 43.4466 9.99492 42.7514 10.2899 41.3606L12.6393 30.2839C12.7265 29.8726 12.7701 29.6671 12.7494 29.4704C12.7311 29.2964 12.6764 29.1281 12.5889 28.9764C12.49 28.8051 12.3339 28.6644 12.0217 28.3831L3.6102 20.8026C2.55417 19.8509 2.02615 19.3751 1.9605 18.9301C1.9035 18.5435 2.03052 18.1525 2.30387 17.8733C2.61857 17.5518 3.32545 17.4772 4.7392 17.328L15.9999 16.1395C16.4179 16.0954 16.6268 16.0733 16.8075 15.9928C16.9674 15.9216 17.1105 15.8176 17.2277 15.6876C17.3601 15.5406 17.4456 15.3487 17.6167 14.9648L22.2268 4.62248Z" stroke="black" stroke-width="3" stroke-linecap="round" stroke-linejoin="round"/>
</svg>
