<svg width="48" height="46" viewBox="0 0 48 46" fill="none" xmlns="http://www.w3.org/2000/svg">
<path d="M22.2797 4.27788C22.8584 2.97943 23.1479 2.3302 23.5509 2.13028C23.9009 1.95657 24.3119 1.95657 24.6619 2.13028C25.0649 2.3302 25.3544 2.97943 25.9332 4.27788L30.5432 14.6202C30.7144 15.0041 30.7999 15.196 30.9324 15.343C31.0494 15.473 31.1927 15.577 31.3524 15.6482C31.5332 15.7287 31.7422 15.7508 32.1602 15.7949L43.4209 16.9834C44.8347 17.1326 45.5414 17.2072 45.8562 17.5287C46.1294 17.8079 46.2564 18.1989 46.1994 18.5855C46.1339 19.0305 45.6059 19.5062 44.5499 20.458L36.1382 28.0385C35.8262 28.3197 35.6699 28.4605 35.5712 28.6318C35.4837 28.7835 35.4289 28.9517 35.4107 29.1257C35.3899 29.3225 35.4334 29.528 35.5207 29.9393L37.8702 41.016C38.1652 42.4067 38.3127 43.102 38.1042 43.5005C37.9229 43.847 37.5904 44.0885 37.2052 44.1537C36.7617 44.2287 36.1459 43.8738 34.9144 43.1635L25.1057 37.506C24.7417 37.296 24.5597 37.1912 24.3662 37.15C24.1949 37.1138 24.0179 37.1138 23.8467 37.15C23.6532 37.1912 23.4712 37.296 23.1072 37.506L13.2985 43.1635C12.067 43.8738 11.4513 44.2287 11.0078 44.1537C10.6225 44.0885 10.2899 43.847 10.1088 43.5005C9.90034 43.102 10.0478 42.4067 10.3428 41.016L12.6922 29.9393C12.7794 29.528 12.823 29.3225 12.8023 29.1257C12.784 28.9517 12.7293 28.7835 12.6418 28.6318C12.5429 28.4605 12.3868 28.3197 12.0746 28.0385L3.66308 20.458C2.60706 19.5062 2.07903 19.0305 2.01338 18.5855C1.95638 18.1989 2.08341 17.8079 2.35676 17.5287C2.67146 17.2072 3.37833 17.1326 4.79208 16.9834L16.0528 15.7949C16.4708 15.7508 16.6797 15.7287 16.8604 15.6482C17.0203 15.577 17.1634 15.473 17.2806 15.343C17.413 15.196 17.4985 15.0041 17.6696 14.6202L22.2797 4.27788Z" fill="#FFF200" stroke="#FFF200" stroke-width="3" stroke-linecap="round" stroke-linejoin="round"/>
</svg>
