<svg width="68" height="40" viewBox="0 0 68 40" fill="none" xmlns="http://www.w3.org/2000/svg">
<rect x="0.5" y="0.5" width="67" height="39" rx="4.5" fill="white"/>
<rect x="0.5" y="0.5" width="67" height="39" rx="4.5" stroke="black"/>
<path fill-rule="evenodd" clip-rule="evenodd" d="M22.1312 23.0336L12.0408 29.8554C9.58203 31.5179 6.2518 29.7711 6.2518 26.8224V13.1779C6.2518 10.2274 9.58203 8.48242 12.0408 10.1449L22.1312 16.9667C24.2872 18.4245 24.2872 21.5758 22.1312 23.0336Z" fill="black"/>
<path fill-rule="evenodd" clip-rule="evenodd" d="M34.4438 6.16033C34.687 5.93964 35.0601 5.96102 35.2773 6.20815L41.9618 13.815C42.3962 14.3093 43.1424 14.3521 43.6287 13.9107C44.115 13.4692 44.1572 12.7107 43.7228 12.2164L38.6112 6.39942C38.394 6.1523 38.4151 5.773 38.6582 5.55231C38.9013 5.33163 39.2745 5.353 39.4917 5.60013L46.1508 13.1781C47.0221 14.1697 48.6373 13.5338 48.624 12.2043L48.5775 7.56279C48.5746 7.27518 48.7124 7.00497 48.9452 6.84144C49.4967 6.45408 50.252 6.83576 50.281 7.51649L50.6593 16.3959C50.7633 18.8353 49.7844 21.1931 47.9928 22.8195C45.1669 25.3848 40.8299 25.1359 38.306 22.2638L32.2594 15.3829C32.0422 15.1357 32.0633 14.7564 32.3064 14.5358C32.5495 14.3151 32.9227 14.3364 33.1399 14.5836L36.6788 18.6107C37.1131 19.105 37.8594 19.1478 38.3457 18.7064C38.832 18.2649 38.8741 17.5064 38.4398 17.0122L33.3281 11.1951C33.1109 10.948 33.132 10.5687 33.3751 10.348C33.6183 10.1274 33.9914 10.1487 34.2086 10.3959L39.3203 16.2129C39.7546 16.7071 40.5009 16.75 40.9872 16.3085C41.4735 15.8671 41.5156 15.1086 41.0813 14.6143L34.3968 7.00743C34.1796 6.76031 34.2007 6.38101 34.4438 6.16033ZM32.3226 8.17956C31.5862 6.96577 31.788 5.3536 32.871 4.37048C33.954 3.38735 35.5529 3.36498 36.6567 4.24531C36.7795 4.07243 36.9225 3.91033 37.0854 3.76246C38.3011 2.65887 40.1669 2.76592 41.2527 4.00155L46.2374 9.67413L46.2165 7.58723C46.2056 6.5028 46.7251 5.48363 47.603 4.86712C49.6826 3.40658 52.5306 4.84586 52.6399 7.41268L53.0183 16.2921C53.1528 19.4505 51.8855 22.5035 49.5656 24.6094C45.7671 28.0575 39.9375 27.723 36.5449 23.8623L30.4984 16.9814C29.4126 15.7458 29.5179 13.8495 30.7336 12.7459C30.8965 12.598 31.0711 12.4719 31.2539 12.3673C30.5175 11.1535 30.7193 9.54131 31.8023 8.55819C31.9652 8.41032 32.1398 8.2842 32.3226 8.17956Z" fill="black"/>
<path d="M34.4438 6.16033C34.687 5.93964 35.0601 5.96102 35.2773 6.20815L41.9618 13.815C42.3962 14.3093 43.1424 14.3521 43.6287 13.9107C44.115 13.4692 44.1572 12.7107 43.7228 12.2164L38.6112 6.39942C38.394 6.1523 38.4151 5.773 38.6582 5.55231C38.9013 5.33163 39.2745 5.353 39.4917 5.60013L46.1508 13.1781C47.0221 14.1697 48.6373 13.5338 48.624 12.2043L48.5775 7.56279C48.5746 7.27518 48.7124 7.00497 48.9452 6.84144C49.4967 6.45408 50.252 6.83576 50.281 7.51649L50.6593 16.3959C50.7633 18.8353 49.7844 21.1931 47.9928 22.8195C45.1669 25.3848 40.8299 25.1359 38.306 22.2638L32.2594 15.3829C32.0422 15.1357 32.0633 14.7564 32.3064 14.5358C32.5495 14.3151 32.9227 14.3364 33.1399 14.5836L36.6788 18.6107C37.1131 19.105 37.8594 19.1478 38.3457 18.7064C38.832 18.2649 38.8741 17.5064 38.4398 17.0122L33.3281 11.1951C33.1109 10.948 33.132 10.5687 33.3751 10.348C33.6183 10.1274 33.9914 10.1487 34.2086 10.3959L39.3203 16.2129C39.7546 16.7071 40.5009 16.75 40.9872 16.3085C41.4735 15.8671 41.5156 15.1086 41.0813 14.6143L34.3968 7.00743C34.1796 6.76031 34.2007 6.38101 34.4438 6.16033Z" fill="white"/>
<path fill-rule="evenodd" clip-rule="evenodd" d="M38.1368 26.8009C38.1368 26.4696 38.4011 26.2009 38.7271 26.2009H48.7619C49.414 26.2009 49.9425 25.6637 49.9425 25.001C49.9425 24.3383 49.414 23.8011 48.7619 23.8011H41.0883C40.7622 23.8011 40.498 23.5325 40.498 23.2012C40.498 22.8699 40.7622 22.6012 41.0883 22.6012H51.085C52.393 22.6012 53.0023 20.9532 52.0178 20.0777L48.5808 17.0211C48.3679 16.8317 48.2614 16.5473 48.2964 16.2619C48.3796 15.5858 49.1627 15.2675 49.6816 15.699L56.4496 21.327C58.3089 22.8731 59.3871 25.1858 59.3871 27.6274C59.3871 31.4783 56.3155 34.6002 52.5265 34.6002H43.4494C43.1234 34.6002 42.8591 34.3316 42.8591 34.0003C42.8591 33.669 43.1234 33.4003 43.4494 33.4003H48.7619C49.414 33.4003 49.9425 32.8631 49.9425 32.2004C49.9425 31.5377 49.414 31.0005 48.7619 31.0005H41.0883C40.7622 31.0005 40.498 30.7319 40.498 30.4006C40.498 30.0693 40.7622 29.8006 41.0883 29.8006H48.7619C49.414 29.8006 49.9425 29.2634 49.9425 28.6007C49.9425 27.938 49.414 27.4008 48.7619 27.4008H38.7271C38.4011 27.4008 38.1368 27.1322 38.1368 26.8009ZM38.2056 29.7539C36.8243 29.5036 35.7757 28.2768 35.7757 26.8009C35.7757 25.325 36.8243 24.0981 38.2056 23.8478C38.1606 23.6395 38.1368 23.4232 38.1368 23.2012C38.1368 21.5445 39.4582 20.2014 41.0883 20.2014H48.5714L47.026 18.8272C46.223 18.113 45.8212 17.0403 45.9535 15.9642C46.2671 13.4148 49.2204 12.2147 51.1768 13.8416L57.9448 19.4697C60.3521 21.4716 61.7482 24.466 61.7482 27.6274C61.7482 32.8037 57.6195 37 52.5265 37H43.4494C41.8194 37 40.498 35.657 40.498 34.0003C40.498 33.7783 40.5217 33.5619 40.5667 33.3536C39.1854 33.1033 38.1368 31.8764 38.1368 30.4006C38.1368 30.1786 38.1606 29.9622 38.2056 29.7539Z" fill="black"/>
<path d="M38.1368 26.8009C38.1368 26.4696 38.4011 26.2009 38.7271 26.2009H48.7619C49.414 26.2009 49.9425 25.6637 49.9425 25.001C49.9425 24.3383 49.414 23.8011 48.7619 23.8011H41.0883C40.7622 23.8011 40.498 23.5325 40.498 23.2012C40.498 22.8699 40.7622 22.6012 41.0883 22.6012H51.085C52.393 22.6012 53.0023 20.9532 52.0178 20.0777L48.5808 17.0211C48.3679 16.8317 48.2614 16.5473 48.2964 16.2619C48.3796 15.5858 49.1627 15.2675 49.6816 15.699L56.4496 21.327C58.3089 22.8731 59.3871 25.1858 59.3871 27.6274C59.3871 31.4783 56.3155 34.6002 52.5265 34.6002H43.4494C43.1234 34.6002 42.8591 34.3316 42.8591 34.0003C42.8591 33.669 43.1234 33.4003 43.4494 33.4003H48.7619C49.414 33.4003 49.9425 32.8631 49.9425 32.2004C49.9425 31.5377 49.414 31.0005 48.7619 31.0005H41.0883C40.7622 31.0005 40.498 30.7319 40.498 30.4006C40.498 30.0693 40.7622 29.8006 41.0883 29.8006H48.7619C49.414 29.8006 49.9425 29.2634 49.9425 28.6007C49.9425 27.938 49.414 27.4008 48.7619 27.4008H38.7271C38.4011 27.4008 38.1368 27.1322 38.1368 26.8009Z" fill="white"/>
</svg>
