<?xml version="1.0" encoding="iso-8859-1"?>
<!-- Generator: Adobe Illustrator 28.7.4, SVG Export Plug-In . SVG Version: 9.03 Build 55973)  -->
<svg version="1.1" id="Lager_1" xmlns="http://www.w3.org/2000/svg" xmlns:xlink="http://www.w3.org/1999/xlink" x="0px" y="0px"
	 viewBox="0 0 300 240" style="enable-background:new 0 0 300 240;" xml:space="preserve">
<g>
	<rect x="4.87" y="2" style="fill:#FFFFFF;" width="288.27" height="238"/>
	<rect x="4.87" y="2" style="fill:#FFFFFF;" width="288.27" height="238"/>
	<g id="F&#xE4;rg_1_">
		
			<linearGradient id="SVGID_1_" gradientUnits="userSpaceOnUse" x1="138.2437" y1="61.5479" x2="182.6121" y2="79.5726" gradientTransform="matrix(1 0 0 -1 0 252.3478)">
			<stop  offset="0" style="stop-color:#FFFFFF"/>
			<stop  offset="1" style="stop-color:#DADADA"/>
		</linearGradient>
		<polygon style="fill:url(#SVGID_1_);" points="148.53,222.58 166.66,186.95 174.23,173.09 173.46,170.56 165.17,166.01 
			158.8,160.18 157.38,147.07 131.63,172.45 		"/>
	</g>
	<g id="F&#xE4;rg_2_">
		
			<linearGradient id="SVGID_00000045581327740162984390000003864578104234302118_" gradientUnits="userSpaceOnUse" x1="18.6166" y1="56.787" x2="55.3592" y2="77.2381" gradientTransform="matrix(1 0 0 -1 0 252.3478)">
			<stop  offset="0" style="stop-color:#FFFFFF"/>
			<stop  offset="1" style="stop-color:#DADADA"/>
		</linearGradient>
		<polygon style="fill:url(#SVGID_00000045581327740162984390000003864578104234302118_);" points="31.86,228.43 46.43,197.02 
			56.02,178.37 49.42,174.62 41.24,166.01 33.44,147.07 7.7,172.45 		"/>
	</g>
	<g id="Lager_2_1_">
		<path style="fill-rule:evenodd;clip-rule:evenodd;fill:#FFFFFF;" d="M33.2,147.94c0,0,4.9-5.95,5.95-7
			c1.05-1.05,8.05-15.74,8.05-16.79s9.45-21.69,9.8-23.79c0.35-2.1,1.05-4.2,3.85-5.25c2.8-1.05,26.24-8.05,29.04-8.75
			c2.8-0.7,12.59-1.05,16.44-1.05c3.85,0,22.04,1.4,22.04,1.4s3.15,5.95,2.8,7s0,1.75-2.45,2.8c-2.45,1.05-11.19,3.5-12.94,3.5
			c-1.75,0-13.3,1.75-13.3,1.75s3.15,1.05,3.15,5.95s-0.7,7.35-0.7,7.35s2.45,3.15,2.45,5.95c0,2.8-0.35,5.95-1.75,8.05
			c-1.4,2.1,0-0.7,0.35,3.15c0.35,3.85,1.05,5.95-1.05,9.1c-2.1,3.15-6.3,6.65-8.05,7.7c-1.75,1.05-11.2,3.15-11.2,3.15l-0.7,2.8
			c0,0-0.7,7-8.4,11.54c-7.7,4.55-15.74,6.3-15.74,6.3l-3.15,5.25l-5.6-1.05l-8.75-7.7l-7.35-9.8L33.2,147.94z"/>
		<path style="fill-rule:evenodd;clip-rule:evenodd;fill:#FFFFFF;" d="M157.4,148.29c0,0,6.3-7.35,8.75-11.54
			c2.45-4.2,10.5-23.79,10.5-23.79s2.45-10.5,5.25-15.39c2.8-4.9,3.15-7.7,5.95-9.1c2.8-1.4,5.6-1.05,5.6-1.05s2.8-5.25,5.25-5.95
			s29.74-0.35,30.79-0.35S255,89.17,255,89.17s5.6,1.75,7,2.8c1.4,1.05,2.8,2.45,2.1,3.85c-0.7,1.4-4.2,3.15-4.55,4.2
			s3.15,1.75,3.15,4.55c0,2.8-1.05,6.65-3.15,6.65s-7.35,1.05-7.35,1.05s0,6.3-2.8,6.65c-2.8,0.35-5.6,1.05-7,1.05s-6.3-1.05-7,0
			c-0.7,1.05-2.1,4.9-6.3,5.95c-4.2,1.05-11.19,0.35-11.19,0.35s-3.15,9.45-7.7,14.69c-4.55,5.25-13.29,10.5-15.74,11.2
			c-2.45,0.7-1.75-0.35-4.2,2.8c-2.45,3.15-4.9,5.6-7.7,6.65c-2.8,1.05-5.95,6.3-5.95,6.3l-1.05,2.8c0,0-5.95-0.7-9.45-2.45
			c-3.5-1.75-7-6.65-7.35-8.05c-0.35-1.4-1.75-7-1.75-7L157.4,148.29z"/>
	</g>
	<g>
		<path style="fill-rule:evenodd;clip-rule:evenodd;fill:#FFFFFF;" d="M77.68,66.96c0.06,0.27,0.4,0.36,0.65,0.31
			c0.14,0.15,0.37,0.21,0.48,0.39c0.72,0.09,0.89,0.74,1.52,0.91c0.17,0.34,0.53,0.49,0.7,0.83c0.07,0,0.2,0.06,0.31,0.13
			c0.33,0.41,0.68,0.99,1.13,1.39c0.01,0.12,0.08,0.18,0.09,0.31c0.27,0.1,0.26,0.41,0.39,0.65c0.02,0.03,0.15,0.08,0.17,0.13
			c0.02,0.05-0.03,0.13,0,0.17c0.16,0.25,0.47,0.51,0.57,0.79c0.02,0.06-0.03,0.16,0,0.22c0.12,0.26,0.36,0.5,0.44,0.78
			c0.11,0.39,0.15,0.84,0.35,1.26c0.14,0.3,0.3,0.51,0.3,0.78c0,0.13-0.06,0.26-0.04,0.39c0.05,0.43,0.25,0.89,0.26,1.31
			c0.01,0.28-0.14,0.49,0.13,0.65c-0.14,0.17,0.03,0.4-0.13,0.52c0.01,0.09,0.16,0.04,0.17,0.13c0.02,0.42,0.1,0.88-0.09,1.18
			c0.31,1.16-0.06,2.47,0.09,3.36c-0.3,1.27-0.55,2.6-0.43,3.97c0.07,0.17,0.3,0.19,0.35,0.39c-2.21,0.45-4.34,0.94-6.49,1.35
			c-0.06,0.01-0.02,0.13-0.09,0.13c-1.84,0.4-3.51,0.78-5.27,1.22c-0.34,0.09-0.73,0.15-1.05,0.26c-0.6,0.22-1.98,0.53-2.88,0.83
			c-0.33,0.11-0.91,0.25-1.22,0.48c-0.41-0.1-0.54,0.14-0.96,0.17c0.94-0.31,1.3-1.37,1.83-2.18c0.41-0.62,0.63-1.31,0.92-2
			c0.09,0,0.06-0.12,0.17-0.09c-0.03-0.26,0.18-0.28,0.13-0.57c0.07-0.02,0.11-0.07,0.18-0.09c-0.07-0.41,0.27-0.66,0.43-1
			c0.09-0.2,0.05-0.43,0.13-0.65c0.1-0.27,0.31-0.53,0.44-0.83c0.12-0.29,0.18-0.65,0.31-0.96c0.11-0.28,0.32-0.54,0.39-0.78
			c0.13-0.43,0.11-0.75,0.22-1.18c0.06-0.24,0.22-0.45,0.26-0.7c0.08-0.47,0.05-0.97,0.31-1.31c0.19,0.11,0.22,0.4,0.57,0.35
			c0.2-0.24,0.44-0.43,0.7-0.61c0.09-1.1-0.34-2.41-0.39-3.44c0.04-0.14-0.14-0.06-0.13-0.17c-0.35-1.87-0.52-4.49-0.61-6.28
			c0.28-0.98,0.35-2.29,1.09-2.92c0.25,0.02,0.39-0.07,0.52-0.17c0.31,0.03,0.47-0.09,0.65-0.17C76.12,66.62,76.9,66.9,77.68,66.96z
			"/>
		<path style="fill-rule:evenodd;clip-rule:evenodd;fill:#FFFFFF;" d="M131.98,89.15c-0.04,0.41-0.02,0.63,0.18,0.87
			c0.01,0.11-0.1,0.11-0.13,0.17c0.17,1.65-0.25,3.67-1.13,4.4c-0.2,0,0.03-0.08,0.04-0.13c-0.1-0.1-0.27,0.11-0.39,0.13
			c-0.54,0-1.04-0.04-1.61,0c-0.22,0.02-0.52-0.11-0.7-0.09c-0.23,0.03-0.55,0.18-0.91,0.13c-0.1-0.02-0.17-0.11-0.26-0.13
			c-0.18-0.05-0.37,0.02-0.57,0c-0.79-0.09-1.61-0.31-2.27-0.52c0.02-0.47-0.38-1.13-0.3-1.66c0.04-0.14-0.14-0.06-0.13-0.17
			c-0.14-1.58,0.09-3.39-0.52-4.97c0.13-0.09,0.15-0.29,0.26-0.39c1.01-0.06,2.14-0.08,3.27-0.13c0.94-0.04,1.96-0.27,2.74-0.13
			c0.45,0.08,1.39,0.63,1.66,1c0.29,0.41,0.39,1,0.57,1.52C131.8,89.1,131.92,89.04,131.98,89.15z"/>
		<path style="fill-rule:evenodd;clip-rule:evenodd;" d="M96.11,90.45c-0.24,0.05-0.25-0.15-0.44-0.04
			C95.64,89.91,96.19,90.04,96.11,90.45z"/>
		<path style="fill-rule:evenodd;clip-rule:evenodd;" d="M95.89,90.5c0.12,0.14,0.14,0.44,0.13,0.7c0.01,0.08,0.15,0.03,0.17,0.09
			c0.12,0.75,0.41,2.27,0.26,3.18c0.15,0.13,0.2,0.35,0.17,0.65c-0.22,0.09-0.26-0.03-0.44-0.09c0.03-0.63-0.25-1.38,0.05-1.66
			c-0.53-0.43-0.19-1.32-0.39-1.87c-0.01-0.1,0.04-0.14,0.13-0.13c-0.08-0.09-0.2-0.12-0.26-0.22
			C95.76,90.84,95.68,90.66,95.89,90.5z"/>
		<path style="fill-rule:evenodd;clip-rule:evenodd;" d="M97.2,98.56c0.04,0.13,0.02,0.53-0.22,0.52c-0.03-0.08-0.07-0.16-0.09-0.26
			C97.09,98.83,97.02,98.57,97.2,98.56z"/>
		<path style="fill-rule:evenodd;clip-rule:evenodd;" d="M57.06,106.1c0.08,0.49,0.63,0.69,0.61,1.13c0.89,1.07,1.11,3.28,0.61,4.71
			c-0.14,0.98-0.17,2.11-0.22,2.92c0.04,0.14-0.11,0.09-0.13,0.17c0.1,0.3,0.03,1.07-0.09,1.44c0.03,0.79,0.02,1.51,0.17,2.31
			c0.23,1.19,0.64,2.22,1,3.27c0.39,0.51,0.74,1.16,1.09,1.79c0.36,0.64,0.93,1.38,0.87,2.35c0.22,0.23,0.21,0.69,0.39,0.96
			c0.04,1.64,0.1,3.2-0.13,4.79c0.01,0.09-0.03,0.14-0.13,0.13c-0.01,0.16,0.13,0.16,0.13,0.3c-0.01,0.68,0.02,1.19,0,2
			c0.64,2.37,1.14,4.82,2.83,6.28c0.42,0.82,1.15,1.36,1.39,2.35c0.06,0.24-0.04,0.45,0.18,0.61c0.02,1.07,0.02,1.86,0.26,2.75
			c-0.21,0.59,0.42,1.29,0.22,1.66c0.32,0.29,0.26,0.96,0.65,1.18c0.01,0.37,0.41,0.58,0.35,0.87c0.24,0.29,0.56,0.51,0.7,0.91
			c0.23,0.22,0.64,0.49,0.65,0.79c-0.35,0.13-0.66-0.15-0.65-0.52c-0.17-0.08-0.19-0.06-0.35-0.17c-0.03-0.1,0.02-0.24-0.09-0.35
			c-0.71-0.43-1.03-1.26-1.35-2.09c-0.02-0.1-0.23,0-0.26-0.09c-0.07-0.6-0.76-0.77-0.61-1.44c-0.01-0.06-0.13-0.02-0.13-0.09
			c-0.16-0.85-0.34-1.88-0.31-2.7c0.04-0.14-0.14-0.06-0.13-0.17c-0.14-0.83-0.32-1.62-0.87-2.05c-0.08-0.54-0.56-0.77-0.87-1.09
			c-0.27-0.27-0.34-0.74-0.74-0.87c-0.05-0.36-0.25-0.56-0.44-0.79c-0.2-0.85-0.72-1.6-0.79-2.44c-0.84-1.74-0.89-3.88-0.7-5.67
			c0.09-0.81,0.14-1.59,0.04-2.18c0.11-1.8-0.36-3.15-1.05-4.53c-0.01-0.06-0.11-0.03-0.18-0.04c0.11-0.42-0.59-1.07-0.79-1.44
			c-0.1-0.2-0.16-0.49-0.22-0.7c-0.33-0.28-0.38-0.84-0.61-1.22c-0.02-0.58-0.37-0.92-0.44-1.48c-0.1-0.93-0.13-2.01-0.31-2.75
			c-0.01-0.1,0.13-0.05,0.13-0.13c0.03-0.94-0.06-1.79,0.17-2.61c-0.1-1.9,0.69-3.5,0.31-5.36c-0.34-0.82-0.91-1.91-0.52-2.74
			C56.9,106.08,56.91,106.19,57.06,106.1z"/>
		<path style="fill-rule:evenodd;clip-rule:evenodd;" d="M105.7,129.9c-0.23,0-0.32,0.15-0.57,0.13c0.01,0.38,0.23,0.55,0.52,0.65
			c0.48,0.73,1.09,1.33,1.39,2.22c0.01,0.16-0.01,0.28-0.05,0.39c0.01,0.12,0.14,0.12,0.18,0.22c-0.02,0.13-0.03,0.27-0.13,0.3
			c0.44,0.71,0.32,1.62,0.26,2.53c0.06,0.41,0.13,0.8,0,1.26c-0.16,0.59-0.58,0.84-0.57,1.52c-0.39,0.68-0.94,1.25-1.13,2.01
			c-0.18,0-0.14,0.24-0.3,0.26c0,0.14-0.07,0.22-0.04,0.39c-0.24,0.25-0.53,0.46-0.57,0.92c-0.47,0.15-0.95,0.64-1.18,1.18
			c-0.33,0.11-0.49,0.41-0.65,0.7c-0.08,0-0.09-0.05-0.17-0.04c-0.58,0.67-1.36,1.14-1.96,1.79c-0.06-0.06-0.16-0.06-0.22,0
			c-0.45,0.45-1.06,0.74-1.52,1.18c-0.71,0.19-1.21,0.59-1.87,0.83c-2.05,1.03-4.17,1.99-6.54,2.7c-0.08,0.05-0.15,0.11-0.22,0.17
			c-0.81,0.1-1.48,0.5-2.09,0.74c-0.18,0.07-0.39,0.05-0.57,0.13c-0.44,0.22-0.63,0.73-1.09,0.91c0.06,0.23-0.26,0.35-0.39,0.48
			c-0.13,0.13-0.46,0.45-0.74,0.61c-0.11,0.06-0.29,0.06-0.44,0.13c-0.23,0.12-0.66,0.43-0.96,0.44c-0.12,0.01-0.36-0.17-0.57-0.17
			c-0.25-0.01-0.35,0.11-0.57-0.09c-0.06-0.56,0.57-0.56,1-0.79c0.32-0.17,0.49-0.41,0.7-0.52c-0.9-0.09-1.89,0.7-2.88,0.22
			c-0.1-0.08-0.03-0.32-0.22-0.31c0.03-0.2,0.11-0.36,0.22-0.48c1.49-0.24,3.13-1,4.75-1.39c0.52-0.41,0.44-1.23,0.87-1.66
			c0.82-0.14,0.88,0.57,0.96,1.05c0.58-0.12,1.03-0.36,1.57-0.52c1.26-0.65,2.93-0.95,4.05-1.7c2.18-0.85,4-1.83,5.75-3.05
			c0.19-0.31,0.59-0.4,0.74-0.74c0.78-0.42,1.24-1.17,1.96-1.66c0.11-0.42,0.6-0.47,0.7-0.91c0.84-0.65,1.08-1.91,1.87-2.62
			c-0.01-0.11-0.01-0.21,0.09-0.22c-0.02-0.06,0.05-0.23-0.04-0.22c0.39-0.74,0.83-1.33,0.83-2.4c-0.02-0.15,0.15-0.11,0.13-0.26
			c-0.04-0.69-0.16-1.17-0.18-1.87c-0.17-0.71-0.47-1.45-0.74-1.92c-0.46-0.44-0.92-0.64-1.26-1.18c0.09-0.17,0.05-0.38-0.04-0.61
			c-0.27,0.01-0.55,0.01-0.61,0.22c-1.53,0.48-3,0.82-4.49,1.39c-0.33-0.05-0.72,0.17-0.96,0.35c-0.2-0.03-0.26,0.06-0.44,0.05
			c-1.38,0.48-2.64,0.84-4.14,1.22c-0.06,0.07-0.23,0.03-0.22,0.17c-0.5,0.12-1.11,0.27-1.52,0.44c-0.09,0.04-0.22,0.1-0.22,0.22
			c-0.14-0.07-0.17-0.04-0.26-0.09c-0.64,0.32-1.6,0.46-2.35,0.87c-0.14,0.07-0.19,0.22-0.26,0.09c-0.06,0.07-0.12,0.14-0.18,0.22
			c-1.08,0.15-1.64,0.56-2.62,0.83c-0.11,0.02-0.07,0.19-0.17,0.22c-0.41,0.09-0.72,0.18-1.13,0.17c-0.53,0.24-0.7,1.52-1.66,1.31
			c-0.48-0.11-0.56-0.7-0.26-1.13c0.04-0.06,0.17-0.07,0.22-0.13c0.08-0.1,0.11-0.3,0.22-0.43c0.16-0.2,0.41-0.37,0.61-0.61
			c0.34-0.41,0.54-0.76,0.83-1.05c0.4-0.4,0.91-0.69,1.13-1.05c0.67-0.49,1.3,0.23,1.18,0.91c0.89-0.21,1.75-0.46,2.4-0.91
			c1.35-0.41,2.73-0.79,3.96-1.31c0.36,0.01,0.6-0.09,0.79-0.26c1.47-0.38,2.95-0.77,4.31-1.22c0.27-0.09,0.56-0.21,0.79-0.39
			c0.5-0.12,0.99-0.15,1.35-0.48c1.25-0.22,1.88-0.64,3.09-0.96c0.79-0.59,1.77-0.8,2.22-1.79c0.39-0.1,0.41-0.58,0.7-0.79
			c-0.14-0.31,0.11-0.47,0.22-0.7c0.03-0.06-0.03-0.17,0-0.26c0.02-0.06,0.14-0.11,0.17-0.17c0.03-0.07,0.02-0.26,0.05-0.31
			c0.18-0.42,0.39-0.6,0.39-1c0-0.07-0.06-0.19-0.04-0.26c0.05-0.28,0.26-0.56,0.31-0.87c0.07-0.45,0.04-1.01,0-1.48
			c-0.04-0.46-0.07-0.97-0.26-1.39c0-0.14,0.12-0.17,0.09-0.35c-0.01-0.14-0.16-0.13-0.22-0.22c-0.05-0.69-0.5-1.31-0.57-2
			c-0.3-0.11-0.3-0.33-0.52-0.57c-0.35,0.02-0.49-0.18-0.79-0.22c0.01-0.3-0.22-0.36-0.35-0.52c0.17-0.24-0.07-0.45-0.13-0.7
			c0.19-0.64,1.27-0.73,1.53-0.09c0.2,0,0.26,0.14,0.48,0.13c0.55,0.41,0.8,1.12,1.27,1.61c0.12,0.68,0.29,1.48,0.65,2.05
			c0.14,0.46,0.02,0.99,0.09,1.35c0.04,0.23,0.21,0.41,0.22,0.65c0.01,0.4-0.08,0.89-0.13,1.26c-0.12,0.83-0.1,1.79-0.44,2.66
			c-0.01,0.11,0.02,0.18,0.09,0.22c-0.17,0.29-0.3,0.36-0.26,0.83c-0.24,0.46-0.42,0.8-0.61,1.35c-0.43,0.37-0.48,1.11-1,1.39
			c0.01,0.1-0.01,0.17-0.04,0.22C106.06,129.49,105.68,129.65,105.7,129.9z"/>
		<path style="fill-rule:evenodd;clip-rule:evenodd;" d="M68.65,151.86c0.05,0.11,0.12,0.2,0.17,0.31
			c-0.12,0.12-0.14-0.08-0.26-0.09C68.53,151.94,68.63,151.95,68.65,151.86z"/>
		<path style="fill-rule:evenodd;clip-rule:evenodd;" d="M85.83,155.05c-0.08,0.25,0.17,0.37,0.22,0.61
			c-0.09,0.28-0.26,0.46-0.44,0.65c-0.09,0.61-0.41,1.13-0.61,1.7c-0.22,0.63-0.5,1.21-0.7,1.7c-0.15,0.29-0.28,0.36-0.31,0.74
			c-0.33,0.37-0.56,0.83-0.74,1.35c-0.25,0.08-0.33,0.34-0.44,0.57c-0.19,0.05-0.3,0.17-0.31,0.39c-1.84,2.16-4.37,3.53-6.8,5.01
			c-0.1,0.03-0.28,0.05-0.44,0.13c-0.12-0.02-0.04,0.16-0.13,0.17c-0.66,0.21-1.1,0.65-1.83,0.79c-0.09,0.07-0.22,0.1-0.22,0.26
			c-0.73,0.33-1.46,0.6-2.05,0.96c-0.92,0.16-1.7,0.66-2.49,0.96c-0.41,0.16-0.82,0.24-1.26,0.39c-0.37,0.12-0.65,0.32-1,0.39
			c-0.93,0.19-1.73,0.08-2.44,0.52c-1.25,0.1-2.51,0.24-3.71,0.09c0.12-0.61,0.86-0.23,1.26-0.57c1.56-0.18,2.93-0.69,4.45-1.09
			c0.91-0.5,2.16-0.66,3.01-1.22c0.46-0.1,0.89-0.25,1.18-0.52c2.19-0.69,3.89-1.86,5.84-2.79c1.23-0.81,2.6-1.59,3.75-2.53
			c0.36-0.29,0.76-0.56,1.05-0.87c0.26-0.28,0.45-0.62,0.7-0.92c0.04-0.05,0.13,0,0.18-0.04c0.02-0.02,0.36-0.47,0.39-0.52
			c0.07-0.1,0.09-0.26,0.13-0.39c0.34-0.24,0.43-0.73,0.74-1c-0.05-0.27,0.15-0.37,0.04-0.57c0.48-0.12,0.26-0.93,0.7-1.09
			c0.06-1.15,0.86-1.68,0.74-2.88c0.22-0.09,0.36-0.39,0.57-0.61C85.16,154.73,85.46,154.97,85.83,155.05z"/>
		<path style="fill-rule:evenodd;clip-rule:evenodd;" d="M85.57,87.88c0.2-0.13,0.21-0.1,0.57-0.17c0.09-0.16,0.19-0.31,0.26-0.48
			c0.57,0,1.22-0.27,1.79-0.26c1.43-0.51,3.02-0.3,4.53-0.83c0.44-0.15,1.06-0.17,1.48-0.22c0.83-0.09,1.68-0.14,2.53-0.22
			c1.14-0.1,2.23-0.13,3.4-0.18c1.61-0.07,3.2-0.29,4.79-0.31c4.28-0.05,8.31-0.28,12.68-0.17c3.18,0.07,6.36,0.13,9.68,0.17
			c0.35,0.01,0.7,0.13,1.05,0c0.68,0.26,1.58-0.15,2.26,0.31c0.19,0.03,0.25-0.07,0.44-0.04c0.38,0.37,1.07,0.44,1.39,0.87
			c0.14,0.21,0.13,0.57,0.48,0.57c0.39,0.7,0.38,1.44,0.74,2.09c-0.03,0.43-0.24,0.57-0.04,0.83c-0.39,0.76-0.14,1.9-0.52,2.62
			c0.11,0.42-0.25,0.79-0.17,1.18c-0.23,0.2-0.16,0.46-0.22,0.7c-0.16,0.63-0.63,1.04-0.83,1.7c-0.65,0.41-0.72,1.4-1.57,1.61
			c-0.06,0.01-0.04,0.11-0.04,0.17c-0.31,0-0.52,0.28-0.79,0.39c-0.11,0.05-0.24,0.01-0.35,0.04c-0.22,0.07-0.33,0.22-0.52,0.26
			c-0.44,0.1-0.96-0.11-1.4,0.18c-0.59-0.09-1.39,0.24-2.09,0.22c-0.29-0.01-0.6-0.2-0.83,0.09c-1.1,0-2.11,0.29-3.1,0.26
			c-3.03,0.66-6.17,0.81-9.5,1.22c-1.78,0.25-3.33,0.41-5.19,0.79c-0.79-0.05-1.67,0.18-2.22,0.26c0.05,0.3,0.32,0.37,0.57,0.48
			c0.03,0.36,0.29,0.49,0.61,0.57c0.55,0.79,1.3,1.37,1.44,2.57c0.02,0.1,0.07-0.05,0.13,0.05c0,0.29,0.04,0.33,0.13,0.57
			c-0.09,0.86,0.07,1.6,0.35,2.35c-0.21,0.69,0.18,1.6-0.13,2.35c0.04,0.12,0.07,0.25,0.13,0.35c-0.53,0.89-0.02,1.7-0.3,2.62
			c-0.28,0.33-0.62,0.6-0.79,1.05c-0.14-0.06-0.15-0.01-0.3,0c-0.24,0.26-0.62,0.37-1.09,0.39c-0.55,0.35-1.41,0.4-2,0.7
			c-0.46-0.01-0.93,0.26-1.4,0.35c-0.16,0.03-0.32-0.02-0.48,0c-0.91,0.12-1.84,0.54-2.62,0.52c-0.04,0.09-0.16,0.1-0.22,0.17
			c-1.96,0.29-3.7,0.78-5.54,0.96c-0.89,0.38-2.09,0.17-2.92,0.61c-1.69,0.11-3.79,0.33-5.45,0.87c-0.63-0.07-1.02,0.29-1.57,0.26
			c-1.13,0.47-2.06,0.52-3.49,0.87c-0.15,0.21-0.39,0.34-0.7,0.48c-0.37,0.16-0.52,0.51-0.87,0.78c-0.17,0.14-0.53,0.26-0.79,0.44
			c-0.33,0.23-0.51,0.57-1.13,0.39c-0.12-0.03-0.02-0.09-0.09-0.13c-0.05-0.03-0.17,0.04-0.22,0c-0.09-0.08-0.13-0.28-0.22-0.39
			c0.28-0.39,0.58-0.54,0.96-0.87c-0.61,0.04-1.73,0.41-2.27-0.17c0.05-0.57,0.6-0.45,1.13-0.61c0.6-0.18,1.53-0.49,2.27-0.7
			c0.55-0.15,1.02-0.18,1.39-0.48c0.05-0.04,0.04-0.13,0.09-0.18c0.16-0.15,0.55-0.28,0.78-0.48c0.42-0.36,0.5-0.67,1.22-0.57
			c0.15,0.24,0.38,0.54,0.26,0.92c0.13,0.05,0.5,0.05,0.65-0.09c5.8-1,10.8-1.99,16.17-3.14c0.54-0.11,1.03-0.37,1.61-0.35
			c0.13-0.05,0.23-0.12,0.31-0.22c0.52-0.09,1.09-0.18,1.61-0.3c1.39-0.34,2.85-0.66,3.49-1.7c0.32,0,0.03-0.11,0.3-0.18
			c-0.01-0.26,0.1-0.46,0.35-0.57c-0.13-0.47,0.02-0.69,0.22-1.13c0.05-0.51-0.11-0.99,0.09-1.31c-0.01-0.15-0.12-0.2-0.13-0.35
			c0.09-0.05,0-0.3,0.13-0.31c-0.19-0.78-0.05-1.77-0.31-2.53c-0.11-0.31-0.09-0.82-0.39-1.18c0.01-0.55-0.31-0.9-0.65-1.26
			c-0.27-0.3-0.43-0.38-0.83-0.65c-0.35-0.24-0.54-0.38-0.7-0.61c-0.09-0.13-0.18-0.3-0.18-0.57c0.19-0.06,0.17-0.31,0.18-0.44
			c-1.02,0.04-2.29,0.07-3.44,0.3c-0.21,0.04-0.43-0.01-0.61,0.04c-0.15,0.05-0.15,0.17-0.3,0.18c-0.74,0.02-1.74,0.22-2.18,0.39
			c-0.14-0.01-0.19-0.1-0.35-0.09c-1.13,0.08-2.23,0.5-3.4,0.57c-0.16,0.01-0.31-0.06-0.48-0.04c-0.16,0.02-0.27,0.13-0.44,0.17
			c-0.98,0.26-2.2,0.25-3.23,0.43c-2.62,0.48-5.46,0.91-7.98,1.4c-0.38,0.07-0.76,0.15-1.05,0.35c-1.91,0.29-3.84,0.79-5.58,1.22
			c-0.22,0.06-0.45-0.01-0.65,0.04c-0.51,0.13-0.99,0.59-1.61,0.31c-0.17-0.31-0.54-0.42-0.61-0.83c-0.8-0.11-1.14-0.68-0.96-1.57
			c0.07,0,0.11-0.03,0.13-0.09c0.4-0.03,0.59,0.16,0.96,0.18c0.56,0.62,1.7,0.84,2.66,0.7c0.23-0.35,0.78-0.07,1.09-0.35
			c0.59-0.02,1.08-0.16,1.52-0.26c0.14-0.03,0.32-0.04,0.39-0.17c1.6-0.15,3.32-0.65,4.71-0.83c3.16-0.67,6.9-1.16,10.2-1.61
			c3.14-0.58,6.07-0.94,8.85-1.26c0.1,0.09,0.18,0.19,0.22,0.35c1.11-0.27,2.91-0.46,4.1-0.79c0.07-0.02,0.08,0.03,0.09,0.09
			c0.72-0.25,1.49-0.32,2.27-0.48c0.55-0.11,1.17-0.16,1.74-0.26c0.5-0.09,1.1-0.2,1.61-0.26c2.47-0.29,4.82-0.66,7.19-1.05
			c1.12-0.18,2.31-0.11,3.36-0.52c1.44-0.13,3.46-0.47,4.97-0.57c0.15-0.16,0.48-0.13,0.65-0.26c0.51,0.12,0.9-0.15,1.31-0.35
			c0.15-0.04,0.25,0.01,0.44-0.04c0.25-0.25,0.57-0.44,0.92-0.48c0.11-0.09,0.26-0.15,0.22-0.39c0.33,0.02,0.47-0.09,0.48-0.31
			c0.04-0.7-1.45-0.37-1.88-0.35c-0.27,0.02-0.57-0.07-0.91-0.09c-0.7-0.03-1.43,0.05-2.18,0.05c-0.77-0.01-1.64-0.15-2.14-0.57
			c0.06-0.6-0.32-1.01-0.13-1.53c-0.03-0.08-0.13-0.1-0.18-0.17c0.15-0.29,0-0.62,0.13-0.96c-0.28-0.51-0.05-1.89-0.13-2.88
			c-0.05-0.54-0.2-1.19-0.13-1.83c-0.28-0.49-0.32-0.9-1-1c-0.31-0.05-0.7,0.03-1.13,0c-0.18,0.03,0.05-0.15-0.09-0.22
			c-3.89,0.07-7.54-0.14-11.68,0c-0.71,0.02-1.41,0.06-2.09,0.18c-0.09,0.01-0.14-0.01-0.13-0.09c-2,0.34-4.76,0.31-7.19,0.61
			c-0.01,1.49-0.19,3.11-0.31,4.53c-0.02,0.21,0.04,0.4,0,0.56c-0.01,0.05-0.12,0.16-0.13,0.22c-0.01,0.05,0.1,0.12,0.09,0.18
			c-0.01,0.06-0.1,0.09-0.13,0.17c-0.08,0.22,0.07,0.41-0.13,0.43c-0.03,0.13,0.12,0.08,0.09,0.22c-0.18,0.81-0.22,2-0.65,2.49
			c0.08,1.27-0.89,1.91-0.61,2.87c-0.14,0.06-0.33,0.06-0.44,0.13c-0.07-0.19,0.01-0.29-0.18-0.22c0.11-0.43-0.41-0.57-0.26-1.18
			c0.04-0.16-0.2-0.03-0.17-0.17c0.04-0.51-0.25-0.96-0.26-1.48c0.1,0,0.2,0,0.31,0c-0.01,0.36,0.21,0.63,0.13,1.05
			c0.33,0.32,0.24,1.06,0.65,1.31c0.08-0.49,0.4-1.08,0.57-1.61c-0.19-0.41,0.12-0.9,0.22-1.35c0.18-0.02,0,0.11,0,0.18
			c0.18-0.1,0.12-0.25,0.04-0.31c0.01-0.18,0.17,0.03,0.17-0.17c0.07-0.17-0.19-0.02-0.17-0.13c0.01-0.37,0.1-0.66,0.26-0.87
			c-0.11-0.34,0.11-0.63,0.13-0.87c0.03-0.37-0.14-0.79,0.17-1.18c-0.13-0.36,0.16-0.94-0.09-1.18c0.17-0.51-0.02-1.14,0.13-1.57
			c-0.01-0.06-0.11-0.04-0.17-0.04c0.29-0.15,0-0.76,0.26-1c-0.15-0.3-0.07-0.6-0.04-0.91c-0.8-0.11-2.1,0.11-3.01,0.22
			c0.11,0.91-0.01,1.63,0.13,2.4c-0.18-0.01-0.22,0.13-0.39,0.13c-0.12-0.25-0.06-0.59,0.09-0.78c-0.25-0.51-0.23-1.08-0.26-1.66
			c-1.46-0.03-2.41,0.31-3.79,0.52c-0.12,0.02-0.2,0.1-0.22,0.22c-2.6,0.28-5.12,0.96-7.85,1.35c-0.11,0.08-0.24,0.13-0.35,0.22
			c-0.95,0.01-2.3,0.54-3.4,0.74c-1.03,0.18-2.23,0.4-3.27,0.65c-0.1,0.05-0.2,0.09-0.26,0.18c-2.48,0.59-5.32,1.22-7.76,2.22
			c-0.64-0.01-1.02,0.34-1.52,0.35c-0.47,0.35-1.31,0.32-1.74,0.7c-0.35-0.06-0.59,0.21-0.91,0.31c-0.28,0.08-0.59,0.06-0.87,0.17
			c-0.55,0.21-1.21,0.56-1.83,0.83c-0.42,0.18-0.81,0.43-1.22,0.61c-0.51,0.22-1.11,0.24-1.52,0.52c-0.22,0.15-0.59,0.68-0.83,1
			c-0.08,0.11-0.22,0.24-0.26,0.31c-0.03,0.05,0.03,0.17,0,0.22c-0.05,0.08-0.21,0.1-0.26,0.17c-0.03,0.04,0.03,0.14,0,0.18
			c-0.02,0.03-0.22,0.19-0.26,0.26c-0.11,0.21-0.12,0.47-0.22,0.65c-0.15,0.29-0.32,0.75-0.44,1.22c-0.13,0.57-0.54,1.16-0.74,1.79
			c-0.2,0.62-0.2,1.25-0.57,1.74c-0.08,0.89-0.47,1.47-0.61,2.31c-0.59,1.4-0.86,2.67-1.52,4.01c-0.29,1.33-0.85,2.75-1.4,3.97
			c-0.24,0.91-0.58,1.7-0.96,2.62c-0.28,0.68-0.59,1.44-0.92,2.18c-0.04,0.09,0.02,0.24-0.04,0.35c-0.1,0.18-0.31,0.5-0.44,0.79
			c-0.18,0.39-0.29,0.86-0.43,1.35c-0.51,0.87-0.82,1.83-1.18,2.74c-0.4,1.03-0.93,1.99-1.35,3.01c-0.42,1.02-0.87,2.04-1.39,3.01
			c-0.04,0.34-0.18,0.58-0.35,0.79c-1.33,3.1-2.94,5.92-4.62,8.67c-0.13-0.03-0.08,0.12-0.22,0.09c0.04,0.27-0.22,0.25-0.17,0.52
			c-0.13-0.03-0.08,0.12-0.22,0.09c-0.44,0.65-0.89,1.29-1.39,1.87c-0.19,0.21-0.5,0.28-0.61,0.57c-0.26-0.08-0.32,0.21-0.48,0.09
			c-0.11-0.59,0.49-0.84,0.57-1.39c0.46-0.48,0.83-1.03,1.09-1.7c1.71-2.24,2.78-5.12,4.31-7.54c0-0.12,0-0.23,0-0.35
			c1.58-2.97,2.8-6.29,4.27-9.37c0.07-0.74,0.54-1.09,0.61-1.83c0.57-0.8,0.74-1.99,1.31-2.79c0-0.1,0-0.2,0-0.31
			c0.52-0.93,0.79-2.12,1.31-3.05c0.27-0.97,0.63-1.84,1-2.7c0.01-0.21-0.03-0.46,0.18-0.48c0.08-0.73,0.51-1.12,0.57-1.87
			c0.51-0.86,0.55-1.9,1.05-2.66c0.67-2.49,1.51-4.64,2.18-7.06c0.22-0.38,0.46-0.95,0.48-1.39c0.33-0.55,0.67-1.07,0.87-1.74
			c0.26-0.1,0.28-0.44,0.52-0.57c-0.14-0.37,0.1-0.59,0.22-0.83c0.14-0.02,0.2,0.03,0.31,0.04c0.75-0.57,1.32-1.33,2.14-1.83
			c0.17-0.18,0.38-0.32,0.48-0.57c0.83-0.36,1.6-0.01,1.87,0.65c1.39-0.5,2.83-0.94,4.27-1.4c0.05-0.2-0.15-0.14-0.17-0.26
			c1.83-4.12,3.92-7.81,4.71-12.47c-0.49-0.88,0.48-1.49,1.48-1.18c-0.52-2.56-1.04-4.85-1.22-7.5c-0.03-0.42,0.11-0.72-0.09-1.13
			c0.12-0.71,0.14-1.44,0.31-2.35c0.06-0.33,0.51-0.52,0.44-0.92c0.37-0.27,0.5-0.69,0.91-0.96c0.13-0.09,0.33-0.12,0.48-0.22
			c0.26-0.17,0.66-0.28,1-0.52c0.2,0.17,0.46-0.18,0.57,0.04c0.12-0.02,0.14-0.15,0.26-0.17c0.13-0.1,0.19,0.16,0.35,0.17
			c1.81,0.08,3.37,0.82,4.84,1.53c0.04,0.1,0.15,0.14,0.13,0.3c0.19,0.01,0.36,0.05,0.52,0.09c0.18,0.47,0.55,0.76,1,0.96
			c0.06,0.32,0.28,0.48,0.52,0.61c0.05,0.24,0.05,0.26,0.26,0.35c0.07,0.38,0.28,0.62,0.61,0.74c0.39,0.96,1.14,1.56,1.44,2.61
			c0.29,0.25,0.32,0.62,0.48,0.96c0.21,0.44,0.58,0.77,0.57,1.35c0.11,0.17,0.15,0.4,0.3,0.52c-0.05,1.08,0.33,1.41,0.22,2.27
			c0.01,0.12,0.14,0.12,0.17,0.22c0.17,2.42,0.07,4.9-0.26,7.23c0.02,0.14-0.12,0.11-0.13,0.22c0.14,0.51-0.21,0.9-0.3,1.31
			c-0.06,0.25,0.03,0.5-0.04,0.74c-0.08,0.24-0.3,0.45-0.39,0.7C85.6,87.83,85.57,87.84,85.57,87.88z M75.24,66.61
			c-0.19,0.09-0.35,0.21-0.65,0.17c-0.13,0.1-0.28,0.19-0.52,0.17c-0.74,0.63-0.81,1.94-1.09,2.92c0.09,1.79,0.26,4.4,0.61,6.28
			c-0.01,0.11,0.17,0.03,0.13,0.17c0.05,1.03,0.48,2.34,0.39,3.44c-0.26,0.18-0.5,0.37-0.7,0.61c-0.35,0.05-0.38-0.24-0.57-0.35
			c-0.26,0.34-0.22,0.84-0.31,1.31c-0.04,0.25-0.2,0.45-0.26,0.7c-0.11,0.43-0.09,0.74-0.22,1.18c-0.07,0.25-0.28,0.51-0.39,0.78
			c-0.13,0.31-0.18,0.66-0.31,0.96c-0.12,0.3-0.34,0.56-0.44,0.83c-0.08,0.23-0.04,0.46-0.13,0.65c-0.17,0.35-0.5,0.59-0.43,1
			c-0.07,0.02-0.11,0.06-0.18,0.09c0.05,0.28-0.16,0.31-0.13,0.57c-0.12-0.03-0.09,0.09-0.17,0.09c-0.29,0.7-0.51,1.39-0.92,2
			c-0.53,0.81-0.89,1.86-1.83,2.18c0.42-0.03,0.55-0.28,0.96-0.17c0.31-0.23,0.89-0.37,1.22-0.48c0.89-0.3,2.27-0.6,2.88-0.83
			c0.31-0.12,0.7-0.18,1.05-0.26c1.76-0.44,3.44-0.82,5.27-1.22c0.07,0,0.02-0.12,0.09-0.13c2.16-0.41,4.28-0.9,6.49-1.35
			c-0.05-0.2-0.27-0.22-0.35-0.39c-0.11-1.36,0.13-2.7,0.43-3.97c-0.15-0.88,0.22-2.19-0.09-3.36c0.19-0.3,0.11-0.76,0.09-1.18
			c-0.01-0.09-0.16-0.04-0.17-0.13c0.16-0.12-0.01-0.35,0.13-0.52C84.86,78.21,85,78.01,85,77.72c-0.01-0.42-0.21-0.88-0.26-1.31
			c-0.02-0.13,0.05-0.26,0.04-0.39c-0.01-0.27-0.16-0.49-0.3-0.78c-0.2-0.42-0.24-0.88-0.35-1.26c-0.08-0.29-0.32-0.52-0.44-0.78
			c-0.03-0.06,0.02-0.16,0-0.22c-0.09-0.28-0.4-0.53-0.57-0.79c-0.03-0.04,0.02-0.13,0-0.17c-0.02-0.05-0.16-0.1-0.17-0.13
			c-0.13-0.25-0.12-0.55-0.39-0.65c-0.01-0.12-0.08-0.18-0.09-0.31c-0.46-0.41-0.8-0.98-1.13-1.39c-0.11-0.07-0.24-0.13-0.31-0.13
			c-0.17-0.34-0.53-0.49-0.7-0.83c-0.64-0.18-0.8-0.83-1.52-0.91c-0.1-0.19-0.34-0.24-0.48-0.39c-0.25,0.05-0.6-0.03-0.65-0.31
			C76.9,66.9,76.12,66.62,75.24,66.61z M131.76,89.06c-0.18-0.52-0.27-1.11-0.57-1.52c-0.27-0.37-1.21-0.92-1.66-1
			c-0.79-0.14-1.8,0.09-2.74,0.13c-1.13,0.05-2.26,0.07-3.27,0.13c-0.11,0.1-0.13,0.3-0.26,0.39c0.61,1.57,0.39,3.39,0.52,4.97
			c-0.01,0.11,0.17,0.03,0.13,0.17c-0.07,0.53,0.32,1.18,0.3,1.66c0.65,0.22,1.47,0.44,2.27,0.52c0.19,0.02,0.39-0.05,0.57,0
			c0.09,0.02,0.17,0.11,0.26,0.13c0.36,0.05,0.69-0.1,0.91-0.13c0.18-0.02,0.47,0.1,0.7,0.09c0.57-0.04,1.07,0,1.61,0
			c0.12-0.02,0.29-0.23,0.39-0.13c-0.01,0.05-0.25,0.13-0.04,0.13c0.88-0.73,1.3-2.76,1.13-4.4c0.03-0.07,0.14-0.07,0.13-0.17
			c-0.19-0.24-0.22-0.47-0.18-0.87C131.92,89.04,131.8,89.1,131.76,89.06z"/>
	</g>
	<g>
		<path style="fill-rule:evenodd;clip-rule:evenodd;" d="M153.8,151.21c0-0.26,0-0.53,0-0.8c1.29-1.02,2.38-2.23,3.57-3.34
			c0.23-0.49,0.67-0.74,0.99-1.11c0.16-0.18,0.24-0.42,0.4-0.6c0.37-0.41,0.74-0.8,1.15-1.15c0.67-1.06,1.43-2.04,2.26-2.94
			c-0.02-0.12,0.07-0.14,0.04-0.28c0.19-0.09,0.33-0.23,0.36-0.48c0.64-0.55,0.99-1.4,1.55-2.03c0-0.07,0-0.13,0-0.2
			c0.77-0.78,1.2-1.9,1.91-2.74c0.02-0.11,0.06-0.21,0.08-0.32c0.48-0.6,0.8-1.3,1.15-1.98c0.12-0.24,0.36-0.44,0.48-0.68
			c0.1-0.2,0.14-0.4,0.24-0.6c0.09-0.18,0.25-0.33,0.36-0.52c0.21-0.38,0.32-0.83,0.52-1.23c0.1-0.21,0.3-0.39,0.4-0.59
			c0.14-0.3,0.19-0.52,0.32-0.76c0.15-0.27,0.23-0.5,0.36-0.79c0.23-0.53,0.57-1.02,0.79-1.55c0.39-0.92,0.76-1.9,1.23-2.66
			c0.58-1.83,1.51-3.32,2.03-5.2c0.31-0.44,0.47-1.01,0.63-1.59c0.19-0.04,0.09-0.36,0.28-0.4c0.09-0.59,0.35-1.06,0.52-1.63
			c0.05-0.17,0.21-0.31,0.28-0.48c0.39-0.96,0.67-1.9,1.03-2.82c0.18-0.46,0.39-1.08,0.6-1.47c1.24-3.75,2.69-7.02,3.81-10.73
			c0.62-1.27,0.95-2.61,1.51-3.9c0.02-0.13-0.02-0.22-0.04-0.32c0.05-0.03,0.11-0.05,0.2-0.04c0.44-1.34,1.04-2.72,1.59-3.82
			c0.17-0.09,0.27-0.26,0.52-0.28c0.25-0.37,0.6-0.64,0.76-1.11c0.68-0.37,1.05-1.07,1.71-1.51c0.89-0.6,1.93-0.91,2.98-1.39
			c0.72,0,1.49-0.05,1.95,0.2c0.17,0.35-0.08,0.65-0.04,0.95c-0.2,0.18-0.62,0.15-0.79,0.36c-0.63-0.12-1.27-0.04-1.75,0.24
			c-0.4,0.23-0.94,0.37-1.27,0.56c-0.05,0.03-0.01,0.1-0.04,0.12c-0.1,0.06-0.23,0.07-0.32,0.12c-0.37,0.23-0.53,0.49-0.87,0.84
			c-0.16,0.15-0.37,0.24-0.52,0.4c-0.42,0.46-0.75,1.04-1.07,1.59c-0.23,0.4-0.42,0.78-0.56,1.19c-0.07,0.22-0.29,0.4-0.4,0.63
			c-0.07,0.16-0.06,0.36-0.12,0.52c-0.02,0.06-0.13,0.1-0.16,0.16c-0.25,0.53-0.32,1.13-0.52,1.67c-0.03,0.08-0.14,0.12-0.16,0.2
			c-0.03,0.09,0.02,0.22,0,0.32c-0.09,0.35-0.3,0.69-0.4,1.03c-0.03,0.13,0,0.27-0.04,0.4c-0.47,1.67-0.98,3.38-1.23,5.08
			c-0.35-0.01-0.48,0.18-0.8,0.2c-0.15-0.09-0.02-0.46-0.16-0.56c-0.06,0.2-0.16,0.37-0.16,0.63c-0.47,0.57-0.5,1.57-0.95,2.15
			c-0.57,1.76-1.13,3.53-1.87,5.13c-0.29,1.25-0.89,2.19-1.19,3.42c-0.01,0.11-0.13,0.11-0.16,0.2c-0.09,0.53-0.3,0.87-0.48,1.27
			c-0.14,0.32-0.2,0.64-0.32,0.95c-0.13,0.34-0.43,0.88-0.56,1.15c-0.12,0.27-0.13,0.6-0.24,0.87c-1.12,2.73-2.27,5.41-3.5,7.95
			c-0.28,0.83-0.64,1.58-1.07,2.26c0,0.08,0,0.16,0,0.24c-0.48,0.5-0.62,1.34-1.07,1.86c-0.18,0.65-0.6,1.07-0.79,1.71
			c-0.81,1.23-1.56,2.52-2.26,3.85c-0.53,0.57-0.93,1.27-1.31,1.99c-0.6,0.54-0.87,1.41-1.51,1.91c0.06,0.22-0.18,0.13-0.12,0.36
			c-1.97,2.44-3.78,5.04-6.16,7.07c-0.59,0.77-1.53,1.36-2.38,2.03C154.63,150.7,154.24,151.1,153.8,151.21z"/>
		<path style="fill-rule:evenodd;clip-rule:evenodd;" d="M192.7,88.9c0.11,0.05,0.21,0.11,0.32,0.16c0.31,0.01,0.59-0.02,0.8-0.12
			c2.94,0.21,6.55,0.16,9.22,0.24c0.85,0.02,1.73-0.16,2.58-0.08c1.39,0.12,2.98,0.01,4.45,0.04c0.6,0.02,1.18,0.06,1.79,0.08
			c4.54,0.14,9.06,0.44,13.31,1.11c0.17,0.14,0.47,0.1,0.63,0.08c0.33,0.24,0.79,0.09,1.11,0.28c0.03,0.11,0.08,0.21,0.12,0.32
			c1.22,0.22,2.45,0.57,3.7,0.71c0.09,0.05,0.16,0.13,0.24,0.2c1.16,0.17,2.17,0.33,3.22,0.6c2.57,0.67,5.03,1.33,7.59,2.11
			c0.55-0.01,0.75,0.31,1.27,0.32c0.05,0.06,0.16,0.05,0.16,0.16c2.48,0.44,4.61,1.38,6.96,2.03c0.98,0.49,2.18,0.75,2.82,1.59
			c2.14,0.7,4.06,1.43,6.24,2.03c0.42,0.4,1.16,0.34,1.67,0.68c0.46-0.03,0.57,0.3,0.99,0.32c-0.04,0.17,0.13,0.13,0.12,0.28
			c0.58,0.03,0.59,0.63,1.07,0.75c0.1,0.35,0.42,0.48,0.55,0.8c0.04,0.36,0.14,0.85,0.28,1.23c0.02,0.97-0.32,1.8-0.44,2.5
			c-0.11,0.03-0.11,0.18-0.24,0.2c-0.33,1.07-1.12,1.66-1.47,2.7c-0.43,0.2-0.63,0.61-0.91,0.95c-0.56,0.24-1.08,0.54-1.55,0.76
			c-1.23-0.03-2.53,0.52-3.74,0.4c-0.48-0.05-0.81-0.38-1.27-0.48c-0.09-0.26-0.23-0.48-0.04-0.71c1.16,0,2.43-0.18,3.61-0.32
			c0.85-0.27,1.62-0.39,2.26-0.83c0.23-0.27,0.38-0.63,0.72-0.79c0.07-0.65,0.63-1.08,0.71-1.67c0.55-0.28,0.43-1.04,0.76-1.59
			c0.03-0.51-0.06-0.92,0-1.51c-0.62-0.57-1.16-0.97-1.63-1.67c-0.56,0.17-0.94,0.52-1.19,1c-0.35,0.08-0.45,0.4-0.6,0.67
			c-0.31,0.07-0.45,0.44-0.47,0.68c-0.57,0.57-0.59,1.27-0.84,2.19c-0.02,0.13,0.18,0.03,0.2,0.12c-0.08,0.46-0.44,0.64-0.52,1.11
			c-0.1,0.07-0.19,0.15-0.32,0.2c-0.28-0.09-0.64-0.22-0.95-0.16c-0.15-0.22-0.43-0.2-0.8-0.28c-0.2-0.05-0.85-0.35-1.07-0.24
			c-1.27-0.46-2.58-0.79-3.58-1.59c-0.11,0-0.21,0-0.32,0c-0.18-0.28-0.34-0.58-0.52-0.88c-0.06-0.74,0.02-1.17-0.04-1.75
			c0.3-0.41,0.3-0.95,0.52-1.39c0.06-0.12,0.23-0.19,0.32-0.32c0.03-0.05-0.02-0.15,0-0.2c0.09-0.19,0.39-0.56,0.6-0.8
			c0.1-0.12,0.21-0.24,0.32-0.35c0.19-0.21,0.29-0.33,0.52-0.4c-0.03-0.1,0.07-0.23,0.2-0.28c-0.21-0.12-0.63-0.24-0.87-0.2
			c-0.12-0.18-0.28-0.33-0.48-0.44c0.02-0.38-0.03-0.57,0.12-0.8c-3.68-1.43-7.08-2.32-10.89-3.38c-0.1-0.01-0.16,0.02-0.2,0.08
			c-0.49-0.37-1.49-0.32-1.87-0.67c-4.49-1.03-8.71-2.09-13.04-2.78c-0.44,0.34-0.62,0.94-0.99,1.35c-0.04,0.42-0.4,0.53-0.4,0.99
			c-0.13-0.03-0.12,0.06-0.2,0.08c0.02,0.14-0.02,0.22-0.04,0.32c-0.29,0.45-0.63,0.85-0.75,1.47c-0.41,0.38-0.52,1.07-0.99,1.39
			c0.06,0.05,0.04,0.17,0.04,0.28c-0.43,0.65-0.84,1.33-1.19,2.06c-0.33-0.21,0.06-0.52,0.16-0.71c0.1-0.19,0.11-0.36,0.24-0.52
			c0.08-0.1,0.18-0.14,0.24-0.24c-0.32-0.13-0.36-0.27-0.48-0.63c-0.03-0.1-0.15-0.2-0.16-0.24c-0.07-0.4,0.27-0.83,0-1.15
			c0.2-0.1,0.28-0.57,0.04-0.68c0.03-0.29,0.23-0.43,0.36-0.63c-0.04-0.37,0.13-0.47,0-0.76c0.14-0.39,0.28-0.77,0.4-1.19
			c0.45-0.37,0.56-1.08,1.03-1.43c0.24,0.17,0.3-0.06,0.4-0.24c-0.13-0.16-0.37-0.21-0.4-0.48c-2.04-0.1-4.16-0.33-6.36-0.4
			c-0.82-0.02-2.12-0.08-3.14-0.12c-0.33-0.01-0.64,0.07-0.88-0.08c-0.15-0.06-0.08,0.11-0.2,0.08c-1.38-0.24-2.58,0.02-4.09-0.2
			c-0.54,0.1-0.98,0.07-1.59,0.04c-1.82-0.08-3.65,0.18-5.48,0.08c-1.85-0.1-3.85,0.02-5.76-0.28c-0.18,0.04-0.42,0.12-0.64-0.04
			c-0.63,0.22-1.71-0.13-1.31-0.84C192.82,89.02,192.66,89.05,192.7,88.9z M221.2,97.6c0.16-0.07,0.25-0.2,0.28-0.4
			c0.02-0.09-0.18,0.02-0.12-0.12c0.03-0.16,0.19,0,0.24-0.08c0.26-0.48,0.63-1.03,0.68-1.59c0.13,0.03,0.08-0.1,0.16-0.12
			c-0.02-0.55,0.41-0.85,0.52-1.39c0.49-0.53,0.57-1.4,1.11-1.87c0.1-0.09,0.26-0.12,0.24-0.32c-0.41-0.06-0.73-0.28-1.07-0.24
			c-0.26,0.04-0.37,0.33-0.52,0.52c-0.24,0.31-0.71,0.75-0.83,0.99c-0.16,0.32-0.1,0.63-0.32,0.76c-0.05,0.13,0.13,0.03,0.08,0.16
			c-0.41,0.11-0.17,0.68-0.44,0.88c0.01,0.69-0.37,0.95-0.16,1.51c-0.04,0.04-0.15,0.01-0.12,0.12c0.08,0.37-0.04,1.09,0.16,1.59
			C221.27,97.93,221.2,97.81,221.2,97.6z M258.71,101.89c-2.03-0.56-3.74-1.11-5.6-1.75c-0.3,0.17-0.52,0.61-0.84,0.64
			c-0.17,0.2-0.22,0.52-0.56,0.56c-0.06,0.17-0.1,0.35-0.32,0.36c-0.08,0.36-0.18,0.77-0.48,0.8c-0.02,0.42-0.27,0.61-0.4,0.91
			c-0.03,0.43-0.14,0.79-0.28,1.11c0.2,0.35,0.38,0.73,0.52,1.15c0.45,0.54,0.98,1.01,1.79,1.19c0,0.07,0.01,0.12,0.04,0.16
			c1.27,0.24,2.32,0.7,3.57,0.96c0.21-0.21,0.54-0.31,0.76-0.52c-0.11-0.5,0.39-1.71,0.56-2.3c0.02-0.09-0.04-0.18,0-0.28
			c0.07-0.2,0.34-0.28,0.16-0.4c0.18,0.05,0.09-0.09,0.12-0.16c0.05-0.1,0.23-0.17,0.28-0.24c0.04-0.06,0.01-0.14,0.04-0.2
			c0.07-0.13,0.26-0.22,0.36-0.36c0.34-0.46,0.7-0.87,1.07-1.23C259.31,102.08,258.83,102.16,258.71,101.89z"/>
		<path style="fill-rule:evenodd;clip-rule:evenodd;fill:#FFFFFF;" d="M260.86,91.28c-0.07,0.36-0.57,0.53-0.72,0.83
			c-0.02,0.04,0.03,0.13,0,0.16c-0.08,0.11-0.26,0.12-0.32,0.24c-0.01,0.03,0.07,0.05,0.08,0.04c-0.35,0.38-0.93,0.53-0.95,1.15
			c-0.35,0.26-0.46,0.75-0.63,1.19c0.15,0.53-0.21,0.71-0.28,1.23c-0.02,0.09,0.06,0.08,0.12,0.08c-0.14,0.26-0.34,0.45-0.28,0.92
			c-2.02-0.54-4.55-1.21-6-2.58c0.13-0.65-0.12-1.34,0.24-1.83c0.05-0.83,0.45-1.3,0.67-1.95c0.4-0.32,0.72-0.71,1.07-1.07
			c0.28,0.04,0.39-0.08,0.6-0.12c0.2,0.19,0.51,0.28,0.75,0.44c0.84-0.15,1.58,0.26,2.43,0.32c0,0.04,0,0.08,0,0.12
			C258.99,90.56,259.8,91.01,260.86,91.28z"/>
		<path style="fill-rule:evenodd;clip-rule:evenodd;" d="M221.28,97.52c-0.09-0.06,0.09-0.18,0.08-0.28
			C221.45,97.3,221.31,97.46,221.28,97.52z"/>
		<path style="fill-rule:evenodd;clip-rule:evenodd;fill:#FFFFFF;" d="M259.51,102.29c-0.37,0.36-0.73,0.78-1.07,1.23
			c-0.1,0.14-0.29,0.23-0.36,0.36c-0.03,0.06,0,0.14-0.04,0.2c-0.05,0.07-0.23,0.13-0.28,0.24c-0.03,0.07,0.06,0.21-0.12,0.16
			c0.18,0.11-0.09,0.19-0.16,0.4c-0.04,0.1,0.02,0.19,0,0.28c-0.17,0.59-0.67,1.8-0.56,2.3c-0.22,0.21-0.54,0.31-0.76,0.52
			c-1.25-0.26-2.31-0.71-3.57-0.96c-0.03-0.03-0.04-0.09-0.04-0.16c-0.81-0.18-1.33-0.65-1.79-1.19c-0.14-0.42-0.32-0.8-0.52-1.15
			c0.14-0.33,0.24-0.69,0.28-1.11c0.13-0.31,0.38-0.49,0.4-0.91c0.3-0.03,0.39-0.44,0.48-0.8c0.22,0,0.26-0.19,0.32-0.36
			c0.34-0.03,0.38-0.36,0.56-0.56c0.32-0.02,0.53-0.47,0.84-0.64c1.86,0.64,3.58,1.19,5.6,1.75
			C258.83,102.16,259.31,102.08,259.51,102.29z"/>
		<path style="fill-rule:evenodd;clip-rule:evenodd;fill:#FFFFFF;" d="M216.59,101.81c0.03,0.11-0.06,0.1-0.04,0.2
			c-0.65,0.18-0.76,0.91-1.23,1.27c-0.03,0.12,0.11,0.08,0.08,0.2c-0.24,0.04-0.18,0.37-0.44,0.4c-0.03,0.13,0.1,0.08,0.12,0.16
			c-0.01,0.17-0.23,0.14-0.16,0.4c-0.17,0.01-0.2,0.2-0.36,0.12c-0.09,0.21-0.2,0.41-0.16,0.76c-0.23-0.21-0.14,0.28-0.36,0.28
			c-0.19-1.61,0.27-2.81,0.88-3.9C215.55,101.76,215.94,101.87,216.59,101.81z"/>
		<path style="fill-rule:evenodd;clip-rule:evenodd;fill:#FFFFFF;" d="M247.9,110.44c-0.3,0.26-0.36,0.63-0.72,0.75
			c-0.03,0.33-0.3,0.44-0.52,0.6c-0.05,0.25-0.23,0.65-0.56,0.76c-0.03,0.44-0.5,0.46-0.52,0.91c-0.29,0.16-0.28,0.62-0.56,0.79
			c0.01,0.48-0.21,0.91-0.4,1.31c0.13,0.33,0.07,0.74,0.04,1.19c-0.57,0.01-1.17-0.29-1.83-0.12c0.03-0.04,0.04-0.09,0.04-0.16
			c-0.47-0.04-0.83-0.38-1.28-0.32c-1.31-0.54-2.51-0.98-3.53-1.75c0.08-0.37-0.27-0.62-0.32-0.99c0.03-0.06,0.06-0.13,0.16-0.12
			c-0.11-0.59,0.06-1.2,0-1.91c0.04,0,0.08,0,0.12,0c0.03-0.12-0.07-0.12-0.04-0.24c0.23-0.27,0.21-0.72,0.36-1.07
			c0.12-0.29,0.4-0.44,0.4-0.72c0.12,0.01,0.19-0.09,0.28,0c0.19-0.38,0.56-0.58,0.91-0.79c0.95,0.15,2.2,0.16,3.26,0.63
			c0.92,0.14,1.89,0.36,2.74,0.72C246.56,109.98,247.29,110.25,247.9,110.44z"/>
		<path style="fill-rule:evenodd;clip-rule:evenodd;" d="M205.3,119.37c-0.42-0.17-0.23-0.73-0.52-0.99
			c0.06-0.24,0.18-0.62-0.08-0.75c0.19-1.1-0.22-1.71,0.12-2.86c-0.13-0.69,0.06-1.43,0.24-1.99c-2.12-0.26-4.22-0.29-6.32-0.24
			c-2.37-0.21-5.05,0.07-7.55,0.12c-0.25,0-0.52-0.1-0.75,0.08c-1.03-0.18-1.87,0.3-2.7,0.2c-0.19-0.31,0.08-0.63,0.2-0.87
			c1.03-0.44,2.2-0.41,3.38-0.44c4.82-0.1,9.99-0.29,14.55,0.08c0.44-0.48,1.5-0.59,1.83,0.08c1.43,0.09,3,0.2,4.61,0.24
			c1.07,0.03,1.89,0.1,2.94,0.2c1.86,0.18,3.83,0.42,5.6,0.6c0.28,0.03,0.59-0.02,0.87,0c0.23,0.02,0.41,0.05,0.76,0.08
			c0.81,0.07,1.89,0.12,2.34,0.64c-0.05,0.2,0.08,0.23,0.16,0.32c-0.08,0.31-0.07,0.5-0.2,0.8c-0.07,0.03-0.21,0-0.2,0.12
			c-0.97-0.03-1.52-0.45-2.46-0.6c-0.72,0-1.57-0.11-2.31-0.2c-1.03-0.12-2.05-0.2-3.06-0.4c-1.04-0.2-2.13-0.15-3.14-0.32
			c-0.16-0.03-0.31-0.13-0.48-0.16c-0.52-0.09-1.07,0.02-1.55-0.04c-0.08-0.01-0.16-0.12-0.24-0.12c-0.31-0.02-0.66,0.11-0.99,0.08
			c-0.38-0.03-0.73-0.12-1.11-0.12c-0.99,0-2.18-0.15-3.3-0.08c-0.54,0.4-0.37,1.28-0.75,1.79c0.21,0.2,0.02,0.5,0,0.8
			c-0.06,0.71-0.08,1.59,0.04,2.38c-0.06,0.1-0.01,0.31-0.08,0.4C205.28,118.56,205.27,119.02,205.3,119.37z"/>
		<path style="fill-rule:evenodd;clip-rule:evenodd;" d="M261.73,91.68c-0.46,0.2-0.55,0.77-1.15,0.83
			c-0.88,1.25-2.11,2.95-2.19,4.57c0.05,0.09,0.05,0.22,0.16,0.24c-0.03,0.16-0.22,0.18-0.28,0.32c-1.26-0.01-2.01-0.59-3.22-0.76
			c-0.11-0.01-0.11-0.13-0.2-0.16c-0.23,0.01-0.35-0.07-0.48-0.16c-0.08,0-0.16,0-0.24,0c-1-0.49-2.07-0.92-2.82-1.67
			c-0.29-0.37-0.05-1.28-0.28-1.71c0.16,0.01,0.18,0.17,0.36,0.16c0.12-0.61-0.14-1.76,0.68-2.11c0.01-0.81,0.77-1.17,1.07-1.83
			c0.48-0.18,0.96-0.68,1.51-0.91c-0.84-0.36-1.9-0.58-2.98-0.83c-0.2-0.05-0.42-0.02-0.6-0.08c-0.08-0.03-0.12-0.13-0.2-0.16
			c-0.27-0.1-0.59-0.09-0.87-0.16c-0.31-0.07-0.61-0.24-0.91-0.32c-0.37-0.09-0.75-0.11-1.11-0.2c-0.41-0.1-0.79-0.3-1.19-0.4
			c-0.34-0.08-0.64-0.05-0.95-0.12c-0.21-0.05-0.37-0.2-0.6-0.28c-0.19-0.07-0.41-0.04-0.6-0.08c-0.74-0.17-1.42-0.43-2.11-0.6
			c-0.13-0.05-0.03,0.13-0.16,0.08c0.02-0.03,0.04-0.06,0.04-0.12c-1.04-0.13-1.96-0.58-2.98-0.6c-0.99-0.37-2.16-0.58-3.1-0.83
			c-0.18-0.06-0.1,0.13-0.24,0.12c-0.23-0.24-0.77-0.35-1.23-0.48c-1.48,0.17-2.79-0.55-4.37-0.8c-0.12,0.06-0.2,0.18-0.32,0.24
			c-0.22,0.77-0.81,0.99-0.99,1.83c-0.12-0.03-0.08,0.11-0.2,0.08c0.03,0.45-0.44,0.38-0.4,0.83c-0.05,0-0.11,0-0.16,0
			c-0.09,0.66-0.63,1.16-0.92,1.75c-0.04,0.03-0.09,0.04-0.16,0.04c-0.02,0.16-0.14,0.23-0.12,0.44c-0.44,0.38-0.58,1.06-1.11,1.35
			c-0.07,0.08,0,0.05,0,0.16c-0.07,0.01-0.07-0.03-0.08-0.08c-0.12,0.01-0.06,0.15,0,0.2c-0.25,0.15-0.27,0.52-0.52,0.68
			c-0.09-0.33,0.43-0.62,0.28-0.99c0.3-0.51,0.84-0.71,0.76-1.11c0.07-0.12,0.16-0.21,0.28-0.28c-0.02-0.04-0.09-0.04-0.08-0.12
			c0.19-0.07,0.19-0.2,0.2-0.36c0.03-0.03,0.09-0.04,0.16-0.04c0-0.32,0.46-0.73,0.48-1.11c0.46-0.55,0.75-1.26,1.19-1.83
			c-0.09-0.08,0.02-0.11,0-0.24c0.29-0.43,0.49-0.71,0.68-1.23c0.11-0.08,0.2-0.18,0.24-0.32c-0.44-0.26-1.05-0.36-1.63-0.48
			c-1.08,0.9-1.57,2.62-1.91,4.01c-0.02,0.55,0.05,1.27-0.04,1.75c0.09,0.19,0.28,0.57,0.04,0.75c-0.38,0-0.47-0.46-0.51-0.79
			c-0.15-1.09,0.03-2.7,0.48-3.38c-0.08-0.21,0.08-0.42,0.24-0.51c0.08-0.73,0.56-1.4,0.99-1.91c-1.18-0.36-2.43-0.11-3.46-0.48
			c-0.14-0.03-0.15,0.08-0.28,0.08c-1.07-0.09-2.48-0.35-3.77-0.24c-0.63,0.06-1.33-0.14-1.87-0.12c-0.59,0.02-1.39,0.11-2.03,0.12
			c-0.47,0.01-0.96-0.1-1.43-0.08c-2.4,0.11-5.31,0.1-7.83,0.24c-0.26,0.01-0.55,0.05-0.8,0.08c-1.44,0.2-2.7,0.24-4.01,0.32
			c-0.55,0.03-1.12-0.03-1.63,0.04c-0.6,0.08-1.24,0.53-1.83,0.87c-0.22,0.13-0.33,0.33-0.52,0.48c-0.42,0.33-0.95,0.63-1.31,0.95
			c-0.09,0.08-0.19,0.22-0.28,0.32c-0.43,0.45-0.88,0.96-1.27,1.51c-0.39,0.56-0.86,1.08-1.27,1.71c-0.15,0.07-0.31,0.14-0.48,0.2
			c-0.01-0.09-0.1-0.08-0.2-0.08c0-0.18-0.13-0.24-0.16-0.4c0.55-1.67,1.66-2.79,2.7-3.97c0.28-0.16,0.54-0.33,0.68-0.63
			c0.42-0.3,0.87-0.59,1.19-0.99c0.4-0.09,0.51-0.47,0.91-0.56c0.05-0.24,0.14-0.32,0.08-0.59c0.31-0.33,0.77-0.13,1.23-0.12
			c0.47,0.01,1.1-0.28,1.55,0.04c3.12-0.16,5.67-0.33,8.5-0.44c0.54-0.02,1.22,0.1,1.71-0.08c0.18,0.05,0.55-0.09,0.6,0.08
			c0.59-0.13,1.72-0.14,2.3,0c1.24-0.14,2.36-0.17,3.7,0c0.1-0.14,0.57-0.1,0.67,0c0.13,0.02,0.2-0.01,0.24-0.08
			c2.09,0.17,3.96,0.24,6.04,0.48c0.07-0.23,0.25-0.33,0.36-0.52c1.47,0.04,2.68,0.46,4.13,0.8c0.12,0.05,0.1-0.06,0.16-0.08
			c0.88,0.48,2.47,0.54,3.46,1.03c0.15,0,0.29,0,0.44,0c0.86,0.44,1.79,0.39,2.74,0.72c0.44,0.15,1.08,0.33,1.63,0.4
			c0.1,0.01,0.17,0.15,0.28,0.2c0.43,0.21,1.12,0.21,1.67,0.36c0.43,0.12,0.77,0.24,1.19,0.4c0.72,0.02,1.38,0.4,2.15,0.4
			c0.1,0.18,0.48,0.07,0.56,0.28c1.78,0.33,3.7,0.98,5.44,1.35c1.46,0.58,3.13,0.74,4.53,1.35c0.21-0.09,0.22,0.08,0.48,0.04
			c0.04,0.13,0.2,0.14,0.28,0.24c0.69,0.03,1.05,0.28,1.59,0.52c-0.13,0.16,0.08,0.31-0.12,0.48c0.76,0.18,1.44,0.43,1.95,0.4
			c1.44,0.49,3.07,1,4.49,1.23c0.2,0.43,0.72,0.52,1.19,0.67c0.36,0.34,0.4,0.84,0.79,1.19c-0.09,0.16,0.28,0.47,0.4,0.68
			c0.25,1.85-0.48,3.22-1.31,4.49c-0.33,0.46-0.78,0.81-1.11,1.27c-0.92,0.44-1.38,1.35-2.7,1.39c-0.24-0.22-0.18-0.29,0.08-0.6
			c0.2-0.24,0.51-0.49,0.68-0.71c0.71-0.29,1.11-0.9,1.67-1.35c0.06-0.01,0.03-0.1,0.04-0.16c0.72-0.46,1.48-1.77,1.35-2.86
			c-0.01-0.11-0.09-0.19-0.12-0.32c-0.03-0.14,0.07-0.49-0.08-0.44c-0.01-0.28-0.35-0.49-0.32-0.83
			C262.45,92.29,262.18,92.09,261.73,91.68z M257.64,90.45c0-0.04,0-0.08,0-0.12c-0.84-0.06-1.58-0.46-2.43-0.32
			c-0.24-0.15-0.55-0.25-0.75-0.44c-0.2,0.04-0.32,0.16-0.6,0.12c-0.35,0.36-0.68,0.75-1.07,1.07c-0.22,0.65-0.63,1.12-0.67,1.95
			c-0.36,0.49-0.11,1.18-0.24,1.83c1.45,1.37,3.98,2.05,6,2.58c-0.07-0.46,0.14-0.66,0.28-0.92c-0.06,0-0.14,0.01-0.12-0.08
			c0.07-0.52,0.43-0.7,0.28-1.23c0.17-0.44,0.29-0.93,0.63-1.19c0.03-0.62,0.61-0.77,0.95-1.15c-0.01,0.01-0.09-0.02-0.08-0.04
			c0.06-0.11,0.23-0.13,0.32-0.24c0.03-0.03-0.02-0.12,0-0.16c0.15-0.31,0.65-0.48,0.72-0.83C259.8,91.01,258.99,90.56,257.64,90.45
			z"/>
		<path style="fill-rule:evenodd;clip-rule:evenodd;fill:#FFFFFF;" d="M221.08,98c-0.2-0.5-0.08-1.22-0.16-1.59
			c-0.03-0.11,0.08-0.08,0.12-0.12c-0.22-0.56,0.17-0.82,0.16-1.51c0.27-0.2,0.03-0.77,0.44-0.88c0.05-0.13-0.13-0.03-0.08-0.16
			c0.22-0.12,0.16-0.44,0.32-0.76c0.12-0.24,0.59-0.68,0.83-0.99c0.15-0.19,0.26-0.48,0.52-0.52c0.34-0.05,0.66,0.18,1.07,0.24
			c0.02,0.2-0.14,0.23-0.24,0.32c-0.55,0.47-0.62,1.34-1.11,1.87c-0.11,0.54-0.53,0.85-0.52,1.39c-0.08,0.02-0.03,0.15-0.16,0.12
			c-0.04,0.56-0.42,1.12-0.68,1.59c-0.05,0.08-0.21-0.08-0.24,0.08c-0.06,0.14,0.14,0.02,0.12,0.12c-0.02,0.2-0.12,0.33-0.28,0.4
			C221.2,97.81,221.27,97.93,221.08,98z M221.36,97.24c0.01,0.1-0.17,0.22-0.08,0.28C221.31,97.46,221.45,97.3,221.36,97.24z"/>
		<path style="fill-rule:evenodd;clip-rule:evenodd;fill:#FFFFFF;" d="M213.41,107.06c0.13,0.09-0.05,0.21-0.08,0.28
			C213.26,107.3,213.4,107.14,213.41,107.06z"/>
		<path style="fill-rule:evenodd;clip-rule:evenodd;" d="M182.41,162.29c0.22,0.01,0.44-0.27,0.36-0.56
			c-0.73,0.08-1.5,0.55-2.23,0.52c-1.26,0.5-2.91,0.58-4.61,0.52c-0.62-0.02-1.33,0.18-1.71-0.28c0.07-0.3,0.28-0.13,0.48-0.16
			c1.36-0.2,2.93-0.44,4.13-0.79c0.73-0.15,1.43-0.32,2.03-0.6c0.87-0.23,1.76-0.43,2.42-0.87c0.81-0.35,1.51-0.82,2.27-1.23
			c0.26-0.46,0.6-0.85,1.03-1.15c0-0.11-0.07-0.08,0-0.16c0.09-0.06,0.13-0.16,0.24-0.2c0.45-0.82,1.21-1.34,1.63-2.19
			c0.52-0.39,0.7-1.13,1.19-1.55c0.37-0.72,0.8-1.4,1.27-2.03c0.27-0.54,0.57-1.05,0.91-1.51c-0.03-0.03-0.04-0.09-0.04-0.16
			c0.54-0.76,0.93-1.66,1.35-2.54c0.06-0.04,0.08-0.13,0.2-0.12c0.01-0.13-0.07-0.17-0.04-0.32c1.07-2.1,1.54-4.44,2.27-6.8
			c0.01-0.13-0.07-0.17-0.04-0.32c0.61-1.34,0.57-3.2,0.91-4.77c0.02-0.11,0.14-0.22,0.16-0.32c0.06-0.38-0.13-0.84,0.12-1.19
			c0.01-0.76,0.29-1.67,0.12-2.15c0.02-0.1,0.15-0.08,0.12-0.24c-0.11-0.38,0.05-0.84,0.04-1.27c0-0.16-0.12-0.33-0.12-0.48
			c0-0.04,0.11-0.12,0.12-0.16c0.1-0.53-0.44-1.49,0.16-1.63c0.42-0.1,0.69,0.4,0.71,0.76c0.01,0.06-0.08,0.13-0.08,0.2
			c-0.01,0.21,0.05,0.45,0.04,0.72c-0.04,0.81-0.15,1.82-0.08,2.46c-0.16,0.33-0.24,1-0.16,1.31c-0.23,0.49-0.24,1.29-0.32,1.95
			c-0.02,0.2-0.16,0.49-0.04,0.64c-0.35,0.55-0.17,1.6-0.56,2.27c0.01,1.02-0.33,1.51-0.48,2.5c-0.04,0.03-0.09,0.04-0.16,0.04
			c0.02,0.04,0.11,0.06,0.04,0.08c-0.13,0.04,0.05,0.08,0.04,0.12c-0.19,0.65-0.29,1.34-0.48,1.99c-0.06,0.23-0.22,0.45-0.28,0.68
			c-0.22,0.84-0.38,1.7-0.84,2.34c0,0.43-0.24,0.95-0.48,1.27c0,0.07,0,0.13,0,0.2c-0.08,0.1-0.18,0.19-0.16,0.4
			c-0.3,0.43-0.49,0.97-0.71,1.47c-0.13-0.01-0.02,0.22-0.2,0.16c0.04,0.3-0.28,0.45-0.28,0.83c-0.16-0.05-0.08,0.13-0.24,0.08
			c0.03,0.15-0.07,0.17-0.04,0.32c-0.6,0.83-1.13,1.73-1.63,2.66c0.24-0.05,0.54-0.04,0.63-0.24c1.1-0.26,1.23-1.5,1.91-2.19
			c0.63-1.28,1.33-2.48,1.99-3.74c0.01-0.09,0.06-0.15,0.04-0.28c0.38-0.37,0.51-1,0.83-1.43c-0.01-0.17,0.06-0.19,0-0.32
			c0.2-0.02,0.23-0.22,0.24-0.44c0.26-0.19,0.29-0.61,0.56-0.8c-0.08-0.27,0.18-0.22,0.12-0.48c0.41-0.34,0.48-1.03,0.68-1.59
			c0.38-0.7,1.02-0.57,1.35,0.16c-0.05,0.63-0.42,1.03-0.36,1.55c-1.07,1.51-1.81,3.66-2.74,5.05c0,0.08,0,0.16,0,0.24
			c-0.7,1.02-1.19,2.25-1.87,3.3c2.32-0.87,4.34-2.05,6.4-3.18c0.67-0.6,1.49-1.05,2.22-1.59c1.64-1.37,3.17-2.84,4.73-4.29
			c0.39-0.73,1.16-1.09,1.55-1.83c0.43-0.24,0.63-0.71,1.03-0.99c0.34-0.62,0.93-0.98,1.19-1.67c0.74-0.83,1.34-1.81,1.83-2.9
			c0.92-1.31,1.51-3.01,2.19-4.53c0.01-0.49,0.29-0.81,0.44-1.23c0.15-0.43,0.13-0.93,0.44-1.27c-0.2-0.39,0.17-0.71,0.28-1.03
			c0.61-0.22,1.06,0.18,1.39,0.48c0.17,0.28-0.09,0.45-0.24,0.75c-0.03,0.06,0.03,0.16,0,0.24c-0.03,0.09-0.19,0.14-0.24,0.24
			c-0.11,0.23-0.08,0.55-0.16,0.72c-0.04,0.1-0.26,0.15-0.16,0.44c-0.29,0.28-0.36,0.71-0.52,1.19c-0.38,0.68-0.5,1.42-0.95,2.07
			c-0.25,1.09-0.86,1.64-1.19,2.58c-0.54,0.63-0.83,1.52-1.43,2.11c-0.24,0.72-0.84,1.09-1.15,1.75c-1.49,1.56-2.85,3.24-4.45,4.69
			c-0.71,0.78-1.57,1.4-2.26,2.19c-1.47,1.06-2.79,2.26-4.49,3.1c-0.77,0.69-1.88,1.03-2.74,1.63c-0.57,0.07-0.79,0.48-1.39,0.52
			c-0.06,0.01-0.01,0.12-0.08,0.12c-1.09,0.36-2.13,0.81-3.1,1.07c-0.62,0.95-1.49,1.66-2.11,2.62c-0.13-0.03-0.12,0.06-0.2,0.08
			c-0.79,0.82-1.58,1.65-2.54,2.3c-0.34,0.33-0.6,0.72-1.07,0.91c-0.37,0.43-1.03,0.56-1.35,1.03c-0.21,0.11-0.49,0.15-0.56,0.4
			c-0.4,0.07-0.78,0.26-1.11,0.44c-0.45,0.24-0.73,0.7-1.03,1.07c-0.12,0-0.19,0.05-0.28,0.08c-0.11,0.04,0.06,0.11-0.04,0.16
			c-0.21-0.14-0.35,0.23-0.36,0.28c-0.35-0.02-0.56,0.59-0.91,0.56C181.91,162.8,182.47,162.85,182.41,162.29z M188.21,156.61
			c1.07-0.89,2.06-1.86,2.9-2.98c-0.21,0.08-0.56,0.03-0.83,0.04c-0.28,0.45-0.48,0.98-0.99,1.19c-0.17,0.55-0.5,1.27-1.11,1.51
			C188.27,156.5,188.19,156.67,188.21,156.61z"/>
		<path style="fill-rule:evenodd;clip-rule:evenodd;fill:#FFFFFF;" d="M188.17,156.37c0.61-0.24,0.95-0.96,1.11-1.51
			c0.52-0.21,0.71-0.74,0.99-1.19c0.28-0.01,0.62,0.04,0.83-0.04c-0.84,1.13-1.83,2.09-2.9,2.98
			C188.19,156.67,188.27,156.5,188.17,156.37z"/>
		<path style="fill-rule:evenodd;clip-rule:evenodd;" d="M213.92,100.5c0.36-0.56,1-0.32,1.63-0.36c0.35-0.02,0.68-0.12,0.99,0.04
			c-0.05,0.17,0.1,0.14,0.12,0.24c0.61-0.03,1.03,0.33,1.63,0.4c1.13,0.14,2.17,0.48,3.22,0.76c0.48,0.13,1.01,0.2,1.47,0.36
			c1.19,0.42,2.6,0.72,3.78,0.99c0.73,0.17,1.52,0.2,2.19,0.44c0.59,0.21,1.49,0.41,2.22,0.67c1.83,0.34,3.46,1.07,5.21,1.35
			c0.65,0.39,1.44,0.47,2.18,0.71c0.22,0.07,0.39,0.23,0.6,0.32c0.83,0.34,1.74,0.57,2.58,0.87c0.06,0.1,0.21,0.1,0.24,0.24
			c2.91,0.63,5.82,1.59,8.7,2.3c0.06,0.18,0.15,0.33,0.24,0.48c0.56,0.28,0.7,0.99,1.31,1.23c0.12,0.63,0.55,0.97,0.63,1.63
			c-0.02,0.26-0.29,0.6-0.08,0.83c-0.17-0.02-0.09,0.22-0.08,0.28c-0.17,0.34-0.37,0.67-0.24,1.11c-0.24,0.34-0.29,0.85-0.6,1.15
			c0.04,0.12,0.04,0.12,0,0.24c-0.06,0.14-0.22,0.18-0.2,0.4c-0.13,0.02-0.17,0.13-0.32,0.12c-0.56,0.82-1.3,1.63-2.14,2.03
			c-0.11,0.07-0.15,0.22-0.24,0.32c-0.14-0.03-0.15,0.06-0.28,0.04c-1.68,0.99-3.85,0.82-6.04,1.03c-0.15,0.02-0.33,0-0.48,0
			c-1.37,0.02-2.59-0.19-4.09-0.16c-0.94-0.18-1.9-0.27-2.62-0.76c0.04,0.21-0.11,0.43-0.12,0.68c0,0.13,0.1,0.29,0.08,0.44
			c-0.04,0.36-0.34,0.68-0.44,1.03c-0.08,0.27-0.03,0.53-0.12,0.72c-0.17,0.37-0.49,0.72-0.68,0.95c0.06,0.43-0.28,0.46-0.28,0.83
			c-0.6,0.16-0.74,0.77-1.11,1.15c-0.75,0.31-1.24,0.88-1.95,1.23c-0.61,0.15-1.18,0.36-1.79,0.6c-0.22-0.11-0.76-0.04-0.99,0.08
			c-3.21-0.05-7.16-0.07-10.17-0.76c-0.05-0.01-0.03-0.07-0.04-0.12c-0.79-0.1-1.32-0.45-1.95-0.72c-2.67,0.07-4.87,0.22-7.59,0.04
			c-0.87-0.06-1.45-0.23-2.42-0.08c-0.31,0.05-0.7,0.08-0.96,0.16c-1.37,0.41-3.3,0.41-4.85,0.44c-0.42,0.01-0.79,0.07-1.15,0.04
			c-0.47-0.03-1.05-0.19-1.35,0.08c-0.08,0.08-0.11,0.19-0.2,0.28c-0.43,0.44-1.12,0.84-1.59,1.23c-0.07,0.06-0.08,0.18-0.16,0.24
			c-0.24,0.2-0.74,0.4-1.15,0.67c-0.19,0.12-0.38,0.24-0.56,0.36c-0.19,0.12-0.29,0.26-0.52,0.4c-0.05,0.03-0.14,0-0.2,0.04
			c-0.68,0.5-1.76,0.89-2.58,1.31c-0.31,0.16-0.94,0.38-1.35,0.52c-0.18,0.06-0.5,0.12-0.6,0.12c-0.2,0-0.4-0.15-0.6-0.16
			c-0.22-0.01-0.45,0.22-0.63-0.04c0.17-0.29,0.58-0.35,0.95-0.44c0.09-0.03,0.1-0.14,0.16-0.2c1-0.39,2.04-0.75,2.78-1.39
			c0.87-0.24,1.63-0.91,2.42-1.35c0.84-0.61,1.67-1.22,2.43-1.91c-0.06-0.19-0.26-0.24-0.28-0.48c0.58-0.29,0.96-0.04,1.39-0.48
			c0.14-0.14,0.3-0.42,0.52-0.56c0.06-0.04,0.17-0.01,0.2-0.04c0.2-0.16,0.28-0.56,0.71-0.28c0.01,0.4-0.16,0.66-0.16,1.03
			c1.72-0.07,3.02-0.14,4.73-0.52c-0.2-0.19-0.49-0.28-0.63-0.52c-0.06-0.29,0.12-0.36,0.2-0.52c1.42,0.24,3.2,0.7,4.73,0.32
			c0.42-0.25,1.09-0.26,1.31-0.71c0.82-0.24,0.99,0.77,0.56,1.19c0.79,0.03,1.73,0.07,2.74,0.04c1.25-0.04,2.74-0.04,3.58-0.56
			c0.28,0.1,0.68,0.32,0.88,0c0.92-0.06,2.39-0.96,2.14,0.67c-0.2,0.23-0.38,0.49-0.67,0.63c0.1,0.15,0.28,0.17,0.44,0.2
			c0.67,0.13,1.48,0.11,2.18,0.16c1.52,0.1,3.06,0.24,4.37,0.28c1.2,0.03,2.51,0.06,3.62-0.16c0.71-0.14,1.3-0.51,1.95-0.72
			c0.37-0.43,0.93-0.66,1.35-1.03c0-0.08,0-0.16,0-0.24c0.34-0.09,0.36-0.49,0.67-0.6c0-0.08,0-0.16,0-0.24
			c0.46-0.52,0.85-1.11,0.96-1.99c0.02-0.12,0.12-0.17,0.16-0.28c0.03-0.12-0.07-0.12-0.04-0.24c0.25-0.28,0.18-0.79,0.04-1.15
			c0.09-0.32,0.02-0.55-0.16-0.76c-0.03-0.16,0.05-0.33,0-0.4c-0.3-0.46-0.74-0.96-0.28-1.39c-0.59,0.22-1.26,0.26-1.71,0.68
			c-0.07,0.07-0.11,0.21-0.2,0.28c-0.09,0.08-0.22,0.07-0.32,0.16c-0.2,0.19-0.29,0.52-0.48,0.79c-0.12,0.17-0.33,0.26-0.44,0.44
			c-0.22,0.36-0.24,0.84-0.36,1.27c-0.11,0.42-0.34,0.76-0.32,1.15c0.01,0.12,0.02,0.24,0.12,0.28c-0.03,0.11-0.15,0.15-0.2,0.24
			c0.02,0.16,0.11,0.33,0.12,0.4c-0.29,0.2-0.59,0.76-0.95,0.84c-0.32,0.06-0.77-0.17-1.19-0.24c-0.2-0.03-0.46,0.06-0.64,0.04
			c-0.19-0.02-0.41-0.16-0.59-0.2c-1.01-0.18-2.06-0.36-2.82-0.75c-0.36-0.29-0.86-0.44-1.23-0.72c-0.13,0.31,0.22,0.7,0.36,0.99
			c-0.03,0.06-0.12,0.06-0.12,0.16c-0.32,0.04-0.32-0.24-0.52-0.32c-0.13-0.47-0.18-1.02-0.28-1.55c-0.04-0.21-0.18-0.37-0.16-0.6
			c0.01-0.12,0.1-0.13,0.16-0.28c0.12-0.3,0.04-0.66,0.28-0.83c-0.04-0.18,0.1-0.3-0.04-0.36c0.03-0.11,0.13-0.14,0.16-0.24
			c-0.09-0.94,0.6-1.65,0.91-2.43c0.4-0.26,0.71-0.78,1.35-0.67c0.48,0.37-0.3,0.52-0.6,0.83c-0.28,0.29-0.38,0.52-0.48,0.75
			c-0.14-0.03-0.17,0.05-0.24,0.08c-0.22,0.44-0.25,1.07-0.67,1.31c0.14,0.15,0.01,0.44-0.16,0.51c0.13,0.37-0.18,0.81-0.12,1.19
			c0.02,0.16,0.16,0.36,0.24,0.48c0.55,0.74,1.77,1.21,2.54,1.67c0.31-0.05,0.59,0.14,0.87,0.2c0.37,0.08,0.79,0.09,1.15,0.2
			c0.04,0.01,0.31,0.03,0.24,0c0.08,0.03,0.07,0.15,0.12,0.16c0.08,0.01,0.24-0.05,0.36-0.04c0.54,0.05,0.92,0.23,1.51,0.16
			c-0.17-0.22,0.06-0.72-0.24-0.88c-0.01-0.3,0.01-0.37,0.16-0.56c0.02-0.44,0.15-0.87,0.24-1.23c0.09-0.39,0.14-0.89,0.28-1.23
			c0.09-0.21,0.33-0.44,0.48-0.68c0.37-0.59,0.56-1.02,1.11-1.39c-0.82-0.13-2.08-0.39-2.94-0.48c-1.01-0.62-3.17-0.29-3.58-1.63
			c0.04,0,0.03-0.05,0.04-0.08c2.89,0.23,5.9,1.07,8.78,1.03c0.15,0.18,0.41,0.48,0.2,0.79c1.3-0.09,1.55,1.32,1.87,2.22
			c1.9,0.23,4,0.45,6.32,0.56c0.07-0.18,0.33,0.03,0.64-0.04c0.09,0.02,0.06-0.08,0.12-0.08c1.12-0.11,2.09-0.04,3.06-0.24
			c0.11-0.02,0.14,0,0.2-0.12c1.12,0.04,1.86-0.63,2.74-0.95c0.43-0.51,1.22-0.66,1.47-1.35c0.09-0.04,0.18-0.06,0.24-0.12
			c-0.04-0.39,0.27-0.48,0.44-0.75c0.22-0.83,0.3-1.56,0.48-2.34c-0.08-0.52-0.61-0.61-0.63-1.15c-0.12-0.08-0.28-0.11-0.24-0.36
			c-0.09-0.14-0.43-0.21-0.56-0.36c-0.22-0.26-0.32-1.03-0.79-0.84c-0.43,0.18-0.89,0.64-1.35,0.88c-0.45,0.7-1.08,1.22-1.55,1.91
			c-0.13,0.47-0.18,0.78-0.47,1.07c-0.05,0.37-0.07,1.09-0.36,1.35c0.04,0.12,0.14,0.18,0.12,0.36c-0.03,0.11-0.07,0.23-0.24,0.2
			c0.03,0.04,0.07,0.06,0.12,0.08c-0.09,0.23-0.3,0.34-0.4,0.56c-0.17-0.01-0.32,0-0.36,0.12c-1.14-0.27-2.04-0.45-3.3-0.75
			c0-0.04,0-0.08,0-0.12c-0.83-0.25-1.64-0.42-2.15-0.91c-0.72-0.02-1.23-0.59-1.75-0.95c0.01-0.47-0.28-0.53-0.16-1.03
			c0.1,0,0.06,0.16,0.16,0.16c0.1-0.35-0.15-0.52,0.04-0.84c0.02-0.12-0.14-0.07-0.16-0.16c0.08-0.32-0.06-0.73,0.16-1.03
			c-0.05-0.07-0.01-0.23-0.08-0.28c0.19-0.52,0.12-1.37,0.6-1.71c-0.09-0.09,0.03-0.14,0-0.28c0.4-0.37,0.68-0.86,1.19-1.11
			c0.04-0.19-0.2-0.09-0.2-0.24c0.07-0.1,0.01-0.34,0.08-0.44c-0.25-0.16-0.56-0.28-0.87-0.4c-0.27-0.1-0.6-0.14-0.91-0.2
			c-0.32-0.19-0.57-0.22-1.03-0.28c-0.07-0.09-0.2-0.11-0.28-0.2c-0.37,0.02-0.52-0.15-0.8-0.12c-0.17-0.26-0.53-0.19-0.84-0.28
			c-0.65-0.19-1.4-0.45-2.03-0.68c-0.84-0.07-1.53-0.48-2.27-0.51c-0.11-0.01-0.11-0.13-0.2-0.16c-2.48-0.5-5.5-1.27-7.95-1.95
			c-0.19-0.05-0.42-0.07-0.63-0.04c-1.31-0.45-2.48-0.63-3.97-0.91c-0.48,0.71-1.13,1.25-1.47,2.11c-0.13,0.03-0.12-0.07-0.2-0.08
			c0.09,0.2-0.01,0.44-0.24,0.44c0,0.1,0,0.21,0,0.32c-0.45,0.48-0.66,1.19-1.07,1.71c0.07,0.53,0.37,1.17,0.48,1.63
			c-0.21,0.03-0.34-0.03-0.48-0.08c-0.06-0.36-0.15-0.46-0.32-0.79c-0.19,0.24-0.34,0.53-0.56,0.76c-0.18-0.17-0.01-0.29-0.08-0.56
			c0.27-0.24,0.22-0.64,0.44-0.88c-0.21-1.68-0.35-3.53,0.56-4.81c-0.48-0.15-1.02-0.21-1.55-0.16c-0.3,0.03-0.45-0.06-0.67-0.08
			c-0.06-0.01-0.13,0.08-0.2,0.08c-0.18,0-0.39-0.11-0.56-0.12c-0.35-0.01-0.79,0.03-1.27,0c-0.43-0.03-0.9,0.04-1.31,0
			c-1.22-0.11-2.39-0.19-3.46-0.2c-0.15,0.03,0.02,0.12-0.08,0.2c-0.15-0.03,0.02-0.12-0.08-0.2c-1.79-0.07-3.55-0.13-5.25-0.12
			c-2.67,0.01-5.19-0.21-7.59-0.12c-0.21,0.01-0.43-0.09-0.63-0.08c-0.51,0.02-0.9,0.09-1.35-0.28c-0.14-0.32-0.07-0.71,0.16-0.87
			c0.41-0.2,1.19-0.01,1.59-0.12c4.72,0.19,9.3,0.46,14.27,0.4c1.33,0.18,3.21,0.23,4.41,0.24c0.03,0.03,0.02,0.11,0.08,0.12
			C211.61,100.23,212.96,100.45,213.92,100.5z M214.92,101.69c-0.61,1.08-1.07,2.29-0.88,3.9c0.22,0,0.13-0.49,0.36-0.28
			c-0.04-0.35,0.07-0.54,0.16-0.76c0.15,0.08,0.19-0.1,0.36-0.12c-0.08-0.26,0.14-0.22,0.16-0.4c-0.02-0.07-0.15-0.03-0.12-0.16
			c0.25-0.02,0.2-0.36,0.44-0.4c0.03-0.12-0.11-0.08-0.08-0.2c0.47-0.36,0.58-1.09,1.23-1.27c-0.02-0.1,0.07-0.09,0.04-0.2
			C215.94,101.87,215.55,101.76,214.92,101.69z M213.33,107.34c0.03-0.07,0.21-0.18,0.08-0.28
			C213.4,107.14,213.26,107.3,213.33,107.34z M245.95,109.92c-0.85-0.36-1.83-0.58-2.74-0.72c-1.05-0.47-2.3-0.49-3.26-0.63
			c-0.35,0.22-0.72,0.42-0.91,0.79c-0.09-0.09-0.16,0.01-0.28,0c0,0.27-0.28,0.43-0.4,0.72c-0.15,0.35-0.13,0.8-0.36,1.07
			c-0.03,0.12,0.07,0.12,0.04,0.24c-0.04,0-0.08,0-0.12,0c0.06,0.71-0.11,1.32,0,1.91c-0.1-0.01-0.12,0.06-0.16,0.12
			c0.05,0.37,0.4,0.62,0.32,0.99c1.03,0.77,2.23,1.21,3.53,1.75c0.45-0.07,0.81,0.27,1.28,0.32c0,0.07-0.01,0.12-0.04,0.16
			c0.66-0.17,1.25,0.12,1.83,0.12c0.03-0.45,0.09-0.86-0.04-1.19c0.19-0.4,0.41-0.83,0.4-1.31c0.27-0.18,0.26-0.64,0.56-0.79
			c0.02-0.45,0.49-0.47,0.52-0.91c0.33-0.11,0.5-0.51,0.56-0.76c0.22-0.15,0.48-0.26,0.52-0.6c0.36-0.12,0.42-0.5,0.72-0.75
			C247.29,110.25,246.56,109.98,245.95,109.92z"/>
	</g>
	<path style="fill:none;stroke:#000000;stroke-width:1.14;" d="M61.42,171.87c0,0-16.7,26.44-21.35,37.74"/>
	<path style="fill:none;stroke:#000000;stroke-width:1.14;" d="M40.15,140.05c0,0-19.36,20.04-24.34,23.53"/>
	<path style="fill:none;stroke:#000000;stroke-width:1.235;" d="M180.82,161.22c0,0-23.57,42-28.32,53.53"/>
	<path style="fill:none;stroke:#000000;stroke-width:0.969;" d="M162.92,141.06c-10.65,11.19-16.62,17.26-20.31,20.8"/>
	<path style="fill:none;stroke:#000000;stroke-width:0.7125;" d="M34.09,146.46c0,0-1.33,21.1,21.93,31.91"/>
	<path style="fill:none;stroke:#000000;stroke-width:0.7125;" d="M157.38,147.07c0,0-2.53,19.5,16.08,23.49"/>
	<g>
		<g>
			<g>
				<path style="fill:none;stroke:#000000;stroke-width:2;" d="M285.94,144.86c-1.83,9.64-10.3,16.93-20.47,16.93
					c-11.51,0-20.84-9.33-20.84-20.84s9.33-20.84,20.84-20.84c8.43,0,15.69,5.01,18.97,12.21"/>
				<polygon points="277.78,130.83 283.69,130.68 287.68,126.32 288.07,140.32 				"/>
			</g>
		</g>
	</g>
</g>
</svg>
