<?xml version="1.0" encoding="iso-8859-1"?>
<!-- Generator: Adobe Illustrator 28.7.4, SVG Export Plug-In . SVG Version: 9.03 Build 55973)  -->
<svg version="1.1" id="Lager_1" xmlns="http://www.w3.org/2000/svg" xmlns:xlink="http://www.w3.org/1999/xlink" x="0px" y="0px"
	 viewBox="0 0 300 240" style="enable-background:new 0 0 300 240;" xml:space="preserve">
<g>
	<rect x="36.84" y="2" style="fill:#FFFFFF;" width="224.32" height="238"/>
	<g id="Lager_2_00000161602389188766285630000013081564745900894356_">
		<path style="fill:#EDEDED;" d="M219.46,121.99l4.02,16.97l5.42,21.86l0.18,3.15l-1.4,1.4l0.18,7.87l8.75,3.15l7.87,0.35
			c0,0,6.65-15.04,6.82-19.77s1.75-30.09,1.75-30.09l-2.8-21.69c0,0-3.32-11.37-7.7-16.62c-4.37-5.25-12.42-11.54-12.42-11.54
			l-7-5.77l-9.8-6.12l-5.95-2.62c0,0-8.4,1.22-9.97,1.4c-1.57,0.17-8.4-0.7-8.4-0.7s-8.4,2.8-8.92,2.97
			c-0.52,0.18-12.59,0.18-12.59,0.18l-15.74,2.1l-9.1,1.22c0,0-3.5,4.02-6.47,6.3s-16.44,11.37-16.97,11.89
			s-11.89,16.09-12.42,16.27s-5.95,12.94-5.95,12.94l-3.32,17.67l0.52,17.67l4.02,16.62l3.67,10.5l12.77-3.85l3.5-32.71l0.88-4.55
			l9.45-3.15l10.15,1.05l14.87-2.1l3.5-1.22l3.32,1.57l5.95-1.22c0,0,11.19,0.52,13.99,0.17c2.8-0.35,20.99-4.9,24.14-5.42
			C211.41,127.59,219.46,121.99,219.46,121.99z"/>
		
			<linearGradient id="SVGID_1_" gradientUnits="userSpaceOnUse" x1="60.9812" y1="164.6379" x2="45.7632" y2="164.6379" gradientTransform="matrix(1 0 0 -1 0 253.9226)">
			<stop  offset="0" style="stop-color:#EDEDED"/>
			<stop  offset="1" style="stop-color:#FFFFFF"/>
		</linearGradient>
		<path style="fill:url(#SVGID_1_);" d="M45.59,61.82c0,0,12.42-10.5,13.47-10.5c1.05,0,2.1,1.4,2.1,1.4s-0.17,4.37,4.55,14.17
			s8.05,13.12,8.05,13.12l6.3,7.17l-3.67,4.2l-18.02,17.49l-13.47,18.37V62.7L45.59,61.82z"/>
	</g>
	<g id="Lager_1_00000063609300109221188420000017783208327676823705_">
		<path d="M105.17,70.26c5.1,1.62,10.44,1.62,15.78,1.74c1.11,0,2.72-0.49,3.71,0.24c8.49-0.42,27.41-1.73,39.45-5.37
			c0,0,14.24,1.66,24.78-2.77c0,0,14.05,0.37,17.94-1.11c0,0,11.65,0.74,16.46-1.11c0,0,7.24,1.05,12.92-2.53
			c2.12-1.48,3.74-3.07,5.42-4.87c1.62-1.86,0.99-4.47,0.99-6.84c0.37-0.5,0.99-0.87,0.87-1.37c-0.25-0.62-0.62-0.87-1.12-0.87
			c-7.95,0.5-16.03,0.12-23.99-0.75l-0.37-0.25c-8.08-0.12-15.41-1.24-23.99-1.37c-6.46-1.12-13.18-2.11-19.76-2.86
			c0-0.75,0.74-1.24,0.99-1.86c0.87-2.61-1.37-4.23-2.86-5.59c-0.75-0.12-1.24-1.37-1.99-1.49c-0.5,0.37-0.5,0.87-0.62,1.24
			c-2.86,2.61-6.34,3.36-10.07,4.1l-1.49-0.25c-1.12,0.87-2.86,0.75-4.23,0.99c-7.08,0-14.54-0.25-21.13-1.86
			c-1.24-0.37-2.24,0.25-3.35-0.37c-0.87-0.25-1.99-0.12-2.74-0.37c-3.73-0.37-7.08-0.87-10.81-0.62c-0.62-0.25-1.12-0.25-1.74,0
			c-0.5-0.87-1.12,0.62-1.74-0.25c-6.59-0.12-12.93-0.5-19.14,0.99c-1.24,1.12-2.86,1.12-4.1,1.62
			c-10.56,3.11-19.51,8.7-28.34,14.67c-3.23-1.49-4.72,1.86-7.21,3.23c0.12,0.62,0,1.24,0.62,1.49c1.86,0.75,2.98-1.74,4.23-2.49
			c0.62,0,1.24-0.75,1.62,0c2.36,10.44,7.33,19.39,13.55,27.84c-0.12,1.62,1.49,2.36,2.61,3.48c0.62,1.24,3.11,1.86,1.99,3.85
			c-8.7,5.72-16.41,13.3-22.87,21.63c-0.5,1.12-2.98,2.61-1.37,3.98c1.74,0.62,2.36-1.86,3.6-2.61c2.86-4.85,7.08-8.83,10.94-12.68
			c3.85-3.73,8.82-6.22,11.93-10.57c0.99-1.24,0.25-3.11,0-4.23c2.49-3.36,5.59-6.46,8.95-8.82c3.6-2.73,8.08-4.35,12.55-4.97
			C103.31,70.13,104.18,71.25,105.17,70.26z"/>
		<path style="fill:#FFFFFF;" d="M64.53,51.37c6.84-4.97,14.42-8.82,22.12-12.43c1.24-0.87,2.86-1.74,3.98-2.61
			c0.62,0.5,1.37-0.87,2.11-0.25c13.55-2.36,29.71-1.12,43.13,1.12c0.12,0.75,0.99,0.87,1.62,0.99c5.22,0.99,10.56,0.75,15.78,1.24
			c2.98-0.5,5.59,0.62,8.58,0.37c0.37-0.25,0.87-0.25,0.87-0.75l-0.37-0.75c2.86-0.99,5.97-1.74,8.45-3.85
			c1.12-0.12,1.74,0.62,2.36,1.37c0.62,1.37-0.12,2.73-1.12,3.6c-1.37,1.12-3.36,0.25-4.97,0.37h-0.25c0,0.99,1.37,0.99,2.11,1.37
			c0.99-0.12,1.74,0.25,2.36,0.62c4.47,0.12,7.71,0.25,11.93,0.99l0.37-0.25c2.11,0.87,4.97,0.37,6.59,1.86
			c3.23,0.5,6.34,0.62,9.57,0.99c6.46,0.12,13.3,0.99,19.64,1.24l0.37,0.25c6.83-0.12,14.04,1.37,21.01,0.87
			c1.12,2.73-0.75,5.1-2.61,6.84c-2.98,3.48-8.08,4.35-12.18,4.97c2.11-1.24,3.98-3.85,3.85-6.71c-0.37-0.5-0.5-0.99-0.25-1.62
			c0.62-0.5,1.62-1.12,0.75-2.11l-0.5-0.25c-6.59,1.49-13.42,0.99-20.14,1.49c-7.83-0.25-15.91-1.86-23.99-2.73l-0.87,0.62
			c4.6,2.24,10.44,1.37,15.29,2.86c1.24,0.12,2.74,0,3.48,0.37c-12.92,2.24-23.74-2.61-35.79-3.48c-0.37,0-1.37-0.12-1.62,0.5
			c0,2.74,2.98,0.75,4.35,1.62c6.96,1.24,13.8,2.86,20.76,3.36c3.6-0.5,7.21,0.12,10.69-0.12c3.23-0.12,6.34-0.12,9.2-0.37
			c1.12,0.87,0.25,2.24,0,3.23c-1.86,2.11-4.35,3.85-7.08,4.85c-3.85,0.12-7.83,1.24-11.93,1.74c0.25-0.62-0.62-0.99-0.99-1.37
			c-6.71,1.86-13.92,4.23-21.25,4.1c0.25,0.12,0.37-0.12,0.5-0.37c-0.12-0.62-0.99-0.37-1.49-0.62c-1.24,0.5-2.49-0.37-3.85,0
			c-12.92,2.73-26.6,4.6-40.39,5.34c-8.83,0.13-18.89,0.62-25.85-4.72c-0.12,0.62-0.75,1.24-0.25,1.86c0.5,0.75,1.49,0.87,1.86,1.49
			c-1.49,0.5-3.23,0.87-4.85,0.75c-7.21,2.86-12.93,8.57-17.65,14.29c-0.75,0.25-1.24-0.87-1.99-1.12l-1.37-0.99
			c-1.74-3.11-3.85-5.59-5.59-8.83l-0.25-0.99c-1.12,0.13-1.12-2.11-2.24-2.98c0.12-1.24-0.99-1.86-1.12-3.23
			c-0.37,0.37-0.62-0.62-0.87-0.99c-0.12-0.5,0-1.24-0.5-1.37c-0.62-1.49-1.12-3.36-1.37-5.1l-0.62,0.12c0.12-0.12-0.12-0.37,0-0.62
			c0.25,0.12,0.37-0.12,0.37-0.5c-0.5-0.62-0.25-1.99-0.62-2.86C61.92,52.73,63.54,52.24,64.53,51.37z"/>
		<path style="fill:#FFFFFF;" d="M213.55,52.36l0.37-0.37c4.85-0.12,9.57-0.37,14.29-0.87c-0.25,1.49-0.12,3.48-1.24,4.48
			c-4.85,3.98-10.69,5.1-17.03,5.22C212.56,58.95,214.55,55.84,213.55,52.36z"/>
		<path d="M130.1,220.68c-1.86-4.91-4.19-9.85-3.79-15.5c0.1-0.45,0.42-0.56,0.21-1.02c-0.1-0.68-0.74-1.25-1.37-0.91
			c-1.69,1.81-1.82,8.99-6.45,2.48c-1.69-1.91-3.07-4.06-4.23-6.21c-0.95-1.69-2.22-3.5-2.01-5.65c-1.27-2.26-2.01-4.97-2.65-7.57
			c-0.14-0.4-0.16-0.85-0.17-1.29c-1.07,0.12-2.14,0.25-3.21,0.4c0.57,2.77,1.17,5.52,1.48,8.23h-0.11l0.32,0.34
			c2.34,9.24,4.8,18.48,9.32,26.74C121.67,220.66,125.89,220.65,130.1,220.68z"/>
		<path d="M245.23,175.58c-0.53-0.11-1.37-0.68-1.8,0.11c-1.69,8.92-5.28,17.17-10.25,24.51c-1.27,1.47-1.9,4.52-4.23,4.06
			c-0.95-0.22-2.12-0.56-2.43-1.58c-0.74-0.33-1.48,0-2.22,0.34c0.21,2.26-0.11,4.52-0.64,6.67c-0.88,3.98-2.07,7.92-3.47,11.78
			c2.53-0.13,5.06-0.28,7.59-0.46c0.8-1.1,1.6-2.21,2.43-3.3c2.11-4.18,4.33-8.13,5.39-12.77l0.21,0.23
			c-0.42-1.02,0.63-2.82-0.53-3.73c1.48-3.05,3.49-6.33,5.07-9.15c0.32-0.34,0-1.02,0.53-1.13c1.58-4.18,3.06-8.36,4.23-12.65
			C245.33,177.5,245.65,176.37,245.23,175.58z"/>
		<path d="M183.56,156.52c-1.16,2.6-2.43,5.31-3.8,7.91c-0.42,0-0.32-0.57-0.42-0.79c0.11-1.36,1.06-2.15,0.63-3.5
			c0.32-1.58,1.06-2.94,1.9-4.18C182.4,156.06,183.35,155.73,183.56,156.52z"/>
		<path d="M138.17,148.07c-2.66,0.65-5.1,1.29-7.1,2.72c0,0.26-0.11,0.52,0.45,0.58c1.44-0.39,2.66-1.36,4.33-1.62
			c0.11,0.46,1.22,0.39,1.89,0.46c8.11,0.26,15.54,1.42,22.97,2.72c1.45,0.07,2.55-0.52,3.22-1.17c0.11-0.52,0.55-1.04,0.22-1.49
			c-7.22-1.69-14.99-3.18-23.09-3.24C140.28,147.55,139.06,147.68,138.17,148.07z"/>
		<path style="fill:#FFFFFF;" d="M141.51,148.13c-1.56,0.58-3.22,0.9-4.78,1.43c7.99,0.26,16.1,1.16,24.09,2.2
			c0.56-0.07,1.22-0.32,1.33-0.65c0.11-0.65-1.33-0.59-2.11-0.91c-3.11-0.71-5.77-1.56-9.21-1.88l-0.33-0.19
			c-2.66-0.07-4.99-0.59-7.66-0.52C142.72,147.94,142.06,148.2,141.51,148.13z"/>
		<path d="M135.18,163.64c0.12,0.25,0.03,0.75,0.49,0.73c0.58-0.15,1.24-1.04,1.93-1.45c1.5-0.43,2.98-1.36,4.4-0.91
			c0.08,2.24,0.18,4.86,1.87,6.41c2.94,0.64,5.96,0.27,9.21,0.03c2.05-1.33,0.78-4.14,1.64-6.17c0.21-0.76-1.57-1.44-0.06-1.61
			l4.33,0.33c1.26,2.45,1.25,5.44,2.85,7.5c0.72,0.6,1.62-0.31,2.32-0.09c0.46-0.27,0.67-0.9,0.53-1.51
			c-0.6-0.35-1.3-0.57-1.89-0.55c-0.63-1.1-1.03-2.45-1.76-3.42c0.19-1-0.77-1.97-0.46-2.98c0.47,0.11,0.96,0.59,1.4,0.07
			c0.1-0.5-0.38-0.86-0.86-0.96c-7.94-0.45-17.67-1.7-24.5,2.79C135.94,162.24,135.5,162.88,135.18,163.64z"/>
		<path style="fill:#FFFFFF;" d="M148.49,160.77c-1.72,0.93-4.92-0.56-4.69,2.42c0.52,1.35-0.01,2.87,0.96,3.95
			c2.46,0.41,4.58,0.7,7,0.11l0.55-0.77l0.02-5.73C151.04,160.55,149.65,160.73,148.49,160.77z"/>
		<path d="M213.27,147.89c2.66,0.71,5.11,1.42,7.11,2.98c0,0.28,0.11,0.56-0.45,0.64c-1.44-0.43-2.66-1.49-4.33-1.77
			c-0.11,0.5-1.22,0.42-1.88,0.5c-8.11,0.28-15.54,1.56-22.97,2.98c-1.45,0.07-2.55-0.57-3.22-1.28c-0.11-0.56-0.55-1.13-0.22-1.63
			c7.21-1.84,14.98-3.47,23.09-3.54C211.17,147.32,212.39,147.46,213.27,147.89z"/>
		<path style="fill:#FFFFFF;" d="M209.95,147.96c1.55,0.64,3.22,0.99,4.77,1.56c-7.99,0.28-16.1,1.27-24.09,2.41
			c-0.55-0.07-1.22-0.36-1.33-0.71c-0.11-0.71,1.33-0.64,2.11-0.99c3.11-0.78,5.77-1.7,9.21-2.05l0.33-0.21
			c2.66-0.07,4.99-0.64,7.66-0.57C208.72,147.75,209.39,148.03,209.95,147.96z"/>
		<path d="M216.27,163.64c-0.13,0.25-0.03,0.75-0.5,0.73c-0.58-0.15-1.24-1.04-1.92-1.45c-1.5-0.43-2.98-1.36-4.4-0.91
			c-0.08,2.24-0.18,4.86-1.87,6.41c-2.94,0.64-5.95,0.27-9.21,0.03c-2.05-1.33-0.78-4.14-1.64-6.17c-0.2-0.76,1.57-1.44,0.06-1.61
			l-4.33,0.33c-1.25,2.45-1.25,5.44-2.84,7.5c-0.72,0.6-1.62-0.31-2.33-0.09c-0.46-0.27-0.67-0.9-0.53-1.51
			c0.6-0.35,1.3-0.57,1.89-0.55c0.62-1.1,1.02-2.45,1.76-3.42c-0.19-1,0.77-1.97,0.46-2.98c-0.47,0.11-0.96,0.59-1.4,0.07
			c-0.1-0.5,0.38-0.86,0.85-0.96c7.94-0.45,17.67-1.7,24.5,2.79C215.5,162.24,215.95,162.88,216.27,163.64z"/>
		<path style="fill:#FFFFFF;" d="M202.97,160.77c1.71,0.93,4.92-0.56,4.69,2.42c-0.52,1.35,0.01,2.87-0.97,3.95
			c-2.46,0.41-4.57,0.7-7,0.11l-0.55-0.77l-0.02-5.73C200.41,160.55,201.8,160.73,202.97,160.77z"/>
		<polygon style="fill:#FFFFFF;" points="121.23,161.91 121.13,161.68 121.23,161.8 		"/>
		<rect x="120.71" y="162.13" style="fill:#FFFFFF;" width="0.1" height="0.23"/>
		<path style="fill:#FFFFFF;" d="M121.13,162.13c0,0.11,0,0.34-0.21,0.45l-0.11-0.45H121.13z"/>
		<path d="M183.35,180.13c0.95,2.03,1.06,4.74,2.96,6.21c0,0.34,0,0.68-0.21,0.79c-0.53-0.34-0.63,0.57-1.16,0.23
			c-3.38-4.63-3.59-10.62-5.07-16.27c-0.21-1.35-0.63-2.94,0-4.18c0.63,0.23,1.16-0.68,1.48,0.34c-0.21,0.22-0.42,0.79-0.32,1.13
			c-0.21,1.36,0.53,2.94,0.85,4.07c-0.21,1.25,1.06,2.82,0.11,3.95c0.21,0,0.74,0.11,0.85,0.56c-0.11,0.68-0.11,1.36,0,2.15
			L183.35,180.13z"/>
		<rect x="181.98" y="176.63" width="0.1" height="0.11"/>
		<path d="M173.52,179l0.21,0.78c-0.53,2.15-0.95,4.52-2.01,6.56c-0.42,0-0.95,0.56-1.38-0.11c0.84-2.37,1.16-5.08,2.01-7.46
			C172.68,179,173.31,178.65,173.52,179z"/>
		<path d="M190.75,188.6c-0.74,2.94-1.48,6.44-4.44,7.68c-0.74-0.56-0.64,0.68-1.38,0.68c-1.48-1.13-3.07-0.68-4.97-1.02
			c-1.06,0.79-2.64,1.47-3.91,0.79c-0.53-1.36-1.48-0.11-2.33-0.79c-0.95-0.46-2.01-1.02-2.64-2.03c0.95-0.9,2.01,0.79,3.07,0.9
			c2.22,0.79,3.81-0.67,5.6-1.35c1.48-1.02,2.96-2.6,4.23-3.96v-0.23c1.37-0.45,0.32,1.24,0.95,1.58c-0.74,0.9-1.37,2.03-2.22,2.94
			c0.32,0.34,0.95,0.56,1.48,0.45c0.85-0.79,2.43-1.7,3.07-3.28c0.32-1.01,1.59-1.69,1.06-2.94
			C188.95,187.58,190.65,187.24,190.75,188.6z"/>
		<path d="M161.9,190.29c-0.53,1.25,0.42,2.26,0.74,3.28c0.95,0.56,1.79,1.81,3.06,1.69c1.48-1.13,2.33-4.52,4.55-3.05
			c1.06-0.22,1.9,0.34,2.54,0.8v0.34c-0.95,0.45-1.59-0.9-2.54-0.22c-1.06,1.24-1.9,2.83-3.17,3.84c-0.84-0.8-1.48,0.9-2.43,0
			c-0.84-1.47-2.86,0.11-3.49-1.58c-0.32-1.58-0.95-3.05-0.63-4.75C160.94,190.4,161.47,190.4,161.9,190.29z"/>
		
			<linearGradient id="SVGID_00000114756941267584700460000001909184661286088379_" gradientUnits="userSpaceOnUse" x1="119.8791" y1="33.6231" x2="119.8791" y2="40.0954" gradientTransform="matrix(1 0 0 -1 0 253.9226)">
			<stop  offset="0" style="stop-color:#FFFFFF"/>
			<stop  offset="1" style="stop-color:#F5F5F5"/>
		</linearGradient>
		<path style="fill:url(#SVGID_00000114756941267584700460000001909184661286088379_);" d="M118.17,208.7
			c-0.21-0.46-1.06-0.34-1.06-1.04c-1.69-2.18-3.49-4.71-4.97-7.12c0.84,3.56,2.22,6.9,3.38,10.34c1.39,3.54,2.85,6.95,4.69,10.15
			c2.47-0.02,4.93-0.03,7.39-0.02c-1.22-3.18-2.28-6.42-3.24-9.57C121.94,211.9,120.07,210.65,118.17,208.7z"/>
		
			<linearGradient id="SVGID_00000179636301925838947840000000465341781319890840_" gradientUnits="userSpaceOnUse" x1="227.782" y1="33.6231" x2="227.782" y2="40.0954" gradientTransform="matrix(1 0 0 -1 0 253.9226)">
			<stop  offset="0" style="stop-color:#FFFFFF"/>
			<stop  offset="1" style="stop-color:#F5F5F5"/>
		</linearGradient>
		<path style="fill:url(#SVGID_00000179636301925838947840000000465341781319890840_);" d="M232.97,205.4
			c-0.85,0.47-1.59,1.17-2.12,2.12l-2.33-0.47c0-0.83-1.27-0.71-1.9-1.07c-0.94,5.48-2.34,10.9-4.02,16.07
			c0.77-0.05,1.54-0.1,2.31-0.15c0.36-0.53,0.72-1.06,1.08-1.64C228.95,215.66,231.8,210.7,232.97,205.4z"/>
		<path d="M173.73,209.29c-0.32,0.79,0.42,0.79,0.63,1.13c2.22,0.11,4.33,0,6.23-0.56c0.11-0.57,0.42-0.9,0.74-1.24
			c4.97,0.23,8.67,3.84,12.79,5.99c0.95-0.22,2.33,0.11,3.07-1.02c0.53,0,1.06,0.45,1.16,0.9c0.21,0.79-0.63,1.13-1.06,1.35
			c-0.84,0-1.27,0.68-1.69,1.36c-2.22,0-4.01-1.47-6.24-1.81c-1.37-0.23-3.38-0.9-4.97-0.12c-1.8,0.34-3.38,0.68-5.18,1.02
			c-2.96,0.34-6.34,1.02-8.88-0.57l-0.11-0.67c-0.74-0.11-1.37,0.11-2.11,0.56c-3.38,0.9-6.77,2.71-10.57,2.03
			c-0.74-1.47-2.86-0.79-4.02-1.92c-0.21-0.33-0.11-0.67-0.11-1.01c0.32,0.11,0.32-0.11,0.42-0.34c0.53,0.11,1.06,0.68,1.48,1.01
			c2.01,0,4.12,0.68,5.82-0.79c3.28-3.16,7.29-4.41,11.31-6.1C173.1,208.38,173.52,208.95,173.73,209.29z"/>
		<path style="fill:#FFFFFF;" d="M174.69,211.78c2.64,0.45,5.18-0.45,7.82-1.13c3.17,0.45,6.02,1.92,8.77,3.84
			c-2.96-0.68-5.6-1.92-8.77-1.69c-0.64,0.11-0.64,1.01-1.06,1.47c-2.86,0.57-5.6,0.57-8.56,0.45c-0.85-0.79-2.11,0.34-2.64-1.13
			c-2.32,0.23-4.55,0.9-6.55,2.14c-0.85,0.11-1.8,0.23-2.54,0.23c2.96-2.26,6.45-4.63,10.25-5.54
			C172.47,210.87,173.31,212.11,174.69,211.78z"/>
		<path d="M175.57,226.11c3.21,0.88,7.07-0.42,10.21-1.23c0.09-0.34,0.31-0.12,0.42-0.02c0.13,0.67-0.69,1.27-1.3,1.86
			c-4.77,2.24-11.02,1.95-15.19-1.49l-0.16-1.24C171.68,224.24,173.35,226.09,175.57,226.11z"/>
		<path d="M108.73,188.1l0.43-0.32c0.11,0.11,0.22,0.54,0.33,0.32l0.21-0.54c-0.86-2.25-1.07-4.72-1.93-6.97
			c-0.06-0.65-0.38-1.31-0.64-1.96c-0.72-0.05-1.44-0.09-2.16-0.13C105.98,181.8,107.15,185.04,108.73,188.1z"/>
		<path d="M109.15,178.9c3.32-0.54,6.54-1.39,9.75-2.25c1.82,1.39,1.39-1.61,3.11-1.71c0.32-1.39-1.18-0.54-1.72-0.86
			c-0.11-8.89,0.75-18.32,2.14-27.01c0.65-2.68,0.86-5.57,2.04-8.14c2.79-0.54,5.58-1.29,8.26-2.15c9.32,1.18,18.43,0.54,27.01-2.57
			c0.64,0.75,1.72,0.75,2.68,0.97c9.97,0.54,17.79-5.9,25.94-10.51h0.43c1.29-1.18,3.11-2.15,4.61-3.21
			c4.4-2.79,9.22-5.47,12.97-9.32c-0.86-0.43-1.5,0.54-2.36,0.86c-7.72,5.46-15.97,10.72-24.12,15.33
			c-5.36,2.78-11.04,6.32-17.58,5.25c0.86-0.75,2.14-1.28,3.32-1.61c8.25-3.86,16.4-9.32,23.37-14.68c1.28-1.5,4.18-2.68,4.29-4.93
			l-0.86-0.11l-3.53,2.79c-2.36,1.82-4.93,3.75-7.29,5.47c-4.07,2.36-8.04,5.46-12.44,7.07c-1.39,1.29-3.21,1.61-4.71,2.57
			c-0.64,0.11-0.86,0.32-1.39,0.64c-0.21,0-0.32,0-0.43-0.21c-1.72,1.5-4.4,1.5-6.43,2.57c-0.54,0.22-0.97-0.11-1.4,0.32
			c-1.71,0.21-3.11,0.86-4.82,0.75c-0.43,0.43-0.96,0-1.29,0.33c-2.79,0.53-4.71,0.53-7.5,0.53c-0.75,0.11-2.14,0.21-2.89-0.11
			c14.79-5.9,29.15-12.86,42.66-21.65c0.11-0.54,0.54-0.96,0.96-1.28v-0.22c-0.64-0.21-1.5-0.11-2.14,0.54
			c-15.11,8.79-30.12,16.72-46.84,22.19c-0.64-0.33-1.39-0.33-2.14-0.33c-0.86,0-0.97,0.75-0.97,1.4c-1.5,0.54-3.21,0.75-4.72,0.96
			l0.11-0.54c-0.22-1.07-1.07,0.11-1.61-0.64c-0.21,0.53-0.53,0.96-0.75,1.5c-1.18,0.43-2.57,0.32-3.75,0.21
			c-0.53,0.54-1.61,0.54-1.18,1.5c1.4,0.64,2.79,0.64,4.29,0.64c-2.47,9.11-3.11,18.75-3.86,28.19c-0.11,0.75,0.21,1.5-0.32,2.14
			h0.11c0.22,0.1,0.11,0.32,0.11,0.43c0,1.6,0.11,3,0.11,4.61c-2.9,1.07-6,1.5-8.9,2.25c-1.07-0.75-1.93,0.64-3,0
			c-0.86-0.21-0.86,0.64-1.29,1.07c-1.5-3.43-2.25-7.18-3.11-10.82c-0.54-0.43,0.11-1.5-0.64-1.93c-0.21-2.04-0.85-4.18-1.07-6.22
			c-0.64-0.54,0-1.5-0.54-2.04c-0.97-6.32-1.61-13.18-1.18-18.97c6.97-2.04,13.61-5.9,19.83-9c0,0-0.11-0.11,0-0.11
			c0.11-0.32,0.21-0.11,0.32,0c0.54-0.75,1.82-0.21,2.04-1.29c0.32,0.21,0.97-0.22,1.39-0.32c0.11-0.86,0.96-0.32,1.28-0.75
			c0.43-0.75,1.5-0.32,2.04-1.18c1.5-0.54,3.21-1.18,4.39-2.25v0.11c0.43-0.21,0.97-0.32,0.86-0.86c-1.29,0.21-2.36,1.18-3.54,1.61
			c-0.54,1.07-2.03,0.64-2.68,1.61c-2.25,0.96-4.61,1.82-6.75,3.21c0,0.75-0.64,0.32-1.07,0.54c-5.89,2.68-11.68,6.11-18.22,7.39
			c0-5.79,0.64-12.22,2.36-17.79l-0.75-0.21c-0.54,0.11-1.4,0.43-1.61,1.18c-1.5,5.46-2.04,11.04-2.14,16.72
			c-0.11,1.71-1.71,0.43-2.68,1.07c-0.11,1.93,1.82,0.85,2.68,1.29c-0.22,8.57,1.29,17.25,2.79,25.3c0.54,1.07,0.64,2.35,0.86,3.53
			c1.31,4.03,2.36,8.19,3.62,12.27c0.72,0.04,1.45,0.08,2.17,0.12c-0.21-0.52-0.37-1.05-0.33-1.57c0.54,0.64,1.61,0.32,2.36,0.64
			L109.15,178.9z"/>
		<path d="M231.44,113.62c-0.64,1.18-0.86,2.68-2.14,3.54c-5.46,5.15-11.9,8.36-18.65,10.94c0,0.75-0.64-0.11-0.86,0.32
			c-0.86,0.75-2.36,0.43-3.32,1.18h-0.11c-1.18,0.43-2.57,0.54-3.64,1.28c-0.54-0.32-1.29,0-1.82,0.32
			c-3.43,0.54-6.86,1.72-10.29,2.15c-2.36,0.43-4.72,0.75-6.97,1.18l-0.11,0.32c-1.72-0.65-3.11,0.54-4.82-0.11
			c-0.32,0-0.54-0.43-0.65-0.75c0.54-0.43-0.32-0.64-0.21-1.07c0.43-0.54,0.86-0.75,1.61-0.43l0.11-0.21c0.21,0.32,0.75,0.11,0.96,0
			l0.32-0.43c-0.11,0.21,0,0.32,0.21,0.43c1.82-0.22,4.08-0.32,5.68-0.96l0.22,0.21c8.9-1.5,16.51-3.32,24.76-6.32
			c1.07-0.96,2.89-0.86,4.07-2.03c1.18-0.11,2.36-0.97,3.32-1.72c1.29,0,2.14-1.29,3.43-1.71c2.89-1.71,5.36-4.29,8.15-6.33
			C230.9,113.52,231.33,113.3,231.44,113.62z"/>
		<path d="M242.01,186.98c0.94-2.88,2.21-5.63,3.2-8.53c0.29-0.87,0.47-1.95,1.1-2.4l-0.09,0.54l4.33-11.62
			c0.44-2.8,0.9-5.39,1.34-8.09l-0.11,0c1.17-9.91,2.26-19.16,2.47-29.25c0.2-3.76,0.04-8.69-0.73-12.42
			c-0.45-0.52-0.99-0.61-1.52-0.49c-0.64,0.02-0.62,0.77-0.71,1.2c2.25,16.12-0.87,31.99-2.81,47.92
			c-2.64,7.79-4.83,15.47-7.58,23.15C241.46,187,241.46,187,242.01,186.98z"/>
		<path d="M228.33,164.41c0.11-0.21,0.21-0.21,0.43-0.21c0.22,0.64,0.86,1.5,1.5,1.93c0.43-0.11,0.21-0.65,0.43-0.86
			c-0.22-3.75-2.04-6.96-2.79-10.61c-2.04-9.65-5.58-19.29-5.79-29.26c-0.11-0.43-0.43-0.75-0.75-0.86
			c-0.64,0.32-1.39,0.32-1.93,0.96c0.64,4.18,1.07,7.82,1.82,11.79c1.71,6.22,3.11,12.43,4.72,18.65c0.75,2.14,1.5,4.72,2.14,7.07
			c-0.43-0.32-0.86-0.11-1.39-0.21c-0.43,0.11-0.96,0.32-0.96,0.86l0.32,5.25c0.43,4.07,0.32,8.36,1.28,12.11
			c0.33,0.75,0.75,1.82,1.83,1.5c1.29-0.43,0.43-1.71,0.64-2.57l-0.43-1.93L228.33,164.41z"/>
		<path d="M140.01,117.81c0,0.43-0.75,0.54-1.07,0.64c-2.15,1.29-4.18,2.57-6.54,3.32c-0.11,0.11,0,0.32-0.21,0.32l-0.11-0.11
			c0.21-0.43,0.43-0.86,0.96-0.97c1.18,0.64,1.07-1.18,2.25-1.18c0.54,0.32,0.43-0.54,0.97-0.54c1.5,0,2.36-1.28,3.64-1.71
			L140.01,117.81z"/>
		<rect x="245.69" y="175.15" style="fill:#FFFFFF;" width="0.11" height="0.11"/>
		<path style="fill:none;stroke:#000000;stroke-width:1.0212;" d="M226.59,172.18c4.44,3.57,11.26,3.74,16.51,4.78"/>
		<path style="fill:none;stroke:#000000;stroke-width:2.184;stroke-linecap:round;" d="M228.72,75.91
			c17,9.13,20.02,22.42,24.08,40.1"/>
		<path style="fill:none;stroke:#000000;stroke-width:2.184;stroke-linecap:round;" d="M212.54,65.88
			c5.01,2.01,9.52,4.57,13.46,7.53"/>
		<path style="fill:none;stroke:#000000;stroke-width:2.184;stroke-linecap:round;" d="M98.38,126.81
			c3.27-23.25,19.61-42.18,41.95-53.72"/>
		
			<line style="fill:none;stroke:#000000;stroke-width:2.184;stroke-linecap:round;" x1="120.43" y1="166.34" x2="118.34" y2="180.54"/>
		<polyline style="fill:none;stroke:#000000;stroke-width:3.5528;stroke-linecap:round;" points="181.45,35.31 187.35,15.42 
			192.01,30.96 197.92,16.05 201.96,34.07 		"/>
	</g>
</g>
</svg>
