<?xml version="1.0" encoding="UTF-8"?>
<svg id="Lager_1" data-name="Lager 1" xmlns="http://www.w3.org/2000/svg" xmlns:xlink="http://www.w3.org/1999/xlink" viewBox="0 0 300.38 240">
  <defs>
    <style>
      .cls-1 {
        fill: #fff;
      }

      .cls-2, .cls-3, .cls-4, .cls-5, .cls-6 {
        stroke-linecap: round;
      }

      .cls-2, .cls-3, .cls-4, .cls-5, .cls-6, .cls-7, .cls-8 {
        fill: none;
        stroke: #000;
      }

      .cls-3 {
        stroke-width: 1.4px;
      }

      .cls-4 {
        stroke-linejoin: bevel;
      }

      .cls-4, .cls-5 {
        stroke-width: 1.5px;
      }

      .cls-6, .cls-7 {
        stroke-width: 2px;
      }

      .cls-9 {
        fill: url(#linear-gradient);
      }
    </style>
    <linearGradient id="linear-gradient" x1="92.59" y1="1145.02" x2="103.25" y2="1119.3" gradientTransform="translate(0 -948.77)" gradientUnits="userSpaceOnUse">
      <stop offset="0" stop-color="#fff"/>
      <stop offset="1" stop-color="#ededed"/>
    </linearGradient>
  </defs>
  <rect class="cls-1" x="25.19" y="-5" width="250" height="250"/>
  <g>
    <polygon class="cls-9" points="120.05 203.04 134.75 161.87 111.65 158.94 86.82 147.48 87.34 149.38 78.52 164.81 65.29 189.07 120.05 203.04"/>
    <line class="cls-6" x1="119.13" y1="205.24" x2="140.08" y2="146.34"/>
    <path class="cls-6" d="m134.12,150.79s25.35-6.18,49.36-37.33"/>
    <path class="cls-7" d="m182.1,115.22s11.44-18.01,31.39-24.77c10.19-3.45,6.85-8.95,6.85-8.95"/>
    <path class="cls-6" d="m68.42,182.64s23.46-45.38,28.13-52.91,14.03-44.45,16.53-52.27c2.49-7.82,3.06-8.27,8.41-11.08"/>
    <path class="cls-7" d="m161.02,84.56s-2.24,7.82,1.73,9.83,6.48,1.82,12.42-3.02c5.93-4.84,8.78-7.21,8.78-7.21"/>
    <path d="m138.99,80.7c.97.41,1.97.68,2.98.95,1.01.24,2.03.45,3.05.58.51.08,1.03.15,1.53.19.51.04,1.03.1,1.54.11.52,0,1.03.06,1.53.04l1.53-.02c.51-.02,1.03-.07,1.53-.1.51-.02,1.01-.09,1.52-.17l1.52-.2,1.5-.29c1-.15,1.97-.49,2.97-.73.5-.12.97-.32,1.46-.46l1.46-.47.33-.11.35.09c.85.21,1.76.4,2.66.55.9.15,1.81.3,2.71.42,1.81.25,3.63.42,5.45.49,3.62.09,7.28-.12,10.59-1.28l.41-.14.41.12c1.27.39,2.6.77,3.91,1.1,1.32.34,2.66.63,3.99.88,2.67.49,5.38.86,8.03.71,1.31-.08,2.62-.29,3.74-.84.53-.28,1.21-.67,1.72-1.03.55-.35,1.09-.77,1.59-1.22.51-.44.98-.92,1.42-1.43.45-.51.85-1.06,1.21-1.63.71-1.16,1.3-2.41,1.59-3.78-.2,2.79-1.55,5.49-3.52,7.57-.5.53-1,1.01-1.58,1.48-.6.5-1.08.84-1.75,1.27-1.33.79-2.8,1.15-4.24,1.36-1.44.2-2.89.22-4.32.17-1.42-.07-2.84-.18-4.26-.39-1.4-.21-2.8-.46-4.18-.75-1.39-.3-2.75-.62-4.13-1.04h.82c-1.89.66-3.81,1.06-5.75,1.29s-3.88.25-5.8.17c-1.92-.09-3.83-.29-5.72-.58-.94-.15-1.89-.34-2.81-.54-.94-.21-1.85-.42-2.81-.69l.68-.02-1.55.44c-.52.14-1.03.32-1.55.41-1.06.19-2.09.47-3.18.57l-1.6.21-1.61.11c-.54.03-1.07.06-1.61.03-.54-.01-1.07,0-1.61-.03l-1.6-.12c-.53-.03-1.06-.13-1.59-.21-.53-.07-1.05-.18-1.58-.29-.52-.1-1.04-.22-1.55-.36-1.04-.25-2.04-.62-3.02-.99-.98-.4-1.94-.86-2.82-1.41l.02.03Z"/>
    <path d="m145.6,81.26s.12.56-.03,1.4c-.07.42-.2.89-.4,1.38-.19.5-.49.98-.79,1.46-.34.45-.71.88-1.1,1.23-.4.34-.79.64-1.17.84-.35.22-.69.34-.92.43-.23.08-.36.12-.36.12,0,0,.09-.12.24-.3s.39-.43.64-.74c.26-.3.55-.65.87-1.01.3-.39.62-.77.9-1.19.3-.41.58-.84.83-1.25.25-.41.47-.8.67-1.15.37-.69.63-1.2.63-1.2v-.02Z"/>
    <path d="m141.57,89.84c-.06,3.91-.13,7.83-.28,11.73-.14,3.91-.23,7.82-.43,11.73l-.53,11.72-.66,11.72v.06c-.1.52-.24.96-.41,1.42-.17.45-.36.89-.57,1.32-.43.86-.96,1.66-1.55,2.4-1.18,1.5-2.63,2.76-4.23,3.76-1.59,1.01-3.34,1.74-5.14,2.27-.89.26-1.81.47-2.72.65-.92.17-1.84.28-2.77.36.92-.15,1.82-.35,2.72-.57.89-.23,1.79-.49,2.65-.8,1.73-.63,3.4-1.43,4.91-2.46s2.86-2.28,3.91-3.74c.54-.73.99-1.5,1.38-2.32.2-.41.37-.82.52-1.23.14-.41.28-.86.35-1.25v.06l.53-11.72.66-11.72c.2-3.9.51-7.81.76-11.71s.58-7.81.92-11.71v.02Z"/>
    <path class="cls-8" d="m91.9,149.72s11.94,10.89,38.63,11.81"/>
    <path class="cls-6" d="m133.35,62.7s27.23-2.27,32.33-2.68,7.74.93,12.4,1.82,22.59,5.28,22.59,5.28"/>
    <line class="cls-6" x1="201.01" y1="68.27" x2="212.95" y2="73.17"/>
    <path class="cls-6" d="m114.99,67.11s1.55-9.99,8.22-10.34"/>
    <path class="cls-4" d="m120.76,54.63s2.73-6.2,8-5.46,45.1,3.08,45.1,3.08l42.43,13.46"/>
    <path class="cls-6" d="m217.42,66.82l10.9,3.52s.2,13.34-16.34,9.78"/>
    <path class="cls-6" d="m179.22,49.8c3.54-.79,46.58,15.48,46.58,15.48"/>
    <path class="cls-5" d="m225.48,65.43l12.63,3.69s-.76,12.45-13.17,12.18"/>
    <path d="m167.52,100.82s.21.11.55.35c.33.24.79.62,1.29,1.11.5.5,1.05,1.11,1.57,1.82.54.69,1.05,1.48,1.54,2.27.47.8.93,1.62,1.29,2.4.39.78.69,1.53.95,2.18.5,1.3.72,2.22.72,2.22,0,0-.56-.76-1.29-1.93-.37-.58-.78-1.28-1.23-2.01-.44-.74-.92-1.52-1.39-2.3-.46-.78-.94-1.57-1.39-2.28-.45-.73-.88-1.39-1.26-1.97-.75-1.15-1.34-1.86-1.34-1.86Z"/>
    <path d="m186.85,86.74s.51.47,1.12,1.25c.64.77,1.4,1.85,2.09,2.98.68,1.12,1.29,2.3,1.69,3.22.41.92.58,1.58.58,1.58,0,0-.51-.47-1.12-1.25-.64-.77-1.4-1.85-2.09-2.98-.68-1.12-1.29-2.3-1.69-3.22-.41-.92-.58-1.57-.58-1.57h0Z"/>
    <path d="m168.19,59.95s.17.58.33,1.46c.17.87.34,2.01.52,3.14.17,1.14.34,2.27.47,3.12.08.43.14.79.19,1.05.04.25.07.42.07.42,0,0-.1-.11-.26-.32-.17-.21-.37-.53-.58-.94-.21-.41-.41-.9-.57-1.44-.18-.54-.29-1.14-.39-1.72-.17-1.19-.17-2.39-.06-3.29.1-.89.3-1.48.3-1.48h-.01Z"/>
    <path class="cls-2" d="m171.64,61.57s-.42,5.58-.69,8.89"/>
    <path d="m200.8,69.8s.36.93,1.03,2.22c.67,1.27,1.69,2.93,3.1,4.09.35.29.73.54,1.11.75.4.22.78.35,1.08.37.66.04,1.37-.47,1.93-.89.57-.44,1.06-.83,1.42-1.07.35-.25.57-.37.57-.37,0,0-.14.2-.41.55-.26.34-.63.84-1.12,1.4-.25.29-.54.58-.92.86s-.88.53-1.48.55c-.63.03-1.15-.22-1.6-.44-.47-.23-.9-.53-1.3-.88-1.62-1.37-2.5-3.29-2.95-4.7-.45-1.43-.49-2.44-.49-2.44h.02Z"/>
    <path d="m214.41,68.36s.73.67,1.82,1.68c.54.5,1.18,1.06,1.87,1.63.71.55,1.47,1.15,2.28,1.53.4.2.82.35,1.2.39.4.02.71-.02,1.05-.23.8-.46,1.57-.87,2.23-1.2,1.32-.67,2.26-1.05,2.26-1.05,0,0-.74.68-1.92,1.58-.58.45-1.29.96-2.05,1.49-.43.31-1.08.54-1.65.47-.58-.04-1.11-.23-1.6-.45-.96-.49-1.75-1.14-2.44-1.8-.68-.66-1.25-1.33-1.7-1.93-.9-1.19-1.34-2.11-1.34-2.11h-.01Z"/>
    <path class="cls-2" d="m230.89,72.07c1.82.18,3.29-2.69,4.74-3.66"/>
    <path d="m134.12,84.76s.58.19,1.4.5,1.9.72,2.98,1.11c1.08.42,2.16.83,2.97,1.14.41.17.75.31.99.41.24.11.37.18.37.18,0,0-.61.1-1.51.02-.9-.06-2.09-.3-3.22-.73-1.12-.43-2.17-1.04-2.89-1.6-.72-.55-1.1-1.05-1.1-1.05v.02Z"/>
    <path class="cls-3" d="m146.7,48.42c14.57-.53,36.69,1.92,36.69,1.92"/>
  </g>
</svg>