<?xml version="1.0" encoding="UTF-8"?>
<svg id="Lager_1" data-name="Lager 1" xmlns="http://www.w3.org/2000/svg" xmlns:xlink="http://www.w3.org/1999/xlink" viewBox="0 0 300.38 240">
  <defs>
    <style>
      .cls-1 {
        fill: #fff;
      }

      .cls-2 {
        stroke-linecap: round;
        stroke-width: 2px;
      }

      .cls-2, .cls-3 {
        fill: none;
        stroke: #000;
      }

      .cls-4 {
        fill: url(#linear-gradient);
      }
    </style>
    <linearGradient id="linear-gradient" x1="87.86" y1="1145.11" x2="112.78" y2="1128.32" gradientTransform="translate(0 -964.44)" gradientUnits="userSpaceOnUse">
      <stop offset="0" stop-color="#fff"/>
      <stop offset="1" stop-color="#ededed"/>
    </linearGradient>
  </defs>
  <rect class="cls-1" x="36.8" y="6.61" width="226.77" height="226.77"/>
  <g>
    <g id="Färg">
      <path class="cls-4" d="m137.16,179.65s-1.68-2.47-1.72-2.52c-.99-1.11-11.92-14.91-14.95-21.77-3.17-7.17-1.99-9.43-2.66-11.27s-1.65-9.63-4.18-8.9c-.36.1-19.5,11.17-19.5,11.17l-10.67,6-8.33,4.67,22.17,43,.33.83,39.5-21.21Z"/>
    </g>
    <path d="m166.34,71.34s.53.04,1.26.28c.74.23,1.67.64,2.55,1.13.88.5,1.7,1.09,2.28,1.59.58.49.92.9.92.9,0,0-.52-.12-1.22-.41-.71-.28-1.61-.72-2.48-1.21-.87-.5-1.7-1.04-2.31-1.49-.61-.44-1-.79-1-.79Z"/>
    <path d="m166.92,68.69s0-.04.02-.11c.02-.06.07-.18.2-.26.25-.17.69-.18,1.13-.05.46.11.93.35,1.42.63.48.29.96.64,1.43,1,.92.75,1.75,1.59,2.32,2.26.57.68.9,1.17.9,1.17,0,0-.5-.32-1.2-.85-.7-.53-1.6-1.26-2.49-1.99-.44-.37-.9-.71-1.32-1.04-.43-.31-.84-.6-1.21-.78-.36-.19-.7-.3-.92-.22-.22.06-.28.24-.28.23Z"/>
    <line class="cls-2" x1="91.64" y1="147.28" x2="136.08" y2="124.08"/>
    <path class="cls-2" d="m132.27,127.58s17.4-24.08,20.55-38.19c0,0,16.81-18.08,18.6-30.74"/>
    <path d="m178.02,92.41s.82.2,1.88.71c1.08.49,2.41,1.29,3.64,2.22,1.23.93,2.36,1.99,3.12,2.9.78.89,1.19,1.62,1.19,1.62,0,0-.82-.2-1.88-.71-1.08-.49-2.41-1.29-3.64-2.23-1.23-.94-2.36-2-3.12-2.91-.78-.89-1.19-1.62-1.19-1.62Z"/>
    <path class="cls-2" d="m182.8,98.25s19.6-7.26,25.45-2.22c5.85,5.05,6.94,6.92,6.13,12.33-.82,5.41,5.78,9.27,3.05,17.47-2.53,7.59.52,9.95-.5,14.83-1.02,4.88-2.04,6.63-3.8,9.8-1.76,3.17,1.67,7.29-1.73,12.25-3.41,4.96-8.97,9.74-22.03,10.61s-34.4,2.01-39.88,1.45c-5.48-.55-35.71,18.51-35.71,18.51"/>
    <path class="cls-3" d="m116.64,138.95s4.49,24.53,18,38"/>
    <path d="m170.79,63.71c.07-2.59.18-5.18.29-7.77l.39-7.77.02-.33.31-.17c1.18-.66,2.37-1.12,3.68-1.4,1.3-.26,2.71-.3,4.08.1.68.2,1.35.5,1.95.9.6.41,1.11.92,1.56,1.46.87,1.11,1.44,2.38,1.83,3.65.2.66.34,1.21.51,1.82l.42,1.88c.22,1.26.43,2.53.49,3.83.09,1.29.07,2.6-.07,3.88-.12,1.29-.34,2.54-.58,3.78-.49,2.47-1.11,4.86-1.66,7.27-.52,2.39-1.1,4.84-1.72,7.25-.62,2.41-1.3,4.79-1.94,7.18-.31,1.19-.59,2.39-.79,3.6-.19,1.21-.3,2.44-.14,3.67-.35-1.19-.46-2.47-.41-3.73.03-1.26.2-2.51.38-3.74.18-1.24.4-2.46.63-3.68l.68-3.65,1.32-7.31,1.46-7.27c.22-1.2.41-2.39.51-3.57.1-1.18.14-2.36.08-3.54-.04-1.18-.22-2.36-.41-3.54l-.36-1.75c-.14-.59-.28-1.24-.43-1.77-.29-1.11-.74-2.15-1.36-3.02-.64-.85-1.46-1.52-2.46-1.87-1-.36-2.14-.42-3.27-.26-1.13.14-2.31.48-3.34.95l.32-.5-.92,7.72c-.33,2.57-.66,5.14-1.02,7.71Z"/>
    <path d="m173.02,59.41s.24.05.67.15c.42.1,1.03.2,1.74.25.35.01.74,0,1.04-.11.15-.04.26-.17.29-.21.12-.21.18-.39.24-.56.25-.83.43-1.78.53-2.73.06-.47.1-.96.12-1.43.01-.47.03-.94.02-1.38-.03-.44-.03-.88-.1-1.28-.04-.41-.13-.78-.2-1.14-.1-.34-.18-.66-.28-.94-.12-.26-.21-.51-.32-.69-.22-.36-.35-.58-.35-.58,0,0,.19.16.51.47.29.33.68.85.99,1.56.14.36.3.75.39,1.18.12.43.19.89.24,1.36.04.48.09.97.07,1.47-.01.5-.04,1.01-.09,1.51-.13,1.01-.33,2.01-.7,2.93-.11.26-.23.51-.36.67-.25.31-.52.43-.78.49-.52.12-.95.03-1.33-.04-.76-.17-1.33-.45-1.73-.63-.39-.19-.6-.33-.6-.33Z"/>
  </g>
</svg>