<?xml version="1.0" encoding="UTF-8"?>
<svg id="Lager_1" data-name="Lager 1" xmlns="http://www.w3.org/2000/svg" xmlns:xlink="http://www.w3.org/1999/xlink" viewBox="0 0 300.38 240">
  <defs>
    <style>
      .cls-1 {
        fill: url(#linear-gradient-2);
      }

      .cls-2 {
        fill: #fff;
      }

      .cls-3 {
        opacity: .22;
      }

      .cls-4 {
        stroke-linecap: round;
        stroke-width: 2px;
      }

      .cls-4, .cls-5 {
        fill: none;
        stroke: #000;
      }

      .cls-6 {
        fill: url(#linear-gradient);
      }
    </style>
    <linearGradient id="linear-gradient" x1="78.73" y1="1098.9" x2="95.73" y2="1091.9" gradientTransform="translate(0 -964.44)" gradientUnits="userSpaceOnUse">
      <stop offset="0" stop-color="#fff"/>
      <stop offset="1" stop-color="#ededed"/>
    </linearGradient>
    <linearGradient id="linear-gradient-2" x1="78.73" y1="1098.27" x2="95.73" y2="1091.27" gradientTransform="translate(0 -964.44)" gradientUnits="userSpaceOnUse">
      <stop offset="0" stop-color="#fff"/>
      <stop offset="1" stop-color="#ededed"/>
    </linearGradient>
  </defs>
  <rect class="cls-2" x="36.8" y="6.61" width="226.77" height="226.77"/>
  <g>
    <g id="Färg">
      <polyline class="cls-6" points="116.51 135.68 109.26 117.93 105.26 104.43 79.76 111.93 65.51 115.93 81.76 157.18 116.26 135.68"/>
    </g>
    <g id="Färg-2" data-name="Färg" class="cls-3">
      <polyline class="cls-1" points="116.51 135.06 109.26 117.31 105.26 103.81 79.76 111.31 65.51 115.31 81.76 156.56 116.72 137.92"/>
    </g>
    <path class="cls-4" d="m79.03,112.24s35.92-13.27,46.41-17.54"/>
    <path class="cls-4" d="m94.92,148.36s26.3-13.88,41.16-17.42"/>
    <path class="cls-4" d="m121.22,98.78s8.2-15.55,29.14-13.78"/>
    <path class="cls-4" d="m147.14,86.28s10.83-5.18,17.31-6c6.48-.82,13.3,1.73,18.36,3.5s9.14.99,8.63,5.53c-.51,4.54-3.34,12.12-12.13,10.85s-11.87.2-11.87.2"/>
    <path class="cls-4" d="m129.56,122.5s20.69,13.93,30.47,24.85"/>
    <path class="cls-4" d="m171.47,100.28c-2.32.12-10.12,5.78-10.12,5.78"/>
    <path class="cls-4" d="m172.79,100.71s-4.62,7.19-3.8,15.71"/>
    <path class="cls-4" d="m171.94,108.59s5.66,2.23,7.59,6.29"/>
    <path class="cls-4" d="m177.8,113.95s14.25,5.08,19.12,20.71"/>
    <path class="cls-5" d="m106.5,105.82s4.65,18.39,9.74,28.05"/>
    <path class="cls-4" d="m195.77,134.08s7.14,4.32,7.89,9.57"/>
    <path d="m189.12,137.03s.27-.1.78-.11c.5,0,1.25.08,2.07.46.2.09.41.21.62.32.2.13.41.28.61.44.4.33.8.71,1.14,1.16.34.45.66.93.92,1.45.13.26.24.53.35.8l.08.2.05.12.03.1.13.38c.16.49.33,1.1.43,1.65.12.55.16,1.11.2,1.65.06,1.09-.07,2.12-.31,2.95-.23.84-.57,1.47-.81,1.89-.25.42-.38.66-.38.66,0,0-.03-.29,0-.77.02-.49.07-1.16.05-1.93-.03-.78-.12-1.65-.3-2.59-.09-.47-.22-.94-.35-1.43-.14-.49-.26-.93-.44-1.46l-.12-.39-.03-.1v-.02s0,0,0,0l-.02-.04-.07-.17c-.1-.23-.16-.47-.26-.69-.1-.22-.2-.44-.29-.66-.11-.21-.22-.41-.33-.61-.24-.38-.47-.76-.73-1.09-.27-.32-.54-.61-.81-.86-.56-.49-1.12-.83-1.54-1.03-.42-.2-.7-.28-.7-.28Z"/>
    <path d="m194.23,149.11s.02-.05.06-.15c.05-.09.13-.26.26-.43.23-.35.62-.81,1.16-1.29.54-.48,1.23-.97,2.06-1.36.41-.2.86-.36,1.32-.51.47-.12.95-.26,1.44-.3l.74-.07c.25,0,.49.01.74.02.49,0,.96.1,1.41.19.46.07.87.25,1.26.4.4.13.74.34,1.05.53.31.19.6.35.82.54.23.19.41.37.56.51.3.29.45.47.45.47,0,0-.24-.04-.64-.12-.2-.04-.44-.09-.7-.16-.26-.07-.58-.09-.89-.16-.32-.06-.66-.13-1.03-.15-.36-.03-.73-.11-1.12-.09-.39,0-.78-.04-1.18,0l-.6.02-.61.08c-.41.02-.8.14-1.21.19-.39.1-.79.18-1.17.29-.76.21-1.46.46-2.09.68-.61.24-1.14.45-1.5.62-.18.08-.33.15-.43.19-.1.06-.15.09-.15.09Z"/>
    <path d="m229.72,141.59s-.35-.34-1-.87c-.31-.27-.72-.56-1.18-.89-.47-.31-1.02-.63-1.63-.9-.62-.27-1.3-.49-2.04-.63-.36-.09-.76-.09-1.15-.14-.4.02-.8-.03-1.21.02-.41.03-.83.05-1.25.15l-.63.12-.64.17c-.43.09-.85.24-1.28.38-.43.13-.85.31-1.27.49-.42.17-.84.35-1.25.55l-.62.29c-.15.06-.4.21-.59.31-.85.45-1.58.88-2.28,1.33-.7.48-1.35.98-1.94,1.48-.57.52-1.09,1.04-1.52,1.57-.22.26-.42.52-.59.78-.19.25-.34.51-.48.75-.28.49-.48.93-.63,1.32-.29.77-.35,1.25-.35,1.25,0,0-.12-.48-.05-1.34.04-.43.12-.96.3-1.54.17-.58.43-1.23.82-1.88.36-.67.85-1.33,1.41-1.98.28-.33.6-.63.92-.96.33-.31.7-.59,1.05-.89.75-.58,1.58-1.16,2.38-1.59.22-.12.37-.23.65-.36l.66-.33c.44-.22.88-.44,1.35-.61.46-.18.92-.37,1.41-.5.48-.15.95-.3,1.45-.39.48-.12.98-.19,1.47-.23.49-.07.98-.06,1.46-.07.48-.02.96.07,1.42.12.46.11.91.17,1.33.33.85.25,1.6.66,2.23,1.07.64.41,1.14.89,1.57,1.32.41.44.74.85.98,1.2.26.34.41.63.53.83.12.19.18.3.18.3Z"/>
    <line class="cls-4" x1="222.93" y1="148.14" x2="228.6" y2="141.93"/>
    <path class="cls-4" d="m224.09,146.86l-2.91,7.54s-.62,2.37-4,4.62-16.5,5.38-18.5,5.38-5.95,1.86-8.54-.52c-2.11-1.94-19.26-16.24-19.26-16.24"/>
    <path d="m221.73,135.57s.34-.64,1.13-1.29c.39-.33.88-.68,1.45-.96.57-.29,1.22-.52,1.89-.67.34-.05.68-.13,1.03-.13.34-.02.68-.03,1.01.01.33.03.64.07.94.16.29.08.57.15.8.28.49.21.85.45,1.08.67.23.2.35.33.35.33,0,0-.18.03-.48.05-.15,0-.32.02-.51.02-.2.03-.41.06-.64.06-.22,0-.47.07-.72.09-.25.02-.51.07-.78.11-.27.03-.54.1-.82.14-.28.04-.56.12-.85.17-1.14.23-2.3.53-3.24.69-.93.19-1.64.27-1.64.27Z"/>
    <line class="cls-4" x1="231.3" y1="134.91" x2="230.24" y2="143.37"/>
    <path class="cls-4" d="m230.68,143.91l-2.5,15s-.5,2-3,3.62-17.88,10.62-19.88,11.38-5.75,2-7.12.38c-1.38-1.62-31.88-23.12-31.88-23.12,0,0-6.16.61-9.58-6.69"/>
    <path d="m231.69,137.98c.69,0,1.38.12,2.05.36.66.25,1.35.62,1.84,1.37l.13.2-.12.37c-.4,1.28-.94,2.5-1.57,3.68-.31.59-.67,1.16-1.05,1.72-.39.56-.8,1.1-1.3,1.6.05-.71.2-1.38.36-2.03.18-.65.38-1.29.62-1.92.48-1.25,1.06-2.45,1.76-3.59v.57c-.15-.42-.58-.88-1.07-1.25-.5-.39-1.07-.73-1.66-1.08Z"/>
    <path d="m160.99,141.86s.13.17.36.46c.23.28.54.68.92,1.12.38.45.84.94,1.32,1.44.5.48,1.02,1,1.6,1.44.27.25.58.43.87.65.29.22.6.38.89.58.29.19.6.33.88.51.28.18.57.29.82.44.26.12.5.28.73.37.22.09.42.19.58.27.33.16.52.28.52.28,0,0-.21.05-.57.12-.18.03-.41.07-.67.08-.26.04-.55,0-.88,0-.32-.03-.68-.03-1.04-.13-.36-.09-.75-.16-1.13-.32-.37-.17-.78-.3-1.15-.54-.37-.23-.75-.45-1.09-.74-.35-.28-.67-.57-.95-.9-.31-.31-.54-.66-.78-.99-.44-.69-.77-1.38-.94-2-.2-.61-.26-1.15-.29-1.53-.02-.38,0-.59,0-.59Z"/>
    <path d="m188.4,86.71s-.34,0-.93-.01c-.59-.02-1.43-.01-2.43-.01-.5,0-1.04.02-1.61.04-.55.04-1.18.09-1.65.25-.29.02-.51.72-.67,1.3-.17.61-.29,1.25-.38,1.9-.1.65-.18,1.3-.21,1.94-.01.64-.08,1.28.12,1.73.17.39.62.77,1.09.99.48.23.98.39,1.46.49.96.21,1.8.3,2.38.34.59.04.93.07.93.07,0,0-.33.06-.92.13-.59.05-1.44.14-2.48.04-.52-.05-1.08-.15-1.67-.38-.57-.23-1.22-.57-1.6-1.34-.32-.72-.27-1.43-.26-2.1.03-.68.09-1.37.19-2.05.11-.68.25-1.36.44-2.02.09-.33.22-.66.38-.99.11-.19.24-.41.34-.5.14-.18.43-.32.59-.37.74-.21,1.34-.17,1.94-.16.59.02,1.14.07,1.65.13,2.02.25,3.33.6,3.33.6Z"/>
    <path d="m225.29,139.79s-.3.55-.76,1.38c-.22.41-.47.89-.72,1.4-.24.51-.5,1.06-.69,1.62-.22.55-.35,1.12-.45,1.66-.01.27-.08.53-.08.78.01.25-.01.49,0,.71.04.22.06.43.08.61.03.18.09.34.12.47.06.27.1.43.1.43,0,0-.1-.12-.28-.34-.08-.12-.21-.25-.3-.43-.09-.18-.18-.39-.28-.62-.09-.24-.13-.51-.19-.79-.05-.29-.05-.59-.05-.91.02-.31.05-.64.12-.96.09-.31.15-.65.27-.95.23-.62.53-1.21.86-1.72.33-.51.69-.95,1.02-1.3.66-.71,1.22-1.05,1.22-1.05Z"/>
    <path d="m176.58,124.27s.75-.19,1.88.02c.56.11,1.21.28,1.85.6.66.29,1.29.73,1.89,1.2.28.26.57.5.82.78.25.28.5.55.71.83.43.57.77,1.13,1.01,1.64.28.49.4.95.52,1.25.11.31.16.49.16.49,0,0-.12-.14-.33-.39-.21-.25-.46-.63-.83-1.03-.18-.21-.36-.43-.55-.67-.21-.22-.43-.46-.65-.71-.21-.25-.49-.46-.72-.72-.24-.25-.52-.46-.78-.7-.26-.23-.54-.43-.82-.64-.29-.18-.55-.4-.84-.55-.28-.17-.55-.33-.83-.46-.27-.14-.53-.25-.77-.36-.98-.41-1.72-.57-1.72-.57Z"/>
  </g>
</svg>