<?xml version="1.0" encoding="UTF-8"?>
<svg id="Lager_1" data-name="Lager 1" xmlns="http://www.w3.org/2000/svg" xmlns:xlink="http://www.w3.org/1999/xlink" viewBox="0 0 300.38 240">
  <defs>
    <style>
      .cls-1 {
        fill: #fff;
      }

      .cls-2, .cls-3 {
        fill: none;
        stroke: #000;
        stroke-linecap: round;
      }

      .cls-3 {
        stroke-width: 2px;
      }

      .cls-4 {
        fill: url(#linear-gradient);
      }
    </style>
    <linearGradient id="linear-gradient" x1="117.45" y1="1175.92" x2="125.43" y2="1164.08" gradientTransform="translate(0 -964.44)" gradientUnits="userSpaceOnUse">
      <stop offset="0" stop-color="#fff"/>
      <stop offset="1" stop-color="#ededed"/>
    </linearGradient>
  </defs>
  <rect class="cls-1" x="36.8" y="6.61" width="226.77" height="226.77"/>
  <g>
    <g id="Färg">
      <polygon class="cls-4" points="132.69 222.27 151.94 203.02 159.94 194.13 150.86 194.04 134.28 189.18 125.02 181.7 120.18 175.05 93.69 201.02 132.69 222.27"/>
    </g>
    <path class="cls-3" d="m101.98,193.25s25.3-24.84,26.16-26.95,11.8-63.85,12.25-67.01"/>
    <path class="cls-3" d="m144.67,211.03c1.06-1.15,28.38-30.82,28.38-30.82,0,0,6-.63,14.25-16.41s9.63-15.95,8.83-19.95c-.75-3.74-5.91-27.67-6.55-29.64s-1.87-3.65-4.73-3.63c-3.07.02-11.52.04-11.52.04"/>
    <path d="m165.47,104.86s-.21.51-.51,1.43c-.3.91-.71,2.22-1.03,3.81-.31,1.58-.57,3.45-.42,5.4.11,1.94.7,3.93,1.82,5.58.56.82,1.24,1.57,2.01,2.21.37.33.79.61,1.18.9.44.29.88.58,1.31.86.83.54,1.66,1.04,2.46,1.5.8.46,1.58.85,2.3,1.2.72.36,1.41.62,2.02.87.62.23,1.16.4,1.62.53.92.25,1.48.3,1.48.3,0,0-.55.16-1.54.15-.99.01-2.41-.17-4.04-.65-.82-.22-1.68-.57-2.58-.93-.89-.38-1.8-.86-2.74-1.37-.46-.25-.89-.54-1.35-.82-.48-.33-.96-.64-1.4-1.02-.92-.72-1.73-1.63-2.38-2.64-.65-1.01-1.16-2.11-1.45-3.25-.3-1.14-.42-2.28-.42-3.37.03-2.19.52-4.14,1.08-5.74.57-1.59,1.23-2.83,1.72-3.67.5-.83.84-1.27.84-1.27Z"/>
    <line class="cls-3" x1="164.2" y1="108.15" x2="174.27" y2="111.52"/>
    <path class="cls-3" d="m176.84,129.26s-1.12,4.26,3.18,9.56"/>
    <path class="cls-3" d="m168.28,134.21s3.1-3.18,7.58-3.06"/>
    <path d="m164.87,109.76s.07.02.19.1c.12.08.29.18.49.34.4.32.99.78,1.61,1.42.62.64,1.3,1.44,1.82,2.5.12.27.24.55.32.85.08.26.15.56.24.77.17.48.44.89.82,1.16.37.28.86.43,1.38.5.51.06,1.1.1,1.58.09.31-.01.44-.04.65-.11.19-.06.34-.17.46-.31.23-.29.31-.71.3-1.11-.02-.81-.22-1.53-.38-2.01-.16-.49-.25-.76-.25-.76,0,0,.18.24.43.68.13.22.27.5.41.84.15.33.28.73.35,1.2.07.46.08,1.04-.26,1.59-.32.57-1.08.84-1.64.88-.6.05-1.15.06-1.78,0-.61-.07-1.28-.24-1.86-.65-.57-.43-.94-1.04-1.13-1.65-.12-.33-.16-.58-.23-.87-.05-.24-.13-.48-.22-.72-.39-.94-.95-1.78-1.45-2.48-.51-.69-.96-1.27-1.3-1.64-.33-.38-.53-.59-.55-.58Z"/>
    <path d="m161.49,120.9s.04.82.11,2.26c.06,1.44.21,3.49.41,5.94.19,2.45.51,5.31,1,8.33.23,1.51.57,3.06.97,4.6.45,1.51,1.05,3.06,1.52,4.66.46,1.6.8,3.24,1,4.88.22,1.64.18,3.28.03,4.84-.12.78-.19,1.55-.41,2.28-.1.37-.18.73-.29,1.09-.12.35-.25.69-.37,1.03-.49,1.35-1.1,2.57-1.74,3.64-.3.55-.62,1.05-.96,1.51-.33.46-.62.91-.95,1.3-.65.77-1.18,1.47-1.69,1.99-1.01,1.03-1.58,1.62-1.58,1.62,0,0,.52-.64,1.43-1.75.46-.55.94-1.28,1.54-2.08.29-.4.54-.87.84-1.34.3-.47.61-.97.87-1.52.58-1.07,1.12-2.28,1.54-3.6.1-.33.21-.67.31-1.01.09-.34.15-.7.23-1.05.17-.71.25-1.44.35-2.19.12-1.5.14-3.07-.09-4.64-.21-1.57-.56-3.15-1.04-4.71-.44-1.56-1-3.09-1.46-4.69-.4-1.59-.72-3.17-.93-4.71-.24-1.53-.37-3.03-.48-4.44-.1-1.42-.18-2.75-.22-3.99-.1-2.47-.06-4.53-.04-5.97.03-1.44.08-2.26.08-2.26Z"/>
    <path class="cls-2" d="m165.52,142.9s6.29,10.46,2.79,18.21"/>
    <path class="cls-2" d="m122.8,178.86s9.76,15.5,31,15.25"/>
    <line class="cls-3" x1="147.81" y1="57.55" x2="145.74" y2="67.36"/>
    <polyline class="cls-3" points="145.3 65.36 141.14 80.78 140.51 104.61"/>
    <path d="m144.68,57.3c2.44.03,4.92.46,7.23,1.46,1.15.5,2.27,1.16,3.24,2.05.48.44.93.94,1.3,1.49.39.54.69,1.15.94,1.78.25.63.39,1.29.49,1.96.08.67.1,1.33.07,1.99l-.09.99-.12.91c-.07.6-.19,1.23-.29,1.85-.24,1.23-.52,2.45-.91,3.68-.19.61-.42,1.23-.71,1.84-.15.31-.31.61-.5.92-.09.15-.21.31-.32.47l-.21.25c-.1.1-.12.14-.36.33l.43-1.45c.16.42.28.76.4,1.14.12.37.22.74.33,1.11.19.75.39,1.49.51,2.25.27,1.51.46,3.03.54,4.55.04.76.05,1.53.04,2.29-.01.76-.04,1.52-.11,2.28-.04.76-.14,1.52-.25,2.27-.11.75-.27,1.5-.4,2.24l-.09-.56c.16.34.28.64.4.97.12.32.24.64.35.96.21.64.4,1.3.57,1.95.33,1.31.58,2.65.68,4,.09,1.35.08,2.71-.15,4.04-.21,1.33-.65,2.62-1.29,3.78.43-1.25.63-2.55.67-3.84.02-1.29-.09-2.58-.34-3.84-.26-1.26-.58-2.5-1.01-3.71-.21-.6-.45-1.2-.71-1.79l-.39-.87c-.13-.28-.28-.58-.41-.83l-.11-.21.03-.35c.06-.72.15-1.44.18-2.16.02-.72.09-1.44.08-2.16.02-.72,0-1.44-.02-2.16,0-.36-.03-.72-.06-1.07-.03-.36-.03-.72-.07-1.07-.1-1.43-.31-2.85-.58-4.25-.14-.7-.29-1.4-.46-2.09-.09-.34-.18-.69-.28-1.02-.1-.33-.21-.68-.31-.96l.43-1.45c-.12.09-.04.03-.03.01l.09-.1c.06-.09.13-.17.2-.28.13-.2.26-.43.38-.68.24-.49.47-1,.66-1.54.4-1.08.72-2.21,1-3.37.12-.58.27-1.13.39-1.74l.19-.89.13-.82c.06-.55.08-1.1.05-1.65-.02-.27-.07-.54-.1-.81-.07-.26-.11-.53-.19-.79-.58-2.11-2.3-3.82-4.34-4.97-1.02-.58-2.13-1.05-3.27-1.44-1.14-.38-2.32-.71-3.52-.9Z"/>
    <line class="cls-3" x1="150.44" y1="53.83" x2="154.75" y2="41.62"/>
    <path class="cls-3" d="m174.84,39.15s5.87,7.37,2.26,20.91c0,0,3.16,10.53-1.96,20.46,0,0,1.8,7.07-.45,13.84"/>
    <path class="cls-3" d="m173.75,91.49s3.01,8.29,1.24,15.5"/>
    <path d="m160.43,24c1.26.09,2.53.34,3.75.76,1.22.41,2.4.97,3.48,1.72.55.36,1.06.78,1.54,1.23.49.45.94.95,1.34,1.48.4.53.76,1.1,1.07,1.7.16.29.3.6.42.92.13.31.26.62.35.94.22.64.36,1.29.49,1.95.08.66.19,1.33.2,1.99.05.67.02,1.33,0,1.99-.02.66-.12,1.31-.19,1.97-.11.65-.21,1.3-.36,1.94-.16.63-.3,1.28-.49,1.9-.2.62-.37,1.25-.59,1.86l-.67,1.83.02-.83c.17.51.29.94.41,1.4.12.46.2.91.29,1.37.16.92.29,1.83.37,2.75.04.46.09.92.1,1.38.01.46.05.92.04,1.38v1.38s-.11,1.38-.11,1.38c-.02.46-.1.92-.15,1.38-.06.46-.11.92-.2,1.37-.15.91-.33,1.81-.57,2.7-.19.9-.5,1.77-.78,2.65-.13.44-.32.86-.48,1.29l-.51,1.28.05-.68c.11.53.19,1.01.27,1.51.08.5.15,1,.21,1.49.12,1,.2,2,.26,3,.11,2,.13,4.01-.03,6.01-.14,2-.43,3.99-.9,5.93-.46,1.94-1.13,3.83-2.01,5.6.55-1.9.93-3.82,1.15-5.76.23-1.93.3-3.88.27-5.81-.04-1.94-.18-3.87-.41-5.79-.12-.96-.27-1.92-.43-2.86-.08-.47-.16-.95-.26-1.42-.09-.47-.2-.95-.3-1.38l-.08-.31.13-.38.43-1.22c.14-.41.3-.81.4-1.22.22-.83.49-1.65.66-2.49.21-.83.36-1.68.49-2.53.08-.42.12-.85.17-1.27.04-.43.11-.85.12-1.28.06-.85.1-1.71.1-2.57.02-.43-.01-.85-.02-1.28,0-.43-.04-.85-.07-1.28-.06-.85-.17-1.7-.3-2.54-.08-.42-.15-.84-.25-1.24-.08-.4-.19-.84-.29-1.18l-.13-.45.15-.38.69-1.71c.22-.57.41-1.16.61-1.74.2-.58.34-1.17.52-1.76.15-.59.27-1.19.41-1.78.09-.6.22-1.19.27-1.79.06-.6.12-1.2.11-1.8.03-.6-.04-1.19-.07-1.79-.09-.58-.16-1.18-.31-1.75-.06-.29-.15-.57-.24-.85-.09-.28-.18-.56-.31-.83-.22-.55-.5-1.08-.82-1.58s-.67-.99-1.07-1.44c-.39-.45-.83-.88-1.3-1.27-.94-.78-1.99-1.45-3.11-1.99-1.12-.53-2.31-.98-3.54-1.25Z"/>
    <line class="cls-3" x1="160.32" y1="30.37" x2="162.54" y2="24.75"/>
    <path d="m150.32,31.45c1.56-.14,3.15-.08,4.72.15,1.57.22,3.13.66,4.61,1.31,1.48.66,2.87,1.61,4.02,2.83,1.15,1.22,2.02,2.72,2.53,4.33.51,1.6.72,3.28.71,4.93-.02,1.65-.24,3.28-.58,4.86-.34,1.58-.78,3.14-1.32,4.65-.54,1.51-1.16,2.98-1.82,4.43v-1.03c.19.44.31.79.43,1.18.12.38.22.76.32,1.14.18.76.33,1.52.41,2.29.1.77.14,1.54.15,2.31.02.77-.02,1.54-.07,2.31-.03.38-.08.76-.12,1.15-.04.38-.09.76-.17,1.14-.07.38-.13.76-.21,1.13l-.29,1.11c-.17.75-.45,1.46-.68,2.18-.11.36-.28.71-.41,1.06l-.43,1.05.06-.64c.17.95.29,1.86.39,2.8.1.93.18,1.86.24,2.79.13,1.86.15,3.72.1,5.58l-.07,1.39c-.01.46-.08.93-.12,1.39-.07.93-.23,1.85-.35,2.77-.18.92-.34,1.83-.6,2.72-.21.9-.55,1.77-.85,2.64l.23-1.36c.09-.45.12-.91.18-1.36.13-.9.15-1.82.22-2.73.02-.91.07-1.82.03-2.73,0-.91-.05-1.82-.09-2.72-.06-.91-.12-1.81-.22-2.71-.09-.9-.19-1.8-.31-2.7-.12-.9-.25-1.79-.41-2.69-.15-.89-.32-1.79-.5-2.64l-.06-.29.13-.35.36-.99c.11-.33.25-.66.35-1,.18-.68.42-1.34.55-2.03.16-.68.29-1.37.39-2.06.06-.34.11-.69.14-1.03.03-.35.08-.69.1-1.04.03-.69.06-1.39.03-2.08-.02-.69-.07-1.38-.16-2.06-.08-.68-.21-1.36-.35-2.02-.08-.33-.16-.66-.26-.98-.09-.31-.21-.66-.31-.89l-.22-.55.23-.48c.65-1.39,1.26-2.79,1.79-4.22.53-1.43,1.02-2.86,1.38-4.33.37-1.46.61-2.94.68-4.41.09-1.47-.01-2.94-.37-4.35-.37-1.4-1.01-2.71-1.91-3.85-.91-1.14-2.09-2.06-3.39-2.82-1.31-.75-2.75-1.29-4.23-1.7-1.48-.39-3.02-.68-4.59-.77Z"/>
    <line class="cls-3" x1="153.56" y1="42.86" x2="155.42" y2="31.56"/>
    <polyline class="cls-1" points="153.51 37.19 155.02 28.26 147.03 26.73"/>
    <polyline class="cls-1" points="146.18 60.94 147.69 52.01 139.7 50.48"/>
    <polyline class="cls-1" points="159.46 30.04 162.72 21.6 155.2 18.5"/>
    <polyline class="cls-1" points="163.34 106.92 166.39 107.67 167.66 102.65"/>
  </g>
</svg>