<?xml version="1.0" encoding="UTF-8"?>
<svg id="Lager_1" data-name="Lager 1" xmlns="http://www.w3.org/2000/svg" xmlns:xlink="http://www.w3.org/1999/xlink" viewBox="0 0 300.38 240">
  <defs>
    <style>
      .cls-1 {
        fill: #fff;
      }

      .cls-2, .cls-3, .cls-4 {
        fill: none;
        stroke: #000;
        stroke-linecap: round;
      }

      .cls-3 {
        stroke-width: 1.5px;
      }

      .cls-4 {
        stroke-width: 2px;
      }

      .cls-5 {
        fill: url(#linear-gradient);
      }
    </style>
    <linearGradient id="linear-gradient" x1="132.11" y1="1165.55" x2="142.76" y2="1142.2" gradientTransform="translate(0 -964.44)" gradientUnits="userSpaceOnUse">
      <stop offset="0" stop-color="#fff"/>
      <stop offset="1" stop-color="#ededed"/>
    </linearGradient>
  </defs>
  <rect class="cls-1" x="36.8" y="6.61" width="226.77" height="226.77"/>
  <g>
    <g id="Färg">
      <path class="cls-5" d="m161.91,216.4l4.73-34.65,6.06-17.79s-8.99-1.09-10.9-.47c-1.91.62-16.2-4.06-16.2-4.06l-10.74-5.87-5.56-5.63-13.86,23.1-15.74,20.58s61.54,24.8,62.22,24.8Z"/>
    </g>
    <path d="m110.27,179.18l4.8-7.92,4.84-7.9,4.84-7.89,4.9-7.86.02-.03.06-.07c1.13-1.33,2.03-3.02,2.44-4.73.21-.86.3-1.74.22-2.6-.01-.44-.12-.83-.2-1.3l-.28-1.43c-.7-3.78-1.32-7.56-1.95-11.33-1.22-7.56-2.38-15.13-3.52-22.71-1.1-7.58-2.2-15.15-3.15-22.78-.11-.96-.22-1.91-.31-2.89l-.05-.76c0-.13-.01-.27,0-.47,0-.02,0-.15.03-.26l.04-.16c-.04.13,0,.01-.01.03.02-.06.03-.13.01-.07,0,.06,0-.2-.04-.38l-.11-.69c-.17-.99-.25-2.19.05-3.33.29-1.15.91-2.16,1.64-2.98.74-.81,1.57-1.48,2.43-2.04.45-.29.83-.52,1.35-.81l.64-.32.77-.32c2-.74,3.91-.92,5.46-1.6.78-.33,1.5-.76,2.13-1.32.31-.28.64-.56.92-.9l.47-.53c.16-.17.31-.35.56-.57.87-.79,1.74-1.3,2.65-1.77.91-.46,1.83-.84,2.75-1.18,3.71-1.35,7.49-2.17,11.26-2.94,3.78-.74,7.58-1.32,11.37-1.88l1.42-.21.24-.03h.18c.14-.02.45,0,.58.03.35.06.64.2.91.33,1.04.59,1.7,1.35,2.36,2.1,1.28,1.52,2.41,3.06,3.38,4.81,1.91,3.36,3.61,6.8,5.3,10.24.83,1.73,1.63,3.47,2.43,5.22l1.17,2.64c.37.89.76,1.8.89,2.84.15,1.05-.23,2.12-.77,2.94-.52.84-1.17,1.58-1.79,2.3-1.28,1.44-2.58,2.84-3.89,4.24l-7.94,8.3,7.65-8.56c1.27-1.43,2.54-2.87,3.77-4.32.62-.74,1.2-1.48,1.66-2.28.46-.8.72-1.66.57-2.52-.14-.86-.54-1.73-.94-2.58l-1.26-2.57-2.62-5.1c-1.76-3.39-3.54-6.78-5.5-10.02-.93-1.58-2.1-3.11-3.32-4.49-.61-.67-1.28-1.34-1.93-1.67-.16-.07-.31-.14-.43-.15-.09-.02-.04,0-.13-.01l-.18.02s.09,0,.02,0h-.04s-.09.02-.09.02l-1.41.24c-3.77.65-7.52,1.34-11.24,2.13-3.71.8-7.43,1.67-10.9,2.98-.87.33-1.71.69-2.5,1.11-.78.41-1.56.91-2.1,1.42-.11.09-.28.28-.44.46l-.47.54c-.33.4-.73.76-1.12,1.12-.8.71-1.75,1.28-2.72,1.7-1.98.84-3.95,1.03-5.54,1.66l-.55.23-.64.32c-.31.18-.75.44-1.11.67-.74.49-1.4,1.04-1.95,1.65-.54.61-.93,1.28-1.11,2-.18.72-.15,1.48,0,2.37l.12.73c.03.29.09.51.04,1.05-.02.18-.04.23-.05.28l-.03.12s.02-.05.02-.07c.01-.05.01-.13.01-.08v.25s.06.67.06.67c.08.92.19,1.87.3,2.82.9,7.57,1.98,15.16,3.04,22.73l3.22,22.73c.54,3.79,1.07,7.58,1.67,11.34l.24,1.39c.07.47.19,1.02.2,1.54.07,1.05-.07,2.1-.34,3.09-.56,2-1.54,3.76-2.92,5.31l.08-.1-5.09,7.73-5.15,7.7-5.15,7.69-5.2,7.66Z"/>
    <path d="m191.79,91.37s-.01-.05-.04-.14c-.01-.05-.03-.11-.05-.18,0-.05-.03-.04-.02-.15.14,0,.06.04.09.04v.03s.03.07.03.07c.11.37.27.91.41,1.6.29,1.39.61,3.41.75,5.86.15,2.44.12,5.32-.21,8.37-.17,1.53-.38,3.1-.7,4.68-.32,1.58-.7,3.18-1.14,4.76-.46,1.57-.99,3.13-1.57,4.63-.57,1.51-1.24,2.95-1.9,4.33-1.35,2.76-2.86,5.2-4.28,7.19-1.41,2-2.73,3.55-3.68,4.61-.96,1.05-1.54,1.62-1.54,1.62,0,0,.45-.68,1.23-1.86.77-1.19,1.84-2.89,3.03-4.98,1.18-2.09,2.46-4.58,3.65-7.32.6-1.36,1.15-2.81,1.69-4.27.54-1.47,1.03-2.98,1.46-4.51.45-1.52.84-3.06,1.17-4.59.32-1.53.63-3.04.85-4.52.46-2.95.7-5.74.81-8.13.1-2.4.07-4.41,0-5.82-.04-.7-.07-1.26-.12-1.63v-.07s-.01-.03-.01-.03c.02-.01-.06-.01.06-.01.02-.02,0,.06.01.08,0,.07.01.13.02.18.01.1.02.15.02.15Z"/>
    <line class="cls-4" x1="180.83" y1="133.05" x2="165.65" y2="190.73"/>
    <path class="cls-2" d="m132.37,151.2s14.5,13.83,36.83,12.33"/>
    <path class="cls-4" d="m136.57,67.42s21.43-4.07,25.27-4.52c3.85-.44,7.26,5.78,8.8,8.85s7.57,13.28,4.15,16.94-9.44,7.15-9.44,7.15"/>
    <path d="m145.4,82.59s.22.08.61.19c.38.12.92.28,1.54.44,1.26.33,2.89.66,4.5.68.4.04.81-.01,1.21-.01.4,0,.79-.08,1.17-.1.39-.03.75-.13,1.11-.18.36-.04.69-.15,1.01-.21.31-.09.62-.11.87-.21.25-.08.49-.14.68-.19.39-.1.63-.14.63-.14,0,0-.14.18-.42.48-.14.15-.31.33-.53.53-.2.21-.47.38-.77.58-.3.19-.61.44-.99.59-.38.16-.77.37-1.21.48-.44.11-.89.27-1.37.3-.48.05-.96.11-1.45.08l-.73-.04-.71-.12c-.47-.06-.92-.23-1.35-.36-.42-.17-.82-.32-1.18-.53-.36-.19-.69-.4-.97-.61-.58-.4-1-.83-1.27-1.14-.27-.31-.39-.52-.39-.52Z"/>
    <path d="m156.85,79.59s.36.5.8,1.14c.46.64,1,1.44,1.54,2.23.27.4.54.79.8,1.19.27.38.5.76.71,1.11.2.35.38.64.5.88.11.23.17.38.17.38,0,0-.15-.01-.41-.06-.25-.06-.62-.13-1.01-.33-.41-.17-.83-.44-1.26-.78-.41-.35-.81-.78-1.14-1.26-.32-.49-.59-1.02-.74-1.54-.17-.52-.24-1.04-.23-1.49-.01-.89.3-1.46.3-1.46Z"/>
    <path d="m159.27,83.2s-.92,1.12-2.05,2.84c-.27.44-.57.91-.85,1.41-.29.5-.55,1.05-.81,1.61-.27.56-.45,1.17-.65,1.77-.16.61-.32,1.23-.38,1.86-.08.63-.09,1.26-.04,1.88.05.62.13,1.23.3,1.81.16.58.34,1.15.57,1.67.1.27.23.51.35.76.12.24.22.49.36.71.26.43.48.86.72,1.21.23.35.42.68.61.93.35.51.55.82.55.82,0,0-.31-.18-.83-.54-.52-.36-1.23-.93-1.98-1.75-.36-.42-.76-.87-1.09-1.43-.35-.54-.68-1.15-.93-1.82-.13-.34-.25-.68-.33-1.04-.11-.36-.17-.73-.22-1.11-.11-.76-.1-1.54-.01-2.31.18-1.54.74-3,1.45-4.21.7-1.22,1.56-2.2,2.34-2.96,1.59-1.52,2.93-2.11,2.93-2.11Z"/>
    <line class="cls-3" x1="165.28" y1="95.24" x2="157.14" y2="101.32"/>
    <path d="m162.35,100.44s.66,2.78,1.66,6.95c.53,2.07,1.15,4.49,1.82,7.08.36,1.29.73,2.62,1.1,3.98.38,1.37.58,2.84.6,4.29.07,2.92-.57,5.81-1.57,8.32-1.02,2.52-2.39,4.67-3.7,6.37-1.33,1.7-2.62,2.96-3.54,3.8-.93.84-1.5,1.27-1.5,1.27,0,0,.53-.48,1.41-1.37.88-.89,2.08-2.21,3.32-3.94,1.24-1.73,2.52-3.88,3.43-6.37.94-2.46,1.54-5.27,1.44-8.08-.03-1.41-.26-2.78-.6-4.13-.36-1.36-.71-2.7-1.05-3.99-.67-2.6-1.2-5.05-1.61-7.15-.85-4.21-1.21-7.05-1.21-7.05Z"/>
    <path d="m164.36,100.08s.54,1.46,1.22,3.7c.33,1.12.72,2.43,1.09,3.84.37,1.41.73,2.93,1.06,4.45.31,1.53.61,3.06.82,4.5.22,1.45.36,2.81.43,3.98.04.59.07,1.12.05,1.6-.02.48,0,.89-.04,1.23-.09.68-.14,1.07-.14,1.07,0,0,0-.39,0-1.07,0-.34-.06-.75-.09-1.22-.03-.47-.12-1-.19-1.57-.06-.58-.18-1.19-.29-1.85-.1-.66-.26-1.34-.38-2.06-.27-1.43-.58-2.94-.91-4.46-.66-3.03-1.33-6.06-1.82-8.34-.5-2.28-.81-3.8-.81-3.8Z"/>
    <path class="cls-3" d="m177,91.84l-5.21,6.4s-2.14.56-3.89-1.83"/>
    <path class="cls-3" d="m191.78,85.35l-4.3,8.19s-1.39,1.08-3.13-1.31"/>
    <path class="cls-3" d="m183.91,89.6l-4.29,6.08s-2.14.56-3.89-1.83"/>
    <path d="m156.68,53.6s.01-.1.11-.27c.11-.18.29-.4.56-.63.54-.49,1.38-1.07,2.44-1.65,1.06-.6,2.33-1.19,3.73-1.74.7-.27,1.43-.55,2.18-.79.75-.24,1.52-.47,2.29-.69.78-.19,1.56-.38,2.33-.54.77-.18,1.54-.28,2.29-.39,1.49-.21,2.91-.29,4.12-.26.61,0,1.16.06,1.66.11.49.06.92.13,1.26.21.35.06.61.16.79.22.18.06.27.09.27.09,0,0-.4.02-1.09.09-.69.07-1.66.21-2.8.42-1.15.22-2.48.51-3.9.85-.71.17-1.44.36-2.18.54-.74.18-1.5.38-2.25.59-.76.19-1.51.39-2.25.6-.74.21-1.47.41-2.17.6-1.41.4-2.72.78-3.84,1.13-1.12.35-2.05.65-2.67.93-.31.14-.55.26-.69.37-.15.11-.19.21-.2.21Z"/>
    <path d="m176.29,46.87s.21-.08.64-.17c.43-.08,1.07-.17,1.9-.09.83.07,1.85.34,2.89.94,1.05.6,2.05,1.57,2.86,2.8.76,1.17,1.47,2.56,2.15,3.97.66,1.44,1.32,2.97,1.96,4.56.61,1.6,1.24,3.26,1.82,4.97.56,1.71,1.12,3.45,1.63,5.22.24.89.48,1.77.7,2.67l.16.68.07.35.04.17.02.09.02.12v.04c.02.13.04.19.04.37,0,.17,0,.35,0,.51-.03.27-.06.54-.12.79-.45,1.97-1.28,3.55-2.08,5.11-.81,1.54-1.71,2.95-2.58,4.27-.87,1.32-1.75,2.53-2.59,3.61-1.67,2.18-3.22,3.88-4.34,5.01-1.14,1.13-1.84,1.71-1.84,1.71,0,0,.61-.68,1.58-1.94.97-1.26,2.29-3.1,3.74-5.39,1.43-2.3,3.05-5.02,4.45-8.06.69-1.5,1.39-3.14,1.65-4.69.04-.19.04-.37.06-.54,0-.06,0-.11,0-.16,0-.05-.03-.21-.04-.3l-.15-.54-.19-.63c-.26-.85-.55-1.7-.84-2.56-.57-1.71-1.13-3.43-1.73-5.1-.57-1.68-1.13-3.34-1.71-4.93-.57-1.59-1.1-3.14-1.66-4.57-.55-1.45-1.06-2.76-1.66-3.96-.54-1.15-1.28-2.05-2.06-2.7-.78-.66-1.63-1.05-2.35-1.29-.73-.23-1.35-.31-1.77-.34-.42-.03-.65,0-.65,0Z"/>
    <path d="m164.7,49.4s.01-.1.09-.25c.09-.17.25-.39.5-.62.49-.47,1.27-1.03,2.25-1.59.98-.57,2.17-1.13,3.48-1.64,1.31-.52,2.73-.99,4.18-1.35,1.45-.37,2.93-.64,4.33-.8,1.4-.17,2.73-.21,3.86-.15,1.13.05,2.07.21,2.72.38.32.07.57.17.74.22.17.06.26.08.26.08,0,0-.37.03-1.02.09-.64.06-1.55.19-2.62.37-.53.1-1.11.21-1.72.33-.61.13-1.25.27-1.91.41-1.32.3-2.73.65-4.13,1-1.4.35-2.81.72-4.12,1.08-1.31.36-2.54.71-3.58,1.02-1.04.32-1.91.6-2.48.87-.29.13-.51.25-.63.35-.14.11-.18.2-.19.19Z"/>
    <path d="m182.69,43.27s.21-.08.63-.16c.41-.08,1.04-.17,1.85-.1.81.06,1.8.31,2.83.88,1.03.56,2.02,1.49,2.85,2.67.44.63.74,1.15,1.11,1.84.37.66.7,1.33,1.05,2.03.65,1.4,1.3,2.89,1.94,4.44.6,1.56,1.21,3.18,1.8,4.84.56,1.66,1.1,3.36,1.62,5.07.25.86.48,1.72.7,2.59l.32,1.31.15.68.02.08.02.1v.04s.03.16.03.16c.02.09.02.28.03.43,0,1.15-.26,2.01-.53,2.89-.28.86-.61,1.67-.95,2.45-.68,1.56-1.46,2.99-2.22,4.33-.76,1.34-1.51,2.58-2.24,3.7-1.44,2.25-2.74,4.06-3.66,5.32-.94,1.24-1.48,1.95-1.48,1.95,0,0,.43-.78,1.18-2.14.75-1.36,1.81-3.31,3.02-5.66,1.2-2.36,2.58-5.13,3.73-8.17.28-.76.54-1.54.75-2.32.2-.76.35-1.61.31-2.21,0-.06,0-.1-.02-.22l-.03-.16v-.04s-.01-.02-.01-.02c.02.12,0,.02,0,.04l-.02-.08-.17-.6-.38-1.24c-.28-.83-.55-1.66-.83-2.49-.54-1.67-1.12-3.34-1.69-4.98-.54-1.65-1.11-3.26-1.68-4.81-.53-1.56-1.09-3.05-1.62-4.46-.27-.7-.53-1.39-.8-2.01-.24-.61-.59-1.32-.84-1.82-.55-1.1-1.29-1.96-2.06-2.6-.78-.63-1.6-1-2.31-1.23-.72-.22-1.32-.29-1.73-.32-.42-.02-.64,0-.64,0Z"/>
    <path d="m164.63,94.56s-.67.15-1.62.33c-.48.09-1.03.2-1.61.33-.29.05-.58.15-.88.21-.29.08-.6.16-.88.26-.28.1-.58.18-.83.32-.13.07-.26.12-.39.18-.12.07-.23.14-.35.21-.25.13-.39.32-.6.47-.16.18-.28.37-.43.54-.08.2-.17.39-.25.56-.08.17-.09.34-.13.48-.07.28-.11.45-.11.45,0,0-.05-.15-.12-.45-.02-.15-.1-.33-.09-.55.01-.21.03-.47.07-.74.1-.25.19-.56.36-.83.2-.24.38-.57.66-.76.26-.23.55-.45.87-.6.31-.18.64-.29.97-.42.67-.21,1.35-.34,1.99-.37.64-.04,1.23-.03,1.73.03,1,.1,1.65.35,1.65.35Z"/>
    <path d="m176.82,91.32s-.56.26-1.4.65c-.41.19-.89.41-1.39.65-.5.24-1.02.51-1.51.81-.23.16-.5.29-.69.48-.1.09-.21.17-.32.25l-.27.27c-.2.17-.31.38-.45.56-.13.19-.18.4-.28.59-.04.2-.07.39-.1.56-.04.18,0,.33,0,.46,0,.27.01.43.01.43,0,0-.08-.13-.2-.38-.05-.13-.17-.28-.19-.48-.03-.2-.08-.43-.08-.68.04-.25.05-.54.17-.82.12-.26.23-.58.45-.81.19-.26.4-.51.66-.71.24-.23.52-.39.78-.58.56-.32,1.14-.6,1.7-.78.56-.19,1.09-.31,1.56-.38.93-.15,1.56-.1,1.56-.1Z"/>
    <line class="cls-4" x1="132.95" y1="142.97" x2="110.78" y2="178.39"/>
    <path d="m175.91,93.18s.44-.77,1.22-1.79c.77-1.03,1.88-2.32,3.05-3.53,1.17-1.22,2.41-2.36,3.37-3.2.48-.42.88-.77,1.16-1.02.27-.25.44-.4.44-.4,0,0-.06.21-.2.58-.15.35-.4.85-.74,1.4-.69,1.11-1.76,2.46-2.95,3.69-1.18,1.23-2.49,2.34-3.53,3.1-1.03.77-1.82,1.18-1.82,1.18Z"/>
  </g>
</svg>