<?xml version="1.0" encoding="UTF-8"?>
<svg id="Lager_1" data-name="Lager 1" xmlns="http://www.w3.org/2000/svg" xmlns:xlink="http://www.w3.org/1999/xlink" viewBox="0 0 300.38 240">
  <defs>
    <style>
      .cls-1 {
        fill: #fff;
      }

      .cls-2, .cls-3 {
        fill: none;
        stroke: #000;
        stroke-linecap: round;
      }

      .cls-3 {
        stroke-width: 2px;
      }

      .cls-4 {
        fill: url(#linear-gradient);
      }
    </style>
    <linearGradient id="linear-gradient" x1="120.73" y1="15.56" x2="130.4" y2="38.88" gradientTransform="translate(0 241.78) scale(1 -1)" gradientUnits="userSpaceOnUse">
      <stop offset="0" stop-color="#fff"/>
      <stop offset="1" stop-color="#ededed"/>
    </linearGradient>
  </defs>
  <rect class="cls-1" x="36.8" y="6.61" width="226.77" height="226.77"/>
  <g>
    <polygon class="cls-4" points="149.16 231.14 157.3 195.56 138.87 190.66 116.34 180.26 118.16 178.16 108.82 195.99 93.41 218.64 149.16 231.14"/>
    <path class="cls-3" d="m97.41,212.14s23.4-35.64,24.62-42.74c1.22-7.1,3.67-59.18,4.77-67.15s.23-17.44,2.93-24.75,4.44-16.77,4.44-16.77"/>
    <path class="cls-3" d="m134.84,63.14l.07-14.42s16.9-1.68,10.51,21.3c0,0,3.28,9.19-.96,19.09,0,0,4,5.32.35,14.08"/>
    <line class="cls-3" x1="140.66" y1="47.06" x2="141.62" y2="37.34"/>
    <path class="cls-3" d="m141.99,38.08l.74-14.45s11.21-1.61,12.17,7.93-1.46,15.16-1.46,15.16c0,0,5.21,8.42.79,19.5,0,0,4.31,17.25,1.22,25.11"/>
    <path class="cls-3" d="m152.8,22.59l.5-10.21s12.86-1.21,13.42,11.26c.56,12.46-2.03,14.79-3.44,16.25"/>
    <path class="cls-3" d="m163.09,37.75s4.28,16.58-.71,24.95c0,0,5.88,14.13,1.37,24.83"/>
    <path class="cls-3" d="m165.57,66.9l2.91-2.61c1.16-1.04,3.37-1.67,4.9-1.41l21.06,3.67c1.54.27,3.31,1.65,3.95,3.07l3.81,8.51"/>
    <path class="cls-3" d="m200.91,77.89l6.18,10.2s-6.18,6.96-16.32.76"/>
    <polyline class="cls-3" points="190.07 88.73 187.84 82.65 177.55 81.23 171.43 89.03"/>
    <line class="cls-2" x1="164.12" y1="87.24" x2="169.62" y2="89.08"/>
    <path class="cls-3" d="m172.79,87.3s-1.82,8.04-3.55,17.6-1.73,9.55-1.73,9.55"/>
    <path class="cls-2" d="m162.47,143.33s.05-22.23,4.91-30.42"/>
    <path class="cls-3" d="m190.57,90.13s-6.7,13.46-5.33,18.1c1.37,4.64,2.94,22.58.66,31.3s-9.24,25.97-15.13,32.62-10,8.04-10,8.04l-10.12,44.71"/>
    <path class="cls-2" d="m120.51,180.13s11.72,13.94,34.73,13.94"/>
    <path d="m198.53,79.27s-.1.23-.25.64c-.15.4-.3,1-.43,1.71-.06.36-.11.74-.14,1.15-.04.41-.04.84-.02,1.28,0,.44.06.9.12,1.36.05.44.18.96.27,1.35l.23.7c.11.16.18.34.29.5.26.29.52.59.89.68.35.14.75.17,1.14.14.39-.03.76-.1,1.11-.19.69-.19,1.27-.41,1.66-.59.4-.18.62-.29.62-.29,0,0-.17.18-.52.45-.35.26-.86.65-1.57.96-.35.17-.75.31-1.21.39-.23.05-.47.05-.72.08-.25-.03-.52-.01-.78-.12-.54-.12-1.03-.5-1.4-.94-.17-.23-.31-.5-.45-.76l-.25-.7c-.14-.58-.23-1.03-.28-1.55-.06-.5-.07-1.01-.04-1.49.01-.48.08-.95.17-1.38.08-.43.2-.83.33-1.2.25-.72.58-1.28.81-1.65.24-.37.42-.55.42-.55Z"/>
    <path class="cls-2" d="m163.36,89s-2.73,2.53-7.34,1.96"/>
    <path d="m154.04,94.71s.24.77,0,1.94c-.05.29-.14.61-.26.93-.13.32-.27.66-.48.97-.18.33-.44.63-.69.94-.29.27-.57.57-.89.81-.34.22-.65.47-1.01.63-.35.18-.69.36-1.05.46-.69.26-1.37.39-1.94.46-.57.1-1.06.06-1.4.07-.34,0-.53-.02-.53-.02,0,0,.18-.07.5-.18.31-.12.77-.22,1.29-.43.26-.1.54-.21.84-.31.29-.11.58-.28.9-.4.32-.12.6-.33.91-.49.32-.15.58-.39.88-.59.29-.2.54-.45.8-.68.22-.27.49-.49.66-.76.21-.26.38-.53.54-.79.14-.27.29-.53.39-.78.43-1,.54-1.78.54-1.78Z"/>
    <path d="m168.59,114.32s.46.38,1.04,1.03c.59.64,1.3,1.55,1.95,2.5.64.96,1.21,1.96,1.59,2.74.38.78.57,1.35.57,1.35,0,0-.46-.38-1.04-1.03-.59-.64-1.3-1.55-1.94-2.5-.64-.96-1.21-1.96-1.59-2.74-.38-.78-.57-1.35-.57-1.35Z"/>
    <path d="m151.07,116.89s.29.98.74,2.71c.44,1.73,1.1,4.2,1.75,7.19.34,1.49.67,3.12,1.03,4.83.33,1.72.71,3.53,1.01,5.43.33,1.89.61,3.85.9,5.84.25,2,.51,4.03.68,6.07.1,1.02.14,2.04.18,3.06.05,1.02.09,2.04.06,3.05-.02,1.01.01,2.01-.1,3.01-.09.99-.12,1.98-.35,2.93-.09.48-.18.96-.28,1.43-.11.49-.26.9-.4,1.35-.25.88-.59,1.74-.91,2.57-.67,1.64-1.4,3.15-2.21,4.47-.78,1.34-1.65,2.46-2.47,3.4-.81.95-1.63,1.68-2.31,2.27-1.39,1.15-2.33,1.57-2.33,1.57,0,0,.9-.5,2.2-1.72.64-.61,1.4-1.38,2.15-2.36.75-.98,1.54-2.12,2.27-3.45.75-1.31,1.42-2.82,2.01-4.44.28-.82.58-1.64.81-2.54.11-.44.27-.9.36-1.33.08-.45.16-.91.25-1.37.21-.91.22-1.88.3-2.84.1-.96.06-1.96.07-2.95.02-.99-.04-2-.1-3.01-.05-1.01-.11-2.02-.21-3.03-.14-2.02-.38-4.04-.6-6.03-.27-1.98-.52-3.94-.83-5.82-.58-3.77-1.16-7.29-1.74-10.29-.56-3-1.03-5.51-1.39-7.25-.35-1.75-.55-2.75-.55-2.75Z"/>
    <path d="m141.91,176.73s.27-.1.72-.3c.23-.1.5-.23.8-.39.31-.15.63-.37,1-.57.35-.23.74-.47,1.13-.75.4-.26.79-.59,1.2-.91.41-.32.81-.69,1.22-1.05.39-.39.82-.74,1.19-1.16.38-.41.79-.79,1.13-1.22.34-.43.74-.8,1.05-1.23.33-.41.64-.81.94-1.19.28-.4.55-.76.81-1.1.52-.67.9-1.27,1.19-1.68.29-.41.46-.64.46-.64,0,0-.1.27-.29.73-.22.45-.44,1.15-.87,1.89-.2.38-.43.79-.68,1.22-.26.42-.55.86-.86,1.3-.29.46-.66.88-1.01,1.33-.35.45-.76.86-1.15,1.29-.39.43-.85.79-1.26,1.19-.44.37-.89.71-1.33,1.03-.9.62-1.79,1.12-2.59,1.46-.8.34-1.51.53-2,.64-.5.1-.79.11-.79.11Z"/>
  </g>
</svg>