<?xml version="1.0" encoding="UTF-8"?>
<svg id="Lager_1" data-name="Lager 1" xmlns="http://www.w3.org/2000/svg" xmlns:xlink="http://www.w3.org/1999/xlink" viewBox="0 0 300.38 240">
  <defs>
    <style>
      .cls-1 {
        fill: #fff;
      }

      .cls-2, .cls-3 {
        fill: none;
        stroke: #000;
        stroke-linecap: round;
      }

      .cls-3 {
        stroke-width: 2px;
      }

      .cls-4 {
        fill: url(#linear-gradient);
      }
    </style>
    <linearGradient id="linear-gradient" x1="123.43" y1="34.63" x2="133.19" y2="58.18" gradientTransform="translate(0 241.78) scale(1 -1)" gradientUnits="userSpaceOnUse">
      <stop offset="0" stop-color="#fff"/>
      <stop offset="1" stop-color="#ededed"/>
    </linearGradient>
  </defs>
  <rect class="cls-1" x="36.8" y="6.61" width="226.77" height="226.77"/>
  <polygon class="cls-4" points="151.04 212.4 161.62 176.7 143.19 171.8 120.66 161.4 122.48 159.3 111.54 176.23 96.67 199.84 151.04 212.4"/>
  <path class="cls-2" d="m123.39,162.66s16.19,12.19,37.75,12.91"/>
  <path class="cls-3" d="m99.47,194.38s22.59-33.57,24.47-37.91-8.53-47.61-9.39-52.37c-.86-4.76,2.32-6.04,3.65-8.76"/>
  <path class="cls-3" d="m118.2,95.35s-2.67-10.31,6.18-14.81"/>
  <path class="cls-3" d="m124.44,81.7s-1.32-10.82,8.72-12.59"/>
  <path class="cls-3" d="m135.81,68.85s34.12-11.56,40.68-12.72,9.78,4.31,12.72,10.73"/>
  <path class="cls-3" d="m139.53,71.97s14.2-5.53,27.14-5.34,12.7,1.09,14.07,6.45c1.36,5.36.94,4.68.94,4.68"/>
  <path class="cls-3" d="m134.53,78.55s12.89-4.64,25.83-4.45c12.95.19,12.7,1.09,14.07,6.45,1.36,5.36,3.64,18.68,3.64,18.68.14.78-1.32,4.04-3.96,5.11"/>
  <path class="cls-3" d="m133.62,86.78s19.23-1.88,24.67-1.8,6.87,3.03,10.62,9.49,4.05,13.58-.19,15.05c-4.24,1.46-9.83,3.28-9.83,3.28"/>
  <path class="cls-3" d="m152.75,117.26c1.2-.82,7.24-4.26,7.24-4.26"/>
  <path class="cls-3" d="m138.59,103.69s10.75,2.68,14.25-1.44"/>
  <path class="cls-3" d="m150.33,101.82s3.1,2.64,7.65,3.46"/>
  <path class="cls-3" d="m153.72,103.9s-4.97,4.39-5.36,7.11c-.44,3.03,1.32,5.42,2.91,6.54"/>
  <path d="m146.41,109.52s.39.8,1.08,2.2c.67,1.41,1.66,3.41,2.77,5.84,1.12,2.43,2.47,5.24,3.84,8.29,1.39,3.04,2.86,6.28,4.34,9.52.73,1.62,1.47,3.24,2.21,4.83.37.8.75,1.57,1.13,2.33.2.37.41.74.61,1.11.21.41.37.87.46,1.29.37,1.73.23,3.4-.02,4.93-.26,1.54-.69,2.95-1.21,4.2-1.05,2.51-2.46,4.32-3.6,5.39-.57.55-1.07.9-1.41,1.14-.35.23-.54.35-.54.35,0,0,.18-.13.51-.38.32-.26.79-.65,1.32-1.23,1.07-1.12,2.36-2.97,3.25-5.46.46-1.24.84-2.62,1.04-4.12.2-1.48.26-3.1-.12-4.64-.1-.39-.23-.73-.42-1.07-.21-.37-.43-.75-.64-1.12-.39-.77-.8-1.55-1.18-2.34-.78-1.58-1.53-3.19-2.29-4.81-1.52-3.23-2.92-6.51-4.27-9.56-1.36-3.05-2.54-5.94-3.57-8.41-1.04-2.46-1.84-4.54-2.42-5.99-.57-1.46-.89-2.29-.89-2.29Z"/>
  <path class="cls-2" d="m160.91,138.8s.32,13.17-5.37,19.02"/>
  <line class="cls-3" x1="195.63" y1="75.26" x2="189.03" y2="69.35"/>
  <path class="cls-3" d="m189.51,69.63s-9.54.05-7.63,13.23c1.65,11.43,5.53,10.92,5.53,10.92"/>
  <path class="cls-3" d="m186.07,91.42s-.59,5.91-6.27,12.85"/>
  <path class="cls-3" d="m196.25,74.44s5.35,4.1,6.87,5.63c1.2,1.21-.17,11.49-2.08,14.72-1.91,3.23-7.88,11.79-7.4,23.52s-21.27,30.15-25.41,35.36l-15,53.94"/>
  <path class="cls-2" d="m191.06,71.17s1.18,5.45.44,10.3c-.49,3.17.62,4.3,2.1,4.46,1.48.16,3.02-4.81,1.33-11.29"/>
  <path d="m144.9,104.91s.4.65.77,1.72c.19.53.37,1.17.5,1.87.14.7.2,1.46.19,2.24-.04.39-.04.78-.14,1.16-.04.19-.08.38-.12.57-.07.18-.14.36-.21.54-.11.36-.36.66-.54.95-.2.29-.49.48-.71.68-.25.17-.52.26-.73.36-.21.11-.44.09-.6.13-.33.04-.52.06-.52.06,0,0,.17-.09.46-.24.14-.09.33-.13.49-.28.16-.15.35-.28.53-.46.14-.22.33-.41.46-.66.11-.27.27-.52.33-.84.04-.15.09-.31.13-.46.02-.17.04-.33.07-.5.07-.33.06-.69.09-1.03.02-.35,0-.71,0-1.06-.04-.35-.02-.7-.06-1.04-.06-.67-.12-1.31-.18-1.86-.13-1.11-.21-1.85-.21-1.85Z"/>
</svg>