<?xml version="1.0" encoding="UTF-8"?>
<svg id="Lager_1" data-name="Lager 1" xmlns="http://www.w3.org/2000/svg" xmlns:xlink="http://www.w3.org/1999/xlink" viewBox="0 0 300.38 240">
  <defs>
    <style>
      .cls-1 {
        stroke-width: 1.6px;
      }

      .cls-1, .cls-2 {
        stroke-linecap: round;
      }

      .cls-1, .cls-2, .cls-3 {
        fill: none;
        stroke: #000;
      }

      .cls-4 {
        fill: #fff;
      }

      .cls-2 {
        stroke-width: 2px;
      }

      .cls-5 {
        fill: url(#linear-gradient);
      }
    </style>
    <linearGradient id="linear-gradient" x1="132.39" y1="22.97" x2="142.08" y2="46.37" gradientTransform="translate(0 241.78) scale(1 -1)" gradientUnits="userSpaceOnUse">
      <stop offset="0" stop-color="#fff"/>
      <stop offset="1" stop-color="#ededed"/>
    </linearGradient>
  </defs>
  <rect class="cls-4" x="36.8" y="6.61" width="226.77" height="226.77"/>
  <polygon class="cls-5" points="156.75 218.79 165.15 185.22 147.83 184.89 136.41 182.26 125.57 176.46 127.22 178.19 119.22 192.19 113.96 214.94 156.75 218.79"/>
  <path class="cls-3" d="m128.55,177.81s8.89,8.87,31.51,7.26"/>
  <path class="cls-1" d="m130.84,109.19c-.83-2.62-.8-6.79.84-10.47"/>
  <path class="cls-2" d="m116.81,204.13s7.11-19.3,12.06-40.53c4.94-21.23,2.49-52.77,1.98-54.4"/>
  <polyline class="cls-2" points="133.43 105.25 135.6 73.9 138.89 46.69"/>
  <path class="cls-2" d="m136.6,107.69s4.4-26.06,5.3-39.32"/>
  <line class="cls-2" x1="139.61" y1="47.49" x2="140.34" y2="36.64"/>
  <line class="cls-2" x1="143.89" y1="34.44" x2="144.14" y2="27.87"/>
  <line class="cls-2" x1="142.11" y1="68.05" x2="141.57" y2="58.48"/>
  <path d="m140.82,58.21c2-.77,4.3-1.01,6.49-.31.54.19,1.08.41,1.57.73.5.3.95.68,1.36,1.1.41.42.78.88,1.09,1.37.32.49.59,1,.81,1.54.23.53.4,1.08.56,1.62.14.55.27,1.1.36,1.66.18,1.11.28,2.23.28,3.33.01.56.01,1.11-.02,1.66-.02.55-.04,1.1-.1,1.65-.06.54-.07,1.1-.17,1.64l-.23,1.62-.32-1.02c.36.39.5.64.72.97.18.31.35.62.49.94.3.64.51,1.29.69,1.94.18.66.27,1.32.35,1.98.05.66.11,1.32.09,1.98.02.66-.04,1.31-.08,1.95-.05.65-.17,1.28-.25,1.92-.13.63-.26,1.26-.4,1.88l-.5,1.85-.82,3.05-1.1-2.93-.06-.15-.03-.09v-.05c.77.25-1.78-.22,1.75-.9.1.12.04.06.07.1.04.05.08.14.07.13l.04.1.1.27.18.52.32,1.03c.2.69.38,1.38.53,2.07.32,1.39.52,2.8.66,4.21.13,1.42.13,2.84.02,4.25-.13,1.41-.4,2.81-.86,4.13.34-2.78.1-5.53-.44-8.2-.26-1.34-.64-2.65-1.03-3.95-.2-.65-.42-1.29-.66-1.93l-.37-.94-.2-.46-.1-.21s-.01-.03-.01-.02c-.01-.02.03.06.06.1l.07.09c3.53-.68.98-1.15,1.76-.9v-.04c-.03-.07-.01-.01-.02-.03l.04.09-1.92.12.37-1.76.28-1.77.08-.88c.02-.29.08-.59.08-.88.03-.59.07-1.17.04-1.75,0-.58-.06-1.15-.11-1.73-.08-.57-.19-1.12-.31-1.67-.14-.54-.3-1.07-.52-1.56-.11-.25-.23-.48-.35-.71-.12-.19-.31-.47-.36-.53l-.41-.44.09-.57c.16-1.03.34-2.06.46-3.09.08-.52.12-1.03.16-1.55.05-.52.08-1.03.09-1.55.04-1.03,0-2.05-.08-3.06-.04-.51-.12-1-.21-1.5-.11-.49-.21-.98-.38-1.44-.07-.24-.16-.47-.26-.69-.09-.23-.18-.46-.3-.67-.22-.44-.48-.85-.78-1.22-.3-.38-.64-.73-1.03-1.02-.38-.31-.8-.56-1.25-.79-.9-.43-1.91-.67-2.95-.77-1.04-.08-2.11-.05-3.17.14Z"/>
  <path class="cls-2" d="m141.81,36.21s12.5,2.65,7.25,20.78"/>
  <path class="cls-2" d="m144.12,28.04s13.19-1.42,10.31,17.95c0,0,3.62,11.46.62,22.79,0,0,4.83,7.5,1.17,18.83,0,0,4.25,7.62,2.82,16.89"/>
  <path class="cls-2" d="m159.04,104.51s9.48,1.75,13.33,7.01"/>
  <path d="m168.45,108.33c-.12-1.06-.08-2.14.08-3.2.15-1.07.44-2.12.82-3.15.41-1.02.93-2.01,1.6-2.91.67-.9,1.47-1.71,2.37-2.4l-.35,1.09c-.15-.47-.24-.85-.34-1.28-.09-.42-.16-.83-.22-1.25-.13-.83-.18-1.67-.18-2.51,0-.84.04-1.68.13-2.51.11-.83.26-1.65.46-2.46.19-.81.46-1.6.76-2.37.29-.78.65-1.52,1.04-2.25.39-.73.84-1.42,1.31-2.08.48-.66,1.01-1.28,1.56-1.87-.34.74-.69,1.46-.99,2.2-.32.73-.59,1.47-.85,2.21-.25.74-.47,1.49-.67,2.25-.2.75-.33,1.51-.47,2.27-.13.76-.22,1.52-.26,2.29-.06.76-.08,1.53-.06,2.29.02.76.09,1.52.17,2.28.05.38.1.75.17,1.12.07.36.16.76.25,1.05l.21.7-.56.39c-.79.54-1.53,1.17-2.16,1.92-.65.73-1.23,1.54-1.71,2.42-.51.87-.9,1.8-1.27,2.77-.34.97-.65,1.97-.86,3Z"/>
  <path d="m179.86,77.38s.62-.57,1.72-1.05c1.09-.51,2.67-.94,4.35-.86.83.04,1.69.21,2.45.55.38.14.72.42,1.03.61.3.24.54.54.75.78.19.28.31.56.42.8.13.22.12.48.16.65.05.37.05.56.05.56,0,0-.16-.15-.41-.38-.13-.11-.23-.28-.43-.39-.19-.12-.38-.26-.58-.4-.25-.1-.48-.22-.73-.32-.29-.06-.53-.19-.85-.23-.31-.06-.61-.13-.95-.15-.32-.05-.67-.07-1.01-.08-.34-.04-.7,0-1.05-.04h-1.04c-.68.01-1.34.01-1.91.01-1.14,0-1.97-.06-1.97-.06Z"/>
  <path class="cls-2" d="m187.51,89.44s-5.45,5.51-3.62,33.01c0,0-2.09,27.38-14.46,39.61"/>
  <line class="cls-2" x1="190.83" y1="79.05" x2="186.56" y2="88.4"/>
  <path class="cls-2" d="m170.43,159.36s-10.29,38.85-10.71,47.5"/>
  <polyline class="cls-2" points="157.95 68.86 166.61 68.73 172.57 71.55"/>
  <line class="cls-2" x1="173.16" y1="72.27" x2="180.38" y2="74.7"/>
  <path d="m158.67,82.6c1.12-.43,2.26-.76,3.39-1.08,1.14-.32,2.29-.58,3.43-.85l.21-.05.33.14c.2.09.48.19.73.27.26.08.52.15.79.22.53.13,1.06.23,1.6.29,1.07.12,2.14.09,3.18-.1,1.04-.2,2.06-.59,3.04-1.14.49-.27.96-.59,1.44-.93.47-.35.93-.72,1.41-1.11-.24.56-.51,1.12-.87,1.62-.35.52-.76.99-1.22,1.43-.46.44-.98.82-1.54,1.15-.27.18-.58.3-.87.44-.3.13-.61.24-.93.33-.63.2-1.28.3-1.93.35-.65.04-1.31.02-1.95-.08-.64-.09-1.27-.24-1.88-.45-.3-.11-.6-.23-.9-.36-.3-.14-.57-.26-.9-.46l.54.09c-1.17.1-2.35.19-3.53.24-1.18.05-2.36.08-3.56.01Z"/>
  <path d="m156.22,109.74c.47,2.01.89,4.04,1.33,6.06l1.22,6.08-.1-.2c.56.59,1.01,1.19,1.45,1.83.42.64.84,1.29,1.19,1.97.38.67.7,1.36,1.02,2.06.34.69.57,1.42.86,2.13.28.71.47,1.46.71,2.18.25.72.37,1.49.55,2.23.19.74.3,1.5.41,2.25.11.76.26,1.51.3,2.27l.2,2.28c.03.76.04,1.52.05,2.28,0,.76.01,1.52-.05,2.28l-.14,2.27c-.03.76-.18,1.51-.26,2.26l-.32,2.25c-.3,1.49-.61,2.97-.94,4.44l.57-4.49.16-2.25c.05-.75.16-1.5.15-2.25l.04-2.25c.03-.75,0-1.5-.05-2.25l-.09-2.24-.23-2.23c-.05-.75-.21-1.48-.33-2.22-.12-.74-.24-1.47-.44-2.19-.19-.72-.32-1.46-.55-2.17-.22-.71-.4-1.44-.66-2.13-.27-.69-.49-1.41-.81-2.08-.3-.68-.6-1.36-.96-2.01-.33-.67-.72-1.3-1.12-1.92-.41-.61-.83-1.24-1.29-1.77l-.09-.1-.02-.1-.95-6.13c-.28-2.05-.59-4.09-.84-6.15Z"/>
  <path d="m172.17,73.61s0,.53.19,1.17c.07.16.12.32.21.48.07.17.21.31.31.46.27.28.57.56.97.75.17.13.39.2.59.3.2.1.41.17.61.24.2.08.4.15.6.21.2.06.38.12.55.18.7.19,1.18.39,1.18.39,0,0-.49.14-1.26.18-.38-.01-.83.01-1.31-.11-.24-.06-.49-.08-.73-.19-.24-.1-.5-.18-.73-.33-.24-.14-.46-.29-.66-.49-.22-.17-.36-.42-.52-.62-.13-.24-.24-.47-.29-.71-.08-.23-.08-.46-.09-.66,0-.41.11-.73.2-.94.09-.21.17-.31.17-.31Z"/>
  <path d="m143.01,59.34s.17-.04.48-.04c.31,0,.76.04,1.29.28.25.13.54.29.76.57.24.26.43.61.5.99.1.38.07.79.05,1.1-.02.34-.04.69-.09,1.03-.08.69-.2,1.38-.39,2.01-.19.63-.43,1.22-.74,1.67-.29.46-.65.78-.93.92-.13.09-.26.11-.33.14-.08.03-.12.04-.12.04,0,0,.15-.1.33-.33.1-.1.19-.26.29-.42.09-.18.18-.38.26-.6.33-.91.49-2.22.64-3.55.03-.33.07-.67.1-.99.03-.35.07-.61.03-.86-.02-.26-.11-.47-.22-.68-.11-.21-.29-.37-.46-.52-.36-.28-.74-.47-1.01-.59-.27-.12-.44-.17-.44-.17Z"/>
  <path d="m141.39,38.2s.22.01.59.1c.37.08.9.23,1.5.53.58.3,1.3.76,1.73,1.63.11.22.17.46.21.71.04.25.01.52,0,.71-.03.43-.06.86-.12,1.29-.12.86-.31,1.73-.64,2.51-.32.78-.78,1.47-1.33,1.9-.54.45-1.12.6-1.5.63-.39.03-.6-.01-.6-.01,0,0,.22-.04.55-.18.34-.14.78-.4,1.15-.85.77-.9,1.17-2.51,1.37-4.14.05-.41.1-.82.14-1.23.04-.43.04-.67-.07-.99-.22-.61-.75-1.11-1.22-1.48-.48-.37-.94-.65-1.26-.83-.32-.19-.52-.29-.52-.29Z"/>
  <path d="m145.57,29.7s.67.03,1.6.41c.46.19,1.01.46,1.5.91.5.43.94,1.16.94,1.97,0,.37-.03.67-.06,1-.04.32-.09.64-.14.95-.12.61-.29,1.18-.5,1.64-.4.94-.93,1.4-.93,1.4,0,0,.16-.65.29-1.59.07-.47.13-1.01.19-1.6.04-.29.07-.6.09-.91.03-.3.08-.65.09-.92.05-.5-.2-.99-.54-1.41-.35-.42-.78-.76-1.17-1.02-.78-.53-1.38-.83-1.38-.83Z"/>
  <path d="m181.19,73.9s.13.3.14.74c.02.44-.07,1.02-.32,1.56-.25.53-.64,1-1.02,1.25-.18.13-.36.21-.49.25-.13.04-.2.06-.2.06,0,0,.02-.08.06-.2.05-.12.1-.29.18-.48.15-.38.34-.84.55-1.3.22-.46.45-.92.67-1.28.21-.35.41-.6.41-.6Z"/>
</svg>