<?xml version="1.0" encoding="UTF-8"?>
<svg id="Lager_1" data-name="Lager 1" xmlns="http://www.w3.org/2000/svg" xmlns:xlink="http://www.w3.org/1999/xlink" viewBox="0 0 300.38 240">
  <defs>
    <style>
      .cls-1 {
        fill: #fff;
      }

      .cls-2, .cls-3 {
        fill: none;
        stroke: #000;
        stroke-linecap: round;
      }

      .cls-3 {
        stroke-width: 2px;
      }

      .cls-4 {
        fill: url(#linear-gradient);
      }
    </style>
    <linearGradient id="linear-gradient" x1="122.4" y1="26.13" x2="132.4" y2="50.27" gradientTransform="translate(0 241.78) scale(1 -1)" gradientUnits="userSpaceOnUse">
      <stop offset="0" stop-color="#fff"/>
      <stop offset="1" stop-color="#ededed"/>
    </linearGradient>
  </defs>
  <rect class="cls-1" x="36.8" y="6.61" width="226.77" height="226.77"/>
  <polygon class="cls-4" points="153.56 219.07 165.85 185.33 144.83 180.93 128.59 173.15 126.33 168.63 114.06 182.9 93.23 207.45 153.56 219.07"/>
  <path class="cls-2" d="m128.59,173.15s10.57,11.07,32.12,11.79"/>
  <path class="cls-3" d="m195.54,98.14s5.35,4.1,6.87,5.63c1.2,1.21-.17,11.49-2.08,14.72-1.91,3.23-6.41,11.82-7.4,23.52-1.35,15.91-21.27,30.15-25.41,35.36l-11.16,40.15"/>
  <path class="cls-3" d="m93.23,207.45s34.76-35.4,36.06-43.22-6.37-58.61-6.32-61.97,5.55-11.48,5.55-11.48"/>
  <path class="cls-3" d="m133.6,104.85s-5.33-24.93-5.52-28.32c-.19-3.39,1.33-25.69,1.33-25.69"/>
  <line class="cls-3" x1="131.11" y1="49.79" x2="130.77" y2="38.1"/>
  <line class="cls-3" x1="184.52" y1="124.49" x2="183.91" y2="111.99"/>
  <path d="m129.74,37.68c1.29-.2,2.62-.24,3.94-.14,1.32.1,2.65.36,3.92.84,1.28.47,2.5,1.18,3.52,2.16.5.5.97,1.04,1.34,1.65.4.59.69,1.25.94,1.91.24.67.4,1.36.52,2.05.1.69.17,1.39.17,2.08.02.71,0,1.32,0,1.99-.02.67-.04,1.34-.09,2-.08,1.33-.22,2.66-.45,4.01-.12.67-.26,1.35-.47,2.03-.1.34-.22.68-.37,1.04-.07.17-.16.36-.25.54l-.17.29c-.08.12-.09.17-.31.4l.24-1.38c.21.45.37.83.53,1.25.16.41.31.82.46,1.23.28.82.56,1.65.77,2.49.44,1.68.81,3.37,1.07,5.08.13.85.24,1.71.31,2.57.08.86.14,1.72.17,2.58.05.86.04,1.72.03,2.59-.01.86-.08,1.72-.12,2.58l-.12-.49c.38.72.68,1.4.98,2.11.29.71.56,1.43.8,2.15.48,1.45.89,2.93,1.14,4.43.25,1.51.4,3.03.33,4.56-.05,1.52-.32,3.03-.83,4.45.28-1.47.32-2.97.2-4.43-.13-1.47-.4-2.91-.79-4.33-.4-1.41-.88-2.8-1.46-4.14-.29-.67-.6-1.34-.93-1.99-.32-.65-.67-1.31-1.03-1.9l-.11-.18v-.31c-.04-.83-.04-1.66-.09-2.49-.07-.83-.09-1.65-.18-2.47-.06-.82-.17-1.64-.28-2.46-.05-.41-.12-.82-.19-1.22-.07-.4-.12-.82-.2-1.22-.28-1.62-.65-3.23-1.1-4.81-.23-.79-.46-1.58-.71-2.35-.13-.38-.26-.77-.41-1.15-.14-.37-.3-.77-.44-1.09l.24-1.38c-.1.11-.02.03-.02,0l.08-.13c.06-.11.11-.22.17-.34.11-.24.21-.52.3-.8.18-.56.33-1.16.47-1.76.26-1.22.45-2.47.58-3.74.08-.63.11-1.26.18-1.9.04-.64.12-1.33.13-1.92.03-.61.01-1.22-.04-1.82-.07-.6-.17-1.19-.33-1.76-.17-.57-.36-1.14-.65-1.65-.27-.53-.62-1.01-1.01-1.47-.8-.9-1.79-1.64-2.92-2.19-1.12-.56-2.35-.94-3.6-1.21-1.26-.25-2.56-.42-3.86-.42Z"/>
  <path class="cls-3" d="m148.45,82.36c6.83-3.25,12.57-7.11,18.32-7.41,7.99-.42,13.12,14.78,15.94,21.28,1.81,4.18,2.35,16.01,2.35,16.01"/>
  <path class="cls-3" d="m147.31,79.28s9.68-5.72,18.41-9.78,21.4,22.11,21.4,22.11"/>
  <path d="m154.12,95.92s.17.14.46.33c.29.2.69.47,1.18.72.23.14.51.22.77.33.28.07.55.17.84.19.28.07.58.01.87.03.3-.07.59-.06.89-.2l.46-.14c.15-.08.3-.14.45-.21.15-.08.31-.12.46-.21.15-.09.29-.17.44-.26.29-.16.59-.31.85-.51.27-.18.53-.34.78-.49.25-.15.46-.32.67-.45.2-.14.39-.25.54-.34.31-.18.51-.28.51-.28,0,0-.06.2-.2.54-.07.17-.16.37-.28.6-.12.22-.23.5-.42.74-.18.25-.38.53-.61.81-.21.29-.5.56-.81.82-.3.27-.62.54-1.03.75-.19.11-.39.22-.59.32-.21.08-.44.15-.66.23-.44.17-.94.18-1.41.21-.47-.04-.96-.07-1.38-.25-.44-.13-.79-.38-1.13-.59-.3-.25-.58-.5-.78-.77-.43-.51-.64-1.01-.76-1.36-.12-.35-.14-.57-.14-.57Z"/>
  <path d="m163.59,95.27c-.15.74-.22,1.49-.26,2.22-.02.74-.03,1.47.06,2.18.08.72.19,1.42.39,2.1.2.67.44,1.33.74,1.95.3.62.68,1.2,1.08,1.75.19.28.43.53.64.8.24.24.46.51.72.73.5.47,1.05.89,1.6,1.31.56.41,1.17.76,1.78,1.11l.63.35-.02.75c-.01.43.01.95.03,1.43.03.49.06.98.12,1.47.11.98.28,1.95.52,2.89.13.47.25.94.4,1.4.16.46.33.91.52,1.35.2.43.41.86.66,1.27.24.4.5.81.79,1.18.28.38.61.72.94,1.05l.53.47.57.42c.4.26.8.53,1.24.72.43.23.89.37,1.35.55.47.12.95.29,1.44.36.49.11.99.15,1.5.21.51.07,1.02.05,1.54.08.52,0,1.04-.01,1.56-.02-.5.13-1.01.28-1.52.4-.52.07-1.04.2-1.57.23-.53.05-1.07.08-1.6.06-.54,0-1.08-.07-1.62-.14-.53-.12-1.08-.21-1.6-.41-.53-.16-1.04-.4-1.55-.65-.49-.27-.97-.58-1.41-.93-.44-.35-.87-.73-1.25-1.15-.39-.41-.75-.85-1.06-1.32-.32-.46-.6-.95-.86-1.44-.51-.99-.92-2.02-1.23-3.08-.3-1.06-.51-2.13-.65-3.21-.07-.54-.12-1.08-.16-1.63-.04-.55-.04-1.07-.02-1.68l.61,1.1c-1.38-.79-2.71-1.73-3.82-2.93-.29-.29-.53-.62-.79-.93-.24-.33-.49-.65-.7-1.01-.45-.68-.78-1.44-1.05-2.21-.56-1.53-.72-3.17-.58-4.73.15-1.56.57-3.09,1.33-4.41Z"/>
  <path d="m155.62,95.45c1.26,2.41,2.11,5.04,2.58,7.75.42,2.71.36,5.56-.55,8.21l-.02-.3c1.54,2.89,2.99,5.81,4.49,8.71,1.48,2.91,2.99,5.81,4.43,8.74l4.37,8.78,4.28,8.82-.02-.04c.26.4.43.79.58,1.21.15.41.25.84.32,1.27.07.43.11.86.11,1.29,0,.22,0,.43-.02.65-.02.21-.02.43-.06.64-.06.43-.13.85-.24,1.26-.09.42-.24.82-.37,1.22-.14.4-.34.78-.5,1.17l-.6,1.12.52-1.15c.14-.4.3-.79.42-1.19.11-.4.24-.8.3-1.22.09-.41.13-.82.17-1.24.02-.21.01-.41.02-.62,0-.21,0-.41-.02-.62-.02-.41-.08-.82-.17-1.22-.08-.4-.21-.79-.36-1.17-.15-.37-.33-.76-.55-1.06v-.02s-.02-.02-.02-.02l-4.55-8.68-4.47-8.72c-1.5-2.9-2.94-5.84-4.4-8.76-1.45-2.93-2.93-5.84-4.35-8.79l-.07-.16.06-.15c.95-2.48,1.1-5.22.79-7.89-.14-1.34-.41-2.67-.76-3.97-.36-1.31-.79-2.6-1.33-3.85Z"/>
  <line class="cls-3" x1="195.28" y1="98.61" x2="189.3" y2="93.95"/>
  <path d="m188.36,93.9s-.19.36-.47.98c-.15.3-.29.7-.49,1.12-.16.44-.37.92-.54,1.46-.09.27-.18.54-.27.83-.07.29-.15.59-.23.9-.18.6-.24,1.27-.37,1.92-.03.67-.15,1.35-.08,2.04.02.34,0,.69.05,1.04l.17,1.03c.02.35.15.68.25,1.01.11.33.2.67.29,1,.31.62.56,1.27.86,1.87.36.57.7,1.14,1.02,1.69.38.51.75,1,1.08,1.45.17.23.33.45.49.66.17.2.34.38.49.56.32.34.58.67.8.93.44.53.69.86.69.86,0,0-.36-.16-.98-.48-.31-.16-.69-.36-1.11-.61-.21-.12-.44-.26-.68-.4-.21-.17-.44-.35-.68-.54-.47-.39-1-.79-1.51-1.28-.46-.53-.95-1.11-1.43-1.72-.43-.65-.81-1.38-1.21-2.11-.14-.4-.27-.8-.41-1.2-.13-.41-.29-.81-.33-1.24l-.18-1.27c-.07-.42,0-.85-.01-1.27-.02-.85.18-1.65.32-2.42.1-.38.23-.75.35-1.1.11-.36.24-.7.41-1.02.16-.32.3-.63.45-.93.18-.28.35-.55.51-.81.31-.52.69-.95.99-1.33.33-.37.62-.68.88-.92.51-.49.85-.7.85-.7Z"/>
  <path d="m189.88,93.66s.07.06.16.21c.1.15.23.37.37.67.28.6.61,1.5.76,2.64.06.57.1,1.2.06,1.86-.04.64-.2,1.39-.31,2.03-.08.58-.04,1.25.2,1.85.22.61.59,1.2,1.04,1.74.45.53.96,1.07,1.49,1.53.49.42,1.15.79,1.34.51.32-.32.42-1.07.49-1.65.06-.62.07-1.22.08-1.77.02-1.11,0-2.04-.02-2.69v-1.02s.26,1.46.49,3.69c.05.56.09,1.17.08,1.82,0,.33-.02.67-.09,1.03-.07.35-.15.74-.48,1.12-.16.18-.43.34-.7.36-.26.02-.51-.03-.71-.11-.41-.15-.73-.38-1.05-.63-.58-.48-1.15-.98-1.66-1.57-.51-.59-.97-1.26-1.24-2.03-.27-.77-.32-1.58-.2-2.37.16-.73.33-1.29.4-1.92.1-.61.12-1.19.12-1.73-.01-1.08-.15-1.99-.31-2.61-.16-.62-.3-.97-.32-.96Z"/>
  <path d="m182.13,112.73s.09-.06,0,0c-.08.03-.19.11-.33.22-.26.21-.57.57-.88,1.04-.61.94-1.12,2.35-1.52,3.82-.41,1.47-.74,3-1.04,4.16-.13.58-.28,1.07-.38,1.42-.1.34-.18.54-.18.54,0,0-.23-.81-.31-2.03-.08-1.22,0-2.88.45-4.49.43-1.61,1.3-3.16,2.33-4,.5-.42,1.01-.66,1.39-.74.19-.04.34-.04.44-.03.03,0,.05,0,.08.03.02.05-.04.05-.04.05-.02,0-.04,0-.04,0Z"/>
  <path d="m150.24,170.31s.18.09.51.16c.33.08.81.14,1.38.15,1.14.01,2.66-.19,4.16-.53,1.5-.33,3-.76,4.14-1.05,1.13-.32,1.93-.48,1.93-.48,0,0-.66.46-1.72,1.01-.54.25-1.16.57-1.88.82-.36.12-.71.28-1.1.37-.38.1-.77.21-1.16.3-.79.15-1.59.29-2.36.3-.38.02-.75,0-1.1-.03-.35-.01-.68-.09-.98-.15-.6-.13-1.08-.35-1.38-.54-.31-.19-.44-.35-.44-.35Z"/>
  <path d="m170.45,140.36s.18.22.44.65c.25.43.6,1.07.92,1.87.14.41.33.84.45,1.32.15.47.28.98.38,1.51.12.53.2,1.08.28,1.65.05.57.11,1.14.15,1.72.04,1.15.01,2.31-.09,3.38-.12,1.07-.27,2.07-.48,2.9-.16.84-.43,1.52-.55,2-.15.48-.25.74-.25.74,0,0,.01-.29.06-.78s.13-1.2.18-2.04c.03-.42.07-.88.1-1.36.02-.48.04-.99.06-1.51.02-.52,0-1.07.02-1.62,0-.55-.03-1.11-.04-1.66-.02-.56-.07-1.11-.11-1.66-.08-.54-.09-1.09-.19-1.6-.08-.52-.15-1.02-.24-1.49-.08-.47-.19-.91-.27-1.33-.21-.81-.38-1.5-.55-1.96-.16-.47-.27-.73-.27-.73Z"/>
</svg>