<?xml version="1.0" encoding="UTF-8"?>
<svg id="Lager_1" data-name="Lager 1" xmlns="http://www.w3.org/2000/svg" xmlns:xlink="http://www.w3.org/1999/xlink" viewBox="0 0 300.38 240">
  <defs>
    <style>
      .cls-1 {
        fill: #fff;
      }

      .cls-2, .cls-3 {
        fill: none;
        stroke: #000;
        stroke-linecap: round;
      }

      .cls-3 {
        stroke-width: 2px;
      }

      .cls-4 {
        fill: url(#linear-gradient);
      }
    </style>
    <linearGradient id="linear-gradient" x1="119.85" y1="1179.13" x2="127.34" y2="1168" gradientTransform="translate(0 -964.44)" gradientUnits="userSpaceOnUse">
      <stop offset="0" stop-color="#fff"/>
      <stop offset="1" stop-color="#ededed"/>
    </linearGradient>
  </defs>
  <rect class="cls-1" x="36.8" y="6.61" width="226.77" height="226.77"/>
  <g id="Färg">
    <polygon class="cls-4" points="143.31 228.32 154.77 208.61 160.66 198.97 151.9 197.32 135.56 191.3 126.31 183.82 121.46 177.17 94.98 203.14 143.31 228.32"/>
  </g>
  <path class="cls-3" d="m146.05,223.05c.84-1.32,28.41-47.13,28.41-47.13-6.01,8.47,18.68-8.84,18.82-43.32"/>
  <path class="cls-2" d="m123.44,179.15s9.51,16.61,33.84,18.96"/>
  <path class="cls-3" d="m95.8,200.74s31.01-29.38,31.88-31.48c.86-2.11,6.99-61.94,7.44-65.11"/>
  <line class="cls-3" x1="142.61" y1="58.66" x2="140.46" y2="70.11"/>
  <polyline class="cls-3" points="140.02 68.01 135.86 84.2 135.24 109.23"/>
  <path d="m140.32,57.88c1.26.01,2.52.16,3.77.43,1.25.27,2.48.66,3.65,1.22,1.17.56,2.3,1.29,3.24,2.26.46.49.91,1.01,1.25,1.61.37.58.65,1.21.88,1.87.43,1.31.54,2.71.46,4.05-.04.69-.13,1.33-.21,1.94-.07.62-.19,1.27-.29,1.9-.23,1.26-.51,2.53-.89,3.79-.19.63-.41,1.27-.7,1.89-.14.32-.3.63-.5.95-.09.16-.2.32-.32.49l-.21.26c-.1.1-.12.15-.36.35l.42-1.41c.16.43.28.8.4,1.2.12.39.22.78.33,1.17.19.78.38,1.56.51,2.36.27,1.58.46,3.17.54,4.77.04.8.05,1.6.04,2.39-.01.8-.04,1.59-.11,2.39-.04.8-.14,1.59-.25,2.38-.11.79-.27,1.57-.4,2.35l-.02-.39c.18.76.32,1.47.44,2.21.11.73.21,1.47.28,2.21.15,1.47.23,2.96.19,4.44-.04,1.48-.17,2.96-.48,4.41-.29,1.45-.76,2.86-1.44,4.16.46-1.39.7-2.82.82-4.25.1-1.43.1-2.87-.02-4.29-.12-1.43-.29-2.85-.56-4.25-.13-.7-.28-1.4-.45-2.09-.16-.69-.34-1.4-.54-2.04l-.04-.14.02-.25c.06-.76.15-1.51.18-2.27.02-.76.09-1.51.08-2.27.02-.76,0-1.51-.02-2.27,0-.38-.03-.75-.06-1.13-.03-.38-.03-.75-.07-1.13-.1-1.5-.31-3-.58-4.48-.14-.74-.29-1.47-.46-2.2-.09-.36-.18-.72-.28-1.08-.1-.35-.21-.72-.32-1.02l.42-1.41c-.12.1-.03.03-.03.01l.09-.11c.07-.09.13-.18.2-.3.13-.21.26-.46.38-.71.24-.51.46-1.05.66-1.61.4-1.12.72-2.3,1-3.49l.39-1.8c.13-.63.26-1.23.32-1.79.15-1.15.11-2.3-.16-3.4-.14-.54-.33-1.08-.59-1.59-.24-.52-.58-.98-.94-1.44-.75-.89-1.67-1.67-2.71-2.3-1.03-.63-2.16-1.14-3.33-1.56-1.17-.4-2.38-.76-3.62-.96Z"/>
  <path class="cls-3" d="m173.5,92.14s5.39,10.86,3.29,20.13l3.39,9.98"/>
  <line class="cls-3" x1="145.64" y1="55.69" x2="150.36" y2="38.82"/>
  <path class="cls-3" d="m170.25,35.05s7.66,7.03,3.61,20.72c0,0,3.72,8.75-.74,18.99,0,0,2.2,10.48.39,17.38"/>
  <path d="m154.89,20.87c1.31.02,2.63.23,3.91.61.64.19,1.27.42,1.88.7.61.27,1.21.6,1.78.97.57.36,1.11.79,1.63,1.24.51.46.98.96,1.41,1.51.42.55.8,1.13,1.14,1.73.32.61.63,1.24.85,1.89.26.65.42,1.32.59,1.99.13.68.26,1.35.31,2.04.09.68.09,1.36.12,2.05,0,.68-.03,1.36-.06,2.04-.07.67-.12,1.35-.23,2.02-.12.66-.21,1.34-.35,1.99-.15.65-.28,1.32-.45,1.97l-.54,1.94-.03-.79c.2.52.35.96.5,1.43.15.47.26.94.38,1.41.22.95.41,1.9.55,2.85.07.48.15.96.19,1.44.04.48.11.96.13,1.44l.08,1.45v1.45c0,.48-.04.96-.06,1.45-.03.48-.04.96-.1,1.44-.09.96-.2,1.92-.38,2.87-.13.96-.37,1.89-.59,2.83-.1.47-.26.93-.39,1.39l-.42,1.38v-.66c.32,1.15.56,2.26.8,3.39.23,1.13.41,2.26.58,3.4.34,2.27.57,4.57.64,6.86.08,2.3,0,4.6-.26,6.89-.14,1.14-.34,2.27-.59,3.39-.26,1.12-.61,2.21-1.01,3.27.49-2.22.69-4.48.73-6.72.03-2.25-.11-4.49-.35-6.72-.27-2.23-.61-4.44-1.06-6.64-.22-1.1-.48-2.19-.74-3.27-.26-1.08-.55-2.18-.87-3.21l-.09-.29.1-.37.34-1.32c.11-.44.25-.87.32-1.32.16-.89.38-1.77.49-2.67.15-.89.24-1.79.32-2.69.05-.45.06-.9.08-1.35.01-.45.05-.9.04-1.35,0-.9-.02-1.8-.07-2.71-.01-.45-.07-.9-.11-1.35-.03-.45-.1-.9-.16-1.34-.12-.89-.29-1.78-.48-2.65-.11-.43-.21-.87-.33-1.3-.11-.42-.25-.87-.37-1.23l-.15-.42.12-.37.57-1.83c.18-.61.32-1.23.49-1.85.16-.62.26-1.24.4-1.86.12-.62.19-1.25.29-1.87.06-.62.13-1.25.16-1.88,0-.62.05-1.25,0-1.87-.01-.63-.1-1.24-.18-1.86-.12-.6-.21-1.22-.4-1.81-.15-.6-.38-1.17-.63-1.74-.25-.56-.56-1.1-.89-1.62-.35-.51-.73-1-1.15-1.47-.43-.45-.88-.89-1.38-1.28-.49-.4-1.02-.75-1.57-1.07-.55-.33-1.12-.62-1.71-.87-1.18-.5-2.43-.91-3.73-1.1Z"/>
  <line class="cls-3" x1="155.26" y1="28.49" x2="157.05" y2="21.48"/>
  <path d="m145.31,29.34c1.6-.25,3.24-.28,4.87-.11,1.63.16,3.26.54,4.81,1.19,1.56.64,3,1.61,4.19,2.86,1.2,1.24,2.1,2.78,2.67,4.4,1.16,3.27,1.14,6.75.68,10.04-.23,1.65-.56,3.28-1,4.87-.43,1.59-.94,3.16-1.5,4.7l-.06-.98c.22.45.36.8.51,1.2.15.39.27.78.39,1.17.23.78.43,1.57.56,2.37.15.79.24,1.6.31,2.4.07.8.08,1.6.09,2.41,0,.4-.03.8-.04,1.2,0,.4-.04.8-.09,1.2l-.13,1.19-.21,1.18c-.12.79-.35,1.56-.53,2.33-.09.39-.23.76-.34,1.14l-.36,1.14.02-.61c.23.99.42,1.93.57,2.9.16.96.31,1.93.43,2.9.26,1.94.4,3.89.48,5.84l.03,1.46c.02.49-.02.98-.02,1.47,0,.98-.1,1.95-.16,2.92-.12.97-.22,1.94-.41,2.9-.15.96-.43,1.9-.67,2.83l.14-1.44c.06-.48.05-.96.08-1.44.07-.96.03-1.92.03-2.88-.04-.96-.06-1.91-.15-2.87-.07-.95-.18-1.9-.28-2.85-.13-.95-.24-1.89-.41-2.84-.15-.94-.31-1.88-.49-2.82s-.38-1.87-.59-2.8c-.21-.92-.44-1.86-.68-2.75l-.07-.28.09-.34.29-1.07c.09-.36.21-.71.28-1.07.14-.73.33-1.44.41-2.17l.15-1.09.1-1.1c.04-.37.06-.73.07-1.1,0-.37.03-.73.03-1.1-.02-.73-.03-1.46-.11-2.19-.07-.73-.16-1.45-.3-2.16-.13-.72-.3-1.42-.49-2.11-.1-.34-.21-.69-.33-1.02-.11-.33-.26-.68-.37-.93l-.24-.51.18-.47c.55-1.49,1.06-2.99,1.49-4.5.43-1.51.82-3.04,1.08-4.58.26-1.54.43-3.08.41-4.62,0-1.53-.16-3.06-.59-4.5-.43-1.44-1.11-2.8-2.06-3.96-.95-1.17-2.18-2.12-3.54-2.85-1.36-.74-2.88-1.23-4.43-1.58-1.56-.33-3.16-.53-4.77-.52Z"/>
  <line class="cls-3" x1="149.25" y1="40.13" x2="150.3" y2="29.57"/>
  <polyline class="cls-1" points="148.84 34.48 149.77 25.48 141.7 24.46"/>
  <polyline class="cls-1" points="141.37 61.11 142.3 52.11 134.23 51.1"/>
  <polyline class="cls-1" points="154.31 26.96 157.02 18.32 149.31 15.72"/>
  <path class="cls-3" d="m180.26,115.49s6.6-7.4,7.72-15.1,6.74-16.29,11.27-18.69c4.54-2.4,9.56,2.18,9.85,3.69.29,1.5-3.2,9.79-3.2,9.79"/>
  <path class="cls-3" d="m193.46,132.28c.06-2.56,8.76-13.7,12.86-36.84"/>
  <path d="m159.47,109.82s-.23,1.11-.52,3.06c-.3,1.95-.6,4.75-.73,8.12-.08,1.68-.05,3.51.03,5.43.13,1.92.3,3.95.67,6.01.14,1.04.42,2.07.64,3.12.16.51.31,1.03.47,1.55.15.54.33,1.05.54,1.54.75,2.03,1.8,4.04,2.79,6.06,1.01,2.02,1.96,4.09,2.79,6.17.34,1.07.79,2.1,1.02,3.19.13.54.27,1.07.4,1.6.1.54.17,1.08.25,1.61.2,1.06.22,2.12.25,3.15.09,1.04-.1,2.04-.15,3.02-.03.99-.28,1.91-.44,2.82-.09.45-.17.9-.26,1.33-.11.43-.25.84-.37,1.25-.24.82-.48,1.6-.7,2.34-.29.72-.57,1.4-.83,2.04-.26.64-.51,1.23-.74,1.79-.27.53-.51,1.02-.74,1.46-.91,1.76-1.43,2.76-1.43,2.76,0,0,.46-1.03,1.25-2.84.2-.45.42-.95.66-1.49.2-.56.41-1.16.64-1.81.23-.65.47-1.33.72-2.06.2-.74.4-1.52.62-2.33.1-.41.23-.82.32-1.24.07-.43.14-.87.21-1.32.13-.89.34-1.81.34-2.77.02-.96.17-1.94.05-2.94-.07-1-.07-2.02-.29-3.05-.09-.51-.16-1.03-.26-1.55-.13-.51-.27-1.03-.41-1.54-.23-1.05-.68-2.05-1.02-3.09-.83-2.03-1.79-4.05-2.82-6.07-.98-2.04-2-4.05-2.78-6.2-.21-.53-.4-1.06-.54-1.59-.16-.54-.31-1.07-.47-1.6-.22-1.08-.49-2.13-.63-3.19-.38-2.11-.46-4.17-.54-6.12-.02-1.95,0-3.79.14-5.49.22-3.39.72-6.18,1.1-8.12.39-1.94.71-3.02.71-3.02Z"/>
  <path d="m150.45,181.69s.29,0,.79-.06c.5-.03,1.21-.14,2.05-.3.42-.07.87-.18,1.34-.3.47-.1.95-.29,1.46-.42.49-.2,1-.36,1.5-.6.5-.22,1.01-.46,1.47-.75.5-.25.95-.58,1.39-.89.46-.29.84-.68,1.25-1.01.42-.32.72-.73,1.07-1.06.35-.33.61-.71.88-1.04.25-.34.54-.62.71-.92.19-.29.35-.55.49-.76.28-.42.45-.66.45-.66,0,0-.09.27-.27.75-.1.24-.21.53-.34.86-.12.34-.35.67-.56,1.06-.22.38-.44.81-.78,1.19-.33.38-.61.86-1.04,1.22-.41.37-.79.82-1.28,1.15-.47.35-.95.71-1.47.99-.51.31-1.06.55-1.6.77-.53.25-1.1.37-1.62.55-.54.12-1.06.26-1.56.31-.5.08-.98.12-1.42.14-.88.05-1.61-.02-2.11-.08-.51-.06-.79-.13-.79-.13Z"/>
  <path d="m172.14,92.86c-.34.24-.7.48-1.11.62-.4.16-.82.27-1.24.33-.43.07-.86.09-1.3.07-.44-.03-.86-.08-1.31-.2l.43-.2c-.13.37-.29.69-.47,1.01-.18.32-.38.63-.6.92-.45.58-.95,1.13-1.53,1.58-.29.23-.59.44-.9.63-.32.19-.63.38-.97.52-.33.17-.68.27-1.03.4-.35.12-.71.19-1.06.29l.37-.41c-.04.24-.1.38-.16.55-.06.16-.13.32-.2.47-.15.31-.32.6-.5.88-.37.55-.79,1.06-1.24,1.53-.45.47-.94.9-1.44,1.29-.51.39-1.03.76-1.58,1.09.44-.46.9-.9,1.32-1.37.41-.48.83-.94,1.2-1.44.38-.49.73-1,1.02-1.53.15-.26.28-.53.4-.8.06-.14.11-.27.15-.41.04-.12.08-.29.09-.37l.03-.3.35-.11c.32-.1.65-.17.96-.28.31-.12.63-.22.92-.38.3-.14.6-.29.88-.46.29-.17.56-.35.82-.55.53-.39,1.02-.85,1.45-1.35.21-.25.42-.52.61-.79.18-.27.36-.57.49-.84l.15-.31.29.11c.34.13.75.23,1.14.29.4.06.8.09,1.21.09.82,0,1.62-.2,2.38-.56Z"/>
</svg>