<?xml version="1.0" encoding="UTF-8"?>
<svg id="Lager_1" data-name="Lager 1" xmlns="http://www.w3.org/2000/svg" xmlns:xlink="http://www.w3.org/1999/xlink" viewBox="0 0 300.38 240">
  <defs>
    <style>
      .cls-1 {
        fill: #fff;
      }

      .cls-2, .cls-3 {
        fill: none;
        stroke: #000;
        stroke-linecap: round;
      }

      .cls-3 {
        stroke-width: 2px;
      }

      .cls-4 {
        fill: url(#linear-gradient);
      }
    </style>
    <linearGradient id="linear-gradient" x1="116.32" y1="1174.68" x2="125.14" y2="1161.58" gradientTransform="translate(0 -964.44)" gradientUnits="userSpaceOnUse">
      <stop offset="0" stop-color="#fff"/>
      <stop offset="1" stop-color="#ededed"/>
    </linearGradient>
  </defs>
  <rect class="cls-1" x="36.8" y="6.61" width="226.77" height="226.77"/>
  <path d="m205.32,51.95c1.89,2.1,3.34,4.67,3.96,7.55.31,1.44.34,2.96.06,4.45-.28,1.49-.9,2.93-1.77,4.17-1.75,2.51-4.26,4.29-6.86,5.59-1.31.66-2.65,1.24-4.01,1.71-1.37.48-2.75.89-4.14,1.25l.53-.28c-.41.37-.79.7-1.2,1.03l-1.21.97c-.81.63-1.63,1.24-2.48,1.82-1.68,1.17-3.41,2.27-5.19,3.29-1.78,1.02-3.59,1.99-5.47,2.81-.93.43-1.88.82-2.83,1.2-.95.39-1.93.71-2.89,1.07l.51-.38c-.64.82-1.28,1.57-1.95,2.33-.67.75-1.36,1.48-2.06,2.19-1.39,1.44-2.88,2.79-4.43,4.06-1.54,1.28-3.19,2.43-4.9,3.47-.86.51-1.75.97-2.66,1.39-.91.41-1.85.76-2.79,1.05,1.78-.87,3.43-1.94,4.99-3.12,1.56-1.18,3.02-2.49,4.42-3.84,1.4-1.36,2.72-2.8,4.01-4.26.64-.74,1.26-1.49,1.87-2.25.6-.76,1.2-1.54,1.75-2.3l.18-.24.34-.14c.92-.37,1.85-.7,2.75-1.11.91-.39,1.81-.79,2.7-1.24.9-.42,1.76-.9,2.65-1.34.87-.48,1.74-.94,2.59-1.45,1.71-1,3.37-2.08,4.99-3.22.81-.57,1.6-1.16,2.39-1.75l1.16-.91c.38-.3.76-.63,1.11-.93l.24-.21.29-.07c2.67-.66,5.3-1.49,7.76-2.61,1.23-.56,2.4-1.22,3.49-1.99,1.09-.75,2.08-1.64,2.89-2.65.8-1.02,1.41-2.18,1.77-3.43.36-1.25.43-2.6.31-3.94-.12-1.35-.49-2.68-.97-3.98-.5-1.29-1.11-2.56-1.88-3.74Z"/>
  <g id="Färg">
    <polygon class="cls-4" points="138.75 221.72 148.9 201.76 156.81 186.65 152.77 185.95 138.3 182.85 127.82 176.52 121.23 168.58 92.72 200.48 138.75 221.72"/>
  </g>
  <path class="cls-2" d="m122.4,170.86s10.44,15.46,33.05,15.14"/>
  <path d="m140.16,23.24c1.45-.29,2.95-.38,4.45-.29,1.5.08,3,.37,4.45.89,1.45.51,2.82,1.34,3.97,2.43,1.16,1.09,2.05,2.46,2.64,3.93,1.19,2.96,1.3,6.16.98,9.18-.16,1.52-.41,3.02-.76,4.49-.35,1.47-.77,2.92-1.23,4.35l-.05-.91c.21.45.36.84.52,1.26.15.41.3.83.43,1.25.26.84.51,1.68.69,2.53.19.85.34,1.72.47,2.59.12.87.19,1.75.24,2.62.03.88.03,1.76-.02,2.65-.01.44-.08.88-.11,1.32-.04.44-.11.87-.18,1.31-.3,1.73-.75,3.42-1.32,5.06l.02-.61c.23.99.42,1.93.57,2.9.16.96.31,1.93.43,2.9.26,1.94.4,3.89.48,5.84l.03,1.46c.02.49-.02.98-.02,1.47,0,.98-.1,1.95-.16,2.92-.12.97-.22,1.94-.41,2.9-.15.96-.43,1.9-.67,2.83l.14-1.44c.06-.48.05-.96.08-1.44.07-.96.03-1.92.03-2.88-.04-.96-.06-1.91-.15-2.87-.07-.95-.18-1.9-.28-2.85-.13-.95-.24-1.89-.41-2.84-.15-.94-.31-1.88-.49-2.82s-.38-1.87-.59-2.8c-.21-.92-.44-1.86-.68-2.75l-.08-.3.1-.32c.48-1.56.84-3.14,1.05-4.74.05-.39.1-.8.13-1.2.03-.4.08-.79.09-1.19.04-.8.03-1.6,0-2.4-.05-.8-.13-1.6-.24-2.4-.12-.8-.27-1.59-.46-2.38-.18-.79-.4-1.56-.63-2.34-.12-.38-.25-.77-.38-1.14-.14-.37-.29-.77-.43-1.08l-.2-.46.15-.45c.46-1.37.88-2.75,1.23-4.14.35-1.39.66-2.79.85-4.19.2-1.4.29-2.82.23-4.21-.04-1.39-.24-2.77-.68-4.06-.44-1.29-1.1-2.49-2.01-3.51-.9-1.02-2.06-1.84-3.32-2.46-1.27-.63-2.66-1.03-4.08-1.3-1.43-.25-2.9-.39-4.37-.34Z"/>
  <path d="m205.83,54.18s-.33.15-.9.4c-.58.25-1.39.62-2.36,1.07-.49.22-1.01.48-1.55.75-.54.27-1.11.59-1.59.95-.12.09-.23.19-.29.27-.04.04-.04.07-.04.06-.03.1-.02.13-.03.18-.02.27.02.6.07.92.1.66.28,1.34.49,2,.2.67.43,1.33.7,1.95.14.31.27.61.43.87.04.06.08.12.12.17,0,0,.07.07.02.04l.1.08c.07.07.12.09.16.11.03.02.08.05.15.07.5.2,1.14.2,1.71.14.58-.07,1.14-.18,1.64-.33,1.01-.29,1.85-.62,2.41-.88.57-.26.9-.41.9-.41,0,0-.07.05-.21.15-.14.09-.33.26-.6.42-.53.34-1.3.83-2.32,1.24-.51.21-1.08.4-1.72.52-.63.1-1.34.21-2.12-.05-.16-.03-.48-.22-.57-.3l-.1-.08c-.1-.1-.1-.1-.15-.15-.07-.08-.13-.16-.19-.24-.22-.32-.4-.65-.55-.98-.31-.67-.56-1.36-.78-2.06-.21-.71-.38-1.42-.48-2.16-.05-.37-.07-.74-.03-1.16.02-.12.05-.26.07-.33.06-.17.14-.29.22-.38.16-.18.31-.3.47-.4.61-.41,1.22-.66,1.8-.91.58-.24,1.13-.43,1.65-.6,1.03-.34,1.9-.57,2.51-.73.61-.16.96-.23.96-.23Z"/>
  <path class="cls-3" d="m136.03,82.11s2.23-23.17,3.58-26.52c1.35-3.35,2.2-21.82,2.2-21.82"/>
  <line class="cls-3" x1="142.58" y1="33.46" x2="142.55" y2="22.91"/>
  <line class="cls-3" x1="198.66" y1="57.53" x2="206.55" y2="54.86"/>
  <path class="cls-3" d="m143.91,112.61s23.55-1.92,25.65-1.31,10.37,10.25,11.77,14.77-2.77,10.83-2.77,10.83"/>
  <path class="cls-3" d="m159.38,67.88s1.53-7.93,5.87-8.78c5.01-.98,9.12-1.09,10.63,3.54"/>
  <path class="cls-3" d="m179.78,88.16s-.41,9.24.12,13.51"/>
  <line class="cls-3" x1="178.81" y1="134.34" x2="177.77" y2="145.51"/>
  <path d="m161.91,124.82c-.14,1.07-.1,2.14.19,3.08.29.95.83,1.74,1.58,2.28.73.56,1.66.85,2.6,1.07.48.09.97.16,1.47.19.5.03,1,.06,1.51.07l1.32.02-.43,1.29c-.1.31-.21.69-.29,1.05-.08.36-.16.73-.22,1.1-.13.74-.22,1.48-.24,2.22,0,.37,0,.74.02,1.1.03.36.06.72.11,1.08.11.71.31,1.4.6,2.05.15.32.3.65.5.94.18.31.41.58.65.85.24.26.5.52.78.76.28.24.58.46.9.66.63.4,1.33.74,2.06,1.02.73.29,1.49.51,2.27.73-.4,0-.8.01-1.21,0-.4-.04-.81-.06-1.21-.12-.8-.14-1.62-.32-2.4-.67-.39-.16-.77-.36-1.14-.58l-.54-.35-.5-.41c-.32-.3-.64-.6-.91-.95-.29-.34-.53-.71-.75-1.09-.43-.78-.73-1.61-.92-2.46-.09-.43-.17-.85-.2-1.28-.04-.43-.05-.86-.05-1.28,0-.85.08-1.7.22-2.53.07-.42.17-.82.27-1.23.11-.42.22-.8.38-1.24l.9,1.31c-.56-.03-1.12-.05-1.68-.14-.56-.08-1.12-.2-1.68-.35-1.11-.32-2.22-.85-3.1-1.71-.88-.85-1.42-2.04-1.49-3.19-.09-1.15.16-2.27.65-3.24Z"/>
  <path d="m154.8,130.11s.57-.16,1.43-.39c.81-.23,1.78-.51,2.66-.9.23-.08.44-.2.66-.3.22-.09.42-.23.63-.33.21-.1.39-.24.6-.35.2-.1.38-.23.55-.34.16-.12.36-.2.49-.31.14-.11.28-.19.39-.26.23-.14.38-.22.38-.22,0,0,0,.16-.05.44-.05.27-.11.68-.34,1.1-.1.21-.2.46-.38.68-.17.22-.33.47-.56.67-.23.2-.45.44-.74.6-.27.18-.56.35-.86.47-1.22.53-2.57.5-3.47.2-.92-.26-1.4-.75-1.4-.75Z"/>
  <path d="m156.45,128.68s2.08,2.21,4.43,6.12c1.18,1.95,2.4,4.32,3.47,6.97.51,1.33,1.04,2.72,1.43,4.18.43,1.45.74,2.95,1.01,4.47.23,1.52.38,3.06.4,4.58.01.76.02,1.52-.05,2.26-.03.37-.05.74-.08,1.11-.05.37-.1.73-.15,1.09-.18,1.44-.52,2.81-.92,4.07-.17.64-.43,1.24-.65,1.82-.22.58-.49,1.12-.75,1.64-.48,1.05-1.09,1.91-1.58,2.71-.55.75-1.04,1.39-1.47,1.9-.9.98-1.42,1.52-1.42,1.52,0,0,.4-.64,1.1-1.75.33-.56.69-1.27,1.13-2.06.36-.83.83-1.73,1.18-2.78.2-.51.4-1.05.54-1.62.16-.57.36-1.14.47-1.76.13-.61.29-1.24.36-1.89.09-.65.21-1.31.25-1.99.03-.34.06-.68.09-1.03,0-.35.01-.7.02-1.05.03-.7,0-1.41-.02-2.13-.05-1.43-.21-2.88-.45-4.32-.23-1.44-.51-2.88-.9-4.28-.37-1.4-.77-2.77-1.22-4.08-.47-1.3-.91-2.57-1.4-3.74-.48-1.18-.97-2.29-1.43-3.3-1.88-4.05-3.42-6.65-3.42-6.65Z"/>
  <line class="cls-3" x1="182.18" y1="137.52" x2="181.34" y2="149.65"/>
  <line class="cls-3" x1="138.97" y1="96.78" x2="147.64" y2="99.95"/>
  <line class="cls-3" x1="139.23" y1="110.33" x2="146.79" y2="112.39"/>
  <path class="cls-3" d="m179.6,151.26s-3,12.09-16.9,24.14l-23.31,44.51"/>
  <path d="m146.05,24.86s.3.64.43,1.67c.07.51.11,1.12.06,1.78-.04.66-.17,1.35-.37,2.03-.23.67-.5,1.33-.88,1.88-.17.29-.37.54-.58.76-.19.24-.39.44-.6.6-.39.36-.76.58-1.03.72-.26.15-.42.22-.42.22,0,0,.11-.14.29-.37.09-.11.21-.25.34-.4.12-.16.25-.35.39-.55.15-.19.29-.42.43-.66.15-.23.29-.49.42-.76.15-.26.26-.55.38-.84.13-.28.22-.59.32-.9.12-.3.17-.62.26-.92.06-.31.15-.61.19-.91.11-.6.18-1.17.24-1.66.11-.99.14-1.68.14-1.68Z"/>
  <path d="m173.43,146.05s-.31-.62-.48-1.63c-.07-.51-.14-1.11-.09-1.75.02-.65.16-1.34.38-2.01.14-.32.24-.66.43-.96.16-.31.35-.6.56-.85.1-.13.2-.26.3-.38.12-.11.23-.21.35-.32.22-.21.44-.39.67-.51.43-.3.83-.45,1.12-.54.28-.1.44-.14.44-.14,0,0-.13.11-.35.31-.11.09-.24.2-.4.33-.15.13-.29.31-.46.48-.18.16-.33.37-.49.58-.18.2-.33.44-.47.69-.17.24-.28.51-.42.78-.15.26-.23.57-.34.85-.1.29-.19.59-.26.89-.05.3-.15.6-.18.89-.11.59-.16,1.15-.21,1.63-.08.97-.1,1.65-.1,1.65Z"/>
  <polyline class="cls-1" points="157.95 97.86 167.42 97.86 158.57 106.31 148.99 106"/>
  <polyline class="cls-1" points="207.33 45.42 216.81 45.42 207.95 53.86 198.38 53.55"/>
  <polyline class="cls-1" points="135.3 19.96 142.2 13.47 141.54 25.69 134.35 32.02"/>
  <polyline class="cls-1" points="149.95 72.77 158.93 69.78 160.81 92.31 144.02 83.32"/>
  <path class="cls-3" d="m143.99,98.98s21.26-1.43,29.04.22c7.77,1.65,14.5,21.47,14.5,25.42,0,3.95-4.25,13.51-5.19,15.89"/>
  <path class="cls-3" d="m101.14,191.45s20.84-22.06,24.71-29.54c3.87-7.48-5.69-55.2-3.83-63.62s28.65-21.04,33.22-24.94,40.31-14.9,43.43-16.04"/>
  <path d="m171.97,145.19s.41.65,1.11,1.42c.16.2.38.38.58.6.22.19.44.4.69.58.24.2.51.37.77.55.27.18.56.32.85.49.3.13.59.29.9.4.31.1.61.24.91.33.31.08.6.18.89.27.29.06.57.12.83.19.52.15.97.2,1.28.29.32.08.5.14.5.14,0,0-.18.07-.49.16-.32.07-.78.25-1.35.27-.28.03-.6.05-.92.06-.33-.02-.68-.04-1.04-.09-.36-.04-.73-.16-1.1-.26-.37-.1-.73-.29-1.09-.44-.34-.21-.7-.39-1-.64-.31-.24-.6-.49-.85-.78-.26-.26-.45-.57-.65-.85-.17-.29-.33-.57-.43-.84-.47-1.08-.39-1.87-.39-1.87Z"/>
</svg>