<?xml version="1.0" encoding="UTF-8"?>
<svg id="Lager_1" data-name="Lager 1" xmlns="http://www.w3.org/2000/svg" xmlns:xlink="http://www.w3.org/1999/xlink" viewBox="0 0 300.38 240">
  <defs>
    <style>
      .cls-1 {
        fill: #fff;
      }

      .cls-2 {
        stroke-linecap: round;
        stroke-width: 2px;
      }

      .cls-2, .cls-3 {
        fill: none;
        stroke: #000;
      }

      .cls-4 {
        fill: url(#linear-gradient);
      }
    </style>
    <linearGradient id="linear-gradient" x1="-82.02" y1="1259.84" x2="-73.38" y2="1247.01" gradientTransform="translate(-305.13 -961.71) rotate(-24.71)" gradientUnits="userSpaceOnUse">
      <stop offset="0" stop-color="#fff"/>
      <stop offset="1" stop-color="#ededed"/>
    </linearGradient>
  </defs>
  <rect class="cls-1" x="36.8" y="6.61" width="226.77" height="226.77"/>
  <g id="Färg">
    <polygon class="cls-4" points="173.61 217.93 171.89 195.4 172.71 179.33 168.88 181.23 154.36 182.64 142.18 181.28 130.12 178.02 120.32 217.72 173.61 217.93"/>
  </g>
  <path d="m128.35,25.13c1.22-.63,2.56-1.07,3.96-1.27,1.39-.21,2.86-.15,4.27.27,1.41.42,2.71,1.26,3.72,2.35,1.03,1.08,1.78,2.38,2.31,3.73,1.09,2.7,1.49,5.56,1.61,8.37.14,2.82-.04,5.61-.34,8.38l-.17-.77c.28.49.49.9.7,1.35.21.44.4.89.59,1.34.37.9.69,1.81.96,2.74.54,1.86.92,3.76,1.12,5.68.2,1.92.23,3.86.06,5.79-.18,1.92-.53,3.83-1.04,5.68v-.58c.55,2.11.95,4.21,1.32,6.33.18,1.06.36,2.12.49,3.19.14,1.07.25,2.14.36,3.21.08,1.07.19,2.14.2,3.22.01.54.05,1.07.04,1.61v1.61c-.01.54-.06,1.07-.08,1.61-.02.54-.07,1.07-.14,1.6-.06.53-.1,1.07-.21,1.59l-.29,1.58.06-1.6c.04-.53-.01-1.06,0-1.59.01-1.06-.1-2.12-.16-3.17l-.15-1.58c-.04-.53-.13-1.05-.19-1.57-.13-1.05-.31-2.09-.47-3.13-.36-2.08-.8-4.15-1.26-6.21-.24-1.03-.49-2.05-.76-3.07-.27-1.01-.55-2.04-.84-3.03l-.08-.27.07-.3c.43-1.74.69-3.52.81-5.3.09-1.78.07-3.58-.14-5.35-.2-1.77-.57-3.53-1.09-5.24-.26-.85-.55-1.7-.88-2.52-.17-.41-.34-.82-.52-1.22-.18-.39-.39-.81-.57-1.13l-.21-.38.05-.4c.16-1.34.29-2.68.38-4.02.08-1.34.15-2.68.14-4.01-.03-2.66-.27-5.33-1.07-7.79-.41-1.22-.97-2.38-1.74-3.38-.77-1-1.79-1.77-2.96-2.29-1.18-.51-2.5-.71-3.84-.7-1.34.03-2.7.23-4.01.64Z"/>
  <path class="cls-3" d="m133.29,178.65s10.96,7.48,36.28,2.44"/>
  <path d="m130.67,25.78s.25,0,.69.08c.43.09,1.06.2,1.76.54.36.16.72.38,1.08.69.36.3.69.74.85,1.3.08.27.1.59.08.85-.01.24-.04.5-.07.75-.06.5-.15,1-.27,1.49-.44,1.97-1.3,3.89-2.44,5-.56.56-1.18.84-1.61.93-.22.05-.4.06-.51.05-.12,0-.18,0-.18,0,0,0,.25-.04.63-.22.39-.17.85-.55,1.26-1.12.84-1.13,1.47-2.98,1.88-4.85.1-.47.19-.94.26-1.41.03-.24.06-.45.08-.69.01-.21.02-.37-.01-.55-.14-.7-.78-1.27-1.35-1.67-.58-.4-1.13-.69-1.52-.88-.4-.18-.62-.29-.62-.29Z"/>
  <path class="cls-2" d="m129.53,86.66c.21-1.73,1.24-29.27,1.24-29.27l-1.53-20.04"/>
  <path class="cls-2" d="m138.12,100.94s20.17-10.19,25.43-12.76c5.26-2.57,14.95,7.85,18.89,12.09s4.75,9.09,3.61,11.66"/>
  <path class="cls-2" d="m141.8,110.28s26.87-6.69,30.34-6.53c3.47.15,14.6,10.52,17.04,14.36,2.45,3.84-1.82,10.35-1.82,10.35"/>
  <line class="cls-2" x1="187.57" y1="127.9" x2="184.19" y2="137.53"/>
  <path class="cls-2" d="m183.03,83.76s3.71-9.26,14.77-5.33"/>
  <line class="cls-2" x1="198.14" y1="78.82" x2="195.3" y2="90.45"/>
  <path class="cls-2" d="m195.15,86.55s2.81,10.34,1.47,13.74c-1.34,3.39-6.12,14.5-6.12,14.5"/>
  <path class="cls-2" d="m183.37,140.09s-1.65,13.13-11.14,25.19l1.68,48.77"/>
  <line class="cls-2" x1="130.26" y1="36.63" x2="129.1" y2="25.75"/>
  <path d="m163.05,122.36c.52.19,1.06.29,1.59.41.54.09,1.07.17,1.6.2.27.01.53.04.8.03.27,0,.53.02.79,0,.53-.01,1.05-.07,1.57-.15.26-.02.51-.09.77-.13.26-.05.51-.09.76-.17l.75-.21.73-.26c.5-.15.96-.4,1.43-.6.24-.1.46-.24.69-.36l.69-.36,1.45-.77v1.65c-.02.11-.01.28,0,.43l.04.46c.04.31.09.61.15.9.15.58.32,1.14.6,1.6.27.46.62.8,1.05,1.01.42.23.96.31,1.54.29l2.2-.07-1.49,1.52c-.15.15-.34.4-.5.61-.16.22-.32.46-.45.7-.28.48-.49.99-.62,1.52-.26,1.05-.16,2.16.35,3.17.5,1,1.31,1.91,2.26,2.66.47.38.96.74,1.48,1.07.52.34,1.05.65,1.59.96-.59-.2-1.18-.39-1.76-.64s-1.14-.53-1.69-.85c-1.08-.66-2.13-1.49-2.85-2.64-.36-.57-.64-1.22-.79-1.91-.15-.69-.14-1.41-.03-2.1.11-.69.33-1.35.63-1.97.15-.31.31-.61.49-.9.19-.3.37-.55.64-.86l.71,1.45c-.78.09-1.65.07-2.48-.28-.83-.33-1.5-1-1.95-1.7-.45-.71-.72-1.46-.87-2.22-.08-.38-.13-.75-.16-1.13-.02-.19-.03-.38-.03-.57,0-.19,0-.37,0-.6l1.43.88-.78.38c-.27.12-.52.26-.8.35-.55.19-1.08.43-1.65.56-.28.07-.56.16-.84.22l-.86.14c-.29.05-.57.07-.86.09-.29.01-.58.06-.87.05-.58,0-1.15-.04-1.72-.11-.57-.07-1.13-.18-1.68-.34-1.09-.3-2.15-.76-3.05-1.41Z"/>
  <path d="m167.57,122.31s.19.03.49.17c.3.13.72.35,1.15.72.22.18.44.4.65.65.22.25.4.55.59.87.16.33.33.68.41,1.07.12.38.16.78.18,1.19.03.4-.04.8-.09,1.19-.09.38-.21.75-.34,1.09-.16.33-.33.63-.5.91-.18.27-.4.49-.58.7-.35.43-.78.67-1.03.86-.27.18-.44.26-.44.26,0,0,.04-.19.12-.5.07-.31.25-.7.36-1.19.07-.23.13-.49.21-.75.05-.27.1-.54.18-.81.03-.28.06-.56.11-.84-.02-.28.04-.56,0-.84,0-.56-.11-1.12-.24-1.66-.08-.26-.14-.53-.24-.78-.09-.25-.17-.5-.27-.72-.19-.45-.37-.85-.5-1.12-.13-.29-.22-.46-.22-.46Z"/>
  <path d="m169.04,129.04s.13.06.3.27c.18.2.42.51.7.93.55.83,1.29,2.06,2.01,3.61.72,1.55,1.46,3.43,2.01,5.5.57,2.07.98,4.35,1.12,6.65.07,1.15.07,2.31,0,3.44-.05,1.14-.21,2.25-.39,3.31-.1.53-.22,1.05-.33,1.56-.14.5-.28.99-.42,1.47-.3.94-.63,1.82-1,2.6-.32.8-.74,1.47-1.07,2.09-.37.59-.68,1.11-.96,1.52-.59.81-.93,1.26-.93,1.26,0,0,.25-.51.71-1.38.23-.44.46-.99.75-1.61.24-.64.55-1.35.8-2.15.28-.79.51-1.66.76-2.59.22-.93.4-1.92.55-2.95.14-1.03.22-2.1.26-3.19.05-1.09.03-2.2-.05-3.3-.25-4.44-1.4-8.79-2.52-11.96-.57-1.58-1.1-2.89-1.54-3.77-.22-.44-.4-.79-.54-1.01-.13-.22-.25-.31-.25-.31Z"/>
  <polyline class="cls-1" points="143.72 80.37 150.27 76.25 151.85 91.42 148.69 93.48 142.62 93.85"/>
  <path class="cls-2" d="m121.57,212.71s9.29-36.77,9.23-43.1-11.21-62.23-10.6-67.11c.6-4.89,17.93-16.08,24.19-20.12s16.12-9.85,20.13-7.52,18.67,11.44,19.95,15.25c1.28,3.81,1.49,12,1.49,12"/>
</svg>