<?xml version="1.0" encoding="UTF-8"?>
<svg id="Lager_1" data-name="Lager 1" xmlns="http://www.w3.org/2000/svg" xmlns:xlink="http://www.w3.org/1999/xlink" viewBox="0 0 300.38 240">
  <defs>
    <style>
      .cls-1 {
        fill: #fff;
      }

      .cls-2, .cls-3, .cls-4, .cls-5 {
        fill: none;
        stroke: #000;
      }

      .cls-2, .cls-4 {
        stroke-linecap: round;
      }

      .cls-3 {
        stroke-width: .5px;
      }

      .cls-4 {
        stroke-width: 2px;
      }

      .cls-6 {
        fill: url(#linear-gradient);
      }
    </style>
    <linearGradient id="linear-gradient" x1="218.76" y1="1012.63" x2="229.05" y2="997.36" gradientTransform="translate(97.93 -895.7) rotate(12.66)" gradientUnits="userSpaceOnUse">
      <stop offset="0" stop-color="#fff"/>
      <stop offset="1" stop-color="#ededed"/>
    </linearGradient>
  </defs>
  <rect class="cls-1" x="36.8" y="6.61" width="226.77" height="226.77"/>
  <g id="Färg">
    <polygon class="cls-6" points="103.47 163.78 122.38 130.05 122.22 125.86 116 122.9 109.62 117.26 105.87 107.8 108.52 88.91 71.8 120.11 103.47 163.78"/>
  </g>
  <path d="m219.26,161.24s-.21-.29-.57-.79c-.35-.51-.88-1.21-1.51-2.05-.32-.41-.66-.86-1.04-1.31-.19-.22-.39-.45-.61-.65-.2-.2-.47-.42-.59-.45-.14-.03-.42.03-.72.12-.29.09-.6.21-.91.34-.61.26-1.22.59-1.82.91-.6.33-1.19.69-1.72,1.08-.26.19-.53.4-.71.58-.17.21-.22.4-.28.7-.09.56-.04,1.17.09,1.73.12.56.3,1.09.49,1.57.39.95.81,1.72,1.14,2.24.33.52.52.82.52.82,0,0-.06-.06-.18-.18-.11-.12-.3-.29-.49-.53-.4-.47-.96-1.17-1.49-2.12-.24-.48-.5-1.01-.68-1.62-.18-.61-.31-1.28-.24-2.03.04-.35.17-.83.43-1.15.27-.33.54-.55.83-.78.58-.44,1.18-.82,1.81-1.18s1.27-.67,1.93-.95c.33-.13.67-.26,1.03-.35.18-.05.36-.08.56-.11.1,0,.19-.02.34-.01.07,0,.12,0,.16.01h.1s.1.05.1.05c.49.2.69.47.94.72.22.26.42.51.6.76.36.5.67.99.93,1.46,1.06,1.85,1.59,3.16,1.59,3.16Z"/>
  <path d="m203.17,163.29s-.2-.27-.54-.75c-.34-.48-.84-1.16-1.44-1.96-.3-.4-.63-.83-.99-1.26-.36-.42-.77-.9-1.18-1.18-.19-.22-.88.02-1.44.24-.59.23-1.18.52-1.75.83-.58.31-1.15.64-1.68.99-.52.37-1.08.7-1.32,1.12-.21.37-.25.96-.14,1.46.1.52.28,1.02.47,1.47.41.89.83,1.62,1.15,2.11.32.5.5.78.5.78,0,0-.25-.23-.65-.66-.39-.44-.97-1.07-1.51-1.97-.27-.45-.53-.96-.69-1.56-.15-.6-.26-1.32.12-2.08.39-.69.99-1.07,1.53-1.47.56-.39,1.15-.74,1.76-1.07.61-.32,1.24-.61,1.88-.85.32-.12.66-.22,1.02-.29.21-.03.47-.05.6-.03.23,0,.52.15.65.26.61.47.93.98,1.29,1.46.34.48.62.96.88,1.4,1,1.77,1.51,3.03,1.51,3.03Z"/>
  <path d="m225.66,150.78s-.52-.71-1.29-1.77c-.39-.52-.84-1.15-1.34-1.78-.25-.32-.51-.64-.79-.94-.27-.29-.6-.62-.85-.74-.07-.03-.04-.02-.16-.02-.03,0-.12.02-.2.04-.17.04-.36.09-.54.16-.37.15-.74.31-1.1.48-.71.35-1.38.7-1.94,1.01-.57.31-1.04.58-1.37.77-.32.2-.5.34-.5.34,0,0,.08-.22.32-.53.24-.32.62-.73,1.14-1.17.51-.43,1.15-.9,1.9-1.29.37-.2.77-.39,1.21-.54.22-.07.45-.14.71-.18.13-.02.26-.03.45-.01.09,0,.34.06.47.13.52.3.78.66,1.07,1.01.28.35.52.71.75,1.06.44.71.82,1.38,1.13,1.96.61,1.17.94,1.99.94,1.99Z"/>
  <path class="cls-4" d="m78.02,114.83c2.58-2.86,41.07-39.58,56.81-41.53,11.97-1.48,54.37,13.95,54.37,13.95,0,0,6.81-.73,12.36,12.19l15.32,25.11,10.27,25.23s1.99,7.44-7.26,7.76"/>
  <path class="cls-4" d="m110.2,153.14s10.99-20.63,17.25-27.54"/>
  <path class="cls-4" d="m123.28,119.42s10.34,9.54,22.26,10.78"/>
  <path class="cls-4" d="m190.21,103.78l14.59,23.02,16.95,34.9s-2.16,6.51-10.03,5.92c-6.88-.52-9.73-8.99-9.73-8.99"/>
  <line class="cls-4" x1="191.14" y1="100.45" x2="192.91" y2="108.05"/>
  <path class="cls-4" d="m176.53,110.82l13.72,24.76,15.38,30.44s-5.58,8.83-12.08,2.81c-3.87-3.59-16.95-21.76-16.95-21.76l-15.69-25.27-2.36-1.44"/>
  <path class="cls-4" d="m143.05,125.21l14.9,19.24s8.68,8.29,14.36-1.58"/>
  <path class="cls-4" d="m163.8,151.36s-.94,4.29,3.41,7.27"/>
  <line class="cls-4" x1="168.82" y1="159.7" x2="175.8" y2="153.11"/>
  <line class="cls-4" x1="173.17" y1="153.49" x2="178.93" y2="152.97"/>
  <path class="cls-5" d="m108.91,91.66s-12.22,24.64,14.28,34.39"/>
  <path class="cls-2" d="m177.05,93.36s7.25,1,9.25,9.5"/>
  <path class="cls-3" d="m202.41,129.1s-7.86,3.02-9.11,4.52"/>
  <path class="cls-3" d="m202.55,131.36s-3.07,2.03-7.5,3.5"/>
  <path class="cls-3" d="m187.54,135.85s-4.6,4.16-9.6,5.91"/>
  <path class="cls-3" d="m186.57,134.56s-7.15,2.99-9.77,5.81"/>
  <path class="cls-3" d="m213.82,123.28s-3.04.36-6.57,3.53"/>
  <path class="cls-3" d="m214.91,124.5s-1.44,1.94-7.9,3.65"/>
</svg>