<?xml version="1.0" encoding="UTF-8"?>
<svg id="Lager_1" data-name="Lager 1" xmlns="http://www.w3.org/2000/svg" xmlns:xlink="http://www.w3.org/1999/xlink" viewBox="0 0 300.38 240">
  <defs>
    <style>
      .cls-1 {
        fill: #fff;
      }

      .cls-2 {
        stroke-width: .5px;
      }

      .cls-2, .cls-3 {
        stroke-linecap: round;
      }

      .cls-2, .cls-3, .cls-4 {
        fill: none;
        stroke: #000;
      }

      .cls-3 {
        stroke-width: 2px;
      }

      .cls-5 {
        fill: url(#linear-gradient);
      }
    </style>
    <linearGradient id="linear-gradient" x1="229.23" y1="1019.25" x2="240.37" y2="1002.72" gradientTransform="translate(97.93 -895.7) rotate(12.66)" gradientUnits="userSpaceOnUse">
      <stop offset="0" stop-color="#fff"/>
      <stop offset="1" stop-color="#ededed"/>
    </linearGradient>
  </defs>
  <rect class="cls-1" x="36.8" y="6.61" width="226.77" height="226.77"/>
  <g id="Färg">
    <polygon class="cls-5" points="115.28 176.48 134.92 137.11 137.06 132.11 125.76 123.46 119.47 113.36 113.55 105.25 115.09 89.43 78.95 125.11 115.28 176.48"/>
  </g>
  <path d="m214.55,150.95s-.24-.34-.65-.93c-.4-.6-1.02-1.42-1.73-2.41-.36-.49-.76-1.02-1.21-1.54-.22-.26-.46-.52-.71-.76-.23-.23-.54-.49-.72-.54-.2-.05-.53.03-.89.13-.35.11-.71.24-1.07.4-.72.3-1.43.68-2.14,1.07-.7.39-1.39.81-2.02,1.27-.31.22-.63.47-.83.7-.21.26-.27.5-.34.85-.11.67-.04,1.39.1,2.05.15.66.37,1.28.59,1.84.25.55.47,1.06.71,1.49.23.44.46.81.65,1.11.39.6.62.94.62.94,0,0-.07-.07-.2-.21-.13-.15-.34-.34-.56-.62-.46-.55-1.11-1.37-1.71-2.48-.28-.56-.56-1.19-.77-1.89-.21-.7-.37-1.48-.28-2.34.04-.41.19-.94.49-1.31.31-.37.63-.63.96-.89.67-.51,1.38-.95,2.1-1.37s1.48-.78,2.25-1.1c.39-.16.78-.31,1.19-.41.21-.05.42-.1.64-.13.12,0,.22-.02.38-.02.08,0,.14,0,.18.01l.11.02.11.04c.55.22.78.53,1.07.81.26.29.48.59.69.89.42.59.78,1.16,1.1,1.69.65,1.05,1.09,1.99,1.42,2.63.32.65.48,1.03.48,1.03Z"/>
  <path d="m224.88,138.14s-.21-.35-.58-.96c-.37-.61-.91-1.47-1.54-2.51-.32-.51-.68-1.06-1.09-1.61-.2-.27-.43-.54-.65-.8-.11-.13-.23-.24-.35-.33-.06-.04-.11-.07-.15-.09.02,0-.07-.02-.1-.03h-.08c-.57-.1-1.36.09-2.07.32-.72.24-1.43.58-2.1.97-.67.39-1.3.86-1.85,1.38-.27.26-.53.54-.76.82-.12.14-.23.29-.33.44l-.12.19c-.03.08-.11.2-.1.24-.13.43.09,1.21.34,1.81.25.63.54,1.23.8,1.78.54,1.1.94,2.04,1.24,2.69.29.66.43,1.04.43,1.04,0,0-.22-.35-.6-.95-.37-.61-.94-1.46-1.56-2.51-.31-.53-.65-1.1-.97-1.75-.16-.32-.31-.67-.44-1.05-.12-.39-.21-.81-.05-1.37.04-.15.08-.19.12-.29.08-.17.11-.2.18-.31.11-.18.23-.35.35-.52.25-.34.52-.66.83-.95.6-.59,1.29-1.11,2.02-1.55.73-.44,1.51-.78,2.31-1.04.81-.24,1.61-.46,2.56-.29l.2.06.17.07c.13.07.23.14.32.22.17.15.32.3.44.46.26.3.45.62.64.93.38.61.69,1.2.97,1.75.57,1.09.94,2.05,1.22,2.71.27.66.4,1.05.4,1.05Z"/>
  <path class="cls-3" d="m81.47,121.11c2.58-2.86,41.64-43.8,57.38-45.75,11.97-1.48,51.45,13.75,51.45,13.75,0,0,8.75-.75,13.5,10.25l12.3,14.65,10.7,25.77s-.6,6.95-9.85,7.26"/>
  <path class="cls-3" d="m116.56,104.76s2.39,16.7,19.81,25.24"/>
  <path class="cls-4" d="m114.47,94.11s-4.84,10.35,5,19.25"/>
  <path class="cls-3" d="m134.02,125.52l14.33,24.93s3.29,3.84,9.11,1.82c4.31-1.49,4.77-3.36,4.77-3.36"/>
  <path class="cls-3" d="m153,120.38l10.49,26.09s2.68,4.19,7.97,1.82,4.99-4.71,4.82-6.8c-.17-2.09-6.56-28.69-6.56-28.69l.4-3.87"/>
  <line class="cls-3" x1="135.97" y1="135.13" x2="119.48" y2="166.27"/>
  <path class="cls-3" d="m168.15,151.08s-2.68,8.95,6.11,11.62"/>
  <line class="cls-3" x1="183.56" y1="151.99" x2="175.42" y2="162.59"/>
  <path class="cls-3" d="m191.22,146.49s-3.37,6.88-10.18,7.44"/>
  <path class="cls-2" d="m187.41,128.46s3.83-7.43,11.24-7.14"/>
  <path class="cls-2" d="m189.8,127.86s7.9-5.03,8.1-4.8"/>
  <path class="cls-2" d="m201.56,117.8s4.27-4.89,10.33-5.89"/>
  <path d="m205.71,156.08s.25-.66.9-1.47c.32-.41.73-.85,1.22-1.28.49-.43,1.05-.84,1.66-1.19.3-.18.62-.32.92-.47.3-.16.63-.25.93-.37.3-.13.62-.18.9-.26.29-.08.57-.12.82-.15.51-.09.95-.08,1.25-.07.3,0,.47.02.47.02,0,0-.16.06-.44.18-.28.1-.68.24-1.14.43-.23.09-.48.18-.74.3-.26.12-.53.22-.81.36-.55.27-1.13.55-1.69.89-.57.31-1.11.68-1.62,1.02-.5.35-.97.69-1.36,1-.78.61-1.3,1.07-1.3,1.07Z"/>
  <path d="m216.27,142.93s.25-.66.9-1.47c.32-.41.73-.85,1.22-1.28.49-.43,1.05-.84,1.66-1.19.3-.18.62-.32.92-.47.3-.16.63-.25.93-.37.3-.13.62-.18.9-.26.29-.08.57-.12.82-.15.51-.09.95-.08,1.25-.07.3,0,.47.02.47.02,0,0-.16.06-.44.18-.28.1-.68.24-1.14.43-.23.09-.48.18-.74.3-.26.12-.53.22-.81.36-.55.27-1.13.55-1.69.89-.57.31-1.11.68-1.62,1.02-.5.35-.97.69-1.36,1-.78.61-1.3,1.07-1.3,1.07Z"/>
  <line class="cls-3" x1="185.77" y1="99.05" x2="189.24" y2="107.86"/>
  <path class="cls-3" d="m174.47,121.11l14.33,17.33s9.67,17.67,15,22,16.62-2.66,12.63-8.65l-4.54-6.81-9.58-20.26-15.37-19.84"/>
  <path class="cls-2" d="m203.86,118.71s5.52-.89,9.1-4.78"/>
</svg>