<?xml version="1.0" encoding="UTF-8"?>
<svg id="Lager_1" data-name="Lager 1" xmlns="http://www.w3.org/2000/svg" xmlns:xlink="http://www.w3.org/1999/xlink" viewBox="0 0 300.38 240">
  <defs>
    <style>
      .cls-1 {
        stroke-width: 1.6px;
      }

      .cls-1, .cls-2, .cls-3 {
        stroke-linecap: round;
      }

      .cls-1, .cls-2, .cls-3, .cls-4 {
        fill: none;
        stroke: #000;
      }

      .cls-5 {
        fill: #fff;
      }

      .cls-2 {
        stroke-width: .75px;
      }

      .cls-3 {
        stroke-width: 2px;
      }

      .cls-6 {
        fill: url(#linear-gradient);
      }
    </style>
    <linearGradient id="linear-gradient" x1="115.36" y1="40.92" x2="126.28" y2="67.3" gradientTransform="translate(0 241.78) scale(1 -1)" gradientUnits="userSpaceOnUse">
      <stop offset="0" stop-color="#fff"/>
      <stop offset="1" stop-color="#ededed"/>
    </linearGradient>
  </defs>
  <rect class="cls-5" x="36.8" y="6.61" width="226.77" height="226.77"/>
  <g>
    <polygon class="cls-6" points="147.1 205.56 157.93 165.35 135.36 163.41 110.6 154.4 111.08 156.12 102.34 168.96 85.1 192.56 147.1 205.56"/>
    <path class="cls-4" d="m115.94,155.78s14.94,10.11,39.15,9.16"/>
    <path class="cls-3" d="m88.77,189.56c0-1,25.46-37.01,26.33-41.92.87-4.9,13.83-70.13,13.83-70.13"/>
    <path class="cls-3" d="m127.5,77.45s-2.17-9.6,4.97-12.35"/>
    <path class="cls-3" d="m137.06,74.85l25.79-12.97c1.39-.7,3.73-.84,5.2-.31l17.54,6.35c1.47.53,3.23,2.11,3.92,3.51l2.43,4.94"/>
    <path class="cls-3" d="m137.5,63.03l31.84-15.57c1.4-.69,3.61-.53,4.9.33l21,14.09c1.29.87,2.96,2.7,3.7,4.08l2.25,4.19"/>
    <path class="cls-1" d="m181.31,39.46l4.71-.35c1.55-.12,3.71.71,4.78,1.84l10.79,11.34c1.07,1.13,2.43,3.24,3.02,4.68l1.56,3.85"/>
    <path class="cls-3" d="m133.43,64.48l37.11-26.51c1.28-.89,3.35-.86,4.6.07l23.11,17.22c1.25.93,2.87,2.82,3.6,4.2l3.22,6.08"/>
    <path class="cls-3" d="m154.2,86.89s5.12-.92,8.68-6.29"/>
    <path class="cls-3" d="m161.36,79.73s7.84,3.11,16.83,1.66"/>
    <path class="cls-3" d="m175.11,79.94s11.9,15.44,22.09,4.01l-5.37-6.93"/>
    <path class="cls-3" d="m198.02,85.59s5.51,1.32,8.66-5.78l-5.62-7.67"/>
    <path class="cls-3" d="m205.34,66.61l4.32,7.97s-1.59,3.09-2.9,3.32"/>
    <path class="cls-3" d="m176.27,85.06l4,9.67s3,2.17,7.5,2.17"/>
    <line class="cls-3" x1="184.93" y1="98.89" x2="195.43" y2="90.89"/>
    <path class="cls-3" d="m195.23,87.33s.92,4.24,1.3,5.87"/>
    <path d="m158.86,86.49s.22.15.42.57c.1.21.18.47.26.78.06.31.14.66.14,1.05.04.39.01.8,0,1.25-.05.43-.07.9-.17,1.37-.09.47-.15.96-.3,1.44-.13.48-.24.98-.4,1.46-.31.96-.66,1.9-1.03,2.77-.17.44-.39.84-.57,1.23-.18.39-.37.75-.54,1.09-.36.66-.7,1.2-.91,1.58-.23.38-.37.58-.37.58,0,0,.06-.25.19-.67.14-.42.31-1.02.56-1.72.22-.71.51-1.53.81-2.41.29-.88.62-1.81.9-2.75.17-.46.29-.94.43-1.4.14-.46.25-.92.37-1.37.11-.44.19-.88.29-1.29.05-.41.15-.8.17-1.16.08-.72.08-1.34-.02-1.75-.08-.42-.23-.63-.23-.63Z"/>
    <path d="m155.61,97.85s.07.89.18,2.44c.09,1.56.25,3.78.37,6.45.11,2.67.27,5.78.35,9.12.08,3.34.13,6.9.13,10.47-.02,1.78-.06,3.57-.14,5.33-.04.88-.08,1.75-.17,2.62-.07.86-.16,1.75-.43,2.6-.53,1.65-1.5,3.07-2.43,4.28-.96,1.22-1.93,2.31-2.89,3.25-1.9,1.91-3.67,3.28-4.93,4.21-.64.46-1.16.78-1.52.99-.37.2-.56.31-.56.31,0,0,.19-.12.53-.35.34-.24.82-.62,1.43-1.1,1.2-.99,2.83-2.5,4.64-4.44.91-.97,1.83-2.07,2.71-3.3.87-1.24,1.7-2.57,2.19-4.1.22-.74.3-1.56.36-2.41.08-.84.1-1.71.13-2.58.06-1.74.07-3.52.07-5.3.04-3.55.04-7.11,0-10.45-.01-3.34-.03-6.45-.04-9.12,0-2.67,0-4.9,0-6.46.01-1.56.02-2.45.02-2.45Z"/>
    <path d="m139.34,147.2s.21-.13.57-.35c.36-.21.88-.51,1.51-.88.63-.35,1.36-.76,2.15-1.18.79-.42,1.63-.87,2.47-1.32.84-.44,1.68-.89,2.46-1.32.78-.43,1.5-.83,2.11-1.2.61-.36,1.12-.68,1.45-.93.33-.25.54-.39.54-.39,0,0-.14.2-.41.53-.13.17-.31.35-.52.57-.2.22-.44.46-.73.68-.55.48-1.24.99-2,1.49-.75.51-1.6.98-2.45,1.45-1.71.9-3.49,1.66-4.85,2.14-.68.25-1.26.41-1.67.53-.41.12-.65.17-.65.17Z"/>
    <path d="m178.09,89.47s.14.35.37.96c.21.61.55,1.49.9,2.55.71,2.12,1.57,4.96,2.35,7.83.77,2.87,1.45,5.77,1.87,7.96.22,1.1.35,2.02.46,2.66.09.65.12,1.02.12,1.02,0,0-.45-1.42-1.13-3.54-.67-2.13-1.51-4.97-2.28-7.84-.77-2.87-1.47-5.76-1.93-7.94-.24-1.09-.4-2.01-.53-2.65-.12-.64-.18-1.01-.18-1.01Z"/>
    <path class="cls-3" d="m205.53,59.22l4.73,8.88s-.99,1.44-2.15,1.44"/>
    <path class="cls-3" d="m210.97,69.72s4.19.72.83,12.65"/>
    <path d="m212.34,82.88s.25.46.61,1.3c.18.42.38.94.6,1.54.2.61.43,1.29.62,2.06.19.77.39,1.61.5,2.51.13.9.24,1.87.22,2.89.02.51-.02,1.03-.07,1.55-.02.53-.12,1.06-.24,1.6-.22,1.07-.63,2.14-1.19,3.16-.29.5-.69.94-1.03,1.4-.36.38-.72.75-1.08,1.13-.74.75-1.52,1.42-2.27,2.06-1.51,1.27-3,2.34-4.32,3.18-2.64,1.71-4.58,2.5-4.58,2.5,0,0,1.55-1.37,3.89-3.42,1.15-1.03,2.47-2.24,3.84-3.57.69-.66,1.36-1.39,2.05-2.08.34-.37.68-.74,1.02-1.11.25-.38.56-.71.77-1.11.45-.79.82-1.65,1.03-2.57.1-.46.23-.91.28-1.38.08-.46.14-.93.16-1.39.04-.46.06-.92.06-1.37.01-.45.02-.89,0-1.32-.03-.86-.08-1.69-.15-2.45-.14-1.52-.32-2.8-.46-3.69-.14-.9-.23-1.41-.23-1.41Z"/>
    <path d="m200.98,106.52s-.25.95-.85,2.57c-.33.8-.69,1.79-1.21,2.87-.48,1.11-1.1,2.32-1.8,3.63-.71,1.3-1.51,2.7-2.43,4.13-.93,1.43-1.9,2.94-3.04,4.41-1.08,1.51-2.31,2.99-3.57,4.48-1.25,1.5-2.66,2.89-4,4.36-1.42,1.38-2.88,2.72-4.31,4.05-1.49,1.26-2.99,2.45-4.43,3.63-1.49,1.1-2.97,2.13-4.35,3.11-1.37,1-2.8,1.76-4.05,2.55-1.27.76-2.41,1.49-3.5,2-1.07.54-2.01,1.01-2.78,1.4-1.55.75-2.43,1.18-2.43,1.18,0,0,.81-.55,2.24-1.52.72-.47,1.58-1.05,2.58-1.71,1.02-.62,2.08-1.46,3.27-2.31.59-.43,1.21-.88,1.85-1.34.64-.46,1.32-.92,1.96-1.46,1.31-1.04,2.7-2.14,4.12-3.27,1.38-1.2,2.78-2.46,4.24-3.7,1.38-1.32,2.8-2.65,4.18-4.02,1.32-1.42,2.73-2.76,3.97-4.22,1.24-1.45,2.53-2.83,3.63-4.28,1.16-1.41,2.21-2.82,3.2-4.17.52-.66.94-1.35,1.4-2,.44-.65.9-1.26,1.28-1.89.78-1.24,1.52-2.36,2.11-3.39.62-1.02,1.1-1.94,1.53-2.68.38-.76.72-1.35.91-1.77.2-.42.3-.64.3-.64Z"/>
    <line class="cls-3" x1="162.99" y1="144.71" x2="148.86" y2="202.39"/>
    <path d="m190.31,78.31s-.38.48-.76,1.22c-.18.37-.35.81-.37,1.26-.02.22,0,.45.06.67.05.22.15.43.29.63.09.18.32.47.46.67.17.22.33.43.49.64.33.41.65.78.94,1.1.57.63,1.01,1.05,1.01,1.05,0,0-.6-.12-1.37-.61-.39-.24-.81-.56-1.22-.95-.2-.2-.41-.4-.6-.64-.2-.25-.35-.41-.55-.74-.18-.28-.32-.62-.38-.96-.08-.34-.06-.69,0-1,.05-.32.19-.6.32-.84.13-.24.3-.45.45-.62.64-.69,1.22-.89,1.22-.89Z"/>
    <path d="m199.32,73.12s-.22.07-.54.28c-.32.2-.75.56-.92,1.12-.09.27-.11.59-.07.92.03.33.15.69.29,1.05.14.37.33.77.48,1.2.15.41.31.82.46,1.24.3.81.67,1.56,1.22,1.94.27.19.6.3.93.35.34.04.68.05,1,0,.64-.06,1.19-.19,1.56-.28.39-.09.61-.14.61-.14,0,0-.19.12-.53.32-.17.1-.38.22-.64.33-.25.12-.54.25-.89.33-.33.11-.73.18-1.15.18-.43,0-.92-.08-1.35-.35-.42-.26-.81-.63-1.05-1.05-.27-.41-.45-.85-.63-1.27-.32-.88-.58-1.68-.84-2.5-.13-.43-.22-.87-.21-1.3,0-.43.1-.85.29-1.19.37-.7.99-.95,1.37-1.06.4-.11.62-.1.62-.1Z"/>
    <path class="cls-2" d="m204.09,67.47s-1.03.85-1.84,2.17"/>
    <path d="m205.5,76.04s.15-.21.39-.47c.24-.26.57-.56.9-.85.34-.28.66-.54.91-.76.11-.11.24-.2.29-.29.07-.08.12-.13.12-.13,0,0,.07.26-.04.64-.11.38-.42.8-.79,1.11-.37.31-.81.53-1.16.64-.35.1-.61.11-.61.11Z"/>
    <path d="m162.01,85.7s.06.04.13.14c.07.1.18.26.24.5.08.23.12.51.15.85.03.33.03.71,0,1.11-.08.81-.25,1.74-.55,2.69-.28.96-.67,1.96-1.09,2.93-.85,1.94-1.92,3.77-2.78,5.1-.44.66-.84,1.19-1.1,1.57-.27.37-.44.58-.44.58,0,0,.09-.25.27-.68.19-.42.43-1.04.77-1.75.31-.72.69-1.55,1.11-2.44.39-.9.86-1.83,1.25-2.79.22-.47.43-.95.61-1.42.2-.47.39-.93.56-1.39.36-.9.62-1.76.82-2.5.08-.37.16-.72.2-1.03.04-.31.05-.58.03-.8-.02-.22-.05-.39-.1-.51-.04-.11-.09-.17-.09-.17Z"/>
  </g>
</svg>