<?xml version="1.0" encoding="UTF-8"?>
<svg id="Lager_1" data-name="Lager 1" xmlns="http://www.w3.org/2000/svg" xmlns:xlink="http://www.w3.org/1999/xlink" viewBox="0 0 300.38 240">
  <defs>
    <style>
      .cls-1 {
        fill: #fff;
      }

      .cls-2 {
        stroke-linecap: round;
        stroke-width: 2px;
      }

      .cls-2, .cls-3 {
        fill: none;
        stroke: #000;
      }

      .cls-4 {
        fill: url(#linear-gradient);
      }
    </style>
    <linearGradient id="linear-gradient" x1="81.56" y1="168.54" x2="109.22" y2="163.37" gradientTransform="translate(0 241.78) scale(1 -1)" gradientUnits="userSpaceOnUse">
      <stop offset="0" stop-color="#fff"/>
      <stop offset="1" stop-color="#ededed"/>
    </linearGradient>
  </defs>
  <rect class="cls-1" x="36.8" y="6.61" width="226.77" height="226.77"/>
  <path d="m208.45,128.8s-.79-1.32-1.98-3.29c-.3-.49-.63-1.01-.99-1.56-.36-.52-.77-1.14-1.2-1.5-.3-.23-1.1-.14-1.74.04-.67.19-1.33.5-1.94.89-.61.38-1.16.85-1.62,1.39-.23.27-.43.54-.61.84l-.12.22s-.06.14-.09.21c-.03.08,0,.1-.03.15,0,.06,0,.14,0,.2.05.59.3,1.25.55,1.84.27.6.52,1.16.76,1.68.48,1.05.86,1.93,1.12,2.55.26.62.39.98.39.98,0,0-.2-.33-.56-.9-.35-.57-.85-1.4-1.45-2.38-.29-.5-.62-1.03-.92-1.63-.29-.6-.65-1.23-.76-2.08,0-.11-.01-.21,0-.34.01-.12.04-.29.07-.38.04-.11.03-.13.12-.31l.13-.27c.19-.35.41-.69.66-1.01.51-.63,1.14-1.17,1.82-1.61.69-.44,1.44-.77,2.22-.98.39-.1.8-.18,1.22-.18.21,0,.43.01.65.06.24.05.48.15.68.32.65.61.94,1.21,1.29,1.8.33.58.61,1.15.85,1.67.97,2.1,1.46,3.57,1.46,3.57Z"/>
  <polygon class="cls-4" points="75.64 94.03 110.13 102.26 114.33 86.22 119.14 75.78 128.62 65.33 121.85 62.6 110.51 58.03 88.14 50.78 75.64 94.03"/>
  <path d="m191.01,202.19s.13-.2.36-.55c.23-.34.51-.86.79-1.48.26-.62.51-1.39.4-2.12-.06-.38-.2-.64-.47-1.03-.26-.38-.53-.75-.8-1.12-1.08-1.48-2.35-2.83-3.6-3.27-.61-.23-1.19-.25-1.59-.18-.4.06-.63.14-.63.14,0,0,.05-.03.15-.09.09-.06.24-.15.43-.23.39-.15,1.03-.33,1.79-.18.76.13,1.57.55,2.29,1.14.73.58,1.38,1.32,1.96,2.09.29.39.55.79.81,1.18.11.18.28.42.37.68.1.26.16.52.18.78.06,1.06-.38,1.89-.77,2.49-.4.62-.85,1.04-1.15,1.33-.31.29-.51.42-.51.42Z"/>
  <path d="m184.36,199.75s-.52-.5-1.18-1.3c-.34-.4-.72-.87-1.13-1.37-.41-.49-.84-1.03-1.29-1.52-.22-.26-.45-.5-.68-.74-.24-.21-.45-.47-.7-.65-.23-.21-.46-.38-.7-.53-.23-.15-.46-.26-.68-.37-.22-.05-.43-.18-.63-.17-.19,0-.38-.07-.52-.02-.3.04-.48.06-.48.06,0,0,.14-.09.43-.25.14-.1.34-.11.56-.16.23-.07.49-.01.78,0,.27.06.59.12.88.26.29.13.6.28.88.49.58.38,1.1.9,1.59,1.42,1.92,2.16,2.86,4.86,2.86,4.86Z"/>
  <path class="cls-2" d="m76.47,95.11s42.88,8.6,45.2,11.71,33.49,67.83,33.49,67.83l9.41,14.78"/>
  <polyline class="cls-2" points="150.57 154.05 161.21 176.54 174.33 194.02"/>
  <path class="cls-2" d="m175.18,193.65l4.89,9.12s2.4.67,5.31-1.73"/>
  <path class="cls-2" d="m163.76,186.85l4.98,8.97s1.58.75,4.01-.71"/>
  <path class="cls-2" d="m99.36,54.62l39.67,15.99s7.35.16,14.81.91c7.46.75,25.61,8.98,27.63,13.09,3.37,6.86,8.27,13.32,16.08,23.9,0,0,5.08,9.1,7.02,12.25"/>
  <line class="cls-2" x1="204.43" y1="122.01" x2="210.59" y2="131.34"/>
  <path d="m171.43,103.65s1.47,1.86,3.57,4.68c1.05,1.41,2.27,3.05,3.58,4.81,1.32,1.75,2.68,3.64,4.12,5.47.69.94,1.4,1.86,2.12,2.75.71.9,1.41,1.78,2.1,2.62.68.85,1.38,1.63,2.02,2.4.64.77,1.3,1.43,1.88,2.09.57.66,1.16,1.19,1.66,1.7.25.25.49.49.7.71.23.2.44.39.64.55.77.67,1.21,1.08,1.21,1.08,0,0-.52-.26-1.44-.75-.23-.13-.48-.27-.76-.42-.26-.18-.54-.37-.84-.57-.59-.42-1.29-.86-1.96-1.46-.68-.58-1.46-1.17-2.17-1.9-.73-.71-1.54-1.44-2.27-2.27-.75-.82-1.55-1.65-2.27-2.56-.75-.89-1.49-1.81-2.21-2.75-.72-.94-1.4-1.9-2.08-2.85-.69-.93-1.28-1.92-1.9-2.83-1.2-1.86-2.25-3.64-3.1-5.19-1.71-3.1-2.61-5.29-2.61-5.29Z"/>
  <path d="m196.44,133.35s.96.12,2.41.31c.35.03.73.07,1.13.11.39.05.81.04,1.24.08.42.04.86,0,1.3.02.44-.04.88,0,1.32-.07.44-.04.88-.07,1.3-.16.21-.04.43-.07.64-.1.21-.05.41-.11.61-.16.41-.09.79-.21,1.15-.34.37-.12.72-.24,1.03-.39.31-.15.63-.25.88-.38.25-.14.48-.25.67-.35.39-.19.63-.29.63-.29,0,0-.12.22-.36.59-.12.18-.27.41-.46.66-.19.24-.45.48-.73.74-.14.13-.29.27-.45.41-.17.11-.35.23-.54.35-.37.25-.77.51-1.24.67-.45.2-.92.39-1.43.49-.5.15-1.02.2-1.54.26-.52.06-1.04.02-1.55.01-.5-.05-1-.12-1.47-.22-.94-.19-1.77-.51-2.45-.83-1.37-.65-2.08-1.4-2.08-1.4Z"/>
  <path d="m173.9,109.28s.25.27.34.78c.05.25.06.57,0,.88-.05.33-.19.65-.35.96-.19.29-.4.56-.64.77-.24.21-.49.37-.72.47-.45.22-.8.24-.8.24,0,0,.17-.31.43-.68.13-.19.28-.4.43-.62.14-.22.3-.45.43-.69.28-.46.49-.95.65-1.37.15-.41.23-.75.23-.75Z"/>
  <path d="m171.19,111.22c.83,1.02,1.54,2.15,2.14,3.34.59,1.19,1.09,2.44,1.41,3.76.33,1.31.51,2.69.43,4.07-.02.69-.13,1.39-.27,2.07-.14.69-.38,1.36-.65,2.01l-.06-.84c.2.31.34.56.48.85.15.28.27.56.4.84.24.57.46,1.14.64,1.74.19.59.31,1.19.43,1.8.1.61.18,1.22.21,1.84.03.31.03.62.03.93,0,.31.02.62-.02.93l-.07.93c-.02.31-.1.61-.14.91-.09.61-.26,1.21-.42,1.8-.07.3-.19.59-.29.88l-.31.87-1.62-1.01c.2-.21.35-.34.52-.5.17-.15.35-.29.52-.43.35-.28.73-.53,1.12-.76.78-.46,1.61-.82,2.49-1.07.88-.24,1.79-.37,2.71-.33.91.04,1.81.23,2.65.52l-.92.49c.11-.31.21-.53.34-.78.12-.24.26-.47.4-.69.29-.44.62-.86.98-1.24.72-.77,1.55-1.42,2.47-1.89,1.83-.97,3.9-1.28,5.86-1.16-1.96.26-3.86.84-5.41,1.92-.77.54-1.46,1.18-2.02,1.91-.28.37-.53.75-.74,1.15-.1.2-.2.4-.29.61-.09.2-.17.43-.21.59-.1.38-.49.6-.86.5h0s-.05-.02-.05-.02c-1.47-.41-2.99-.35-4.41.12-.71.23-1.38.57-2.02.98-.32.2-.62.43-.91.66-.15.12-.29.24-.43.36-.13.12-.28.27-.37.36-.36.4-.97.42-1.37.06-.29-.27-.38-.68-.26-1.03l.02-.04.27-.78c.08-.26.19-.51.25-.78.13-.53.28-1.06.35-1.6.1-.54.15-1.08.19-1.62.04-.27.02-.54.03-.82,0-.27.01-.54-.01-.82-.02-.54-.09-1.08-.16-1.62-.09-.54-.21-1.07-.34-1.6s-.31-1.05-.5-1.56c-.1-.25-.2-.51-.32-.75-.11-.24-.24-.5-.35-.68l-.03-.06c-.14-.25-.14-.54-.03-.78.51-1.09.88-2.25,1.02-3.48.14-1.22.11-2.48-.06-3.73-.19-1.25-.49-2.5-.91-3.72-.41-1.22-.91-2.43-1.53-3.59Z"/>
  <path class="cls-2" d="m152.68,133.17s8.76,23.99,11.57,24.46,18.28-6.35,28.54-12.35"/>
  <line class="cls-2" x1="192.05" y1="144.28" x2="201.69" y2="140.35"/>
  <path d="m197.37,133.71s.68-.17,1.63.06c.48.1,1.02.31,1.56.64.53.33,1.06.78,1.46,1.34.21.28.39.57.52.89.16.3.24.64.32.95.1.31.08.63.1.92.02.29-.03.56-.08.81-.05.24-.08.47-.17.65-.07.19-.15.35-.22.48-.13.26-.23.39-.23.39,0,0-.07-.16-.17-.42-.04-.13-.1-.29-.15-.46-.04-.17-.15-.36-.21-.56-.08-.2-.15-.41-.26-.61-.1-.2-.17-.43-.3-.63-.12-.21-.21-.42-.36-.62-.12-.21-.26-.41-.41-.6-.12-.21-.31-.38-.46-.59-.17-.19-.34-.38-.5-.56-.34-.36-.68-.7-.99-1.01-.62-.59-1.1-1.07-1.1-1.07Z"/>
  <polyline class="cls-2" points="150.8 144.95 166.84 174.46 182.3 193.03"/>
  <line class="cls-2" x1="183.87" y1="193.27" x2="189.49" y2="202.46"/>
  <path class="cls-2" d="m180.63,154.14s2.04,3.85,2.04,9.85c0,0,7.58,5.96,6.93,15.93,0,0,14.26,14.01.7,23.49"/>
  <path class="cls-3" d="m126.06,68.37s-11.9,9.18-14.75,32.15"/>
  <line class="cls-2" x1="150.24" y1="132.2" x2="154.11" y2="136.96"/>
</svg>