<?xml version="1.0" encoding="UTF-8"?>
<svg id="Lager_1" data-name="Lager 1" xmlns="http://www.w3.org/2000/svg" xmlns:xlink="http://www.w3.org/1999/xlink" viewBox="0 0 300.38 240">
  <defs>
    <style>
      .cls-1 {
        fill: #fff;
      }

      .cls-2 {
        stroke-width: 1.5px;
      }

      .cls-2, .cls-3, .cls-4 {
        stroke-linecap: round;
      }

      .cls-2, .cls-3, .cls-4, .cls-5 {
        fill: none;
        stroke: #000;
      }

      .cls-3 {
        stroke-width: 2px;
      }

      .cls-4 {
        stroke-width: 1.7px;
      }

      .cls-6 {
        fill: url(#linear-gradient);
      }
    </style>
    <linearGradient id="linear-gradient" x1="-621.89" y1="97.78" x2="-595.12" y2="92.78" gradientTransform="translate(324.1 -391.01) rotate(-77.92) scale(1 -1)" gradientUnits="userSpaceOnUse">
      <stop offset="0" stop-color="#fff"/>
      <stop offset="1" stop-color="#ededed"/>
    </linearGradient>
  </defs>
  <rect class="cls-1" x="36.8" y="6.61" width="226.77" height="226.77"/>
  <polygon class="cls-6" points="123.47 205.64 139.87 171.91 119.44 165.41 109.1 158.26 100.45 150.58 96.36 156.63 89.52 166.76 71.01 187.37 123.47 205.64"/>
  <path class="cls-5" d="m105.57,154.36s8.37,12.49,31.09,16.87"/>
  <path class="cls-3" d="m154.03,71.54c11.56-1.58,29.76-3.24,32.66-3.24,6.4,0,17.47,17.6,17.87,22.4.4,4.8-5.2,10.53-5.2,10.53"/>
  <path class="cls-3" d="m77.72,180.25s29.13-36.4,29.67-38c.53-1.6,23.67-62.29,23.67-62.29.87-2.43,13.18-6.31,19.83-7.97"/>
  <path class="cls-3" d="m153.35,73.02s24.01-.31,28.01-.31,5.6,3.2,8,6.4c2.4,3.2,11.2,18.4,8,24.4s-6.02,7.73-7.46,9.18"/>
  <path class="cls-3" d="m141.76,77.9s26.8.8,30.8,1.2c4,.4,3.56-1.13,8.8,9.47,6.02,12.18,4.63,18.75,1.03,25.55"/>
  <path class="cls-3" d="m139.76,86.3s21.8-.1,24.8.8c3.83,1.15,12.56,15.36,12.96,18.56.4,3.2-.5,6.87-1.3,8.87"/>
  <line class="cls-3" x1="175.14" y1="113.43" x2="173.27" y2="124.06"/>
  <path class="cls-3" d="m143.19,165.11s21.37-6.01,40.17-28.8c11.76-14.27,26-16,39.2-14.4-3.82-.53,1.12.56,7.18.33,4.81-.18,7.62-2.73,5.22-8.73s-14-11.2-22.4-11.2-16.3,3.06-16.3,3.06"/>
  <path d="m173.32,114.22s-.58.57-1.35,1.44c-.76.87-1.73,2.06-2.22,3.37-.08.16-.12.33-.16.49-.06.16-.1.33-.12.5-.08.35-.09.64-.06.8.06.41.57.84,1.01,1.2.45.36.86.67,1.12.92.26.24.4.4.4.4,0,0-.2-.05-.55-.13-.35-.09-.82-.21-1.4-.43-.29-.11-.6-.25-.94-.48-.33-.21-.68-.58-.88-1.08-.21-.54-.15-1.04-.07-1.45.06-.44.2-.86.37-1.27.16-.41.38-.78.62-1.14.24-.35.5-.66.77-.95.55-.56,1.12-1.01,1.64-1.34,1.04-.67,1.84-.87,1.84-.87Z"/>
  <path d="m180.67,112.82s-.57.59-1.34,1.46c-.75.88-1.7,2.07-2.2,3.37-.07.16-.12.32-.16.49-.06.16-.1.32-.12.49-.08.34-.09.63-.06.78.03.19.15.39.34.6.18.21.43.39.64.58.45.36.85.68,1.11.94.26.25.4.41.4.41,0,0-.2-.04-.55-.12-.35-.08-.83-.2-1.41-.41-.3-.1-.61-.25-.95-.47-.33-.22-.71-.57-.9-1.09-.21-.56-.15-1.06-.08-1.47.06-.44.2-.87.37-1.28.16-.41.39-.79.62-1.14.24-.35.51-.67.77-.96.56-.56,1.13-1.01,1.66-1.33,1.04-.66,1.86-.84,1.86-.84Z"/>
  <path d="m188.61,112.68s-.75.36-1.77.99c-1.01.63-2.32,1.56-3.17,2.8-.19.32-.39.63-.53.97l-.06.12s-.02.07-.03.1l-.04.14s0,.04,0,.06c-.02.08,0,.22.05.34.09.25.32.51.54.74.23.24.47.45.69.66.45.41.82.79,1.05,1.07.24.28.35.46.35.46,0,0-.7-.43-1.76-1.04-.27-.15-.55-.34-.85-.57-.29-.23-.61-.5-.84-.95-.1-.23-.2-.47-.18-.79l.02-.23.04-.14c.02-.07,0-.05.05-.19l.06-.15c.16-.41.37-.8.62-1.17.26-.36.55-.69.85-.98.32-.28.64-.54.97-.77.33-.22.67-.41.99-.57.32-.17.64-.29.93-.4,1.18-.44,2.01-.49,2.01-.49Z"/>
  <line class="cls-3" x1="143.19" y1="165.11" x2="127.76" y2="196.7"/>
  <path class="cls-2" d="m182.24,112.86l-1.68,9.84s-2.88.7-5.21-.27"/>
  <path class="cls-4" d="m191.67,110.89l-5.59,10.37s-2.85-.02-3.83-.98"/>
  <path d="m146.43,104.04c.87.57,1.84.9,2.81,1.03.97.15,1.94.03,2.84-.25.9-.28,1.73-.76,2.49-1.33.77-.56,1.46-1.25,2.1-1.98l1.94-2.23-.32,3.1c-.02.17-.04.44-.05.67,0,.24,0,.48.02.72.03.48.11.95.25,1.4.27.89.7,1.71,1.32,2.37s1.41,1.18,2.29,1.55c.44.19.9.35,1.38.49.48.13.97.23,1.47.32l1.33.22-.43,1.25c-.11.32-.22.71-.31,1.08-.09.38-.17.76-.25,1.14-.15.76-.25,1.54-.27,2.31-.03.77.02,1.53.13,2.28.12.74.33,1.46.66,2.12.16.33.35.65.57.95.2.31.46.58.72.85.27.27.56.5.88.72.32.21.64.43,1,.6.35.18.71.35,1.09.48.37.16.77.25,1.16.38.39.11.8.18,1.2.29l1.23.21-1.26.08c-.42,0-.84,0-1.27-.04-.42-.05-.85-.06-1.27-.17-.43-.07-.85-.18-1.26-.32-.42-.12-.83-.3-1.23-.5-.4-.21-.78-.44-1.15-.72-.36-.28-.71-.58-1.02-.92-.32-.33-.59-.71-.83-1.11-.49-.79-.83-1.65-1.06-2.54-.23-.88-.32-1.79-.34-2.68-.02-.89.04-1.78.16-2.65.05-.44.15-.87.24-1.3.1-.44.2-.84.36-1.31l.89,1.48c-.58-.08-1.15-.19-1.73-.34-.57-.16-1.15-.33-1.71-.58-1.11-.49-2.18-1.2-3.04-2.15-.86-.94-1.45-2.14-1.71-3.35-.14-.61-.21-1.22-.21-1.83,0-.31,0-.61.03-.92.03-.32.06-.59.14-.95l1.63.86c-.79.75-1.64,1.44-2.59,2-.47.29-.98.53-1.5.72-.52.19-1.06.36-1.61.44-2.22.39-4.54-.41-5.92-1.97Z"/>
  <path d="m149.9,103.5c1.17,1.52,2.05,3.36,2.17,5.41.04,1.02-.16,2.1-.69,3.04-.51.95-1.3,1.71-2.17,2.29l.33-.71c.32,1.89.58,3.76.76,5.65.18,1.89.36,3.78.43,5.67.18,3.79.15,7.6-.17,11.4-.34,3.79-.95,7.59-2.13,11.24-.61,1.82-1.34,3.61-2.32,5.26-.96,1.65-2.19,3.18-3.68,4.35,1.27-1.4,2.21-3.03,2.97-4.72.74-1.7,1.32-3.46,1.74-5.26.87-3.6,1.3-7.3,1.52-11.01.12-1.86.18-3.72.19-5.58.02-1.86.01-3.73-.05-5.6-.07-1.87-.12-3.74-.25-5.6-.13-1.86-.24-3.74-.43-5.58l-.05-.49.38-.23c.75-.44,1.44-.98,1.91-1.68.49-.69.74-1.55.83-2.44.07-.9-.06-1.82-.28-2.74-.24-.91-.57-1.81-1.01-2.66Z"/>
  <path class="cls-3" d="m149.08,72.17s4.46-1.28,7.96-1.02"/>
</svg>