<?xml version="1.0" encoding="UTF-8"?>
<svg id="Lager_1" data-name="Lager 1" xmlns="http://www.w3.org/2000/svg" xmlns:xlink="http://www.w3.org/1999/xlink" viewBox="0 0 300.38 240">
  <defs>
    <style>
      .cls-1 {
        fill: #fff;
      }

      .cls-2 {
        stroke-width: .5px;
      }

      .cls-2, .cls-3 {
        fill: none;
        stroke: #000;
        stroke-linecap: round;
      }

      .cls-3 {
        stroke-width: 2px;
      }

      .cls-4 {
        fill: url(#linear-gradient);
      }
    </style>
    <linearGradient id="linear-gradient" x1="-410.99" y1="-29.33" x2="-372.92" y2="-36.44" gradientTransform="translate(303.12 -174.95) rotate(-54.42) scale(1 -1)" gradientUnits="userSpaceOnUse">
      <stop offset="0" stop-color="#fff"/>
      <stop offset="1" stop-color="#ededed"/>
    </linearGradient>
  </defs>
  <rect class="cls-1" x="36.8" y="6.61" width="226.77" height="226.77"/>
  <polygon class="cls-4" points="118.8 205.95 148.06 153.17 125.47 143.95 116.93 124.79 110.54 111 105.6 116.33 93.46 124.76 56.21 147.42 118.8 205.95"/>
  <path class="cls-3" d="m78.87,134.45s26.43-17.21,33.1-23"/>
  <path class="cls-3" d="m205.81,129.68c1.19-4.82.1-15.91-2.78-27.97-2.88-12.06-10.73-33.59-17.9-33.66-4.88-.05-9.27,4.07-13.55,4.58-4.85.57-10.14-2.4-14.26-1.16-4.68,1.4-7.42,6.88-11.23,8.85-4.38,2.28-10.39,1.48-13.69,4.11-4.04,3.21-4.52,9.4-7.09,12.42-5.39,6.32-11.19,2.29-11.09,9.16.13,9.32,1.61,25.7,14.52,38.82,2.69,2.73,18,8.93,22.6,8.83,4.61-.1,8.31-3.15,8.31-3.15"/>
  <path class="cls-3" d="m131.65,107.23s9.19,20.03,12.69,25.36c3.5,5.33,12.79,13.76,15.15,15.18s12.5.95,13.64-.09"/>
  <path class="cls-3" d="m149.8,94.11s17.92,44.83,30.57,65.34"/>
  <path class="cls-3" d="m179.48,155.54s2.4,12.94,7.52,15.89c5.92,3.42,12.96.26,14.19-5.34,1.24-5.6-1.15-14.77-4.46-18.04"/>
  <line class="cls-3" x1="174.84" y1="86.86" x2="199.81" y2="153.69"/>
  <path d="m208.85,130.25s-.81.74-2.01,1.86c-.58.56-1.26,1.18-1.95,1.88-.35.34-.71.7-1.06,1.07-.37.36-.71.75-1.07,1.12-.37.37-.69.78-1.05,1.14-.34.39-.67.77-1,1.13-.32.38-.63.74-.93,1.08-.3.34-.56.69-.83.99-.25.32-.52.58-.72.85-.2.26-.4.48-.56.67-.32.37-.53.57-.53.57,0,0,.03-.28.14-.76.1-.48.25-1.18.58-1.96.15-.39.3-.83.54-1.25.23-.43.44-.9.73-1.34.29-.44.58-.91.93-1.34.35-.43.7-.88,1.09-1.29.78-.82,1.62-1.58,2.49-2.18.42-.32.88-.57,1.29-.82.42-.24.83-.45,1.22-.62.76-.36,1.46-.55,1.93-.67.48-.12.77-.14.77-.14Z"/>
  <line class="cls-3" x1="147.11" y1="155.72" x2="122.93" y2="196.22"/>
  <path class="cls-3" d="m208.46,121.34s14.01,13.43,11.88,20.92c-1.86,6.51-9.69,10.51-9.69,10.51"/>
  <path class="cls-3" d="m210.34,152.33l-5.02,6.44s-1.02,1.34-1.55,1.48-1.56-.82-1.56-.82"/>
  <path d="m204.15,158.58s.3-.27.81-.76c.52-.47,1.24-1.18,2.12-2,.43-.42.89-.88,1.34-1.38.22-.25.44-.52.64-.79.19-.28.38-.54.37-.78,0-.2-.09-.59-.22-.91-.13-.33-.28-.67-.46-1-.36-.66-.81-1.3-1.31-1.89-.98-1.2-2.19-2.21-3.47-2.82-.32-.15-.64-.28-.86-.26-.26,0-.54.1-.82.25-.56.3-1.08.7-1.56,1.06-1.91,1.48-3.28,2.35-3.28,2.35,0,0,.29-.28.79-.78.52-.48,1.21-1.21,2.1-2.03.45-.41.93-.86,1.55-1.28.32-.2.7-.4,1.17-.43.52-.03.9.14,1.27.29,1.48.63,2.79,1.75,3.87,3.02.53.65,1,1.34,1.39,2.07.19.37.37.74.5,1.14.13.41.25.78.22,1.34-.06.53-.37.89-.59,1.19-.24.3-.51.56-.77.8-.52.49-1.02.91-1.5,1.29-.94.77-1.8,1.32-2.38,1.72-.59.39-.94.59-.94.59Z"/>
  <path d="m197.56,162.31s.12,0,.34-.07c.22-.05.47-.3.42-.7-.08-.8-.77-1.82-1.61-2.94-.86-1.12-1.99-2.38-3.33-3.45-.16-.12-.36-.26-.48-.31-.14-.06-.1-.03-.21-.06-.08-.01-.18-.02-.27-.02-.39,0-.83.1-1.26.21-.86.23-1.72.61-2.53,1.05-.81.44-1.59.96-2.28,1.54-.68.58-1.32,1.25-1.75,1.93-.13.25-.19.68-.19,1.06,0,.4.04.8.11,1.19.13.79.34,1.53.56,2.2.45,1.35.86,2.48,1.19,3.25.32.78.5,1.22.5,1.22,0,0-.26-.4-.68-1.13-.4-.74-1.01-1.79-1.55-3.14-.27-.68-.54-1.42-.75-2.25-.17-.83-.43-1.73.03-2.84.5-.86,1.14-1.58,1.89-2.23.74-.64,1.56-1.21,2.44-1.68.88-.46,1.79-.85,2.76-1.1.48-.12.98-.21,1.51-.2.13,0,.27.01.41.04.11,0,.38.1.44.14.29.15.45.29.65.44.74.6,1.31,1.28,1.85,1.92.53.65,1,1.29,1.4,1.9.41.61.73,1.2.96,1.75.23.55.4,1.06.38,1.51,0,.22-.08.44-.21.56-.13.13-.28.17-.39.19-.23.03-.35.01-.35.01Z"/>
  <line class="cls-3" x1="176.51" y1="84.22" x2="175.14" y2="89.95"/>
  <path d="m187.77,168.28s.49-.61,1.35-1.38c.43-.39.95-.82,1.53-1.24.58-.43,1.23-.85,1.88-1.25.67-.38,1.35-.74,2.02-1.03.66-.29,1.31-.51,1.87-.68.56-.15,1.04-.25,1.38-.29.34-.04.53-.06.53-.06,0,0-.17.09-.47.25-.3.14-.72.38-1.22.63-.49.27-1.07.59-1.69.93-.61.35-1.26.73-1.91,1.1-1.3.76-2.59,1.53-3.59,2.09-.99.57-1.68.92-1.68.92Z"/>
  <path class="cls-2" d="m167.53,123.34s2.67-4.47,11.48-6.55"/>
  <path class="cls-2" d="m168.05,125.86s7.68-2.77,11.65-7.44"/>
  <path class="cls-2" d="m187.81,114.71s6.24-.1,12.74-5.1"/>
  <path class="cls-2" d="m200.15,108.39s-6.24,0-12.82,4.9"/>
  <path class="cls-2" d="m150.59,135.55s6.26-.84,12.19-5.39"/>
  <path class="cls-2" d="m130.78,142.16s6.26-.84,12.19-5.39"/>
  <path class="cls-2" d="m149.47,135.11s3.5-4,11.79-6.72"/>
  <line class="cls-3" x1="128.8" y1="106.61" x2="132.8" y2="109.73"/>
</svg>