<?xml version="1.0" encoding="UTF-8"?>
<svg id="Lager_1" data-name="Lager 1" xmlns="http://www.w3.org/2000/svg" xmlns:xlink="http://www.w3.org/1999/xlink" viewBox="0 0 300.38 240">
  <defs>
    <style>
      .cls-1 {
        fill: #fff;
      }

      .cls-2 {
        stroke-linecap: round;
        stroke-width: 2px;
      }

      .cls-2, .cls-3 {
        fill: none;
        stroke: #000;
      }

      .cls-4 {
        fill: url(#linear-gradient);
      }
    </style>
    <linearGradient id="linear-gradient" x1="89.36" y1="1154.36" x2="96.24" y2="1144.15" gradientTransform="translate(0 -964.44)" gradientUnits="userSpaceOnUse">
      <stop offset="0" stop-color="#fff"/>
      <stop offset="1" stop-color="#ededed"/>
    </linearGradient>
  </defs>
  <rect class="cls-1" x="36.8" y="6.61" width="226.77" height="226.77"/>
  <g id="Färg">
    <polygon class="cls-4" points="108.88 205.75 124.68 183.69 129.67 178.11 120.6 175.02 105.47 166.38 96.66 157.21 91.95 152.01 64.89 178.22 108.88 205.75"/>
  </g>
  <path class="cls-2" d="m73.68,172.47l32.83-36.78s21.28-37.39,25.84-43.47,21.58-29.49,23.1-30.7c1.52-1.22,26.45-.61,27.97-.61s12.16,6.08,13.68,6.08"/>
  <path class="cls-2" d="m138.13,91.61l17.05-12.18c1.16-.83,3.27-1.49,4.69-1.46l15.81.23c1.42.02,3.52.72,4.67,1.57l2.48,1.82"/>
  <line class="cls-2" x1="182.12" y1="81.06" x2="191.48" y2="84.01"/>
  <path d="m146.95,99.59c1.26-.54,2.44-1.24,3.56-2,.28-.19.56-.38.83-.58.27-.21.55-.39.8-.62.53-.42,1.04-.86,1.53-1.32.26-.22.48-.47.72-.7.24-.24.48-.47.69-.72.45-.49.9-.99,1.31-1.51.44-.5.8-1.06,1.2-1.6.2-.26.36-.56.54-.84l.54-.84.45-.7.76.43c.18.1.45.24.7.34.25.11.51.2.78.29.53.17,1.08.29,1.63.38,1.1.17,2.22.19,3.33.03,2.21-.33,4.33-1.28,6.21-2.61l.57-.4.57.4c.32.23.73.48,1.11.7.39.22.79.44,1.19.64.81.4,1.65.74,2.51,1,.86.26,1.74.46,2.62.57.44.06.89.08,1.33.08.45,0,.89-.03,1.33-.08.44-.07.88-.13,1.31-.25.44-.1.85-.26,1.27-.42.42-.17.82-.37,1.21-.6.4-.22.78-.47,1.15-.74.74-.54,1.42-1.18,2.06-1.86.33-.33.6-.72.92-1.07l.86-1.14-.65,1.28c-.25.41-.48.83-.76,1.22-.54.8-1.18,1.55-1.89,2.22-.36.33-.74.66-1.15.94-.4.29-.83.55-1.27.78-.45.22-.9.45-1.38.6-.47.18-.96.31-1.46.41-1.99.39-4.06.25-5.99-.26-.97-.26-1.91-.59-2.82-.99-.45-.21-.9-.42-1.34-.66-.44-.25-.85-.49-1.31-.8h1.13c-1.03.75-2.14,1.41-3.32,1.93-1.18.53-2.46.87-3.75,1.04-1.3.16-2.63.14-3.92-.1-.64-.12-1.28-.3-1.89-.53-.31-.11-.61-.24-.91-.38-.31-.15-.58-.28-.92-.5l1.21-.26c-.41.57-.8,1.17-1.25,1.71-.46.54-.89,1.1-1.38,1.6-.47.52-.97,1.02-1.5,1.49-.25.24-.53.46-.8.69-.28.22-.53.46-.82.66-.56.42-1.13.83-1.73,1.19-.29.19-.6.36-.9.53-.3.18-.61.33-.92.49-.62.32-1.26.59-1.91.84-.65.24-1.31.44-1.98.59Z"/>
  <path class="cls-2" d="m166.1,57.86l4.4-3.2c1.26-.92,3.55-1.43,5.08-1.14l23.31,4.42c1.53.29,3.44,1.62,4.24,2.96l4.93,8.21"/>
  <line class="cls-2" x1="196.35" y1="67.98" x2="206.83" y2="71.54"/>
  <line class="cls-2" x1="206.47" y1="66.47" x2="216.26" y2="74.58"/>
  <path d="m170.1,74.11c.62.46,1.35.7,2.06.93.73.2,1.45.38,2.2.46.37.06.74.1,1.11.13.37.04.74.07,1.12.07.38,0,.74.04,1.12.04h1.12c.37,0,.75-.04,1.12-.06l1.12-.05c.75-.07,1.5-.12,2.24-.22.75-.1,1.49-.16,2.24-.28l2.24-.35.34-.05.29.15c.35.18.78.37,1.18.54.41.17.83.33,1.25.47.84.3,1.7.53,2.56.74.87.2,1.74.34,2.62.41.88.06,1.76.08,2.63,0,1.74-.17,3.45-.69,4.94-1.66.39-.22.73-.51,1.09-.78.34-.3.69-.59,1-.92.33-.31.62-.67.92-1.03.3-.35.56-.74.85-1.11-.2.42-.37.86-.6,1.27-.23.41-.46.83-.75,1.21-.26.4-.58.76-.89,1.13-.34.34-.66.7-1.05,1-.37.32-.77.59-1.18.86-.42.25-.85.5-1.3.69-.44.22-.91.37-1.38.52-.47.14-.95.25-1.44.34-.49.08-.97.15-1.46.18-.49.05-.98.04-1.47.03-.98-.03-1.95-.14-2.9-.31-.96-.17-1.89-.43-2.81-.73-.46-.15-.91-.32-1.37-.5-.46-.18-.88-.36-1.36-.6l.63.1-2.31.33c-.38.06-.78.08-1.16.12l-1.17.11c-.78.05-1.57.05-2.35.08-.79,0-1.57-.01-2.35-.08s-1.57-.14-2.34-.29c-.39-.06-.77-.15-1.16-.24-.38-.09-.77-.18-1.14-.31-.76-.23-1.49-.54-2.19-.9-.68-.38-1.36-.83-1.84-1.44Z"/>
  <path d="m173.66,74.72s-.03.32-.23.71c-.18.39-.53.85-.96,1.22-.43.36-.95.63-1.37.74-.42.12-.74.1-.74.1,0,0,.16-.27.43-.59.27-.32.64-.68,1.03-1.02.4-.33.83-.63,1.18-.84.35-.21.65-.32.65-.32Z"/>
  <path d="m202.12,78.38s1.03.08,2.46.14c.36,0,.74.02,1.15.02.4.02.83-.02,1.26-.01.43,0,.87-.07,1.32-.08.44-.08.9-.08,1.33-.19.44-.08.88-.15,1.3-.29.21-.06.43-.11.63-.16.2-.07.4-.15.6-.22.4-.13.77-.3,1.13-.47.18-.08.36-.16.53-.24.16-.09.32-.18.47-.27.3-.18.61-.32.85-.48.24-.17.46-.31.64-.43.37-.23.6-.36.6-.36,0,0-.1.23-.31.63-.11.2-.24.44-.4.71-.17.27-.41.53-.67.83-.13.15-.27.3-.41.46-.16.14-.34.27-.51.41-.35.29-.73.6-1.19.8-.44.24-.9.49-1.4.64-.49.2-1.01.3-1.54.4-.52.11-1.05.11-1.57.15-.52,0-1.03-.03-1.51-.1-.97-.12-1.85-.37-2.56-.65-1.44-.55-2.22-1.26-2.22-1.26Z"/>
  <path d="m175.37,91.67s.08.1.15.3c.07.2.16.5.17.87.02.36-.01.8-.12,1.23-.09.44-.26.89-.45,1.32-.21.42-.43.84-.69,1.2-.24.37-.52.67-.76.93-.49.51-.89.78-.89.78,0,0,.13-.47.41-1.09.26-.63.65-1.43,1.02-2.23.19-.39.36-.79.52-1.17.16-.38.29-.73.39-1.04.21-.62.25-1.1.25-1.1Z"/>
  <path class="cls-2" d="m172.55,93.1s2.97,26.17,3.58,31.03,7.6,7.6,9.42,7.9,9.86.45,9.86.45c0,0,20.08-12.61,26.01.47"/>
  <path class="cls-2" d="m110.47,203.78l27.06-36.18s26.07-2.68,36.63-10.41c12.77-9.35,12.82-6.56,22.65-7.08,4.67-.25,10.94-.09,14.9-5.87s3.25-5.16,3.25-5.16"/>
  <line class="cls-2" x1="221.43" y1="132.95" x2="212.61" y2="139.64"/>
  <path d="m158.5,95.56c.03.94-.03,1.89-.15,2.83-.14.94-.33,1.87-.57,2.79-.14.46-.26.92-.42,1.37l-.5,1.35-.6,1.31c-.2.44-.46.84-.69,1.27-.23.43-.49.83-.77,1.22-.28.39-.53.81-.84,1.18l-.93,1.11c-.3.38-.68.69-1.02,1.04-.35.33-.68.7-1.07.99l-1.14.91c-.37.32-.79.56-1.2.83l-1.23.79.45-.74c-.03,2.2-.13,4.36-.29,6.53-.18,2.17-.42,4.33-.71,6.49-.15,1.08-.31,2.15-.5,3.23-.19,1.07-.39,2.14-.62,3.21-.44,2.14-.96,4.26-1.6,6.35-.3,1.05-.66,2.08-1.01,3.12-.37,1.03-.76,2.05-1.2,3.06-.42,1.01-.91,2-1.4,2.98l-.78,1.45-.87,1.4c-.61.91-1.23,1.83-1.94,2.67-.34.43-.71.84-1.1,1.23-.39.39-.75.8-1.18,1.15-.81.74-1.7,1.39-2.63,1.97-.48.26-.95.54-1.44.77l-1.51.6,1.41-.79c.45-.29.88-.62,1.32-.91.84-.66,1.64-1.36,2.35-2.15.38-.37.7-.8,1.03-1.21.34-.4.65-.83.94-1.28.63-.85,1.16-1.77,1.69-2.69l.74-1.41.68-1.44c.43-.97.85-1.94,1.21-2.95.74-1.99,1.39-4.02,1.94-6.08.29-1.02.52-2.07.78-3.1.23-1.04.47-2.08.67-3.13.42-2.1.75-4.21,1.07-6.32.31-2.12.56-4.25.76-6.38.21-2.13.39-4.28.48-6.39l.02-.49.43-.25,1.17-.7c.39-.24.8-.44,1.15-.72l1.1-.8c.38-.25.7-.58,1.04-.87.33-.31.7-.58,1-.92l.94-.99c.32-.32.58-.71.87-1.06.29-.35.57-.72.81-1.11.25-.39.53-.75.74-1.16l.68-1.2.6-1.25c.19-.42.35-.86.53-1.29.32-.87.6-1.76.82-2.67.22-.91.41-1.83.5-2.77Z"/>
  <path d="m195.51,131.75s.04.67.13,1.62c.04.48.11,1.03.19,1.61.09.58.19,1.2.34,1.8.07.3.13.61.23.9.09.29.16.58.27.85.19.55.4,1.06.61,1.48.1.22.2.41.28.59.1.17.18.32.25.44.13.26.21.41.21.41,0,0-.13-.1-.36-.28-.23-.18-.55-.46-.86-.85-.17-.19-.33-.41-.48-.66-.16-.24-.33-.5-.45-.79-.3-.56-.5-1.21-.67-1.87-.15-.66-.23-1.33-.24-1.96-.01-.63.03-1.21.12-1.71.15-.99.44-1.6.44-1.6Z"/>
  <path class="cls-3" d="m93.82,153.09s5.59,12.15,31.58,24.29"/>
  <path d="m188.52,86.69s-.52.13-1.31.07c-.4-.02-.85-.09-1.33-.22-.48-.12-.98-.33-1.46-.57-.23-.15-.47-.28-.68-.45-.23-.15-.41-.35-.6-.53-.35-.39-.62-.82-.74-1.23-.08-.2-.11-.39-.11-.56-.02-.17-.02-.31,0-.43.03-.24.06-.36.06-.36,0,0,.05.12.14.33.08.2.22.48.43.76.2.29.49.57.82.84.17.14.35.26.55.39.18.14.4.24.6.36.42.23.85.43,1.27.62.42.18.82.35,1.17.49.69.28,1.19.48,1.19.48Z"/>
  <path d="m195.61,68.86s.06.18.16.51c.14.29.34.69.7,1.1.34.41.8.85,1.35,1.26.54.41,1.15.82,1.78,1.19.31.19.63.37.95.54.32.16.63.34.95.48.3.13.64.31.87.37.11.04.42-.03.63-.14.46-.24.82-.56,1.07-.77.25-.22.39-.36.39-.36,0,0-.07.18-.23.48-.17.29-.42.72-.91,1.12-.26.19-.54.43-1.09.39-.42-.06-.7-.17-1.07-.29-.7-.24-1.4-.59-2.07-.98-1.34-.8-2.56-1.89-3.1-2.99-.15-.26-.23-.53-.31-.76-.07-.24-.08-.46-.11-.63.03-.34.04-.53.04-.53Z"/>
  <path d="m210.46,77.25s-.39.03-.91-.17c-.52-.18-1.14-.57-1.65-1.07-.51-.5-.92-1.09-1.13-1.59-.23-.49-.27-.87-.27-.87,0,0,.33.2.73.52.41.32.9.76,1.37,1.22.47.46.92.93,1.27,1.31.36.39.6.65.6.65Z"/>
</svg>