<?xml version="1.0" encoding="UTF-8"?>
<svg id="Lager_1" data-name="Lager 1" xmlns="http://www.w3.org/2000/svg" xmlns:xlink="http://www.w3.org/1999/xlink" viewBox="0 0 300.38 240">
  <defs>
    <style>
      .cls-1 {
        fill: #fff;
      }

      .cls-2 {
        stroke-width: .75px;
      }

      .cls-2, .cls-3, .cls-4 {
        stroke-linecap: round;
      }

      .cls-2, .cls-3, .cls-4, .cls-5, .cls-6 {
        fill: none;
        stroke: #000;
      }

      .cls-3 {
        stroke-width: .5px;
      }

      .cls-4, .cls-5 {
        stroke-width: 2px;
      }

      .cls-7 {
        fill: url(#linear-gradient);
      }
    </style>
    <linearGradient id="linear-gradient" x1="272.21" y1="404.83" x2="282.53" y2="429.73" gradientTransform="translate(-373.68 360.67) rotate(34.29) scale(1 -1)" gradientUnits="userSpaceOnUse">
      <stop offset="0" stop-color="#fff"/>
      <stop offset="1" stop-color="#ededed"/>
    </linearGradient>
  </defs>
  <rect class="cls-1" x="36.8" y="6.61" width="226.77" height="226.77"/>
  <g>
    <polygon class="cls-7" points="91.9 205.56 124.9 168.23 114.04 153.54 102.91 130.98 102.33 132.67 87.83 139.73 64.57 156.89 91.9 205.56"/>
    <path class="cls-4" d="m74.07,148.89l37.79-24.56s12.24-26.42,26.9-41.7c0,0,12.99-23.97,15.06-33.21"/>
    <path class="cls-5" d="m152.37,53.03l.71-12.92s4.99-3.34,9.45,2.46c4.45,5.79,3.22,16.92,1.3,22-1.93,5.08-5.81,11.9-5.31,15.67"/>
    <path class="cls-4" d="m148.78,81.4s36.25-9.06,39.72-9.71,34.84-5.4,38.73-4.96c3.89.44,9.04.33,8.85,7.67-.13,5.1-4.1,6.35-12.13,7.21-8.02.87-31.82,5.65-31.82,5.65"/>
    <polyline class="cls-4" points="198.06 86.46 166.39 97.34 163.9 99.39"/>
    <path class="cls-4" d="m192.72,91.29s6.64.22,6.35,5.77c-.29,5.55-1.78,6.45-5.15,8.2s-17.35,9.47-17.35,9.47l-2.17,2.33"/>
    <path class="cls-4" d="m194.77,107.43s5.44.66,5.09,6.97c-.35,6.31-3.62,7.91-8.79,10.82s-13.66,9.34-13.66,9.34"/>
    <path class="cls-4" d="m194.44,126.98s4.32,3.95,1.98,7.95c-2.33,4-19.51,14.71-19.51,14.71"/>
    <path class="cls-4" d="m182.57,145.97s-26.98,16.84-55.16,18.78"/>
    <line class="cls-4" x1="132.1" y1="162.44" x2="97.07" y2="200.89"/>
    <path class="cls-6" d="m105.86,131.76s1.56,17.28,18.26,35.08"/>
    <path d="m153.8,51.04s.14-.62.41-1.51c.26-.89.64-2.05.95-3.21.32-1.15.57-2.31.5-3.16-.04-.42-.16-.76-.3-.98-.14-.22-.26-.34-.26-.34,0,0,.16.03.4.2.24.16.55.5.72.98.37.98.25,2.34-.09,3.56-.34,1.23-.9,2.37-1.39,3.17-.49.81-.93,1.28-.93,1.28Z"/>
    <path d="m187.71,75.15s0,.78.03,1.92c.02.57.05,1.23.11,1.93.07.7.13,1.44.27,2.17.06.37.11.74.21,1.09.08.36.15.71.26,1.04.09.34.18.66.29.96.11.3.19.6.31.85.11.26.2.51.29.72.1.21.19.39.26.54.14.31.22.49.22.49,0,0-.14-.13-.38-.38-.25-.24-.57-.61-.9-1.11-.18-.24-.33-.52-.49-.83-.17-.3-.32-.62-.44-.98-.29-.69-.47-1.47-.62-2.24-.12-.78-.18-1.57-.16-2.31.02-.74.09-1.42.2-2,.2-1.16.54-1.88.54-1.88Z"/>
    <path class="cls-2" d="m188.73,76.26s1.18,5.23,1.6,8.29"/>
    <path d="m231.46,69.37s.06-.09.03-.24c-.05-.16-.32-.18-.61-.17-.61.03-1.48.28-2.49.62-.99.35-2.2.79-3.26,1.46-.27.17-.46.35-.53.55-.1.22-.13.52-.12.83,0,.63.16,1.32.32,2,.18.7.35,1.4.52,2.08l.11.54c.02.11.07.34.11.46.07.22.22.45.41.62.4.34,1,.51,1.58.62.58.1,1.16.15,1.69.2,2.15.13,3.59.21,3.59.21,0,0-.36.06-.98.14-.63.06-1.52.2-2.62.24-.55.03-1.14.03-1.79-.03-.63-.06-1.36-.18-2.04-.68-.33-.26-.6-.6-.75-1.04-.07-.21-.1-.32-.15-.55l-.11-.5c-.16-.67-.38-1.36-.54-2.07-.16-.72-.32-1.45-.32-2.24,0-.39.06-.81.26-1.22.21-.45.59-.72.9-.89.63-.37,1.26-.59,1.86-.8.6-.2,1.18-.35,1.71-.46,1.07-.23,1.99-.31,2.64-.26.31.03.63.12.66.34,0,.19-.09.25-.08.25Z"/>
    <path d="m232.38,69.3s.45.39.9,1.12c.46.73.91,1.8,1.14,2.93.06.28.09.57.13.85.04.28.04.56.05.83.02.27,0,.53-.02.78,0,.25-.04.48-.08.69-.05.43-.15.77-.23,1.01-.07.24-.12.38-.12.38,0,0-.03-.14-.07-.39-.04-.25-.08-.59-.15-1-.12-.82-.27-1.89-.5-2.94-.1-.53-.22-1.05-.34-1.55-.12-.49-.24-.96-.35-1.36-.22-.81-.37-1.35-.37-1.35Z"/>
    <path class="cls-3" d="m213.72,72.26s-.09,2.76.88,6.99"/>
    <path class="cls-2" d="m173.04,107.05s-1.69,5.87-11.32,5.54"/>
    <path class="cls-2" d="m178.87,125.54s-.58,6.18-9.32,6.76"/>
  </g>
</svg>