<?xml version="1.0" encoding="UTF-8"?>
<svg id="Lager_1" data-name="Lager 1" xmlns="http://www.w3.org/2000/svg" xmlns:xlink="http://www.w3.org/1999/xlink" viewBox="0 0 300.38 240">
  <defs>
    <style>
      .cls-1 {
        fill: #fff;
      }

      .cls-2, .cls-3, .cls-4 {
        fill: none;
        stroke: #000;
        stroke-linecap: round;
      }

      .cls-3 {
        stroke-width: .5px;
      }

      .cls-4 {
        stroke-width: 2px;
      }

      .cls-5 {
        fill: url(#linear-gradient);
      }
    </style>
    <linearGradient id="linear-gradient" x1="26.61" y1="1222.25" x2="34.18" y2="1211.01" gradientTransform="translate(-128.86 -982.96) rotate(-10.61)" gradientUnits="userSpaceOnUse">
      <stop offset="0" stop-color="#fff"/>
      <stop offset="1" stop-color="#ededed"/>
    </linearGradient>
  </defs>
  <rect class="cls-1" x="36.8" y="6.61" width="226.77" height="226.77"/>
  <g id="Färg">
    <polygon class="cls-5" points="149.31 229.85 155.34 201.78 155.82 194.05 145.32 193.06 130.29 187.17 119.6 178.31 115.2 170.94 92.25 204.82 149.31 229.85"/>
  </g>
  <path class="cls-4" d="m99.2,196.23s18.33-28.6,20.55-32.88,9.22-58.17,9.22-58.17c.63-6.54,4.2-15.13,5.21-17.87s6.77-22.68,6.77-22.68l10.47-26.44"/>
  <path class="cls-4" d="m151.38,39.41c1.84-5.83,3.48-11.84,9.37-10.71,4.27.82,4.77,3.38,4.77,3.38"/>
  <path class="cls-4" d="m149.48,95.34s5.33-26.58,7.12-31.24,8.24-25.03,8.24-25.03"/>
  <path class="cls-4" d="m165.36,40.9s-.04-11.5,3.94-11.86,14.01-.95,9.77,18.02-5.21,18.84-9.71,48.68"/>
  <path class="cls-4" d="m167.77,101.34s9.26-11.44,12.59-11.44,8.3,3.69,7.5,7.67c-.8,3.97-9.68,18.36-9.68,18.36"/>
  <path class="cls-4" d="m188.2,101.9c.5-.17,5.75,3.56,6.25,9.22.5,5.67-4.61,17.21-7.46,21.09"/>
  <path class="cls-4" d="m187.86,127.4s-2.25,4.33-2.77,10.3c-1.06,12.06-13.57,41.99-26.36,48.94,0,0-6.74,29.56-7.78,36.55"/>
  <path class="cls-2" d="m116.93,173.45s10.9,20.6,37.01,20.31"/>
  <path d="m167.71,33.25s0,.36.01.99c0,.63.02,1.53.05,2.59.02.53.04,1.11.1,1.71.03.3.07.6.13.89.07.29.13.56.27.66.13.1.46.27.74.38.3.12.62.23.94.33.65.2,1.34.35,2.03.5.69.14,1.38.26,2.05.32.31.04.72.04.88.02.08-.03.17-.05.24-.07.04-.03.09-.05.13-.07.11-.08.23-.15.33-.26.44-.39.78-.92,1.05-1.44.27-.53.48-1.05.66-1.55.33-1,.52-1.88.61-2.5.1-.62.15-.98.15-.98,0,0,0,.09.01.26,0,.17.03.42.02.73,0,.63-.05,1.54-.27,2.62-.13.54-.28,1.12-.53,1.71-.26.59-.58,1.2-1.1,1.75-.13.14-.29.26-.46.38-.1.06-.21.12-.32.17l-.25.09c-.52.11-.82.08-1.21.07-.74-.04-1.46-.16-2.18-.29-.72-.13-1.43-.32-2.12-.54-.35-.11-.69-.23-1.03-.38-.35-.17-.65-.29-1.02-.64-.36-.37-.4-.82-.46-1.14-.04-.35-.06-.68-.06-.99,0-.63.03-1.22.08-1.76.2-2.16.54-3.57.54-3.57Z"/>
  <path d="m154.42,32.27s-.03.34-.09.94c-.07.59-.13,1.45-.22,2.47-.04.51-.07,1.06-.09,1.63,0,.56,0,1.22.13,1.67.05.24.77.5,1.35.67.62.18,1.27.31,1.93.42.66.12,1.32.2,1.97.25.32.02.65.04.95.04.15,0,.3-.01.39-.04.18-.04.27-.08.39-.12.49-.23.93-.6,1.26-1.03.33-.43.6-.89.8-1.34.39-.91.59-1.74.69-2.33.1-.59.15-.93.15-.93,0,0,0,.09.01.25,0,.16.04.4.02.7-.01.6-.05,1.48-.35,2.5-.16.51-.38,1.05-.73,1.58-.35.52-.82,1.04-1.48,1.38-.18.09-.39.17-.52.2-.22.06-.4.08-.58.09-.36.02-.71.03-1.05,0-.69-.04-1.39-.12-2.08-.23-.69-.12-1.37-.27-2.05-.48-.34-.11-.67-.22-1-.39-.3-.16-.76-.4-.91-.92-.19-.79-.09-1.39-.04-2,.07-.6.16-1.15.27-1.66.42-2.03.88-3.33.88-3.33Z"/>
  <path class="cls-3" d="m158.53,64.62s6.59-.82,10.79,2.83"/>
  <path class="cls-3" d="m158.15,67.26s4.66,2.12,11.02,1.91"/>
  <path class="cls-3" d="m143.32,62.7s6.59-.82,10.79,2.83"/>
  <path class="cls-3" d="m142.93,65.34s4.66,2.12,11.02,1.91"/>
  <line class="cls-4" x1="146.45" y1="95.73" x2="150.58" y2="89.92"/>
  <line class="cls-4" x1="179.14" y1="114.35" x2="178.95" y2="117.23"/>
  <path d="m154.98,30.84s.15,0,.39-.04c.23-.02.58-.12.99-.2.82-.18,1.96-.35,3.12-.27.57.05,1.15.14,1.67.3.52.15.99.35,1.37.55.39.2.68.41.88.56.2.15.31.24.31.24,0,0-.14-.03-.38-.11-.23-.09-.57-.17-.97-.29-.4-.11-.86-.22-1.36-.31-.25-.06-.51-.07-.77-.12-.26-.03-.53-.06-.8-.08-1.08-.08-2.18-.04-3.02-.05-.43,0-.78-.04-1.04-.08-.25-.05-.38-.11-.38-.11Z"/>
  <path d="m168.37,31.34s.15,0,.39-.04c.23-.02.58-.12.99-.2.82-.18,1.96-.35,3.12-.27.57.05,1.15.14,1.67.3.52.15.99.35,1.37.55.38.2.68.41.88.56.2.15.31.24.31.24,0,0-.14-.03-.38-.11-.23-.09-.57-.17-.97-.29-.4-.11-.86-.22-1.36-.31-.25-.06-.51-.07-.77-.12-.26-.03-.53-.06-.8-.08-1.08-.08-2.18-.04-3.02-.05-.43,0-.78-.04-1.04-.08-.25-.05-.38-.11-.38-.11Z"/>
</svg>