<?xml version="1.0" encoding="UTF-8"?>
<svg id="Lager_1" data-name="Lager 1" xmlns="http://www.w3.org/2000/svg" xmlns:xlink="http://www.w3.org/1999/xlink" viewBox="0 0 300.38 240">
  <defs>
    <style>
      .cls-1 {
        fill: #fff;
      }

      .cls-2, .cls-3, .cls-4 {
        fill: none;
        stroke: #000;
        stroke-linecap: round;
      }

      .cls-3 {
        stroke-width: .5px;
      }

      .cls-4 {
        stroke-width: 2px;
      }

      .cls-5 {
        fill: url(#linear-gradient);
      }
    </style>
    <linearGradient id="linear-gradient" x1="29.62" y1="1226.83" x2="37.71" y2="1214.83" gradientTransform="translate(-128.86 -982.96) rotate(-10.61)" gradientUnits="userSpaceOnUse">
      <stop offset="0" stop-color="#fff"/>
      <stop offset="1" stop-color="#ededed"/>
    </linearGradient>
  </defs>
  <rect class="cls-1" x="36.8" y="6.61" width="226.77" height="226.77"/>
  <g id="Färg">
    <polygon class="cls-5" points="150.2 231.84 156.2 204.47 158.87 189.42 148.37 190.87 133.23 188.31 122.15 181.97 115.91 175.07 98.95 210.74 150.2 231.84"/>
  </g>
  <path class="cls-2" d="m117.28,177.31s14.06,15.85,38.47,12.73"/>
  <path d="m140.89,27.39s.07.35.18.97c.1.62.29,1.5.49,2.55.11.52.23,1.09.39,1.67.08.29.17.58.28.86.11.28.22.53.38.6.14.08.5.19.8.25.32.07.65.12.99.16.68.09,1.38.12,2.08.15.7.02,1.41.01,2.08-.04.31-.02.72-.08.87-.13.07-.04.16-.08.22-.11.04-.03.07-.07.12-.09.09-.1.2-.19.28-.31.36-.46.61-1.04.79-1.6.18-.56.3-1.12.38-1.64.15-1.04.19-1.94.17-2.56,0-.63-.03-.99-.03-.99,0,0,.02.09.06.25.03.17.11.41.15.72.1.62.22,1.53.18,2.63-.03.55-.09,1.15-.23,1.77-.15.62-.36,1.28-.79,1.92-.1.16-.24.31-.38.45-.09.08-.19.15-.29.23l-.23.13c-.49.2-.79.22-1.18.28-.73.09-1.46.1-2.2.09-.73,0-1.46-.07-2.18-.17-.36-.05-.72-.11-1.08-.2-.37-.11-.68-.18-1.12-.45-.42-.31-.53-.74-.65-1.04-.1-.33-.17-.66-.23-.97-.12-.62-.18-1.21-.23-1.75-.17-2.17-.09-3.61-.09-3.61Z"/>
  <path d="m142.55,25.64s.15,0,.39-.04c.23-.02.58-.12.99-.2.82-.18,1.96-.35,3.12-.27.57.05,1.15.14,1.67.3.52.15.99.35,1.37.55.39.2.68.41.88.56.2.15.31.24.31.24,0,0-.14-.03-.38-.11-.23-.09-.57-.17-.97-.29-.4-.11-.86-.22-1.36-.31-.25-.06-.51-.07-.77-.12-.26-.03-.53-.06-.8-.08-1.08-.08-2.18-.04-3.02-.05-.43,0-.78-.04-1.04-.08-.25-.05-.38-.11-.38-.11Z"/>
  <path d="m183.69,29.21s.14.02.39.04c.23.02.59,0,1.01,0,.84-.01,1.99.03,3.11.34.55.16,1.1.36,1.58.61.48.25.9.53,1.24.8.34.27.58.53.75.72.17.18.26.3.26.3,0,0-.13-.06-.35-.18-.21-.13-.52-.28-.89-.47-.37-.18-.8-.38-1.28-.56-.23-.11-.49-.16-.73-.26-.25-.08-.51-.16-.77-.23-1.04-.29-2.13-.46-2.96-.64-.42-.09-.76-.19-1-.28-.23-.09-.35-.18-.35-.18Z"/>
  <path class="cls-4" d="m101.39,204.26s15.89-31.79,16.21-36.19c.32-4.4-1.47-30.41-.71-35.33.76-4.92,6.3-29.23,7.75-31.01s.79-2.34,3.01-2.24"/>
  <path d="m134.32,83.71s-2.87,12.42-5.74,24.84c-.37,1.56-.7,3.09-1.09,4.65-.43,1.51-.85,3-1.26,4.43-.84,2.87-1.62,5.55-2.29,7.84-1.35,4.59-2.36,7.61-2.36,7.61,0,0,.89-3.06,2.05-7.7.57-2.32,1.24-5.03,1.96-7.93.35-1.45.71-2.95,1.08-4.48.3-1.49.55-3.1.83-4.66,2.19-12.56,4.38-25.12,4.38-25.12.12-.68.77-1.14,1.45-1.02.68.12,1.14.77,1.02,1.45,0,.02,0,.05-.01.07Z"/>
  <path class="cls-4" d="m132.87,87.94s2.71-60.83,7.58-63.59c4.86-2.76,6.8-3.2,11.13.71,1.98,1.79-.9,9.87-.9,9.87"/>
  <path class="cls-4" d="m151.79,31.03s1.65,24.6,1.38,29.96-3.31,33.11-2.37,36.39"/>
  <path class="cls-3" d="m139.3,58.59s5.7-2.05,12.24.53"/>
  <path class="cls-3" d="m139.07,60.36s7.51,1.95,12.67.48"/>
  <path d="m182.01,31.13s-.03.36-.07.99c-.06.62-.1,1.52-.17,2.59-.02.53-.05,1.11-.05,1.71,0,.3.02.6.05.9.04.3.08.57.22.68.12.11.43.31.71.44.29.15.6.28.91.41.63.26,1.31.46,1.98.67.67.2,1.36.37,2.02.49.3.06.71.1.88.1.08-.02.18-.03.25-.05.04-.02.09-.04.14-.06.12-.07.24-.13.35-.23.47-.35.86-.85,1.17-1.35.31-.5.57-1.01.78-1.49.41-.97.68-1.83.82-2.43.15-.61.23-.96.23-.96,0,0,0,.09,0,.26-.01.17,0,.42-.04.73-.06.63-.18,1.53-.49,2.59-.17.52-.38,1.09-.68,1.66-.3.56-.68,1.15-1.25,1.65-.14.13-.31.24-.49.34-.11.05-.22.1-.33.15l-.26.07c-.53.07-.82,0-1.21-.03-.73-.1-1.44-.28-2.15-.47-.71-.19-1.4-.44-2.07-.72-.34-.14-.67-.29-.99-.47-.33-.2-.62-.35-.96-.72-.33-.4-.33-.85-.36-1.17-.02-.35,0-.68.02-.99.05-.63.13-1.22.22-1.75.38-2.14.83-3.51.83-3.51Z"/>
  <path class="cls-4" d="m156.05,98.49s20.9-68.97,26.3-70.4c5.41-1.43,7.39-1.37,10.59,3.52,1.46,2.23-3.38,9.31-3.38,9.31"/>
  <path class="cls-4" d="m191.63,37.43s-4.02,23.91-5.65,29.03c-1.63,5.12-12.78,34.51-12.71,37.93"/>
  <path class="cls-3" d="m172.55,60.9s6.04-.53,11.7,3.62"/>
  <path class="cls-3" d="m171.88,62.56s6.77,3.8,12.13,3.68"/>
  <path class="cls-4" d="m174.91,101.85s4.09.31,5.34,5.68c1.25,5.37-.35,5.54,3.6,8.45,3.95,2.91,4.52,3.89,4.24,8.88-.34,6.17-25.87,54.15-27.35,57.53s-9.34,41.9-9.34,41.9"/>
  <path class="cls-4" d="m152.12,94.69s1.19.75,2.78.74"/>
  <path class="cls-2" d="m166.74,101.03s1.83,6-4.17,12.33"/>
  <line class="cls-2" x1="121.88" y1="132.1" x2="126.01" y2="117.16"/>
</svg>