<?xml version="1.0" encoding="UTF-8"?>
<svg id="Lager_1" data-name="Lager 1" xmlns="http://www.w3.org/2000/svg" xmlns:xlink="http://www.w3.org/1999/xlink" viewBox="0 0 300.38 240">
  <defs>
    <style>
      .cls-1 {
        fill: #fff;
      }

      .cls-2, .cls-3, .cls-4 {
        fill: none;
        stroke: #000;
        stroke-linecap: round;
      }

      .cls-3 {
        stroke-width: .5px;
      }

      .cls-4 {
        stroke-width: 2px;
      }

      .cls-5 {
        fill: url(#linear-gradient);
      }
    </style>
    <linearGradient id="linear-gradient" x1="26.28" y1="1223.82" x2="34.74" y2="1211.26" gradientTransform="translate(-128.86 -982.96) rotate(-10.61)" gradientUnits="userSpaceOnUse">
      <stop offset="0" stop-color="#fff"/>
      <stop offset="1" stop-color="#ededed"/>
    </linearGradient>
  </defs>
  <rect class="cls-1" x="36.8" y="6.61" width="226.77" height="226.77"/>
  <g id="Färg">
    <polygon class="cls-5" points="150.55 227.86 155.19 197.49 157.97 186.4 147.16 184.96 130.33 180.12 119.45 174.01 113.66 168.85 92.09 207.32 150.55 227.86"/>
  </g>
  <path d="m132.13,24.21s.06.38.15,1.03c.08.66.24,1.6.42,2.71.1.56.2,1.16.33,1.78.07.31.14.63.24.94.09.3.21.64.33.79l.02.02s.02.02.02.02c.04.03.07.06.08.06l.16.08c.13.06.29.11.45.16.32.09.66.18,1.02.24.71.14,1.44.2,2.18.27.74.06,1.48.07,2.18.04.35-.02.7-.05.9-.16.18-.09.42-.35.59-.6.36-.53.61-1.15.79-1.75.18-.6.32-1.19.4-1.74.18-1.1.23-2.05.24-2.71.01-.66,0-1.04,0-1.04,0,0,.08.37.18,1.03.08.66.18,1.62.13,2.78-.08,1.15-.24,2.53-1,3.9-.21.34-.44.67-.89.95-.45.24-.86.27-1.25.32-.79.08-1.56.06-2.34.01-.78-.04-1.54-.15-2.31-.3-.38-.08-.76-.17-1.13-.3-.19-.07-.38-.15-.57-.24-.1-.06-.18-.1-.31-.19-.07-.05-.1-.08-.13-.11l-.08-.08-.07-.08c-.29-.44-.35-.78-.45-1.14-.08-.35-.13-.69-.17-1.02-.09-.66-.13-1.28-.16-1.85-.09-2.29.03-3.81.03-3.81Z"/>
  <path d="m160.52,21.76s-.19,1.54-.49,3.84c-.06.57-.13,1.19-.19,1.85-.06.65-.1,1.36-.06,2.01.04.37.07.46.29.61.24.17.57.31.9.45.67.26,1.4.47,2.14.64.73.18,1.48.33,2.22.44.37.05.73.11,1.07.13.16.01.35,0,.41-.02.11-.03.24-.09.36-.17.5-.33.92-.88,1.25-1.42.33-.54.62-1.09.85-1.61.46-1.05.77-1.96.96-2.61.19-.65.3-1.02.3-1.02,0,0-.02.39-.12,1.07-.1.67-.26,1.64-.62,2.77-.19.56-.4,1.17-.73,1.78-.33.61-.71,1.26-1.4,1.78-.18.13-.37.24-.62.32-.29.08-.48.08-.69.08-.41,0-.79-.03-1.18-.08-.78-.1-1.55-.24-2.32-.42-.77-.19-1.53-.42-2.28-.72-.37-.16-.74-.34-1.1-.62-.1-.08-.17-.13-.28-.27-.14-.18-.1-.11-.21-.36-.1-.27-.11-.48-.12-.68-.03-.8.1-1.49.2-2.17.11-.67.25-1.28.38-1.86.26-1.14.55-2.07.73-2.73.2-.65.33-1.02.33-1.02Z"/>
  <path d="m190.5,38.74s-.49,1.37-1.22,3.41c-.34,1.02-.8,2.22-1.06,3.49-.03.15-.05.31-.05.44,0,.05.01.15,0,.11.01.04.03.09.04.11.01,0,.01.01.02.03.13.19.4.4.66.59.54.38,1.17.72,1.8,1.02.63.31,1.29.6,1.93.83.32.12.65.24.95.3l.1.02s.07,0,.1,0c.04,0,.07,0,.14-.01.12-.02.25-.07.37-.14.52-.26.99-.71,1.39-1.15.4-.45.76-.9,1.07-1.34.62-.88,1.08-1.65,1.38-2.21.31-.56.48-.88.48-.88,0,0-.1.35-.32.95-.23.59-.56,1.45-1.1,2.42-.27.48-.58,1-.98,1.51-.4.5-.85,1.03-1.53,1.43-.17.1-.36.18-.58.24-.1.03-.24.04-.37.04-.06,0-.05,0-.16,0l-.15-.02c-.39-.07-.74-.17-1.09-.28-.7-.24-1.38-.52-2.05-.84-.67-.33-1.32-.69-1.93-1.14-.3-.24-.6-.48-.85-.88-.03-.06-.07-.13-.1-.2-.02-.06-.03-.09-.04-.13-.05-.21-.04-.29-.03-.41.02-.21.05-.4.09-.58.17-.7.43-1.32.66-1.9.24-.58.49-1.12.72-1.61.96-1.96,1.71-3.21,1.71-3.21Z"/>
  <path class="cls-3" d="m153.58,55.98s6.59-.82,10.79,2.83"/>
  <path class="cls-3" d="m153.19,58.62s4.66,2.12,11.02,1.91"/>
  <path class="cls-3" d="m174.42,69.99s6.59.85,9.75,5.41"/>
  <path class="cls-3" d="m173.39,72.45s3.99,3.21,10.21,4.58"/>
  <path class="cls-3" d="m129.04,55.01s6.24-2.27,11.15.34"/>
  <path class="cls-3" d="m129.25,57.67s5.02,1.02,11.17-.61"/>
  <path d="m161.3,20.92s.15,0,.39-.04c.23-.02.58-.12.99-.2.82-.18,1.96-.35,3.12-.27.57.05,1.15.14,1.67.3.52.15.99.35,1.37.55.38.2.68.41.88.56.2.15.31.24.31.24,0,0-.14-.03-.38-.11-.23-.09-.57-.18-.97-.29-.4-.11-.86-.22-1.36-.31-.25-.06-.51-.07-.77-.12-.26-.03-.53-.06-.8-.07-1.08-.08-2.18-.04-3.02-.05-.43,0-.78-.04-1.04-.09-.25-.05-.38-.11-.38-.11Z"/>
  <path d="m191.61,37.77s.14.04.38.07c.23.05.59.05,1,.1.84.07,1.98.23,3.06.65.54.22,1.06.47,1.51.77.46.29.85.62,1.15.92.31.3.53.59.68.79.15.2.23.32.23.32,0,0-.12-.07-.33-.22-.19-.15-.49-.33-.84-.55-.35-.22-.76-.46-1.21-.69-.22-.13-.47-.21-.7-.34-.24-.11-.49-.21-.75-.3-1.01-.39-2.07-.67-2.88-.93-.41-.13-.74-.27-.97-.38-.22-.11-.33-.21-.33-.21Z"/>
  <path d="m133.46,21.69s.15,0,.39-.04c.23-.02.58-.12.99-.2.82-.18,1.96-.35,3.12-.27.57.05,1.15.14,1.67.3.52.15.99.35,1.37.55.39.2.68.41.88.56.2.15.31.24.31.24,0,0-.14-.03-.38-.11-.23-.09-.57-.18-.97-.29-.4-.11-.86-.22-1.36-.31-.25-.06-.51-.07-.77-.12-.26-.03-.53-.06-.8-.07-1.08-.08-2.18-.04-3.02-.05-.43,0-.78-.04-1.04-.09-.25-.05-.38-.11-.38-.11Z"/>
  <path class="cls-4" d="m96.02,200.8s22.84-39.63,22.77-43.51c-.07-3.88,4-60.12,3.91-62.42-.38-9.88,3.51-35.83,3.62-38.06.12-2.23,3.36-29.57,4.47-32.12,1.91-4.36,6.51-6.45,10.51-4.65s3.87,9.78,3.41,13.03-.97,11.59-4.91,49.25"/>
  <path class="cls-4" d="m141.42,84.72s7.96-25.32,9.1-30.02,4.72-19.41,6.22-25.71,1.83-11.26,9.19-10.76,6.97,8.36,4.29,19.11-7.04,45.36-9.4,53.06"/>
  <path class="cls-4" d="m161.96,92.96l11.39-26.36s11.8-25.07,16.66-28.49c5.19-3.65,11.76-.82,9.14,7.43-2.62,8.25-16.99,40.47-20.55,49.06"/>
  <path class="cls-4" d="m175.48,102.32s5.67-11.56,8.98-11.97,9.52,2.07,7.93,9.16-6.48,22.89-6.48,22.89"/>
  <path class="cls-4" d="m185.93,116.42s-3.48,13.67-6.78,28.07c-3.3,14.4-12.95,25.79-18.94,30.76,0,0-7.16,35.48-8.43,43.15"/>
  <path class="cls-2" d="m116.42,170.6s3.54,10.24,36.79,14.87"/>
</svg>