<?xml version="1.0" encoding="UTF-8"?>
<svg id="Lager_1" data-name="Lager 1" xmlns="http://www.w3.org/2000/svg" xmlns:xlink="http://www.w3.org/1999/xlink" viewBox="0 0 300.38 240">
  <defs>
    <style>
      .cls-1 {
        fill: url(#linear-gradient-2);
      }

      .cls-2 {
        fill: #fff;
      }

      .cls-3, .cls-4, .cls-5 {
        stroke-linecap: round;
      }

      .cls-3, .cls-4, .cls-5, .cls-6 {
        fill: none;
        stroke: #000;
      }

      .cls-7 {
        opacity: .18;
      }

      .cls-4 {
        stroke-width: .5px;
      }

      .cls-5, .cls-6 {
        stroke-width: 2px;
      }

      .cls-8 {
        fill: url(#linear-gradient);
      }
    </style>
    <linearGradient id="linear-gradient" x1="51.41" y1="1050" x2="78.41" y2="1056" gradientTransform="translate(0 -963.83)" gradientUnits="userSpaceOnUse">
      <stop offset="0" stop-color="#fff"/>
      <stop offset="1" stop-color="#ededed"/>
    </linearGradient>
    <linearGradient id="linear-gradient-2" x1="220.67" y1="891.48" x2="230.32" y2="914.79" gradientTransform="translate(-846.76 -35.7) rotate(83.68) scale(1 -1)" gradientUnits="userSpaceOnUse">
      <stop offset="0" stop-color="#fff"/>
      <stop offset="1" stop-color="#ededed"/>
    </linearGradient>
  </defs>
  <rect class="cls-2" x="36.8" y="6.61" width="226.77" height="226.77"/>
  <g id="Lager_2" data-name="Lager 2" class="cls-7">
    <path class="cls-8" d="m113.22,74.03c-1.33-.33-58.67-14.67-58.67-14.67,0,0-14.67,35.67,0,55l26-.33,15.67,2.33s0-14.67,2-20,16-20.33,16-20.33l-1-2Z"/>
  </g>
  <polygon class="cls-1" points="61.7 110.08 94.39 115.69 96.48 108.05 103.67 86.61 111.97 74.35 106.77 73.11 92.01 68.83 66.26 63.82 61.7 110.08"/>
  <path class="cls-5" d="m76.8,66.46s48.25,9.92,56.99,12.69,40.86,17.81,44.51,19.95c3.64,2.14,11.1,3.57,14.27,9.23s7.69,19.4,7.69,19.4"/>
  <path class="cls-6" d="m69.8,111.28s27.35,3.16,37.01,8.91"/>
  <path class="cls-5" d="m105.69,118.65s11.61,24.46,30.78,33.96"/>
  <path class="cls-5" d="m182.74,120.01s24.39,15.54,28.73,17.61c4.34,2.07,20.42,22.68,20.42,22.68,0,0,7.27,12.9,7.66,13.81"/>
  <path d="m177.71,143.8c1.7,1.14,3.48,2.15,5.28,3.1,1.8.95,3.65,1.8,5.54,2.56.93.4,1.89.74,2.84,1.1.96.32,1.91.67,2.88.94.96.3,1.94.55,2.92.8.97.26,1.97.43,2.95.65l.24.05.2.19c.64.61,1.32,1.22,1.99,1.83l2.02,1.82,4.08,3.61,8.21,7.19.1.09.08.11c.33.46.71.97,1.08,1.44.38.48.77.95,1.16,1.41.8.92,1.63,1.81,2.51,2.65,1.75,1.68,3.65,3.22,5.8,4.27,2.11,1.07,4.54,1.54,6.82.83,1.14-.34,2.2-.97,3.14-1.75.93-.79,1.79-1.71,2.55-2.71-.31.54-.64,1.08-1.01,1.59-.35.52-.78,1-1.22,1.46-.89.91-1.95,1.7-3.16,2.21-1.21.52-2.57.75-3.9.65-1.33-.09-2.62-.44-3.84-.93-2.42-1.02-4.54-2.55-6.46-4.24-.96-.86-1.86-1.76-2.73-2.7-.43-.47-.86-.95-1.27-1.44-.41-.5-.81-.98-1.21-1.53l.18.19-4.17-3.55c-1.38-1.19-2.74-2.42-4.09-3.65-1.36-1.22-2.69-2.48-4.01-3.75-1.32-1.28-2.62-2.55-3.88-3.93l.44.24c-1.01-.27-2.02-.49-3.01-.8-1-.29-1.99-.6-2.96-.97-.98-.34-1.93-.75-2.89-1.13-.94-.43-1.9-.82-2.82-1.29-1.85-.91-3.65-1.93-5.39-3.02-1.74-1.09-3.43-2.27-4.99-3.6Z"/>
  <line class="cls-5" x1="189.14" y1="152.78" x2="200.14" y2="172.88"/>
  <path class="cls-5" d="m198.3,169.52s4.99,15.07,13.67,11.09c5.84-2.68,2.8-8.82,2.8-8.82"/>
  <path class="cls-5" d="m174.47,138.11s8.93,15.35,10.11,19.21c1.18,3.86.48,6.88-3.49,8.53-3.95,1.64-8.17,1.26-10.9-2.07-1.34-1.64-15.39-19-15.39-19l-3.83-1.3"/>
  <path class="cls-5" d="m132.97,147.61s19.22,20.85,23.82,21.66,10.01-.33,11.18-5"/>
  <path class="cls-3" d="m111.14,76.95s-11.26,13.19-14.84,35.15"/>
  <path d="m239.32,171.4s-1.28-.96-3.2-2.4c-.48-.35-1.01-.73-1.56-1.11-.55-.37-1.18-.78-1.76-.99-.34-.15-1.1.3-1.7.67-.64.4-1.25.89-1.85,1.38-.6.49-1.17,1.03-1.66,1.58-.12.14-.23.27-.32.4-.09.12-.12.23-.14.35-.04.27.02.61.1.94.18.66.49,1.3.81,1.88.33.58.69,1.11,1.04,1.58.7.95,1.37,1.69,1.86,2.19.48.51.77.79.77.79,0,0-.34-.22-.9-.65-.55-.44-1.34-1.08-2.17-1.97-.82-.9-1.73-2.03-2.28-3.56-.13-.39-.23-.81-.18-1.31.02-.27.12-.53.25-.74.12-.2.24-.38.38-.54.52-.66,1.13-1.21,1.75-1.76.62-.54,1.29-1.02,1.99-1.45.35-.21.71-.41,1.12-.57.21-.08.41-.15.66-.19l.22-.02h.18c.16.02.28.06.39.1.82.34,1.36.82,1.93,1.24.55.44,1.04.87,1.48,1.29.89.82,1.57,1.56,2.06,2.06.48.51.74.82.74.82Z"/>
  <path d="m215.29,174.45s-.98-1.26-2.46-3.15c-.37-.47-.78-.97-1.22-1.48-.43-.5-.94-1.07-1.44-1.42-.29-.23-1.14,0-1.82.2-.72.22-1.44.53-2.15.85-.71.32-1.4.69-2.01,1.09-.15.1-.29.21-.41.31-.11.09-.18.19-.22.3-.11.25-.14.6-.15.93,0,.69.13,1.38.3,2.02.17.65.37,1.25.59,1.8.43,1.1.88,1.99,1.22,2.6.33.61.54.96.54.96,0,0-.27-.3-.7-.86-.42-.57-1.01-1.39-1.58-2.47-.55-1.09-1.15-2.41-1.27-4.03-.02-.41,0-.84.16-1.31.09-.26.26-.48.43-.65.17-.16.33-.3.5-.43.68-.5,1.41-.88,2.15-1.24.74-.36,1.51-.65,2.3-.88.4-.11.8-.21,1.23-.26.22-.02.43-.03.69,0l.22.04.18.05c.15.06.26.13.35.2.71.55,1.1,1.14,1.54,1.71.41.56.77,1.11,1.09,1.63.65,1.02,1.11,1.91,1.45,2.53.33.62.5.99.5.99Z"/>
  <path class="cls-4" d="m211.25,137.73s-5.99,2.99-7.25,9.5"/>
  <path class="cls-4" d="m213.9,139.42s-3.67,5.79-8.05,8.51"/>
</svg>