<?xml version="1.0" encoding="UTF-8"?>
<svg id="Lager_1" data-name="Lager 1" xmlns="http://www.w3.org/2000/svg" xmlns:xlink="http://www.w3.org/1999/xlink" viewBox="0 0 300.38 240">
  <defs>
    <style>
      .cls-1 {
        stroke-width: 3px;
      }

      .cls-1, .cls-2, .cls-3, .cls-4 {
        fill: none;
        stroke: #000;
      }

      .cls-5 {
        fill: #fff;
      }

      .cls-2, .cls-3, .cls-4 {
        stroke-linecap: round;
      }

      .cls-3 {
        stroke-width: .5px;
      }

      .cls-4 {
        stroke-width: 2px;
      }

      .cls-6 {
        fill: url(#linear-gradient);
      }
    </style>
    <linearGradient id="linear-gradient" x1="260.83" y1="950.99" x2="273.62" y2="932.01" gradientTransform="translate(286.47 -781.01) rotate(28.33)" gradientUnits="userSpaceOnUse">
      <stop offset="0" stop-color="#fff"/>
      <stop offset="1" stop-color="#ededed"/>
    </linearGradient>
  </defs>
  <rect class="cls-5" x="36.8" y="6.61" width="226.77" height="226.77"/>
  <g id="Färg">
    <polygon class="cls-6" points="72.82 210.93 106.35 187.9 131.14 174.61 115.67 169.6 103.8 156.95 98.34 144.65 100.47 129.61 47.52 153.57 72.82 210.93"/>
  </g>
  <path class="cls-3" d="m154.02,76.31s-5.57-4.9-4.38-10.5"/>
  <path class="cls-3" d="m156.21,74.56s-5.57-4.9-4.38-10.5"/>
  <path class="cls-3" d="m162.98,90.93s-6.07-5.34-4.77-11.45"/>
  <path class="cls-3" d="m167.15,113.73s-5.57-4.9-4.38-10.5"/>
  <path class="cls-3" d="m165.83,115.48s-5.57-4.9-4.38-10.5"/>
  <path class="cls-3" d="m174.28,132.11s-6.75-3.06-7.26-8.77"/>
  <path class="cls-3" d="m160.14,92.06s-5.57-4.9-4.38-10.5"/>
  <path d="m180.43,46.95c-.92.65-1.85,1.27-2.75,1.94-.91.64-1.81,1.31-2.62,2.04-.38.36-.82.77-.97,1.11-.1.21.06.83.23,1.3.35,1.01.87,1.99,1.39,2.95.53.95,1.13,1.91,1.79,2.7.54.71,1.72.68,2.75.55,2.13-.37,4.13-1.46,5.97-2.74-1.6,1.56-3.54,2.89-5.83,3.45-.57.13-1.17.21-1.79.17-.31-.02-.63-.09-.94-.22-.32-.13-.63-.37-.83-.58-.83-.88-1.41-1.85-1.99-2.84-.56-.99-1.06-2.02-1.44-3.13-.09-.28-.17-.57-.22-.88-.04-.31-.11-.66.09-1.09.37-.66.82-.98,1.28-1.35,1.85-1.38,3.82-2.44,5.88-3.37Z"/>
  <path d="m195.42,77.79c-.91.67-1.83,1.3-2.72,1.98-.9.65-1.79,1.33-2.59,2.07-.38.36-.8.78-.96,1.13-.1.21.07.83.25,1.3.37,1,.89,1.98,1.44,2.93.54.94,1.15,1.89,1.83,2.68.55.7,1.73.66,2.76.51,2.12-.4,4.11-1.52,5.93-2.82-1.58,1.58-3.5,2.94-5.78,3.53-.57.14-1.16.23-1.78.19-.31-.02-.63-.08-.95-.2-.32-.12-.63-.36-.83-.57-.85-.87-1.43-1.83-2.03-2.81-.58-.99-1.09-2.01-1.48-3.11-.1-.28-.18-.57-.23-.88-.04-.3-.12-.66.07-1.09.36-.66.81-.99,1.26-1.37,1.82-1.4,3.78-2.49,5.82-3.46Z"/>
  <path d="m193.01,103.83c-.9.66-1.82,1.29-2.69,1.97-.9.65-1.78,1.32-2.58,2.06-.38.36-.8.77-.98,1.12-.13.2.04.8.2,1.26.35,1,.87,1.97,1.41,2.92.54.94,1.14,1.89,1.82,2.65.55.66,1.73.61,2.75.45,2.1-.42,4.07-1.54,5.88-2.83-1.57,1.57-3.47,2.92-5.72,3.53-.56.14-1.15.25-1.76.22-.31-.02-.62-.05-.94-.18-.32-.1-.65-.34-.85-.55-.85-.86-1.43-1.82-2.02-2.79-.57-.98-1.07-2-1.46-3.1-.09-.28-.17-.57-.22-.88-.04-.29-.09-.71.13-1.09.37-.62.81-.96,1.26-1.32,1.81-1.39,3.76-2.47,5.78-3.43Z"/>
  <path d="m194.33,58.43c-1.03.74-2.07,1.44-3.08,2.2-1.03.72-2.04,1.47-2.99,2.27-.46.41-.94.81-1.29,1.25-.09.11-.16.22-.2.31-.03.07-.05.15-.05.27,0,.24.05.52.12.8.29,1.14.85,2.28,1.41,3.37.58,1.07,1.24,2.2,2.01,2.99.31.32.9.4,1.47.39.58,0,1.19-.1,1.78-.25,2.37-.62,4.59-1.9,6.65-3.35-1.84,1.73-3.97,3.22-6.45,4.03-.62.2-1.26.35-1.94.39-.66.03-1.45,0-2.1-.55-1.04-.97-1.64-2.08-2.29-3.2-.61-1.13-1.14-2.31-1.47-3.61-.08-.33-.13-.67-.11-1.07,0-.19.06-.43.16-.64.1-.18.21-.33.33-.47.46-.53.97-.92,1.49-1.31,2.08-1.5,4.28-2.74,6.56-3.84Z"/>
  <path class="cls-4" d="m142.86,56.61c2.33-4.08,6.91-7.37,8.97-7.37,4.08,0,5.84,4.38,4.96,8.46"/>
  <path class="cls-4" d="m141.62,55.66s-8.75,2.92-9.92,7.88-3.79,18.38-3.79,18.38"/>
  <path class="cls-4" d="m126.15,84.26c-5.84,4.08-5.29,4.18-8.5,16.44s-2.59,22.37-15.43,27.62l-41.2,19.12"/>
  <path class="cls-4" d="m129.95,81.34c2.04-1.75,16.05-15.17,17.8-17.22s21.88-13.42,25.97-16.05,9.92-6.71,13.42-.88.29,11.38.29,11.38"/>
  <path class="cls-4" d="m140.74,94.18s15.46-16.92,16.63-17.8c1.17-.88,31.29-18.46,33.63-19.33s8.4-3.74,11.96,2.99c3.38,6.37.22,10.5-3.28,12.84"/>
  <path class="cls-4" d="m148.77,115.48c1.75-2.19,10.72-12.69,13.13-14.88,2.41-2.19,29.53-22.09,31.51-24.07,3.06-3.06,6.78-2.61,10.29,2.19,4.62,6.33-6.13,16.45-10.07,19.73s-5.78,4.62-5.78,4.62"/>
  <path class="cls-4" d="m156.21,133.64c2.63-3.06,7.66-10.28,8.75-12.04,1.09-1.75,18.16-12.91,19.48-14,1.31-1.09,6.57-5.03,8.1-5.47s5.69,0,8.1,5.25-1.31,8.32-7.44,13.79c-6.13,5.47-10.29,8.75-10.29,8.75"/>
  <path class="cls-4" d="m185.09,127.29s-8.75,13.13-10.94,17.29c-2.19,4.16-5.47,23.2-37.42,24.51"/>
  <line class="cls-4" x1="139.79" y1="168.22" x2="80.91" y2="206.6"/>
  <path class="cls-2" d="m144.55,98.6s-6.78.88-9.41,11.16"/>
  <path class="cls-2" d="m99.57,133.74s-7.92,20.49,21.42,37.71"/>
  <g>
    <path class="cls-1" d="m227.89,175.71c-8.96,12.33-23.11,20.28-39.03,20.28-16.92,0-31.85-8.99-40.66-22.65"/>
    <polygon points="234.8 162.59 217.24 176.76 227.11 176.54 232.19 185.01 234.8 162.59"/>
  </g>
</svg>