<?xml version="1.0" encoding="UTF-8"?>
<svg id="Lager_1" data-name="Lager 1" xmlns="http://www.w3.org/2000/svg" xmlns:xlink="http://www.w3.org/1999/xlink" viewBox="0 0 300.38 240">
  <defs>
    <style>
      .cls-1 {
        fill: #fff;
      }

      .cls-2 {
        stroke-width: .75px;
      }

      .cls-2, .cls-3, .cls-4 {
        fill: none;
        stroke: #000;
        stroke-linecap: round;
      }

      .cls-4 {
        stroke-width: 2px;
      }

      .cls-5 {
        fill: url(#linear-gradient);
      }
    </style>
    <linearGradient id="linear-gradient" x1="112.11" y1="1147.27" x2="120.43" y2="1134.93" gradientTransform="translate(0 -964.44)" gradientUnits="userSpaceOnUse">
      <stop offset="0" stop-color="#fff"/>
      <stop offset="1" stop-color="#ededed"/>
    </linearGradient>
  </defs>
  <rect class="cls-1" x="36.8" y="6.61" width="226.77" height="226.77"/>
  <g id="Färg">
    <polygon class="cls-5" points="137.99 202.91 151.02 178.89 158.41 166.08 146 164.22 129.66 156.08 119.62 147.14 112.23 138.02 82.33 168.55 137.99 202.91"/>
  </g>
  <path class="cls-4" d="m97.41,153.59s19.45-19.47,22.12-24.8c2.67-5.33,3.45-16.23,4.45-20.23s10.26-28.95,14.59-31.62,7.33-3.6,11.3-10.03c3.76-6.09,8.01-6,13.68-5.76,7.04.3,10.02,4.13,12.02,5.13"/>
  <path d="m184.81,69.61l-14.24-2.33,14.43.34c.55.01.99.47.98,1.03-.01.55-.47.99-1.03.98-.04,0-.1,0-.14-.01Z"/>
  <path d="m153.23,78.95s.35.15.97.41c.61.26,1.49.61,2.52,1.02.53.18,1.08.42,1.68.62.6.22,1.23.43,1.88.64.64.24,1.34.39,2.02.59.69.2,1.4.33,2.1.5.71.1,1.42.27,2.12.34.7.04,1.39.21,2.06.17.67-.01,1.33.07,1.94-.01.31-.02.61-.04.9-.06.3,0,.58-.04.84-.1.53-.1,1.04-.18,1.49-.24.44-.12.82-.22,1.13-.31.64-.17,1.02-.25,1.02-.25,0,0-.3.23-.86.61-.28.18-.62.43-1.03.66-.43.19-.92.42-1.47.63-.54.26-1.17.36-1.83.53-.66.19-1.37.23-2.11.29-.74.09-1.5.02-2.28,0-.78-.03-1.54-.2-2.32-.31-.76-.2-1.53-.35-2.25-.61-.73-.24-1.43-.51-2.09-.81-.67-.27-1.29-.61-1.87-.93-.59-.3-1.11-.66-1.6-.96-1.92-1.28-2.96-2.44-2.96-2.44Z"/>
  <path class="cls-4" d="m185.57,70.28s.67,3.67-1.33,5.33"/>
  <path class="cls-4" d="m143.23,109.95c2.67,2,5.67,5.33,8,5.33s7.33-2.67,10-1c0,0,10.17-3.52,13.83-.52,0,0,16.89-3.9,15.49,10.17"/>
  <path class="cls-4" d="m156.23,130.61s15.36,5.03,28.01-5.32"/>
  <path class="cls-4" d="m165.15,83.89s-3.25,18.06,1.75,26.39"/>
  <path d="m158.23,91.28s-.19,1.57-.83,3.81c-.32,1.12-.73,2.42-1.26,3.77-.51,1.36-1.14,2.78-1.84,4.17-.7,1.39-1.49,2.74-2.28,3.96-.81,1.22-1.64,2.31-2.41,3.2-.39.44-.77.82-1.11,1.16-.32.35-.66.61-.92.83-.53.44-.84.68-.84.68,0,0,.19-.35.53-.93.37-.57.81-1.43,1.39-2.4.26-.51.55-1.06.88-1.62.3-.58.61-1.2.96-1.81.64-1.27,1.33-2.62,2.02-3.97.69-1.36,1.37-2.71,2.02-3.99.65-1.27,1.25-2.47,1.81-3.48,1.07-2.04,1.89-3.38,1.89-3.38Z"/>
  <path d="m172.23,110.28c.5-2.47,1.23-4.88,1.97-7.27l1.19-3.56,1.28-3.53.09.89-.74-1.18c-.24-.4-.44-.83-.66-1.25-.11-.21-.19-.44-.28-.66-.09-.22-.19-.44-.27-.67-.13-.47-.3-.93-.36-1.43-.03-.25-.1-.49-.1-.75l-.03-.76.07-.78c.05-.26.1-.52.16-.78.16-.51.35-1.01.67-1.46.14-.23.32-.44.5-.64.2-.21.36-.37.67-.59l-.31,1.15c-.25-.55-.48-1.11-.68-1.69-.19-.58-.34-1.18-.44-1.79-.21-1.22-.21-2.5.14-3.71.33-1.21,1.01-2.31,1.88-3.14.87-.84,1.92-1.45,3.04-1.78-1,.59-1.85,1.37-2.51,2.25-.65.88-1.08,1.89-1.24,2.93-.14,1.04-.06,2.1.22,3.14.13.52.32,1.02.51,1.52.21.5.44.99.69,1.48l.3.57-.6.58s-.2.19-.3.31c-.1.13-.21.27-.29.42-.18.29-.29.63-.4.96l-.1.53-.03.55.03.56c0,.19.06.38.09.57.04.38.21.76.29,1.14.06.19.15.38.22.57.08.19.13.38.23.57l.28.56c.1.18.17.38.29.55l.65,1.08.28.46-.18.43-1.48,3.44-1.52,3.42c-1.04,2.27-2.11,4.53-3.22,6.79Z"/>
  <path class="cls-4" d="m186.72,77.78s7.4,3.41,8.85,9.17c1.19,4.71,2,28-.33,33.67"/>
  <path d="m183.57,128.61s-.97.74-2.5,1.62c-.76.45-1.66.94-2.64,1.44-.97.5-2.02,1.01-3.08,1.49-2.11.97-4.27,1.82-5.87,2.48-.41.16-.76.33-1.09.46-.33.14-.58.28-.82.39-.24.1-.37.24-.5.31-.12.08-.18.13-.18.13,0,0,.03-.07.09-.19.07-.11.14-.36.32-.55.17-.2.37-.48.65-.72.27-.24.57-.56.94-.82.36-.27.74-.59,1.18-.86.43-.28.88-.59,1.37-.86.49-.27.98-.58,1.5-.83.52-.27,1.05-.52,1.59-.77,1.07-.49,2.17-.92,3.21-1.29,1.04-.37,2.03-.67,2.89-.89,1.72-.45,2.93-.57,2.93-.57Z"/>
  <path class="cls-4" d="m198.9,87.61s5.67-1,7,9.67c1.33,10.67,1,15.33,1,22s-.67,6.67-1.33,8.67-24.67,15-24.67,15"/>
  <path class="cls-4" d="m208.57,100.28s4.33-2,6,5,3.33,13,2.67,18.33c-.67,5.33,0,7-10.33,17s-10.93,12.76-23.26,14.76"/>
  <path class="cls-4" d="m182.6,155.95l-20.37,5c-5,5-14.33,24.67-19.67,32.67"/>
  <path class="cls-4" d="m180.28,75.61c.25.12,4.88,2.48,4.88,2.48"/>
  <path d="m158.23,145.11s.97.63,2.48,1.35c.75.36,1.64.74,2.61,1.07.48.17.99.32,1.51.46.51.17,1.05.26,1.58.37.53.14,1.07.18,1.6.27.54.05,1.06.1,1.57.15.51.03,1.01.02,1.49.04.48.03.92-.03,1.34-.03.42-.03.81,0,1.15-.05.34-.03.64-.06.89-.08.5-.04.79-.04.79-.04,0,0-.26.12-.72.32-.24.09-.52.21-.85.33-.33.14-.72.22-1.14.32-.42.09-.88.24-1.38.28-.5.05-1.02.14-1.57.15-.55-.01-1.12.03-1.7-.04-.57-.08-1.16-.11-1.74-.24-.57-.13-1.15-.26-1.7-.45-.56-.16-1.08-.4-1.58-.62-.51-.21-.96-.49-1.4-.74-.43-.27-.83-.52-1.17-.79-1.4-1.05-2.06-2.03-2.06-2.03Z"/>
  <path d="m137.73,130.61s.15.25.44.67c.28.42.71,1,1.27,1.66.55.66,1.22,1.4,2,2.13.38.37.8.73,1.23,1.08.41.37.89.69,1.34,1.03.45.35.94.62,1.41.93.49.27.96.55,1.43.81.47.24.95.45,1.39.67.44.23.88.36,1.28.53.4.15.76.33,1.1.43.33.11.63.21.87.29.48.16.76.27.76.27,0,0-.29-.02-.8-.08-.25-.03-.57-.07-.92-.12-.36-.03-.75-.14-1.18-.24-.43-.12-.91-.19-1.38-.39-.47-.18-.99-.34-1.5-.57-.5-.25-1.03-.47-1.54-.77-.49-.32-1.02-.6-1.5-.95-.47-.36-.96-.71-1.39-1.11-.45-.37-.85-.79-1.23-1.2-.4-.39-.71-.84-1.03-1.22-.29-.42-.58-.8-.8-1.19-.48-.75-.76-1.43-.97-1.9-.2-.48-.27-.76-.27-.76Z"/>
  <path d="m150.63,142.78s.89.15,2.21.39c1.32.24,3.1.66,4.78,1.41.83.39,1.65.83,2.34,1.38.36.25.67.54.95.83.3.26.51.59.74.85.23.26.36.57.5.8.15.24.23.47.3.66.13.38.21.59.21.59,0,0-.14-.18-.38-.49-.11-.16-.25-.35-.44-.54-.19-.19-.36-.43-.62-.64-.25-.21-.49-.46-.8-.68-.29-.23-.61-.45-.96-.66-.33-.23-.71-.41-1.08-.63-.38-.2-.77-.39-1.17-.56-.79-.37-1.61-.67-2.39-.97-.78-.29-1.51-.56-2.14-.8-.63-.24-1.15-.47-1.51-.64-.35-.18-.54-.3-.54-.3Z"/>
  <path class="cls-3" d="m114.25,140.94s18.07,24.4,40.13,24.87"/>
  <path d="m174.77,67.38s-.42.03-1.14.08c-.73.05-1.77.13-2.99.31-.61.08-1.28.18-1.95.34-.34.08-.68.18-.99.32-.31.12-.61.36-.6.47-.04.07.16.37.44.58.24.2.65.46.96.66.65.4,1.39.73,2.13.94.75.2,1.52.24,2.28.17.76-.08,1.5-.3,2.28-.5.72-.18,1.4-.46,2.09-.69.68-.23,1.34-.43,1.96-.59.62-.15,1.19-.29,1.71-.33.52-.06.97-.05,1.34-.04.37.03.66.06.85.11.19.04.29.06.29.06,0,0-.42-.01-1.14.05-.36.05-.79.12-1.27.25-.48.13-1.02.29-1.6.5-1.17.41-2.41,1.09-3.99,1.6-.73.22-1.54.46-2.41.57-.87.11-1.79.04-2.65-.21-.86-.25-1.65-.63-2.38-1.13-.36-.26-.64-.44-1.02-.76-.17-.15-.33-.31-.47-.53-.13-.21-.27-.53-.18-.87.09-.34.32-.54.51-.67.2-.13.4-.22.59-.29.39-.14.76-.22,1.12-.28.73-.12,1.41-.18,2.04-.22,2.52-.08,4.18.11,4.18.11Z"/>
  <path d="m189.81,123.1s-.12.01-.32.07c-.21.04-.52.13-.92.19-.79.14-1.96.29-3.37.18-1.41-.09-3.06-.45-4.68-1.21-.39-.19-.78-.39-1.18-.59-.35-.15-.74-.29-1.12-.39-.77-.2-1.57-.19-2.24.09-.67.24-1.25.86-1.28,1.37-.01.23.03.33.23.45.43.21.72.29,1.14.42,1.59.48,3.17.78,4.5,1.04,1.34.25,2.47.43,3.26.52.4.04.71.07.92.08.21,0,.33,0,.33,0,0,0-.45.14-1.26.19-.81.06-1.97.07-3.35-.02-1.39-.09-2.99-.25-4.72-.64-.4-.09-.96-.26-1.33-.42-.31-.13-.6-.35-.8-.67-.2-.32-.28-.69-.26-1.02.13-1.33,1.1-2.16,2.09-2.58,1.03-.42,2.15-.37,3.12-.1.49.14.93.33,1.38.57.38.22.75.43,1.12.64.73.38,1.45.73,2.17.96.72.25,1.41.43,2.07.56,1.32.26,2.45.31,3.25.32.4,0,.72,0,.93,0,.22,0,.33,0,.33,0Z"/>
  <path class="cls-2" d="m189.71,124.43s-4.91.93-10.91.2"/>
</svg>