<?xml version="1.0" encoding="UTF-8"?>
<svg id="Lager_1" data-name="Lager 1" xmlns="http://www.w3.org/2000/svg" xmlns:xlink="http://www.w3.org/1999/xlink" viewBox="0 0 300.38 240">
  <defs>
    <style>
      .cls-1 {
        stroke-width: 3px;
      }

      .cls-1, .cls-2, .cls-3 {
        fill: none;
        stroke: #000;
      }

      .cls-4 {
        fill: #fff;
      }

      .cls-2, .cls-3 {
        stroke-linecap: round;
      }

      .cls-3 {
        stroke-width: 2px;
      }

      .cls-5 {
        fill: url(#linear-gradient);
      }
    </style>
    <linearGradient id="linear-gradient" x1="20.02" y1="869.34" x2="31.44" y2="841.77" gradientTransform="translate(445.82 -618.64) rotate(24.7)" gradientUnits="userSpaceOnUse">
      <stop offset="0" stop-color="#fff"/>
      <stop offset="1" stop-color="#ededed"/>
    </linearGradient>
  </defs>
  <rect class="cls-4" x="36.8" y="6.61" width="226.77" height="226.77"/>
  <path d="m214.83,67.53s0,.02-.02.06c0,0-.03.09-.04.17-.01.08-.01.19,0,.32.02.13.05.27.11.43.07.15.15.33.29.49.12.18.3.33.47.5.38.32.86.61,1.37.85.51.24,1.05.43,1.57.59.26.09.51.14.76.2.24.06.47.12.68.17.86.16,1.44.27,1.44.27,0,0-.59-.03-1.47-.07-.22-.02-.46-.05-.71-.08-.25-.03-.52-.04-.79-.1-.55-.09-1.13-.21-1.71-.39-.58-.18-1.15-.42-1.66-.74-.25-.17-.49-.34-.7-.56-.22-.19-.38-.44-.52-.66-.14-.23-.23-.47-.29-.69-.05-.22-.08-.42-.08-.6,0-.18,0-.3.03-.42.02-.1.03-.15.03-.15.07-.35.42-.58.77-.51s.58.42.51.77c0,.03-.01.06-.02.09v.03Z"/>
  <path d="m224.51,68.72s-.02.05-.02.04c0,0-.03.07-.03.13-.02.14,0,.37.15.65.08.14.18.29.33.44.14.15.32.29.51.44.21.13.41.29.65.39.24.12.48.25.74.34.26.1.51.22.77.29.26.08.52.16.77.24.51.13.99.25,1.4.34.83.16,1.39.26,1.39.26,0,0-.57-.02-1.42-.06-.43-.03-.92-.08-1.46-.14-.27-.04-.54-.09-.82-.13-.28-.04-.56-.12-.85-.18-.29-.06-.56-.16-.84-.25-.28-.08-.54-.22-.8-.34-.25-.14-.5-.28-.72-.46-.22-.17-.42-.37-.58-.58-.32-.42-.46-.91-.48-1.26-.01-.18,0-.31.03-.44.02-.1.04-.16.04-.16.08-.35.43-.57.78-.49s.57.43.49.78c0,.03-.01.05-.02.08l-.02.05Z"/>
  <polygon class="cls-5" points="126.55 195.57 153.34 160.77 130.9 153.67 115.74 135.93 118.27 134.79 101.25 145.6 77.88 160.83 126.55 195.57"/>
  <path class="cls-3" d="m87.6,154.02s32.45-20.52,34.85-22.92,15.25-55.83,16.11-58.78-2.54-9.47,6.96-13.22c0,0,32.06-10.94,34.95-12s34.03,6.22,36.33,9.22l9.55,5.36"/>
  <path d="m223.27,65.32s-1.71-.98-3.46-2.02c-.88-.52-1.94-1.15-3.16-1.88-.61-.36-1.25-.74-1.93-1.15-.64-.37-1.38-.71-2.16-1.03-.78-.32-1.62-.62-2.47-.85-.91-.21-1.85-.43-2.82-.65-1.95-.45-4.01-.92-6.14-1.41-4.26-.97-8.8-2.01-13.35-3.06-.59-.14-1.09-.25-1.65-.29-.56-.05-1.12-.06-1.68-.04-.56.02-1.12.07-1.67.16-.54.08-1.06.25-1.63.4-2.21.62-4.38,1.23-6.49,1.83-4.21,1.18-8.13,2.29-11.5,3.24-6.73,1.9-11.22,3.16-11.22,3.16,0,0,4.45-1.38,11.13-3.46,3.34-1.04,7.23-2.25,11.41-3.54,2.09-.65,4.24-1.32,6.43-2,.54-.16,1.11-.36,1.71-.47.59-.12,1.18-.18,1.78-.22.6-.04,1.2-.04,1.8,0,.6.03,1.25.15,1.79.26,4.57.92,9.14,1.84,13.42,2.7,2.14.43,4.21.85,6.18,1.24.99.2,1.95.4,2.88.58.98.23,1.86.53,2.71.85.84.32,1.64.66,2.39,1.07.7.39,1.36.76,1.99,1.11,1.24.69,2.32,1.3,3.21,1.8,1.78,1,3.5,1.95,3.5,1.95.48.27.65.88.38,1.36s-.88.65-1.36.38c0,0-.01-.01-.02-.01Z"/>
  <path d="m213.99,66.9s-3.49-.74-8.72-1.85c-2.62-.55-5.67-1.2-8.94-1.89-.82-.17-1.65-.35-2.49-.53-.87-.19-1.63-.34-2.49-.38-.85-.06-1.71-.05-2.57.01-.84.05-1.69.26-2.58.42-14,2.7-28.01,5.39-28.01,5.39,0,0,13.9-3.19,27.8-6.37l1.3-.3c.44-.1.92-.18,1.37-.24.91-.1,1.82-.14,2.73-.11.9,0,1.86.16,2.67.32.85.15,1.68.29,2.51.44,3.29.58,6.37,1.12,9,1.58,5.27.92,8.78,1.54,8.78,1.54.54.1.91.61.81,1.16-.1.54-.61.91-1.16.81,0,0-.02,0-.03,0Z"/>
  <path d="m223.98,67.17c-.07,2.03-.84,4.08-2.15,5.73-.33.41-.68.81-1.08,1.17-.39.36-.81.69-1.25.99-.44.31-.91.56-1.38.8-.48.24-.97.44-1.47.62-.51.15-1.01.33-1.53.43-.52.13-1.04.21-1.56.29-1.05.15-2.1.22-3.15.2-2.09-.03-4.17-.28-6.2-.69l1.08-.55c-.22.46-.42.74-.67,1.07-.24.31-.5.6-.78.87-.56.54-1.18,1-1.84,1.38-1.33.75-2.8,1.15-4.26,1.34-1.46.19-2.92.12-4.33-.07-1.42-.18-2.79-.53-4.13-.95l.65-.14c-.52.39-1.03.71-1.56,1.04-.53.32-1.07.61-1.62.89-1.1.54-2.23,1.03-3.42,1.37-1.18.34-2.4.58-3.63.59-1.23.03-2.46-.19-3.57-.65,1.17.29,2.37.31,3.53.15,1.16-.17,2.29-.49,3.37-.94,1.08-.45,2.13-.97,3.13-1.58.5-.3.99-.63,1.46-.96.47-.33.96-.69,1.38-1.04l.27-.22.39.09c1.31.29,2.63.5,3.94.61,1.31.11,2.62.07,3.88-.09.63-.09,1.25-.23,1.84-.42.6-.19,1.16-.44,1.69-.74.53-.3,1.03-.65,1.47-1.06.22-.2.42-.42.6-.65.17-.21.36-.5.44-.66l.35-.69.73.14c.97.19,1.94.4,2.91.55.49.09.98.12,1.46.19.49.06.98.07,1.47.11.98.04,1.96.05,2.92-.03.48-.04.97-.09,1.44-.18.48-.06.95-.19,1.41-.31.46-.13.93-.27,1.37-.45.45-.18.89-.37,1.3-.61.42-.23.83-.5,1.21-.79.39-.28.75-.61,1.1-.95.69-.69,1.26-1.5,1.74-2.37.46-.88.84-1.82,1.02-2.82Z"/>
  <path d="m178.06,81.6s.36.78.32,2.05c-.02.31-.03.66-.11,1.02-.06.36-.15.74-.29,1.11-.11.39-.3.75-.48,1.14-.22.35-.42.74-.68,1.08-.27.32-.51.68-.82.97-.29.29-.57.6-.89.83-.6.51-1.22.9-1.77,1.19-.53.32-1.04.48-1.36.62-.34.12-.53.19-.53.19,0,0,.16-.13.43-.37.27-.24.69-.51,1.14-.92.23-.2.47-.41.74-.62.24-.24.5-.48.77-.74.29-.24.49-.56.77-.83.28-.27.48-.6.72-.9.24-.3.43-.64.64-.96.16-.34.38-.65.51-.99.15-.33.28-.65.38-.97.11-.32.18-.62.26-.91.26-1.15.24-1.99.24-1.99Z"/>
  <path d="m176.26,87.3c.62.75,1.34,1.41,2.09,1.98.75.58,1.57,1.04,2.4,1.39,1.68.71,3.5.83,5.22.46l-.27.09c1.09-.59,2.19-1.12,3.3-1.64,1.1-.53,2.25-.99,3.4-1.43,1.15-.44,2.32-.86,3.54-1.18.6-.17,1.23-.3,1.86-.43l.96-.15,1.01-.08-.88.49c.24-.34.47-.62.71-.92.24-.29.48-.58.73-.86.49-.56,1.01-1.1,1.54-1.63,1.08-1.03,2.24-1.98,3.48-2.82,1.25-.82,2.57-1.54,3.98-2.03.7-.26,1.42-.45,2.14-.6.72-.15,1.46-.2,2.19-.23-1.41.39-2.72.96-3.95,1.65-1.22.71-2.38,1.51-3.44,2.43-1.07.9-2.07,1.89-2.99,2.94-.47.52-.92,1.05-1.35,1.6-.21.28-.43.55-.63.83-.2.28-.41.58-.57.83l-.27.43-.61.06-.8.08-.83.15c-.55.12-1.11.25-1.67.42-.56.15-1.11.35-1.68.52-.56.19-1.12.37-1.68.58-1.12.4-2.22.86-3.33,1.29-1.11.44-2.22.91-3.29,1.39l-.17.08h-.1c-1.05.13-2.13.1-3.17-.1-1.04-.21-2.03-.62-2.91-1.15-.89-.54-1.66-1.22-2.33-1.96-.66-.75-1.22-1.59-1.61-2.49Z"/>
  <path d="m227.44,77.26s.66.04,1.57.4c.45.18.98.43,1.49.78.53.33,1.02.79,1.47,1.29.19.28.42.53.58.83.17.29.32.58.42.89.12.3.2.59.23.89.05.29.09.56.06.81,0,.25-.02.48-.05.68-.04.2-.09.37-.13.5-.08.28-.13.43-.13.43,0,0-.02-.16-.07-.44-.01-.14-.03-.3-.05-.49-.04-.18-.09-.39-.14-.61-.03-.22-.13-.45-.21-.69-.07-.24-.19-.48-.32-.72-.1-.25-.28-.48-.43-.72-.14-.25-.35-.46-.52-.7-.2-.22-.39-.45-.6-.65-.22-.19-.41-.41-.64-.59-.42-.38-.86-.69-1.23-.98-.76-.54-1.3-.9-1.3-.9Z"/>
  <path class="cls-3" d="m132.91,185.15l34.64-41.33s19.77-3.83,28.62-31.14c0,0,13.14-19.92,36.21-28.22"/>
  <path class="cls-2" d="m117.19,139.01s15.87,20.15,33,20.57"/>
  <polyline class="cls-3" points="214.87 66.64 221.96 67.54 223.68 67.89"/>
  <line class="cls-3" x1="224.94" y1="65.57" x2="233.9" y2="69.16"/>
  <line class="cls-3" x1="226.37" y1="62.39" x2="234.9" y2="65.78"/>
  <path d="m233.97,69.49s-.05.35-.24.95c-.09.3-.23.65-.4,1.05-.19.39-.38.85-.68,1.3-.14.23-.29.47-.45.72-.18.23-.37.47-.56.72-.38.5-.86.96-1.36,1.44-.55.42-1.07.93-1.73,1.26-.32.18-.63.39-.97.54l-1.04.42c-.34.15-.7.25-1.07.32-.36.08-.73.16-1.08.24-.72.11-1.45.09-2.14.13-.69-.04-1.35-.15-1.96-.23-.62-.09-1.17-.31-1.68-.46-.52-.15-.98-.31-1.36-.53-.39-.19-.72-.37-.99-.52-.54-.3-.84-.48-.84-.48,0,0,.36.03.97.11.3.04.67.09,1.08.16.41.09.88.1,1.38.14.51.02,1.04.1,1.61.1.57-.03,1.16-.04,1.77-.05.6-.1,1.22-.17,1.83-.28.3-.08.61-.16.91-.24.31-.06.61-.15.9-.29l.89-.34c.29-.13.56-.29.84-.43.57-.26,1.07-.63,1.59-.95.46-.39.97-.7,1.38-1.1.43-.37.82-.74,1.17-1.1.36-.35.66-.71.95-1.01.26-.32.52-.59.7-.83.39-.47.59-.76.59-.76Z"/>
  <path d="m171.64,93.4s-.03.21-.09.59c-.07.38-.14.95-.22,1.67-.08.72-.16,1.59-.2,2.6-.05,1-.05,2.14-.07,3.38-.01,2.48.15,5.37.15,8.49,0,3.12-.18,6.46-.71,9.76-.27,1.65-.64,3.28-1.07,4.88-.46,1.58-.96,3.13-1.61,4.57-.3.73-.63,1.43-1.01,2.09-.34.68-.77,1.29-1.16,1.9-.38.62-.86,1.14-1.26,1.69-.42.53-.91.98-1.33,1.45-.92.87-1.82,1.59-2.71,2.1-.21.14-.42.27-.62.4-.21.11-.42.2-.62.3-.4.19-.76.36-1.09.52-.68.27-1.24.41-1.6.53-.37.12-.57.18-.57.18,0,0,.19-.08.55-.23.36-.16.89-.35,1.54-.66.31-.18.66-.37,1.04-.58.19-.11.39-.21.58-.33.19-.14.38-.28.58-.43.83-.56,1.65-1.33,2.51-2.19.39-.47.85-.92,1.23-1.45.37-.55.81-1.07,1.15-1.68.35-.61.74-1.21,1.04-1.88.16-.33.33-.66.49-1,.15-.35.29-.69.45-1.05.61-1.4,1.07-2.92,1.51-4.47.4-1.56.74-3.17.98-4.79.26-1.61.48-3.25.61-4.86.13-1.61.19-3.21.22-4.75.04-3.09.07-6,.16-8.49.05-1.25.14-2.39.26-3.39.11-1.01.24-1.88.38-2.6.12-.72.26-1.27.36-1.65.09-.38.14-.58.14-.58Z"/>
  <path d="m161.93,135.95s-.15.17-.47.42c-.32.25-.8.56-1.42.86-.62.31-1.38.58-2.21.8-.42.09-.85.22-1.3.27-.45.07-.9.14-1.36.18-.91.08-1.83.09-2.68.04-.85-.04-1.64-.14-2.31-.26-.67-.1-1.22-.26-1.61-.36-.38-.11-.6-.17-.6-.17,0,0,.23,0,.62-.03.39,0,.95-.01,1.63-.02.67-.01,1.45-.01,2.28-.05.42,0,.84-.04,1.27-.06.43,0,.87-.05,1.31-.1.88-.05,1.74-.19,2.56-.31.81-.15,1.56-.3,2.2-.48,1.28-.34,2.09-.75,2.09-.75Z"/>
  <line class="cls-2" x1="156.83" y1="67.99" x2="190.19" y2="61.68"/>
  <line class="cls-2" x1="150.8" y1="61.57" x2="182.86" y2="52.66"/>
  <g>
    <line class="cls-1" x1="120.24" y1="90.39" x2="80.25" y2="90.39"/>
    <polygon points="65.42 90.39 86.32 81.85 81.36 90.39 86.32 98.93 65.42 90.39"/>
  </g>
  <path class="cls-2" d="m234.47,65.54s.35,1.28-.73,3.22"/>
</svg>