<?xml version="1.0" encoding="UTF-8"?>
<svg id="Lager_1" data-name="Lager 1" xmlns="http://www.w3.org/2000/svg" xmlns:xlink="http://www.w3.org/1999/xlink" viewBox="0 0 300.38 240">
  <defs>
    <style>
      .cls-1 {
        stroke-width: 3px;
      }

      .cls-1, .cls-2, .cls-3, .cls-4 {
        fill: none;
        stroke: #000;
      }

      .cls-5 {
        fill: #fff;
      }

      .cls-2, .cls-3, .cls-4 {
        stroke-linecap: round;
      }

      .cls-3 {
        stroke-width: 2px;
      }

      .cls-4 {
        stroke-width: 1.7px;
      }

      .cls-6 {
        fill: url(#linear-gradient);
      }
    </style>
    <linearGradient id="linear-gradient" x1="-5.35" y1="1231.83" x2="2.54" y2="1220.11" gradientTransform="translate(-132.62 -1023.52) rotate(-10.61)" gradientUnits="userSpaceOnUse">
      <stop offset="0" stop-color="#fff"/>
      <stop offset="1" stop-color="#ededed"/>
    </linearGradient>
  </defs>
  <rect class="cls-5" x="36.8" y="6.61" width="226.77" height="226.77"/>
  <g id="Färg">
    <polygon class="cls-6" points="114.89 202.73 118.79 175.59 119.98 160.52 111.12 160.84 97.18 157.84 85.19 151.19 83.09 146.84 60.14 180.72 114.89 202.73"/>
  </g>
  <path class="cls-3" d="m63.01,175.33s23.02-32.36,24.9-38.46,6.08-51.28,9.45-57.77"/>
  <path class="cls-3" d="m95.33,82.35s-1.32-14.21,5.48-15.61"/>
  <path class="cls-3" d="m100.73,65.17s1.18-5.41,9.38-5.94c2.7-.18,37.65-5.88,37.65-5.88,0,0,4.37-.41,8.29.28s32.94,8.4,32.94,8.4"/>
  <path class="cls-3" d="m116.8,189.44s3.59-37.99,5.42-40.99c1.83-3,19.85-11.15,24.34-28.16s11.7-22.45,16.81-26.66"/>
  <path d="m188.41,67.48l-32.75-8.75h-.04s-.04-.03-.04-.03c-.76-.29-1.61-.53-2.43-.7-.83-.17-1.68-.26-2.51-.26-.21,0-.42.01-.62.03l-.66.07-1.32.15-2.64.29-10.56,1.17-21.12,2.33,21.05-3,10.52-1.5,2.63-.38,1.32-.19.66-.09c.24-.03.47-.04.71-.06.94-.03,1.87.04,2.77.2.91.16,1.78.37,2.69.69l-.08-.03,33.01,7.72c.65.15,1.05.8.9,1.44s-.8,1.05-1.44.9c-.01,0-.03,0-.04,0Z"/>
  <path d="m181.02,73.97s-4.24-1.14-10.6-2.85c-3.18-.85-6.9-1.83-10.88-2.89-1.99-.51-4.05-1.04-6.14-1.58-.52-.13-1.04-.26-1.57-.38-.27-.07-.5-.11-.75-.16-.25-.05-.54-.08-.8-.12-1.07-.15-2.14-.27-3.22-.34-2.17-.16-4.34-.08-6.5-.05-2.16.05-4.29.09-6.35.13-4.12.1-7.96.19-11.25.27-6.59.17-10.98.28-10.98.28,0,0,4.39-.26,10.96-.66,3.29-.19,7.13-.42,11.24-.66,2.06-.12,4.18-.23,6.34-.35,2.15-.11,4.37-.26,6.6-.18,1.11.03,2.23.12,3.33.23.28.03.54.05.83.1.28.05.59.09.85.15.54.11,1.07.22,1.61.33,2.11.46,4.2.92,6.21,1.36,4.02.91,7.77,1.76,10.98,2.49,6.42,1.48,10.71,2.47,10.71,2.47.67.15,1.09.83.94,1.5-.15.67-.83,1.09-1.5.94-.01,0-.03,0-.05-.01Z"/>
  <line class="cls-2" x1="110.3" y1="65.52" x2="115.55" y2="66.29"/>
  <line class="cls-2" x1="110.92" y1="74.74" x2="116.17" y2="75.26"/>
  <line class="cls-3" x1="190.02" y1="62.9" x2="197.42" y2="64.33"/>
  <line class="cls-3" x1="189.85" y1="67.08" x2="199.44" y2="68.19"/>
  <line class="cls-4" x1="182.28" y1="73.29" x2="191.13" y2="74.36"/>
  <line class="cls-3" x1="166.95" y1="79.66" x2="175.81" y2="80.73"/>
  <path class="cls-2" d="m84.75,149.43s13.83,12.26,31.94,11.6"/>
  <path d="m122.72,98.32s.02.84.23,2.27c.19,1.44.68,3.45,1.2,5.9.51,2.44,1.12,5.29,1.64,8.37.25,1.54.51,3.13.78,4.75.12.81.25,1.64.38,2.46.1.82.2,1.65.3,2.47.13,1.67.19,3.38.1,5.03,0,.83-.16,1.65-.24,2.46-.11.81-.31,1.6-.47,2.38-.45,1.53-.98,2.99-1.77,4.23-.73,1.27-1.64,2.33-2.54,3.21-.92.87-1.85,1.58-2.72,2.11-.43.28-.84.52-1.23.73-.38.22-.74.41-1.07.56-.65.33-1.18.56-1.54.71-.36.16-.55.24-.55.24,0,0,.18-.1.52-.29.34-.18.84-.46,1.47-.83.32-.18.66-.39,1.02-.63.37-.23.76-.49,1.16-.8.41-.29.83-.62,1.25-.99.44-.35.85-.77,1.29-1.2.83-.89,1.67-1.93,2.31-3.18.7-1.21,1.14-2.63,1.56-4.08.14-.75.32-1.5.42-2.29.06-.79.2-1.57.19-2.38.07-1.62-.02-3.24-.16-4.88-.09-.83-.18-1.65-.27-2.48-.11-.81-.23-1.62-.34-2.43-.24-1.62-.48-3.21-.71-4.75-.48-3.07-.91-5.95-1.34-8.4-.42-2.46-.72-4.52-.84-5.98-.06-.73-.06-1.31-.05-1.69,0-.39.01-.6.01-.6Z"/>
  <path d="m167.03,79.74s-3.3-.83-8.25-2.07c-2.47-.62-5.36-1.35-8.46-2.12-1.55-.39-3.15-.79-4.77-1.2-1.56-.39-3.26-.62-4.91-.79-1.63-.18-3.33-.01-5,.05-1.67.1-3.31.2-4.9.29-3.18.22-6.15.42-8.7.59-5.09.37-8.48.62-8.48.62,0,0,3.38-.39,8.45-.98,2.54-.28,5.5-.61,8.67-.96,1.59-.16,3.23-.33,4.9-.5,1.67-.13,3.37-.38,5.14-.27,1.74.1,3.43.25,5.14.6,1.64.34,3.25.67,4.82.99,3.12.64,6.04,1.25,8.54,1.76,5,1.03,8.33,1.72,8.33,1.72.62.13,1.02.74.89,1.36-.13.62-.74,1.02-1.36.89-.01,0-.03,0-.05,0Z"/>
  <path d="m122.01,93c1.42.31,2.86.43,4.29.42,1.43-.01,2.84-.19,4.19-.54,1.36-.34,2.64-.9,3.81-1.61,1.18-.71,2.21-1.62,3.12-2.65l.41-.47.61.31c.31.15.67.33,1.01.48.35.16.71.3,1.06.44.72.28,1.44.52,2.18.73,1.47.42,2.97.73,4.48.86,1.5.13,3.01.07,4.46-.21,1.46-.27,2.84-.8,4.11-1.54l.4-.23.43.15c.43.15.95.29,1.43.41.49.12.99.24,1.49.34,1,.2,2.01.33,3.02.4,2.02.12,4.07.01,6-.57.48-.14.95-.31,1.42-.5.45-.21.91-.42,1.34-.68.44-.24.85-.55,1.24-.86l.59-.48.54-.53c.36-.36.69-.76,1-1.17.3-.42.61-.83.86-1.29.29-.44.49-.92.74-1.38.23-.47.41-.97.63-1.45-.24,1.03-.51,2.07-.95,3.05-.2.5-.45.98-.73,1.45-.28.46-.58.92-.92,1.35-1.34,1.74-3.24,3.07-5.32,3.83-.52.19-1.05.36-1.59.48-.54.14-1.08.23-1.63.32-1.09.16-2.2.22-3.29.18-1.1-.03-2.19-.14-3.27-.31-.54-.08-1.08-.19-1.61-.31-.54-.13-1.05-.26-1.62-.45l.82-.09c-1.46.89-3.07,1.53-4.74,1.85-1.67.33-3.37.36-5.02.2-1.66-.17-3.28-.51-4.84-1.03-.78-.26-1.55-.55-2.3-.87-.38-.16-.75-.33-1.12-.51-.37-.18-.73-.36-1.11-.59l1.03-.16c-1.07,1.09-2.3,2.03-3.65,2.74-1.35.71-2.81,1.17-4.29,1.43-1.48.25-2.98.26-4.44.11-1.46-.17-2.91-.49-4.26-1.03Z"/>
  <path d="m125.55,93.95s.33.47.46,1.32c.04.21.06.44.07.68,0,.24.01.51-.04.77-.03.27-.08.54-.16.81-.06.28-.19.54-.29.81-.13.26-.27.51-.41.75-.16.23-.33.45-.5.66-.36.39-.72.73-1.08.96-.33.26-.66.39-.88.5-.22.1-.35.15-.35.15,0,0,.08-.12.23-.31.14-.19.37-.43.6-.76.12-.15.25-.32.38-.5.12-.19.25-.38.39-.57.24-.41.5-.83.7-1.29.09-.23.21-.45.28-.69.08-.23.17-.46.22-.69.13-.45.21-.89.26-1.28.11-.77.11-1.33.11-1.33Z"/>
  <path d="m128.05,129.28s.1.34.19.96c.05.31.08.68.12,1.11.02.43.06.92.03,1.46-.01.54-.04,1.12-.13,1.73-.05.62-.22,1.25-.36,1.91-.21.64-.36,1.33-.67,1.98-.15.33-.29.65-.44.98-.15.33-.36.63-.54.95-.35.64-.82,1.2-1.26,1.76l-.33.42-.39.36c-.25.24-.51.48-.75.71-.48.48-1.07.79-1.57,1.16-.49.38-1.05.59-1.52.84-.49.23-.91.47-1.34.58-.41.13-.77.24-1.07.33-.59.18-.93.27-.93.27,0,0,.31-.17.86-.45.27-.14.61-.3.99-.49.39-.16.77-.48,1.21-.74.43-.29.93-.54,1.37-.95.44-.39.97-.73,1.4-1.2.42-.48.94-.9,1.32-1.45.41-.53.84-1.05,1.15-1.66.17-.29.37-.57.52-.88.14-.31.29-.61.43-.91.29-.6.48-1.24.71-1.84.15-.62.37-1.21.47-1.79.13-.58.22-1.13.3-1.65.14-1.03.22-1.9.22-2.51.02-.61,0-.97,0-.97Z"/>
  <path d="m191.55,74.11s.08.34.11.95c.02.31,0,.68,0,1.11-.05.42-.07.92-.21,1.43-.09.53-.28,1.08-.5,1.67-.11.29-.27.57-.41.87-.13.3-.31.59-.52.86-.21.28-.39.58-.62.85-.25.26-.5.51-.76.77-.25.27-.57.46-.87.68-.31.2-.59.45-.93.61l-1.01.45-.5.22-.52.14c-.69.18-1.37.38-2.04.4-.67.05-1.32.13-1.92.09-.61-.04-1.18-.09-1.7-.15-.53-.02-.99-.16-1.41-.26-.41-.11-.77-.2-1.07-.27-.59-.16-.91-.26-.91-.26,0,0,.35-.02.96-.03.3,0,.66,0,1.08,0,.41,0,.88.03,1.39-.03.51-.04,1.05-.09,1.62-.11.57-.03,1.15-.2,1.76-.28.62-.05,1.2-.32,1.81-.47l.46-.13.43-.2.86-.41c.29-.13.53-.34.8-.5.26-.18.54-.32.75-.56.22-.21.46-.42.69-.62.22-.21.39-.46.59-.69.21-.22.37-.46.52-.71.15-.25.33-.47.46-.72.25-.5.51-.97.68-1.43.38-.92.6-1.74.74-2.32.15-.58.19-.93.19-.93Z"/>
  <path d="m199.97,67.86s.4.96.46,2.52c-.01.39.02.81-.05,1.26-.03.22-.06.46-.09.69-.05.24-.12.47-.18.71-.05.25-.15.48-.25.73-.1.24-.18.5-.33.73-.29.46-.56.94-.97,1.34-.36.43-.84.74-1.29,1.05-.45.32-.98.44-1.45.65-.49.13-.98.19-1.43.27-.45.05-.88,0-1.27,0-.19,0-.38-.02-.55-.03-.17-.03-.34-.07-.49-.1-.31-.06-.57-.14-.79-.19-.43-.11-.67-.19-.67-.19,0,0,.26-.05.69-.1.22-.03.48-.06.78-.09.3-.01.63-.08.98-.16.35-.09.74-.13,1.12-.24.37-.13.77-.26,1.17-.41.36-.21.77-.38,1.11-.63.34-.26.71-.5.97-.85.33-.29.55-.67.8-1.03.2-.39.45-.76.59-1.17.16-.4.32-.79.42-1.19.13-.39.19-.77.29-1.12.06-.36.14-.68.18-.98.05-.3.09-.56.12-.77.06-.43.09-.69.09-.69Z"/>
  <path d="m198.64,64.12s.03.08.06.18c.03.1.06.25.09.42.05.34.06.8,0,1.23-.1.88-.48,1.63-.48,1.63,0,0,.13-.84-.02-1.62-.07-.39-.2-.76-.32-1.01-.06-.13-.12-.22-.16-.29-.04-.06-.05-.07-.06-.08-.13-.24-.03-.55.21-.67.24-.13.55-.03.67.21Z"/>
  <path d="m166.48,80.76s0,.02-.02.07c0,.02-.03.11-.04.2-.01.1,0,.21,0,.35.02.14.06.29.13.46.08.16.16.35.32.51.13.18.31.34.5.51.4.32.88.6,1.4.83.52.23,1.07.42,1.59.57.26.09.52.13.76.19.24.06.47.11.69.16.86.15,1.44.25,1.44.25,0,0-.59-.04-1.46-.09-.22-.03-.46-.06-.71-.09-.25-.04-.52-.05-.79-.11-.55-.1-1.13-.22-1.7-.41-.57-.19-1.13-.43-1.63-.75-.24-.17-.48-.34-.67-.55-.21-.19-.36-.43-.49-.64-.13-.22-.21-.45-.27-.66-.05-.21-.07-.4-.07-.56,0-.17,0-.28.03-.39.02-.09.03-.14.03-.14.06-.27.32-.44.59-.39.27.06.44.32.39.59,0,.02,0,.03-.01.05v.04Z"/>
  <path d="m181.52,75.9s0,.02-.02.06c0,0-.03.09-.04.17-.01.08-.01.19,0,.32.02.13.05.27.11.43.07.15.15.33.29.49.12.18.3.33.47.5.38.32.86.61,1.37.85.51.24,1.05.43,1.57.59.26.09.51.14.76.2.24.06.47.12.68.17.86.16,1.44.27,1.44.27,0,0-.59-.03-1.47-.07-.22-.02-.46-.05-.71-.07-.25-.03-.52-.04-.79-.1-.55-.09-1.13-.21-1.71-.39-.58-.18-1.15-.42-1.66-.74-.25-.18-.49-.34-.7-.56-.22-.19-.38-.44-.52-.66-.14-.23-.23-.47-.29-.69-.05-.22-.08-.43-.08-.6,0-.18,0-.3.03-.42.02-.1.03-.15.03-.15.07-.35.42-.58.77-.51s.58.42.51.77c0,.03-.01.06-.02.09v.03Z"/>
  <path d="m189.66,69.02s0,.02-.02.06c0,0-.03.09-.04.17-.01.08-.01.19,0,.32.02.13.05.27.11.43.07.15.15.33.29.49.12.18.3.33.47.5.38.32.86.61,1.37.85.51.24,1.05.43,1.57.59.26.09.51.14.76.2.24.06.47.12.68.17.86.16,1.44.27,1.44.27,0,0-.59-.03-1.47-.07-.22-.02-.46-.05-.71-.07-.25-.03-.52-.04-.79-.1-.55-.09-1.13-.21-1.71-.39-.58-.18-1.15-.42-1.66-.74-.25-.18-.49-.34-.7-.56-.22-.19-.38-.44-.52-.66-.14-.23-.23-.47-.29-.69-.05-.22-.08-.42-.08-.6,0-.18,0-.3.03-.42.02-.1.03-.15.03-.15.07-.35.42-.58.77-.51.35.07.58.42.51.77,0,.03-.01.06-.02.09v.03Z"/>
  <g>
    <path class="cls-1" d="m183.11,105.72c.91-12.93,11.2-23.56,24.51-24.53,14.6-1.07,27.29,9.9,28.36,24.5s-9.9,27.29-24.5,28.36c-9.37.68-17.95-3.59-23.18-10.6"/>
    <polygon points="183.12 109.54 199 125.58 189.22 124.27 183.23 132.11 183.12 109.54"/>
  </g>
  <line class="cls-3" x1="139.05" y1="92.95" x2="143.7" y2="91.35"/>
  <line class="cls-2" x1="113.47" y1="74.7" x2="138.88" y2="72.95"/>
  <line class="cls-2" x1="113.72" y1="66.11" x2="145.3" y2="64.97"/>
</svg>