<?xml version="1.0" encoding="UTF-8"?>
<svg id="Lager_1" data-name="Lager 1" xmlns="http://www.w3.org/2000/svg" xmlns:xlink="http://www.w3.org/1999/xlink" viewBox="0 0 300.38 240">
  <defs>
    <style>
      .cls-1 {
        stroke-width: 3px;
      }

      .cls-1, .cls-2, .cls-3, .cls-4 {
        fill: none;
        stroke: #000;
      }

      .cls-5 {
        fill: #fff;
      }

      .cls-2, .cls-3, .cls-4 {
        stroke-linecap: round;
      }

      .cls-3 {
        stroke-width: 2px;
      }

      .cls-4 {
        stroke-width: 1.7px;
      }

      .cls-6 {
        fill: url(#linear-gradient);
      }
    </style>
    <linearGradient id="linear-gradient" x1="41.72" y1="1220.42" x2="51.05" y2="1206.56" gradientTransform="translate(-107.03 -981.95) rotate(-8.82)" gradientUnits="userSpaceOnUse">
      <stop offset="0" stop-color="#fff"/>
      <stop offset="1" stop-color="#ededed"/>
    </linearGradient>
  </defs>
  <rect class="cls-5" x="36.8" y="6.61" width="226.77" height="226.77"/>
  <g id="Färg">
    <polygon class="cls-6" points="146.43 228.78 159.76 202.69 165.92 189.25 154.93 188.57 139.67 183.69 129.48 177.08 122.89 172.29 93.45 210.49 146.43 228.78"/>
  </g>
  <path class="cls-3" d="m100.77,203.74s27.6-33.71,28.22-42.48-9.85-47.59-10.47-55.84c-.52-6.92,3.21-12.58,7.86-15.52s16.87-23.46,21.15-26.69,33.49-.22,37.75,4.84c1.7,2.03,4.13,4.21,5.4,6.09"/>
  <path d="m135.1,75.52s.48-.95,1.39-2.59c.93-1.62,2.21-3.96,3.93-6.68.86-1.36,1.79-2.82,2.89-4.32.55-.75,1.12-1.51,1.81-2.28.18-.19.35-.38.57-.57.11-.1.2-.19.35-.28l.21-.14c.08-.05.2-.1.3-.14.08-.03.05-.03.21-.07l.09-.02.18-.03.37-.07.82-.09c2.08-.18,4.12-.24,6.25-.24,2.11,0,4.25.06,6.4.15,2.14.11,4.28.27,6.38.47,2.1.18,4.16.48,6.15.77.99.16,1.97.32,2.93.49.95.2,1.88.39,2.78.58.45.11.89.22,1.33.33.22.05.43.11.65.16.24.06.37.08.69.19.76.23,1.73.81,2.33,1.31,1.32,1.06,2.23,2.26,3.01,3.32.76,1.07,1.36,2.05,1.84,2.85.48.81.8,1.47,1.02,1.92.22.45.33.69.33.69,0,0-.58-.9-1.68-2.4-.55-.75-1.24-1.64-2.09-2.6-.86-.94-1.87-2-3.11-2.87-.32-.19-.64-.44-.95-.56-.28-.17-.69-.29-1.11-.41-.82-.15-1.67-.31-2.54-.47-1.79-.29-3.69-.55-5.66-.79-1.97-.23-4.01-.41-6.09-.59-2.08-.17-4.19-.31-6.31-.4-2.11-.12-4.23-.19-6.31-.22-2.07-.02-4.15-.06-6.06.05l-.66.05-.36.06-.18.03h-.09c.11,0,.02.02.04.01-.01,0-.01,0-.04.01l-.1.06c-.06.03-.14.11-.22.17-.16.12-.32.28-.48.43-.64.63-1.24,1.35-1.81,2.04-1.13,1.41-2.17,2.78-3.12,4.06-1.89,2.57-3.47,4.71-4.54,6.24-1.1,1.52-1.72,2.38-1.72,2.38Z"/>
  <line class="cls-3" x1="190.93" y1="74.5" x2="197.53" y2="81.34"/>
  <path class="cls-3" d="m130.87,98.24l3.83-3.89s12.51-19.09,13.47-20.15,21.99-5.53,23.73-5.69,8.2,3.94,8.2,3.94"/>
  <line class="cls-4" x1="179.71" y1="73.33" x2="187.26" y2="76.92"/>
  <path d="m151.98,99.36c1.12-.59,2.11-1.36,2.97-2.21.87-.85,1.58-1.83,2.13-2.86.55-1.04.9-2.16,1.1-3.29.1-.57.15-1.15.17-1.73.01-.58,0-1.16-.03-1.75l-.09-1.47,1.52.32c.24.05.57.11.86.15.3.04.6.07.9.1.6.05,1.21.06,1.81.06,1.2,0,2.38-.17,3.47-.5,1.08-.36,2.11-.83,2.94-1.55.43-.35.8-.76,1.13-1.2.17-.22.32-.46.47-.7.16-.23.27-.5.42-.74l.67-1.15,1.01.58c.25.14.57.31.87.45.31.14.62.28.94.41.63.25,1.28.46,1.93.66,1.31.38,2.65.54,3.97.46,1.31-.11,2.6-.54,3.68-1.37.28-.2.52-.44.78-.68.24-.25.49-.5.7-.79.44-.56.83-1.17,1.18-1.82-.19.7-.38,1.43-.73,2.1-.15.34-.35.67-.56.99-.21.32-.45.62-.71.91-.26.29-.55.55-.86.8-.32.24-.64.48-.99.65-.35.2-.72.35-1.09.49-.38.14-.76.24-1.15.33-1.57.34-3.16.24-4.69-.02-.77-.13-1.51-.34-2.24-.58-.37-.12-.73-.25-1.09-.4-.37-.15-.7-.29-1.1-.49l1.68-.57c-.16.33-.29.67-.47.99-.17.32-.37.64-.59.94-.43.61-.93,1.17-1.49,1.66-1.12,1-2.47,1.7-3.87,2.1-1.4.39-2.82.55-4.21.53-.7,0-1.39-.08-2.07-.18-.34-.05-.68-.11-1.02-.18-.35-.07-.66-.14-1.05-.25l1.43-1.14c0,.67-.02,1.35-.11,2.01-.09.67-.22,1.34-.4,1.99-.36,1.31-.95,2.56-1.74,3.64-.77,1.1-1.76,2.02-2.84,2.75-1.09.73-2.28,1.27-3.52,1.54Z"/>
  <path d="m156.79,96.85s.31.06.81.29c.24.13.55.28.85.52.32.22.65.52.98.88.16.18.32.38.5.58.15.21.29.45.44.68.29.47.55,1.01.75,1.59.17.58.4,1.18.46,1.81.04.31.11.63.13.95l.03.96c.03.64-.04,1.27-.12,1.89-.04.62-.21,1.21-.34,1.78-.24,1.15-.68,2.15-1.03,3-.16.43-.4.79-.57,1.12-.18.33-.35.61-.49.84-.28.46-.46.71-.46.71,0,0,.02-.31.09-.85.04-.26.07-.59.14-.95.05-.36.15-.76.2-1.21.05-.44.11-.92.2-1.42.1-.49.12-1.03.19-1.56.07-.54.13-1.09.14-1.65.02-.56.09-1.13.05-1.69v-.84c-.03-.28-.06-.55-.08-.82-.03-.55-.14-1.07-.23-1.58-.13-.49-.24-.99-.4-1.43-.08-.22-.17-.44-.25-.65-.1-.21-.19-.4-.28-.59-.2-.37-.39-.72-.59-1.01-.2-.29-.39-.54-.55-.74-.34-.4-.57-.61-.57-.61Z"/>
  <path d="m158.42,116.27s-.03.81.1,2.21c.13,1.39.42,3.38,1.19,5.6.38,1.1.95,2.27,1.49,3.55.55,1.28,1.13,2.63,1.66,4.06.53,1.43,1.07,2.91,1.53,4.45.46,1.54.89,3.12,1.24,4.72.33,1.6.6,3.23.78,4.84.18,1.61.22,3.21.18,4.77-.11,3.1-.73,6.01-1.78,8.28-1.01,2.29-2.38,3.9-3.43,4.87-.5.51-.98.82-1.28,1.05-.3.23-.46.35-.46.35,0,0,.14-.15.39-.43.25-.28.64-.67,1.05-1.24.86-1.09,1.92-2.79,2.65-5.01.39-1.1.63-2.35.85-3.67.18-1.33.24-2.74.25-4.21-.02-1.47-.17-2.99-.34-4.52-.19-1.54-.48-3.09-.81-4.64-.31-1.55-.71-3.09-1.14-4.6-.43-1.5-.86-2.99-1.33-4.41-.48-1.42-.94-2.8-1.39-4.1-.45-1.3-.92-2.55-1.2-3.77-.58-2.43-.58-4.5-.49-5.92.1-1.42.3-2.21.3-2.21Z"/>
  <path d="m159.81,109.32c1.58-.53,3.25-.76,4.93-.82.42-.03.84-.02,1.26,0,.42.02.85.03,1.27.09.85.07,1.68.26,2.53.45.41.12.83.25,1.24.39.42.12.8.33,1.21.5.4.17.8.36,1.17.6.37.23.76.45,1.11.73l1.02.86c.34.28.61.64.91.97.29.33.57.68.78,1.07l.69,1.13-1.03-.38c.22-.06.38-.1.56-.13.18-.03.35-.06.53-.08.35-.04.71-.06,1.06-.06.35,0,.7.03,1.05.08.35.06.69.12,1.02.23.34.08.66.23.97.36.31.17.62.31.89.51.29.18.54.41.79.63.25.22.45.5.66.74-.29-.16-.56-.33-.86-.46-.29-.14-.57-.27-.88-.36-.58-.22-1.19-.32-1.79-.38-.6-.06-1.2-.02-1.79.06-.29.04-.58.1-.87.17-.14.04-.28.08-.42.12-.13.04-.28.1-.37.14l-.56.26-.47-.64-.67-.92c-.2-.32-.47-.59-.74-.85-.28-.25-.49-.57-.8-.79l-.88-.7c-.3-.23-.65-.39-.96-.6-.31-.22-.65-.39-1-.55-.35-.16-.68-.36-1.05-.47l-1.08-.41-1.12-.34c-.37-.11-.76-.17-1.14-.28-.77-.19-1.55-.32-2.34-.44-.4-.07-.79-.12-1.2-.16-.4-.05-.8-.1-1.21-.13-.81-.07-1.63-.13-2.46-.16Z"/>
  <path class="cls-3" d="m150.27,224.24l24.75-54.81s19.29-13.53,20.76-39.58c0,0,12.6-19.07,12.51-23.7-.09-4.63-1.94-7.23-5.25-11.5"/>
  <line class="cls-3" x1="202.88" y1="95.82" x2="200.46" y2="85.34"/>
  <path d="m195.58,85.69c-.4.28-.74.63-1.06.97-.32.35-.6.74-.87,1.12-.54.77-.95,1.62-1.3,2.48-.18.43-.33.87-.46,1.32-.15.44-.26.89-.37,1.34-.11.45-.2.91-.27,1.37-.06.46-.15.92-.2,1.39-.06.46-.1.93-.13,1.4-.05.46-.03.94-.07,1.4-.03.94-.03,1.88.01,2.82.05.94.1,1.89.18,2.83.08.94.22,1.89.32,2.83l.08.72-.6.27c-.2.09-.47.23-.7.36-.24.13-.47.28-.71.43-.47.3-.91.63-1.35.97-.87.68-1.67,1.47-2.35,2.35-.69.87-1.26,1.85-1.69,2.89-.42,1.05-.69,2.18-.82,3.36-.18-1.16-.17-2.39.09-3.58.24-1.19.72-2.35,1.35-3.41.63-1.07,1.45-2.01,2.33-2.87.45-.43.93-.81,1.43-1.18.25-.18.5-.36.77-.53.27-.17.51-.33.84-.5l-.52.99c-.18-.97-.3-1.94-.42-2.93-.06-.49-.09-.98-.14-1.48-.05-.49-.05-.99-.07-1.48-.02-.99,0-1.99.04-2.98.08-1,.19-1.99.38-2.97.36-1.97.99-3.92,2.01-5.66.5-.88,1.11-1.69,1.82-2.4.71-.7,1.52-1.32,2.45-1.66Z"/>
  <path d="m184.31,83.04s.16.12.43.31c.26.19.64.46,1.07.75.43.29.94.58,1.47.87.54.27,1.11.54,1.7.71.29.13.6.15.89.26.3.07.61.1.9.17.31.04.6.07.88.1.29.04.56.03.83.06.53.06.98.03,1.31.06.33.02.54.05.54.05,0,0-.14.13-.42.33-.28.19-.67.5-1.22.69-.27.1-.57.25-.9.31-.33.06-.69.14-1.07.17-.38,0-.77.02-1.17-.04-.39-.08-.81-.12-1.19-.27-.39-.14-.77-.28-1.12-.5-.36-.18-.67-.43-.97-.66-.57-.5-1.02-1.03-1.31-1.55-.31-.5-.47-.97-.56-1.3-.09-.33-.09-.53-.09-.53Z"/>
  <path class="cls-2" d="m126.18,173.99s12.78,14.45,34.83,14.97"/>
  <path d="m200.3,85.48s-.02-.02-.12-.07c-.09-.05-.23-.11-.4-.17-.36-.12-.88-.22-1.41-.23-.54-.01-1.09.04-1.49.13-.41.08-.68.15-.68.15,0,0,.25-.13.63-.3.39-.17.93-.36,1.49-.48.57-.12,1.17-.15,1.63-.1.23.02.43.06.57.1.13.03.25.08.24.08.25.12.35.43.22.67-.12.25-.42.34-.67.22Z"/>
  <path d="m198.84,81.95s-.04.09-.11.24c-.07.14-.17.33-.31.54-.27.43-.68.96-1.13,1.43-.91.96-2.02,1.57-2.02,1.57,0,0,.92-.89,1.5-1.96.3-.53.53-1.08.66-1.5.07-.21.11-.38.13-.5.02-.11.03-.17.03-.17v-.02c.06-.36.4-.6.76-.54s.6.4.54.75c0,.06-.03.11-.05.17Z"/>
  <path d="m200.76,96.88s-.06,0-.17,0c-.14,0-.27-.02-.47-.06-.37-.07-.87-.25-1.38-.58-.26-.15-.5-.38-.75-.6-.22-.25-.47-.5-.65-.8-.21-.29-.38-.61-.54-.93-.18-.32-.27-.67-.41-1-.12-.34-.19-.69-.29-1.03-.09-.34-.13-.68-.19-1-.13-.65-.13-1.26-.2-1.78-.04-1.05-.04-1.74-.04-1.74,0,0,.1.69.28,1.71.13.5.22,1.1.43,1.71.1.3.18.62.31.93.13.31.25.62.4.92.17.29.3.6.49.85.18.26.36.52.57.73.19.23.41.4.61.57.22.14.41.29.62.37.39.18.74.26.96.26.1,0,.21,0,.23,0,.05,0,.08,0,.08,0h.04c.41-.05.79.24.84.66s-.25.79-.66.83c-.03,0-.07,0-.1,0Z"/>
  <path d="m180.08,74.02s0,.03,0,.09c0,.04,0,.13,0,.25.02.23.05.57.17.98.07.2.13.42.24.63.1.22.23.45.38.67.14.23.34.43.53.65.22.19.41.42.67.58.48.36,1.02.67,1.55.89.27.1.53.23.78.31.26.08.5.15.73.21.45.14.85.18,1.12.24.27.05.43.08.43.08,0,0-.16,0-.44-.02-.28-.02-.68,0-1.16-.07-.24-.03-.5-.07-.77-.11-.28-.04-.56-.13-.85-.19-.59-.15-1.21-.38-1.8-.71-.31-.14-.57-.36-.85-.55-.25-.22-.52-.43-.73-.68-.22-.24-.42-.49-.59-.74-.18-.25-.3-.51-.42-.75-.23-.49-.34-.93-.41-1.24-.03-.16-.05-.29-.06-.4,0-.09-.01-.14-.01-.14-.04-.41.27-.78.69-.81s.78.27.81.69c0,.04,0,.07,0,.11v.03Z"/>
  <path d="m190.22,77.06s-.01.03-.04.07c-.02.03-.05.11-.09.2-.07.2-.15.5-.19.88-.02.38,0,.83.13,1.31.08.23.15.49.27.72.12.24.24.49.4.71.14.24.31.46.5.67.17.22.36.42.56.6.2.18.37.38.57.52.2.15.38.3.55.43.35.26.66.44.87.59.21.14.34.22.34.22,0,0-.13-.06-.36-.17-.23-.11-.57-.25-.95-.47-.19-.11-.4-.23-.62-.36-.23-.12-.43-.29-.66-.45-.23-.15-.46-.34-.67-.54-.23-.19-.45-.4-.64-.64-.21-.22-.39-.48-.56-.73-.18-.25-.3-.54-.43-.8-.23-.55-.35-1.11-.39-1.61-.02-.5.02-.91.08-1.21.04-.15.06-.26.1-.36.03-.08.04-.12.04-.12.12-.34.49-.52.83-.4.34.12.52.49.4.83,0,.03-.02.05-.03.08v.03Z"/>
  <path d="m190.52,106.62l5.4,1.42-5.57-.44c-.28-.02-.48-.26-.46-.54s.26-.48.54-.46c.03,0,.06,0,.09.01Z"/>
  <path d="m168.94,151.67s.17,1.17,0,2.93c-.08.88-.27,1.9-.57,2.97-.16.53-.33,1.08-.55,1.62-.24.53-.45,1.09-.74,1.61-.28.53-.58,1.04-.92,1.52-.31.5-.69.94-1.06,1.36-.35.44-.75.8-1.13,1.14-.19.17-.37.34-.55.5-.2.14-.39.27-.57.4-.37.25-.69.49-1.01.66-.32.16-.6.3-.83.42-.46.23-.73.34-.73.34,0,0,.22-.19.62-.51.2-.15.44-.34.72-.56.27-.23.54-.52.86-.8.16-.15.32-.3.49-.45.15-.17.31-.35.47-.53.33-.36.67-.74.98-1.17.33-.41.65-.86.93-1.33.32-.46.59-.95.85-1.45.29-.48.5-1.01.74-1.51.21-.51.42-1.02.6-1.52.16-.51.35-.99.47-1.46.14-.47.26-.92.37-1.34.2-.84.37-1.54.44-2.04.09-.5.13-.79.13-.79Z"/>
  <g>
    <line class="cls-1" x1="191.41" y1="61.17" x2="191.41" y2="26.98"/>
    <polygon points="191.41 12.16 199.95 33.05 191.41 28.09 182.88 33.05 191.41 12.16"/>
  </g>
</svg>