<?xml version="1.0" encoding="utf-8"?>
<!-- Generator: Adobe Illustrator 25.3.1, SVG Export Plug-In . SVG Version: 6.00 Build 0)  -->
<svg version="1.1" id="Layer_1" xmlns="http://www.w3.org/2000/svg" xmlns:xlink="http://www.w3.org/1999/xlink" x="0px" y="0px"
	 viewBox="0 0 294.8 107.18" style="enable-background:new 0 0 294.8 107.18;" xml:space="preserve">
<path d="M122.52,68.39l-7.22-1.3c-3.79-0.65-5.37-2.87-5.37-5.09c0-3.05,2.68-5.92,7.77-5.92c4.72,0,7.4,2.41,8.6,6.38l10.73-2.96
	c-1.3-6.48-6.75-14.06-18.87-14.06c-11.47,0-20.08,7.31-20.08,17.3c0,8.14,5.74,14.06,14.71,15.73l7.31,1.39
	c3.61,0.65,5.83,2.87,5.83,5.46c0,3.24-2.87,5.55-7.96,5.55c-6.94,0-9.71-3.98-10.82-8.88l-11.01,2.68
	c1.11,7.4,7.22,16.84,21.56,16.84c13.51,0,20.35-8.6,20.35-17.12C138.06,76.44,132.23,70.15,122.52,68.39z M228.94,63.05
	c-2.28,3.14-2.54,7.08-1.05,10.33c3.56,0.41,7.22-1.04,9.5-4.19c2.28-3.14,2.54-7.08,1.05-10.33
	C234.89,58.46,231.23,59.91,228.94,63.05z M73.39,46.47H53.13v54.03h12.03V84.12h8.23c11.93,0,20.17-7.68,20.17-18.78
	C93.56,54.33,85.32,46.47,73.39,46.47z M73.11,73.67h-7.86V56.74h7.86c5,0,8.42,3.24,8.42,8.51C81.53,70.43,78.11,73.67,73.11,73.67
	z M229.82,45.86c-3.7-1.2-7.51-0.22-10.15,2.2c0.71,3.51,3.22,6.54,6.92,7.74c3.7,1.2,7.51,0.22,10.15-2.2
	C236.03,50.1,233.51,47.06,229.82,45.86z M32.04,68.39l-7.22-1.3c-3.79-0.65-5.37-2.87-5.37-5.09c0-3.05,2.68-5.92,7.77-5.92
	c4.72,0,7.4,2.41,8.6,6.38l10.73-2.96c-1.3-6.48-6.75-14.06-18.87-14.06c-11.47,0-20.08,7.31-20.08,17.3
	c0,8.05,5.74,14.06,14.71,15.73l7.31,1.39c3.61,0.65,5.83,2.87,5.83,5.46c0,3.24-2.87,5.55-7.96,5.55c-6.94,0-9.71-3.98-10.82-8.88
	L5.67,84.68c1.11,7.4,7.22,16.84,21.56,16.84c13.51,0,20.35-8.6,20.35-17.12C47.58,76.44,41.75,70.15,32.04,68.39z M172.47,76.72
	l-13.23-30.25h-15.63v54.03h11.29V64.32l12.58,30.16h9.81l12.49-30.53v36.54h11.75V46.47h-16.47L172.47,76.72z M241.21,5.67
	c-18.32,0-34.23,10.27-42.28,25.44l7.22,3.89c6.66-12.58,19.89-21.19,35.06-21.19c21.93,0,39.78,17.86,39.78,39.78
	s-17.86,39.69-39.78,39.69c-9.81,0-18.78-3.61-25.63-9.44l-5.25,6.22c8.42,7.12,19.13,11.45,30.88,11.45
	c26.46,0,47.92-21.46,47.92-47.92S267.67,5.67,241.21,5.67z M243.98,58.87c-1.49,3.25-1.24,7.19,1.05,10.33
	c2.28,3.14,5.95,4.6,9.5,4.19c1.49-3.25,1.24-7.19-1.05-10.33C251.2,59.91,247.53,58.46,243.98,58.87z M241.21,32.41
	c-3.12,1.76-5.23,5.09-5.23,8.97c0,3.89,2.11,7.22,5.23,8.97c3.12-1.76,5.23-5.09,5.23-8.97C246.44,37.49,244.33,34.16,241.21,32.41
	z M262.76,48.06c-2.64-2.42-6.45-3.4-10.15-2.2c-3.7,1.2-6.21,4.24-6.92,7.74c2.64,2.42,6.45,3.4,10.15,2.2
	C259.53,54.6,262.05,51.57,262.76,48.06z"/>
</svg>
