<svg xmlns="http://www.w3.org/2000/svg" viewBox="0 0 275.01 34.01"><defs><style>.cls-1{fill:#fff;}.cls-2{fill:#f18519;}</style></defs><g id="Layer_2" data-name="Layer 2"><g id="Logo_till_bård" data-name="Logo till bård"><path class="cls-1" d="M127.67,25h12.4l2-.05,2-.2,2.07.2h2l1.53-.1.5-.74.1-.79-.15-.74-1-.5-1.43-.1-.8.1L146,22,144.62,22h-9.54l-1.92-.05-1.93.1-1.14.1-.39-.1-1.34.15-1.63.2-.49,1.14.49,1.23Zm0-9.14h12.4l2,0,2-.2,2.07.2h2l1.53-.1.5-.74.1-.79-.15-.75-1-.49-1.43-.1-.8.1-.84,0-1.38-.05h-9.54l-1.92-.05-1.93.1-1.14.1-.39-.1-1.34.15-1.63.2-.49,1.13.49,1.24Z"/><path class="cls-2" d="M34.89.58l-1.46,0h-1l-1.7.15L30,.53l-.54.34-.19.49.1,1.12,0,1.12,0,1.06V5.78l-.15.73V9.09l-.05,1v8.36l-.14,1,.09.53-.14.73.09.88v2L29,24.78v1.9l.09,1.6.1,2.82v1.26l.39.83.78.24,1.46,0h6.8l1.07-.19.14-.63.1-.69-.15-.53.1-.63-.1-1.17.1-.92-.1-.58L39.84,27l-.05-1.36,0-1.51V19.34l.09-1.56-.05-1,.05-1.21L39.79,14l.05-1.37-.05-1,.1-1-.1-1.5.05-1.46,0-1.36,0-1.27,0-1.26,0-1.21V1.31L38.77.73,37,.68,35.71.53Zm161.36,0-1.46,0h-1l-1.7.15-.73-.15-.54.34-.19.49.1,1.12,0,1.12,0,1.06V5.78l-.15.73V9.09l-.05,1v8.36l-.14,1,.09.53-.14.73.09.88v2l-.09,1.26v1.9l.09,1.6.1,2.82v1.26l.39.83.78.24,1.46,0H200l1.07-.19.14-.63.1-.69-.15-.53.1-.63-.1-1.17.1-.92-.1-.58,0-1.07,0-1.36,0-1.51V19.34l.09-1.56,0-1,0-1.21,0-1.6,0-1.37,0-1,.1-1-.1-1.5,0-1.46.05-1.36L201.2,5l.05-1.26-.05-1.21V1.31L200.13.73l-1.79,0L197.07.53ZM7.09.29,5.3.39,3.94.34l-1,0L1.55.49h-1l-.34.68,0,1,0,1,0,1.55,0,2,0,1.94v2.82l0,.92v5.15l0,1.75,0,1.51,0,1.26,0,1.21v1L0,25.07.15,26v5.68l.34,1.41.92.19,2.23-.09H6.17l.88,0L8.16,33l1.32.1,1.06,0,1.32-.25h4.56l1.75,0h1l.49-.49.05-1.8-.44-1.31-.83-.1L17,29.25h-1.9l-1.85.05h-.92l-.92-.24-.05-1.17-.1-1.6-.09-1.8V11.61l.09-1.55,0-.78.1-.39-.14-1v-6L10.88.63,10.54.39,10,.34H9.23L8,.29Zm161.36,0-1.79.1-1.36,0-1,0-1.37.1h-1l-.34.68,0,1,0,1,0,1.55,0,2,0,1.94v2.82l0,.92v5.15l0,1.75,0,1.51,0,1.26,0,1.21v1l-.15.82.15.93v5.68l.34,1.41.92.19,2.23-.09h2.53l.88,0,1.11-.1,1.31.1,1.07,0,1.32-.25h4.56l1.75,0h1l.49-.49.05-1.8-.44-1.31-.83-.1-1.45.05h-1.9l-1.85.05h-.92l-.92-.24-.05-1.17-.1-1.6-.09-1.8V11.61l.09-1.55,0-.78.1-.39-.14-1v-6l-.3-1.31L171.9.39l-.53,0h-.78L169.33.29ZM61.56.29H57.43l-.78.05H54.22L53.06.49l-.39.43v.93l0,1.79v1.7l.14.69-.09,1.06L52.91,9,53,10l-.1,1.7,0,1.26V29.45l.05,1V32.8l.24.73,1.17.34,1.9.05h1.84l3.65-.2L63,33.48l.24-1.22V27l0-1.07.78-.44.78.63L67,28l4.33,3.88.73.64,1.41.72,3,.15,1.07-.15.24-.43L77.21,32,75.9,30.85l-1.56-1.16-1.51-1.31-1.55-1.32-.78-.63-1.31-1.26L67.88,24.1l-2.77-2.33L64.48,21l.53-.83.54-.73,1-1.45.53-.73.58-.73.54-.78.53-.73L70,13.51l.63-.83L71.77,11l6.65-8.75L79,1.21l-.1-.43L78.37.53H76.09L74.78,1l-1,1.12-.49.68-.49.73L68.36,9.62,67.25,11l-1.66,2.23L63.85,15.5l-.59.44V6.17l.05-1.55,0-1.22,0-1.6L63.31.53l-1-.29Zm161.36,0h-4.13L218,.34h-2.43l-1.16.15L214,.92v.93l.05,1.79v1.7l.14.69-.09,1.06L214.27,9l0,1-.1,1.7.05,1.26V29.45l0,1V32.8l.24.73,1.17.34,1.9.05h1.84l3.65-.2,1.21-.24.24-1.22V27l.05-1.07.78-.44.78.63,2.18,1.9,4.33,3.88.73.64,1.41.72,3,.15,1.07-.15.24-.43-.58-.83-1.31-1.17-1.56-1.16-1.51-1.31-1.55-1.32-.78-.63-1.31-1.26-1.31-1.07-2.77-2.33-.63-.73.53-.83.54-.73,1-1.45.53-.73.58-.73.54-.78.53-.73,1.22-1.55.63-.83L233.13,11l6.65-8.75.54-1.07-.1-.43-.49-.25h-2.28L236.14,1l-1,1.12-.49.68-.49.73-4.47,6.07L228.61,11,227,13.26l-1.74,2.24-.59.44V6.17l0-1.55.05-1.22.05-1.6-.1-1.27-1-.29Zm-130.21,24,.24-.93,1.17-3.5.24-.92.58-1.75.34-.92.29-.88.49-.72.49,1.06.72,1.56.59,1.41.39.82.63,1.61.68,1.65.39.87.43,1-.92.35-1,.09-3.79.05-1.46.05h-.68ZM98.15,0l-.63.78L97,1.94,96.4,3.35,95.77,5.2,94.7,8,94,9.91l-.29,1-.34,1-.29,1-.34,1-.64,1.6-.48,1.61-.34,1-.24,1-.34,1-.64,2-.39,1-.34,1-.58,1.8-.58,1.56-.63,1.7-.29.87-.3.83-.48,1.6-.15.92.34.3.83.09.78-.14,1-.1.58-1,.34-.83.58-1.6.34-.78.3-1,1-.2h.87l2.28,0h2.24l1.51-.15h1.11l1.32.39.53,1.36.78,1.89.34.88.48,1.12,1.12.39h1.8l1,.09,1.21-.19,1.41.19.73-.19,1.26,0,.88-.1.34-.48v-.93l-.73-1.55-.39-1-.68-1.17-.24-1.07-.78-1.5-.73-1.56-.34-.78L109,21.87l-.43-.93-.68-1.46L107.38,18l-.44-.88-.72-1.55-.59-1.51-.73-1.65-.39-.92-.92-1.75-.44-.93L102.23,7l-.44-1-.43-1-.83-2L99.8,1.51,99.12.24ZM254.07,24.25l.24-.93,1.17-3.5.24-.92.58-1.75.34-.92.29-.88.49-.72.49,1.06.72,1.56.59,1.41.39.82.63,1.61.68,1.65.39.87.43,1-.92.35-1,.09-3.79.05-1.46.05h-.68ZM259.51,0l-.63.78-.49,1.16-.63,1.41-.63,1.85L256.06,8l-.68,1.89-.29,1-.34,1-.29,1-.34,1-.64,1.6L253,17.06l-.34,1-.24,1-.34,1-.64,2-.39,1-.34,1-.58,1.8-.58,1.56-.63,1.7-.29.87-.3.83-.48,1.6-.15.92.34.3.83.09.78-.14,1-.1.58-1,.34-.83.58-1.6.34-.78.3-1,1-.2h.87l2.28,0h2.24l1.51-.15h1.11l1.31.39.54,1.36.78,1.89.34.88.48,1.12,1.12.39h1.8l1,.09,1.21-.19,1.41.19.73-.19,1.26,0,.88-.1.34-.48v-.93l-.73-1.55-.39-1-.68-1.17L273,27.45l-.78-1.5-.73-1.56-.34-.78-.73-1.74-.43-.93-.68-1.46L268.74,18l-.44-.88-.72-1.55L267,14.09l-.73-1.65-.39-.92L265,9.77l-.44-.93L263.59,7l-.44-1-.43-1-.83-2-.73-1.45L260.48.24Z"/></g></g></svg>