<?xml version="1.0" encoding="UTF-8"?>
<svg id="Layer_2" xmlns="http://www.w3.org/2000/svg" xmlns:xlink="http://www.w3.org/1999/xlink" viewBox="0 0 1153.01 232.31">
  <defs>
    <style>
      .cls-1 {
        fill: #fff;
      }

      .cls-2 {
        fill: #f18519;
      }

      .cls-3 {
        filter: url(#drop-shadow-1);
      }
    </style>
    <filter id="drop-shadow-1" filterUnits="userSpaceOnUse">
      <feOffset dx="7" dy="7"/>
      <feGaussianBlur result="blur" stdDeviation="5"/>
      <feFlood flood-color="#1d1d1b" flood-opacity=".65"/>
      <feComposite in2="blur" operator="in"/>
      <feComposite in="SourceGraphic"/>
    </filter>
  </defs>
  <g id="Lager_1">
    <g class="cls-3">
      <path class="cls-1" d="M526.29,103.05h51.13l8.15-.2,8.15-.81,8.56.81h8.15l6.31-.41,2.04-3.06.41-3.26-.61-3.06-4.07-2.04-5.91-.41-3.26.41-3.46-.2-5.7-.2h-39.32l-7.94-.2-7.94.41-4.69.41-1.63-.41-5.5.61-6.72.82-2.04,4.68,2.04,5.09,3.87,1.02ZM526.29,65.36h51.13l8.15-.2,8.15-.81,8.56.81h8.15l6.31-.41,2.04-3.06.41-3.26-.61-3.06-4.07-2.04-5.91-.41-3.26.41-3.46-.2-5.7-.2h-39.32l-7.94-.2-7.94.41-4.69.41-1.63-.41-5.5.61-6.72.81-2.04,4.69,2.04,5.09,3.87,1.02Z"/>
      <path class="cls-2" d="M146.27,2.44l-6.11-.2h-4.08l-7.13.61-3.06-.61-2.24,1.43-.82,2.04.41,4.68.2,4.69-.2,4.48v4.69l-.61,3.06v10.8l-.2,4.07v35.04l-.61,4.07.41,2.24-.61,3.06.41,3.67v8.35l-.41,5.3v7.95l.41,6.72.41,11.82v5.3l1.63,3.46,3.26,1.02,6.11-.2h28.52l4.48-.82.61-2.65.41-2.85-.61-2.24.41-2.65-.41-4.89.41-3.87-.41-2.44.2-4.48-.2-5.7-.2-6.31v-19.96l.41-6.52-.2-4.28.2-5.09-.2-6.72.2-5.7-.2-4.07.41-4.28-.41-6.32.2-6.11.2-5.7-.2-5.3.2-5.3-.2-5.09v-5.09l-4.48-2.44-7.54-.2-5.3-.61-3.46.2ZM822.79,2.44l-6.11-.2h-4.07l-7.13.61-3.06-.61-2.24,1.43-.82,2.04.41,4.68.2,4.69-.2,4.48v4.69l-.61,3.06v10.8l-.2,4.07v35.04l-.61,4.07.41,2.24-.61,3.06.41,3.67v8.35l-.41,5.3v7.95l.41,6.72.41,11.82v5.3l1.63,3.46,3.26,1.02,6.11-.2h28.52l4.48-.82.61-2.65.41-2.85-.61-2.24.41-2.65-.41-4.89.41-3.87-.41-2.44.2-4.48-.2-5.7-.2-6.31v-19.96l.41-6.52-.2-4.28.2-5.09-.2-6.72.2-5.7-.2-4.07.41-4.28-.41-6.32.2-6.11.2-5.7-.2-5.3.2-5.3-.2-5.09v-5.09l-4.48-2.44-7.54-.2-5.3-.61-3.46.2ZM29.74,1.22l-7.54.41-5.7-.2-4.28.2-5.7.41H2.44l-1.43,2.85-.2,4.28.2,4.28-.2,6.52.2,8.15-.2,8.15v11.82l-.2,3.87v21.59l.2,7.33-.2,6.32.2,5.3-.2,5.09v4.08l-.61,3.46.61,3.87v23.83l1.43,5.91,3.87.82,9.37-.41h10.59l3.67-.2,4.69-.41,5.5.41,4.48.2,5.5-1.02h19.15l7.33-.2h4.28l2.04-2.04.2-7.54-1.83-5.5-3.46-.41-6.11.2h-7.94l-7.74.2h-3.87l-3.87-1.02-.2-4.89-.41-6.72-.41-7.54v-53.98l.41-6.52-.2-3.26.41-1.63-.61-4.07V8.15l-1.22-5.5-1.43-1.02-2.24-.2h-3.26l-5.3-.2h-3.67ZM706.26,1.22l-7.54.41-5.7-.2-4.28.2-5.7.41h-4.07l-1.43,2.85-.2,4.28.2,4.28-.2,6.52.2,8.15-.2,8.15v11.82l-.2,3.87v21.59l.2,7.33-.2,6.32.2,5.3-.2,5.09v4.08l-.61,3.46.61,3.87v23.83l1.43,5.91,3.87.82,9.37-.41h10.59l3.67-.2,4.68-.41,5.5.41,4.48.2,5.5-1.02h19.15l7.33-.2h4.28l2.04-2.04.2-7.54-1.83-5.5-3.46-.41-6.11.2h-7.94l-7.74.2h-3.87l-3.87-1.02-.2-4.89-.41-6.72-.41-7.54v-53.98l.41-6.52-.2-3.26.41-1.63-.61-4.07V8.15l-1.22-5.5-1.43-1.02-2.24-.2h-3.26l-5.3-.2h-3.67ZM258.1,1.22h-17.32l-3.26.2h-10.19l-4.89.61-1.63,1.83v3.87l.2,7.54v7.13l.61,2.85-.41,4.48.61,8.15.2,4.07-.41,7.13.2,5.3v69.06l.2,4.07v9.98l1.02,3.06,4.89,1.43,7.94.2h7.74l15.28-.81,5.09-1.02,1.02-5.09v-22l.2-4.48,3.26-1.83,3.26,2.65,9.17,7.95,18.13,16.3,3.06,2.65,5.91,3.06,12.63.61,4.48-.61,1.02-1.83-2.45-3.46-5.5-4.89-6.52-4.89-6.31-5.5-6.52-5.5-3.26-2.65-5.5-5.3-5.5-4.48-11.61-9.78-2.65-3.06,2.24-3.46,2.24-3.06,4.28-6.11,2.24-3.06,2.44-3.06,2.24-3.26,2.24-3.06,5.09-6.52,2.65-3.46,4.89-6.93,27.91-36.67,2.24-4.48-.41-1.83-2.04-1.02h-9.57l-5.5,2.04-4.07,4.69-2.04,2.85-2.04,3.06-18.74,25.46-4.68,5.91-6.93,9.37-7.33,9.37-2.44,1.83V25.87l.2-6.52.2-5.09.2-6.72-.41-5.3-4.08-1.22-3.26.2ZM934.62,1.22h-17.32l-3.26.2h-10.18l-4.89.61-1.63,1.83v3.87l.2,7.54v7.13l.61,2.85-.41,4.48.61,8.15.2,4.07-.41,7.13.2,5.3v69.06l.2,4.07v9.98l1.02,3.06,4.89,1.43,7.94.2h7.74l15.28-.81,5.09-1.02,1.02-5.09v-22l.2-4.48,3.26-1.83,3.26,2.65,9.17,7.95,18.13,16.3,3.06,2.65,5.91,3.06,12.63.61,4.48-.61,1.02-1.83-2.45-3.46-5.5-4.89-6.52-4.89-6.32-5.5-6.52-5.5-3.26-2.65-5.5-5.3-5.5-4.48-11.61-9.78-2.65-3.06,2.24-3.46,2.24-3.06,4.28-6.11,2.24-3.06,2.44-3.06,2.24-3.26,2.24-3.06,5.09-6.52,2.65-3.46,4.89-6.93,27.91-36.67,2.24-4.48-.41-1.83-2.04-1.02h-9.57l-5.5,2.04-4.08,4.69-2.04,2.85-2.04,3.06-18.74,25.46-4.69,5.91-6.93,9.37-7.33,9.37-2.44,1.83V25.87l.2-6.52.2-5.09.2-6.72-.41-5.3-4.07-1.22-3.26.2ZM388.69,101.66l1.02-3.87,4.89-14.67,1.02-3.87,2.44-7.33,1.43-3.87,1.22-3.67,2.04-3.06,2.04,4.48,3.06,6.52,2.44,5.91,1.63,3.46,2.65,6.72,2.85,6.93,1.63,3.67,1.83,4.28-3.87,1.43-4.07.41-15.89.2-6.11.2h-2.85l.61-3.87ZM411.5,0l-2.65,3.26-2.04,4.89-2.65,5.91-2.65,7.74-4.48,11.82-2.85,7.94-1.22,4.07-1.43,4.28-1.22,4.07-1.43,4.08-2.65,6.72-2.04,6.72-1.43,4.07-1.02,4.08-1.43,4.07-2.65,8.35-1.63,4.28-1.43,4.28-2.44,7.54-2.45,6.52-2.65,7.13-1.22,3.67-1.22,3.46-2.04,6.72-.61,3.87,1.43,1.22,3.46.41,3.26-.61,4.07-.41,2.44-4.07,1.43-3.46,2.44-6.72,1.43-3.26,1.22-4.07,4.28-.81h3.67l9.57-.2h9.37l6.31-.61h4.69l5.5,1.63,2.24,5.7,3.26,7.94,1.43,3.67,2.04,4.68,4.69,1.63h7.54l4.28.41,5.09-.82,5.91.82,3.06-.82,5.3-.2,3.67-.41,1.43-2.04v-3.87l-3.06-6.52-1.63-4.28-2.85-4.89-1.02-4.48-3.26-6.32-3.06-6.52-1.43-3.26-3.06-7.33-1.83-3.87-2.85-6.11-2.24-6.11-1.83-3.67-3.06-6.52-2.44-6.32-3.06-6.93-1.63-3.87-3.87-7.33-1.83-3.87-3.87-7.74-1.83-4.28-1.83-4.07-3.46-8.56-3.06-6.11-2.85-5.3-4.08-1.02ZM1065.21,101.66l1.02-3.87,4.89-14.67,1.02-3.87,2.44-7.33,1.43-3.87,1.22-3.67,2.04-3.06,2.04,4.48,3.06,6.52,2.44,5.91,1.63,3.46,2.65,6.72,2.85,6.93,1.63,3.67,1.83,4.28-3.87,1.43-4.07.41-15.89.2-6.11.2h-2.85l.61-3.87ZM1088.02,0l-2.65,3.26-2.04,4.89-2.65,5.91-2.65,7.74-4.48,11.82-2.85,7.94-1.22,4.07-1.43,4.28-1.22,4.07-1.43,4.08-2.65,6.72-2.04,6.72-1.43,4.07-1.02,4.08-1.43,4.07-2.65,8.35-1.63,4.28-1.43,4.28-2.45,7.54-2.44,6.52-2.65,7.13-1.22,3.67-1.22,3.46-2.04,6.72-.61,3.87,1.43,1.22,3.46.41,3.26-.61,4.08-.41,2.44-4.07,1.43-3.46,2.44-6.72,1.43-3.26,1.22-4.07,4.28-.81h3.67l9.57-.2h9.37l6.32-.61h4.68l5.5,1.63,2.24,5.7,3.26,7.94,1.43,3.67,2.04,4.68,4.69,1.63h7.54l4.28.41,5.09-.82,5.91.82,3.06-.82,5.3-.2,3.67-.41,1.43-2.04v-3.87l-3.06-6.52-1.63-4.28-2.85-4.89-1.02-4.48-3.26-6.32-3.06-6.52-1.43-3.26-3.06-7.33-1.83-3.87-2.85-6.11-2.24-6.11-1.83-3.67-3.06-6.52-2.44-6.32-3.06-6.93-1.63-3.87-3.87-7.33-1.83-3.87-3.87-7.74-1.83-4.28-1.83-4.07-3.46-8.56-3.06-6.11-2.85-5.3-4.08-1.02Z"/>
      <path class="cls-2" d="M357.61,182.5l-.99.36-.5,1.75v4.09l-.4,3.21.3,2.05-.1,1.09v1.1l-.2,1.1-.1,2.19v1.53l-.1,1.61-.3,1.61.2,1.24-.2,2.05-.1,1.61v3.5l-.1,2.19v1.9l-.2,2.12v2.41l-.1,1.39v4.09l-.1,2.56-.1,1.39.5.51,2.28.29h3.48l2.28-.51.6-1.9v-15.99l.3-1.53.1-2.12v-7.3l.2-1.9.1-1.24.1-1.17.1-.73.99.36,1.69,1.83,1.19,1.24,2.78,2.48,2.68,2.56,1.19,1.1,2.58,2.19,1.99,1.46,1.39.29,1.69-1.1,1.19-1.17,1.09-1.1,2.28-2.26,1.09-1.17.99-1.17,2.19-2.34,1.19-1.24,1.09-1.17,1.29-.22.1,2.56v4.89l-.1,1.68.1,1.83-.3.95-.1,2.41v1.61l-.1,1.61-.2,2.7-.1,3v6.21l-.1,1.53.2,1.97,1.39.51,1.49.07,1.09.07,1.49-.22,1.39-.07,1.49-.51.2-1.61.1-1.53v-3.72l-.1-1.83.1-2.48v-3.07l.1-1.46v-15.04l.2-1.61v-1.53l-.1-1.61.1-.88v-1.39l.1-1.39.1-1.9v-2.48l.1-2.34-.89-1.75-1.69-.22h-.99l-1.79.44-1.39,1.46-1.89,1.9-3.38,3.65-4.57,4.89-1.09,1.24-4.37,4.82-1.49.58-1.49-1.31-1.99-1.97-2.38-2.34-2.48-2.41-2.48-2.56-1.19-1.24-3.48-3.5-3.28-3.21-2.28-.8-1.59.29ZM518.67,182.5l-.99.36-.5,1.75v4.09l-.4,3.21.3,2.05-.1,1.09v1.1l-.2,1.1-.1,2.19v1.53l-.1,1.61-.3,1.61.2,1.24-.2,2.05-.1,1.61v3.5l-.1,2.19v1.9l-.2,2.12v2.41l-.1,1.39v4.09l-.1,2.56-.1,1.39.5.51,2.28.29h3.47l2.28-.51.6-1.9v-15.99l.3-1.53.1-2.12v-7.3l.2-1.9.1-1.24.1-1.17.1-.73.99.36,1.69,1.83,1.19,1.24,2.78,2.48,2.68,2.56,1.19,1.1,2.58,2.19,1.99,1.46,1.39.29,1.69-1.1,1.19-1.17,1.09-1.1,2.28-2.26,1.09-1.17.99-1.17,2.18-2.34,1.19-1.24,1.09-1.17,1.29-.22.1,2.56v4.89l-.1,1.68.1,1.83-.3.95-.1,2.41v1.61l-.1,1.61-.2,2.7-.1,3v6.21l-.1,1.53.2,1.97,1.39.51,1.49.07,1.09.07,1.49-.22,1.39-.07,1.49-.51.2-1.61.1-1.53v-3.72l-.1-1.83.1-2.48v-3.07l.1-1.46v-15.04l.2-1.61v-1.53l-.1-1.61.1-.88v-1.39l.1-1.39.1-1.9v-2.48l.1-2.34-.89-1.75-1.69-.22h-.99l-1.79.44-1.39,1.46-1.89,1.9-3.38,3.65-4.57,4.89-1.09,1.24-4.37,4.82-1.49.58-1.49-1.31-1.99-1.97-2.38-2.34-2.48-2.41-2.48-2.56-1.19-1.24-3.48-3.5-3.28-3.21-2.28-.8-1.59.29ZM753.61,182.43l-1.89-.15-1.39.07-.89.15-.4,1.02.99,2.12.89,1.46,1.29,2.19,1.09,2.34,1.49,2.85.79,1.31.69,1.24.79,1.31,1.29,2.63,1.59,2.48,1.59,2.85.89,1.46.99,1.46,1.59,2.78.3,1.39-.2,1.68.1,1.61.1,2.48v7.81l-.4,1.46.4,1.53.6,1.61h1.69l1.79-.15,2.08.07,1.19-.36.69-1.46v-2.48l.1-1.83.2-.95-.1-1.17-.2-1.31.3-.73-.2-.59v-3.14l-.1-1.61.1-2.12.6-1.75.69-1.24,1.49-2.56.7-1.31,2.18-3.94.69-1.31,1.49-2.77.89-1.46,1.49-2.77.7-1.32.79-1.31,1.39-2.63.79-1.24,1.59-2.7.6-1.46-.1-1.61-1.69-.07-1.49.07-1.59-.15-1.69.07-.89.51-.79,1.1-.99,1.97-2.18,4.09-1.39,2.7-1.59,2.77-.69,1.39-1.49,2.56-.6,1.17-1.59,2.63-1.09,1.75-1.19-1.17-.79-1.31-.89-1.46-.79-1.53-.79-1.31-.79-1.39-.79-1.32-1.49-2.85-1.59-2.92-2.19-4.16-1.29-2.34-1.29-1.1-2.18.36ZM452.64,182.06l-2.68.29-.79,1.9.2,1.75-.1,1.1-.1,2.04v5.33l-.2,2.63-.2,1.39-.1,2.19.2,1.9-.2,2.41v18.7l-.1,2.85v2.77l1.09,1.83,2.78.36,1.69-.07,3.87-.29,2.58-.07,2.08.07,1.99-.15,1.99.07,2.28-.22h2.58l2.28-.44.6-1.97-.5-2.56-2.58-.58h-3.28l-3.48.07h-6.45l-1.39-.58v-8.03l-.1-2.12.4-2.05.1-2.19.1-1.68,2.18-.51h12.21l2.38-.29.5-1.39.1-2.34-.7-1.46-2.18-.36h-2.78l-2.68.15-1.69-.07-2.38.15h-4.47l-.5-1.75v-12.05l.99-.66,4.96-.15,1.49.15,1.99-.15h2.68l1.99.07,2.28-.22.79-1.9v-1.31l-.3-1.68-.79-.58h-1.79l-3.47.07h-2.28l-3.67-.15-2.98-.07-2.88-.22-3.57.07ZM697.01,206.97v-4.31l.1-2.48-.2-2.04.1-1.24v-3.07l.2-1.39v-1.31l.1-1.31-.2-1.1.2-.73,1.69.73,2.48,2.26.99,1.39.7,1.53.79,3.07.4,1.9-.2,1.83-.3,1.39-1.09,2.77-1.09,1.17-1.49,1.02-2.38,1.02-.79-1.1ZM692.54,181.77l-2.18.07-1.79,1.09.1,1.24-.1,1.1-.1,1.75.1,1.9.1,1.82-.2,2.19v7.96l.1,2.56v2.63l-.2,2.48-.4,1.75.2,1.32-.1,1.75.1,1.75-.1,1.83.1,1.68-.1,1.75.1,2.12.1,1.83-.1,1.53v1.83l.2,1.9.5,1.17,1.89.15,3.48-.29,2.58-.07.3-1.61-.1-2.48-.1-1.46v-9.35l1.59,1.02,2.68,2.34,1.19,1.17,1.29,1.1,2.48,2.26,2.38,2.41,1.29,1.17,2.68,2.56,3.38,1.39,1.99.07h1.39l1.39-.07.89.22.5-.36-.1-1.02-1.49-1.75-3.57-3.29-2.48-2.19-3.57-3.29-2.38-2.12-2.38-2.05-1.19-1.09.5-2.19,1.59-1.1,2.68-2.34.99-1.24.69-1.39.69-1.97.6-1.82.3-2.34-.1-2.63-.3-1.46-1.09-2.7-.6-1.17-1.19-2.48-.89-1.17-1.09-1.1-2.58-1.97-1.59-.95-1.59-.8-1.79-.73-2.98-.66-2.28-.15h-2.28ZM624.82,226.47l-3.67-1.39-3.28-2.48-1.19-1.46-1.29-2.85-.4-1.31-.3-1.32-.5-2.77v-2.85l.3-2.92.1-2.77.4-1.39v-2.04l.3-1.61.79-2.26.99-2.19.69-1.39,1.79-2.34,2.18-1.83,1.59-.66,3.87-.66,3.18.44,2.28,1.31,1.29,1.02,2.38,2.48.8,1.53.89,3.29.4,1.68.5,3.21.2,1.46.1,3.07-.1,1.61-.2,1.53-.2,1.61-.5,2.7-.6,2.78-1.59,2.7-.79,1.24-2.18,2.56-1.69,1.02-2.38,1.1-2.48.36-1.69-.22ZM623.13,181.99l-4.17,1.17-1.79.88-1.59,1.02-1.49,1.17-2.48,2.34-.89,1.17-.79,1.24-1.29,2.56-.6,1.39-.79,2.63-.3,1.24-.4,1.31-.4,2.56-.2,1.24-.4,2.7v4.16l.2,2.77.2,1.39.3,1.39.79,2.77.6,1.39,1.79,2.99,2.28,3.07,1.49,1.31,3.08,2.12,1.59.73,1.69.58,3.38.88,2.58.15h1.79l2.98-.22,1.89-.36,1.79-.58,1.69-.8,2.88-1.9,1.19-.95,2.08-2.26.89-1.17.79-1.24,1.39-2.48.5-1.24.79-2.7.59-2.77.2-1.39.2-1.31.1-2.85v-3.73l-.1-1.46-.1-1.53-.2-1.46-.3-1.83-.6-1.83-.6-1.53-1.09-2.92-.69-1.32-.8-1.31-.99-1.24-2.58-2.34-1.59-1.09-1.79-.88-1.89-.73-3.48-.73-3.18-.51-4.17.37Z"/>
    </g>
  </g>
</svg>