<?xml version="1.0" encoding="UTF-8"?><svg id="icon-settings" xmlns="http://www.w3.org/2000/svg" viewBox="0 0 157 93"><defs><style>.cls-1{fill:#1d1d1b;}</style></defs><path class="cls-1" d="M101.34,49.26c.11-.91,.16-1.82,.16-2.76,0-.99-.06-1.97-.18-2.92l-5.88-2.22-1-3.57,2.14-5.52c-1.13-1.44-2.35-2.67-3.79-3.8l-6.09,2.46-3.24-1.67-2.22-5.61c-.9-.11-1.81-.15-2.73-.15-1,0-1.98,.06-2.95,.19l-2.36,6.07-3.4,1.17-5.71-2.35c-1.56,1.26-2.95,2.71-4.14,4.33l2.55,5.43-1.23,3.23-5.58,2.04c-.12,.94-.18,1.9-.18,2.88,0,1.07,.07,2.13,.22,3.16l5.55,2.06,1.23,3.18-2.32,5.49c1.18,1.56,2.55,2.95,4.08,4.16l5.82-2.57,3.57,2.06,1.98,5.27c.95,.12,1.89,.18,2.88,.18,.9,0,1.8-.05,2.68-.15l2.66-6.13,2.84-1.23,6.26,2.42c1.38-1.11,2.63-2.39,3.73-3.79l-2.46-5.87,1.28-3.09,5.84-2.39Zm-22.84,3.83c-3.42,0-6.19-2.95-6.19-6.59s2.77-6.59,6.19-6.59,6.19,2.95,6.19,6.59-2.77,6.59-6.19,6.59Z"/></svg>