<?xml version="1.0" encoding="UTF-8"?>
<svg id="Lager_1" data-name="Lager 1" xmlns="http://www.w3.org/2000/svg" xmlns:xlink="http://www.w3.org/1999/xlink" viewBox="0 0 429.9 343.49">
  <defs>
    <style>
      .cls-1 {
        fill: url(#linear-gradient-2);
      }

      .cls-2 {
        fill: #fff;
      }

      .cls-3, .cls-4, .cls-5, .cls-6, .cls-7, .cls-8, .cls-9, .cls-10, .cls-11 {
        fill: none;
        stroke: #000;
      }

      .cls-3, .cls-4, .cls-6, .cls-7, .cls-8, .cls-9 {
        stroke-linecap: round;
      }

      .cls-4 {
        stroke-width: 1.4px;
      }

      .cls-5, .cls-8 {
        stroke-width: .5px;
      }

      .cls-6 {
        stroke-linejoin: bevel;
      }

      .cls-6, .cls-7 {
        stroke-width: 1.5px;
      }

      .cls-9, .cls-10 {
        stroke-width: 2px;
      }

      .cls-12 {
        fill: url(#linear-gradient-3);
      }

      .cls-13 {
        fill: url(#linear-gradient);
      }
    </style>
    <linearGradient id="linear-gradient" x1="-579.47" y1="1136.35" x2="-543.31" y2="1143.1" gradientTransform="translate(-429.29 -905.62) rotate(-54.42)" gradientUnits="userSpaceOnUse">
      <stop offset="0" stop-color="#fff"/>
      <stop offset="1" stop-color="#ededed"/>
    </linearGradient>
    <linearGradient id="linear-gradient-2" x1="491.98" y1="-335.25" x2="502.21" y2="-320.07" gradientTransform="translate(-109.03 -248.75) rotate(12.66) scale(1 -1)" gradientUnits="userSpaceOnUse">
      <stop offset="0" stop-color="#fff"/>
      <stop offset="1" stop-color="#ededed"/>
    </linearGradient>
    <linearGradient id="linear-gradient-3" x1="30.96" y1="1219.66" x2="40.22" y2="1197.32" gradientTransform="translate(0 -976.66)" gradientUnits="userSpaceOnUse">
      <stop offset="0" stop-color="#fff"/>
      <stop offset="1" stop-color="#ededed"/>
    </linearGradient>
  </defs>
  <rect class="cls-2" x="6" y="58.35" width="421" height="226.8"/>
  <g>
    <polygon class="cls-13" points="184.9 257.65 211.7 204.95 191 195.65 183.1 176.55 177.3 162.75 172.7 168.05 161.6 176.45 127.4 199.15 184.9 257.65"/>
    <path class="cls-9" d="m148.2,186.15s24.2-17.2,30.4-23"/>
    <path class="cls-9" d="m264.7,181.45c1.1-4.8.1-15.9-2.5-28s-9.8-33.6-16.4-33.7c-4.5,0-8.5,4.1-12.4,4.6-4.4.6-9.3-2.4-13.1-1.2-4.3,1.4-6.8,6.9-10.3,8.9-4,2.3-9.5,1.5-12.6,4.1-3.7,3.2-4.1,9.4-6.5,12.4-4.9,6.3-10.3,2.3-10.2,9.2.1,9.3,1.5,25.7,13.3,38.8,2.5,2.7,16.5,8.9,20.7,8.8,4.2-.1,7.6-3.2,7.6-3.2"/>
    <path class="cls-9" d="m196.6,158.95s8.4,20,11.6,25.4c3.2,5.3,11.7,13.8,13.9,15.2s11.5.9,12.5-.1"/>
    <path class="cls-9" d="m213.3,145.85s16.4,44.8,28,65.3"/>
    <path class="cls-9" d="m240.5,207.25s2.2,12.9,6.9,15.9c5.4,3.4,11.9.3,13-5.3s-1.1-14.8-4.1-18"/>
    <line class="cls-9" x1="236.3" y1="138.55" x2="259.2" y2="205.45"/>
    <path d="m267.4,181.95s-.7.7-1.8,1.9c-.5.6-1.2,1.2-1.8,1.9-.3.3-.6.7-1,1.1-.3.4-.7.7-1,1.1-.3.4-.6.8-1,1.1-.3.4-.6.8-.9,1.1-.3.4-.6.7-.9,1.1-.3.3-.5.7-.8,1-.2.3-.5.6-.7.8-.2.3-.4.5-.5.7-.3.4-.5.6-.5.6,0,0,0-.3.1-.8s.2-1.2.5-2c.1-.4.3-.8.5-1.2s.4-.9.7-1.3c.3-.4.5-.9.9-1.3.3-.4.6-.9,1-1.3.7-.8,1.5-1.6,2.3-2.2.4-.3.8-.6,1.2-.8.4-.2.8-.5,1.1-.6.7-.4,1.3-.6,1.8-.7.6-.1.8-.2.8-.2Z"/>
    <line class="cls-9" x1="210.8" y1="207.45" x2="188.6" y2="247.95"/>
    <path class="cls-9" d="m267.1,173.05s12.9,13.4,10.9,20.9c-1.7,6.5-8.9,10.5-8.9,10.5"/>
    <path class="cls-9" d="m268.8,204.05l-4.6,6.4s-.9,1.3-1.4,1.5-1.4-.8-1.4-.8"/>
    <path d="m263.1,210.35s.3-.3.7-.8c.5-.5,1.1-1.2,1.9-2,.4-.4.8-.9,1.2-1.4.2-.3.4-.5.6-.8s.3-.5.3-.8c0-.2-.1-.6-.2-.9-.1-.3-.3-.7-.4-1-.3-.7-.7-1.3-1.2-1.9-.9-1.2-2-2.2-3.2-2.8-.3-.2-.6-.3-.8-.3s-.5.1-.8.2c-.5.3-1,.7-1.4,1.1-1.7,1.5-3,2.4-3,2.4,0,0,.3-.3.7-.8.5-.5,1.1-1.2,1.9-2,.4-.4.9-.9,1.4-1.3.3-.2.6-.4,1.1-.4s.8.1,1.2.3c1.4.6,2.6,1.7,3.5,3,.5.6.9,1.3,1.3,2.1.2.4.3.7.5,1.1.1.4.2.8.2,1.3-.1.5-.3.9-.5,1.2s-.5.6-.7.8c-.5.5-.9.9-1.4,1.3-.9.8-1.6,1.3-2.2,1.7-.3.5-.7.7-.7.7Z"/>
    <path d="m257.1,214.05s.1,0,.3-.1c.2-.1.4-.3.4-.7-.1-.8-.7-1.8-1.5-2.9-.8-1.1-1.8-2.4-3.1-3.5-.1-.1-.3-.3-.4-.3-.1-.1-.1,0-.2-.1h-.3c-.4,0-.8.1-1.2.2-.8.2-1.6.6-2.3,1s-1.5,1-2.1,1.5c-.6.6-1.2,1.2-1.6,1.9-.1.2-.2.7-.2,1.1s0,.8.1,1.2c.1.8.3,1.5.5,2.2.4,1.4.8,2.5,1.1,3.2.3.8.5,1.2.5,1.2,0,0-.2-.4-.6-1.1-.4-.7-.9-1.8-1.4-3.1-.2-.7-.5-1.4-.7-2.2s-.4-1.7,0-2.8c.5-.9,1-1.6,1.7-2.2.7-.6,1.4-1.2,2.2-1.7s1.6-.9,2.5-1.1c.4-.1.9-.2,1.4-.2h.4c.1,0,.3.1.4.1.3.1.4.3.6.4.7.6,1.2,1.3,1.7,1.9.5.6.9,1.3,1.3,1.9.4.6.7,1.2.9,1.7.2.5.4,1.1.4,1.5,0,.2-.1.4-.2.6-.1.1-.3.2-.4.2-.1.2-.2.2-.2.2Z"/>
    <line class="cls-9" x1="237.8" y1="135.95" x2="236.5" y2="141.65"/>
    <path d="m248.1,220.05s.4-.6,1.2-1.4c.4-.4.9-.8,1.4-1.2s1.1-.8,1.7-1.2c.6-.4,1.2-.7,1.9-1,.6-.3,1.2-.5,1.7-.7.5-.1,1-.3,1.3-.3s.5-.1.5-.1l-.4.2c-.3.1-.7.4-1.1.6-.5.3-1,.6-1.5.9-.6.4-1.2.7-1.8,1.1-1.2.8-2.4,1.5-3.3,2.1-.9.6-1.6,1-1.6,1Z"/>
    <path class="cls-8" d="m229.5,175.05s2.4-4.5,10.5-6.5"/>
    <path class="cls-8" d="m230,177.55s7-2.8,10.7-7.4"/>
    <path class="cls-8" d="m248.2,166.45s5.7-.1,11.7-5.1"/>
    <path class="cls-8" d="m259.5,160.15s-5.7,0-11.8,4.9"/>
    <path class="cls-8" d="m214,187.25s5.7-.8,11.2-5.4"/>
    <path class="cls-8" d="m195.8,193.85s5.7-.8,11.2-5.4"/>
    <path class="cls-8" d="m213,186.85s3.2-4,10.8-6.7"/>
    <line class="cls-9" x1="194" y1="158.35" x2="197.7" y2="161.45"/>
  </g>
  <g>
    <g id="Färg">
      <polygon class="cls-1" points="311 209.05 328.3 175.25 328.2 171.15 322.5 168.15 316.6 162.45 313.2 153.05 315.6 134.15 281.9 165.35 311 209.05"/>
    </g>
    <path d="m417.2,206.45s-.2-.3-.5-.8-.8-1.2-1.4-2c-.3-.4-.6-.9-1-1.3-.2-.2-.4-.4-.6-.7-.2-.2-.4-.4-.5-.4s-.4,0-.7.1c-.3.1-.6.2-.8.3-.6.3-1.1.6-1.7.9-.6.3-1.1.7-1.6,1.1-.2.2-.5.4-.6.6-.2.2-.2.4-.3.7-.1.6,0,1.2.1,1.7.1.6.3,1.1.4,1.6.4,1,.7,1.7,1,2.2s.5.8.5.8c0,0-.1-.1-.2-.2-.1-.1-.3-.3-.5-.5-.4-.5-.9-1.2-1.4-2.1-.2-.5-.5-1-.6-1.6-.2-.6-.3-1.3-.2-2,0-.4.2-.8.4-1.2.2-.3.5-.5.8-.8.5-.4,1.1-.8,1.7-1.2s1.2-.7,1.8-.9c.3-.1.6-.3.9-.4.2,0,.3-.1.5-.1h.6c.5.2.6.5.9.7.2.3.4.5.5.8.3.5.6,1,.9,1.5,1.1,1.9,1.6,3.2,1.6,3.2Z"/>
    <path d="m402.4,208.55s-.2-.3-.5-.8-.8-1.2-1.3-2c-.3-.4-.6-.8-.9-1.3-.3-.4-.7-.9-1.1-1.2-.2-.2-.8,0-1.3.2s-1.1.5-1.6.8-1.1.6-1.5,1c-.5.4-1,.7-1.2,1.1-.2.4-.2,1-.1,1.5s.3,1,.4,1.5c.4.9.8,1.6,1.1,2.1.3.5.5.8.5.8,0,0-.2-.2-.6-.7-.4-.4-.9-1.1-1.4-2-.2-.4-.5-1-.6-1.6s-.2-1.3.1-2.1c.4-.7.9-1.1,1.4-1.5s1.1-.7,1.6-1.1c.6-.3,1.1-.6,1.7-.9.3-.1.6-.2.9-.3.2,0,.4-.1.6,0,.2,0,.5.2.6.3.6.5.9,1,1.2,1.5.3.5.6,1,.8,1.4.7,2,1.2,3.3,1.2,3.3Z"/>
    <path d="m423,196.05s-.5-.7-1.2-1.8c-.4-.5-.8-1.1-1.2-1.8-.2-.3-.5-.6-.7-.9-.3-.3-.5-.6-.8-.7h-.3c-.2,0-.3.1-.5.2-.3.1-.7.3-1,.5-.6.4-1.3.7-1.8,1s-1,.6-1.3.8-.5.3-.5.3c0,0,.1-.2.3-.5.2-.3.6-.7,1-1.2.5-.4,1.1-.9,1.7-1.3.3-.2.7-.4,1.1-.5.2-.1.4-.1.7-.2h.4c.1,0,.3.1.4.1.5.3.7.7,1,1,.3.4.5.7.7,1.1.4.7.8,1.4,1,2,.7,1.1,1,1.9,1,1.9Z"/>
    <path class="cls-9" d="m287.6,160.05c2.4-2.9,37.7-39.6,52.1-41.5,11-1.5,49.9,13.9,49.9,13.9,0,0,6.2-.7,11.3,12.2l14,25.1,9.4,25.2s1.8,7.4-6.7,7.8"/>
    <path class="cls-9" d="m317.1,198.35s10.1-20.6,15.8-27.5"/>
    <path class="cls-9" d="m329.1,164.65s9.5,9.5,20.4,10.8"/>
    <path class="cls-9" d="m390.5,149.05l13.4,23,15.5,34.9s-2,6.5-9.2,5.9c-6.3-.5-8.9-9-8.9-9"/>
    <line class="cls-9" x1="391.4" y1="145.65" x2="393" y2="153.25"/>
    <path class="cls-9" d="m378,156.05l12.6,24.8,14.1,30.4s-5.1,8.8-11.1,2.8c-3.6-3.6-15.6-21.7-15.6-21.7l-14.4-25.3-2.2-1.4"/>
    <path class="cls-9" d="m347.3,170.45l13.7,19.2s8,8.3,13.2-1.6"/>
    <path class="cls-9" d="m366.3,196.55s-.9,4.3,3.1,7.3"/>
    <line class="cls-9" x1="370.9" y1="204.95" x2="377.3" y2="198.35"/>
    <line class="cls-9" x1="374.9" y1="198.75" x2="380.2" y2="198.25"/>
    <path class="cls-11" d="m316,136.95s-11.2,24.6,13.1,34.4"/>
    <path class="cls-3" d="m378.5,138.65s6.6,1,8.5,9.5"/>
    <path class="cls-5" d="m401.7,174.35s-7.2,3-8.4,4.5"/>
    <path class="cls-5" d="m401.8,176.65s-2.8,2-6.9,3.5"/>
    <path class="cls-5" d="m388.1,181.05s-4.2,4.2-8.8,5.9"/>
    <path class="cls-5" d="m387.2,179.75s-6.6,3-9,5.8"/>
    <path class="cls-5" d="m412.2,168.55s-2.8.4-6,3.5"/>
    <path class="cls-5" d="m413.2,169.75s-1.3,1.9-7.2,3.6"/>
  </g>
  <g>
    <polygon class="cls-12" points="53.6 249.75 65.8 212.45 46.6 209.75 25.9 199.35 26.4 201.05 19 215.05 8 237.05 53.6 249.75"/>
    <line class="cls-9" x1="52.8" y1="251.75" x2="70.2" y2="198.35"/>
    <path class="cls-9" d="m65.3,202.35s21.1-5.6,41.1-33.9"/>
    <path class="cls-10" d="m105.2,170.05s9.5-16.3,26.1-22.5c8.5-3.1,5.7-8.1,5.7-8.1"/>
    <path class="cls-9" d="m10.6,231.25s19.5-41.2,23.4-48c3.9-6.8,11.7-40.3,13.7-47.4,2.1-7.1,2.5-7.5,7-10"/>
    <path class="cls-10" d="m87.6,142.25s-1.9,7.1,1.4,8.9,5.4,1.7,10.3-2.7c4.9-4.4,7.3-6.5,7.3-6.5"/>
    <path d="m69.3,138.75c.8.4,1.6.6,2.5.9.8.2,1.7.4,2.5.5.4.1.8.1,1.3.2.4,0,.9.1,1.3.1h2.6c.4,0,.9-.1,1.3-.1s.8-.1,1.3-.1l1.3-.2,1.2-.3c.8-.1,1.6-.4,2.5-.7.4-.1.8-.3,1.2-.4l1.2-.4.3-.1.3.1c.7.2,1.5.4,2.2.5s1.5.3,2.3.4c1.5.2,3,.4,4.5.4,3,.1,6.1-.1,8.8-1.2l.3-.1.3.1c1.1.4,2.2.7,3.3,1,1.1.3,2.2.6,3.3.8,2.2.4,4.5.8,6.7.6,1.1-.1,2.2-.3,3.1-.8.4-.3,1-.6,1.4-.9.5-.3.9-.7,1.3-1.1.4-.4.8-.8,1.2-1.3s.7-1,1-1.5c.6-1.1,1.1-2.2,1.3-3.4-.2,2.5-1.3,5-2.9,6.9-.4.5-.8.9-1.3,1.3-.5.5-.9.8-1.5,1.1-1.1.7-2.3,1-3.5,1.2s-2.4.2-3.6.2c-1.2-.1-2.4-.2-3.5-.4-1.2-.2-2.3-.4-3.5-.7-1.2-.3-2.3-.6-3.4-.9h.7c-1.6.6-3.2,1-4.8,1.2-1.6.2-3.2.2-4.8.2-1.6-.1-3.2-.3-4.8-.5-.8-.1-1.6-.3-2.3-.5-.8-.2-1.5-.4-2.3-.6h.6l-1.3.4c-.4.1-.9.3-1.3.4-.9.2-1.7.4-2.6.5l-1.3.2-1.3.1h-2.6l-1.3-.1c-.4,0-.9-.1-1.3-.2s-.9-.2-1.3-.3c-.4-.1-.9-.2-1.3-.3-.9-.2-1.7-.6-2.5-.9-1.2-.3-2-.8-2.8-1.3Z"/>
    <path d="m74.8,139.25s.1.5,0,1.3c-.1.4-.2.8-.3,1.3-.2.4-.4.9-.7,1.3-.3.4-.6.8-.9,1.1-.3.3-.7.6-1,.8-.3.2-.6.3-.8.4-.2.1-.3.1-.3.1,0,0,.1-.1.2-.3s.3-.4.5-.7c.2-.3.5-.6.7-.9s.5-.7.8-1.1.5-.8.7-1.1c.2-.4.4-.7.6-1,.3-.7.5-1.2.5-1.2Z"/>
    <path d="m71.5,147.05c0,3.6-.1,7.1-.2,10.6s-.2,7.1-.4,10.6l-.4,10.6-.6,10.6h0c-.1.5-.2.9-.3,1.3-.1.4-.3.8-.5,1.2-.4.8-.8,1.5-1.3,2.2-1,1.4-2.2,2.5-3.5,3.4-1.3.9-2.8,1.6-4.3,2.1-.7.2-1.5.4-2.3.6-.8.2-1.5.2-2.3.3.8-.1,1.5-.3,2.3-.5.7-.2,1.5-.4,2.2-.7,1.4-.6,2.8-1.3,4.1-2.2s2.4-2.1,3.3-3.4c.4-.7.8-1.4,1.1-2.1.2-.4.3-.7.4-1.1.1-.4.2-.8.3-1.1h0l.4-10.6.6-10.6c.2-3.5.4-7.1.6-10.6.2-3.5.5-7,.8-10.6Z"/>
    <path class="cls-11" d="m30.2,201.35s9.9,9.9,32.1,10.7"/>
    <path class="cls-9" d="m64.6,122.45s22.7-2.1,26.9-2.4,6.4.8,10.3,1.7c3.9.8,18.8,4.8,18.8,4.8"/>
    <line class="cls-9" x1="120.9" y1="127.55" x2="130.9" y2="131.95"/>
    <path class="cls-9" d="m49.4,126.45s1.3-9.1,6.8-9.4"/>
    <path class="cls-6" d="m54.1,115.15s2.3-5.6,6.7-5c4.4.6,37.5,2.8,37.5,2.8l35.3,12.2"/>
    <path class="cls-9" d="m134.6,126.15l9.1,3.2s.2,12.1-13.6,8.9"/>
    <path class="cls-9" d="m102.8,110.75c2.9-.7,38.8,14,38.8,14"/>
    <path class="cls-7" d="m141.3,124.95l10.5,3.4s-.6,11.3-11,11.1"/>
    <path d="m93.1,157.05s.2.1.5.3c.3.2.7.6,1.1,1,.4.5.9,1,1.3,1.6.5.6.9,1.3,1.3,2.1.4.7.8,1.5,1.1,2.2.3.7.6,1.4.8,2,.4,1.2.6,2,.6,2,0,0-.5-.7-1.1-1.8-.3-.5-.7-1.2-1-1.8-.4-.7-.8-1.4-1.2-2.1-.4-.7-.8-1.4-1.2-2.1-.4-.7-.7-1.3-1-1.8-.7-1-1.2-1.6-1.2-1.6Z"/>
    <path d="m109.1,144.25s.4.4.9,1.1,1.2,1.7,1.7,2.7c.6,1,1.1,2.1,1.4,2.9s.5,1.4.5,1.4c0,0-.4-.4-.9-1.1s-1.2-1.7-1.7-2.7c-.6-1-1.1-2.1-1.4-2.9-.3-.8-.5-1.4-.5-1.4Z"/>
    <path d="m93.6,119.95s.1.5.3,1.3c.1.8.3,1.8.4,2.9.1,1,.3,2.1.4,2.8.1.4.1.7.2.9,0,.2.1.4.1.4,0,0-.1-.1-.2-.3-.1-.2-.3-.5-.5-.8-.2-.4-.3-.8-.5-1.3-.1-.5-.2-1-.3-1.6-.1-1.1-.1-2.2,0-3,0-.8.1-1.3.1-1.3Z"/>
    <path class="cls-3" d="m96.5,121.45s-.4,5.1-.6,8.1"/>
    <path d="m120.8,128.85s.3.8.9,2,1.4,2.7,2.6,3.7c.3.3.6.5.9.7s.6.3.9.3c.6,0,1.1-.4,1.6-.8.5-.4.9-.8,1.2-1s.5-.3.5-.3c0,0-.1.2-.3.5s-.5.8-.9,1.3c-.2.3-.5.5-.8.8s-.7.5-1.2.5-1-.2-1.3-.4c-.4-.2-.8-.5-1.1-.8-1.3-1.2-2.1-3-2.5-4.3-.5-1.2-.5-2.2-.5-2.2Z"/>
    <path d="m132.1,127.55s.6.6,1.5,1.5c.5.4,1,1,1.6,1.5s1.2,1,1.9,1.4c.3.2.7.3,1,.3s.6,0,.9-.2c.7-.4,1.3-.8,1.9-1.1,1.1-.6,1.9-.9,1.9-.9,0,0-.6.6-1.6,1.4-.5.4-1.1.9-1.7,1.3-.4.3-.9.5-1.4.4-.5,0-.9-.2-1.3-.4-.8-.4-1.5-1-2-1.6-.6-.6-1-1.2-1.4-1.8-1-.9-1.3-1.8-1.3-1.8Z"/>
    <path class="cls-3" d="m145.8,130.95c1.5.2,2.7-2.4,3.9-3.3"/>
    <path d="m65.3,142.45s.5.2,1.2.4c.7.3,1.6.6,2.5,1s1.8.8,2.5,1c.3.2.6.3.8.4.2.1.3.2.3.2,0,0-.5.1-1.3,0s-1.7-.3-2.7-.7c-.9-.4-1.8-.9-2.4-1.4-.6-.4-.9-.9-.9-.9Z"/>
    <path class="cls-4" d="m75.7,109.55c12.1-.5,30.5,1.7,30.5,1.7"/>
  </g>
</svg>