<?xml version="1.0" encoding="UTF-8"?>
<svg id="Lager_1" data-name="Lager 1" xmlns="http://www.w3.org/2000/svg" xmlns:xlink="http://www.w3.org/1999/xlink" viewBox="0 0 300.38 240">
  <defs>
    <style>
      .cls-1 {
        fill: url(#linear-gradient-2);
      }

      .cls-2 {
        fill: #fff;
      }

      .cls-3, .cls-4, .cls-5, .cls-6, .cls-7 {
        stroke-linecap: round;
      }

      .cls-3, .cls-4, .cls-5, .cls-6, .cls-7, .cls-8, .cls-9 {
        fill: none;
        stroke: #000;
      }

      .cls-4 {
        stroke-width: 1.4px;
      }

      .cls-5 {
        stroke-linejoin: bevel;
      }

      .cls-5, .cls-6 {
        stroke-width: 1.5px;
      }

      .cls-7, .cls-8 {
        stroke-width: 2px;
      }

      .cls-10 {
        fill: url(#linear-gradient);
      }
    </style>
    <linearGradient id="linear-gradient" x1="-309.44" y1="-680.49" x2="-300.8" y2="-667.66" gradientTransform="translate(53.65 -530.53) rotate(-24.71) scale(1 -1)" gradientUnits="userSpaceOnUse">
      <stop offset="0" stop-color="#fff"/>
      <stop offset="1" stop-color="#ededed"/>
    </linearGradient>
    <linearGradient id="linear-gradient-2" x1="144.55" y1="1176.32" x2="154.22" y2="1152.98" gradientTransform="translate(0 -964.66)" gradientUnits="userSpaceOnUse">
      <stop offset="0" stop-color="#fff"/>
      <stop offset="1" stop-color="#ededed"/>
    </linearGradient>
  </defs>
  <rect class="cls-2" x="18.79" y="6.6" width="260" height="226.8"/>
  <g>
    <g id="Färg">
      <polygon class="cls-10" points="83.59 217.9 81.89 195.4 82.69 179.3 78.89 181.2 64.39 182.6 52.19 181.3 40.09 178 30.29 217.7 83.59 217.9"/>
    </g>
    <path d="m38.39,25.1c1.2-.6,2.6-1.1,4-1.3,1.4-.2,2.9-.1,4.3.3,1.4.4,2.7,1.3,3.7,2.4s1.8,2.4,2.3,3.7c1.1,2.7,1.5,5.6,1.6,8.4s0,5.6-.3,8.4l-.2-.8c.3.5.5.9.7,1.3.2.4.4.9.6,1.3.4.9.7,1.8,1,2.7.5,1.9.9,3.8,1.1,5.7.2,1.9.2,3.9.1,5.8-.2,1.9-.5,3.8-1,5.7v-.6c.6,2.1,1,4.2,1.3,6.3.2,1.1.4,2.1.5,3.2s.2,2.1.4,3.2c.1,1.1.2,2.1.2,3.2v3.2c0,.5-.1,1.1-.1,1.6s-.1,1.1-.1,1.6c-.1.5-.1,1.1-.2,1.6l-.5,1.7.1-1.6v-1.6c0-1.1-.1-2.1-.2-3.2l-.2-1.6c0-.5-.1-1-.2-1.6-.1-1-.3-2.1-.5-3.1-.4-2.1-.8-4.1-1.3-6.2-.2-1-.5-2.1-.8-3.1s-.6-2-.8-3l-.1-.3.1-.3c.4-1.7.7-3.5.8-5.3s.1-3.6-.1-5.3c-.2-1.8-.6-3.5-1.1-5.2-.3-.9-.6-1.7-.9-2.5-.2-.4-.3-.8-.5-1.2s-.4-.8-.6-1.1l-.2-.4v-.4c.2-1.3.3-2.7.4-4,.1-1.3.2-2.7.1-4,0-2.7-.3-5.3-1.1-7.8-.4-1.2-1-2.4-1.7-3.4-.8-1-1.8-1.8-3-2.3s-2.5-.7-3.8-.7c-1.2,0-2.5.2-3.8.6Z"/>
    <path class="cls-9" d="m43.29,178.6s11,7.5,36.3,2.4"/>
    <path d="m40.69,25.8s.3,0,.7.1c.4.1,1.1.2,1.8.5.4.2.7.4,1.1.7.4.3.7.7.9,1.3.1.3.1.6.1.9,0,.2,0,.5-.1.7-.1.5-.1,1-.3,1.5-.4,2-1.3,3.9-2.4,5-.6.6-1.2.8-1.6.9-.2.1-.4.1-.5.1h-.2s.3,0,.6-.2c.4-.2.9-.5,1.3-1.1.8-1.1,1.5-3,1.9-4.9.1-.5.2-.9.3-1.4,0-.2.1-.5.1-.7v-.5c-.1-.7-.8-1.3-1.4-1.7-.6-.4-1.1-.7-1.5-.9-.6-.2-.8-.3-.8-.3Z"/>
    <path class="cls-7" d="m39.49,86.6c.2-1.7,1.2-29.3,1.2-29.3l-1.5-20"/>
    <path class="cls-7" d="m48.09,100.9s20.2-10.2,25.4-12.8c5.3-2.6,15,7.8,18.9,12.1s4.8,9.1,3.6,11.7"/>
    <path class="cls-7" d="m51.79,110.3s26.9-6.7,30.3-6.5c3.5.2,14.6,10.5,17,14.4,2.4,3.8-1.8,10.3-1.8,10.3"/>
    <line class="cls-7" x1="97.59" y1="127.9" x2="94.19" y2="137.5"/>
    <path class="cls-7" d="m92.99,83.7s3.7-9.3,14.8-5.3"/>
    <line class="cls-7" x1="108.09" y1="78.8" x2="105.29" y2="90.4"/>
    <path class="cls-7" d="m105.09,86.5s2.8,10.3,1.5,13.7c-1.3,3.4-6.1,14.5-6.1,14.5"/>
    <path class="cls-7" d="m93.39,140.1s-1.7,13.1-11.1,25.2l1.7,48.8"/>
    <line class="cls-7" x1="40.29" y1="36.6" x2="39.09" y2="25.7"/>
    <path d="m72.99,122.3c.5.2,1.1.3,1.6.4s1.1.2,1.6.2h1.6c.5,0,1.1-.1,1.6-.1.3,0,.5-.1.8-.1s.5-.1.8-.2l.8-.2.7-.3c.5-.1,1-.4,1.4-.6.2-.1.5-.2.7-.4l.7-.4,1.4-.8v2.5c0,.3.1.6.2.9.1.6.3,1.1.6,1.6.3.5.6.8,1.1,1,.4.2,1,.3,1.5.3l2.2-.1-1.5,1.5c-.1.2-.3.4-.5.6s-.3.5-.5.7c-.3.5-.5,1-.6,1.5-.3,1-.2,2.2.3,3.2s1.3,1.9,2.3,2.7c.5.4,1,.7,1.5,1.1.5.3,1,.7,1.6,1-.6-.2-1.2-.4-1.8-.6s-1.1-.5-1.7-.9c-1.1-.7-2.1-1.5-2.9-2.6-.4-.6-.6-1.2-.8-1.9-.1-.7-.1-1.4,0-2.1s.3-1.4.6-2c.1-.3.3-.6.5-.9s.4-.6.6-.9l.7,1.5c-.8.1-1.7.1-2.5-.3-.8-.3-1.5-1-1.9-1.7s-.7-1.5-.9-2.2c-.1-.4-.1-.8-.2-1.1v-1.2l1.4.9-.8.4c-.3.1-.5.3-.8.4-.6.2-1.1.4-1.7.6-.3.1-.6.2-.8.2l-.9.1c-.3.1-.6.1-.9.1s-.6.1-.9,0c-.6,0-1.2,0-1.7-.1-.6-.1-1.1-.2-1.7-.3-.8-.2-1.8-.7-2.8-1.4Z"/>
    <path d="m77.59,122.3s.2,0,.5.2c.3.1.7.4,1.1.7.2.2.4.4.7.7.2.2.4.6.6.9.2.3.3.7.4,1.1.1.4.2.8.2,1.2s0,.8-.1,1.2c-.1.4-.2.7-.3,1.1-.2.3-.3.6-.5.9s-.4.5-.6.7c-.3.4-.8.7-1,.9-.3.2-.4.3-.4.3,0,0,0-.2.1-.5s.2-.7.4-1.2c.1-.2.1-.5.2-.8,0-.3.1-.5.2-.8,0-.3.1-.6.1-.8v-.8c0-.6-.1-1.1-.2-1.7-.1-.3-.1-.5-.2-.8-.1-.3-.2-.5-.3-.7-.2-.4-.4-.8-.5-1.1-.3-.5-.4-.7-.4-.7Z"/>
    <path d="m78.99,129s.1.1.3.3c.2.2.4.5.7.9.5.8,1.3,2.1,2,3.6.7,1.6,1.5,3.4,2,5.5.6,2.1,1,4.4,1.1,6.7.1,1.2.1,2.3,0,3.4,0,1.1-.2,2.2-.4,3.3-.1.5-.2,1.1-.3,1.6-.1.5-.3,1-.4,1.5-.3.9-.6,1.8-1,2.6-.3.8-.7,1.5-1.1,2.1-.4.6-.7,1.1-1,1.5-.6.8-.9,1.3-.9,1.3,0,0,.3-.5.7-1.4.2-.4.5-1,.7-1.6s.6-1.3.8-2.1c.3-.8.5-1.7.8-2.6.2-.9.4-1.9.6-2.9.1-1,.2-2.1.3-3.2v-3.3c-.2-4.4-1.4-8.8-2.5-12-.6-1.6-1.1-2.9-1.5-3.8l-.5-1c-.2-.3-.4-.4-.4-.4Z"/>
    <polyline class="cls-2" points="53.69 80.4 60.29 76.2 61.79 91.4 58.69 93.5 52.59 93.8"/>
    <path class="cls-7" d="m31.59,212.7s9.3-36.8,9.2-43.1-11.2-62.2-10.6-67.1c.6-4.9,17.9-16.1,24.2-20.1s16.1-9.9,20.1-7.5,18.7,11.4,20,15.2c1.3,3.8,1.5,12,1.5,12"/>
  </g>
  <g>
    <polygon class="cls-1" points="169.49 217.8 182.79 180.5 161.79 177.8 139.29 167.4 139.79 169.1 131.79 183.1 119.79 205.1 169.49 217.8"/>
    <line class="cls-7" x1="168.59" y1="219.8" x2="187.59" y2="166.4"/>
    <path class="cls-7" d="m182.19,170.4s23-5.6,44.8-33.9"/>
    <path class="cls-8" d="m225.69,138.2s10.4-16.3,28.5-22.5c9.2-3.1,6.2-8.1,6.2-8.1"/>
    <path class="cls-7" d="m122.59,199.3s21.3-41.2,25.5-48,12.7-40.3,15-47.4,2.8-7.5,7.6-10"/>
    <path class="cls-8" d="m206.59,110.3s-2,7.1,1.6,8.9,5.9,1.7,11.3-2.7c5.4-4.4,8-6.5,8-6.5"/>
    <path d="m186.59,106.8c.9.4,1.8.6,2.7.9.9.2,1.8.4,2.8.5.5.1.9.1,1.4.2.5,0,.9.1,1.4.1h2.8c.5,0,.9-.1,1.4-.1s.9-.1,1.4-.1l1.4-.2,1.4-.3c.9-.1,1.8-.4,2.7-.7.4-.1.9-.3,1.3-.4l1.3-.4.3-.1.3.1c.8.2,1.6.4,2.4.5.8.1,1.6.3,2.5.4,1.6.2,3.3.4,4.9.4,3.3.1,6.6-.1,9.6-1.2l.4-.1.4.1c1.1.4,2.4.7,3.6,1,1.2.3,2.4.6,3.6.8,2.4.4,4.9.8,7.3.6,1.2-.1,2.4-.3,3.4-.8.5-.3,1.1-.6,1.6-.9s1-.7,1.4-1.1c.5-.4.9-.8,1.3-1.3.4-.5.8-1,1.1-1.5.6-1.1,1.2-2.2,1.4-3.4-.2,2.5-1.4,5-3.2,6.9-.4.5-.9.9-1.4,1.3-.5.5-1,.8-1.6,1.1-1.2.7-2.5,1-3.8,1.2s-2.6.2-3.9.2c-1.3-.1-2.6-.2-3.9-.4-1.3-.2-2.5-.4-3.8-.7-1.3-.3-2.5-.6-3.7-.9h.7c-1.7.6-3.5,1-5.2,1.2-1.8.2-3.5.2-5.3.2-1.7-.1-3.5-.3-5.2-.5-.9-.1-1.7-.3-2.6-.5-.9-.2-1.7-.4-2.5-.6h.6l-1.4.4c-.5.1-.9.3-1.4.4-1,.2-1.9.4-2.9.5l-1.4.2-1.5.1h-3l-1.5-.1c-.5,0-1-.1-1.4-.2-.5-.1-1-.2-1.4-.3-.5-.1-.9-.2-1.4-.3-.9-.2-1.8-.6-2.7-.9-1-.3-1.8-.8-2.7-1.3Z"/>
    <path d="m192.59,107.4s.1.5,0,1.3c-.1.4-.2.8-.4,1.3-.2.4-.4.9-.7,1.3s-.6.8-1,1.1c-.4.3-.7.6-1.1.8-.3.2-.6.3-.8.4s-.3.1-.3.1c0,0,.1-.1.2-.3s.4-.4.6-.7c.2-.3.5-.6.8-.9s.6-.7.8-1.1c.3-.4.5-.8.8-1.1.2-.4.4-.7.6-1,.3-.8.5-1.2.5-1.2Z"/>
    <path d="m188.99,115.1c-.1,3.6-.1,7.1-.2,10.6-.1,3.5-.2,7.1-.4,10.6l-.5,10.6-.6,10.6h0c-.1.5-.2.9-.4,1.3-.2.4-.3.8-.5,1.2-.4.8-.9,1.5-1.4,2.2-1.1,1.4-2.4,2.5-3.8,3.4-1.4.9-3,1.6-4.7,2.1-.8.2-1.6.4-2.5.6-.8.2-1.7.2-2.5.3.8-.1,1.7-.3,2.5-.5s1.6-.4,2.4-.7c1.6-.6,3.1-1.3,4.4-2.2,1.4-.9,2.6-2.1,3.6-3.4.5-.7.9-1.4,1.3-2.1.2-.4.3-.7.5-1.1.1-.4.3-.8.3-1.1h0l.5-10.6.6-10.6c.2-3.5.5-7.1.7-10.6.1-3.5.4-7,.7-10.6Z"/>
    <path class="cls-9" d="m143.89,169.5s10.8,9.9,35,10.7"/>
    <path class="cls-7" d="m181.49,90.5s24.7-2.1,29.3-2.4c4.6-.4,7,.8,11.2,1.7,4.2.8,20.5,4.8,20.5,4.8"/>
    <line class="cls-7" x1="242.89" y1="95.6" x2="253.69" y2="100"/>
    <path class="cls-7" d="m164.89,94.5s1.4-9.1,7.5-9.4"/>
    <path class="cls-5" d="m170.09,83.2s2.5-5.6,7.3-5c4.8.7,40.9,2.8,40.9,2.8l38.5,12.2"/>
    <path class="cls-7" d="m257.79,94.2l9.9,3.2s.2,12.1-14.8,8.9"/>
    <path class="cls-7" d="m223.09,78.8c3.2-.7,42.2,14,42.2,14"/>
    <path class="cls-6" d="m265.09,93l11.5,3.4s-.7,11.3-12,11.1"/>
    <path d="m212.49,125.1s.2.1.5.3c.3.2.7.6,1.2,1,.5.5.9,1,1.4,1.6s1,1.3,1.4,2.1c.4.7.8,1.5,1.2,2.2s.6,1.4.9,2c.5,1.2.7,2,.7,2,0,0-.5-.7-1.2-1.8-.3-.5-.7-1.2-1.1-1.8-.4-.7-.8-1.4-1.3-2.1-.4-.7-.9-1.4-1.3-2.1-.4-.7-.8-1.3-1.1-1.8-.7-1-1.3-1.6-1.3-1.6Z"/>
    <path d="m229.99,112.3s.5.4,1,1.1c.6.7,1.3,1.7,1.9,2.7.6,1,1.2,2.1,1.5,2.9.4.8.5,1.4.5,1.4,0,0-.5-.4-1-1.1-.6-.7-1.3-1.7-1.9-2.7-.6-1-1.2-2.1-1.5-2.9-.3-.8-.5-1.4-.5-1.4Z"/>
    <path d="m213.09,88s.2.5.3,1.3c.2.8.3,1.8.5,2.9.2,1,.3,2.1.4,2.8.1.4.1.7.2.9,0,.2.1.4.1.4,0,0-.1-.1-.2-.3-.2-.2-.3-.5-.5-.8-.2-.4-.4-.8-.5-1.3-.2-.5-.3-1-.4-1.6-.2-1.1-.1-2.2,0-3-.1-.8.1-1.3.1-1.3Z"/>
    <path class="cls-3" d="m216.29,89.5s-.4,5.1-.6,8.1"/>
    <path d="m242.69,96.9s.3.8.9,2c.6,1.2,1.5,2.7,2.8,3.7.3.3.7.5,1,.7.4.2.7.3,1,.3.6,0,1.2-.4,1.8-.8.5-.4,1-.8,1.3-1s.5-.3.5-.3c0,0-.1.2-.4.5-.2.3-.6.8-1,1.3-.2.3-.5.5-.8.8s-.8.5-1.3.5c-.6,0-1-.2-1.4-.4-.4-.2-.8-.5-1.2-.8-1.5-1.2-2.3-3-2.7-4.3-.5-1.2-.5-2.2-.5-2.2Z"/>
    <path d="m255.09,95.6s.7.6,1.6,1.5c.5.4,1.1,1,1.7,1.5.6.5,1.3,1,2.1,1.4.4.2.7.3,1.1.3s.6,0,1-.2c.7-.4,1.4-.8,2-1.1,1.2-.6,2.1-.9,2.1-.9,0,0-.7.6-1.7,1.4-.5.4-1.2.9-1.9,1.3-.4.3-1,.5-1.5.4-.5,0-1-.2-1.5-.4-.9-.4-1.6-1-2.2-1.6-.6-.6-1.1-1.2-1.5-1.8-.9-.9-1.3-1.8-1.3-1.8Z"/>
    <path class="cls-3" d="m269.99,99c1.6.2,3-2.4,4.3-3.3"/>
    <path d="m182.19,110.5s.5.2,1.3.4c.7.3,1.7.6,2.7,1s2,.8,2.7,1c.4.2.7.3.9.4s.3.2.3.2c0,0-.6.1-1.4,0-.8-.1-1.9-.3-2.9-.7-1-.4-2-.9-2.6-1.4-.6-.4-1-.9-1-.9Z"/>
    <path class="cls-4" d="m193.59,77.6c13.2-.5,33.3,1.7,33.3,1.7"/>
  </g>
</svg>