<?xml version="1.0" encoding="UTF-8"?>
<svg id="Lager_1" data-name="Lager 1" xmlns="http://www.w3.org/2000/svg" xmlns:xlink="http://www.w3.org/1999/xlink" viewBox="0 0 300.38 240">
  <defs>
    <style>
      .cls-1 {
        fill: url(#linear-gradient-2);
      }

      .cls-2 {
        stroke-width: 1.6px;
      }

      .cls-2, .cls-3, .cls-4 {
        stroke-linecap: round;
      }

      .cls-2, .cls-3, .cls-4, .cls-5 {
        fill: none;
        stroke: #000;
      }

      .cls-6 {
        fill: #fff;
      }

      .cls-3 {
        stroke-width: .75px;
      }

      .cls-4 {
        stroke-width: 2px;
      }

      .cls-7 {
        fill: url(#linear-gradient);
      }
    </style>
    <linearGradient id="linear-gradient" x1="-297.63" y1="-685.93" x2="-288.99" y2="-673.1" gradientTransform="translate(53.65 -530.53) rotate(-24.71) scale(1 -1)" gradientUnits="userSpaceOnUse">
      <stop offset="0" stop-color="#fff"/>
      <stop offset="1" stop-color="#ededed"/>
    </linearGradient>
    <linearGradient id="linear-gradient-2" x1="161.76" y1="1182.01" x2="172.69" y2="1155.64" gradientTransform="translate(0 -964.66)" gradientUnits="userSpaceOnUse">
      <stop offset="0" stop-color="#fff"/>
      <stop offset="1" stop-color="#ededed"/>
    </linearGradient>
  </defs>
  <rect class="cls-6" x="36.79" y="6.6" width="226.8" height="226.8"/>
  <g>
    <g id="Färg">
      <polygon class="cls-7" points="96.59 217.9 94.89 195.4 95.69 179.3 91.89 181.2 77.39 182.6 65.19 181.3 53.09 178 43.29 217.7 96.59 217.9"/>
    </g>
    <path d="m51.39,25.1c1.2-.6,2.6-1.1,4-1.3,1.4-.2,2.9-.1,4.3.3,1.4.4,2.7,1.3,3.7,2.4s1.8,2.4,2.3,3.7c1.1,2.7,1.5,5.6,1.6,8.4s0,5.6-.3,8.4l-.2-.8c.3.5.5.9.7,1.3.2.4.4.9.6,1.3.4.9.7,1.8,1,2.7.5,1.9.9,3.8,1.1,5.7.2,1.9.2,3.9.1,5.8-.2,1.9-.5,3.8-1,5.7v-.6c.6,2.1,1,4.2,1.3,6.3.2,1.1.4,2.1.5,3.2s.2,2.1.4,3.2c.1,1.1.2,2.1.2,3.2v3.2c0,.5-.1,1.1-.1,1.6s-.1,1.1-.1,1.6c-.1.5-.1,1.1-.2,1.6l-.5,1.7.1-1.6v-1.6c0-1.1-.1-2.1-.2-3.2l-.2-1.6c0-.5-.1-1-.2-1.6-.1-1-.3-2.1-.5-3.1-.4-2.1-.8-4.1-1.3-6.2-.2-1-.5-2.1-.8-3.1s-.6-2-.8-3l-.1-.3.1-.3c.4-1.7.7-3.5.8-5.3.1-1.8.1-3.6-.1-5.3-.2-1.8-.6-3.5-1.1-5.2-.3-.9-.6-1.7-.9-2.5-.2-.4-.3-.8-.5-1.2s-.4-.8-.6-1.1l-.2-.4v-.4c.2-1.3.3-2.7.4-4s.2-2.7.1-4c0-2.7-.3-5.3-1.1-7.8-.4-1.2-1-2.4-1.7-3.4-.8-1-1.8-1.8-3-2.3s-2.5-.7-3.8-.7c-1.2,0-2.5.2-3.8.6Z"/>
    <path class="cls-5" d="m56.29,178.6s11,7.5,36.3,2.4"/>
    <path d="m53.69,25.8s.3,0,.7.1c.4.1,1.1.2,1.8.5.4.2.7.4,1.1.7.4.3.7.7.9,1.3.1.3.1.6.1.9,0,.2,0,.5-.1.7-.1.5-.1,1-.3,1.5-.4,2-1.3,3.9-2.4,5-.6.6-1.2.8-1.6.9-.2.1-.4.1-.5.1h-.2s.3,0,.6-.2c.4-.2.9-.5,1.3-1.1.8-1.1,1.5-3,1.9-4.9.1-.5.2-.9.3-1.4,0-.2.1-.5.1-.7v-.5c-.1-.7-.8-1.3-1.4-1.7-.6-.4-1.1-.7-1.5-.9-.6-.2-.8-.3-.8-.3Z"/>
    <path class="cls-4" d="m52.49,86.6c.2-1.7,1.2-29.3,1.2-29.3l-1.5-20"/>
    <path class="cls-4" d="m61.09,100.9s20.2-10.2,25.4-12.8c5.3-2.6,15,7.8,18.9,12.1s4.8,9.1,3.6,11.7"/>
    <path class="cls-4" d="m64.79,110.3s26.9-6.7,30.3-6.5c3.5.2,14.6,10.5,17,14.4,2.4,3.8-1.8,10.3-1.8,10.3"/>
    <line class="cls-4" x1="110.59" y1="127.9" x2="107.19" y2="137.5"/>
    <path class="cls-4" d="m105.99,83.7s3.7-9.3,14.8-5.3"/>
    <line class="cls-4" x1="121.09" y1="78.8" x2="118.29" y2="90.4"/>
    <path class="cls-4" d="m118.09,86.5s2.8,10.3,1.5,13.7c-1.3,3.4-6.1,14.5-6.1,14.5"/>
    <path class="cls-4" d="m106.39,140.1s-1.7,13.1-11.1,25.2l1.7,48.8"/>
    <line class="cls-4" x1="53.29" y1="36.6" x2="52.09" y2="25.7"/>
    <path d="m85.99,122.3c.5.2,1.1.3,1.6.4s1.1.2,1.6.2h1.6c.5,0,1.1-.1,1.6-.1.3,0,.5-.1.8-.1s.5-.1.8-.2l.8-.2.7-.3c.5-.1,1-.4,1.4-.6.2-.1.5-.2.7-.4l.7-.4,1.4-.8v2.5c0,.3.1.6.2.9.1.6.3,1.1.6,1.6s.6.8,1.1,1c.4.2,1,.3,1.5.3l2.2-.1-1.5,1.5c-.1.2-.3.4-.5.6s-.3.5-.5.7c-.3.5-.5,1-.6,1.5-.3,1-.2,2.2.3,3.2s1.3,1.9,2.3,2.7c.5.4,1,.7,1.5,1.1.5.3,1,.7,1.6,1-.6-.2-1.2-.4-1.8-.6s-1.1-.5-1.7-.9c-1.1-.7-2.1-1.5-2.9-2.6-.4-.6-.6-1.2-.8-1.9-.1-.7-.1-1.4,0-2.1s.3-1.4.6-2c.1-.3.3-.6.5-.9s.4-.6.6-.9l.7,1.5c-.8.1-1.7.1-2.5-.3-.8-.3-1.5-1-1.9-1.7s-.7-1.5-.9-2.2c-.1-.4-.1-.8-.2-1.1v-1.2l1.4.9-.8.4c-.3.1-.5.3-.8.4-.6.2-1.1.4-1.7.6-.3.1-.6.2-.8.2l-.9.1c-.3.1-.6.1-.9.1s-.6.1-.9,0c-.6,0-1.2,0-1.7-.1-.6-.1-1.1-.2-1.7-.3-.8-.2-1.8-.7-2.8-1.4Z"/>
    <path d="m90.59,122.3s.2,0,.5.2c.3.1.7.4,1.1.7.2.2.4.4.7.7.2.2.4.6.6.9.2.3.3.7.4,1.1.1.4.2.8.2,1.2s0,.8-.1,1.2c-.1.4-.2.7-.3,1.1-.2.3-.3.6-.5.9s-.4.5-.6.7c-.3.4-.8.7-1,.9-.3.2-.4.3-.4.3,0,0,0-.2.1-.5s.2-.7.4-1.2c.1-.2.1-.5.2-.8,0-.3.1-.5.2-.8,0-.3.1-.6.1-.8v-.8c0-.6-.1-1.1-.2-1.7-.1-.3-.1-.5-.2-.8-.1-.3-.2-.5-.3-.7-.2-.4-.4-.8-.5-1.1-.3-.5-.4-.7-.4-.7Z"/>
    <path d="m91.99,129s.1.1.3.3c.2.2.4.5.7.9.5.8,1.3,2.1,2,3.6.7,1.6,1.5,3.4,2,5.5.6,2.1,1,4.4,1.1,6.7.1,1.2.1,2.3,0,3.4,0,1.1-.2,2.2-.4,3.3-.1.5-.2,1.1-.3,1.6s-.3,1-.4,1.5c-.3.9-.6,1.8-1,2.6-.3.8-.7,1.5-1.1,2.1-.4.6-.7,1.1-1,1.5-.6.8-.9,1.3-.9,1.3,0,0,.3-.5.7-1.4.2-.4.5-1,.7-1.6s.6-1.3.8-2.1c.3-.8.5-1.7.8-2.6.2-.9.4-1.9.6-2.9.1-1,.2-2.1.3-3.2v-3.3c-.2-4.4-1.4-8.8-2.5-12-.6-1.6-1.1-2.9-1.5-3.8l-.5-1c-.2-.3-.4-.4-.4-.4Z"/>
    <polyline class="cls-6" points="66.69 80.4 73.29 76.2 74.79 91.4 71.69 93.5 65.59 93.8"/>
    <path class="cls-4" d="m44.59,212.7s9.3-36.8,9.2-43.1-11.2-62.2-10.6-67.1,17.9-16.1,24.2-20.1,16.1-9.9,20.1-7.5,18.7,11.4,20,15.2c1.3,3.8,1.5,12,1.5,12"/>
  </g>
  <g>
    <polygon class="cls-1" points="193.49 222.1 204.29 181.8 181.79 179.9 156.99 170.9 157.49 172.6 148.79 185.4 131.49 209.1 193.49 222.1"/>
    <path class="cls-5" d="m162.39,172.3s14.9,10.1,39.1,9.2"/>
    <path class="cls-4" d="m135.19,206.1c0-1,25.5-37,26.3-41.9.9-4.9,13.8-70.1,13.8-70.1"/>
    <path class="cls-4" d="m173.89,93.9s-2.2-9.6,5-12.3"/>
    <path class="cls-4" d="m183.49,91.3l25.8-13c1.4-.7,3.7-.8,5.2-.3l17.5,6.3c1.5.5,3.2,2.1,3.9,3.5l2.4,4.9"/>
    <path class="cls-4" d="m183.89,79.5l31.8-15.6c1.4-.7,3.6-.5,4.9.3l21,14.1c1.3.9,3,2.7,3.7,4.1l2.3,4.2"/>
    <path class="cls-2" d="m227.69,55.9l4.7-.4c1.6-.1,3.7.7,4.8,1.8l10.8,11.3c1.1,1.1,2.4,3.2,3,4.7l1.6,3.8"/>
    <path class="cls-4" d="m179.79,81l37.1-26.5c1.3-.9,3.3-.9,4.6.1l23.1,17.2c1.2.9,2.9,2.8,3.6,4.2l3.2,6.1"/>
    <path class="cls-4" d="m200.59,103.4s5.1-.9,8.7-6.3"/>
    <path class="cls-4" d="m207.79,96.2s7.8,3.1,16.8,1.7"/>
    <path class="cls-4" d="m221.49,96.4s11.9,15.4,22.1,4l-5.4-6.9"/>
    <path class="cls-4" d="m244.39,102.1s5.5,1.3,8.7-5.8l-5.6-7.7"/>
    <path class="cls-4" d="m251.79,83.1l4.3,8s-1.6,3.1-2.9,3.3"/>
    <path class="cls-4" d="m222.69,101.6l4,9.7s3,2.2,7.5,2.2"/>
    <line class="cls-4" x1="231.29" y1="115.4" x2="241.79" y2="107.4"/>
    <path class="cls-4" d="m241.59,103.8s.9,4.2,1.3,5.9"/>
    <path d="m205.29,103s.2.1.4.6c.1.2.2.5.3.8s.1.7.1,1v1.2c0,.4-.1.9-.2,1.4-.1.5-.2,1-.3,1.4-.1.5-.2,1-.4,1.5-.3,1-.7,1.9-1,2.8-.2.4-.4.8-.6,1.2-.2.4-.4.8-.5,1.1-.4.7-.7,1.2-.9,1.6s-.4.6-.4.6c0,0,.1-.2.2-.7.1-.4.3-1,.6-1.7.2-.7.5-1.5.8-2.4s.6-1.8.9-2.8c.2-.5.3-.9.4-1.4.1-.5.3-.9.4-1.4.1-.4.2-.9.3-1.3s.1-.8.2-1.2c.1-.7.1-1.3,0-1.8-.2-.3-.3-.5-.3-.5Z"/>
    <path d="m201.99,114.3s.1.9.2,2.4c.1,1.6.3,3.8.4,6.4.1,2.7.3,5.8.3,9.1.1,3.3.1,6.9.1,10.5,0,1.8-.1,3.6-.1,5.3,0,.9-.1,1.8-.2,2.6-.1.9-.2,1.7-.4,2.6-.5,1.7-1.5,3.1-2.4,4.3-1,1.2-1.9,2.3-2.9,3.3-1.9,1.9-3.7,3.3-4.9,4.2-.6.5-1.2.8-1.5,1l-.6.3s.2-.1.5-.4c.3-.2.8-.6,1.4-1.1,1.2-1,2.8-2.5,4.6-4.4.9-1,1.8-2.1,2.7-3.3s1.7-2.6,2.2-4.1c.2-.7.3-1.6.4-2.4.1-.8.1-1.7.1-2.6.1-1.7.1-3.5.1-5.3v-26c0-1.5,0-2.4,0-2.4Z"/>
    <path d="m185.79,163.7s.2-.1.6-.3c.4-.2.9-.5,1.5-.9s1.4-.8,2.2-1.2,1.6-.9,2.5-1.3c.8-.4,1.7-.9,2.5-1.3.8-.4,1.5-.8,2.1-1.2s1.1-.7,1.5-.9c.3-.2.5-.4.5-.4,0,0-.1.2-.4.5-.1.2-.3.4-.5.6-.2.2-.4.5-.7.7-.6.5-1.2,1-2,1.5s-1.6,1-2.4,1.4c-1.7.9-3.5,1.7-4.9,2.1-.7.2-1.3.4-1.7.5-.6.1-.8.2-.8.2Z"/>
    <path d="m224.49,106s.1.3.4,1c.2.6.5,1.5.9,2.5.7,2.1,1.6,5,2.3,7.8.8,2.9,1.4,5.8,1.9,8,.2,1.1.4,2,.5,2.7.1.6.1,1,.1,1,0,0-.5-1.4-1.1-3.5-.7-2.1-1.5-5-2.3-7.8-.8-2.9-1.5-5.8-1.9-7.9-.2-1.1-.4-2-.5-2.6-.2-.9-.3-1.2-.3-1.2Z"/>
    <path class="cls-4" d="m251.89,75.7l4.7,8.9s-1,1.4-2.2,1.4"/>
    <path class="cls-4" d="m257.39,86.2s4.2.7.8,12.6"/>
    <path d="m258.79,99.4s.3.5.6,1.3c.2.4.4.9.6,1.5.2.6.4,1.3.6,2.1.2.8.4,1.6.5,2.5s.2,1.9.2,2.9c0,.5,0,1-.1,1.6,0,.5-.1,1.1-.2,1.6-.2,1.1-.6,2.1-1.2,3.2-.3.5-.7.9-1,1.4-.4.4-.7.8-1.1,1.1-.7.8-1.5,1.4-2.3,2.1-1.5,1.3-3,2.3-4.3,3.2-2.6,1.7-4.6,2.5-4.6,2.5,0,0,1.6-1.4,3.9-3.4,1.1-1,2.5-2.2,3.8-3.6.7-.7,1.4-1.4,2-2.1.3-.4.7-.7,1-1.1.2-.4.6-.7.8-1.1.5-.8.8-1.7,1-2.6.1-.5.2-.9.3-1.4s.1-.9.2-1.4c0-.5.1-.9.1-1.4v-1.3c0-.9-.1-1.7-.1-2.4-.1-1.5-.3-2.8-.5-3.7-.2-1-.2-1.5-.2-1.5Z"/>
    <path d="m247.39,123s-.2,1-.9,2.6c-.3.8-.7,1.8-1.2,2.9s-1.1,2.3-1.8,3.6c-.7,1.3-1.5,2.7-2.4,4.1-.9,1.4-1.9,2.9-3,4.4s-2.3,3-3.6,4.5c-1.2,1.5-2.7,2.9-4,4.4-1.4,1.4-2.9,2.7-4.3,4.1-1.5,1.3-3,2.5-4.4,3.6-1.5,1.1-3,2.1-4.4,3.1s-2.8,1.8-4.1,2.5c-1.3.8-2.4,1.5-3.5,2s-2,1-2.8,1.4c-1.5.8-2.4,1.2-2.4,1.2,0,0,.8-.6,2.2-1.5.7-.5,1.6-1,2.6-1.7,1-.6,2.1-1.5,3.3-2.3.6-.4,1.2-.9,1.9-1.3.6-.5,1.3-.9,2-1.5,1.3-1,2.7-2.1,4.1-3.3,1.4-1.2,2.8-2.5,4.2-3.7,1.4-1.3,2.8-2.7,4.2-4,1.3-1.4,2.7-2.8,4-4.2,1.2-1.4,2.5-2.8,3.6-4.3,1.2-1.4,2.2-2.8,3.2-4.2.5-.7.9-1.4,1.4-2,.4-.7.9-1.3,1.3-1.9.8-1.2,1.5-2.4,2.1-3.4s1.1-1.9,1.5-2.7c.4-.8.7-1.4.9-1.8.2-.4.3-.6.3-.6Z"/>
    <line class="cls-4" x1="209.39" y1="161.2" x2="195.29" y2="218.9"/>
    <path d="m236.69,94.8s-.4.5-.8,1.2c-.2.4-.3.8-.4,1.3,0,.2,0,.4.1.7.1.2.1.4.3.6.1.2.3.5.5.7s.3.4.5.6c.3.4.7.8.9,1.1.6.6,1,1,1,1,0,0-.6-.1-1.4-.6-.4-.2-.8-.6-1.2-.9-.2-.2-.4-.4-.6-.6-.2-.3-.4-.4-.6-.7-.2-.3-.3-.6-.4-1-.1-.3-.1-.7,0-1s.2-.6.3-.8c.1-.2.3-.4.5-.6.7-.8,1.3-1,1.3-1Z"/>
    <path d="m245.69,89.6s-.2.1-.5.3c-.3.2-.8.6-.9,1.1-.1.3-.1.6-.1.9s.2.7.3,1c.1.4.3.8.5,1.2.2.4.3.8.5,1.2.3.8.7,1.6,1.2,1.9.3.2.6.3.9.3h1c.6-.1,1.2-.2,1.6-.3.4-.1.6-.1.6-.1,0,0-.2.1-.5.3l-.6.3c-.3.1-.5.2-.9.3-.3.1-.7.2-1.2.2-.4,0-.9-.1-1.4-.3-.4-.3-.8-.6-1-1.1-.3-.4-.5-.8-.6-1.3-.3-.9-.6-1.7-.8-2.5-.1-.4-.2-.9-.2-1.3s.1-.9.3-1.2c.4-.7,1-1,1.4-1.1.2.2.4.2.4.2Z"/>
    <path class="cls-3" d="m250.49,84s-1,.8-1.8,2.2"/>
    <path d="m251.89,92.5s.1-.2.4-.5c.2-.3.6-.6.9-.8.3-.3.7-.5.9-.8.1-.1.2-.2.3-.3l.1-.1s.1.3,0,.6c-.1.4-.4.8-.8,1.1-.4.3-.8.5-1.2.6-.3.2-.6.2-.6.2Z"/>
    <path d="m208.39,102.2s.1,0,.1.1c.1.1.2.3.2.5.1.2.1.5.2.8v1.1c-.1.8-.3,1.7-.6,2.7s-.7,2-1.1,2.9c-.8,1.9-1.9,3.8-2.8,5.1-.4.7-.8,1.2-1.1,1.6s-.4.6-.4.6c0,0,.1-.3.3-.7.2-.4.4-1,.8-1.7.3-.7.7-1.6,1.1-2.4.4-.9.9-1.8,1.3-2.8.2-.5.4-.9.6-1.4.2-.5.4-.9.6-1.4.4-.9.6-1.8.8-2.5.1-.4.2-.7.2-1s.1-.6,0-.8c0-.2-.1-.4-.1-.5,0-.2-.1-.2-.1-.2Z"/>
  </g>
</svg>