<?xml version="1.0" encoding="UTF-8"?>
<svg id="Lager_1" data-name="Lager 1" xmlns="http://www.w3.org/2000/svg" xmlns:xlink="http://www.w3.org/1999/xlink" viewBox="0 0 343.8 274.7">
  <defs>
    <style>
      .cls-1 {
        fill: url(#linear-gradient-2);
      }

      .cls-2 {
        fill: #fff;
      }

      .cls-3, .cls-4, .cls-5, .cls-6 {
        fill: none;
        stroke: #000;
      }

      .cls-3, .cls-5 {
        stroke-linecap: round;
      }

      .cls-4 {
        stroke-width: .5px;
      }

      .cls-5 {
        stroke-width: 2px;
      }

      .cls-7 {
        fill: url(#linear-gradient-3);
      }

      .cls-8 {
        fill: url(#linear-gradient);
      }
    </style>
    <linearGradient id="linear-gradient" x1="171.88" y1="1196.99" x2="181.71" y2="1173.27" gradientTransform="translate(0 -964.66)" gradientUnits="userSpaceOnUse">
      <stop offset="0" stop-color="#fff"/>
      <stop offset="1" stop-color="#ededed"/>
    </linearGradient>
    <linearGradient id="linear-gradient-2" x1="-77.56" y1="-677.4" x2="-69.02" y2="-664.72" gradientTransform="translate(79.15 -414.13) rotate(-24.71) scale(1 -1)" gradientUnits="userSpaceOnUse">
      <stop offset="0" stop-color="#fff"/>
      <stop offset="1" stop-color="#ededed"/>
    </linearGradient>
    <linearGradient id="linear-gradient-3" x1="217.33" y1="-416.32" x2="227.56" y2="-401.12" gradientTransform="translate(-102.44 -296.18) rotate(12.66) scale(1 -1)" gradientUnits="userSpaceOnUse">
      <stop offset="0" stop-color="#fff"/>
      <stop offset="1" stop-color="#ededed"/>
    </linearGradient>
  </defs>
  <rect class="cls-2" x="3.3" y="23.95" width="339.3" height="226.8"/>
  <g>
    <polygon class="cls-8" points="200.7 236.45 212.2 202.65 192.6 198.25 177.4 190.45 175.3 185.95 163.9 200.25 144.5 224.75 200.7 236.45"/>
    <path class="cls-3" d="m177.4,190.45s9.8,11.1,29.9,11.8"/>
    <path class="cls-5" d="m239.8,115.45s5,4.1,6.4,5.6c1.1,1.2-.2,11.5-1.9,14.7-1.8,3.2-6,11.8-6.9,23.5-1.3,15.9-19.8,30.1-23.7,35.4l-10.4,40.1"/>
    <path class="cls-5" d="m144.5,224.75s32.4-35.4,33.6-43.2c1.2-7.8-5.9-58.6-5.9-62s5.2-11.5,5.2-11.5"/>
    <path class="cls-5" d="m182.1,122.15s-5-24.9-5.1-28.3c-.2-3.4,1.2-25.7,1.2-25.7"/>
    <line class="cls-5" x1="179.8" y1="67.15" x2="179.5" y2="55.45"/>
    <line class="cls-5" x1="229.6" y1="141.85" x2="229" y2="129.35"/>
    <path d="m178.5,55.05c1.2-.2,2.4-.2,3.7-.1,1.2.1,2.5.4,3.7.8,1.2.5,2.3,1.2,3.3,2.2.5.5.9,1,1.2,1.6.4.6.6,1.2.9,1.9.2.7.4,1.4.5,2,.1.7.2,1.4.2,2.1v2c0,.7,0,1.3-.1,2-.1,1.3-.2,2.7-.4,4-.1.7-.2,1.3-.4,2-.1.3-.2.7-.3,1-.1.2-.2.4-.2.5l-.2.3c-.1.1-.1.2-.3.4l.2-1.4c.2.4.3.8.5,1.2s.3.8.4,1.2c.3.8.5,1.6.7,2.5.4,1.7.8,3.4,1,5.1.1.9.2,1.7.3,2.6s.1,1.7.2,2.6v2.6c0,.9-.1,1.7-.1,2.6l-.1-.5c.3.7.6,1.4.9,2.1.3.7.5,1.4.7,2.2.5,1.4.8,2.9,1.1,4.4.2,1.5.4,3,.3,4.6,0,1.5-.3,3-.8,4.4.3-1.5.3-3,.2-4.4-.1-1.5-.4-2.9-.7-4.3-.4-1.4-.8-2.8-1.4-4.1-.3-.7-.6-1.3-.9-2-.3-.6-.6-1.3-1-1.9l-.1-.2v-.3c0-.8,0-1.7-.1-2.5s-.1-1.7-.2-2.5c-.1-.8-.2-1.6-.3-2.5,0-.4-.1-.8-.2-1.2-.1-.4-.1-.8-.2-1.2-.3-1.6-.6-3.2-1-4.8-.2-.8-.4-1.6-.7-2.4-.1-.4-.2-.8-.4-1.2-.1-.4-.3-.8-.4-1.1l.2-1.4c-.1.1,0,0,0,0l.1-.1c.1-.1.1-.2.2-.3.1-.2.2-.5.3-.8.2-.6.3-1.2.4-1.8.2-1.2.4-2.5.5-3.7.1-.6.1-1.3.2-1.9,0-.6.1-1.3.1-1.9v-1.8c-.1-.6-.2-1.2-.3-1.8-.2-.6-.3-1.1-.6-1.7-.2-.5-.6-1-.9-1.5-.7-.9-1.7-1.6-2.7-2.2-1-.6-2.2-.9-3.4-1.2-1.2-.1-2.4-.2-3.6-.2Z"/>
    <path class="cls-5" d="m195.9,99.65c6.4-3.2,11.7-7.1,17.1-7.4,7.4-.4,12.2,14.8,14.9,21.3,1.7,4.2,2.2,16,2.2,16"/>
    <path class="cls-5" d="m194.9,96.65s9-5.7,17.2-9.8c8.1-4.1,19.9,22.1,19.9,22.1"/>
    <path d="m201.2,113.25s.2.1.4.3c.3.2.6.5,1.1.7.2.1.5.2.7.3.3.1.5.2.8.2.3.1.5,0,.8,0,.3-.1.6-.1.8-.2l.4-.1c.1-.1.3-.1.4-.2.1-.1.3-.1.4-.2.1-.1.3-.2.4-.3.3-.2.5-.3.8-.5.2-.2.5-.3.7-.5s.4-.3.6-.4c.2-.1.4-.2.5-.3.3-.2.5-.3.5-.3,0,0-.1.2-.2.5-.1.2-.1.4-.3.6-.1.2-.2.5-.4.7-.2.3-.4.5-.6.8-.2.3-.5.6-.8.8-.3.3-.6.5-1,.7-.2.1-.4.2-.5.3-.2.1-.4.2-.6.2-.4.2-.9.2-1.3.2s-.9-.1-1.3-.3c-.4-.1-.7-.4-1-.6-.3-.3-.5-.5-.7-.8-.4-.5-.6-1-.7-1.4.1,0,.1-.2.1-.2Z"/>
    <path d="m210.1,112.65c-.1.7-.2,1.5-.2,2.2s0,1.5.1,2.2.2,1.4.4,2.1.4,1.3.7,1.9.6,1.2,1,1.7c.2.3.4.5.6.8.2.2.4.5.7.7.5.5,1,.9,1.5,1.3s1.1.8,1.7,1.1l.6.4v2.1c0,.5.1,1,.1,1.5.1,1,.3,1.9.5,2.9.1.5.2.9.4,1.4.1.5.3.9.5,1.3s.4.9.6,1.3c.2.4.5.8.7,1.2.3.4.6.7.9,1.1l.5.5.5.4c.4.3.7.5,1.2.7.4.2.8.4,1.3.5.4.1.9.3,1.3.4.5.1.9.2,1.4.2.5.1.9.1,1.4.1h1.5c-.5.1-.9.3-1.4.4s-1,.2-1.5.2c-.5.1-1,.1-1.5.1s-1-.1-1.5-.1c-.5-.1-1-.2-1.5-.4-.5-.2-1-.4-1.4-.7-.5-.3-.9-.6-1.3-.9-.4-.4-.8-.7-1.2-1.2-.4-.4-.7-.8-1-1.3s-.6-.9-.8-1.4c-.5-1-.9-2-1.1-3.1-.3-1.1-.5-2.1-.6-3.2-.1-.5-.1-1.1-.1-1.6v-1.7l.6,1.1c-1.3-.8-2.5-1.7-3.6-2.9-.3-.3-.5-.6-.7-.9s-.5-.7-.7-1c-.4-.7-.7-1.4-1-2.2-.5-1.5-.7-3.2-.5-4.7-.2-1.7.2-3.2.9-4.5Z"/>
    <path d="m202.6,112.75c1.2,2.4,2,5,2.4,7.8.4,2.7.3,5.6-.5,8.2v-.3c1.4,2.9,2.8,5.8,4.2,8.7,1.4,2.9,2.8,5.8,4.1,8.7l4.1,8.8,4,8.8h0c.2.4.4.8.5,1.2s.2.8.3,1.3c.1.4.1.9.1,1.3v.6c0,.2,0,.4-.1.6-.1.4-.1.8-.2,1.3-.1.4-.2.8-.3,1.2s-.3.8-.5,1.2l-.6,1.1.5-1.2c.1-.4.3-.8.4-1.2.1-.4.2-.8.3-1.2s.1-.8.2-1.2v-1.2c0-.4-.1-.8-.2-1.2-.1-.4-.2-.8-.3-1.2s-.3-.8-.5-1.1h0l-4.2-8.7-4.2-8.7c-1.4-2.9-2.7-5.8-4.1-8.8-1.3-2.9-2.7-5.8-4.1-8.8l-.1-.2.1-.1c.9-2.5,1-5.2.7-7.9-.1-1.3-.4-2.7-.7-4-.4-1.2-.8-2.5-1.3-3.8Z"/>
    <line class="cls-5" x1="239.6" y1="115.95" x2="234" y2="111.25"/>
    <path d="m233.2,111.25s-.2.4-.4,1c-.1.3-.3.7-.5,1.1-.1.4-.3.9-.5,1.5-.1.3-.2.5-.2.8-.1.3-.1.6-.2.9-.2.6-.2,1.3-.3,1.9,0,.7-.1,1.4-.1,2,0,.3,0,.7.1,1l.2,1c0,.3.1.7.2,1,.1.3.2.7.3,1,.3.6.5,1.3.8,1.9s.7,1.1,1,1.7c.4.5.7,1,1,1.5.2.2.3.5.5.7s.3.4.5.6c.3.3.5.7.7.9.4.5.6.9.6.9,0,0-.3-.2-.9-.5-.3-.2-.6-.4-1-.6-.2-.1-.4-.3-.6-.4-.2-.2-.4-.4-.6-.5-.4-.4-.9-.8-1.4-1.3-.4-.5-.9-1.1-1.3-1.7-.4-.7-.8-1.4-1.1-2.1-.1-.4-.3-.8-.4-1.2-.1-.4-.3-.8-.3-1.2l-.2-1.3c-.1-.4,0-.8,0-1.3,0-.8.2-1.6.3-2.4.1-.4.2-.7.3-1.1s.2-.7.4-1c.1-.3.3-.6.4-.9.2-.3.3-.6.5-.8.3-.5.6-.9.9-1.3.3-.4.6-.7.8-.9.1-.7.5-.9.5-.9Z"/>
    <path d="m234.6,110.95s.1.1.2.2c.1.1.2.4.3.7.3.6.6,1.5.7,2.6.1.6.1,1.2.1,1.9,0,.6-.2,1.4-.3,2s0,1.3.2,1.9.5,1.2,1,1.7c.4.5.9,1.1,1.4,1.5s1.1.8,1.2.5c.3-.3.4-1.1.5-1.7s.1-1.2.1-1.8v-3.7s.2,1.5.5,3.7c0,.6.1,1.2.1,1.8,0,.3,0,.7-.1,1-.1.4-.1.7-.4,1.1-.2.2-.4.3-.7.4-.2,0-.5,0-.7-.1-.4-.2-.7-.4-1-.6-.5-.5-1.1-1-1.5-1.6-.5-.6-.9-1.3-1.2-2-.3-.8-.3-1.6-.2-2.4.2-.7.3-1.3.4-1.9.1-.6.1-1.2.1-1.7,0-1.1-.1-2-.3-2.6-.3-.5-.4-.9-.4-.9Z"/>
    <path d="m227.3,130.05s.1,0,0,0-.2.1-.3.2c-.2.2-.5.6-.8,1-.6.9-1,2.4-1.4,3.8-.4,1.5-.7,3-1,4.2-.1.6-.3,1.1-.4,1.4-.1.3-.2.5-.2.5,0,0-.2-.8-.3-2s0-2.9.4-4.5,1.2-3.2,2.2-4c.5-.4.9-.7,1.3-.7.3,0,.4,0,.5.1q.1-.1,0,0,.1,0,0,0h0Z"/>
    <path d="m197.6,187.65s.2.1.5.2c.3.1.8.1,1.3.2,1.1,0,2.5-.2,3.9-.5s2.8-.8,3.9-1.1c1.1-.3,1.8-.5,1.8-.5,0,0-.6.5-1.6,1-.5.3-1.1.6-1.7.8-.3.1-.7.3-1,.4-.4.1-.7.2-1.1.3-.7.2-1.5.3-2.2.3h-1c-.3,0-.6-.1-.9-.1-.6-.1-1-.3-1.3-.5-.5-.3-.6-.5-.6-.5Z"/>
    <path d="m216.5,157.65s.2.2.4.7c.2.4.6,1.1.9,1.9.1.4.3.8.4,1.3.1.5.3,1,.4,1.5.1.5.2,1.1.3,1.6.1.6.1,1.1.1,1.7,0,1.2,0,2.3-.1,3.4-.1,1.1-.3,2.1-.4,2.9-.1.8-.4,1.5-.5,2s-.2.7-.2.7c0,0,0-.3.1-.8,0-.5.1-1.2.2-2,0-.4.1-.9.1-1.4s0-1,.1-1.5v-3.3c0-.6-.1-1.1-.1-1.7-.1-.5-.1-1.1-.2-1.6-.1-.5-.1-1-.2-1.5-.1-.5-.2-.9-.3-1.3-.2-.8-.4-1.5-.5-2-.4-.3-.5-.6-.5-.6Z"/>
  </g>
  <g>
    <g id="Färg">
      <polygon class="cls-1" points="316.6 234.75 315 212.25 315.7 196.15 312.2 198.05 298.6 199.45 287.3 198.15 276 194.85 266.9 234.55 316.6 234.75"/>
    </g>
    <path d="m274.4,41.95c1.1-.6,2.4-1.1,3.7-1.3,1.3-.2,2.7-.1,4,.3s2.5,1.3,3.5,2.4,1.7,2.4,2.2,3.7c1,2.7,1.4,5.6,1.5,8.4s0,5.6-.3,8.4l-.2-.8c.3.5.5.9.7,1.3.2.4.4.9.5,1.3.3.9.6,1.8.9,2.7.5,1.9.9,3.8,1,5.7.2,1.9.2,3.9.1,5.8-.2,1.9-.5,3.8-1,5.7v-.6c.5,2.1.9,4.2,1.2,6.3.2,1.1.3,2.1.5,3.2.1,1.1.2,2.1.3,3.2.1,1.1.2,2.1.2,3.2v3.2c0,.5-.1,1.1-.1,1.6s-.1,1.1-.1,1.6c-.1.5-.1,1.1-.2,1.6l-.3,1.6.1-1.6v-1.6c0-1.1-.1-2.1-.1-3.2l-.1-1.6c0-.5-.1-1-.2-1.6-.1-1-.3-2.1-.4-3.1-.3-2.1-.7-4.1-1.2-6.2-.2-1-.5-2.1-.7-3.1-.3-1-.5-2-.8-3l-.1-.3.1-.3c.4-1.7.6-3.5.8-5.3.1-1.8.1-3.6-.1-5.3-.2-1.8-.5-3.5-1-5.2-.2-.9-.5-1.7-.8-2.5-.2-.4-.3-.8-.5-1.2s-.4-.8-.5-1.1l-.2-.4v-.4c.1-1.3.3-2.7.4-4s.1-2.7.1-4c0-2.7-.3-5.3-1-7.8-.4-1.2-.9-2.4-1.6-3.4s-1.7-1.8-2.8-2.3c-1.1-.5-2.3-.7-3.6-.7-1.4.1-2.7.3-3.9.7Z"/>
    <path class="cls-6" d="m279,195.45s10.2,7.5,33.8,2.4"/>
    <path d="m276.5,42.65s.2,0,.6.1,1,.2,1.6.5c.3.2.7.4,1,.7.3.3.6.7.8,1.3.1.3.1.6.1.9,0,.2,0,.5-.1.7-.1.5-.1,1-.2,1.5-.4,2-1.2,3.9-2.3,5-.5.6-1.1.8-1.5.9-.2.1-.4.1-.5.1h-.2s.2,0,.6-.2.8-.5,1.2-1.1c.8-1.1,1.4-3,1.8-4.9.1-.5.2-.9.2-1.4,0-.2.1-.5.1-.7v-.5c-.1-.7-.7-1.3-1.3-1.7-.5-.4-1.1-.7-1.4-.9-.3-.2-.5-.3-.5-.3Z"/>
    <path class="cls-5" d="m275.5,103.55c.2-1.7,1.2-29.3,1.2-29.3l-1.4-20"/>
    <path class="cls-5" d="m283.5,117.75s18.8-10.2,23.7-12.8c4.9-2.6,13.9,7.8,17.6,12.1s4.4,9.1,3.4,11.7"/>
    <path class="cls-5" d="m286.9,127.15s25-6.7,28.3-6.5,13.6,10.5,15.9,14.4c2.3,3.8-1.7,10.3-1.7,10.3"/>
    <line class="cls-5" x1="329.6" y1="144.75" x2="326.4" y2="154.35"/>
    <path class="cls-5" d="m325.3,100.55s3.5-9.3,13.8-5.3"/>
    <line class="cls-5" x1="339.4" y1="95.65" x2="336.8" y2="107.25"/>
    <path class="cls-5" d="m336.6,103.35s2.6,10.3,1.4,13.7c-1.2,3.4-5.7,14.5-5.7,14.5"/>
    <path class="cls-5" d="m325.7,156.95s-1.5,13.1-10.4,25.2l1.6,48.8"/>
    <line class="cls-5" x1="276.1" y1="53.45" x2="275.1" y2="42.55"/>
    <path d="m306.7,139.25c.5.2,1,.3,1.5.4s1,.2,1.5.2h1.4c.5,0,1-.1,1.5-.1.2,0,.5-.1.7-.1s.5-.1.7-.2l.7-.2.7-.3c.5-.1.9-.4,1.3-.6.2-.1.4-.2.6-.4l.6-.4,1.3-.8v2.5c0,.3.1.6.1.9.1.6.3,1.1.6,1.6.3.5.6.8,1,1s.9.3,1.4.3l2-.1-1.4,1.5c-.1.2-.3.4-.5.6s-.3.5-.4.7c-.3.5-.5,1-.6,1.5-.2,1-.2,2.2.3,3.2s1.2,1.9,2.1,2.7c.4.4.9.7,1.4,1.1.5.3,1,.7,1.5,1-.5-.2-1.1-.4-1.6-.6-.5-.2-1.1-.5-1.6-.9-1-.7-2-1.5-2.7-2.6-.3-.6-.6-1.2-.7-1.9-.1-.7-.1-1.4,0-2.1s.3-1.4.6-2c.1-.3.3-.6.5-.9s.3-.6.6-.9l.7,1.5c-.7.1-1.5.1-2.3-.3-.8-.3-1.4-1-1.8-1.7s-.7-1.5-.8-2.2c-.1-.4-.1-.8-.1-1.1v-1.2l1.3.9-.7.4c-.2.1-.5.3-.7.4-.5.2-1,.4-1.5.6-.3.1-.5.2-.8.2l-.8.1c-.3.1-.5.1-.8.1s-.5.1-.8,0c-.5,0-1.1,0-1.6-.1s-1.1-.2-1.6-.3c-1-.3-1.9-.8-2.8-1.4Z"/>
    <path d="m310.9,139.15s.2,0,.5.2c.3.1.7.4,1.1.7.2.2.4.4.6.7.2.2.4.6.5.9s.3.7.4,1.1.1.8.2,1.2c0,.4,0,.8-.1,1.2-.1.4-.2.7-.3,1.1-.2.3-.3.6-.5.9s-.4.5-.5.7c-.3.4-.7.7-1,.9-.3.2-.4.3-.4.3,0,0,0-.2.1-.5s.2-.7.3-1.2c.1-.2.1-.5.2-.8,0-.3.1-.5.2-.8,0-.3.1-.6.1-.8v-.8c0-.6-.1-1.1-.2-1.7-.1-.3-.1-.5-.2-.8s-.2-.5-.3-.7c-.2-.4-.3-.8-.5-1.1-.1-.5-.2-.7-.2-.7Z"/>
    <path d="m312.3,145.85s.1.1.3.3c.2.2.4.5.7.9.5.8,1.2,2.1,1.9,3.6.7,1.6,1.4,3.4,1.9,5.5s.9,4.4,1,6.7c.1,1.2.1,2.3,0,3.4,0,1.1-.2,2.2-.4,3.3-.1.5-.2,1.1-.3,1.6-.1.5-.3,1-.4,1.5-.3.9-.6,1.8-.9,2.6s-.7,1.5-1,2.1-.6,1.1-.9,1.5c-.5.8-.9,1.3-.9,1.3,0,0,.2-.5.7-1.4.2-.4.4-1,.7-1.6.2-.6.5-1.3.7-2.1.3-.8.5-1.7.7-2.6.2-.9.4-1.9.5-2.9s.2-2.1.2-3.2v-3.3c-.2-4.4-1.3-8.8-2.4-12-.5-1.6-1-2.9-1.4-3.8-.2-.4-.4-.8-.5-1-.1-.3-.2-.4-.2-.4Z"/>
    <polyline class="cls-2" points="288.7 97.25 294.8 93.05 296.3 108.25 293.3 110.35 287.7 110.65"/>
    <path class="cls-5" d="m268.1,229.55s8.7-36.8,8.6-43.1-10.4-62.2-9.9-67.1c.6-4.9,16.7-16.1,22.5-20.1s15-9.9,18.8-7.5,17.4,11.4,18.6,15.2c1.2,3.8,1.4,12,1.4,12"/>
  </g>
  <g>
    <g id="Färg-2" data-name="Färg">
      <polygon class="cls-7" points="31.9 180.65 49.6 146.85 49.4 142.75 43.6 139.75 37.7 134.05 34.2 124.65 36.6 105.75 2.4 136.95 31.9 180.65"/>
    </g>
    <path d="m139.9,178.05s-.2-.3-.5-.8-.8-1.2-1.4-2c-.3-.4-.6-.9-1-1.3-.2-.2-.4-.4-.6-.7-.2-.2-.4-.4-.6-.4-.1,0-.4,0-.7.1s-.6.2-.8.3c-.6.3-1.1.6-1.7.9-.6.3-1.1.7-1.6,1.1-.2.2-.5.4-.7.6-.2.2-.2.4-.3.7-.1.6,0,1.2.1,1.7.1.6.3,1.1.5,1.6.4,1,.8,1.7,1.1,2.2s.5.8.5.8l-.2-.2-.5-.5c-.4-.5-.9-1.2-1.4-2.1-.2-.5-.5-1-.6-1.6-.2-.6-.3-1.3-.2-2,0-.4.2-.8.4-1.2l.8-.8c.5-.4,1.1-.8,1.7-1.2s1.2-.7,1.8-.9c.3-.1.6-.3,1-.4.2,0,.3-.1.5-.1h.6c.5.2.6.5.9.7.2.3.4.5.6.8.3.5.6,1,.9,1.5.9,1.9,1.4,3.2,1.4,3.2Z"/>
    <path d="m124.9,180.15s-.2-.3-.5-.8-.8-1.2-1.3-2c-.3-.4-.6-.8-.9-1.3-.3-.4-.7-.9-1.1-1.2-.2-.2-.8,0-1.3.2s-1.1.5-1.6.8-1.1.6-1.6,1-1,.7-1.2,1.1c-.2.4-.2,1-.1,1.5s.3,1,.4,1.5c.4.9.8,1.6,1.1,2.1.3.5.5.8.5.8,0,0-.2-.2-.6-.7-.4-.4-.9-1.1-1.4-2-.2-.4-.5-1-.6-1.6s-.2-1.3.1-2.1c.4-.7.9-1.1,1.4-1.5s1.1-.7,1.6-1.1c.6-.3,1.2-.6,1.8-.9.3-.1.6-.2,1-.3.2,0,.4-.1.6,0,.2,0,.5.2.6.3.6.5.9,1,1.2,1.5.3.5.6,1,.8,1.4.6,2,1.1,3.3,1.1,3.3Z"/>
    <path d="m145.8,167.65s-.5-.7-1.2-1.8c-.4-.5-.8-1.1-1.3-1.8-.2-.3-.5-.6-.7-.9-.3-.3-.6-.6-.8-.7h-.4c-.2,0-.3.1-.5.2-.3.1-.7.3-1,.5-.7.4-1.3.7-1.8,1s-1,.6-1.3.8-.5.3-.5.3c0,0,.1-.2.3-.5s.6-.7,1.1-1.2c.5-.4,1.1-.9,1.8-1.3.3-.2.7-.4,1.1-.5.2-.1.4-.1.7-.2h.4c.1,0,.3.1.4.1.5.3.7.7,1,1,.3.4.5.7.7,1.1.4.7.8,1.4,1,2,.7,1.1,1,1.9,1,1.9Z"/>
    <path class="cls-5" d="m8.2,131.65c2.4-2.9,38.3-39.6,53-41.5,11.2-1.5,50.7,13.9,50.7,13.9,0,0,6.4-.7,11.5,12.2l14.3,25.1,9.6,25.2s1.9,7.4-6.8,7.8"/>
    <path class="cls-5" d="m38.2,169.95s10.2-20.6,16.1-27.5"/>
    <path class="cls-5" d="m50.4,136.25s9.6,9.5,20.8,10.8"/>
    <path class="cls-5" d="m112.8,120.65l13.6,23,15.8,34.9s-2,6.5-9.3,5.9c-6.4-.5-9.1-9-9.1-9"/>
    <line class="cls-5" x1="113.6" y1="117.25" x2="115.3" y2="124.85"/>
    <path class="cls-5" d="m100,127.65l12.8,24.8,14.3,30.4s-5.2,8.8-11.3,2.8c-3.6-3.6-15.8-21.8-15.8-21.8l-14.6-25.3-2.2-1.4"/>
    <path class="cls-5" d="m68.8,142.05l13.9,19.2s8.1,8.3,13.4-1.6"/>
    <path class="cls-5" d="m88.2,168.15s-.9,4.3,3.2,7.3"/>
    <line class="cls-5" x1="92.8" y1="176.55" x2="99.3" y2="169.95"/>
    <line class="cls-5" x1="96.9" y1="170.35" x2="102.3" y2="169.85"/>
    <path class="cls-6" d="m37,108.55s-11.4,24.6,13.3,34.4"/>
    <path class="cls-3" d="m100.5,110.25s6.8,1,8.6,9.5"/>
    <path class="cls-4" d="m124.2,145.95s-7.3,3-8.5,4.5"/>
    <path class="cls-4" d="m124.3,148.25s-2.9,2-7,3.5"/>
    <path class="cls-4" d="m110.3,152.65s-4.3,4.2-8.9,5.9"/>
    <path class="cls-4" d="m109.4,151.35s-6.7,3-9.1,5.8"/>
    <path class="cls-4" d="m134.8,140.15s-2.8.4-6.1,3.5"/>
    <path class="cls-4" d="m135.8,141.35s-1.3,1.9-7.4,3.6"/>
  </g>
</svg>