<?xml version="1.0" encoding="UTF-8"?>
<svg id="Lager_1" data-name="Lager 1" xmlns="http://www.w3.org/2000/svg" xmlns:xlink="http://www.w3.org/1999/xlink" viewBox="0 0 397.8 317.84">
  <defs>
    <style>
      .cls-1 {
        fill: url(#linear-gradient-2);
      }

      .cls-2 {
        stroke-width: 1.6px;
      }

      .cls-2, .cls-3, .cls-4, .cls-5, .cls-6, .cls-7 {
        fill: none;
        stroke: #000;
      }

      .cls-2, .cls-3, .cls-4, .cls-6 {
        stroke-linecap: round;
      }

      .cls-8 {
        fill: #fff;
      }

      .cls-3 {
        stroke-width: .75px;
      }

      .cls-5 {
        stroke-width: .5px;
      }

      .cls-6 {
        stroke-width: 2px;
      }

      .cls-9 {
        fill: url(#linear-gradient-3);
      }

      .cls-10 {
        fill: url(#linear-gradient);
      }
    </style>
    <linearGradient id="linear-gradient" x1="210.75" y1="-363.29" x2="220.97" y2="-348.12" gradientTransform="translate(-110.81 -220.68) rotate(12.66) scale(1 -1)" gradientUnits="userSpaceOnUse">
      <stop offset="0" stop-color="#fff"/>
      <stop offset="1" stop-color="#ededed"/>
    </linearGradient>
    <linearGradient id="linear-gradient-2" x1="168.28" y1="1209.69" x2="178.64" y2="1184.68" gradientTransform="translate(0 -964.66)" gradientUnits="userSpaceOnUse">
      <stop offset="0" stop-color="#fff"/>
      <stop offset="1" stop-color="#ededed"/>
    </linearGradient>
    <linearGradient id="linear-gradient-3" x1="275.94" y1="-526.69" x2="282.67" y2="-516.7" gradientTransform="translate(0 -296.19) scale(1 -1)" gradientUnits="userSpaceOnUse">
      <stop offset="0" stop-color="#fff"/>
      <stop offset="1" stop-color="#ededed"/>
    </linearGradient>
  </defs>
  <rect class="cls-8" y="45.52" width="397" height="226.8"/>
  <g>
    <g id="Färg">
      <polygon class="cls-10" points="28.5 202.72 45.6 168.92 45.4 164.72 39.8 161.82 34.1 156.12 30.7 146.72 33.1 127.82 0 159.02 28.5 202.72"/>
    </g>
    <path d="m132.9,200.12s-.2-.3-.5-.8-.8-1.2-1.4-2c-.3-.4-.6-.9-.9-1.3-.2-.2-.4-.4-.5-.7-.2-.2-.4-.4-.5-.4s-.4,0-.7.1-.5.2-.8.3c-.6.3-1.1.6-1.6.9-.5.3-1.1.7-1.6,1.1-.2.2-.5.4-.6.6-.2.2-.2.4-.3.7-.1.6,0,1.2.1,1.7.1.6.3,1.1.4,1.6.4,1,.7,1.7,1,2.2s.5.8.5.8c0,0-.1-.1-.2-.2-.1-.1-.3-.3-.4-.5-.4-.5-.9-1.2-1.3-2.1-.2-.5-.5-1-.6-1.6-.2-.6-.3-1.3-.2-2,0-.4.2-.8.4-1.2.2-.3.5-.5.7-.8.5-.4,1.1-.8,1.6-1.2s1.1-.7,1.7-.9c.3-.1.6-.3.9-.4.2,0,.3-.1.5-.1h.6c.4.2.6.5.8.7.2.3.4.5.5.8.3.5.6,1,.8,1.5,1.1,1.9,1.6,3.2,1.6,3.2Z"/>
    <path d="m118.4,202.22s-.2-.3-.5-.8-.8-1.2-1.3-2c-.3-.4-.6-.8-.9-1.3-.3-.4-.7-.9-1.1-1.2-.2-.2-.8,0-1.3.2s-1.1.5-1.6.8-1,.6-1.5,1-1,.7-1.2,1.1c-.2.4-.2,1-.1,1.5s.3,1,.4,1.5c.4.9.7,1.6,1,2.1s.4.8.4.8c0,0-.2-.2-.6-.7-.4-.4-.9-1.1-1.4-2-.2-.4-.5-1-.6-1.6s-.2-1.3.1-2.1c.3-.7.9-1.1,1.4-1.5s1-.7,1.6-1.1c.6-.3,1.1-.6,1.7-.9.3-.1.6-.2.9-.3.2,0,.4-.1.5,0,.2,0,.5.2.6.3.5.5.8,1,1.2,1.5.3.5.6,1,.8,1.4,1,2,1.5,3.3,1.5,3.3Z"/>
    <path d="m138.6,189.72s-.5-.7-1.2-1.8c-.4-.5-.8-1.1-1.2-1.8-.2-.3-.5-.6-.7-.9-.2-.3-.5-.6-.8-.7h-.3c-.2,0-.3.1-.5.2-.3.1-.7.3-1,.5-.6.4-1.2.7-1.7,1s-.9.6-1.2.8-.5.3-.5.3c0,0,.1-.2.3-.5s.6-.7,1-1.2c.5-.4,1-.9,1.7-1.3.3-.2.7-.4,1.1-.5.2-.1.4-.1.6-.2h.4c.1,0,.3.1.4.1.5.3.7.7,1,1,.2.4.5.7.7,1.1.4.7.7,1.4,1,2,.7,1,.9,1.9.9,1.9Z"/>
    <path class="cls-6" d="m5.6,153.72c2.3-2.9,37-39.6,51.2-41.5,10.8-1.5,49,13.9,49,13.9,0,0,6.1-.7,11.1,12.2l13.8,25.1,9.3,25.2s1.8,7.4-6.5,7.8"/>
    <path class="cls-6" d="m34.6,192.02s9.9-20.6,15.5-27.5"/>
    <path class="cls-6" d="m46.4,158.32s9.3,9.5,20.1,10.8"/>
    <path class="cls-6" d="m106.7,142.72l13.1,23,15.3,34.9s-1.9,6.5-9,5.9c-6.2-.5-8.8-9-8.8-9"/>
    <line class="cls-6" x1="107.5" y1="139.32" x2="109.1" y2="146.92"/>
    <path class="cls-6" d="m94.4,149.72l12.4,24.8,13.9,30.4s-5,8.8-10.9,2.8c-3.5-3.6-15.3-21.8-15.3-21.8l-14.1-25.3-2.1-1.4"/>
    <path class="cls-6" d="m64.2,164.12l13.4,19.2s7.8,8.3,12.9-1.6"/>
    <path class="cls-6" d="m82.9,190.22s-.8,4.3,3.1,7.3"/>
    <line class="cls-6" x1="87.4" y1="198.62" x2="93.7" y2="192.02"/>
    <line class="cls-6" x1="91.3" y1="192.42" x2="96.5" y2="191.92"/>
    <path class="cls-7" d="m33.4,130.52s-11,24.6,12.9,34.4"/>
    <path class="cls-4" d="m94.8,132.22s6.5,1,8.3,9.5"/>
    <path class="cls-5" d="m117.7,168.02s-7.1,3-8.2,4.5"/>
    <path class="cls-5" d="m117.8,170.22s-2.8,2-6.8,3.5"/>
    <path class="cls-5" d="m104.3,174.72s-4.1,4.2-8.6,5.9"/>
    <path class="cls-5" d="m103.4,173.42s-6.4,3-8.8,5.8"/>
    <path class="cls-5" d="m128,162.22s-2.7.4-5.9,3.5"/>
    <path class="cls-5" d="m129,163.42s-1.3,1.9-7.1,3.6"/>
  </g>
  <g>
    <polygon class="cls-1" points="196.6 250.62 206.4 210.42 186 208.52 163.7 199.42 164.1 201.22 156.3 214.02 140.7 237.62 196.6 250.62"/>
    <path class="cls-7" d="m168.5,200.82s13.5,10.1,35.3,9.2"/>
    <path class="cls-6" d="m144,234.62c0-1,22.9-37,23.7-41.9s12.5-70.1,12.5-70.1"/>
    <path class="cls-6" d="m178.9,122.52s-2-9.6,4.5-12.3"/>
    <path class="cls-6" d="m187.5,119.92l23.2-13c1.3-.7,3.4-.8,4.7-.3l15.8,6.3c1.3.5,2.9,2.1,3.5,3.5l2.2,4.9"/>
    <path class="cls-6" d="m187.9,108.12l28.7-15.6c1.3-.7,3.2-.5,4.4.3l19,14.1c1.2.9,2.7,2.7,3.3,4.1l2,4.2"/>
    <path class="cls-2" d="m227.4,84.52l4.2-.4c1.4-.1,3.3.7,4.3,1.8l9.7,11.3c1,1.1,2.2,3.2,2.7,4.7l1.4,3.8"/>
    <path class="cls-6" d="m184.3,109.52l33.4-26.5c1.2-.9,3-.9,4.1.1l20.8,17.2c1.1.9,2.6,2.8,3.2,4.2l2.9,6.1"/>
    <path class="cls-6" d="m203,131.92s4.6-.9,7.8-6.3"/>
    <path class="cls-6" d="m209.4,124.82s7.1,3.1,15.2,1.7"/>
    <path class="cls-6" d="m221.8,125.02s10.7,15.4,19.9,4l-4.8-6.9"/>
    <path class="cls-6" d="m242.5,130.62s5,1.3,7.8-5.8l-5.1-7.7"/>
    <path class="cls-6" d="m249.1,111.72l3.9,8s-1.4,3.1-2.6,3.3"/>
    <path class="cls-6" d="m222.9,130.12l3.6,9.7s2.7,2.2,6.8,2.2"/>
    <line class="cls-6" x1="230.7" y1="143.92" x2="240.2" y2="135.92"/>
    <path class="cls-6" d="m240,132.42s.8,4.2,1.2,5.9"/>
    <path d="m207.2,131.52s.2.1.4.6c.1.2.2.5.2.8.1.3.1.7.1,1v1.2c0,.4-.1.9-.1,1.4-.1.5-.1,1-.3,1.4-.1.5-.2,1-.4,1.5-.3,1-.6,1.9-.9,2.8-.2.4-.3.8-.5,1.2-.2.4-.3.8-.5,1.1-.3.7-.6,1.2-.8,1.6s-.3.6-.3.6c0,0,.1-.2.2-.7.1-.4.3-1,.5-1.7s.5-1.5.7-2.4c.3-.9.6-1.8.8-2.8.2-.5.3-.9.4-1.4.1-.5.2-.9.3-1.4.1-.4.2-.9.3-1.3,0-.4.1-.8.1-1.2.1-.7.1-1.3,0-1.8-.1-.3-.2-.5-.2-.5Z"/>
    <path d="m204.3,142.92s.1.9.2,2.4c.1,1.6.2,3.8.3,6.4.1,2.7.2,5.8.3,9.1.1,3.3.1,6.9.1,10.5,0,1.8-.1,3.6-.1,5.3,0,.9-.1,1.8-.2,2.6-.1.9-.1,1.7-.4,2.6-.5,1.7-1.4,3.1-2.2,4.3-.9,1.2-1.7,2.3-2.6,3.3-1.7,1.9-3.3,3.3-4.4,4.2-.6.5-1,.8-1.4,1-.3.2-.5.3-.5.3,0,0,.2-.1.5-.4.3-.2.7-.6,1.3-1.1,1.1-1,2.6-2.5,4.2-4.4.8-1,1.6-2.1,2.4-3.3.8-1.2,1.5-2.6,2-4.1.2-.7.3-1.6.3-2.4.1-.8.1-1.7.1-2.6.1-1.7.1-3.5.1-5.3v-26c0-1.5,0-2.4,0-2.4Z"/>
    <path d="m189.6,192.22s.2-.1.5-.3.8-.5,1.4-.9c.6-.4,1.2-.8,1.9-1.2s1.5-.9,2.2-1.3c.8-.4,1.5-.9,2.2-1.3.7-.4,1.4-.8,1.9-1.2.6-.4,1-.7,1.3-.9s.5-.4.5-.4c0,0-.1.2-.4.5-.1.2-.3.4-.5.6-.2.2-.4.5-.7.7-.5.5-1.1,1-1.8,1.5s-1.4,1-2.2,1.4c-1.5.9-3.1,1.7-4.4,2.1-.6.2-1.1.4-1.5.5-.2.2-.4.2-.4.2Z"/>
    <path d="m224.5,134.52s.1.3.3,1c.2.6.5,1.5.8,2.5.6,2.1,1.4,5,2.1,7.8.7,2.9,1.3,5.8,1.7,8,.2,1.1.3,2,.4,2.7.1.6.1,1,.1,1,0,0-.4-1.4-1-3.5s-1.4-5-2.1-7.8c-.7-2.9-1.3-5.8-1.7-7.9-.2-1.1-.4-2-.5-2.6,0-.8-.1-1.2-.1-1.2Z"/>
    <path class="cls-6" d="m249.2,104.32l4.3,8.9s-.9,1.4-1.9,1.4"/>
    <path class="cls-6" d="m254.2,114.82s3.8.7.7,12.6"/>
    <path d="m255.4,127.92s.2.5.6,1.3c.2.4.3.9.5,1.5s.4,1.3.6,2.1c.2.8.3,1.6.5,2.5.1.9.2,1.9.2,2.9,0,.5,0,1-.1,1.6,0,.5-.1,1.1-.2,1.6-.2,1.1-.6,2.1-1.1,3.2-.3.5-.6.9-.9,1.4-.3.4-.7.8-1,1.1-.7.8-1.4,1.4-2,2.1-1.4,1.3-2.7,2.3-3.9,3.2-2.4,1.7-4.1,2.5-4.1,2.5,0,0,1.4-1.4,3.5-3.4,1-1,2.2-2.2,3.5-3.6.6-.7,1.2-1.4,1.8-2.1.3-.4.6-.7.9-1.1.2-.4.5-.7.7-1.1.4-.8.7-1.7.9-2.6.1-.5.2-.9.2-1.4.1-.5.1-.9.1-1.4s.1-.9.1-1.4v-1.3c0-.9-.1-1.7-.1-2.4-.1-1.5-.3-2.8-.4-3.7-.2-1-.3-1.5-.3-1.5Z"/>
    <path d="m245.1,151.62s-.2,1-.8,2.6c-.3.8-.6,1.8-1.1,2.9-.4,1.1-1,2.3-1.6,3.6-.6,1.3-1.4,2.7-2.2,4.1s-1.7,2.9-2.7,4.4-2.1,3-3.2,4.5c-1.1,1.5-2.4,2.9-3.6,4.4-1.3,1.4-2.6,2.7-3.9,4.1-1.3,1.3-2.7,2.5-4,3.6s-2.7,2.1-3.9,3.1-2.5,1.8-3.7,2.5c-1.1.8-2.2,1.5-3.2,2s-1.8,1-2.5,1.4c-1.4.8-2.2,1.2-2.2,1.2,0,0,.7-.6,2-1.5.6-.5,1.4-1,2.3-1.7.9-.6,1.9-1.5,2.9-2.3.5-.4,1.1-.9,1.7-1.3.6-.5,1.2-.9,1.8-1.5,1.2-1,2.4-2.1,3.7-3.3,1.2-1.2,2.5-2.5,3.8-3.7,1.2-1.3,2.5-2.7,3.8-4,1.2-1.4,2.5-2.8,3.6-4.2,1.1-1.4,2.3-2.8,3.3-4.3,1-1.4,2-2.8,2.9-4.2.5-.7.8-1.4,1.3-2,.4-.7.8-1.3,1.2-1.9.7-1.2,1.4-2.4,1.9-3.4.6-1,1-1.9,1.4-2.7.3-.8.6-1.4.8-1.8.1-.4.2-.6.2-.6Z"/>
    <line class="cls-6" x1="210.9" y1="189.72" x2="198.2" y2="247.42"/>
    <path d="m235.5,123.32s-.3.5-.7,1.2c-.2.4-.3.8-.3,1.3,0,.2,0,.4.1.7,0,.2.1.4.3.6.1.2.3.5.4.7.2.2.3.4.4.6.3.4.6.8.8,1.1.5.6.9,1,.9,1,0,0-.5-.1-1.2-.6-.3-.2-.7-.6-1.1-.9-.2-.2-.4-.4-.5-.6-.2-.3-.3-.4-.5-.7-.2-.3-.3-.6-.3-1-.1-.3-.1-.7,0-1,0-.3.2-.6.3-.8.1-.2.3-.4.4-.6.5-.7,1-1,1-1Z"/>
    <path d="m243.7,118.22s-.2.1-.5.3c-.3.2-.7.6-.8,1.1-.1.3-.1.6-.1.9s.1.7.3,1c.1.4.3.8.4,1.2.1.4.3.8.4,1.2.3.8.6,1.6,1.1,1.9.2.2.5.3.8.3h.9c.6-.1,1.1-.2,1.4-.3.3-.1.5-.1.5-.1,0,0-.2.1-.5.3-.2.1-.3.2-.6.3-.2.1-.5.2-.8.3-.3.1-.7.2-1,.2-.4,0-.8-.1-1.2-.3-.4-.3-.7-.6-.9-1.1-.2-.4-.4-.8-.6-1.3-.3-.9-.5-1.7-.8-2.5-.1-.4-.2-.9-.2-1.3s.1-.9.3-1.2c.3-.7.9-1,1.2-1.1.4.1.7.2.7.2Z"/>
    <path class="cls-3" d="m248,112.52s-.9.8-1.7,2.2"/>
    <path d="m249.2,121.12s.1-.2.3-.5.5-.6.8-.8c.3-.3.6-.5.8-.8.1-.1.2-.2.3-.3l.1-.1s.1.3,0,.6c-.1.4-.4.8-.7,1.1-.3.3-.7.5-1,.6-.3.2-.6.2-.6.2Z"/>
    <path d="m210,130.72s.1,0,.1.1c.1.1.2.3.2.5.1.2.1.5.1.8v1.1c-.1.8-.2,1.7-.5,2.7-.2,1-.6,2-1,2.9-.8,1.9-1.7,3.8-2.5,5.1-.4.7-.8,1.2-1,1.6s-.4.6-.4.6c0,0,.1-.3.2-.7.2-.4.4-1,.7-1.7s.6-1.6,1-2.4c.4-.9.8-1.8,1.1-2.8.2-.5.4-.9.6-1.4.2-.5.4-.9.5-1.4.3-.9.6-1.8.7-2.5.1-.4.1-.7.2-1v-.8c0-.2,0-.4-.1-.5.2-.1.1-.2.1-.2Z"/>
  </g>
  <g>
    <g id="Färg-2" data-name="Färg">
      <polygon class="cls-9" points="293.7 247.12 308 225.12 312.5 219.52 304.3 216.42 290.7 207.82 282.7 198.62 278.5 193.42 254.1 219.62 293.7 247.12"/>
    </g>
    <path class="cls-6" d="m262,213.92l29.6-36.8s19.2-37.4,23.3-43.5c4.1-6.1,19.4-29.5,20.8-30.7s23.8-.6,25.2-.6,11,6.1,12.3,6.1"/>
    <path class="cls-6" d="m320.1,133.02l15.4-12.2c1-.8,2.9-1.5,4.2-1.5l14.2.2c1.3,0,3.2.7,4.2,1.6l2.2,1.8"/>
    <line class="cls-6" x1="359.7" y1="122.52" x2="368.2" y2="125.42"/>
    <path d="m328,141.02c1.1-.5,2.2-1.2,3.2-2,.3-.2.5-.4.7-.6s.5-.4.7-.6c.5-.4.9-.9,1.4-1.3.2-.2.4-.5.6-.7s.4-.5.6-.7c.4-.5.8-1,1.2-1.5.4-.5.7-1.1,1.1-1.6.2-.3.3-.6.5-.8l.5-.8.4-.7.7.4c.2.1.4.2.6.3.2.1.5.2.7.3.5.2,1,.3,1.5.4,1,.2,2,.2,3,0,2-.3,3.9-1.3,5.6-2.6l.5-.4.5.4c.3.2.7.5,1,.7.4.2.7.4,1.1.6.7.4,1.5.7,2.3,1s1.6.5,2.4.6c.4.1.8.1,1.2.1s.8,0,1.2-.1c.4-.1.8-.1,1.2-.2.4-.1.8-.3,1.1-.4.4-.2.7-.4,1.1-.6s.7-.5,1-.7c.7-.5,1.3-1.2,1.9-1.9.3-.3.5-.7.8-1.1l.8-1.1-.6,1.3c-.2.4-.4.8-.7,1.2-.5.8-1.1,1.5-1.7,2.2-.3.3-.7.7-1,.9-.4.3-.7.5-1.1.8-.4.2-.8.4-1.2.6-.4.2-.9.3-1.3.4-1.8.4-3.7.3-5.4-.3-.9-.3-1.7-.6-2.5-1-.4-.2-.8-.4-1.2-.7-.4-.2-.8-.5-1.2-.8h1c-.9.8-1.9,1.4-3,1.9s-2.2.9-3.4,1c-1.2.2-2.4.1-3.5-.1-.6-.1-1.2-.3-1.7-.5-.3-.1-.6-.2-.8-.4-.3-.1-.5-.3-.8-.5l1.1-.3c-.4.6-.7,1.2-1.1,1.7s-.8,1.1-1.2,1.6c-.4.5-.9,1-1.4,1.5-.2.2-.5.5-.7.7s-.5.5-.7.7c-.5.4-1,.8-1.6,1.2-.3.2-.5.4-.8.5-.3.2-.6.3-.8.5-.6.3-1.1.6-1.7.8-.9.3-1.5.5-2.1.7Z"/>
    <path class="cls-6" d="m345.3,99.32l4-3.2c1.1-.9,3.2-1.4,4.6-1.1l21,4.4c1.4.3,3.1,1.6,3.8,3l4.4,8.2"/>
    <line class="cls-6" x1="372.5" y1="109.42" x2="382" y2="112.92"/>
    <line class="cls-6" x1="381.7" y1="107.92" x2="390.5" y2="116.02"/>
    <path d="m348.9,115.52c.6.5,1.2.7,1.9.9.7.2,1.3.4,2,.5.3.1.7.1,1,.1s.7.1,1,.1h2c.3,0,.7,0,1-.1l1-.1c.7-.1,1.3-.1,2-.2s1.3-.2,2-.3l2-.4.3-.1.3.2c.3.2.7.4,1.1.5.4.2.7.3,1.1.5.8.3,1.5.5,2.3.7s1.6.3,2.4.4,1.6.1,2.4,0c1.6-.2,3.1-.7,4.5-1.7.3-.2.7-.5,1-.8s.6-.6.9-.9.6-.7.8-1c.3-.3.5-.7.8-1.1-.2.4-.3.9-.5,1.3s-.4.8-.7,1.2c-.2.4-.5.8-.8,1.1-.3.3-.6.7-.9,1s-.7.6-1.1.9c-.4.2-.8.5-1.2.7-.4.2-.8.4-1.2.5-.4.1-.9.3-1.3.3-.4.1-.9.2-1.3.2h-1.3c-.9,0-1.8-.1-2.6-.3-.9-.2-1.7-.4-2.5-.7-.4-.2-.8-.3-1.2-.5-.4-.2-.8-.4-1.2-.6l.6.1-2.5.6c-.3.1-.7.1-1,.1l-1.1.1c-.7.1-1.4.1-2.1.1s-1.4,0-2.1-.1-1.4-.1-2.1-.3c-.4-.1-.7-.1-1-.2s-.7-.2-1-.3c-.7-.2-1.3-.5-2-.9-.7-.4-1.3-.9-1.7-1.5Z"/>
    <path d="m352.1,116.12s0,.3-.2.7c-.2.4-.5.9-.9,1.2-.4.4-.9.6-1.2.7-.4.1-.7.1-.7.1,0,0,.1-.3.4-.6.2-.3.6-.7.9-1,.4-.3.7-.6,1.1-.8.3-.2.6-.3.6-.3Z"/>
    <path d="m377.7,119.82s.9.1,2.2.1h2.1c.4,0,.8-.1,1.2-.1.4-.1.8-.1,1.2-.2l1.2-.3c.2-.1.4-.1.6-.2s.4-.1.5-.2c.4-.1.7-.3,1-.5.2-.1.3-.2.5-.2.1-.1.3-.2.4-.3.3-.2.5-.3.8-.5.2-.2.4-.3.6-.4.3-.2.5-.4.5-.4,0,0-.1.2-.3.6-.1.2-.2.4-.4.7-.2.3-.4.5-.6.8-.1.1-.2.3-.4.5-.1.1-.3.3-.5.4-.3.3-.7.6-1.1.8-.4.2-.8.5-1.3.6-.4.2-.9.3-1.4.4s-.9.1-1.4.2c-.5,0-.9,0-1.4-.1-.9-.1-1.7-.4-2.3-.6-.9-.4-1.7-1.1-1.7-1.1Z"/>
    <path d="m353.6,133.12s.1.1.1.3c.1.2.1.5.1.9s0,.8-.1,1.2c-.1.4-.2.9-.4,1.3-.2.4-.4.8-.6,1.2-.2.4-.5.7-.7.9-.4.5-.8.8-.8.8,0,0,.1-.5.4-1.1.2-.6.6-1.4.9-2.2.2-.4.3-.8.5-1.2.1-.4.3-.7.4-1,.2-.7.2-1.1.2-1.1Z"/>
    <path class="cls-6" d="m351.1,134.52s2.7,26.2,3.2,31,6.8,7.6,8.5,7.9c1.7.3,8.9.4,8.9.4,0,0,18.1-12.6,23.4.5"/>
    <path class="cls-6" d="m295.2,245.22l24.4-36.2s23.5-2.7,33-10.4c11.5-9.3,11.5-6.6,20.4-7.1,4.2-.2,9.9-.1,13.4-5.9,3.6-5.8,2.9-5.2,2.9-5.2"/>
    <line class="cls-6" x1="395.1" y1="174.32" x2="387.2" y2="181.02"/>
    <path d="m338.4,136.92c0,.9,0,1.9-.1,2.8s-.3,1.9-.5,2.8c-.1.5-.2.9-.4,1.4l-.4,1.3-.5,1.3c-.2.4-.4.8-.6,1.3-.2.4-.4.8-.7,1.2-.3.4-.5.8-.8,1.2l-.8,1.1c-.3.4-.6.7-.9,1s-.6.7-1,1l-1,.9c-.3.3-.7.6-1.1.8l-1.1.8.4-.7c0,2.2-.1,4.4-.3,6.5-.2,2.2-.4,4.3-.6,6.5-.1,1.1-.3,2.2-.5,3.2-.2,1.1-.3,2.1-.6,3.2-.4,2.1-.9,4.3-1.4,6.3-.3,1-.6,2.1-.9,3.1s-.7,2.1-1.1,3.1-.8,2-1.3,3l-.7,1.4-.8,1.4c-.6.9-1.1,1.8-1.8,2.7-.3.4-.6.8-1,1.2-.3.4-.7.8-1.1,1.1-.7.7-1.5,1.4-2.4,2-.4.3-.9.5-1.3.8l-1.4.6,1.3-.8c.4-.3.8-.6,1.2-.9.8-.7,1.5-1.4,2.1-2.2.3-.4.6-.8.9-1.2s.6-.8.9-1.3c.6-.9,1-1.8,1.5-2.7l.7-1.4.6-1.4c.4-1,.8-1.9,1.1-2.9.7-2,1.3-4,1.7-6.1.3-1,.5-2.1.7-3.1s.4-2.1.6-3.1c.4-2.1.7-4.2,1-6.3.3-2.1.5-4.2.7-6.4.2-2.1.4-4.3.4-6.4v-.5l.4-.3,1.1-.7c.3-.2.7-.4,1-.7l1-.8c.3-.2.6-.6.9-.9s.6-.6.9-.9l.8-1c.3-.3.5-.7.8-1.1s.5-.7.7-1.1.5-.8.7-1.2l.6-1.2.5-1.2c.2-.4.3-.9.5-1.3.3-.9.5-1.8.7-2.7.5-.6.7-1.5.7-2.5Z"/>
    <path d="m371.8,173.12s0,.7.1,1.6c0,.5.1,1,.2,1.6s.2,1.2.3,1.8c.1.3.1.6.2.9.1.3.1.6.2.9.2.6.4,1.1.5,1.5.1.2.2.4.3.6.1.2.2.3.2.4.1.3.2.4.2.4,0,0-.1-.1-.3-.3-.2-.2-.5-.5-.8-.9-.2-.2-.3-.4-.4-.7-.1-.2-.3-.5-.4-.8-.3-.6-.5-1.2-.6-1.9s-.2-1.3-.2-2c0-.6,0-1.2.1-1.7.1-.7.4-1.4.4-1.4Z"/>
    <path class="cls-7" d="m280.2,194.52s5,12.2,28.5,24.3"/>
    <path d="m365.5,128.12s-.5.1-1.2.1c-.4,0-.8-.1-1.2-.2-.4-.1-.9-.3-1.3-.6-.2-.1-.4-.3-.6-.4-.2-.2-.4-.3-.5-.5-.3-.4-.6-.8-.7-1.2-.1-.2-.1-.4-.1-.6v-.4c0-.2.1-.4.1-.4,0,0,0,.1.1.3.1.2.2.5.4.8.2.3.4.6.7.8.2.1.3.3.5.4s.4.2.5.4c.4.2.8.4,1.1.6.4.2.7.3,1.1.5.6.2,1.1.4,1.1.4Z"/>
    <path d="m371.9,110.32s.1.2.1.5c.1.3.3.7.6,1.1.3.4.7.8,1.2,1.3.5.4,1,.8,1.6,1.2.3.2.6.4.9.5.3.2.6.3.9.5.3.1.6.3.8.4.1,0,.4,0,.6-.1.4-.2.7-.6,1-.8.2-.2.3-.4.3-.4,0,0-.1.2-.2.5-.2.3-.4.7-.8,1.1-.2.2-.5.4-1,.4-.4-.1-.6-.2-1-.3-.6-.2-1.3-.6-1.9-1-1.2-.8-2.3-1.9-2.8-3-.1-.3-.2-.5-.3-.8-.1-.2-.1-.5-.1-.6.1-.4.1-.5.1-.5Z"/>
    <path d="m385.3,118.62s-.4,0-.8-.2c-.5-.2-1-.6-1.5-1.1s-.8-1.1-1-1.6-.2-.9-.2-.9c0,0,.3.2.7.5.4.3.8.8,1.2,1.2.4.5.8.9,1.1,1.3.2.6.5.8.5.8Z"/>
  </g>
</svg>