<?xml version="1.0" encoding="UTF-8"?>
<svg id="Lager_1" data-name="Lager 1" xmlns="http://www.w3.org/2000/svg" xmlns:xlink="http://www.w3.org/1999/xlink" viewBox="0 0 417.8 333.82">
  <defs>
    <style>
      .cls-1 {
        fill: url(#linear-gradient-2);
      }

      .cls-2 {
        stroke-width: 1.6px;
      }

      .cls-2, .cls-3, .cls-4, .cls-5, .cls-6, .cls-7, .cls-8 {
        fill: none;
        stroke: #000;
      }

      .cls-2, .cls-3, .cls-4, .cls-6, .cls-7 {
        stroke-linecap: round;
      }

      .cls-9 {
        fill: #fff;
      }

      .cls-3 {
        stroke-width: .75px;
      }

      .cls-5, .cls-6 {
        stroke-width: .5px;
      }

      .cls-7 {
        stroke-width: 2px;
      }

      .cls-10 {
        fill: url(#linear-gradient-3);
      }

      .cls-11 {
        fill: url(#linear-gradient);
      }
    </style>
    <linearGradient id="linear-gradient" x1="29.3" y1="1211.54" x2="39.67" y2="1186.51" gradientTransform="translate(0 -964.66)" gradientUnits="userSpaceOnUse">
      <stop offset="0" stop-color="#fff"/>
      <stop offset="1" stop-color="#ededed"/>
    </linearGradient>
    <linearGradient id="linear-gradient-2" x1="-677.58" y1="1299.09" x2="-641.76" y2="1305.78" gradientTransform="translate(-517.9 -1087.65) rotate(-54.42)" gradientUnits="userSpaceOnUse">
      <stop offset="0" stop-color="#fff"/>
      <stop offset="1" stop-color="#ededed"/>
    </linearGradient>
    <linearGradient id="linear-gradient-3" x1="477.42" y1="-295.1" x2="487.64" y2="-279.93" gradientTransform="translate(-112.32 -207.08) rotate(12.66) scale(1 -1)" gradientUnits="userSpaceOnUse">
      <stop offset="0" stop-color="#fff"/>
      <stop offset="1" stop-color="#ededed"/>
    </linearGradient>
  </defs>
  <rect class="cls-9" y="53.51" width="415" height="226.8"/>
  <g>
    <polygon class="cls-11" points="57.7 252.41 67.4 212.21 47.1 210.31 24.7 201.31 25.1 203.01 17.2 215.81 1.7 239.41 57.7 252.41"/>
    <path class="cls-8" d="m29.5,202.71s13.5,10.1,35.3,9.2"/>
    <path class="cls-7" d="m5,236.41c0-1,23-37,23.8-41.9s12.5-70.1,12.5-70.1"/>
    <path class="cls-7" d="m40,124.31s-2-9.6,4.5-12.3"/>
    <path class="cls-7" d="m48.6,121.71l23.3-13c1.3-.7,3.4-.8,4.7-.3l15.8,6.3c1.3.5,2.9,2.1,3.5,3.5l2.2,4.9"/>
    <path class="cls-7" d="m49,109.91l28.8-15.6c1.3-.7,3.3-.5,4.4.3l19,14.1c1.2.9,2.7,2.7,3.3,4.1l2,4.2"/>
    <path class="cls-2" d="m88.6,86.31l4.3-.4c1.4-.1,3.3.7,4.3,1.8l9.7,11.3c1,1.1,2.2,3.2,2.7,4.7l1.4,3.8"/>
    <path class="cls-7" d="m45.3,111.41l33.5-26.5c1.2-.9,3-.9,4.1.1l20.9,17.2c1.1.9,2.6,2.8,3.3,4.2l2.9,6.1"/>
    <path class="cls-7" d="m64.1,133.81s4.6-.9,7.8-6.3"/>
    <path class="cls-7" d="m70.5,126.61s7.1,3.1,15.2,1.7"/>
    <path class="cls-7" d="m83,126.81s10.7,15.4,19.9,4l-4.8-6.9"/>
    <path class="cls-7" d="m103.6,132.51s5,1.3,7.8-5.8l-5.1-7.7"/>
    <path class="cls-7" d="m110.3,113.51l3.9,8s-1.4,3.1-2.6,3.3"/>
    <path class="cls-7" d="m84,131.91l3.6,9.7s2.7,2.2,6.8,2.2"/>
    <line class="cls-7" x1="91.8" y1="145.81" x2="101.3" y2="137.81"/>
    <path class="cls-7" d="m101.1,134.21s.8,4.2,1.2,5.9"/>
    <path d="m68.3,133.41s.2.1.4.6c.1.2.2.5.2.8.1.3.1.7.1,1v1.2c0,.4-.1.9-.1,1.4-.1.5-.1,1-.3,1.4-.1.5-.2,1-.4,1.5-.3,1-.6,1.9-.9,2.8-.2.4-.3.8-.5,1.2-.2.4-.3.8-.5,1.1-.3.7-.6,1.2-.8,1.6-.2.4-.3.6-.3.6,0,0,.1-.2.2-.7.1-.4.3-1,.5-1.7s.5-1.5.7-2.4c.3-.9.6-1.8.8-2.8.2-.5.3-.9.4-1.4s.2-.9.3-1.4c.1-.4.2-.9.3-1.3,0-.4.1-.8.1-1.2.1-.7.1-1.3,0-1.8-.1-.3-.2-.5-.2-.5Z"/>
    <path d="m65.3,144.71s.1.9.2,2.4c.1,1.6.2,3.8.3,6.4.1,2.7.2,5.8.3,9.1.1,3.3.1,6.9.1,10.5,0,1.8-.1,3.6-.1,5.3,0,.9-.1,1.8-.2,2.6-.1.9-.1,1.7-.4,2.6-.5,1.7-1.4,3.1-2.2,4.3-.9,1.2-1.7,2.3-2.6,3.3-1.7,1.9-3.3,3.3-4.4,4.2-.6.5-1,.8-1.4,1-.3.2-.5.3-.5.3,0,0,.2-.1.5-.4.3-.2.7-.6,1.3-1.1,1.1-1,2.6-2.5,4.2-4.4.8-1,1.7-2.1,2.4-3.3.8-1.2,1.5-2.6,2-4.1.2-.7.3-1.6.3-2.4.1-.8.1-1.7.1-2.6.1-1.7.1-3.5.1-5.3v-28.4Z"/>
    <path d="m50.7,194.11s.2-.1.5-.3.8-.5,1.4-.9c.6-.4,1.2-.8,1.9-1.2s1.5-.9,2.2-1.3c.8-.4,1.5-.9,2.2-1.3.7-.4,1.4-.8,1.9-1.2.6-.4,1-.7,1.3-.9s.5-.4.5-.4c0,0-.1.2-.4.5-.1.2-.3.4-.5.6-.2.2-.4.5-.7.7-.5.5-1.1,1-1.8,1.5s-1.4,1-2.2,1.4c-1.5.9-3.1,1.7-4.4,2.1-.6.2-1.1.4-1.5.5-.2.1-.4.2-.4.2Z"/>
    <path d="m85.6,136.41s.1.3.3,1c.2.6.5,1.5.8,2.5.6,2.1,1.4,5,2.1,7.8.7,2.9,1.3,5.8,1.7,8,.2,1.1.3,2,.4,2.7.1.6.1,1,.1,1,0,0-.4-1.4-1-3.5s-1.4-5-2.1-7.8c-.7-2.9-1.3-5.8-1.7-7.9-.2-1.1-.4-2-.5-2.6,0-.9-.1-1.2-.1-1.2Z"/>
    <path class="cls-7" d="m110.4,106.11l4.3,8.9s-.9,1.4-1.9,1.4"/>
    <path class="cls-7" d="m115.3,116.61s3.8.7.7,12.6"/>
    <path d="m116.6,129.81s.2.5.6,1.3c.2.4.3.9.5,1.5s.4,1.3.6,2.1c.2.8.3,1.6.5,2.5.1.9.2,1.9.2,2.9,0,.5,0,1-.1,1.6,0,.5-.1,1.1-.2,1.6-.2,1.1-.6,2.1-1.1,3.2-.3.5-.6.9-.9,1.4-.3.4-.7.8-1,1.1-.7.8-1.4,1.4-2,2.1-1.4,1.3-2.7,2.3-3.9,3.2-2.4,1.7-4.1,2.5-4.1,2.5,0,0,1.4-1.4,3.5-3.4,1-1,2.2-2.2,3.5-3.6.6-.7,1.2-1.4,1.8-2.1.3-.4.6-.7.9-1.1.2-.4.5-.7.7-1.1.4-.8.7-1.7.9-2.6.1-.5.2-.9.3-1.4.1-.5.1-.9.1-1.4s.1-.9.1-1.4v-1.3c0-.9-.1-1.7-.1-2.4-.1-1.5-.3-2.8-.4-3.7-.3-1-.4-1.5-.4-1.5Z"/>
    <path d="m106.3,153.41s-.2,1-.8,2.6c-.3.8-.6,1.8-1.1,2.9-.4,1.1-1,2.3-1.6,3.6-.6,1.3-1.4,2.7-2.2,4.1-.8,1.4-1.7,2.9-2.7,4.4s-2.1,3-3.2,4.5-2.4,2.9-3.6,4.4c-1.3,1.4-2.6,2.7-3.9,4.1-1.3,1.3-2.7,2.5-4,3.6s-2.7,2.1-3.9,3.1c-1.2,1-2.5,1.8-3.7,2.5-1.1.8-2.2,1.5-3.2,2s-1.8,1-2.5,1.4c-1.4.8-2.2,1.2-2.2,1.2,0,0,.7-.6,2-1.5.6-.5,1.4-1,2.3-1.7.9-.6,1.9-1.5,3-2.3.5-.4,1.1-.9,1.7-1.3.6-.5,1.2-.9,1.8-1.5,1.2-1,2.4-2.1,3.7-3.3,1.2-1.2,2.5-2.5,3.8-3.7,1.2-1.3,2.5-2.7,3.8-4,1.2-1.4,2.5-2.8,3.6-4.2,1.1-1.4,2.3-2.8,3.3-4.3,1-1.4,2-2.8,2.9-4.2.5-.7.9-1.4,1.3-2,.4-.7.8-1.3,1.2-1.9.7-1.2,1.4-2.4,1.9-3.4.6-1,1-1.9,1.4-2.7.3-.8.6-1.4.8-1.8,0-.4.1-.6.1-.6Z"/>
    <line class="cls-7" x1="72" y1="191.61" x2="59.3" y2="249.31"/>
    <path d="m96.7,125.21s-.3.5-.7,1.2c-.2.4-.3.8-.3,1.3,0,.2,0,.4.1.7,0,.2.1.4.3.6.1.2.3.5.4.7.2.2.3.4.4.6.3.4.6.8.8,1.1.5.6.9,1,.9,1,0,0-.5-.1-1.2-.6-.3-.2-.7-.6-1.1-.9-.2-.2-.4-.4-.5-.6-.2-.3-.3-.4-.5-.7-.2-.3-.3-.6-.3-1-.1-.3-.1-.7,0-1,0-.3.2-.6.3-.8.1-.2.3-.4.4-.6.4-.8,1-1,1-1Z"/>
    <path d="m104.8,120.01s-.2.1-.5.3c-.3.2-.7.6-.8,1.1-.1.3-.1.6-.1.9s.1.7.3,1c.1.4.3.8.4,1.2.1.4.3.8.4,1.2.3.8.6,1.6,1.1,1.9.2.2.5.3.8.3h.9c.6-.1,1.1-.2,1.4-.3.3-.1.5-.1.5-.1,0,0-.2.1-.5.3-.2.1-.3.2-.6.3-.2.1-.5.2-.8.3-.3.1-.7.2-1,.2-.4,0-.8-.1-1.2-.3-.4-.3-.7-.6-.9-1.1-.2-.4-.4-.8-.6-1.3-.3-.9-.5-1.7-.8-2.5-.1-.4-.2-.9-.2-1.3s.1-.9.3-1.2c.3-.7.9-1,1.2-1.1.5.2.7.2.7.2Z"/>
    <path class="cls-3" d="m109.1,114.41s-.9.8-1.7,2.2"/>
    <path d="m110.4,122.91s.1-.2.3-.5c.2-.3.5-.6.8-.8.3-.3.6-.5.8-.8l.3-.3.1-.1s.1.3,0,.6c-.1.4-.4.8-.7,1.1s-.7.5-1,.6c-.4.2-.6.2-.6.2Z"/>
    <path d="m71.1,132.61s.1,0,.1.1c.1.1.2.3.2.5.1.2.1.5.1.8v1.1c-.1.8-.2,1.7-.5,2.7-.2,1-.6,2-1,2.9-.8,1.9-1.7,3.8-2.5,5.1-.4.7-.8,1.2-1,1.6s-.4.6-.4.6c0,0,.1-.3.2-.7.2-.4.4-1,.7-1.7.3-.7.6-1.6,1-2.4.4-.9.8-1.8,1.1-2.8.2-.5.4-.9.6-1.4s.4-.9.5-1.4c.3-.9.6-1.8.7-2.5.1-.4.1-.7.2-1v-.8c0-.2,0-.4-.1-.5.2-.2.1-.2.1-.2Z"/>
  </g>
  <g>
    <polygon class="cls-1" points="170.9 250.31 197.3 197.61 176.9 188.31 169.2 169.21 163.4 155.41 158.9 160.71 148 169.11 114.3 191.81 170.9 250.31"/>
    <path class="cls-7" d="m134.8,178.81s23.9-17.2,29.9-23"/>
    <path class="cls-7" d="m249.4,174.11c1.1-4.8.1-15.9-2.5-28s-9.7-33.6-16.2-33.7c-4.4,0-8.4,4.1-12.2,4.6-4.4.6-9.2-2.4-12.9-1.2-4.2,1.4-6.7,6.9-10.1,8.9-4,2.3-9.4,1.5-12.4,4.1-3.6,3.2-4.1,9.4-6.4,12.4-4.9,6.3-10.1,2.3-10,9.2.1,9.3,1.5,25.7,13.1,38.8,2.4,2.7,16.2,8.9,20.4,8.8,4.2-.1,7.5-3.2,7.5-3.2"/>
    <path class="cls-7" d="m182.4,151.61s8.3,20,11.5,25.4c3.2,5.3,11.5,13.8,13.7,15.2s11.3.9,12.3-.1"/>
    <path class="cls-7" d="m198.8,138.51s16.2,44.8,27.6,65.3"/>
    <path class="cls-7" d="m225.6,199.91s2.2,12.9,6.8,15.9c5.3,3.4,11.7.3,12.8-5.3s-1-14.8-4-18"/>
    <line class="cls-7" x1="221.5" y1="131.31" x2="244" y2="198.11"/>
    <path d="m252.2,174.61s-.7.7-1.8,1.9c-.5.6-1.1,1.2-1.8,1.9-.3.3-.6.7-1,1.1-.3.4-.6.7-1,1.1-.3.4-.6.8-.9,1.1-.3.4-.6.8-.9,1.1-.3.4-.6.7-.8,1.1-.3.3-.5.7-.7,1s-.5.6-.6.8c-.2.3-.4.5-.5.7-.3.4-.5.6-.5.6,0,0,0-.3.1-.8s.2-1.2.5-2c.1-.4.3-.8.5-1.2s.4-.9.7-1.3c.3-.4.5-.9.8-1.3s.6-.9,1-1.3c.7-.8,1.5-1.6,2.3-2.2.4-.3.8-.6,1.2-.8.4-.2.7-.5,1.1-.6.7-.4,1.3-.6,1.7-.7.3-.1.6-.2.6-.2Z"/>
    <line class="cls-7" x1="196.4" y1="200.11" x2="174.6" y2="240.61"/>
    <path class="cls-7" d="m251.8,165.71s12.7,13.4,10.7,20.9c-1.7,6.5-8.7,10.5-8.7,10.5"/>
    <path class="cls-7" d="m253.5,196.71l-4.5,6.4s-.9,1.3-1.4,1.5-1.4-.8-1.4-.8"/>
    <path d="m247.9,203.01s.3-.3.7-.8c.5-.5,1.1-1.2,1.9-2,.4-.4.8-.9,1.2-1.4.2-.3.4-.5.6-.8.2-.3.3-.5.3-.8,0-.2-.1-.6-.2-.9-.1-.3-.3-.7-.4-1-.3-.7-.7-1.3-1.2-1.9-.9-1.2-2-2.2-3.1-2.8-.3-.2-.6-.3-.8-.3s-.5.1-.7.2c-.5.3-1,.7-1.4,1.1-1.7,1.5-3,2.4-3,2.4,0,0,.3-.3.7-.8.5-.5,1.1-1.2,1.9-2,.4-.4.8-.9,1.4-1.3.3-.2.6-.4,1.1-.4s.8.1,1.1.3c1.3.6,2.5,1.7,3.5,3,.5.6.9,1.3,1.3,2.1.2.4.3.7.5,1.1.1.4.2.8.2,1.3-.1.5-.3.9-.5,1.2s-.5.6-.7.8c-.5.5-.9.9-1.4,1.3-.8.8-1.6,1.3-2.1,1.7-.6.5-.9.7-.9.7Z"/>
    <path d="m242,206.71s.1,0,.3-.1.4-.3.4-.7c-.1-.8-.7-1.8-1.5-2.9-.8-1.1-1.8-2.4-3-3.5-.1-.1-.3-.3-.4-.3-.1-.1-.1,0-.2-.1h-.2c-.4,0-.7.1-1.1.2-.8.2-1.6.6-2.3,1s-1.4,1-2.1,1.5c-.6.6-1.2,1.2-1.6,1.9-.1.2-.2.7-.2,1.1s0,.8.1,1.2c.1.8.3,1.5.5,2.2.4,1.4.8,2.5,1.1,3.2.3.8.5,1.2.5,1.2,0,0-.2-.4-.6-1.1-.4-.7-.9-1.8-1.4-3.1-.2-.7-.5-1.4-.7-2.2-.1-.8-.4-1.7,0-2.8.5-.9,1-1.6,1.7-2.2.7-.6,1.4-1.2,2.2-1.7s1.6-.9,2.5-1.1c.4-.1.9-.2,1.4-.2h.4c.1,0,.3.1.4.1.3.1.4.3.6.4.7.6,1.2,1.3,1.7,1.9.5.6.9,1.3,1.3,1.9.4.6.7,1.2.9,1.7s.4,1.1.3,1.5c0,.2-.1.4-.2.6-.1.1-.3.2-.4.2-.3.2-.4.2-.4.2Z"/>
    <line class="cls-7" x1="223" y1="128.61" x2="221.7" y2="134.31"/>
    <path d="m233.1,212.71s.4-.6,1.2-1.4c.4-.4.9-.8,1.4-1.2s1.1-.8,1.7-1.2c.6-.4,1.2-.7,1.8-1s1.2-.5,1.7-.7c.5-.1.9-.3,1.2-.3s.5-.1.5-.1c0,0-.2.1-.4.2-.3.1-.7.4-1.1.6-.4.3-1,.6-1.5.9-.5.4-1.1.7-1.7,1.1-1.2.8-2.3,1.5-3.2,2.1-.9.6-1.6,1-1.6,1Z"/>
    <path class="cls-6" d="m214.8,167.71s2.4-4.5,10.4-6.5"/>
    <path class="cls-6" d="m215.3,170.31s6.9-2.8,10.5-7.4"/>
    <path class="cls-6" d="m233.2,159.11s5.6-.1,11.5-5.1"/>
    <path class="cls-6" d="m244.3,152.81s-5.6,0-11.6,4.9"/>
    <path class="cls-6" d="m199.6,179.91s5.6-.8,11-5.4"/>
    <path class="cls-6" d="m181.7,186.51s5.6-.8,11-5.4"/>
    <path class="cls-6" d="m198.5,179.51s3.2-4,10.7-6.7"/>
    <line class="cls-7" x1="179.9" y1="151.01" x2="183.5" y2="154.11"/>
  </g>
  <g>
    <g id="Färg">
      <polygon class="cls-10" points="302.2 208.21 319.2 174.41 319.1 170.31 313.5 167.31 307.7 161.61 304.3 152.21 306.7 133.31 273.6 164.51 302.2 208.21"/>
    </g>
    <path d="m406.7,205.61s-.2-.3-.5-.8-.8-1.2-1.4-2c-.3-.4-.6-.9-.9-1.3-.2-.2-.4-.4-.5-.7-.2-.2-.4-.4-.5-.4s-.4,0-.7.1c-.3.1-.5.2-.8.3-.6.3-1.1.6-1.6.9-.5.3-1.1.7-1.6,1.1-.2.2-.5.4-.6.6-.2.2-.2.4-.3.7-.1.6,0,1.2.1,1.7.1.6.3,1.1.4,1.6.4,1,.7,1.7,1,2.2s.5.8.5.8c0,0-.1-.1-.2-.2-.1-.1-.3-.3-.4-.5-.4-.5-.9-1.2-1.3-2.1-.2-.5-.5-1-.6-1.6-.2-.6-.3-1.3-.2-2,0-.4.2-.8.4-1.2.2-.3.5-.5.7-.8.5-.4,1.1-.8,1.6-1.2.6-.4,1.1-.7,1.7-.9.3-.1.6-.3.9-.4.2,0,.3-.1.5-.1h.6c.4.2.6.5.8.7.2.3.4.5.5.8.3.5.6,1,.8,1.5,1.1,1.9,1.6,3.2,1.6,3.2Z"/>
    <path d="m392.2,207.71s-.2-.3-.5-.8-.8-1.2-1.3-2c-.3-.4-.6-.8-.9-1.3-.3-.4-.7-.9-1.1-1.2-.2-.2-.8,0-1.3.2s-1.1.5-1.6.8-1,.6-1.5,1-1,.7-1.2,1.1c-.2.4-.2,1-.1,1.5s.3,1,.4,1.5c.4.9.8,1.6,1,2.1.3.5.5.8.5.8,0,0-.2-.2-.6-.7-.4-.4-.9-1.1-1.4-2-.2-.4-.5-1-.6-1.6s-.2-1.3.1-2.1c.4-.7.9-1.1,1.4-1.5s1-.7,1.6-1.1c.6-.3,1.1-.6,1.7-.9.3-.1.6-.2.9-.3.2,0,.4-.1.5,0,.2,0,.5.2.6.3.5.5.8,1,1.2,1.5.3.5.6,1,.8,1.4.9,2,1.4,3.3,1.4,3.3Z"/>
    <path d="m412.5,195.21s-.5-.7-1.2-1.8c-.4-.5-.8-1.1-1.2-1.8-.2-.3-.5-.6-.7-.9-.2-.3-.5-.6-.8-.7h-.3c-.2,0-.3.1-.5.2-.3.1-.7.3-1,.5-.6.4-1.2.7-1.8,1-.5.3-.9.6-1.2.8-.3.2-.5.3-.5.3,0,0,.1-.2.3-.5.2-.3.6-.7,1-1.2.5-.4,1-.9,1.7-1.3.3-.2.7-.4,1.1-.5.2-.1.4-.1.6-.2h.4c.1,0,.3.1.4.1.5.3.7.7,1,1,.2.4.5.7.7,1.1.4.7.7,1.4,1,2,.7,1.1,1,1.9,1,1.9Z"/>
    <path class="cls-7" d="m279.2,159.21c2.3-2.9,37.1-39.6,51.3-41.5,10.8-1.5,49.1,13.9,49.1,13.9,0,0,6.2-.7,11.2,12.2l13.8,25.1,9.3,25.2s1.8,7.4-6.6,7.8"/>
    <path class="cls-7" d="m308.2,197.51s9.9-20.6,15.6-27.5"/>
    <path class="cls-7" d="m320,163.81s9.3,9.5,20.1,10.8"/>
    <path class="cls-7" d="m380.5,148.21l13.2,23,15.3,34.9s-1.9,6.5-9.1,5.9c-6.2-.5-8.8-9-8.8-9"/>
    <line class="cls-7" x1="381.3" y1="144.81" x2="382.9" y2="152.41"/>
    <path class="cls-7" d="m368.1,155.21l12.4,24.8,13.9,30.4s-5,8.8-10.9,2.8c-3.5-3.6-15.3-21.8-15.3-21.8l-14.2-25.2-2.1-1.4"/>
    <path class="cls-7" d="m337.9,169.61l13.5,19.2s7.8,8.3,13-1.6"/>
    <path class="cls-7" d="m356.6,195.71s-.8,4.3,3.1,7.3"/>
    <line class="cls-7" x1="361.2" y1="204.11" x2="367.5" y2="197.51"/>
    <line class="cls-7" x1="365.1" y1="197.91" x2="370.3" y2="197.41"/>
    <path class="cls-8" d="m307.1,136.11s-11,24.6,12.9,34.4"/>
    <path class="cls-4" d="m368.6,137.81s6.5,1,8.4,9.5"/>
    <path class="cls-5" d="m391.5,173.51s-7.1,3-8.2,4.5"/>
    <path class="cls-5" d="m391.6,175.81s-2.8,2-6.8,3.5"/>
    <path class="cls-5" d="m378.1,180.21s-4.2,4.2-8.7,5.9"/>
    <path class="cls-5" d="m377.2,178.91s-6.5,3-8.8,5.8"/>
    <path class="cls-5" d="m401.8,167.71s-2.7.4-5.9,3.5"/>
    <path class="cls-5" d="m402.8,168.91s-1.3,1.9-7.1,3.6"/>
  </g>
</svg>