<?xml version="1.0" encoding="UTF-8"?>
<svg id="Lager_1" data-name="Lager 1" xmlns="http://www.w3.org/2000/svg" xmlns:xlink="http://www.w3.org/1999/xlink" viewBox="0 0 300.38 240">
  <defs>
    <style>
      .cls-1 {
        fill: url(#linear-gradient-2);
      }

      .cls-2 {
        stroke-width: 1.6px;
      }

      .cls-2, .cls-3, .cls-4 {
        stroke-linecap: round;
      }

      .cls-2, .cls-3, .cls-4, .cls-5 {
        fill: none;
        stroke: #000;
      }

      .cls-3 {
        stroke-width: .75px;
      }

      .cls-4 {
        stroke-width: 2px;
      }

      .cls-6 {
        fill: url(#linear-gradient);
      }
    </style>
    <linearGradient id="linear-gradient" x1="157.08" y1="-563.92" x2="163.96" y2="-553.71" gradientTransform="translate(0 -374.03) scale(1 -1)" gradientUnits="userSpaceOnUse">
      <stop offset="0" stop-color="#fff"/>
      <stop offset="1" stop-color="#ededed"/>
    </linearGradient>
    <linearGradient id="linear-gradient-2" x1="39.76" y1="1166.01" x2="50.69" y2="1139.63" gradientTransform="translate(0 -964.66)" gradientUnits="userSpaceOnUse">
      <stop offset="0" stop-color="#fff"/>
      <stop offset="1" stop-color="#ededed"/>
    </linearGradient>
  </defs>
  <g>
    <g id="Färg">
      <polygon class="cls-6" points="176.59 205.7 192.39 183.7 197.39 178.1 188.39 175 173.19 166.4 164.39 157.2 159.69 152 132.59 178.2 176.59 205.7"/>
    </g>
    <path class="cls-4" d="m141.39,172.5l32.8-36.8s21.3-37.4,25.8-43.5,21.6-29.5,23.1-30.7,26.4-.6,28-.6,12.2,6.1,13.7,6.1"/>
    <path class="cls-4" d="m205.89,91.6l17-12.2c1.2-.8,3.3-1.5,4.7-1.5l15.8.2c1.4,0,3.5.7,4.7,1.6l2.5,1.8"/>
    <line class="cls-4" x1="249.89" y1="81" x2="259.19" y2="84"/>
    <path d="m214.69,99.6c1.3-.5,2.4-1.2,3.6-2,.3-.2.6-.4.8-.6s.5-.4.8-.6c.5-.4,1-.9,1.5-1.3.3-.2.5-.5.7-.7l.7-.7c.5-.5.9-1,1.3-1.5.4-.5.8-1.1,1.2-1.6.2-.3.4-.6.5-.8l.5-.8.5-.7.8.4c.2.1.5.2.7.3.3.1.5.2.8.3.5.2,1.1.3,1.6.4,1.1.2,2.2.2,3.3,0,2.2-.3,4.3-1.3,6.2-2.6l.6-.4.6.4c.3.2.7.5,1.1.7l1.2.6c.8.4,1.7.7,2.5,1,.9.3,1.7.5,2.6.6.4.1.9.1,1.3.1s.9,0,1.3-.1c.4-.1.9-.1,1.3-.2.4-.1.9-.3,1.3-.4l1.2-.6c.4-.2.8-.5,1.2-.7.7-.5,1.4-1.2,2.1-1.9.3-.3.6-.7.9-1.1l.9-1.1-.6,1.3c-.2.4-.5.8-.8,1.2-.5.8-1.2,1.5-1.9,2.2-.4.3-.7.7-1.1.9-.4.3-.8.5-1.3.8-.4.2-.9.4-1.4.6s-1,.3-1.5.4c-2,.4-4.1.3-6-.3-1-.3-1.9-.6-2.8-1-.5-.2-.9-.4-1.3-.7-.4-.2-.9-.5-1.3-.8h1.1c-1,.8-2.1,1.4-3.3,1.9s-2.5.9-3.8,1c-1.3.2-2.6.1-3.9-.1-.6-.1-1.3-.3-1.9-.5-.3-.1-.6-.2-.9-.4-.3-.1-.6-.3-.9-.5l1.2-.3c-.4.6-.8,1.2-1.2,1.7-.5.5-.9,1.1-1.4,1.6l-1.5,1.5c-.3.2-.5.5-.8.7s-.5.5-.8.7c-.6.4-1.1.8-1.7,1.2-.3.2-.6.4-.9.5-.3.2-.6.3-.9.5-.6.3-1.3.6-1.9.8-.8.3-1.4.5-2.1.7Z"/>
    <path class="cls-4" d="m233.89,57.8l4.4-3.2c1.3-.9,3.5-1.4,5.1-1.1l23.3,4.4c1.5.3,3.4,1.6,4.2,3l4.9,8.2"/>
    <line class="cls-4" x1="264.09" y1="68" x2="274.59" y2="71.5"/>
    <line class="cls-4" x1="274.19" y1="66.5" x2="283.99" y2="74.6"/>
    <path d="m237.89,74.1c.6.5,1.4.7,2.1.9.7.2,1.4.4,2.2.5.4.1.7.1,1.1.1s.7.1,1.1.1h2.2c.4,0,.7,0,1.1-.1l1.1-.1c.7-.1,1.5-.1,2.2-.2s1.5-.2,2.2-.3l2.2-.4.3-.1.3.2c.4.2.8.4,1.2.5.4.2.8.3,1.2.5.8.3,1.7.5,2.6.7.9.2,1.7.3,2.6.4.9.1,1.8.1,2.6,0,1.7-.2,3.5-.7,4.9-1.7.4-.2.7-.5,1.1-.8.3-.3.7-.6,1-.9s.6-.7.9-1,.6-.7.8-1.1c-.2.4-.4.9-.6,1.3s-.5.8-.7,1.2c-.3.4-.6.8-.9,1.1-.3.3-.7.7-1,1-.4.3-.8.6-1.2.9-.4.2-.8.5-1.3.7-.4.2-.9.4-1.4.5s-1,.3-1.4.3c-.5.1-1,.2-1.5.2h-1.5c-1,0-1.9-.1-2.9-.3-1-.2-1.9-.4-2.8-.7-.5-.2-.9-.3-1.4-.5s-.9-.4-1.4-.6l.6.1-2.3.3c-.4.1-.8.1-1.2.1l-1.2.1c-.8.1-1.6.1-2.3.1-.8,0-1.6,0-2.4-.1s-1.6-.1-2.3-.3c-.4-.1-.8-.1-1.2-.2s-.8-.2-1.1-.3c-.8-.2-1.5-.5-2.2-.9-.3-.1-1-.6-1.4-1.2Z"/>
    <path d="m241.39,74.7s0,.3-.2.7c-.2.4-.5.9-1,1.2-.4.4-.9.6-1.4.7-.4.1-.7.1-.7.1,0,0,.2-.3.4-.6.3-.3.6-.7,1-1s.8-.6,1.2-.8c.4-.2.7-.3.7-.3Z"/>
    <path d="m269.89,78.4s1,.1,2.5.1h2.5c.4,0,.9-.1,1.3-.1.4-.1.9-.1,1.3-.2s.9-.2,1.3-.3c.2-.1.4-.1.6-.2s.4-.1.6-.2c.4-.1.8-.3,1.1-.5.2-.1.4-.2.5-.2.2-.1.3-.2.5-.3.3-.2.6-.3.9-.5.2-.2.5-.3.6-.4.4-.2.6-.4.6-.4,0,0-.1.2-.3.6-.1.2-.2.4-.4.7-.2.3-.4.5-.7.8-.1.1-.3.3-.4.5-.2.1-.3.3-.5.4-.4.3-.7.6-1.2.8-.4.2-.9.5-1.4.6-.5.2-1,.3-1.5.4s-1.1.1-1.6.2c-.5,0-1,0-1.5-.1-1-.1-1.8-.4-2.6-.6-1.4-.4-2.2-1.1-2.2-1.1Z"/>
    <path d="m243.09,91.6s.1.1.2.3c.1.2.2.5.2.9s0,.8-.1,1.2c-.1.4-.3.9-.5,1.3s-.4.8-.7,1.2c-.2.4-.5.7-.8.9-.5.5-.9.8-.9.8,0,0,.1-.5.4-1.1.3-.6.7-1.4,1-2.2.2-.4.4-.8.5-1.2.2-.4.3-.7.4-1,.3-.6.3-1.1.3-1.1Z"/>
    <path class="cls-4" d="m240.29,93.1s3,26.2,3.6,31,7.6,7.6,9.4,7.9,9.9.4,9.9.4c0,0,20.1-12.6,26,.5"/>
    <path class="cls-4" d="m178.19,203.8l27.1-36.2s26.1-2.7,36.6-10.4c12.8-9.3,12.8-6.6,22.6-7.1,4.7-.2,10.9-.1,14.9-5.9s3.3-5.2,3.3-5.2"/>
    <line class="cls-4" x1="289.19" y1="132.9" x2="280.39" y2="139.6"/>
    <path d="m226.19,95.5c0,.9,0,1.9-.2,2.8-.1.9-.3,1.9-.6,2.8-.1.5-.3.9-.4,1.4l-.5,1.3-.6,1.3c-.2.4-.5.8-.7,1.3-.2.4-.5.8-.8,1.2-.3.4-.5.8-.8,1.2l-.9,1.1c-.3.4-.7.7-1,1-.4.3-.7.7-1.1,1l-1.1.9c-.4.3-.8.6-1.2.8l-1.2.8.4-.7c0,2.2-.1,4.4-.3,6.5-.2,2.2-.4,4.3-.7,6.5-.1,1.1-.3,2.2-.5,3.2-.2,1.1-.4,2.1-.6,3.2-.4,2.1-1,4.3-1.6,6.3-.3,1-.7,2.1-1,3.1-.4,1-.8,2.1-1.2,3.1s-.9,2-1.4,3l-.8,1.4-.9,1.4c-.6.9-1.2,1.8-1.9,2.7-.3.4-.7.8-1.1,1.2-.4.4-.8.8-1.2,1.1-.8.7-1.7,1.4-2.6,2-.5.3-.9.5-1.4.8l-1.5.6,1.4-.8c.4-.3.9-.6,1.3-.9.8-.7,1.6-1.4,2.4-2.2.4-.4.7-.8,1-1.2s.7-.8.9-1.3c.6-.9,1.2-1.8,1.7-2.7l.7-1.4.7-1.4c.4-1,.9-1.9,1.2-2.9.7-2,1.4-4,1.9-6.1.3-1,.5-2.1.8-3.1.2-1,.5-2.1.7-3.1.4-2.1.8-4.2,1.1-6.3.3-2.1.6-4.2.8-6.4.2-2.1.4-4.3.5-6.4v-.5l.4-.3,1.2-.7c.4-.2.8-.4,1.2-.7l1.1-.8c.4-.2.7-.6,1-.9s.7-.6,1-.9l.9-1c.3-.3.6-.7.9-1.1.3-.4.6-.7.8-1.1s.5-.8.7-1.2l.7-1.2.6-1.2c.2-.4.4-.9.5-1.3.3-.9.6-1.8.8-2.7.3-.6.5-1.5.5-2.5Z"/>
    <path d="m263.29,131.7s0,.7.1,1.6c0,.5.1,1,.2,1.6s.2,1.2.3,1.8c.1.3.1.6.2.9.1.3.2.6.3.9.2.6.4,1.1.6,1.5.1.2.2.4.3.6.1.2.2.3.2.4.1.3.2.4.2.4,0,0-.1-.1-.4-.3-.2-.2-.5-.5-.9-.9-.2-.2-.3-.4-.5-.7-.2-.2-.3-.5-.5-.8-.3-.6-.5-1.2-.7-1.9-.1-.7-.2-1.3-.2-2,0-.6,0-1.2.1-1.7.4-.8.7-1.4.7-1.4Z"/>
    <path class="cls-5" d="m161.59,153.1s5.6,12.2,31.6,24.3"/>
    <path d="m256.29,86.7s-.5.1-1.3.1c-.4,0-.9-.1-1.3-.2-.5-.1-1-.3-1.5-.6-.2-.1-.5-.3-.7-.4-.2-.2-.4-.3-.6-.5-.4-.4-.6-.8-.7-1.2-.1-.2-.1-.4-.1-.6v-.4c0-.2.1-.4.1-.4,0,0,.1.1.1.3.1.2.2.5.4.8s.5.6.8.8c.2.1.4.3.5.4.2.1.4.2.6.4.4.2.9.4,1.3.6.4.2.8.3,1.2.5.7.2,1.2.4,1.2.4Z"/>
    <path d="m263.39,68.8s.1.2.2.5.3.7.7,1.1c.3.4.8.8,1.3,1.3.5.4,1.1.8,1.8,1.2.3.2.6.4,1,.5.3.2.6.3.9.5.3.1.6.3.9.4.1,0,.4,0,.6-.1.5-.2.8-.6,1.1-.8.2-.2.4-.4.4-.4,0,0-.1.2-.2.5-.2.3-.4.7-.9,1.1-.3.2-.5.4-1.1.4-.4-.1-.7-.2-1.1-.3-.7-.2-1.4-.6-2.1-1-1.3-.8-2.6-1.9-3.1-3-.2-.3-.2-.5-.3-.8-.1-.2-.1-.5-.1-.6-.1-.3,0-.5,0-.5Z"/>
    <path d="m278.19,77.2s-.4,0-.9-.2-1.1-.6-1.7-1.1c-.5-.5-.9-1.1-1.1-1.6s-.3-.9-.3-.9c0,0,.3.2.7.5.4.3.9.8,1.4,1.2.5.5.9.9,1.3,1.3.4.6.6.8.6.8Z"/>
  </g>
  <g>
    <polygon class="cls-1" points="71.49 206.1 82.39 165.8 59.79 163.9 34.99 154.9 35.49 156.6 26.79 169.4 9.49 193.1 71.49 206.1"/>
    <path class="cls-5" d="m40.39,156.3s14.9,10.1,39.1,9.2"/>
    <path class="cls-4" d="m13.19,190.1c0-1,25.5-37,26.3-41.9.9-4.9,13.8-70.1,13.8-70.1"/>
    <path class="cls-4" d="m51.89,77.9s-2.2-9.6,5-12.3"/>
    <path class="cls-4" d="m61.49,75.3l25.8-13c1.4-.7,3.7-.8,5.2-.3l17.5,6.3c1.5.5,3.2,2.1,3.9,3.5l2.4,4.9"/>
    <path class="cls-4" d="m61.89,63.5l31.8-15.6c1.4-.7,3.6-.5,4.9.3l21,14.1c1.3.9,3,2.7,3.7,4.1l2.3,4.2"/>
    <path class="cls-2" d="m105.69,39.9l4.7-.4c1.6-.1,3.7.7,4.8,1.8l10.8,11.3c1.1,1.1,2.4,3.2,3,4.7l1.6,3.8"/>
    <path class="cls-4" d="m57.89,65l37.1-26.5c1.3-.9,3.3-.9,4.6.1l23.1,17.2c1.2.9,2.9,2.8,3.6,4.2l3.2,6.1"/>
    <path class="cls-4" d="m78.59,87.4s5.1-.9,8.7-6.3"/>
    <path class="cls-4" d="m85.79,80.2s7.8,3.1,16.8,1.7"/>
    <path class="cls-4" d="m99.49,80.4s11.9,15.4,22.1,4l-5.4-6.9"/>
    <path class="cls-4" d="m122.49,86.1s5.5,1.3,8.7-5.8l-5.6-7.7"/>
    <path class="cls-4" d="m129.79,67.1l4.3,8s-1.6,3.1-2.9,3.3"/>
    <path class="cls-4" d="m100.69,85.6l4,9.7s3,2.2,7.5,2.2"/>
    <line class="cls-4" x1="109.39" y1="99.4" x2="119.89" y2="91.4"/>
    <path class="cls-4" d="m119.69,87.8s.9,4.2,1.3,5.9"/>
    <path d="m83.29,87s.2.1.4.6c.1.2.2.5.3.8.1.3.1.7.1,1v1.2c-.1.4-.1.9-.2,1.4s-.2,1-.3,1.4c-.1.5-.2,1-.4,1.5-.3,1-.7,1.9-1,2.8-.2.4-.4.8-.6,1.2-.2.4-.4.8-.5,1.1-.4.7-.7,1.2-.9,1.6-.2.4-.4.6-.4.6,0,0,.1-.2.2-.7.1-.4.3-1,.6-1.7.2-.7.5-1.5.8-2.4s.6-1.8.9-2.8c.2-.5.3-.9.4-1.4s.3-.9.4-1.4c.1-.4.2-.9.3-1.3.1-.4.1-.8.2-1.2.1-.7.1-1.3,0-1.8-.2-.3-.3-.5-.3-.5Z"/>
    <path d="m79.99,98.3s.1.9.2,2.4c.1,1.6.3,3.8.4,6.4.1,2.7.3,5.8.3,9.1.1,3.3.1,6.9.1,10.5,0,1.8-.1,3.6-.1,5.3,0,.9-.1,1.8-.2,2.6-.1.9-.2,1.7-.4,2.6-.5,1.7-1.5,3.1-2.4,4.3-1,1.2-1.9,2.3-2.9,3.3-1.9,1.9-3.7,3.3-4.9,4.2-.6.5-1.2.8-1.5,1-.4.2-.6.3-.6.3,0,0,.2-.1.5-.4.3-.2.8-.6,1.4-1.1,1.2-1,2.8-2.5,4.6-4.4.9-1,1.8-2.1,2.7-3.3.9-1.2,1.7-2.6,2.2-4.1.2-.7.3-1.6.4-2.4.1-.8.1-1.7.1-2.6.1-1.7.1-3.5.1-5.3v-26c0-1.5,0-2.4,0-2.4Z"/>
    <path d="m63.79,147.7s.2-.1.6-.3c.4-.2.9-.5,1.5-.9s1.4-.8,2.2-1.2,1.6-.9,2.5-1.3c.8-.4,1.7-.9,2.5-1.3.8-.4,1.5-.8,2.1-1.2s1.1-.7,1.5-.9c.3-.2.5-.4.5-.4,0,0-.1.2-.4.5-.1.2-.3.4-.5.6-.2.2-.4.5-.7.7-.6.5-1.2,1-2,1.5s-1.6,1-2.4,1.4c-1.7.9-3.5,1.7-4.9,2.1-.7.2-1.3.4-1.7.5-.6.1-.8.2-.8.2Z"/>
    <path d="m102.49,90s.1.3.4,1c.2.6.5,1.5.9,2.5.7,2.1,1.6,5,2.3,7.8.8,2.9,1.4,5.8,1.9,8,.2,1.1.4,2,.5,2.7.1.6.1,1,.1,1,0,0-.5-1.4-1.1-3.5-.7-2.1-1.5-5-2.3-7.8-.8-2.9-1.5-5.8-1.9-7.9-.2-1.1-.4-2-.5-2.6-.2-.9-.3-1.2-.3-1.2Z"/>
    <path class="cls-4" d="m129.99,59.7l4.7,8.9s-1,1.4-2.2,1.4"/>
    <path class="cls-4" d="m135.39,70.2s4.2.7.8,12.6"/>
    <path d="m136.79,83.4s.3.5.6,1.3c.2.4.4.9.6,1.5.2.6.4,1.3.6,2.1.2.8.4,1.6.5,2.5s.2,1.9.2,2.9c0,.5,0,1-.1,1.6,0,.5-.1,1.1-.2,1.6-.2,1.1-.6,2.1-1.2,3.2-.3.5-.7.9-1,1.4-.4.4-.7.8-1.1,1.1-.7.8-1.5,1.4-2.3,2.1-1.5,1.3-3,2.3-4.3,3.2-2.6,1.7-4.6,2.5-4.6,2.5,0,0,1.6-1.4,3.9-3.4,1.1-1,2.5-2.2,3.8-3.6.7-.7,1.4-1.4,2-2.1.3-.4.7-.7,1-1.1.2-.4.6-.7.8-1.1.5-.8.8-1.7,1-2.6.1-.5.2-.9.3-1.4s.1-.9.2-1.4c0-.5.1-.9.1-1.4v-1.3c0-.9-.1-1.7-.1-2.4-.1-1.5-.3-2.8-.5-3.7-.1-1-.2-1.5-.2-1.5Z"/>
    <path d="m125.39,107s-.2,1-.9,2.6c-.3.8-.7,1.8-1.2,2.9s-1.1,2.3-1.8,3.6c-.7,1.3-1.5,2.7-2.4,4.1s-1.9,2.9-3,4.4-2.3,3-3.6,4.5c-1.2,1.5-2.7,2.9-4,4.4-1.4,1.4-2.9,2.7-4.3,4.1-1.5,1.3-3,2.5-4.4,3.6-1.5,1.1-3,2.1-4.4,3.1s-2.8,1.8-4.1,2.5c-1.3.8-2.4,1.5-3.5,2s-2,1-2.8,1.4c-1.5.8-2.4,1.2-2.4,1.2,0,0,.8-.6,2.2-1.5.7-.5,1.6-1,2.6-1.7,1-.6,2.1-1.5,3.3-2.3.6-.4,1.2-.9,1.9-1.3.6-.5,1.3-.9,2-1.5,1.3-1,2.7-2.1,4.1-3.3s2.8-2.5,4.2-3.7c1.4-1.3,2.8-2.7,4.2-4,1.3-1.4,2.7-2.8,4-4.2,1.2-1.4,2.5-2.8,3.6-4.3,1.2-1.4,2.2-2.8,3.2-4.2.5-.7.9-1.4,1.4-2,.4-.7.9-1.3,1.3-1.9.8-1.2,1.5-2.4,2.1-3.4s1.1-1.9,1.5-2.7c.4-.8.7-1.4.9-1.8.2-.4.3-.6.3-.6Z"/>
    <line class="cls-4" x1="87.39" y1="145.2" x2="73.29" y2="202.9"/>
    <path d="m114.69,78.8s-.4.5-.8,1.2c-.2.4-.3.8-.4,1.3,0,.2,0,.4.1.7.1.2.1.4.3.6.1.2.3.5.5.7s.3.4.5.6c.3.4.7.8.9,1.1l1,1s-.6-.1-1.4-.6c-.4-.2-.8-.6-1.2-.9l-.6-.6c-.2-.3-.4-.4-.6-.7-.2-.3-.3-.6-.4-1-.1-.3-.1-.7,0-1s.2-.6.3-.8c.1-.2.3-.4.5-.6.8-.8,1.3-1,1.3-1Z"/>
    <path d="m123.79,73.6s-.2.1-.5.3c-.3.2-.8.6-.9,1.1-.1.3-.1.6-.1.9s.2.7.3,1c.1.4.3.8.5,1.2.2.4.3.8.5,1.2.3.8.7,1.6,1.2,1.9.3.2.6.3.9.3h1c.6-.1,1.2-.2,1.6-.3.4-.1.6-.1.6-.1,0,0-.2.1-.5.3-.2.1-.4.2-.6.3-.3.1-.5.2-.9.3-.3.1-.7.2-1.2.2-.4,0-.9-.1-1.4-.3-.4-.3-.8-.6-1-1.1-.3-.4-.5-.8-.6-1.3-.3-.9-.6-1.7-.8-2.5-.1-.4-.2-.9-.2-1.3s.1-.9.3-1.2c.4-.7,1-1,1.4-1.1.1.2.4.2.4.2Z"/>
    <path class="cls-3" d="m128.49,68s-1,.8-1.8,2.2"/>
    <path d="m129.89,76.5s.1-.2.4-.5c.2-.3.6-.6.9-.8.3-.3.7-.5.9-.8l.3-.3.1-.1s.1.3,0,.6c-.1.4-.4.8-.8,1.1-.4.3-.8.5-1.2.6-.3.2-.6.2-.6.2Z"/>
    <path d="m86.39,86.2s.1,0,.1.1c.1.1.2.3.2.5.1.2.1.5.2.8v1.1c-.1.8-.3,1.7-.6,2.7-.3,1-.7,2-1.1,2.9-.8,1.9-1.9,3.8-2.8,5.1-.4.7-.8,1.2-1.1,1.6-.3.4-.4.6-.4.6,0,0,.1-.3.3-.7.2-.4.4-1,.8-1.7.3-.7.7-1.6,1.1-2.4.4-.9.9-1.8,1.3-2.8.2-.5.4-.9.6-1.4s.4-.9.6-1.4c.4-.9.6-1.8.8-2.5.1-.4.2-.7.2-1s.1-.6,0-.8c0-.2-.1-.4-.1-.5,0-.2-.1-.2-.1-.2Z"/>
  </g>
</svg>