<?xml version="1.0" encoding="UTF-8"?>
<svg id="Lager_1" data-name="Lager 1" xmlns="http://www.w3.org/2000/svg" xmlns:xlink="http://www.w3.org/1999/xlink" viewBox="0 0 435.8 348.2">
  <defs>
    <style>
      .cls-1 {
        fill: url(#linear-gradient-2);
      }

      .cls-2 {
        fill: #fff;
      }

      .cls-3, .cls-4, .cls-5, .cls-6, .cls-7, .cls-8, .cls-9, .cls-10, .cls-11 {
        fill: none;
        stroke: #000;
      }

      .cls-3, .cls-4, .cls-6, .cls-7, .cls-8, .cls-9 {
        stroke-linecap: round;
      }

      .cls-4 {
        stroke-width: 1.4px;
      }

      .cls-5, .cls-8 {
        stroke-width: .5px;
      }

      .cls-6 {
        stroke-linejoin: bevel;
      }

      .cls-6, .cls-7 {
        stroke-width: 1.5px;
      }

      .cls-9, .cls-10 {
        stroke-width: 2px;
      }

      .cls-12 {
        fill: url(#linear-gradient-3);
      }

      .cls-13 {
        fill: url(#linear-gradient);
      }
    </style>
    <linearGradient id="linear-gradient" x1="-742.16" y1="1207.67" x2="-706.42" y2="1214.35" gradientTransform="translate(-519.99 -1077.32) rotate(-54.42)" gradientUnits="userSpaceOnUse">
      <stop offset="0" stop-color="#fff"/>
      <stop offset="1" stop-color="#ededed"/>
    </linearGradient>
    <linearGradient id="linear-gradient-2" x1="178.81" y1="1204.7" x2="187.98" y2="1182.57" gradientTransform="translate(0 -964.66)" gradientUnits="userSpaceOnUse">
      <stop offset="0" stop-color="#fff"/>
      <stop offset="1" stop-color="#ededed"/>
    </linearGradient>
    <linearGradient id="linear-gradient-3" x1="498.16" y1="-296.53" x2="508.38" y2="-281.36" gradientTransform="translate(-113.68 -194.85) rotate(12.66) scale(1 -1)" gradientUnits="userSpaceOnUse">
      <stop offset="0" stop-color="#fff"/>
      <stop offset="1" stop-color="#ededed"/>
    </linearGradient>
  </defs>
  <rect class="cls-2" y="60.7" width="433" height="226.8"/>
  <g>
    <polygon class="cls-13" points="56.7 260 83 207.3 62.7 198 55 178.9 49.2 165.1 44.8 170.4 33.9 178.8 .4 201.5 56.7 260"/>
    <path class="cls-9" d="m20.7,188.5s23.8-17.2,29.8-23"/>
    <path class="cls-9" d="m134.9,183.8c1.1-4.8.1-15.9-2.5-28s-9.7-33.6-16.1-33.7c-4.4,0-8.3,4.1-12.2,4.6-4.4.6-9.1-2.4-12.8-1.2-4.2,1.4-6.7,6.9-10.1,8.9-3.9,2.3-9.3,1.5-12.3,4.1-3.6,3.2-4.1,9.4-6.4,12.4-4.9,6.3-10.1,2.3-10,9.2.1,9.3,1.4,25.7,13.1,38.8,2.4,2.7,16.2,8.9,20.3,8.8,4.1-.1,7.5-3.2,7.5-3.2"/>
    <path class="cls-9" d="m68.2,161.3s8.3,20,11.4,25.4c3.2,5.3,11.5,13.8,13.6,15.2s11.2.9,12.3-.1"/>
    <path class="cls-9" d="m84.5,148.2s16.1,44.8,27.5,65.3"/>
    <path class="cls-9" d="m111.2,209.6s2.2,12.9,6.8,15.9c5.3,3.4,11.7.3,12.8-5.3s-1-14.8-4-18"/>
    <line class="cls-9" x1="107.1" y1="140.9" x2="129.5" y2="207.8"/>
    <path d="m137.6,184.3s-.7.7-1.8,1.9c-.5.6-1.1,1.2-1.8,1.9-.3.3-.6.7-1,1.1-.3.4-.6.7-1,1.1-.3.4-.6.8-.9,1.1-.3.4-.6.8-.9,1.1-.3.4-.6.7-.8,1.1-.3.3-.5.7-.7,1s-.5.6-.6.8c-.2.3-.4.5-.5.7-.3.4-.5.6-.5.6,0,0,0-.3.1-.8s.2-1.2.5-2c.1-.4.3-.8.5-1.2.2-.4.4-.9.7-1.3.3-.4.5-.9.8-1.3.3-.4.6-.9,1-1.3.7-.8,1.5-1.6,2.2-2.2.4-.3.8-.6,1.2-.8.4-.2.7-.5,1.1-.6.7-.4,1.3-.6,1.7-.7.5-.1.7-.2.7-.2Z"/>
    <line class="cls-9" x1="82.1" y1="209.8" x2="60.4" y2="250.3"/>
    <path class="cls-9" d="m137.3,175.4s12.6,13.4,10.7,20.9c-1.7,6.5-8.7,10.5-8.7,10.5"/>
    <path class="cls-9" d="m139,206.4l-4.5,6.4s-.9,1.3-1.4,1.5-1.4-.8-1.4-.8"/>
    <path d="m133.4,212.7s.3-.3.7-.8c.5-.5,1.1-1.2,1.9-2,.4-.4.8-.9,1.2-1.4.2-.3.4-.5.6-.8.2-.3.3-.5.3-.8,0-.2-.1-.6-.2-.9-.1-.3-.3-.7-.4-1-.3-.7-.7-1.3-1.2-1.9-.9-1.2-2-2.2-3.1-2.8-.3-.2-.6-.3-.8-.3s-.5.1-.7.2c-.5.3-1,.7-1.4,1.1-1.7,1.5-2.9,2.4-2.9,2.4,0,0,.3-.3.7-.8.5-.5,1.1-1.2,1.9-2,.4-.4.8-.9,1.4-1.3.3-.2.6-.4,1.1-.4s.8.1,1.1.3c1.3.6,2.5,1.7,3.5,3,.5.6.9,1.3,1.3,2.1.2.4.3.7.5,1.1.1.4.2.8.2,1.3-.1.5-.3.9-.5,1.2s-.5.6-.7.8l-1.3,1.3c-.8.8-1.6,1.3-2.1,1.7-.8.5-1.1.7-1.1.7Z"/>
    <path d="m127.5,216.4s.1,0,.3-.1c.2-.1.4-.3.4-.7-.1-.8-.7-1.8-1.4-2.9-.8-1.1-1.8-2.4-3-3.5-.1-.1-.3-.3-.4-.3-.1-.1-.1,0-.2-.1h-.2c-.4,0-.7.1-1.1.2-.8.2-1.5.6-2.3,1-.7.4-1.4,1-2,1.5-.6.6-1.2,1.2-1.6,1.9-.1.2-.2.7-.2,1.1s0,.8.1,1.2c.1.8.3,1.5.5,2.2.4,1.4.8,2.5,1.1,3.2.3.8.5,1.2.5,1.2,0,0-.2-.4-.6-1.1-.4-.7-.9-1.8-1.4-3.1-.2-.7-.5-1.4-.7-2.2-.1-.8-.4-1.7,0-2.8.5-.9,1-1.6,1.7-2.2.7-.6,1.4-1.2,2.2-1.7.8-.5,1.6-.9,2.5-1.1.4-.1.9-.2,1.4-.2h.4c.1,0,.3.1.4.1.3.1.4.3.6.4.7.6,1.2,1.3,1.7,1.9.5.6.9,1.3,1.3,1.9.4.6.7,1.2.9,1.7s.4,1.1.3,1.5c0,.2-.1.4-.2.6-.1.1-.3.2-.4.2-.5.2-.6.2-.6.2Z"/>
    <line class="cls-9" x1="108.6" y1="138.3" x2="107.3" y2="144"/>
    <path d="m118.7,222.4s.4-.6,1.2-1.4c.4-.4.9-.8,1.4-1.2s1.1-.8,1.7-1.2,1.2-.7,1.8-1c.6-.3,1.2-.5,1.7-.7.5-.1.9-.3,1.2-.3s.5-.1.5-.1c0,0-.2.1-.4.2-.3.1-.6.4-1.1.6-.4.3-1,.6-1.5.9-.5.4-1.1.7-1.7,1.1-1.2.8-2.3,1.5-3.2,2.1-1,.6-1.6,1-1.6,1Z"/>
    <path class="cls-8" d="m100.5,177.4s2.4-4.5,10.3-6.5"/>
    <path class="cls-8" d="m101,179.9s6.9-2.8,10.5-7.4"/>
    <path class="cls-8" d="m118.7,168.8s5.6-.1,11.5-5.1"/>
    <path class="cls-8" d="m129.8,162.5s-5.6,0-11.5,4.9"/>
    <path class="cls-8" d="m85.2,189.6s5.6-.8,11-5.4"/>
    <path class="cls-8" d="m67.4,196.2s5.6-.8,11-5.4"/>
    <path class="cls-8" d="m84.2,189.2s3.1-4,10.6-6.7"/>
    <line class="cls-9" x1="65.7" y1="160.7" x2="69.2" y2="163.8"/>
  </g>
  <g>
    <polygon class="cls-1" points="200.9 246.9 212.9 209.6 194.1 206.9 173.8 196.5 174.2 198.2 167.1 212.2 156.3 234.2 200.9 246.9"/>
    <line class="cls-9" x1="200.2" y1="248.9" x2="217.3" y2="195.5"/>
    <path class="cls-9" d="m212.4,199.5s20.7-5.6,40.3-33.9"/>
    <path class="cls-10" d="m251.5,167.3s9.3-16.3,25.6-22.5c8.3-3.1,5.6-8.1,5.6-8.1"/>
    <path class="cls-9" d="m158.8,228.4s19.1-41.2,23-48c3.8-6.8,11.5-40.3,13.5-47.4s2.5-7.5,6.9-10"/>
    <path class="cls-10" d="m234.3,139.4s-1.8,7.1,1.4,8.9,5.3,1.7,10.1-2.7c4.8-4.4,7.2-6.5,7.2-6.5"/>
    <path d="m216.4,135.9c.8.4,1.6.6,2.4.9.8.2,1.7.4,2.5.5.4.1.8.1,1.3.2.4,0,.8.1,1.3.1h2.6c.4,0,.8-.1,1.2-.1s.8-.1,1.2-.1l1.2-.2,1.2-.3c.8-.1,1.6-.4,2.4-.7.4-.1.8-.3,1.2-.4l1.2-.4.3-.1.3.1c.7.2,1.4.4,2.2.5.7.1,1.5.3,2.2.4,1.5.2,3,.4,4.4.4,3,.1,5.9-.1,8.6-1.2l.3-.1.3.1c1,.4,2.1.7,3.2,1s2.2.6,3.3.8c2.2.4,4.4.8,6.5.6,1.1-.1,2.1-.3,3-.8.4-.3,1-.6,1.4-.9s.9-.7,1.3-1.1.8-.8,1.2-1.3c.4-.5.7-1,1-1.5.6-1.1,1.1-2.2,1.3-3.4-.2,2.5-1.3,5-2.9,6.9-.4.5-.8.9-1.3,1.3-.5.5-.9.8-1.4,1.1-1.1.7-2.3,1-3.5,1.2s-2.4.2-3.5.2c-1.2-.1-2.3-.2-3.5-.4-1.1-.2-2.3-.4-3.4-.7-1.1-.3-2.2-.6-3.4-.9h.7c-1.5.6-3.1,1-4.7,1.2-1.6.2-3.2.2-4.7.2-1.6-.1-3.1-.3-4.7-.5-.8-.1-1.5-.3-2.3-.5s-1.5-.4-2.3-.6h.6l-1.3.4c-.4.1-.8.3-1.3.4-.9.2-1.7.4-2.6.5l-1.3.2-1.3.1h-2.6l-1.3-.1c-.4,0-.9-.1-1.3-.2-.4-.1-.9-.2-1.3-.3-.4-.1-.8-.2-1.3-.3-.8-.2-1.7-.6-2.5-.9-.6-.3-1.4-.8-2.1-1.3Z"/>
    <path d="m221.8,136.5s.1.5,0,1.3c-.1.4-.2.8-.3,1.3-.2.4-.4.9-.7,1.3s-.6.8-.9,1.1c-.3.3-.6.6-1,.8-.3.2-.6.3-.8.4s-.3.1-.3.1c0,0,.1-.1.2-.3s.3-.4.5-.7c.2-.3.5-.6.7-.9s.5-.7.7-1.1.5-.8.7-1.1c.2-.4.4-.7.5-1,.5-.8.7-1.2.7-1.2Z"/>
    <path d="m218.5,144.2c0,3.6-.1,7.1-.2,10.6-.1,3.5-.2,7.1-.4,10.6l-.4,10.6-.5,10.6h0c-.1.5-.2.9-.3,1.3s-.3.8-.5,1.2c-.4.8-.8,1.5-1.3,2.2-1,1.4-2.2,2.5-3.5,3.4s-2.7,1.6-4.2,2.1c-.7.2-1.5.4-2.2.6-.7.2-1.5.2-2.3.3.7-.1,1.5-.3,2.2-.5s1.5-.4,2.2-.7c1.4-.6,2.8-1.3,4-2.2s2.3-2.1,3.2-3.4c.4-.7.8-1.4,1.1-2.1.2-.4.3-.7.4-1.1.1-.4.2-.8.3-1.1h0l.4-10.6.5-10.6c.2-3.5.4-7.1.6-10.6.4-3.5.6-7,.9-10.6Z"/>
    <path class="cls-11" d="m178,198.6s9.7,9.9,31.5,10.7"/>
    <path class="cls-9" d="m211.8,119.6s22.2-2.1,26.4-2.4c4.2-.4,6.3.8,10.1,1.7s18.4,4.8,18.4,4.8"/>
    <line class="cls-9" x1="267" y1="124.7" x2="276.7" y2="129.1"/>
    <path class="cls-9" d="m196.8,123.6s1.3-9.1,6.7-9.4"/>
    <path class="cls-6" d="m201.5,112.3s2.2-5.6,6.5-5c4.3.7,36.8,2.8,36.8,2.8l34.6,12.2"/>
    <path class="cls-9" d="m280.4,123.3l8.9,3.2s.2,12.1-13.3,8.9"/>
    <path class="cls-9" d="m249.2,107.9c2.9-.7,38,14,38,14"/>
    <path class="cls-7" d="m286.9,122.1l10.3,3.4s-.6,11.3-10.8,11.1"/>
    <path d="m239.7,154.2s.2.1.4.3c.3.2.6.6,1,1,.4.5.9,1,1.3,1.6.4.6.9,1.3,1.3,2.1.4.7.8,1.5,1.1,2.2s.6,1.4.8,2c.4,1.2.6,2,.6,2,0,0-.5-.7-1-1.8-.3-.5-.6-1.2-1-1.8-.4-.7-.7-1.4-1.1-2.1-.4-.7-.8-1.4-1.1-2.1-.4-.7-.7-1.3-1-1.8-.9-1-1.3-1.6-1.3-1.6Z"/>
    <path d="m255.4,141.4s.4.4.9,1.1,1.1,1.7,1.7,2.7,1.1,2.1,1.4,2.9.5,1.4.5,1.4c0,0-.4-.4-.9-1.1s-1.1-1.7-1.7-2.7-1.1-2.1-1.4-2.9c-.3-.8-.5-1.4-.5-1.4Z"/>
    <path d="m240.2,117.1s.1.5.3,1.3c.1.8.3,1.8.4,2.9.1,1,.3,2.1.4,2.8.1.4.1.7.2.9,0,.2.1.4.1.4,0,0-.1-.1-.2-.3-.1-.2-.3-.5-.5-.8-.2-.4-.3-.8-.5-1.3-.1-.5-.2-1-.3-1.6-.1-1.1-.1-2.2,0-3-.1-.8.1-1.3.1-1.3Z"/>
    <path class="cls-3" d="m243,118.6s-.3,5.1-.6,8.1"/>
    <path d="m266.8,126s.3.8.8,2,1.4,2.7,2.5,3.7c.3.3.6.5.9.7s.6.3.9.3c.5,0,1.1-.4,1.6-.8s.9-.8,1.2-1c.3-.2.5-.3.5-.3,0,0-.1.2-.3.5-.2.3-.5.8-.9,1.3-.2.3-.4.5-.8.8-.3.3-.7.5-1.2.5s-.9-.2-1.3-.4c-.4-.2-.7-.5-1.1-.8-1.3-1.2-2-3-2.4-4.3-.4-1.2-.4-2.2-.4-2.2Z"/>
    <path d="m277.9,124.7s.6.6,1.5,1.5c.4.4,1,1,1.5,1.5.6.5,1.2,1,1.9,1.4.3.2.7.3,1,.3s.6,0,.9-.2c.7-.4,1.3-.8,1.8-1.1,1.1-.6,1.8-.9,1.8-.9,0,0-.6.6-1.6,1.4-.5.4-1,.9-1.7,1.3-.3.3-.9.5-1.4.4-.5,0-.9-.2-1.3-.4-.8-.4-1.4-1-2-1.6s-1-1.2-1.4-1.8c-.6-.9-1-1.8-1-1.8Z"/>
    <path class="cls-3" d="m291.4,128.1c1.5.2,2.7-2.4,3.9-3.3"/>
    <path d="m212.4,139.6s.5.2,1.1.4c.7.3,1.5.6,2.4,1s1.8.8,2.4,1c.3.2.6.3.8.4s.3.2.3.2c0,0-.5.1-1.2,0s-1.7-.3-2.6-.7c-.9-.4-1.8-.9-2.4-1.4-.5-.4-.8-.9-.8-.9Z"/>
    <path class="cls-4" d="m222.7,106.7c11.9-.5,29.9,1.7,29.9,1.7"/>
  </g>
  <g>
    <g id="Färg">
      <polygon class="cls-12" points="320.7 226.4 337.7 192.6 337.6 188.5 332 185.5 326.3 179.8 322.9 170.4 325.3 151.5 292.2 182.7 320.7 226.4"/>
    </g>
    <path d="m424.9,223.8s-.2-.3-.5-.8-.8-1.2-1.4-2c-.3-.4-.6-.9-.9-1.3-.2-.2-.4-.4-.5-.7-.2-.2-.4-.4-.5-.4s-.4,0-.7.1c-.3.1-.5.2-.8.3-.6.3-1.1.6-1.6.9-.5.3-1.1.7-1.6,1.1-.2.2-.5.4-.6.6-.2.2-.2.4-.3.7-.1.6,0,1.2.1,1.7.1.6.3,1.1.4,1.6.4,1,.7,1.7,1,2.2s.5.8.5.8c0,0-.1-.1-.2-.2-.1-.1-.3-.3-.4-.5-.4-.5-.9-1.2-1.3-2.1-.2-.5-.5-1-.6-1.6-.2-.6-.3-1.3-.2-2,0-.4.2-.8.4-1.2.2-.3.5-.5.7-.8.5-.4,1.1-.8,1.6-1.2s1.1-.7,1.7-.9c.3-.1.6-.3.9-.4.2,0,.3-.1.5-.1h.6c.4.2.6.5.8.7.2.3.4.5.5.8.3.5.6,1,.8,1.5,1.1,1.9,1.6,3.2,1.6,3.2Z"/>
    <path d="m410.4,225.9s-.2-.3-.5-.8-.8-1.2-1.3-2c-.3-.4-.6-.8-.9-1.3-.3-.4-.7-.9-1.1-1.2-.2-.2-.8,0-1.3.2s-1.1.5-1.6.8-1,.6-1.5,1-1,.7-1.2,1.1c-.2.4-.2,1-.1,1.5s.3,1,.4,1.5c.4.9.7,1.6,1,2.1s.4.8.4.8c0,0-.2-.2-.6-.7-.4-.4-.9-1.1-1.4-2-.2-.4-.5-1-.6-1.6s-.2-1.3.1-2.1c.3-.7.9-1.1,1.4-1.5s1-.7,1.6-1.1c.5-.3,1.1-.6,1.7-.9.3-.1.6-.2.9-.3.2,0,.4-.1.5,0,.2,0,.5.2.6.3.5.5.8,1,1.2,1.5.3.5.6,1,.8,1.4,1,2,1.5,3.3,1.5,3.3Z"/>
    <path d="m430.6,213.4s-.5-.7-1.2-1.8c-.4-.5-.8-1.1-1.2-1.8-.2-.3-.5-.6-.7-.9-.2-.3-.5-.6-.8-.7h-.3c-.2,0-.3.1-.5.2-.3.1-.7.3-1,.5-.6.4-1.2.7-1.7,1s-.9.6-1.2.8c-.3.2-.5.3-.5.3,0,0,.1-.2.3-.5.2-.3.6-.7,1-1.2.5-.4,1-.9,1.7-1.3.3-.2.7-.4,1.1-.5.2-.1.4-.1.6-.2h.4c.1,0,.3.1.4.1.5.3.7.7,1,1,.2.4.5.7.7,1.1.4.7.7,1.4,1,2,.6,1.1.9,1.9.9,1.9Z"/>
    <path class="cls-9" d="m297.8,177.4c2.3-2.9,36.9-39.6,51.1-41.5,10.8-1.5,48.9,13.9,48.9,13.9,0,0,6.1-.7,11.1,12.2l13.8,25.1,9.2,25.2s1.8,7.4-6.5,7.8"/>
    <path class="cls-9" d="m326.8,215.7s9.9-20.6,15.5-27.5"/>
    <path class="cls-9" d="m338.5,182s9.3,9.5,20,10.8"/>
    <path class="cls-9" d="m398.7,166.4l13.1,23,15.2,34.9s-1.9,6.5-9,5.9c-6.2-.5-8.8-9-8.8-9"/>
    <line class="cls-9" x1="399.6" y1="163" x2="401.2" y2="170.6"/>
    <path class="cls-9" d="m386.4,173.4l12.3,24.8,13.8,30.4s-5,8.8-10.9,2.8c-3.5-3.6-15.2-21.8-15.2-21.8l-14.1-25.3-2.1-1.4"/>
    <path class="cls-9" d="m356.3,187.8l13.4,19.2s7.8,8.3,12.9-1.6"/>
    <path class="cls-9" d="m375,213.9s-.8,4.3,3.1,7.3"/>
    <line class="cls-9" x1="379.5" y1="222.3" x2="385.8" y2="215.7"/>
    <line class="cls-9" x1="383.4" y1="216.1" x2="388.6" y2="215.6"/>
    <path class="cls-11" d="m325.6,154.3s-11,24.6,12.8,34.4"/>
    <path class="cls-3" d="m386.9,156s6.5,1,8.3,9.5"/>
    <path class="cls-5" d="m409.7,191.7s-7.1,3-8.2,4.5"/>
    <path class="cls-5" d="m409.8,194s-2.8,2-6.7,3.5"/>
    <path class="cls-5" d="m396.3,198.4s-4.1,4.2-8.6,5.9"/>
    <path class="cls-5" d="m395.5,197.1s-6.4,3-8.8,5.8"/>
    <path class="cls-5" d="m420,185.9s-2.7.4-5.9,3.5"/>
    <path class="cls-5" d="m421,187.1s-1.3,1.9-7.1,3.6"/>
  </g>
</svg>