<?xml version="1.0" encoding="UTF-8"?>
<svg id="Lager_1" data-name="Lager 1" xmlns="http://www.w3.org/2000/svg" xmlns:xlink="http://www.w3.org/1999/xlink" viewBox="0 0 415.8 332.22">
  <defs>
    <style>
      .cls-1 {
        fill: url(#linear-gradient-2);
      }

      .cls-2 {
        fill: #fff;
      }

      .cls-3, .cls-4, .cls-5, .cls-6, .cls-7 {
        fill: none;
        stroke: #000;
      }

      .cls-3, .cls-5, .cls-6 {
        stroke-linecap: round;
      }

      .cls-4, .cls-5 {
        stroke-width: .5px;
      }

      .cls-6 {
        stroke-width: 2px;
      }

      .cls-8 {
        fill: url(#linear-gradient-3);
      }

      .cls-9 {
        fill: url(#linear-gradient);
      }
    </style>
    <linearGradient id="linear-gradient" x1="-1073.56" y1="-546.23" x2="-1037.2" y2="-553.02" gradientTransform="translate(210.27 -969.58) rotate(-54.42) scale(1 -1)" gradientUnits="userSpaceOnUse">
      <stop offset="0" stop-color="#fff"/>
      <stop offset="1" stop-color="#ededed"/>
    </linearGradient>
    <linearGradient id="linear-gradient-2" x1="183.76" y1="1222.19" x2="193.57" y2="1198.51" gradientTransform="translate(0 -962.66)" gradientUnits="userSpaceOnUse">
      <stop offset="0" stop-color="#fff"/>
      <stop offset="1" stop-color="#ededed"/>
    </linearGradient>
    <linearGradient id="linear-gradient-3" x1="472.46" y1="-297.55" x2="482.7" y2="-282.36" gradientTransform="translate(-111.95 -208.42) rotate(12.66) scale(1 -1)" gradientUnits="userSpaceOnUse">
      <stop offset="0" stop-color="#fff"/>
      <stop offset="1" stop-color="#ededed"/>
    </linearGradient>
  </defs>
  <rect class="cls-2" y="52.71" width="416" height="226.8"/>
  <g>
    <polygon class="cls-9" points="57.4 252.01 84.5 199.31 63.6 190.01 55.6 170.91 49.7 157.11 45.1 162.41 33.9 170.81 -.6 193.51 57.4 252.01"/>
    <path class="cls-6" d="m20.4,180.51s24.4-17.2,30.6-23"/>
    <path class="cls-6" d="m137.9,175.81c1.1-4.8.1-15.9-2.6-28-2.7-12.1-9.9-33.6-16.6-33.7-4.5,0-8.6,4.1-12.6,4.6-4.4.6-9.4-2.4-13.2-1.2-4.4,1.4-6.9,6.9-10.4,8.9-4.1,2.3-9.6,1.5-12.7,4.1-3.7,3.2-4.2,9.4-6.6,12.4-5,6.3-10.4,2.3-10.3,9.2.1,9.3,1.5,25.7,13.4,38.8,2.5,2.7,16.7,8.9,20.9,8.8,4.3-.1,7.7-3.2,7.7-3.2"/>
    <path class="cls-6" d="m69.2,153.31s8.5,20,11.8,25.4c3.2,5.3,11.9,13.8,14.1,15.2s11.6.9,12.6-.1"/>
    <path class="cls-6" d="m86.1,140.21s16.6,44.8,28.3,65.3"/>
    <path class="cls-6" d="m113.6,201.61s2.2,12.9,6.9,15.9c5.5,3.4,12,.3,13.1-5.3s-1-14.8-4.2-18"/>
    <line class="cls-6" x1="109.2" y1="132.91" x2="132.4" y2="199.81"/>
    <path d="m140.7,176.31s-.7.7-1.9,1.9c-.6.6-1.2,1.2-1.8,1.9-.4.3-.6.7-1,1.1s-.6.7-1,1.1c-.4.4-.6.8-1,1.1-.3.4-.6.8-.9,1.1-.3.4-.6.7-.8,1.1-.3.3-.6.7-.7,1-.2.3-.5.6-.6.8-.2.3-.4.5-.6.7-.3.4-.5.6-.5.6,0,0,0-.3.1-.8s.3-1.2.6-2c.2-.4.3-.8.5-1.2s.4-.9.6-1.3c.3-.4.6-.9.8-1.3.3-.4.6-.9,1-1.3.7-.8,1.5-1.6,2.3-2.2.4-.3.8-.6,1.2-.8.4-.2.7-.5,1.1-.6.7-.4,1.4-.6,1.8-.7.6-.1.8-.2.8-.2Z"/>
    <line class="cls-6" x1="83.6" y1="201.81" x2="61.2" y2="242.31"/>
    <path class="cls-6" d="m140.4,167.41s13,13.4,11,20.9c-1.8,6.5-9,10.5-9,10.5"/>
    <path class="cls-6" d="m142.1,198.41l-4.6,6.4s-.9,1.3-1.5,1.5-1.5-.8-1.5-.8"/>
    <path d="m136.4,204.71s.3-.3.7-.8c.5-.5,1.1-1.2,1.9-2,.4-.4.8-.9,1.2-1.4.2-.3.4-.5.6-.8s.4-.5.4-.8c0-.2-.1-.6-.2-.9-.1-.3-.3-.7-.5-1-.4-.7-.7-1.3-1.2-1.9-.9-1.2-2-2.2-3.2-2.8-.3-.2-.6-.3-.8-.3s-.5.1-.7.2c-.6.3-1,.7-1.5,1.1-1.8,1.5-3.1,2.4-3.1,2.4,0,0,.3-.3.7-.8s1.1-1.2,1.9-2c.5-.4.8-.9,1.5-1.3.3-.2.6-.4,1.1-.4s.8.1,1.2.3c1.4.6,2.6,1.7,3.6,3,.5.6.9,1.3,1.3,2.1.2.4.4.7.5,1.1.1.4.2.8.2,1.3-.1.5-.4.9-.6,1.2-.2.3-.5.6-.7.8-.5.5-.9.9-1.4,1.3-.8.8-1.7,1.3-2.2,1.7-.4.5-.7.7-.7.7Z"/>
    <path d="m130.3,208.41s.1,0,.3-.1.5-.3.4-.7c-.1-.8-.7-1.8-1.5-2.9-.8-1.1-1.9-2.4-3.1-3.5-.2-.1-.4-.3-.5-.3-.1-.1-.1,0-.2-.1h-.3c-.4,0-.7.1-1.2.2-.8.2-1.6.6-2.3,1-.7.4-1.5,1-2.1,1.5-.6.6-1.2,1.2-1.6,1.9-.1.2-.2.7-.2,1.1s0,.8.1,1.2c.1.8.3,1.5.6,2.2.4,1.4.8,2.5,1.1,3.2.3.8.5,1.2.5,1.2,0,0-.3-.4-.6-1.1-.4-.7-.9-1.8-1.4-3.1-.3-.7-.5-1.4-.6-2.2s-.4-1.7,0-2.8c.5-.9,1-1.6,1.8-2.2.6-.6,1.5-1.2,2.2-1.7.8-.5,1.7-.9,2.6-1.1.5-.1.9-.2,1.4-.2h.4c.1,0,.4.1.4.1.3.1.4.3.6.4.6.6,1.2,1.3,1.7,1.9.5.6.9,1.3,1.3,1.9.4.6.6,1.2.9,1.7.2.5.4,1.1.4,1.5,0,.2-.1.4-.2.6-.1.1-.3.2-.4.2-.4.2-.5.2-.5.2Z"/>
    <line class="cls-6" x1="110.8" y1="130.31" x2="109.5" y2="136.01"/>
    <path d="m121.3,214.41s.5-.6,1.2-1.4c.4-.4.8-.8,1.4-1.2s1.1-.8,1.8-1.2c.6-.4,1.3-.7,1.9-1,.6-.3,1.2-.5,1.8-.7.6-.1.9-.3,1.3-.3.3,0,.5-.1.5-.1,0,0-.2.1-.5.2-.3.1-.6.4-1.1.6-.5.3-1,.6-1.6.9-.6.4-1.2.7-1.8,1.1-1.2.8-2.4,1.5-3.3,2.1-1,.6-1.6,1-1.6,1Z"/>
    <path class="cls-5" d="m102.5,169.41s2.5-4.5,10.6-6.5"/>
    <path class="cls-5" d="m102.9,171.91s7.1-2.8,10.8-7.4"/>
    <path class="cls-5" d="m121.3,160.81s5.7-.1,11.8-5.1"/>
    <path class="cls-5" d="m132.6,154.51s-5.7,0-11.9,4.9"/>
    <path class="cls-5" d="m86.8,181.61s5.8-.8,11.3-5.4"/>
    <path class="cls-5" d="m68.5,188.21s5.8-.8,11.3-5.4"/>
    <path class="cls-5" d="m85.8,181.21s3.2-4,10.9-6.7"/>
    <line class="cls-6" x1="66.6" y1="152.71" x2="70.3" y2="155.81"/>
  </g>
  <g>
    <polygon class="cls-1" points="212.4 263.71 223.8 229.91 204.3 225.51 189.3 217.71 187.2 213.21 175.8 227.51 156.5 252.01 212.4 263.71"/>
    <path class="cls-3" d="m189.3,217.71s9.8,11.1,29.7,11.8"/>
    <path class="cls-6" d="m251.3,142.71s5,4.1,6.4,5.6c1.1,1.2-.2,11.5-1.9,14.7-1.8,3.2-5.9,11.8-6.9,23.5-1.2,15.9-19.7,30.1-23.5,35.4l-10.4,40.2"/>
    <path class="cls-6" d="m156.5,252.01s32.2-35.4,33.4-43.2-5.9-58.6-5.9-62,5.1-11.5,5.1-11.5"/>
    <path class="cls-6" d="m193.9,149.41s-4.9-24.9-5.1-28.3c-.2-3.4,1.2-25.7,1.2-25.7"/>
    <line class="cls-6" x1="191.6" y1="94.41" x2="191.3" y2="82.71"/>
    <line class="cls-6" x1="241.1" y1="169.11" x2="240.5" y2="156.61"/>
    <path d="m190.3,82.31c1.2-.2,2.4-.2,3.6-.1,1.2.1,2.5.4,3.6.8,1.2.5,2.3,1.2,3.3,2.2.5.5.9,1,1.2,1.6.4.6.6,1.2.9,1.9.2.7.4,1.4.5,2,.1.7.2,1.4.2,2.1v2c0,.7,0,1.3-.1,2-.1,1.3-.2,2.7-.4,4-.1.7-.2,1.3-.4,2-.1.3-.2.7-.3,1-.1.2-.1.4-.2.5l-.2.4c-.1.1-.1.2-.3.4l.2-1.4c.2.4.3.8.5,1.2s.3.8.4,1.2c.3.8.5,1.6.7,2.5.4,1.7.8,3.4,1,5.1.1.9.2,1.7.3,2.6.1.9.1,1.7.2,2.6v2.6c0,.9-.1,1.7-.1,2.6l-.1-.5c.3.7.6,1.4.9,2.1.3.7.5,1.4.7,2.2.4,1.4.8,2.9,1.1,4.4.2,1.5.4,3,.3,4.6,0,1.5-.3,3-.8,4.4.3-1.5.3-3,.2-4.4-.1-1.5-.4-2.9-.7-4.3-.4-1.4-.8-2.8-1.4-4.1-.3-.7-.6-1.3-.9-2-.3-.6-.6-1.3-.9-1.9l-.1-.2v-.3c0-.8,0-1.7-.1-2.5s-.1-1.7-.2-2.5c-.1-.8-.2-1.6-.3-2.5,0-.4-.1-.8-.2-1.2-.1-.4-.1-.8-.2-1.2-.3-1.6-.6-3.2-1-4.8-.2-.8-.4-1.6-.7-2.4-.1-.4-.2-.8-.4-1.2-.1-.4-.3-.8-.4-1.1l.2-1.4c-.1.1,0,0,0,0l.1-.1c.1-.1.1-.2.2-.3.1-.2.2-.5.3-.8.2-.6.3-1.2.4-1.8.2-1.2.4-2.5.5-3.7.1-.6.1-1.3.2-1.9,0-.6.1-1.3.1-1.9v-1.8c-.1-.6-.2-1.2-.3-1.8-.2-.6-.3-1.1-.6-1.7-.2-.5-.6-1-.9-1.5-.7-.9-1.7-1.6-2.7-2.2s-2.2-.9-3.3-1.2c-1.1-.2-2.3-.3-3.6-.3Z"/>
    <path class="cls-6" d="m207.7,127.01c6.3-3.2,11.6-7.1,17-7.4,7.4-.4,12.1,14.8,14.8,21.3,1.7,4.2,2.2,16,2.2,16"/>
    <path class="cls-6" d="m206.6,123.91s9-5.7,17-9.8c8.1-4.1,19.8,22.1,19.8,22.1"/>
    <path d="m212.9,140.51s.2.1.4.3c.3.2.6.5,1.1.7.2.1.5.2.7.3.3.1.5.2.8.2.3.1.5,0,.8,0,.3-.1.6-.1.8-.2l.4-.1c.1-.1.3-.1.4-.2.1-.1.3-.1.4-.2.1-.1.3-.2.4-.3.3-.2.5-.3.8-.5.2-.2.5-.3.7-.5s.4-.3.6-.4c.2-.1.4-.2.5-.3.3-.2.5-.3.5-.3,0,0-.1.2-.2.5-.1.2-.1.4-.3.6-.1.2-.2.5-.4.7-.2.3-.4.5-.6.8-.2.3-.5.6-.7.8-.3.3-.6.5-1,.7-.2.1-.4.2-.5.3-.2.1-.4.2-.6.2-.4.2-.9.2-1.3.2s-.9-.1-1.3-.3c-.4-.1-.7-.4-1-.6-.3-.3-.5-.5-.7-.8-.4-.5-.6-1-.7-1.4,0,0,0-.2,0-.2Z"/>
    <path d="m221.7,139.91c-.1.7-.2,1.5-.2,2.2s0,1.5.1,2.2.2,1.4.4,2.1.4,1.3.7,1.9.6,1.2,1,1.7c.2.3.4.5.6.8.2.2.4.5.7.7.5.5,1,.9,1.5,1.3s1.1.8,1.7,1.1l.6.4v2.1c0,.5.1,1,.1,1.5.1,1,.3,1.9.5,2.9.1.5.2.9.4,1.4.1.5.3.9.5,1.3s.4.9.6,1.3c.2.4.5.8.7,1.2.3.4.6.7.9,1.1l.5.5.5.4c.4.3.7.5,1.1.7.4.2.8.4,1.3.5.4.1.9.3,1.3.4.5.1.9.2,1.4.2.5.1.9.1,1.4.1h1.4c-.5.1-.9.3-1.4.4s-1,.2-1.5.2c-.5.1-1,.1-1.5.1s-1-.1-1.5-.1c-.5-.1-1-.2-1.5-.4-.5-.2-1-.4-1.4-.7-.5-.3-.9-.6-1.3-.9-.4-.4-.8-.7-1.2-1.2-.4-.4-.7-.8-1-1.3s-.6-.9-.8-1.4c-.5-1-.9-2-1.1-3.1-.3-1.1-.5-2.1-.6-3.2-.1-.5-.1-1.1-.1-1.6v-1.7l.6,1.1c-1.3-.8-2.5-1.7-3.5-2.9-.3-.3-.5-.6-.7-.9s-.5-.7-.6-1c-.4-.7-.7-1.4-1-2.2-.5-1.5-.7-3.2-.5-4.7-.2-1.7.2-3.2.9-4.5Z"/>
    <path d="m214.3,140.01c1.2,2.4,2,5,2.4,7.8.4,2.7.3,5.6-.5,8.2v-.3c1.4,2.9,2.8,5.8,4.2,8.7,1.4,2.9,2.8,5.8,4.1,8.7l4,8.8,4,8.8h0c.2.4.4.8.5,1.2s.2.8.3,1.3c.1.4.1.9.1,1.3v.6c0,.2,0,.4-.1.6-.1.4-.1.8-.2,1.3-.1.4-.2.8-.3,1.2s-.3.8-.5,1.2l-.6,1.1.5-1.2c.1-.4.3-.8.4-1.2.1-.4.2-.8.3-1.2s.1-.8.2-1.2v-1.2c0-.4-.1-.8-.2-1.2-.1-.4-.2-.8-.3-1.2s-.3-.8-.5-1.1h0l-4.2-8.7-4.1-8.7c-1.4-2.9-2.7-5.8-4.1-8.8-1.3-2.9-2.7-5.8-4-8.8l-.1-.2.1-.1c.9-2.5,1-5.2.7-7.9-.1-1.3-.4-2.7-.7-4-.5-1.2-.9-2.5-1.4-3.8Z"/>
    <line class="cls-6" x1="251" y1="143.21" x2="245.5" y2="138.51"/>
    <path d="m244.6,138.51s-.2.4-.4,1c-.1.3-.3.7-.5,1.1-.1.4-.3.9-.5,1.5-.1.3-.2.5-.2.8-.1.3-.1.6-.2.9-.2.6-.2,1.3-.3,1.9,0,.7-.1,1.4-.1,2,0,.3,0,.7.1,1l.2,1c0,.3.1.7.2,1,.1.3.2.7.3,1,.3.6.5,1.3.8,1.9s.7,1.1.9,1.7c.4.5.7,1,1,1.5.2.2.3.5.4.7.2.2.3.4.5.6.3.3.5.7.7.9.4.5.6.9.6.9,0,0-.3-.2-.9-.5-.3-.2-.6-.4-1-.6-.2-.1-.4-.3-.6-.4-.2-.2-.4-.4-.6-.5-.4-.4-.9-.8-1.4-1.3-.4-.5-.9-1.1-1.3-1.7-.4-.7-.8-1.4-1.1-2.1-.1-.4-.3-.8-.4-1.2-.1-.4-.3-.8-.3-1.2l-.2-1.3c-.1-.4,0-.8,0-1.3,0-.8.2-1.6.3-2.4.1-.4.2-.7.3-1.1s.2-.7.4-1c.1-.3.3-.6.4-.9.2-.3.3-.6.5-.8.3-.5.6-.9.9-1.3.3-.4.6-.7.8-.9.4-.7.7-.9.7-.9Z"/>
    <path d="m246,138.21s.1.1.2.2c.1.1.2.4.3.7.3.6.6,1.5.7,2.6.1.6.1,1.2.1,1.9,0,.6-.2,1.4-.3,2s0,1.3.2,1.9.5,1.2,1,1.7c.4.5.9,1.1,1.4,1.5s1.1.8,1.2.5c.3-.3.4-1.1.5-1.7s.1-1.2.1-1.8v-3.7s.2,1.5.5,3.7c0,.6.1,1.2.1,1.8,0,.3,0,.7-.1,1-.1.4-.1.7-.4,1.1-.2.2-.4.3-.6.4-.2,0-.5,0-.7-.1-.4-.2-.7-.4-1-.6-.5-.5-1.1-1-1.5-1.6-.5-.6-.9-1.3-1.1-2-.3-.8-.3-1.6-.2-2.4.2-.7.3-1.3.4-1.9.1-.6.1-1.2.1-1.7,0-1.1-.1-2-.3-2.6-.4-.5-.5-.9-.6-.9Z"/>
    <path d="m238.9,157.31c-.1,0,0,0,0,0-.1,0-.2.1-.3.2-.2.2-.5.6-.8,1-.6.9-1,2.4-1.4,3.8-.4,1.5-.7,3-1,4.2-.1.6-.3,1.1-.3,1.4-.1.3-.2.5-.2.5,0,0-.2-.8-.3-2s0-2.9.4-4.5,1.2-3.2,2.2-4c.5-.4.9-.7,1.3-.7.1,0,.2,0,.4.1q0-.1,0,0h0Z"/>
    <path d="m209.3,214.91s.2.1.5.2c.3.1.7.1,1.3.2,1.1,0,2.5-.2,3.9-.5s2.8-.8,3.8-1.1,1.8-.5,1.8-.5c0,0-.6.5-1.6,1-.5.3-1.1.6-1.7.8-.3.1-.7.3-1,.4-.4.1-.7.2-1.1.3-.7.2-1.5.3-2.2.3h-1c-.3,0-.6-.1-.9-.1-.6-.1-1-.3-1.3-.5-.4-.3-.5-.5-.5-.5Z"/>
    <path d="m228,185.01s.2.2.4.7c.2.4.6,1.1.8,1.9.1.4.3.8.4,1.3.1.5.3,1,.4,1.5.1.5.2,1.1.3,1.6.1.6.1,1.1.1,1.7,0,1.2,0,2.3-.1,3.4-.1,1.1-.3,2.1-.4,2.9-.1.8-.4,1.5-.5,2s-.2.7-.2.7c0,0,0-.3.1-.8s.1-1.2.2-2c0-.4.1-.9.1-1.4s0-1,.1-1.5v-3.3c0-.6-.1-1.1-.1-1.7-.1-.5-.1-1.1-.2-1.6-.1-.5-.1-1-.2-1.5-.1-.5-.2-.9-.3-1.3-.2-.8-.4-1.5-.5-2-.3-.4-.4-.6-.4-.6Z"/>
  </g>
  <g>
    <g id="Färg">
      <polygon class="cls-8" points="297.3 208.41 314.9 174.61 314.7 170.51 309 167.51 303 161.81 299.6 152.41 302 133.51 268 164.71 297.3 208.41"/>
    </g>
    <path d="m404.6,205.81s-.2-.3-.5-.8-.8-1.2-1.4-2c-.3-.4-.6-.9-1-1.3-.2-.2-.4-.4-.6-.7-.2-.2-.4-.4-.6-.4-.1,0-.4,0-.7.1-.3.1-.6.2-.8.3-.6.3-1.1.6-1.7.9-.6.3-1.1.7-1.6,1.1-.2.2-.5.4-.7.6-.2.2-.2.4-.3.7-.1.6,0,1.2.1,1.7.1.6.3,1.1.4,1.6.4,1,.8,1.7,1.1,2.2.3.5.5.8.5.8,0,0-.1-.1-.2-.2-.1-.1-.3-.3-.5-.5-.4-.5-.9-1.2-1.4-2.1-.2-.5-.5-1-.6-1.6-.2-.6-.3-1.3-.2-2,0-.4.2-.8.4-1.2.2-.3.5-.5.8-.8.5-.4,1.1-.8,1.7-1.2s1.2-.7,1.8-.9c.3-.1.6-.3,1-.4.2,0,.3-.1.5-.1h.6c.5.2.6.5.9.7.2.3.4.5.6.8.3.5.6,1,.9,1.5,1,1.9,1.5,3.2,1.5,3.2Z"/>
    <path d="m389.7,207.91s-.2-.3-.5-.8-.8-1.2-1.3-2c-.3-.4-.6-.8-.9-1.3-.3-.4-.7-.9-1.1-1.2-.2-.2-.8,0-1.3.2s-1.1.5-1.6.8-1.1.6-1.6,1-1,.7-1.2,1.1c-.2.4-.2,1-.1,1.5s.3,1,.4,1.5c.4.9.8,1.6,1.1,2.1.3.5.5.8.5.8,0,0-.2-.2-.6-.7-.4-.4-.9-1.1-1.4-2-.2-.4-.5-1-.6-1.6s-.2-1.3.1-2.1c.4-.7.9-1.1,1.4-1.5s1.1-.7,1.6-1.1c.6-.3,1.1-.6,1.7-.9.3-.1.6-.2.9-.3.2,0,.4-.1.6,0,.2,0,.5.2.6.3.6.5.9,1,1.2,1.5.3.5.6,1,.8,1.4.8,2,1.3,3.3,1.3,3.3Z"/>
    <path d="m410.5,195.41s-.5-.7-1.2-1.8c-.4-.5-.8-1.1-1.2-1.8-.2-.3-.5-.6-.7-.9-.3-.3-.6-.6-.8-.7h-.4c-.2,0-.3.1-.5.2-.3.1-.7.3-1,.5-.7.4-1.3.7-1.8,1s-1,.6-1.3.8-.5.3-.5.3c0,0,.1-.2.3-.5.2-.3.6-.7,1.1-1.2.5-.4,1.1-.9,1.8-1.3.3-.2.7-.4,1.1-.5.2-.1.4-.1.7-.2h.4c.1,0,.3.1.4.1.5.3.7.7,1,1,.3.4.5.7.7,1.1.4.7.8,1.4,1,2,.6,1.1.9,1.9.9,1.9Z"/>
    <path class="cls-6" d="m273.8,159.41c2.4-2.9,38-39.6,52.6-41.5,11.1-1.5,50.3,13.9,50.3,13.9,0,0,6.3-.7,11.4,12.2l14.2,25.1,9.5,25.2s1.8,7.4-6.7,7.8"/>
    <path class="cls-6" d="m303.6,197.71s10.2-20.6,16-27.5"/>
    <path class="cls-6" d="m315.7,164.01s9.6,9.5,20.6,10.8"/>
    <path class="cls-6" d="m377.7,148.41l13.5,23,15.7,34.9s-2,6.5-9.3,5.9c-6.4-.5-9-9-9-9"/>
    <line class="cls-6" x1="378.5" y1="145.01" x2="380.2" y2="152.61"/>
    <path class="cls-6" d="m365,155.41l12.7,24.8,14.2,30.4s-5.2,8.8-11.2,2.8c-3.6-3.6-15.7-21.8-15.7-21.8l-14.5-25.3-2.2-1.4"/>
    <path class="cls-6" d="m334,169.81l13.8,19.2s8,8.3,13.3-1.6"/>
    <path class="cls-6" d="m353.2,195.91s-.9,4.3,3.2,7.3"/>
    <line class="cls-6" x1="357.9" y1="204.31" x2="364.3" y2="197.71"/>
    <line class="cls-6" x1="361.9" y1="198.11" x2="367.2" y2="197.61"/>
    <path class="cls-7" d="m302.4,136.31s-11.3,24.6,13.2,34.4"/>
    <path class="cls-3" d="m365.5,138.01s6.7,1,8.6,9.5"/>
    <path class="cls-4" d="m389,173.71s-7.3,3-8.4,4.5"/>
    <path class="cls-4" d="m389.1,176.01s-2.8,2-6.9,3.5"/>
    <path class="cls-4" d="m375.2,180.41s-4.3,4.2-8.9,5.9"/>
    <path class="cls-4" d="m374.3,179.11s-6.6,3-9,5.8"/>
    <path class="cls-4" d="m399.5,167.91s-2.8.4-6.1,3.5"/>
    <path class="cls-4" d="m400.5,169.11s-1.3,1.9-7.3,3.6"/>
  </g>
</svg>