<?xml version="1.0" encoding="UTF-8"?>
<svg id="Lager_1" data-name="Lager 1" xmlns="http://www.w3.org/2000/svg" xmlns:xlink="http://www.w3.org/1999/xlink" viewBox="0 0 300.38 240">
  <defs>
    <style>
      .cls-1 {
        fill: url(#linear-gradient-2);
      }

      .cls-2 {
        stroke-width: 1.6px;
      }

      .cls-2, .cls-3, .cls-4, .cls-5 {
        stroke-linecap: round;
      }

      .cls-2, .cls-3, .cls-4, .cls-5, .cls-6 {
        fill: none;
        stroke: #000;
      }

      .cls-7 {
        fill: #fff;
      }

      .cls-3 {
        stroke-width: .75px;
      }

      .cls-4 {
        stroke-width: .5px;
      }

      .cls-5 {
        stroke-width: 2px;
      }

      .cls-8 {
        fill: url(#linear-gradient);
      }
    </style>
    <linearGradient id="linear-gradient" x1="-1091.1" y1="-648.25" x2="-1054.97" y2="-655" gradientTransform="translate(148.64 -1089.46) rotate(-54.42) scale(1 -1)" gradientUnits="userSpaceOnUse">
      <stop offset="0" stop-color="#fff"/>
      <stop offset="1" stop-color="#ededed"/>
    </linearGradient>
    <linearGradient id="linear-gradient-2" x1="195.87" y1="1161.27" x2="206.32" y2="1136.05" gradientTransform="translate(0 -962.66)" gradientUnits="userSpaceOnUse">
      <stop offset="0" stop-color="#fff"/>
      <stop offset="1" stop-color="#ededed"/>
    </linearGradient>
  </defs>
  <rect class="cls-7" x="8.29" y="6.6" width="282" height="226.8"/>
  <g>
    <polygon class="cls-8" points="68.09 205.9 94.89 153.2 74.19 143.9 66.29 124.8 60.49 111 55.99 116.3 44.89 124.7 10.69 147.4 68.09 205.9"/>
    <path class="cls-5" d="m31.49,134.4s24.2-17.2,30.3-23"/>
    <path class="cls-5" d="m147.79,129.7c1.1-4.8.1-15.9-2.6-28-2.7-12.1-9.8-33.6-16.4-33.7-4.5,0-8.5,4.1-12.5,4.6-4.4.6-9.3-2.4-13.1-1.2-4.3,1.4-6.8,6.9-10.3,8.9-4,2.3-9.5,1.5-12.6,4.1-3.7,3.2-4.1,9.4-6.5,12.4-4.9,6.3-10.3,2.3-10.2,9.2.1,9.3,1.5,25.7,13.3,38.8,2.5,2.7,16.5,8.9,20.7,8.8,4.2-.1,7.6-3.2,7.6-3.2"/>
    <path class="cls-5" d="m79.79,107.2s8.4,20,11.6,25.4c3.2,5.3,11.7,13.8,13.9,15.2,2.2,1.4,11.5.9,12.5-.1"/>
    <path class="cls-5" d="m96.49,94.1s16.4,44.8,28,65.3"/>
    <path class="cls-5" d="m123.69,155.5s2.2,12.9,6.9,15.9c5.4,3.4,11.9.3,13-5.3s-1-14.8-4.1-18"/>
    <line class="cls-5" x1="119.39" y1="86.8" x2="142.29" y2="153.7"/>
    <path d="m150.49,130.2s-.7.7-1.8,1.9c-.5.6-1.2,1.2-1.7,1.9-.4.3-.6.7-1,1.1s-.6.7-1,1.1c-.4.4-.6.8-1,1.1-.3.4-.6.8-.9,1.1-.3.4-.5.7-.8,1.1-.3.3-.5.7-.7,1s-.5.6-.6.8c-.2.3-.4.5-.5.7-.3.4-.5.6-.5.6,0,0,0-.3.1-.8s.3-1.2.5-2c.2-.4.3-.8.5-1.2s.4-.9.6-1.3c.3-.4.5-.9.8-1.3.3-.4.6-.9,1-1.3.7-.8,1.5-1.6,2.3-2.2.4-.3.8-.6,1.2-.8.4-.2.7-.5,1.1-.6.7-.4,1.4-.6,1.7-.7.6-.1.7-.2.7-.2Z"/>
    <line class="cls-5" x1="93.99" y1="155.7" x2="71.79" y2="196.2"/>
    <path class="cls-5" d="m150.29,121.3s12.8,13.4,10.9,20.9c-1.7,6.5-8.9,10.5-8.9,10.5"/>
    <path class="cls-5" d="m151.89,152.3l-4.6,6.4s-.9,1.3-1.5,1.5-1.5-.8-1.5-.8"/>
    <path d="m146.19,158.6s.3-.3.7-.8,1.1-1.2,1.9-2c.4-.4.8-.9,1.2-1.4.2-.3.4-.5.5-.8.2-.3.4-.5.4-.8,0-.2-.1-.6-.2-.9-.1-.3-.3-.7-.5-1-.4-.7-.7-1.3-1.2-1.9-.9-1.2-2-2.2-3.2-2.8-.3-.2-.5-.3-.8-.3s-.5.1-.7.2c-.5.3-1,.7-1.5,1.1-1.7,1.5-3,2.4-3,2.4,0,0,.3-.3.7-.8.5-.5,1.1-1.2,1.9-2,.5-.4.8-.9,1.5-1.3.3-.2.6-.4,1.1-.4s.8.1,1.2.3c1.4.6,2.6,1.7,3.6,3,.5.6.9,1.3,1.3,2.1.2.4.4.7.5,1.1.1.4.2.8.2,1.3-.1.5-.4.9-.5,1.2-.2.3-.5.6-.7.8-.5.5-.9.9-1.4,1.3-.8.8-1.6,1.3-2.2,1.7-.4.5-.8.7-.8.7Z"/>
    <path d="m140.29,162.3s.1,0,.3-.1.5-.3.4-.7c-.1-.8-.7-1.8-1.5-2.9-.8-1.1-1.8-2.4-3-3.5-.2-.1-.4-.3-.5-.3-.1-.1-.1,0-.2-.1h-.3c-.4,0-.7.1-1.2.2-.8.2-1.6.6-2.3,1-.7.4-1.5,1-2.1,1.5-.6.6-1.2,1.2-1.6,1.9-.1.2-.2.7-.2,1.1s0,.8.1,1.2c.1.8.3,1.5.5,2.2.4,1.4.8,2.5,1.1,3.2.3.8.5,1.2.5,1.2,0,0-.3-.4-.6-1.1-.4-.7-.9-1.8-1.4-3.1-.3-.7-.5-1.4-.6-2.2-.2-.8-.4-1.7,0-2.8.5-.9,1-1.6,1.7-2.2.6-.6,1.5-1.2,2.2-1.7.8-.5,1.6-.9,2.6-1.1.5-.1.9-.2,1.4-.2h.4c.1,0,.4.1.4.1.3.1.4.3.5.4.6.6,1.2,1.3,1.6,1.9.5.6.9,1.3,1.3,1.9.4.6.6,1.2.9,1.7.2.5.4,1.1.4,1.5,0,.2-.1.4-.2.6-.1.1-.3.2-.4.2-.1.2-.2.2-.2.2Z"/>
    <line class="cls-5" x1="120.89" y1="84.2" x2="119.69" y2="89.9"/>
    <path d="m131.29,168.3s.5-.6,1.2-1.4c.4-.4.8-.8,1.4-1.2s1.1-.8,1.7-1.2,1.3-.7,1.8-1c.6-.3,1.2-.5,1.7-.7.5-.1.9-.3,1.3-.3.3,0,.5-.1.5-.1,0,0-.2.1-.5.2-.3.1-.6.4-1.1.6-.5.3-1,.6-1.6.9-.5.4-1.2.7-1.7,1.1-1.2.8-2.4,1.5-3.3,2.1-.8.6-1.4,1-1.4,1Z"/>
    <path class="cls-4" d="m112.69,123.3s2.5-4.5,10.5-6.5"/>
    <path class="cls-4" d="m113.09,125.8s7.1-2.8,10.7-7.4"/>
    <path class="cls-4" d="m131.29,114.7s5.7-.1,11.6-5.1"/>
    <path class="cls-4" d="m142.59,108.4s-5.7,0-11.7,4.9"/>
    <path class="cls-4" d="m97.19,135.5s5.8-.8,11.2-5.4"/>
    <path class="cls-4" d="m79.09,142.1s5.8-.8,11.2-5.4"/>
    <path class="cls-4" d="m96.19,135.1s3.2-4,10.8-6.7"/>
    <line class="cls-5" x1="77.19" y1="106.6" x2="80.89" y2="109.7"/>
  </g>
  <g>
    <polygon class="cls-1" points="224.69 204.1 234.59 163.8 213.89 161.9 191.19 152.9 191.69 154.6 183.69 167.4 167.89 191.1 224.69 204.1"/>
    <path class="cls-6" d="m196.09,154.3s13.7,10.1,35.9,9.2"/>
    <path class="cls-5" d="m171.19,188.1c0-1,23.3-37,24.1-41.9s12.7-70.1,12.7-70.1"/>
    <path class="cls-5" d="m206.69,75.9s-2-9.6,4.6-12.3"/>
    <path class="cls-5" d="m215.49,73.3l23.6-13c1.3-.7,3.4-.8,4.8-.3l16.1,6.3c1.3.5,3,2.1,3.6,3.5l2.2,4.9"/>
    <path class="cls-5" d="m215.89,61.5l29.2-15.6c1.3-.7,3.3-.5,4.5.3l19.2,14.1c1.2.9,2.7,2.7,3.4,4.1l2.1,4.2"/>
    <path class="cls-2" d="m255.99,37.9l4.3-.3c1.4-.1,3.4.7,4.4,1.8l9.9,11.3c1,1.1,2.2,3.2,2.8,4.7l1.4,3.8"/>
    <path class="cls-5" d="m212.09,63l34-26.5c1.2-.9,3.1-.9,4.2.1l21.2,17.2c1.1.9,2.6,2.8,3.3,4.2l3,6.1"/>
    <path class="cls-5" d="m231.19,85.4s4.7-.9,8-6.3"/>
    <path class="cls-5" d="m237.69,78.2s7.2,3.1,15.4,1.7"/>
    <path class="cls-5" d="m250.29,78.4s10.9,15.4,20.2,4l-4.9-6.9"/>
    <path class="cls-5" d="m271.29,84.1s5,1.3,7.9-5.8l-5.1-7.7"/>
    <path class="cls-5" d="m277.99,65.1l4,8s-1.5,3.1-2.7,3.3"/>
    <path class="cls-5" d="m251.39,83.6l3.7,9.7s2.7,2.2,6.9,2.2"/>
    <line class="cls-5" x1="259.29" y1="97.4" x2="268.99" y2="89.4"/>
    <path class="cls-5" d="m268.79,85.8s.8,4.2,1.2,5.9"/>
    <path d="m235.39,85s.2.1.4.6c.1.2.2.5.2.8.1.3.1.7.1,1v1.2c0,.4-.1.9-.2,1.4-.1.5-.1,1-.3,1.4-.1.5-.2,1-.4,1.5-.3,1-.6,1.9-.9,2.8-.2.4-.4.8-.5,1.2-.2.4-.3.8-.5,1.1-.3.7-.6,1.2-.8,1.6s-.3.6-.3.6c0,0,.1-.2.2-.7.1-.4.3-1,.5-1.7s.5-1.5.7-2.4c.3-.9.6-1.8.8-2.8.2-.5.3-.9.4-1.4.1-.5.2-.9.3-1.4.1-.4.2-.9.3-1.3,0-.4.1-.8.2-1.2.1-.7.1-1.3,0-1.8,0-.3-.2-.5-.2-.5Z"/>
    <path d="m232.49,96.3s.1.9.2,2.4c.1,1.6.2,3.8.3,6.4.1,2.7.2,5.8.3,9.1.1,3.3.1,6.9.1,10.5,0,1.8-.1,3.6-.1,5.3,0,.9-.1,1.8-.2,2.6-.1.9-.1,1.7-.4,2.6-.5,1.7-1.4,3.1-2.2,4.3-.9,1.2-1.8,2.3-2.6,3.3-1.7,1.9-3.4,3.3-4.5,4.2-.6.5-1.1.8-1.4,1-.3.2-.5.3-.5.3,0,0,.2-.1.5-.4.3-.2.8-.6,1.3-1.1,1.1-1,2.6-2.5,4.3-4.4.8-1,1.7-2.1,2.5-3.3s1.6-2.6,2-4.1c.2-.7.3-1.6.3-2.4.1-.8.1-1.7.1-2.6.1-1.7.1-3.5.1-5.3v-26c-.1-1.5-.1-2.4-.1-2.4Z"/>
    <path d="m217.59,145.7s.2-.1.5-.3.8-.5,1.4-.9c.6-.4,1.2-.8,2-1.2.7-.4,1.5-.9,2.3-1.3.8-.4,1.5-.9,2.3-1.3.7-.4,1.4-.8,1.9-1.2.6-.4,1-.7,1.3-.9s.5-.4.5-.4c0,0-.1.2-.4.5-.1.2-.3.4-.5.6-.2.2-.4.5-.7.7-.5.5-1.1,1-1.8,1.5s-1.5,1-2.2,1.4c-1.6.9-3.2,1.7-4.4,2.1-.6.2-1.2.4-1.5.5-.5.1-.7.2-.7.2Z"/>
    <path d="m253.09,88s.1.3.3,1c.2.6.5,1.5.8,2.5.7,2.1,1.4,5,2.2,7.8.7,2.9,1.3,5.8,1.7,8,.2,1.1.3,2,.4,2.7.1.6.1,1,.1,1,0,0-.4-1.4-1-3.5s-1.4-5-2.1-7.8c-.7-2.9-1.3-5.8-1.8-7.9-.2-1.1-.4-2-.5-2.6-.1-.9-.1-1.2-.1-1.2Z"/>
    <path class="cls-5" d="m278.19,57.7l4.3,8.9s-.9,1.4-2,1.4"/>
    <path class="cls-5" d="m283.19,68.2s3.8.7.8,12.6"/>
    <path d="m284.49,81.4s.2.5.6,1.3c.2.4.4.9.5,1.5.2.6.4,1.3.6,2.1.2.8.4,1.6.5,2.5s.2,1.9.2,2.9c0,.5,0,1-.1,1.6,0,.5-.1,1.1-.2,1.6-.2,1.1-.6,2.1-1.1,3.2-.3.5-.6.9-.9,1.4-.3.4-.7.8-1,1.1-.7.8-1.4,1.4-2.1,2.1-1.4,1.3-2.8,2.3-4,3.2-2.4,1.7-4.2,2.5-4.2,2.5,0,0,1.4-1.4,3.6-3.4,1-1,2.3-2.2,3.5-3.6.6-.7,1.2-1.4,1.9-2.1.3-.4.6-.7.9-1.1.2-.4.5-.7.7-1.1.4-.8.8-1.7.9-2.6.1-.5.2-.9.3-1.4.1-.5.1-.9.1-1.4s.1-.9.1-1.4v-1.3c0-.9-.1-1.7-.1-2.4-.1-1.5-.3-2.8-.4-3.7-.3-1-.3-1.5-.3-1.5Z"/>
    <path d="m273.99,105s-.2,1-.8,2.6c-.3.8-.6,1.8-1.1,2.9-.4,1.1-1,2.3-1.6,3.6-.7,1.3-1.4,2.7-2.2,4.1-.9,1.4-1.7,2.9-2.8,4.4-1,1.5-2.1,3-3.3,4.5-1.1,1.5-2.4,2.9-3.7,4.4-1.3,1.4-2.6,2.7-3.9,4.1-1.4,1.3-2.7,2.5-4.1,3.6-1.4,1.1-2.7,2.1-4,3.1s-2.6,1.8-3.7,2.5c-1.2.8-2.2,1.5-3.2,2s-1.8,1-2.5,1.4c-1.4.8-2.2,1.2-2.2,1.2,0,0,.7-.6,2.1-1.5.7-.5,1.5-1,2.4-1.7.9-.6,1.9-1.5,3-2.3.5-.4,1.1-.9,1.7-1.3.6-.5,1.2-.9,1.8-1.5,1.2-1,2.5-2.1,3.8-3.3s2.5-2.5,3.9-3.7c1.3-1.3,2.6-2.7,3.8-4,1.2-1.4,2.5-2.8,3.6-4.2,1.1-1.4,2.3-2.8,3.3-4.3,1.1-1.4,2-2.8,2.9-4.2.5-.7.9-1.4,1.3-2,.4-.7.8-1.3,1.2-1.9.7-1.2,1.4-2.4,1.9-3.4.6-1,1-1.9,1.4-2.7.4-.8.7-1.4.8-1.8.1-.4.2-.6.2-.6Z"/>
    <line class="cls-5" x1="239.19" y1="143.2" x2="226.29" y2="200.9"/>
    <path d="m264.29,76.8s-.3.5-.7,1.2c-.2.4-.3.8-.3,1.3,0,.2,0,.4.1.7,0,.2.1.4.3.6.1.2.3.5.4.7.2.2.3.4.4.6.3.4.6.8.9,1.1.5.6.9,1,.9,1,0,0-.6-.1-1.3-.6-.4-.2-.7-.6-1.1-.9-.2-.2-.4-.4-.6-.6-.2-.3-.3-.4-.5-.7-.2-.3-.3-.6-.3-1-.1-.3-.1-.7,0-1,0-.3.2-.6.3-.8.1-.2.3-.4.4-.6.5-.8,1.1-1,1.1-1Z"/>
    <path d="m272.49,71.6s-.2.1-.5.3c-.3.2-.7.6-.8,1.1-.1.3-.1.6-.1.9s.1.7.3,1c.1.4.3.8.4,1.2.1.4.3.8.4,1.2.3.8.6,1.6,1.1,1.9.2.2.5.3.9.3h.9c.6-.1,1.1-.2,1.4-.3.4-.1.6-.1.6-.1,0,0-.2.1-.5.3-.2.1-.4.2-.6.3-.2.1-.5.2-.8.3-.3.1-.7.2-1.1.2s-.8-.1-1.2-.3c-.4-.3-.7-.6-1-1.1-.2-.4-.4-.8-.6-1.3-.3-.9-.5-1.7-.8-2.5-.1-.4-.2-.9-.2-1.3s.1-.9.3-1.2c.3-.7.9-1,1.3-1.1.4.2.6.2.6.2Z"/>
    <path class="cls-3" d="m276.89,66s-.9.8-1.7,2.2"/>
    <path d="m278.19,74.5s.1-.2.4-.5c.2-.3.5-.6.8-.8.3-.3.6-.5.8-.8.1-.1.2-.2.3-.3l.1-.1s.1.3,0,.6c-.1.4-.4.8-.7,1.1-.3.3-.7.5-1.1.6-.4.2-.6.2-.6.2Z"/>
    <path d="m238.29,84.2s.1,0,.1.1c.1.1.2.3.2.5.1.2.1.5.1.8v1.1c-.1.8-.2,1.7-.5,2.7s-.6,2-1,2.9c-.8,1.9-1.8,3.8-2.5,5.1-.4.7-.8,1.2-1,1.6s-.4.6-.4.6c0,0,.1-.3.2-.7.2-.4.4-1,.7-1.7s.6-1.6,1-2.4c.4-.9.8-1.8,1.1-2.8.2-.5.4-.9.6-1.4.2-.5.4-.9.5-1.4.3-.9.6-1.8.7-2.5.1-.4.1-.7.2-1v-.8c0-.2,0-.4-.1-.5.2-.2.1-.2.1-.2Z"/>
  </g>
</svg>