<?xml version="1.0" encoding="UTF-8"?>
<svg id="Lager_1" data-name="Lager 1" xmlns="http://www.w3.org/2000/svg" xmlns:xlink="http://www.w3.org/1999/xlink" viewBox="0 0 406.8 325.03">
  <defs>
    <style>
      .cls-1 {
        fill: url(#linear-gradient-2);
      }

      .cls-2 {
        stroke-width: 1.6px;
      }

      .cls-2, .cls-3, .cls-4, .cls-5 {
        stroke-linecap: round;
      }

      .cls-2, .cls-3, .cls-4, .cls-5, .cls-6 {
        fill: none;
        stroke: #000;
      }

      .cls-7 {
        fill: #fff;
      }

      .cls-3 {
        stroke-width: .75px;
      }

      .cls-4 {
        stroke-width: .5px;
      }

      .cls-5 {
        stroke-width: 2px;
      }

      .cls-8 {
        fill: url(#linear-gradient-3);
      }

      .cls-9 {
        fill: url(#linear-gradient);
      }
    </style>
    <linearGradient id="linear-gradient" x1="-1075.41" y1="-554.15" x2="-1039.12" y2="-560.92" gradientTransform="translate(205.26 -979.33) rotate(-54.42) scale(1 -1)" gradientUnits="userSpaceOnUse">
      <stop offset="0" stop-color="#fff"/>
      <stop offset="1" stop-color="#ededed"/>
    </linearGradient>
    <linearGradient id="linear-gradient-2" x1="178.86" y1="1203.83" x2="189.35" y2="1178.52" gradientTransform="translate(0 -962.66)" gradientUnits="userSpaceOnUse">
      <stop offset="0" stop-color="#fff"/>
      <stop offset="1" stop-color="#ededed"/>
    </linearGradient>
    <linearGradient id="linear-gradient-3" x1="281.42" y1="-518.97" x2="288.11" y2="-509.04" gradientTransform="translate(0 -289) scale(1 -1)" gradientUnits="userSpaceOnUse">
      <stop offset="0" stop-color="#fff"/>
      <stop offset="1" stop-color="#ededed"/>
    </linearGradient>
  </defs>
  <rect class="cls-7" y="49.12" width="404" height="226.8"/>
  <g>
    <polygon class="cls-9" points="57.6 248.42 84.6 195.72 63.8 186.42 55.8 167.32 49.9 153.52 45.4 158.82 34.2 167.22 -.2 189.92 57.6 248.42"/>
    <path class="cls-5" d="m20.8,176.92s24.4-17.2,30.6-23"/>
    <path class="cls-5" d="m137.9,172.22c1.1-4.8.1-15.9-2.6-28-2.7-12.1-9.9-33.6-16.5-33.7-4.5,0-8.6,4.1-12.6,4.6-4.4.6-9.3-2.4-13.2-1.2-4.3,1.4-6.8,6.9-10.3,8.9-4.1,2.3-9.6,1.5-12.6,4.1-3.7,3.2-4.2,9.4-6.6,12.4-5,6.3-10.3,2.3-10.2,9.2.1,9.3,1.5,25.7,13.4,38.8,2.5,2.7,16.6,8.9,20.9,8.8,4.2-.1,7.7-3.2,7.7-3.2"/>
    <path class="cls-5" d="m69.4,149.72s8.5,20,11.7,25.4c3.2,5.3,11.8,13.8,14,15.2s11.5.9,12.6-.1"/>
    <path class="cls-5" d="m86.2,136.62s16.5,44.8,28.2,65.3"/>
    <path class="cls-5" d="m113.6,198.02s2.2,12.9,6.9,15.9c5.4,3.4,12,.3,13.1-5.3s-1-14.8-4.2-18"/>
    <line class="cls-5" x1="109.3" y1="129.32" x2="132.4" y2="196.22"/>
    <path d="m140.7,172.72s-.7.7-1.8,1.9c-.6.6-1.2,1.2-1.8,1.9-.4.3-.6.7-1,1.1s-.6.7-1,1.1c-.4.4-.6.8-1,1.1-.3.4-.6.8-.9,1.1-.3.4-.6.7-.8,1.1-.3.3-.6.7-.7,1-.2.3-.5.6-.6.8-.2.3-.4.5-.6.7-.3.4-.5.6-.5.6,0,0,0-.3.1-.8s.3-1.2.6-2c.2-.4.3-.8.5-1.2s.4-.9.6-1.3c.3-.4.6-.9.8-1.3.3-.4.6-.9,1-1.3.7-.8,1.5-1.6,2.3-2.2.4-.3.8-.6,1.2-.8.4-.2.7-.5,1.1-.6.7-.4,1.4-.6,1.8-.7.5-.1.7-.2.7-.2Z"/>
    <line class="cls-5" x1="83.7" y1="198.22" x2="61.4" y2="238.72"/>
    <path class="cls-5" d="m140.4,163.82s12.9,13.4,11,20.9c-1.8,6.5-9,10.5-9,10.5"/>
    <path class="cls-5" d="m142.1,194.82l-4.6,6.4s-.9,1.3-1.5,1.5-1.5-.8-1.5-.8"/>
    <path d="m136.3,201.12s.3-.3.7-.8c.5-.5,1.1-1.2,1.9-2,.4-.4.8-.9,1.2-1.4.2-.3.4-.5.6-.8.2-.3.4-.5.4-.8,0-.2-.1-.6-.2-.9-.1-.3-.3-.7-.5-1-.4-.7-.7-1.3-1.2-1.9-.9-1.2-2-2.2-3.2-2.8-.3-.2-.6-.3-.8-.3-.3,0-.5.1-.7.2-.6.3-1,.7-1.5,1.1-1.8,1.5-3,2.4-3,2.4,0,0,.3-.3.7-.8.5-.5,1.1-1.2,1.9-2,.5-.4.8-.9,1.5-1.3.3-.2.6-.4,1.1-.4s.8.1,1.2.3c1.4.6,2.6,1.7,3.6,3,.5.6.9,1.3,1.3,2.1.2.4.4.7.5,1.1.1.4.2.8.2,1.3-.1.5-.4.9-.6,1.2s-.5.6-.7.8c-.5.5-.9.9-1.4,1.3-.8.8-1.7,1.3-2.2,1.7-.4.5-.8.7-.8.7Z"/>
    <path d="m130.3,204.82s.1,0,.3-.1.5-.3.4-.7c-.1-.8-.7-1.8-1.5-2.9-.8-1.1-1.8-2.4-3-3.5-.2-.1-.4-.3-.5-.3-.1-.1-.1,0-.2-.1h-.3c-.4,0-.7.1-1.2.2-.8.2-1.6.6-2.3,1-.7.4-1.5,1-2.1,1.5-.6.6-1.2,1.2-1.6,1.9-.1.2-.2.7-.2,1.1s0,.8.1,1.2c.1.8.3,1.5.6,2.2.4,1.4.8,2.5,1.1,3.2.3.8.5,1.2.5,1.2,0,0-.3-.4-.6-1.1-.4-.7-.9-1.8-1.4-3.1-.3-.7-.5-1.4-.6-2.2-.2-.8-.4-1.7,0-2.8.5-.9,1-1.6,1.8-2.2.6-.6,1.5-1.2,2.2-1.7.8-.5,1.7-.9,2.6-1.1.5-.1.9-.2,1.4-.2h.4c.1,0,.4.1.4.1.3.1.4.3.6.4.6.6,1.2,1.3,1.7,1.9.5.6.9,1.3,1.3,1.9.4.6.6,1.2.9,1.7.2.5.4,1.1.4,1.5,0,.2-.1.4-.2.6-.1.1-.3.2-.4.2-.5.2-.6.2-.6.2Z"/>
    <line class="cls-5" x1="110.9" y1="126.72" x2="109.6" y2="132.42"/>
    <path d="m121.3,210.82s.5-.6,1.2-1.4c.4-.4.8-.8,1.4-1.2s1.1-.8,1.8-1.2,1.3-.7,1.8-1c.6-.3,1.2-.5,1.8-.7.6-.1.9-.3,1.3-.3.3,0,.5-.1.5-.1,0,0-.2.1-.5.2-.3.1-.6.4-1.1.6-.5.3-1,.6-1.6.9-.6.4-1.2.7-1.8,1.1-1.2.8-2.4,1.5-3.3,2.1-.9.6-1.5,1-1.5,1Z"/>
    <path class="cls-4" d="m102.5,165.82s2.5-4.5,10.6-6.5"/>
    <path class="cls-4" d="m103,168.32s7.1-2.8,10.8-7.4"/>
    <path class="cls-4" d="m121.3,157.22s5.7-.1,11.7-5.1"/>
    <path class="cls-4" d="m132.6,150.92s-5.7,0-11.8,4.9"/>
    <path class="cls-4" d="m86.9,178.02s5.8-.8,11.3-5.4"/>
    <path class="cls-4" d="m68.7,184.62s5.8-.8,11.3-5.4"/>
    <path class="cls-4" d="m85.9,177.62s3.2-4,10.9-6.7"/>
    <line class="cls-5" x1="66.8" y1="149.12" x2="70.5" y2="152.22"/>
  </g>
  <g>
    <polygon class="cls-1" points="207.9 246.62 217.9 206.32 197.1 204.42 174.3 195.42 174.7 197.12 166.6 209.92 150.7 233.62 207.9 246.62"/>
    <path class="cls-6" d="m179.2,196.82s13.8,10.1,36.1,9.2"/>
    <path class="cls-5" d="m154.1,230.62c0-1,23.5-37,24.3-41.9s12.8-70.1,12.8-70.1"/>
    <path class="cls-5" d="m189.9,118.42s-2-9.6,4.6-12.3"/>
    <path class="cls-5" d="m198.7,115.82l23.8-13c1.3-.7,3.4-.8,4.8-.3l16.2,6.3c1.4.5,3,2.1,3.6,3.5l2.2,4.9"/>
    <path class="cls-5" d="m199.1,104.02l29.4-15.6c1.3-.7,3.3-.5,4.5.3l19.4,14.1c1.2.9,2.7,2.7,3.4,4.1l2.1,4.2"/>
    <path class="cls-2" d="m239.5,80.42l4.4-.4c1.4-.1,3.4.7,4.4,1.8l10,11.3c1,1.1,2.2,3.2,2.8,4.7l1.4,3.8"/>
    <path class="cls-5" d="m195.3,105.52l34.3-26.5c1.2-.9,3.1-.9,4.2.1l21.3,17.2c1.2.9,2.6,2.8,3.3,4.2l3,6.1"/>
    <path class="cls-5" d="m214.5,127.92s4.7-.9,8-6.3"/>
    <path class="cls-5" d="m221.1,120.72s7.2,3.1,15.5,1.7"/>
    <path class="cls-5" d="m233.8,120.92s11,15.4,20.4,4l-5-6.9"/>
    <path class="cls-5" d="m254.9,126.62s5.1,1.3,8-5.8l-5.2-7.7"/>
    <path class="cls-5" d="m261.7,107.62l4,8s-1.5,3.1-2.7,3.3"/>
    <path class="cls-5" d="m234.9,126.12l3.7,9.7s2.8,2.2,6.9,2.2"/>
    <line class="cls-5" x1="242.9" y1="139.92" x2="252.6" y2="131.92"/>
    <path class="cls-5" d="m252.4,128.32s.8,4.2,1.2,5.9"/>
    <path d="m218.8,127.52s.2.1.4.6c.1.2.2.5.2.8.1.3.1.7.1,1v1.2c0,.4-.1.9-.2,1.4-.1.5-.1,1-.3,1.4-.1.5-.2,1-.4,1.5-.3,1-.6,1.9-1,2.8-.2.4-.4.8-.5,1.2-.2.4-.3.8-.5,1.1-.3.7-.6,1.2-.8,1.6s-.3.6-.3.6c0,0,.1-.2.2-.7.1-.4.3-1,.5-1.7s.5-1.5.8-2.4.6-1.8.8-2.8c.2-.5.3-.9.4-1.4.1-.5.2-.9.3-1.4.1-.4.2-.9.3-1.3,0-.4.1-.8.2-1.2.1-.7.1-1.3,0-1.8-.1-.3-.2-.5-.2-.5Z"/>
    <path d="m215.8,138.82s.1.9.2,2.4c.1,1.6.2,3.8.3,6.4.1,2.7.3,5.8.3,9.1.1,3.3.1,6.9.1,10.5,0,1.8-.1,3.6-.1,5.3,0,.9-.1,1.8-.2,2.6-.1.9-.1,1.7-.4,2.6-.5,1.7-1.4,3.1-2.2,4.3-.9,1.2-1.8,2.3-2.7,3.3-1.8,1.9-3.4,3.3-4.5,4.2-.6.5-1.1.8-1.4,1-.3.2-.5.3-.5.3,0,0,.2-.1.5-.4.3-.2.8-.6,1.3-1.1,1.1-1,2.6-2.5,4.3-4.4.8-1,1.7-2.1,2.5-3.3s1.6-2.6,2-4.1c.2-.7.3-1.6.3-2.4.1-.8.1-1.7.1-2.6.1-1.7.1-3.5.1-5.3v-26c0-1.5,0-2.4,0-2.4Z"/>
    <path d="m200.8,188.22s.2-.1.5-.3.8-.5,1.4-.9c.6-.4,1.3-.8,2-1.2s1.5-.9,2.3-1.3c.8-.4,1.6-.9,2.3-1.3.7-.4,1.4-.8,2-1.2s1-.7,1.3-.9.5-.4.5-.4c0,0-.1.2-.4.5-.1.2-.3.4-.5.6-.2.2-.4.5-.7.7-.5.5-1.1,1-1.8,1.5s-1.5,1-2.3,1.4c-1.6.9-3.2,1.7-4.5,2.1-.6.2-1.2.4-1.5.5-.4.1-.6.2-.6.2Z"/>
    <path d="m236.6,130.52s.1.3.3,1c.2.6.5,1.5.8,2.5.7,2.1,1.5,5,2.2,7.8.7,2.9,1.3,5.8,1.7,8,.2,1.1.3,2,.4,2.7.1.6.1,1,.1,1,0,0-.4-1.4-1-3.5s-1.4-5-2.1-7.8c-.7-2.9-1.4-5.8-1.8-7.9-.2-1.1-.4-2-.5-2.6-.1-.9-.1-1.2-.1-1.2Z"/>
    <path class="cls-5" d="m261.9,100.22l4.4,8.9s-.9,1.4-2,1.4"/>
    <path class="cls-5" d="m266.9,110.72s3.9.7.8,12.6"/>
    <path d="m268.2,123.92s.2.5.6,1.3c.2.4.4.9.5,1.5.2.6.4,1.3.6,2.1.2.8.4,1.6.5,2.5s.2,1.9.2,2.9c0,.5,0,1-.1,1.6,0,.5-.1,1.1-.2,1.6-.2,1.1-.6,2.1-1.1,3.2-.3.5-.6.9-1,1.4-.3.4-.7.8-1,1.1-.7.8-1.4,1.4-2.1,2.1-1.4,1.3-2.8,2.3-4,3.2-2.4,1.7-4.2,2.5-4.2,2.5,0,0,1.4-1.4,3.6-3.4,1.1-1,2.3-2.2,3.5-3.6.6-.7,1.3-1.4,1.9-2.1.3-.4.6-.7.9-1.1.2-.4.5-.7.7-1.1.4-.8.8-1.7.9-2.6.1-.5.2-.9.3-1.4.1-.5.1-.9.1-1.4s.1-.9.1-1.4v-1.3c0-.9-.1-1.7-.1-2.4-.1-1.5-.3-2.8-.4-3.7-.1-1-.2-1.5-.2-1.5Z"/>
    <path d="m257.7,147.52s-.2,1-.8,2.6c-.3.8-.6,1.8-1.1,2.9-.4,1.1-1,2.3-1.7,3.6-.7,1.3-1.4,2.7-2.2,4.1-.9,1.4-1.8,2.9-2.8,4.4s-2.1,3-3.3,4.5-2.5,2.9-3.7,4.4c-1.3,1.4-2.7,2.7-4,4.1-1.4,1.3-2.8,2.5-4.1,3.6-1.4,1.1-2.7,2.1-4,3.1s-2.6,1.8-3.7,2.5c-1.2.8-2.2,1.5-3.2,2s-1.9,1-2.6,1.4c-1.4.8-2.2,1.2-2.2,1.2,0,0,.8-.6,2.1-1.5.7-.5,1.5-1,2.4-1.7.9-.6,1.9-1.5,3-2.3.5-.4,1.1-.9,1.7-1.3.6-.5,1.2-.9,1.8-1.5,1.2-1,2.5-2.1,3.8-3.3s2.6-2.5,3.9-3.7c1.3-1.3,2.6-2.7,3.9-4,1.2-1.4,2.5-2.8,3.7-4.2,1.1-1.4,2.3-2.8,3.4-4.3,1.1-1.4,2-2.8,3-4.2.5-.7.9-1.4,1.3-2,.4-.7.8-1.3,1.2-1.9.7-1.2,1.4-2.4,1.9-3.4.6-1,1-1.9,1.4-2.7.4-.8.7-1.4.8-1.8,0-.4.1-.6.1-.6Z"/>
    <line class="cls-5" x1="222.6" y1="185.72" x2="209.6" y2="243.42"/>
    <path d="m247.8,119.32s-.3.5-.7,1.2c-.2.4-.3.8-.3,1.3,0,.2,0,.4.1.7,0,.2.1.4.3.6.1.2.3.5.4.7.2.2.3.4.5.6.3.4.6.8.9,1.1.5.6.9,1,.9,1,0,0-.6-.1-1.3-.6-.4-.2-.7-.6-1.1-.9-.2-.2-.4-.4-.6-.6-.2-.3-.3-.4-.5-.7-.2-.3-.3-.6-.3-1-.1-.3-.1-.7,0-1,0-.3.2-.6.3-.8.1-.2.3-.4.4-.6.5-.8,1-1,1-1Z"/>
    <path d="m256.2,114.12s-.2.1-.5.3c-.3.2-.7.6-.9,1.1-.1.3-.1.6-.1.9s.1.7.3,1c.1.4.3.8.4,1.2.1.4.3.8.4,1.2.3.8.6,1.6,1.1,1.9.3.2.5.3.9.3h.9c.6-.1,1.1-.2,1.4-.3.4-.1.6-.1.6-.1,0,0-.2.1-.5.3-.2.1-.4.2-.6.3-.2.1-.5.2-.8.3-.3.1-.7.2-1.1.2s-.8-.1-1.2-.3c-.4-.3-.7-.6-1-1.1-.2-.4-.4-.8-.6-1.3-.3-.9-.5-1.7-.8-2.5-.1-.4-.2-.9-.2-1.3s.1-.9.3-1.2c.3-.7.9-1,1.3-1.1.4.2.7.2.7.2Z"/>
    <path class="cls-3" d="m260.6,108.52s-1,.8-1.7,2.2"/>
    <path d="m261.9,117.02s.1-.2.4-.5c.2-.3.5-.6.8-.8.3-.3.6-.5.8-.8.1-.1.2-.2.3-.3l.1-.1s.1.3,0,.6c-.1.4-.4.8-.7,1.1-.3.3-.7.5-1.1.6-.4.2-.6.2-.6.2Z"/>
    <path d="m221.7,126.72s.1,0,.1.1c.1.1.2.3.2.5.1.2.1.5.1.8v1.1c-.1.8-.2,1.7-.5,2.7s-.6,2-1,2.9c-.8,1.9-1.8,3.8-2.6,5.1-.4.7-.8,1.2-1,1.6-.3.4-.4.6-.4.6,0,0,.1-.3.2-.7.2-.4.4-1,.7-1.7s.6-1.6,1-2.4c.4-.9.8-1.8,1.2-2.8.2-.5.4-.9.6-1.4.2-.5.4-.9.5-1.4.3-.9.6-1.8.8-2.5.1-.4.2-.7.2-1v-.8c0-.2,0-.4-.1-.5v-.2Z"/>
  </g>
  <g>
    <g id="Färg">
      <polygon class="cls-8" points="299.4 246.72 314 224.72 318.6 219.12 310.3 216.02 296.3 207.42 288.2 198.22 283.8 193.02 258.8 219.22 299.4 246.72"/>
    </g>
    <path class="cls-5" d="m266.9,213.52l30.3-36.8s19.6-37.4,23.9-43.5,19.9-29.5,21.3-30.7,24.4-.6,25.8-.6,11.2,6.1,12.6,6.1"/>
    <path class="cls-5" d="m326.4,132.62l15.7-12.2c1.1-.8,3-1.5,4.3-1.5l14.6.2c1.3,0,3.3.7,4.3,1.6l2.3,1.8"/>
    <line class="cls-5" x1="367" y1="122.12" x2="375.7" y2="125.02"/>
    <path d="m334.6,140.62c1.2-.5,2.3-1.2,3.3-2,.3-.2.5-.4.8-.6.2-.2.5-.4.7-.6.5-.4,1-.9,1.4-1.3.2-.2.4-.5.7-.7.2-.2.4-.5.6-.7.4-.5.8-1,1.2-1.5.4-.5.7-1.1,1.1-1.6.2-.3.3-.6.5-.8l.5-.8.4-.7.7.4c.2.1.4.2.6.3.2.1.5.2.7.3.5.2,1,.3,1.5.4,1,.2,2.1.2,3.1,0,2-.3,4-1.3,5.7-2.6l.5-.4.5.4c.3.2.7.5,1,.7.4.2.7.4,1.1.6.7.4,1.5.7,2.3,1s1.6.5,2.4.6c.4.1.8.1,1.2.1s.8,0,1.2-.1c.4-.1.8-.1,1.2-.2.4-.1.8-.3,1.2-.4.4-.2.8-.4,1.1-.6.4-.2.7-.5,1.1-.7.7-.5,1.3-1.2,1.9-1.9.3-.3.6-.7.9-1.1l.8-1.1-.6,1.3c-.2.4-.4.8-.7,1.2-.5.8-1.1,1.5-1.7,2.2-.3.3-.7.7-1.1.9-.4.3-.8.5-1.2.8-.4.2-.8.4-1.3.6-.4.2-.9.3-1.3.4-1.8.4-3.7.3-5.5-.3-.9-.3-1.8-.6-2.6-1-.4-.2-.8-.4-1.2-.7-.4-.2-.8-.5-1.2-.8h1c-.9.8-2,1.4-3.1,1.9s-2.3.9-3.5,1c-1.2.2-2.4.1-3.6-.1-.6-.1-1.2-.3-1.7-.5-.3-.1-.6-.2-.8-.4-.3-.1-.5-.3-.8-.5l1.1-.3c-.4.6-.7,1.2-1.2,1.7-.4.5-.8,1.1-1.3,1.6-.4.5-.9,1-1.4,1.5-.2.2-.5.5-.7.7-.3.2-.5.5-.8.7-.5.4-1,.8-1.6,1.2-.3.2-.6.4-.8.5-.3.2-.6.3-.9.5-.6.3-1.2.6-1.8.8-.4.3-1,.5-1.6.7Z"/>
    <path class="cls-5" d="m352.3,98.92l4.1-3.2c1.2-.9,3.3-1.4,4.7-1.1l21.5,4.4c1.4.3,3.2,1.6,3.9,3l4.5,8.1"/>
    <line class="cls-5" x1="380.2" y1="109.02" x2="389.9" y2="112.52"/>
    <line class="cls-5" x1="389.5" y1="107.52" x2="398.6" y2="115.62"/>
    <path d="m356,115.12c.6.5,1.2.7,1.9.9.7.2,1.3.4,2,.5.3.1.7.1,1,.1s.7.1,1,.1h2c.3,0,.7,0,1-.1l1-.1c.7-.1,1.4-.1,2.1-.2s1.4-.2,2.1-.3l2.1-.4.3-.1.3.2c.3.2.7.4,1.1.5.4.2.8.3,1.2.5.8.3,1.6.5,2.4.7s1.6.3,2.4.4,1.6.1,2.4,0c1.6-.2,3.2-.7,4.6-1.7.4-.2.7-.5,1-.8s.6-.6.9-.9.6-.7.8-1c.3-.3.5-.7.8-1.1-.2.4-.3.9-.6,1.3-.2.4-.4.8-.7,1.2-.2.4-.5.8-.8,1.1-.3.3-.6.7-1,1-.3.3-.7.6-1.1.9-.4.2-.8.5-1.2.7-.4.2-.8.4-1.3.5-.4.1-.9.3-1.3.3-.4.1-.9.2-1.4.2h-1.4c-.9,0-1.8-.1-2.7-.3-.9-.2-1.7-.4-2.6-.7-.4-.2-.8-.3-1.3-.5-.4-.2-.8-.4-1.3-.6l.6.1-2.1.3c-.4.1-.7.1-1.1.1l-1.1.1c-.7.1-1.4.1-2.2.1-.7,0-1.4,0-2.2-.1-.7-.1-1.4-.1-2.2-.3-.4-.1-.7-.1-1.1-.2s-.7-.2-1.1-.3c-.7-.2-1.4-.5-2-.9-.2-.1-.8-.6-1.2-1.2Z"/>
    <path d="m359.2,115.72s0,.3-.2.7c-.2.4-.5.9-.9,1.2-.4.4-.9.6-1.3.7s-.7.1-.7.1c0,0,.1-.3.4-.6.2-.3.6-.7,1-1s.8-.6,1.1-.8c.4-.2.6-.3.6-.3Z"/>
    <path d="m385.5,119.42s.9.1,2.3.1h2.3c.4,0,.8-.1,1.2-.1.4-.1.8-.1,1.2-.2l1.2-.3c.2-.1.4-.1.6-.2s.4-.1.6-.2c.4-.1.7-.3,1-.5.2-.1.3-.2.5-.2.2-.1.3-.2.4-.3.3-.2.6-.3.8-.5.2-.2.4-.3.6-.4.3-.2.6-.4.6-.4,0,0-.1.2-.3.6-.1.2-.2.4-.4.7-.2.3-.4.5-.6.8-.1.1-.2.3-.4.5-.1.1-.3.3-.5.4-.3.3-.7.6-1.1.8-.4.2-.8.5-1.3.6-.5.2-.9.3-1.4.4s-1,.1-1.4.2c-.5,0-.9,0-1.4-.1-.9-.1-1.7-.4-2.4-.6-1.4-.4-2.1-1.1-2.1-1.1Z"/>
    <path d="m360.8,132.72s.1.1.1.3c.1.2.1.5.2.9,0,.4,0,.8-.1,1.2-.1.4-.2.9-.4,1.3-.2.4-.4.8-.6,1.2-.2.4-.5.7-.7.9-.5.5-.8.8-.8.8,0,0,.1-.5.4-1.1.2-.6.6-1.4.9-2.2.2-.4.3-.8.5-1.2.1-.4.3-.7.4-1,.1-.7.1-1.1.1-1.1Z"/>
    <path class="cls-5" d="m358.2,134.12s2.7,26.2,3.3,31,7,7.6,8.7,7.9,9.1.4,9.1.4c0,0,18.5-12.6,24,.5"/>
    <path class="cls-5" d="m300.9,244.82l25-36.2s24.1-2.7,33.8-10.4c11.8-9.3,11.8-6.6,20.9-7.1,4.3-.2,10.1-.1,13.8-5.9,3.6-5.8,3-5.2,3-5.2"/>
    <line class="cls-5" x1="403.3" y1="173.92" x2="395.2" y2="180.62"/>
    <path d="m345.2,136.52c0,.9,0,1.9-.1,2.8s-.3,1.9-.5,2.8c-.1.5-.2.9-.4,1.4l-.5,1.3-.6,1.3c-.2.4-.4.8-.6,1.3-.2.4-.5.8-.7,1.2-.3.4-.5.8-.8,1.2l-.9,1.1c-.3.4-.6.7-.9,1s-.6.7-1,1l-1,.9c-.3.3-.7.6-1.1.8l-1.1.8.4-.7c0,2.2-.1,4.4-.3,6.5-.2,2.2-.4,4.3-.7,6.5-.1,1.1-.3,2.2-.5,3.2-.2,1.1-.4,2.1-.6,3.2-.4,2.1-.9,4.3-1.5,6.3-.3,1-.6,2.1-.9,3.1s-.7,2.1-1.1,3.1-.8,2-1.3,3l-.7,1.4-.8,1.4c-.6.9-1.1,1.8-1.8,2.7-.3.4-.7.8-1,1.2-.4.4-.7.8-1.1,1.1-.7.7-1.6,1.4-2.4,2-.4.3-.9.5-1.3.8l-1.4.6,1.3-.8c.4-.3.8-.6,1.2-.9.8-.7,1.5-1.4,2.2-2.2.4-.4.6-.8,1-1.2.3-.4.6-.8.9-1.3.6-.9,1.1-1.8,1.6-2.7l.7-1.4.6-1.4c.4-1,.8-1.9,1.1-2.9.7-2,1.3-4,1.8-6.1.3-1,.5-2.1.7-3.1.2-1,.4-2.1.6-3.1.4-2.1.7-4.2,1-6.3.3-2.1.5-4.2.7-6.4.2-2.1.4-4.3.4-6.4v-.5l.4-.3,1.1-.7c.4-.2.7-.4,1.1-.7l1-.8c.4-.2.6-.6,1-.9.3-.3.6-.6.9-.9l.9-1c.3-.3.5-.7.8-1.1s.5-.7.7-1.1.5-.8.7-1.2l.6-1.2.6-1.2c.2-.4.3-.9.5-1.3.3-.9.6-1.8.8-2.7.1-.6.3-1.5.3-2.5Z"/>
    <path d="m379.4,172.72s0,.7.1,1.6c0,.5.1,1,.2,1.6s.2,1.2.3,1.8c.1.3.1.6.2.9.1.3.2.6.3.9.2.6.4,1.1.6,1.5.1.2.2.4.3.6.1.2.2.3.2.4.1.3.2.4.2.4,0,0-.1-.1-.3-.3-.2-.2-.5-.5-.8-.9-.2-.2-.3-.4-.4-.7-.2-.2-.3-.5-.4-.8-.3-.6-.5-1.2-.6-1.9s-.2-1.3-.2-2c0-.6,0-1.2.1-1.7-.1-.7.2-1.4.2-1.4Z"/>
    <path class="cls-6" d="m285.5,194.12s5.2,12.2,29.1,24.3"/>
    <path d="m373,127.72s-.5.1-1.2.1c-.4,0-.8-.1-1.2-.2-.4-.1-.9-.3-1.3-.6-.2-.1-.4-.3-.6-.4-.2-.2-.4-.3-.5-.5-.3-.4-.6-.8-.7-1.2-.1-.2-.1-.4-.1-.6v-.4c0-.2.1-.4.1-.4,0,0,0,.1.1.3.1.2.2.5.4.8.2.3.5.6.8.8.2.1.3.3.5.4s.4.2.6.4c.4.2.8.4,1.2.6.4.2.8.3,1.1.5.3.2.8.4.8.4Z"/>
    <path d="m379.5,109.92s.1.2.1.5c.1.3.3.7.6,1.1.3.4.7.8,1.2,1.3.5.4,1.1.8,1.6,1.2.3.2.6.4.9.5.3.2.6.3.9.5.3.1.6.3.8.4.1,0,.4,0,.6-.1.4-.2.8-.6,1-.8.2-.2.4-.4.4-.4,0,0-.1.2-.2.5-.2.3-.4.7-.8,1.1-.2.2-.5.4-1,.4-.4-.1-.6-.2-1-.3-.6-.2-1.3-.6-1.9-1-1.2-.8-2.4-1.9-2.9-3-.1-.3-.2-.5-.3-.8-.1-.2-.1-.5-.1-.6.1-.4.1-.5.1-.5Z"/>
    <path d="m393.2,118.22s-.4,0-.8-.2c-.5-.2-1.1-.6-1.5-1.1-.5-.5-.8-1.1-1-1.6s-.2-.9-.2-.9c0,0,.3.2.7.5.4.3.8.8,1.3,1.2.4.5.9.9,1.2,1.3.1.6.3.8.3.8Z"/>
  </g>
</svg>