<?xml version="1.0" encoding="UTF-8"?>
<svg id="Lager_1" data-name="Lager 1" xmlns="http://www.w3.org/2000/svg" xmlns:xlink="http://www.w3.org/1999/xlink" viewBox="0 0 300.38 240">
  <defs>
    <style>
      .cls-1 {
        fill: url(#linear-gradient-2);
      }

      .cls-2 {
        fill: #fff;
      }

      .cls-3, .cls-4, .cls-5, .cls-6, .cls-7 {
        stroke-linecap: round;
      }

      .cls-3, .cls-4, .cls-5, .cls-6, .cls-7, .cls-8, .cls-9 {
        fill: none;
        stroke: #000;
      }

      .cls-4 {
        stroke-width: 1.4px;
      }

      .cls-5 {
        stroke-linejoin: bevel;
      }

      .cls-5, .cls-6 {
        stroke-width: 1.5px;
      }

      .cls-7, .cls-8 {
        stroke-width: 2px;
      }

      .cls-10 {
        fill: url(#linear-gradient);
      }
    </style>
    <linearGradient id="linear-gradient" x1="26.51" y1="-563.07" x2="33.22" y2="-553.09" gradientTransform="translate(0 -374.03) scale(1 -1)" gradientUnits="userSpaceOnUse">
      <stop offset="0" stop-color="#fff"/>
      <stop offset="1" stop-color="#ededed"/>
    </linearGradient>
    <linearGradient id="linear-gradient-2" x1="172.52" y1="1150.66" x2="181.74" y2="1128.41" gradientTransform="translate(0 -964.66)" gradientUnits="userSpaceOnUse">
      <stop offset="0" stop-color="#fff"/>
      <stop offset="1" stop-color="#ededed"/>
    </linearGradient>
  </defs>
  <rect class="cls-2" x="4.29" y="6.6" width="289" height="226.8"/>
  <g>
    <g id="Färg">
      <polygon class="cls-10" points="44.39 205.7 58.69 183.7 63.29 178.1 54.99 175 41.29 166.4 33.29 157.2 28.99 152 4.39 178.2 44.39 205.7"/>
    </g>
    <path class="cls-7" d="m12.39,172.5l29.9-36.8s19.3-37.4,23.5-43.5c4.2-6.1,19.6-29.5,21-30.7s24-.6,25.4-.6,11.1,6.1,12.4,6.1"/>
    <path class="cls-7" d="m70.99,91.6l15.5-12.2c1.1-.8,3-1.5,4.3-1.5l14.4.2c1.3,0,3.2.7,4.2,1.6l2.3,1.8"/>
    <line class="cls-7" x1="110.99" y1="81" x2="119.49" y2="84"/>
    <path d="m78.99,99.6c1.2-.5,2.2-1.2,3.2-2,.3-.2.5-.4.8-.6s.5-.4.7-.6c.5-.4.9-.9,1.4-1.3.2-.2.4-.5.7-.7.2-.2.4-.5.6-.7.4-.5.8-1,1.2-1.5.4-.5.7-1.1,1.1-1.6.2-.3.3-.6.5-.8l.5-.8.4-.7.7.4c.2.1.4.2.6.3.2.1.5.2.7.3.5.2,1,.3,1.5.4,1,.2,2,.2,3,0,2-.3,3.9-1.3,5.6-2.6l.5-.4.5.4c.3.2.7.5,1,.7.4.2.7.4,1.1.6.7.4,1.5.7,2.3,1s1.6.5,2.4.6c.4.1.8.1,1.2.1s.8,0,1.2-.1c.4-.1.8-.1,1.2-.2.4-.1.8-.3,1.2-.4.4-.2.7-.4,1.1-.6s.7-.5,1-.7c.7-.5,1.3-1.2,1.9-1.9.3-.3.5-.7.8-1.1l.8-1.1-.6,1.3c-.2.4-.4.8-.7,1.2-.5.8-1.1,1.5-1.7,2.2-.3.3-.7.7-1,.9-.4.3-.8.5-1.2.8-.4.2-.8.4-1.3.6-.4.2-.9.3-1.3.4-1.8.4-3.7.3-5.4-.3-.9-.3-1.7-.6-2.6-1-.4-.2-.8-.4-1.2-.7-.4-.2-.8-.5-1.2-.8h1c-.9.8-1.9,1.4-3,1.9s-2.2.9-3.4,1c-1.2.2-2.4.1-3.6-.1-.6-.1-1.2-.3-1.7-.5-.3-.1-.6-.2-.8-.4-.3-.1-.5-.3-.8-.5l1.1-.3c-.4.6-.7,1.2-1.1,1.7s-.8,1.1-1.3,1.6c-.4.5-.9,1-1.4,1.5l-.7.7c-.3.2-.5.5-.7.7-.5.4-1,.8-1.6,1.2-.3.2-.5.4-.8.5-.3.2-.6.3-.8.5-.6.3-1.1.6-1.7.8-.7.3-1.3.5-1.9.7Z"/>
    <path class="cls-7" d="m96.39,57.8l4-3.2c1.1-.9,3.2-1.4,4.6-1.1l21.2,4.4c1.4.3,3.1,1.6,3.9,3l4.5,8.2"/>
    <line class="cls-7" x1="123.89" y1="68" x2="133.39" y2="71.5"/>
    <line class="cls-7" x1="133.09" y1="66.5" x2="141.99" y2="74.6"/>
    <path d="m99.99,74.1c.6.5,1.2.7,1.9.9.7.2,1.3.4,2,.5.3.1.7.1,1,.1s.7.1,1,.1h2c.3,0,.7,0,1-.1l1-.1c.7-.1,1.4-.1,2-.2.7-.1,1.4-.2,2-.3l2-.4.3-.1.3.2c.3.2.7.4,1.1.5.4.2.8.3,1.1.5.8.3,1.5.5,2.3.7s1.6.3,2.4.4,1.6.1,2.4,0c1.6-.2,3.1-.7,4.5-1.7.4-.2.7-.5,1-.8l.9-.9c.3-.3.6-.7.8-1,.3-.3.5-.7.8-1.1-.2.4-.3.9-.5,1.3s-.4.8-.7,1.2c-.2.4-.5.8-.8,1.1-.3.3-.6.7-1,1-.3.3-.7.6-1.1.9-.4.2-.8.5-1.2.7-.4.2-.8.4-1.3.5-.4.1-.9.3-1.3.3-.4.1-.9.2-1.3.2h-1.3c-.9,0-1.8-.1-2.6-.3-.9-.2-1.7-.4-2.6-.7-.4-.2-.8-.3-1.2-.5-.4-.2-.8-.4-1.2-.6l.6.1-2.1.3c-.3.1-.7.1-1.1.1l-1.1.1c-.7.1-1.4.1-2.1.1s-1.4,0-2.1-.1-1.4-.1-2.1-.3c-.4-.1-.7-.1-1.1-.2s-.7-.2-1-.3c-.7-.2-1.4-.5-2-.9-.5-.1-1.1-.6-1.6-1.2Z"/>
    <path d="m103.29,74.7s0,.3-.2.7c-.2.4-.5.9-.9,1.2-.4.4-.9.6-1.2.7-.4.1-.7.1-.7.1,0,0,.1-.3.4-.6.2-.3.6-.7.9-1,.4-.3.8-.6,1.1-.8.3-.2.6-.3.6-.3Z"/>
    <path d="m129.19,78.4s.9.1,2.2.1h2.1c.4,0,.8-.1,1.2-.1.4-.1.8-.1,1.2-.2s.8-.2,1.2-.3c.2-.1.4-.1.6-.2.2-.1.4-.1.5-.2.4-.1.7-.3,1-.5.2-.1.3-.2.5-.2.1-.1.3-.2.4-.3.3-.2.6-.3.8-.5s.4-.3.6-.4c.3-.2.5-.4.5-.4,0,0-.1.2-.3.6-.1.2-.2.4-.4.7-.2.3-.4.5-.6.8-.1.1-.2.3-.4.5-.1.1-.3.3-.5.4-.3.3-.7.6-1.1.8s-.8.5-1.3.6c-.4.2-.9.3-1.4.4s-1,.1-1.4.2c-.5,0-.9,0-1.4-.1-.9-.1-1.7-.4-2.3-.6-1-.4-1.7-1.1-1.7-1.1Z"/>
    <path d="m104.79,91.6s.1.1.1.3c.1.2.1.5.2.9,0,.4,0,.8-.1,1.2-.1.4-.2.9-.4,1.3-.2.4-.4.8-.6,1.2-.2.4-.5.7-.7.9-.4.5-.8.8-.8.8,0,0,.1-.5.4-1.1.2-.6.6-1.4.9-2.2.2-.4.3-.8.5-1.2.1-.4.3-.7.4-1,.1-.6.1-1.1.1-1.1Z"/>
    <path class="cls-7" d="m102.29,93.1s2.7,26.2,3.3,31,6.9,7.6,8.6,7.9,9,.4,9,.4c0,0,18.3-12.6,23.6.5"/>
    <path class="cls-7" d="m45.79,203.8l24.6-36.2s23.7-2.7,33.3-10.4c11.6-9.3,11.7-6.6,20.6-7.1,4.2-.2,10-.1,13.5-5.9,3.6-5.8,3-5.2,3-5.2"/>
    <line class="cls-7" x1="146.69" y1="132.9" x2="138.69" y2="139.6"/>
    <path d="m89.49,95.5c0,.9,0,1.9-.1,2.8s-.3,1.9-.5,2.8c-.1.5-.2.9-.4,1.4l-.5,1.3-.5,1.3c-.2.4-.4.8-.6,1.3-.2.4-.4.8-.7,1.2-.3.4-.5.8-.8,1.2l-.8,1.1c-.3.4-.6.7-.9,1s-.6.7-1,1l-1,.9c-.3.3-.7.6-1.1.8l-1.1.8.4-.7c0,2.2-.1,4.4-.3,6.5-.2,2.2-.4,4.3-.6,6.5-.1,1.1-.3,2.2-.5,3.2-.2,1.1-.4,2.1-.6,3.2-.4,2.1-.9,4.3-1.5,6.3-.3,1-.6,2.1-.9,3.1s-.7,2.1-1.1,3.1-.8,2-1.3,3l-.7,1.4-.8,1.4c-.6.9-1.1,1.8-1.8,2.7-.3.4-.6.8-1,1.2s-.7.8-1.1,1.1c-.7.7-1.5,1.4-2.4,2-.4.3-.9.5-1.3.8l-1.4.6,1.3-.8c.4-.3.8-.6,1.2-.9.8-.7,1.5-1.4,2.1-2.2.3-.4.6-.8.9-1.2.3-.4.6-.8.9-1.3.6-.9,1.1-1.8,1.5-2.7l.8-1.1.6-1.4c.4-1,.8-1.9,1.1-2.9.7-2,1.3-4,1.8-6.1.3-1,.5-2.1.7-3.1s.4-2.1.6-3.1c.4-2.1.7-4.2,1-6.3.3-2.1.5-4.2.7-6.4.2-2.1.4-4.3.4-6.4v-.5l.4-.3,1.1-.7c.4-.2.7-.4,1-.7l1-.8c.3-.2.6-.6.9-.9l.9-.9.9-1c.3-.3.5-.7.8-1.1s.5-.7.7-1.1.5-.8.7-1.2l.6-1.2.5-1.2c.2-.4.3-.9.5-1.3.3-.9.5-1.8.7-2.7.3-.9.5-1.8.6-2.8Z"/>
    <path d="m123.09,131.7s0,.7.1,1.6c0,.5.1,1,.2,1.6s.2,1.2.3,1.8c.1.3.1.6.2.9.1.3.1.6.2.9.2.6.4,1.1.6,1.5l.3.6c.1.2.2.3.2.4.1.3.2.4.2.4,0,0-.1-.1-.3-.3-.2-.2-.5-.5-.8-.9-.2-.2-.3-.4-.4-.7-.1-.2-.3-.5-.4-.8-.3-.6-.5-1.2-.6-1.9s-.2-1.3-.2-2c0-.6,0-1.2.1-1.7.1-.8.3-1.4.3-1.4Z"/>
    <path class="cls-9" d="m30.69,153.1s5.1,12.2,28.7,24.3"/>
    <path d="m116.79,86.7s-.5.1-1.2.1c-.4,0-.8-.1-1.2-.2-.4-.1-.9-.3-1.3-.6-.2-.1-.4-.3-.6-.4-.2-.2-.4-.3-.5-.5-.3-.4-.6-.8-.7-1.2-.1-.2-.1-.4-.1-.6v-.4c0-.2.1-.4.1-.4,0,0,0,.1.1.3.1.2.2.5.4.8.2.3.4.6.7.8.2.1.3.3.5.4s.4.2.5.4c.4.2.8.4,1.2.6.4.2.7.3,1.1.5.5.2,1,.4,1,.4Z"/>
    <path d="m123.19,68.8s.1.2.1.5c.1.3.3.7.6,1.1.3.4.7.8,1.2,1.3.5.4,1,.8,1.6,1.2.3.2.6.4.9.5.3.2.6.3.9.5.3.1.6.3.8.4.1,0,.4,0,.6-.1.4-.2.7-.6,1-.8l.4-.4s-.1.2-.2.5c-.2.3-.4.7-.8,1.1-.2.2-.5.4-1,.4-.4-.1-.6-.2-1-.3-.6-.2-1.3-.6-1.9-1-1.2-.8-2.3-1.9-2.8-3-.1-.3-.2-.5-.3-.8-.1-.2-.1-.5-.1-.6,0-.3,0-.5,0-.5Z"/>
    <path d="m136.69,77.2s-.4,0-.8-.2c-.5-.2-1-.6-1.5-1.1s-.8-1.1-1-1.6-.2-.9-.2-.9c0,0,.3.2.7.5s.8.8,1.2,1.2c.4.5.8.9,1.2,1.3.2.6.4.8.4.8Z"/>
  </g>
  <g>
    <polygon class="cls-1" points="194.89 192.8 207.09 155.5 187.99 152.8 167.49 142.4 167.99 144.1 160.69 158.1 149.79 180.1 194.89 192.8"/>
    <line class="cls-7" x1="194.19" y1="194.8" x2="211.49" y2="141.4"/>
    <path class="cls-7" d="m206.49,145.4s20.9-5.6,40.7-33.9"/>
    <path class="cls-8" d="m246.09,113.2s9.4-16.3,25.9-22.5c8.4-3.1,5.6-8.1,5.6-8.1"/>
    <path class="cls-7" d="m152.39,174.3s19.3-41.2,23.2-48,11.6-40.3,13.6-47.4c2.1-7.1,2.5-7.5,6.9-10"/>
    <path class="cls-8" d="m228.69,85.3s-1.8,7.1,1.4,8.9c3.3,1.8,5.3,1.7,10.2-2.7,4.9-4.4,7.2-6.5,7.2-6.5"/>
    <path d="m210.59,81.8c.8.4,1.6.6,2.5.9.8.2,1.7.4,2.5.5.4.1.8.1,1.3.2.4,0,.8.1,1.3.1h2.6c.4,0,.8-.1,1.3-.1.4,0,.8-.1,1.3-.1l1.3-.2,1.2-.3c.8-.1,1.6-.4,2.4-.7.4-.1.8-.3,1.2-.4l1.2-.4.3-.1.3.1c.7.2,1.5.4,2.2.5s1.5.3,2.2.4c1.5.2,3,.4,4.5.4,3,.1,6-.1,8.7-1.2l.3-.1.3.1c1,.4,2.1.7,3.2,1,1.1.3,2.2.6,3.3.8,2.2.4,4.4.8,6.6.6,1.1-.1,2.2-.3,3.1-.8.4-.3,1-.6,1.4-.9.5-.3.9-.7,1.3-1.1s.8-.8,1.2-1.3c.4-.5.7-1,1-1.5.6-1.1,1.1-2.2,1.3-3.4-.2,2.5-1.3,5-2.9,6.9-.4.5-.8.9-1.3,1.3-.5.5-.9.8-1.4,1.1-1.1.7-2.3,1-3.5,1.2s-2.4.2-3.6.2c-1.2-.1-2.3-.2-3.5-.4-1.2-.2-2.3-.4-3.4-.7-1.1-.3-2.3-.6-3.4-.9h.7c-1.6.6-3.1,1-4.7,1.2-1.6.2-3.2.2-4.8.2-1.6-.1-3.2-.3-4.7-.5-.8-.1-1.6-.3-2.3-.5-.8-.2-1.5-.4-2.3-.6h.6l-1.3.4c-.4.1-.8.3-1.3.4-.9.2-1.7.4-2.6.5l-1.3.2-1.3.1h-2.6l-1.3-.1c-.4,0-.9-.1-1.3-.2-.4-.1-.9-.2-1.3-.3-.4-.1-.9-.2-1.3-.3-.9-.2-1.7-.6-2.5-.9-1.2-.3-2-.8-2.7-1.3Z"/>
    <path d="m215.99,82.4s.1.5,0,1.3c-.1.4-.2.8-.3,1.3-.2.4-.4.9-.7,1.3s-.6.8-.9,1.1c-.3.3-.7.6-1,.8-.3.2-.6.3-.8.4s-.3.1-.3.1c0,0,.1-.1.2-.3s.3-.4.5-.7c.2-.3.5-.6.7-.9s.5-.7.7-1.1.5-.8.7-1.1c.2-.4.4-.7.6-1l.6-1.2Z"/>
    <path d="m212.69,90.1c0,3.6-.1,7.1-.2,10.6-.1,3.5-.2,7.1-.4,10.6l-.4,10.6-.5,10.6h0c-.1.5-.2.9-.3,1.3s-.3.8-.5,1.2c-.4.8-.8,1.5-1.3,2.2-1,1.4-2.2,2.5-3.5,3.4s-2.8,1.6-4.2,2.1c-.7.2-1.5.4-2.2.6-.8.2-1.5.2-2.3.3.8-.1,1.5-.3,2.2-.5s1.5-.4,2.2-.7c1.4-.6,2.8-1.3,4-2.2s2.4-2.1,3.2-3.4c.4-.7.8-1.4,1.1-2.1.2-.4.3-.7.4-1.1.1-.4.2-.8.3-1.1h0l.4-10.6.5-10.6c.2-3.5.4-7.1.6-10.6.3-3.5.6-7,.9-10.6Z"/>
    <path class="cls-9" d="m171.69,144.5s9.8,9.9,31.9,10.7"/>
    <path class="cls-7" d="m205.89,65.5s22.5-2.1,26.7-2.4c4.2-.4,6.4.8,10.2,1.7,3.8.8,18.6,4.8,18.6,4.8"/>
    <line class="cls-7" x1="261.69" y1="70.6" x2="271.49" y2="75"/>
    <path class="cls-7" d="m190.79,69.5s1.3-9.1,6.8-9.4"/>
    <path class="cls-5" d="m195.49,58.2s2.3-5.6,6.6-5c4.4.7,37.2,2.8,37.2,2.8l35,12.2"/>
    <path class="cls-7" d="m275.19,69.2l9,3.2s.2,12.1-13.5,8.9"/>
    <path class="cls-7" d="m243.69,53.8c2.9-.7,38.4,14,38.4,14"/>
    <path class="cls-6" d="m281.89,68l10.4,3.4s-.6,11.3-10.9,11.1"/>
    <path d="m234.09,100.1s.2.1.5.3c.3.2.7.6,1.1,1,.4.5.9,1,1.3,1.6.4.6.9,1.3,1.3,2.1.4.7.8,1.5,1.1,2.2s.6,1.4.8,2c.4,1.2.6,2,.6,2,0,0-.5-.7-1.1-1.8-.3-.5-.6-1.2-1-1.8-.4-.7-.8-1.4-1.1-2.1-.4-.7-.8-1.4-1.1-2.1-.4-.7-.7-1.3-1-1.8-.9-1-1.4-1.6-1.4-1.6Z"/>
    <path d="m249.99,87.3s.4.4.9,1.1,1.2,1.7,1.7,2.7c.6,1,1.1,2.1,1.4,2.9.3.8.5,1.4.5,1.4,0,0-.4-.4-.9-1.1s-1.2-1.7-1.7-2.7c-.6-1-1.1-2.1-1.4-2.9-.3-.8-.5-1.4-.5-1.4Z"/>
    <path d="m234.59,63s.1.5.3,1.3c.1.8.3,1.8.4,2.9.1,1,.3,2.1.4,2.8.1.4.1.7.2.9,0,.2.1.4.1.4,0,0-.1-.1-.2-.3-.1-.2-.3-.5-.5-.8-.2-.4-.3-.8-.5-1.3-.1-.5-.2-1-.3-1.6-.1-1.1-.1-2.2,0-3,0-.8.1-1.3.1-1.3Z"/>
    <path class="cls-3" d="m237.49,64.5s-.4,5.1-.6,8.1"/>
    <path d="m261.49,71.9s.3.8.9,2,1.4,2.7,2.6,3.7c.3.3.6.5.9.7s.6.3.9.3c.5,0,1.1-.4,1.6-.8s.9-.8,1.2-1c.3-.2.5-.3.5-.3,0,0-.1.2-.3.5-.2.3-.5.8-.9,1.3-.2.3-.4.5-.8.8-.3.3-.7.5-1.2.5s-.9-.2-1.3-.4c-.4-.2-.7-.5-1.1-.8-1.3-1.2-2.1-3-2.4-4.3-.5-1.2-.6-2.2-.6-2.2Z"/>
    <path d="m272.79,70.6s.6.6,1.5,1.5c.4.4,1,1,1.5,1.5.6.5,1.2,1,1.9,1.4.3.2.7.3,1,.3s.6,0,.9-.2c.7-.4,1.3-.8,1.8-1.1,1.1-.6,1.9-.9,1.9-.9,0,0-.6.6-1.6,1.4-.5.4-1.1.9-1.7,1.3-.4.3-.9.5-1.4.4-.5,0-.9-.2-1.3-.4-.8-.4-1.4-1-2-1.6s-1-1.2-1.4-1.8c-.8-.9-1.1-1.8-1.1-1.8Z"/>
    <path class="cls-3" d="m286.29,74c1.5.2,2.7-2.4,3.9-3.3"/>
    <path d="m206.49,85.5s.5.2,1.2.4c.7.3,1.6.6,2.5,1s1.8.8,2.4,1c.3.2.6.3.8.4s.3.2.3.2c0,0-.5.1-1.2,0s-1.7-.3-2.7-.7c-.9-.4-1.8-.9-2.4-1.4-.6-.4-.9-.9-.9-.9Z"/>
    <path class="cls-4" d="m216.89,52.6c12-.5,30.3,1.7,30.3,1.7"/>
  </g>
</svg>