<?xml version="1.0" encoding="UTF-8"?>
<svg id="Lager_1" data-name="Lager 1" xmlns="http://www.w3.org/2000/svg" xmlns:xlink="http://www.w3.org/1999/xlink" viewBox="0 0 370.8 296.27">
  <defs>
    <style>
      .cls-1 {
        fill: url(#linear-gradient-2);
      }

      .cls-2 {
        fill: #fff;
      }

      .cls-3, .cls-4, .cls-5, .cls-6, .cls-7 {
        stroke-linecap: round;
      }

      .cls-3, .cls-4, .cls-5, .cls-6, .cls-7, .cls-8, .cls-9 {
        fill: none;
        stroke: #000;
      }

      .cls-4 {
        stroke-width: 1.4px;
      }

      .cls-5 {
        stroke-linejoin: bevel;
      }

      .cls-5, .cls-6 {
        stroke-width: 1.5px;
      }

      .cls-7, .cls-8 {
        stroke-width: 2px;
      }

      .cls-10 {
        fill: url(#linear-gradient-3);
      }

      .cls-11 {
        fill: url(#linear-gradient);
      }
    </style>
    <linearGradient id="linear-gradient" x1="23.84" y1="-534.98" x2="30.57" y2="-524.98" gradientTransform="translate(0 -317.76) scale(1 -1)" gradientUnits="userSpaceOnUse">
      <stop offset="0" stop-color="#fff"/>
      <stop offset="1" stop-color="#ededed"/>
    </linearGradient>
    <linearGradient id="linear-gradient-2" x1="170.87" y1="1178.72" x2="180.03" y2="1156.61" gradientTransform="translate(0 -964.66)" gradientUnits="userSpaceOnUse">
      <stop offset="0" stop-color="#fff"/>
      <stop offset="1" stop-color="#ededed"/>
    </linearGradient>
    <linearGradient id="linear-gradient-3" x1="-64.34" y1="-745.85" x2="-55.85" y2="-733.26" gradientTransform="translate(68.63 -462.11) rotate(-24.71) scale(1 -1)" gradientUnits="userSpaceOnUse">
      <stop offset="0" stop-color="#fff"/>
      <stop offset="1" stop-color="#ededed"/>
    </linearGradient>
  </defs>
  <rect class="cls-2" y="34.73" width="369.5" height="226.8"/>
  <g>
    <g id="Färg">
      <polygon class="cls-11" points="41.6 233.83 55.8 211.83 60.3 206.23 52.2 203.13 38.6 194.53 30.6 185.33 26.4 180.13 2.1 206.33 41.6 233.83"/>
    </g>
    <path class="cls-7" d="m10,200.63l29.5-36.8s19.1-37.4,23.2-43.5,19.4-29.5,20.8-30.7,23.8-.6,25.1-.6,10.9,6.1,12.3,6.1"/>
    <path class="cls-7" d="m67.9,119.73l15.3-12.2c1-.8,2.9-1.5,4.2-1.5l14.2.2c1.3,0,3.2.7,4.2,1.6l2.2,1.8"/>
    <line class="cls-7" x1="107.4" y1="109.13" x2="115.8" y2="112.13"/>
    <path d="m75.8,127.73c1.1-.5,2.2-1.2,3.2-2,.3-.2.5-.4.7-.6s.5-.4.7-.6c.5-.4.9-.9,1.4-1.3.2-.2.4-.5.6-.7s.4-.5.6-.7c.4-.5.8-1,1.2-1.5.4-.5.7-1.1,1.1-1.6.2-.3.3-.6.5-.8l.5-.8.4-.7.7.4c.2.1.4.2.6.3.2.1.5.2.7.3.5.2,1,.3,1.5.4,1,.2,2,.2,3,0,2-.3,3.9-1.3,5.6-2.6l.5-.4.5.4c.3.2.7.5,1,.7.4.2.7.4,1.1.6.7.4,1.5.7,2.3,1s1.6.5,2.4.6c.4.1.8.1,1.2.1s.8,0,1.2-.1c.4-.1.8-.1,1.2-.2.4-.1.8-.3,1.1-.4.4-.2.7-.4,1.1-.6s.7-.5,1-.7c.7-.5,1.3-1.2,1.9-1.9.3-.3.5-.7.8-1.1l.8-1.1-.6,1.3c-.2.4-.4.8-.7,1.2-.5.8-1.1,1.5-1.7,2.2-.3.3-.7.7-1,.9-.4.3-.7.5-1.1.8-.4.2-.8.4-1.2.6-.4.2-.9.3-1.3.4-1.8.4-3.6.3-5.4-.3-.9-.3-1.7-.6-2.5-1-.4-.2-.8-.4-1.2-.7-.4-.2-.8-.5-1.2-.8h1c-.9.8-1.9,1.4-3,1.9s-2.2.9-3.4,1c-1.2.2-2.4.1-3.5-.1-.6-.1-1.1-.3-1.7-.5-.3-.1-.6-.2-.8-.4-.3-.1-.5-.3-.8-.5l1.1-.3c-.4.6-.7,1.2-1.1,1.7s-.8,1.1-1.2,1.6c-.4.5-.9,1-1.3,1.5l-.7.7-.7.7c-.5.4-1,.8-1.6,1.2-.3.2-.5.4-.8.5-.3.2-.6.3-.8.5-.6.3-1.1.6-1.7.8-1,.3-1.6.5-2.2.7Z"/>
    <path class="cls-7" d="m93,85.93l4-3.2c1.1-.9,3.2-1.4,4.6-1.1l20.9,4.4c1.4.3,3.1,1.6,3.8,3l4.4,8.2"/>
    <line class="cls-7" x1="120.2" y1="96.13" x2="129.6" y2="99.63"/>
    <line class="cls-7" x1="129.3" y1="94.63" x2="138.1" y2="102.73"/>
    <path d="m96.6,102.23c.6.5,1.2.7,1.9.9.7.2,1.3.4,2,.5.3.1.7.1,1,.1s.7.1,1,.1h2c.3,0,.7,0,1-.1l1-.1c.7-.1,1.3-.1,2-.2s1.3-.2,2-.3l2-.4.3-.1.3.2c.3.2.7.4,1.1.5.4.2.7.3,1.1.5.8.3,1.5.5,2.3.7s1.6.3,2.4.4,1.6.1,2.4,0c1.6-.2,3.1-.7,4.4-1.7.3-.2.7-.5,1-.8.3-.3.6-.6.9-.9s.6-.7.8-1c.3-.3.5-.7.8-1.1-.2.4-.3.9-.5,1.3s-.4.8-.7,1.2c-.2.4-.5.8-.8,1.1-.3.3-.6.7-.9,1s-.7.6-1.1.9c-.4.2-.8.5-1.2.7-.4.2-.8.4-1.2.5-.4.1-.9.3-1.3.3-.4.1-.9.2-1.3.2h-1.3c-.9,0-1.8-.1-2.6-.3-.9-.2-1.7-.4-2.5-.7-.4-.2-.8-.3-1.2-.5-.4-.2-.8-.4-1.2-.6l.6.1-2.1.3c-.3.1-.7.1-1,.1l-1,.1c-.7.1-1.4.1-2.1.1s-1.4,0-2.1-.1-1.4-.1-2.1-.3c-.3-.1-.7-.1-1-.2s-.7-.2-1-.3c-.7-.2-1.3-.5-2-.9-1-.1-1.6-.6-2.1-1.2Z"/>
    <path d="m99.8,102.83s0,.3-.2.7c-.2.4-.5.9-.9,1.2-.4.4-.9.6-1.2.7-.4.1-.7.1-.7.1,0,0,.1-.3.4-.6.2-.3.6-.7.9-1,.4-.3.7-.6,1.1-.8.4-.2.6-.3.6-.3Z"/>
    <path d="m125.4,106.53s.9.1,2.2.1h2.1c.4,0,.8-.1,1.2-.1.4-.1.8-.1,1.2-.2s.8-.2,1.2-.3c.2-.1.4-.1.6-.2.2-.1.4-.1.5-.2.4-.1.7-.3,1-.5.2-.1.3-.2.5-.2.1-.1.3-.2.4-.3.3-.2.5-.3.8-.5.2-.2.4-.3.6-.4.3-.2.5-.4.5-.4,0,0-.1.2-.3.6-.1.2-.2.4-.4.7-.2.3-.4.5-.6.8-.1.1-.2.3-.4.5-.1.1-.3.3-.5.4-.3.3-.7.6-1.1.8s-.8.5-1.3.6c-.4.2-.9.3-1.4.4s-.9.1-1.4.2c-.5,0-.9,0-1.4-.1-.9-.1-1.7-.4-2.3-.6-1-.4-1.7-1.1-1.7-1.1Z"/>
    <path d="m101.4,119.73s.1.1.1.3c.1.2.1.5.1.9s0,.8-.1,1.2c-.1.4-.2.9-.4,1.3-.2.4-.4.8-.6,1.2-.2.4-.5.7-.7.9-.4.5-.8.8-.8.8,0,0,.1-.5.4-1.1.2-.6.6-1.4.9-2.2.2-.4.3-.8.5-1.2.1-.4.3-.7.4-1,.1-.6.2-1.1.2-1.1Z"/>
    <path class="cls-7" d="m98.8,121.23s2.7,26.2,3.2,31,6.8,7.6,8.5,7.9c1.6.3,8.9.4,8.9.4,0,0,18-12.6,23.4.5"/>
    <path class="cls-7" d="m43,231.93l24.4-36.2s23.4-2.7,32.9-10.4c11.5-9.3,11.5-6.6,20.4-7.1,4.2-.2,9.8-.1,13.4-5.9,3.6-5.8,2.9-5.2,2.9-5.2"/>
    <line class="cls-7" x1="142.8" y1="161.03" x2="134.8" y2="167.73"/>
    <path d="m86.2,123.63c0,.9,0,1.9-.1,2.8s-.3,1.9-.5,2.8c-.1.5-.2.9-.4,1.4l-.4,1.3-.5,1.3c-.2.4-.4.8-.6,1.3-.2.4-.4.8-.7,1.2-.3.4-.5.8-.8,1.2l-.8,1.1c-.3.4-.6.7-.9,1s-.6.7-1,1l-1,.9c-.3.3-.7.6-1.1.8l-1.1.8.4-.7c0,2.2-.1,4.4-.3,6.5-.2,2.2-.4,4.3-.6,6.5-.1,1.1-.3,2.2-.5,3.2-.2,1.1-.3,2.1-.6,3.2-.4,2.1-.9,4.3-1.4,6.3-.3,1-.6,2.1-.9,3.1s-.7,2.1-1.1,3.1-.8,2-1.3,3l-.7,1.4-.8,1.4c-.6.9-1.1,1.8-1.7,2.7-.3.4-.6.8-1,1.2-.3.4-.7.8-1.1,1.1-.7.7-1.5,1.4-2.4,2-.4.3-.9.5-1.3.8l-1.4.6,1.3-.8c.4-.3.8-.6,1.2-.9.8-.7,1.5-1.4,2.1-2.2.3-.4.6-.8.9-1.2s.6-.8.8-1.3c.6-.9,1-1.8,1.5-2.7l.7-1.4.6-1.4c.4-1,.8-1.9,1.1-2.9.7-2,1.3-4,1.7-6.1.3-1,.5-2.1.7-3.1s.4-2.1.6-3.1c.4-2.1.7-4.2,1-6.3.3-2.1.5-4.2.7-6.4.2-2.1.4-4.3.4-6.4v-.5l.4-.3,1-.7c.3-.2.7-.4,1-.7l1-.8c.3-.2.6-.6.9-.9l.9-.9.8-1c.3-.3.5-.7.8-1.1s.5-.7.7-1.1.5-.8.7-1.2l.6-1.2.5-1.2c.2-.4.3-.9.5-1.3.3-.9.5-1.8.7-2.7.6-.6.7-1.5.8-2.5Z"/>
    <path d="m119.5,159.83s0,.7.1,1.6c0,.5.1,1,.2,1.6s.2,1.2.3,1.8c.1.3.1.6.2.9.1.3.1.6.2.9.2.6.4,1.1.5,1.5l.3.6c.1.2.2.3.2.4.1.3.2.4.2.4,0,0-.1-.1-.3-.3-.2-.2-.5-.5-.8-.9-.2-.2-.3-.4-.4-.7-.1-.2-.3-.5-.4-.8-.3-.6-.5-1.2-.6-1.9s-.2-1.3-.2-2c0-.6,0-1.2.1-1.7.1-.8.4-1.4.4-1.4Z"/>
    <path class="cls-9" d="m28.1,181.23s5,12.2,28.4,24.3"/>
    <path d="m113.2,114.83s-.5.1-1.2.1c-.4,0-.8-.1-1.2-.2-.4-.1-.9-.3-1.3-.6-.2-.1-.4-.3-.6-.4-.2-.2-.4-.3-.5-.5-.3-.4-.6-.8-.7-1.2-.1-.2-.1-.4-.1-.6v-.4c0-.2.1-.4.1-.4,0,0,0,.1.1.3.1.2.2.5.4.8.2.3.4.6.7.8.2.1.3.3.5.4s.4.2.5.4c.4.2.8.4,1.1.6.4.2.7.3,1.1.5.6.2,1.1.4,1.1.4Z"/>
    <path d="m119.6,96.93s.1.2.1.5c.1.3.3.7.6,1.1.3.4.7.8,1.2,1.3.5.4,1,.8,1.6,1.2.3.2.6.4.9.5.3.2.6.3.9.5.3.1.6.3.8.4.1,0,.4,0,.6-.1.4-.2.7-.6,1-.8.2-.2.3-.4.3-.4,0,0-.1.2-.2.5-.2.3-.4.7-.8,1.1-.2.2-.5.4-1,.4-.4-.1-.6-.2-1-.3-.6-.2-1.3-.6-1.9-1-1.2-.8-2.3-1.9-2.8-3-.1-.3-.2-.5-.3-.8-.1-.2-.1-.5-.1-.6,0-.3.1-.5.1-.5Z"/>
    <path d="m132.9,105.33s-.3,0-.8-.2-1-.6-1.5-1.1-.8-1.1-1-1.6-.2-.9-.2-.9c0,0,.3.2.7.5s.8.8,1.2,1.2c.4.5.8.9,1.1,1.3.3.6.5.8.5.8Z"/>
  </g>
  <g>
    <polygon class="cls-1" points="193 220.93 204.9 183.63 186.1 180.93 165.9 170.53 166.3 172.23 159.1 186.23 148.3 208.23 193 220.93"/>
    <line class="cls-7" x1="192.2" y1="222.93" x2="209.3" y2="169.53"/>
    <path class="cls-7" d="m204.4,173.53s20.7-5.6,40.2-33.9"/>
    <path class="cls-8" d="m243.5,141.33s9.3-16.3,25.6-22.5c8.3-3.1,5.6-8.1,5.6-8.1"/>
    <path class="cls-7" d="m150.9,202.43s19.1-41.2,22.9-48c3.8-6.8,11.4-40.3,13.5-47.4s2.5-7.5,6.9-10"/>
    <path class="cls-8" d="m226.3,113.43s-1.8,7.1,1.4,8.9,5.3,1.7,10.1-2.7c4.8-4.4,7.2-6.5,7.2-6.5"/>
    <path d="m208.4,109.93c.8.4,1.6.6,2.4.9.8.2,1.7.4,2.5.5.4.1.8.1,1.3.2.4,0,.8.1,1.3.1h2.6c.4,0,.8-.1,1.2-.1s.8-.1,1.2-.1l1.2-.2,1.2-.3c.8-.1,1.6-.4,2.4-.7.4-.1.8-.3,1.2-.4l1.2-.4.3-.1.3.1c.7.2,1.4.4,2.2.5.7.1,1.5.3,2.2.4,1.5.2,3,.4,4.4.4,2.9.1,5.9-.1,8.6-1.2l.3-.1.3.1c1,.4,2.1.7,3.2,1,1.1.3,2.2.6,3.3.8,2.2.4,4.4.8,6.5.6,1.1-.1,2.1-.3,3-.8.4-.3,1-.6,1.4-.9s.9-.7,1.3-1.1.8-.8,1.2-1.3c.4-.5.7-1,1-1.5.6-1.1,1.1-2.2,1.3-3.4-.2,2.5-1.3,5-2.9,6.9-.4.5-.8.9-1.3,1.3-.5.5-.9.8-1.4,1.1-1.1.7-2.3,1-3.5,1.2s-2.4.2-3.5.2c-1.2-.1-2.3-.2-3.5-.4-1.1-.2-2.3-.4-3.4-.7-1.1-.3-2.2-.6-3.4-.9h.7c-1.5.6-3.1,1-4.7,1.2-1.6.2-3.2.2-4.7.2-1.6-.1-3.1-.3-4.7-.5-.8-.1-1.5-.3-2.3-.5s-1.5-.4-2.3-.6h.6l-1.3.4c-.4.1-.8.3-1.3.4-.9.2-1.7.4-2.6.5l-1.3.2-1.3.1h-2.6l-1.3-.1c-.4,0-.9-.1-1.3-.2-.4-.1-.9-.2-1.3-.3-.4-.1-.8-.2-1.3-.3-.8-.2-1.7-.6-2.5-.9-.6-.3-1.4-.8-2.1-1.3Z"/>
    <path d="m213.8,110.53s.1.5,0,1.3c-.1.4-.2.8-.3,1.3-.2.4-.4.9-.7,1.3s-.6.8-.9,1.1c-.3.3-.6.6-1,.8-.3.2-.6.3-.7.4-.2.1-.3.1-.3.1,0,0,.1-.1.2-.3.1-.2.3-.4.5-.7.2-.3.5-.6.7-.9s.5-.7.7-1.1.5-.8.7-1.1c.2-.4.4-.7.5-1l.6-1.2Z"/>
    <path d="m210.5,118.23c0,3.6-.1,7.1-.2,10.6-.1,3.5-.2,7.1-.4,10.6l-.4,10.6-.5,10.6h0c-.1.5-.2.9-.3,1.3s-.3.8-.5,1.2c-.4.8-.8,1.5-1.3,2.2-1,1.4-2.1,2.5-3.5,3.4-1.3.9-2.7,1.6-4.2,2.1-.7.2-1.5.4-2.2.6-.7.2-1.5.2-2.3.3.7-.1,1.5-.3,2.2-.5s1.5-.4,2.2-.7c1.4-.6,2.8-1.3,4-2.2s2.3-2.1,3.2-3.4c.4-.7.8-1.4,1.1-2.1.2-.4.3-.7.4-1.1.1-.4.2-.8.3-1.1h0l.4-10.6.5-10.6c.2-3.5.4-7.1.6-10.6.4-3.5.6-7,.9-10.6Z"/>
    <path class="cls-9" d="m170,172.63s9.7,9.9,31.5,10.7"/>
    <path class="cls-7" d="m203.8,93.63s22.2-2.1,26.4-2.4,6.3.8,10.1,1.7,18.4,4.8,18.4,4.8"/>
    <line class="cls-7" x1="259" y1="98.73" x2="268.7" y2="103.13"/>
    <path class="cls-7" d="m188.8,97.63s1.3-9.1,6.7-9.4"/>
    <path class="cls-5" d="m193.5,86.33s2.2-5.6,6.5-5c4.3.7,36.8,2.8,36.8,2.8l34.6,12.2"/>
    <path class="cls-7" d="m272.3,97.33l8.9,3.2s.2,12.1-13.3,8.9"/>
    <path class="cls-7" d="m241.2,81.93c2.9-.7,38,14,38,14"/>
    <path class="cls-6" d="m278.9,96.13l10.3,3.4s-.6,11.3-10.7,11.1"/>
    <path d="m231.7,128.23s.2.1.4.3c.3.2.6.6,1,1,.4.5.9,1,1.3,1.6.4.6.9,1.3,1.3,2.1.4.7.8,1.5,1.1,2.2s.6,1.4.8,2c.4,1.2.6,2,.6,2,0,0-.5-.7-1-1.8-.3-.5-.6-1.2-1-1.8-.4-.7-.7-1.4-1.1-2.1-.4-.7-.8-1.4-1.1-2.1-.4-.7-.7-1.3-1-1.8-.9-1-1.3-1.6-1.3-1.6Z"/>
    <path d="m247.4,115.43s.4.4.9,1.1,1.1,1.7,1.7,2.7c.6,1,1.1,2.1,1.4,2.9.3.8.5,1.4.5,1.4,0,0-.4-.4-.9-1.1s-1.1-1.7-1.7-2.7c-.6-1-1.1-2.1-1.4-2.9-.3-.8-.5-1.4-.5-1.4Z"/>
    <path d="m232.2,91.13s.1.5.3,1.3c.1.8.3,1.8.4,2.9.1,1,.3,2.1.4,2.8.1.4.1.7.2.9,0,.2.1.4.1.4,0,0-.1-.1-.2-.3-.1-.2-.3-.5-.5-.8-.2-.4-.3-.8-.5-1.3-.1-.5-.2-1-.3-1.6-.1-1.1-.1-2.2,0-3-.1-.8.1-1.3.1-1.3Z"/>
    <path class="cls-3" d="m235,92.63s-.3,5.1-.6,8.1"/>
    <path d="m258.8,100.03s.3.8.8,2,1.4,2.7,2.5,3.7c.3.3.6.5.9.7s.6.3.9.3c.5,0,1.1-.4,1.6-.8s.9-.8,1.2-1c.3-.2.5-.3.5-.3,0,0-.1.2-.3.5-.2.3-.5.8-.9,1.3-.2.3-.4.5-.7.8-.3.3-.7.5-1.2.5s-.9-.2-1.3-.4c-.4-.2-.7-.5-1.1-.8-1.3-1.2-2-3-2.4-4.3-.5-1.2-.5-2.2-.5-2.2Z"/>
    <path d="m269.9,98.73s.6.6,1.5,1.5c.4.4,1,1,1.5,1.5.6.5,1.2,1,1.9,1.4.3.2.7.3,1,.3s.6,0,.9-.2c.7-.4,1.3-.8,1.8-1.1,1.1-.6,1.8-.9,1.8-.9,0,0-.6.6-1.6,1.4-.5.4-1,.9-1.7,1.3-.3.3-.9.5-1.3.4-.5,0-.9-.2-1.3-.4-.8-.4-1.4-1-2-1.6s-1-1.2-1.4-1.8c-.8-.9-1.1-1.8-1.1-1.8Z"/>
    <path class="cls-3" d="m283.3,102.13c1.5.2,2.7-2.4,3.9-3.3"/>
    <path d="m204.4,113.63s.5.2,1.1.4c.7.3,1.5.6,2.4,1s1.8.8,2.4,1c.3.2.6.3.8.4s.3.2.3.2c0,0-.5.1-1.2,0s-1.7-.3-2.6-.7c-.9-.4-1.8-.9-2.4-1.4-.5-.4-.8-.9-.8-.9Z"/>
    <path class="cls-4" d="m214.7,80.73c11.9-.5,29.9,1.7,29.9,1.7"/>
  </g>
  <g>
    <g id="Färg-2" data-name="Färg">
      <polygon class="cls-10" points="345.8 243.53 344.2 221.03 345 204.93 341.5 206.83 328.5 208.23 317.5 206.93 306.7 203.63 297.9 243.33 345.8 243.53"/>
    </g>
    <path d="m305.1,50.73c1.1-.6,2.3-1.1,3.6-1.3,1.3-.2,2.6-.1,3.8.3,1.3.4,2.4,1.3,3.3,2.4s1.6,2.4,2.1,3.7c1,2.7,1.3,5.6,1.4,8.4s0,5.6-.3,8.4l-.2-.8c.3.5.4.9.6,1.3.2.4.4.9.5,1.3.3.9.6,1.8.9,2.7.5,1.9.8,3.8,1,5.7s.2,3.9.1,5.8c-.2,1.9-.5,3.8-.9,5.7v-.6c.5,2.1.9,4.2,1.2,6.3.2,1.1.3,2.1.4,3.2s.2,2.1.3,3.2c.1,1.1.2,2.1.2,3.2v3.2c0,.5,0,1.1-.1,1.6,0,.5-.1,1.1-.1,1.6-.1.5-.1,1.1-.2,1.6l-.3,1.6.1-1.6v-1.6c0-1.1-.1-2.1-.1-3.2l-.1-1.6c0-.5-.1-1-.2-1.6-.1-1-.3-2.1-.4-3.1-.3-2.1-.7-4.1-1.1-6.2-.2-1-.4-2.1-.7-3.1-.2-1-.5-2-.8-3l-.1-.3.1-.3c.4-1.7.6-3.5.7-5.3s.1-3.6-.1-5.3c-.2-1.8-.5-3.5-1-5.2-.2-.9-.5-1.7-.8-2.5-.1-.4-.3-.8-.5-1.2s-.4-.8-.5-1.1l-.2-.4v-.4c.1-1.3.3-2.7.3-4,.1-1.3.1-2.7.1-4,0-2.7-.2-5.3-1-7.8-.4-1.2-.9-2.4-1.6-3.4s-1.6-1.8-2.7-2.3-2.2-.7-3.4-.7c-.9.1-2.1.3-3.3.7Z"/>
    <path class="cls-9" d="m309.6,204.23s9.9,7.5,32.6,2.4"/>
    <path d="m307.2,51.43s.2,0,.6.1.9.2,1.6.5c.3.2.7.4,1,.7.3.3.6.7.8,1.3.1.3.1.6.1.9,0,.2,0,.5-.1.7-.1.5-.1,1-.2,1.5-.4,2-1.2,3.9-2.2,5-.5.6-1.1.8-1.5.9-.2.1-.4.1-.5.1h-.2s.2,0,.6-.2c.3-.2.8-.5,1.1-1.1.8-1.1,1.3-3,1.7-4.9.1-.5.2-.9.2-1.4,0-.2.1-.5.1-.7v-.5c-.1-.7-.7-1.3-1.2-1.7-.5-.4-1-.7-1.4-.9-.3-.2-.5-.3-.5-.3Z"/>
    <path class="cls-7" d="m306.2,112.33c.2-1.7,1.1-29.3,1.1-29.3l-1.4-20"/>
    <path class="cls-7" d="m313.9,126.53s18.1-10.2,22.8-12.8c4.7-2.6,13.4,7.8,17,12.1,3.5,4.2,4.3,9.1,3.2,11.7"/>
    <path class="cls-7" d="m317.2,135.93s24.1-6.7,27.3-6.5c3.1.2,13.1,10.5,15.3,14.4,2.2,3.8-1.6,10.3-1.6,10.3"/>
    <line class="cls-7" x1="358.3" y1="153.53" x2="355.3" y2="163.13"/>
    <path class="cls-7" d="m354.3,109.33s3.3-9.3,13.3-5.3"/>
    <line class="cls-7" x1="367.8" y1="104.43" x2="365.3" y2="116.03"/>
    <path class="cls-7" d="m365.1,112.13s2.5,10.3,1.3,13.7c-1.2,3.4-5.5,14.5-5.5,14.5"/>
    <path class="cls-7" d="m354.6,165.73s-1.5,13.1-10,25.2l1.5,48.8"/>
    <line class="cls-7" x1="306.8" y1="62.23" x2="305.8" y2="51.33"/>
    <path d="m336.3,148.03c.5.2,1,.3,1.4.4.5.1,1,.2,1.4.2h1.4c.5,0,.9-.1,1.4-.1.2,0,.5-.1.7-.1s.5-.1.7-.2l.7-.2.7-.3c.4-.1.9-.4,1.3-.6.2-.1.4-.2.6-.4l.6-.4,1.3-.8v2.5c0,.3.1.6.1.9.1.6.3,1.1.5,1.6s.6.8.9,1c.4.2.9.3,1.4.3l2-.1-1.3,1.5c-.1.2-.3.4-.4.6s-.3.5-.4.7c-.2.5-.4,1-.6,1.5-.2,1-.1,2.2.3,3.2.5,1,1.2,1.9,2,2.7.4.4.9.7,1.3,1.1.5.3.9.7,1.4,1-.5-.2-1.1-.4-1.6-.6s-1-.5-1.5-.9c-1-.7-1.9-1.5-2.6-2.6-.3-.6-.6-1.2-.7-1.9-.1-.7-.1-1.4,0-2.1s.3-1.4.6-2c.1-.3.3-.6.4-.9.2-.3.3-.6.6-.9l.6,1.5c-.7.1-1.5.1-2.2-.3-.7-.3-1.3-1-1.7-1.7-.4-.7-.6-1.5-.8-2.2-.1-.4-.1-.8-.1-1.1v-1.2l1.3.9-.7.4c-.2.1-.5.3-.7.4-.5.2-1,.4-1.5.6-.3.1-.5.2-.8.2l-.8.1c-.3.1-.5.1-.8.1s-.5.1-.8,0c-.5,0-1,0-1.5-.1s-1-.2-1.5-.3c-.8-.3-1.8-.8-2.6-1.4Z"/>
    <path d="m340.4,147.93s.2,0,.4.2c.3.1.6.4,1,.7.2.2.4.4.6.7.2.2.4.6.5.9s.3.7.4,1.1.1.8.2,1.2c0,.4,0,.8-.1,1.2-.1.4-.2.7-.3,1.1-.1.3-.3.6-.4.9-.2.3-.4.5-.5.7-.3.4-.7.7-.9.9-.2.2-.4.3-.4.3,0,0,0-.2.1-.5s.2-.7.3-1.2c.1-.2.1-.5.2-.8,0-.3.1-.5.2-.8,0-.3.1-.6.1-.8v-.8c0-.6-.1-1.1-.2-1.7-.1-.3-.1-.5-.2-.8s-.2-.5-.2-.7c-.2-.4-.3-.8-.5-1.1-.3-.5-.3-.7-.3-.7Z"/>
    <path d="m341.7,154.63s.1.1.3.3c.2.2.4.5.6.9.5.8,1.2,2.1,1.8,3.6.6,1.6,1.3,3.4,1.8,5.5s.9,4.4,1,6.7c.1,1.2.1,2.3,0,3.4,0,1.1-.2,2.2-.3,3.3-.1.5-.2,1.1-.3,1.6-.1.5-.3,1-.4,1.5-.3.9-.6,1.8-.9,2.6s-.7,1.5-1,2.1-.6,1.1-.9,1.5c-.5.8-.8,1.3-.8,1.3,0,0,.2-.5.6-1.4.2-.4.4-1,.7-1.6.2-.6.5-1.3.7-2.1.3-.8.5-1.7.7-2.6.2-.9.4-1.9.5-2.9s.2-2.1.2-3.2v-3.3c-.2-4.4-1.3-8.8-2.3-12-.5-1.6-1-2.9-1.4-3.8-.2-.4-.4-.8-.5-1,0-.3-.1-.4-.1-.4Z"/>
    <polyline class="cls-2" points="318.9 106.03 324.8 101.83 326.2 117.03 323.4 119.13 317.9 119.43"/>
    <path class="cls-7" d="m299,238.33s8.3-36.8,8.3-43.1-10.1-62.2-9.5-67.1c.5-4.9,16.1-16.1,21.7-20.1s14.5-9.9,18.1-7.5c3.6,2.3,16.8,11.4,17.9,15.2,1.1,3.8,1.3,12,1.3,12"/>
  </g>
</svg>