<?xml version="1.0" encoding="UTF-8"?>
<svg id="Lager_1" data-name="Lager 1" xmlns="http://www.w3.org/2000/svg" xmlns:xlink="http://www.w3.org/1999/xlink" viewBox="0 0 362.8 289.88">
  <defs>
    <style>
      .cls-1 {
        fill: url(#linear-gradient-2);
      }

      .cls-2 {
        fill: #fff;
      }

      .cls-3, .cls-4 {
        stroke-linecap: round;
      }

      .cls-3, .cls-4, .cls-5 {
        fill: none;
        stroke: #000;
      }

      .cls-4 {
        stroke-width: 2px;
      }

      .cls-6 {
        fill: url(#linear-gradient-3);
      }

      .cls-7 {
        fill: url(#linear-gradient);
      }
    </style>
    <linearGradient id="linear-gradient" x1="24.79" y1="-538.98" x2="31.67" y2="-528.76" gradientTransform="translate(0 -324.15) scale(1 -1)" gradientUnits="userSpaceOnUse">
      <stop offset="0" stop-color="#fff"/>
      <stop offset="1" stop-color="#ededed"/>
    </linearGradient>
    <linearGradient id="linear-gradient-2" x1="179.06" y1="1202.75" x2="189.06" y2="1178.6" gradientTransform="translate(0 -964.66)" gradientUnits="userSpaceOnUse">
      <stop offset="0" stop-color="#fff"/>
      <stop offset="1" stop-color="#ededed"/>
    </linearGradient>
    <linearGradient id="linear-gradient-3" x1="-76.61" y1="-745.61" x2="-67.97" y2="-732.78" gradientTransform="translate(66.93 -469.88) rotate(-24.71) scale(1 -1)" gradientUnits="userSpaceOnUse">
      <stop offset="0" stop-color="#fff"/>
      <stop offset="1" stop-color="#ededed"/>
    </linearGradient>
  </defs>
  <rect class="cls-2" y="31.54" width="361" height="226.8"/>
  <g id="Färg">
    <polygon class="cls-7" points="44.3 230.64 60.1 208.64 65.1 203.04 56.1 199.94 40.9 191.34 32.1 182.14 27.4 176.94 .3 203.14 44.3 230.64"/>
  </g>
  <path class="cls-4" d="m9.1,197.44l32.9-36.8s21.3-37.4,25.8-43.5c4.5-6.1,21.6-29.5,23.1-30.7s26.4-.6,28-.6,12.2,6.1,13.7,6.1"/>
  <path class="cls-4" d="m73.6,116.54l17-12.2c1.2-.8,3.3-1.5,4.7-1.5l15.8.2c1.4,0,3.5.7,4.7,1.6l2.5,1.8"/>
  <line class="cls-4" x1="117.6" y1="105.94" x2="126.9" y2="108.94"/>
  <path d="m82.4,124.54c1.3-.5,2.4-1.2,3.6-2,.3-.2.6-.4.8-.6.3-.2.5-.4.8-.6.5-.4,1-.9,1.5-1.3.3-.2.5-.5.7-.7l.7-.7c.5-.5.9-1,1.3-1.5s.8-1.1,1.2-1.6c.2-.3.4-.6.5-.8l.5-.8.4-.7.8.4c.2.1.5.2.7.3.3.1.5.2.8.3.5.2,1.1.3,1.6.4,1.1.2,2.2.2,3.3,0,2.2-.3,4.3-1.3,6.2-2.6l.6-.4.6.4c.3.2.7.5,1.1.7s.8.4,1.2.6c.8.4,1.7.7,2.5,1,.9.3,1.7.5,2.6.6.4.1.9.1,1.3.1s.9,0,1.3-.1.9-.1,1.3-.2.9-.3,1.3-.4c.4-.2.8-.4,1.2-.6.4-.2.8-.5,1.2-.7.7-.5,1.4-1.2,2.1-1.9.3-.3.6-.7.9-1.1l.9-1.1-.6,1.3c-.2.4-.5.8-.8,1.2-.5.8-1.2,1.5-1.9,2.2-.4.3-.7.7-1.1.9-.4.3-.8.5-1.3.8-.4.2-.9.4-1.4.6s-1,.3-1.5.4c-2,.4-4.1.3-6-.3-1-.3-1.9-.6-2.8-1-.5-.2-.9-.4-1.3-.7-.4-.2-.9-.5-1.3-.8h1.1c-1,.8-2.1,1.4-3.3,1.9-1.2.5-2.5.9-3.8,1-1.3.2-2.6.1-3.9-.1-.6-.1-1.3-.3-1.9-.5-.3-.1-.6-.2-.9-.4-.3-.1-.6-.3-.9-.5l1.2-.3c-.4.6-.8,1.2-1.2,1.7-.5.5-.9,1.1-1.4,1.6l-1.5,1.5c-.3.2-.5.5-.8.7s-.5.5-.8.7c-.6.4-1.1.8-1.7,1.2-.3.2-.6.4-.9.5-.3.2-.6.3-.9.5-.6.3-1.3.6-1.9.8-.7.3-1.3.5-2,.7Z"/>
  <path class="cls-4" d="m101.6,82.74l4.4-3.2c1.3-.9,3.5-1.4,5.1-1.1l23.3,4.4c1.5.3,3.4,1.6,4.2,3l4.9,8.2"/>
  <line class="cls-4" x1="131.8" y1="92.94" x2="142.3" y2="96.44"/>
  <line class="cls-4" x1="141.9" y1="91.44" x2="151.7" y2="99.54"/>
  <path d="m105.6,99.04c.6.5,1.4.7,2.1.9.7.2,1.4.4,2.2.5.4.1.7.1,1.1.1s.7.1,1.1.1h2.2c.4,0,.7,0,1.1-.1l1.1-.1c.7-.1,1.5-.1,2.2-.2s1.5-.2,2.2-.3l2.2-.4.3-.1.3.2c.4.2.8.4,1.2.5.4.2.8.3,1.2.5.8.3,1.7.5,2.6.7.9.2,1.7.3,2.6.4.9.1,1.8.1,2.6,0,1.7-.2,3.5-.7,4.9-1.7.4-.2.7-.5,1.1-.8.3-.3.7-.6,1-.9s.6-.7.9-1c.3-.3.6-.7.8-1.1-.2.4-.4.9-.6,1.3-.2.4-.5.8-.7,1.2-.3.4-.6.8-.9,1.1l-1,1c-.4.3-.8.6-1.2.9-.4.2-.8.5-1.3.7-.4.2-.9.4-1.4.5s-1,.3-1.4.3c-.5.1-1,.2-1.5.2h-1.5c-1,0-1.9-.1-2.9-.3-1-.2-1.9-.4-2.8-.7-.5-.2-.9-.3-1.4-.5s-.9-.4-1.4-.6l.6.1-2.3.3c-.4.1-.8.1-1.2.1l-1.2.1c-.8.1-1.6.1-2.3.1-.8,0-1.6,0-2.4-.1s-1.6-.1-2.3-.3c-.4-.1-.8-.1-1.2-.2-.4-.1-.8-.2-1.1-.3-.8-.2-1.5-.5-2.2-.9-.3-.1-1-.6-1.4-1.2Z"/>
  <path d="m109.1,99.64s0,.3-.2.7c-.2.4-.5.9-1,1.2-.4.4-.9.6-1.4.7-.4.1-.7.1-.7.1,0,0,.2-.3.4-.6.3-.3.6-.7,1-1s.8-.6,1.2-.8c.4-.2.7-.3.7-.3Z"/>
  <path d="m137.6,103.34s1,.1,2.5.1h2.5c.4,0,.9-.1,1.3-.1.4-.1.9-.1,1.3-.2.4-.1.9-.2,1.3-.3.2-.1.4-.1.6-.2.2-.1.4-.1.6-.2.4-.1.8-.3,1.1-.5.2-.1.4-.2.5-.2.2-.1.3-.2.5-.3.3-.2.6-.3.9-.5.2-.2.5-.3.6-.4.4-.2.6-.4.6-.4,0,0-.1.2-.3.6-.1.2-.2.4-.4.7-.2.3-.4.5-.7.8-.1.1-.3.3-.4.5-.2.1-.3.3-.5.4-.4.3-.7.6-1.2.8-.4.2-.9.5-1.4.6-.5.2-1,.3-1.5.4s-1.1.1-1.6.2c-.5,0-1,0-1.5-.1-1-.1-1.8-.4-2.6-.6-1.4-.4-2.2-1.1-2.2-1.1Z"/>
  <path d="m110.8,116.54s.1.1.2.3c.1.2.2.5.2.9s0,.8-.1,1.2c-.1.4-.3.9-.5,1.3s-.4.8-.7,1.2c-.2.4-.5.7-.8.9-.5.5-.9.8-.9.8,0,0,.1-.5.4-1.1s.7-1.4,1-2.2c.2-.4.4-.8.5-1.2.2-.4.3-.7.4-1,.3-.6.3-1.1.3-1.1Z"/>
  <path class="cls-4" d="m108,118.04s3,26.2,3.6,31,7.6,7.6,9.4,7.9,9.9.4,9.9.4c0,0,20.1-12.6,26,.5"/>
  <path class="cls-4" d="m45.9,228.74l27.1-36.2s26.1-2.7,36.6-10.4c12.8-9.3,12.8-6.6,22.6-7.1,4.7-.2,10.9-.1,14.9-5.9s3.3-5.2,3.3-5.2"/>
  <line class="cls-4" x1="156.9" y1="157.84" x2="148.1" y2="164.54"/>
  <path d="m94,120.44c0,.9,0,1.9-.2,2.8-.1.9-.3,1.9-.6,2.8-.1.5-.3.9-.4,1.4l-.5,1.3-.6,1.3c-.2.4-.5.8-.7,1.3-.2.4-.5.8-.8,1.2-.3.4-.5.8-.8,1.2l-.9,1.1c-.3.4-.7.7-1,1-.4.3-.7.7-1.1,1l-1.1.9c-.4.3-.8.6-1.2.8l-1.2.8.4-.7c0,2.2-.1,4.4-.3,6.5-.2,2.2-.4,4.3-.7,6.5-.1,1.1-.3,2.2-.5,3.2-.2,1.1-.4,2.1-.6,3.2-.4,2.1-1,4.3-1.6,6.3-.3,1-.7,2.1-1,3.1-.4,1-.8,2.1-1.2,3.1-.4,1-.9,2-1.4,3l-.8,1.4-.9,1.4c-.6.9-1.2,1.8-1.9,2.7-.3.4-.7.8-1.1,1.2s-.8.8-1.2,1.1c-.8.7-1.7,1.4-2.6,2-.5.3-.9.5-1.4.8l-1.5.6,1.4-.8c.4-.3.9-.6,1.3-.9.8-.7,1.6-1.4,2.4-2.2.4-.4.7-.8,1-1.2s.7-.8.9-1.3c.6-.9,1.2-1.8,1.7-2.7l.7-1.1.7-1.4c.4-1,.9-1.9,1.2-2.9.7-2,1.4-4,1.9-6.1.3-1,.5-2.1.8-3.1.2-1,.5-2.1.7-3.1.4-2.1.8-4.2,1.1-6.3.3-2.1.6-4.2.8-6.4.2-2.1.4-4.3.5-6.4v-.5l.4-.3,1.2-.7c.4-.2.8-.4,1.2-.7l1.1-.8c.4-.2.7-.6,1-.9s.7-.6,1-.9l.9-1c.3-.3.6-.7.9-1.1s.6-.7.8-1.1c.2-.4.5-.8.7-1.2l.7-1.2.6-1.2c.2-.4.4-.9.5-1.3.3-.9.6-1.8.8-2.7.2-.9.4-1.8.5-2.8Z"/>
  <path d="m131,156.64s0,.7.1,1.6c0,.5.1,1,.2,1.6.1.6.2,1.2.3,1.8.1.3.1.6.2.9.1.3.2.6.3.9.2.6.4,1.1.6,1.5.1.2.2.4.3.6.1.2.2.3.2.4.1.3.2.4.2.4,0,0-.1-.1-.4-.3l-.9-.9c-.2-.2-.3-.4-.5-.7-.2-.2-.3-.5-.5-.8-.3-.6-.5-1.2-.7-1.9-.1-.7-.2-1.3-.2-2,0-.6,0-1.2.1-1.7.4-.8.7-1.4.7-1.4Z"/>
  <path class="cls-5" d="m29.3,178.04s5.6,12.2,31.6,24.3"/>
  <path d="m124,111.64s-.5.1-1.3.1c-.4,0-.9-.1-1.3-.2-.5-.1-1-.3-1.5-.6-.2-.1-.5-.3-.7-.4-.2-.2-.4-.3-.6-.5-.4-.4-.6-.8-.7-1.2-.1-.2-.1-.4-.1-.6v-.4c0-.2.1-.4.1-.4,0,0,.1.1.1.3.1.2.2.5.4.8.2.3.5.6.8.8.2.1.4.3.5.4.2.1.4.2.6.4.4.2.9.4,1.3.6s.8.3,1.2.5c.7.2,1.2.4,1.2.4Z"/>
  <path d="m131.1,93.74s.1.2.2.5c.1.3.3.7.7,1.1.3.4.8.8,1.3,1.3.5.4,1.1.8,1.8,1.2.3.2.6.4,1,.5.3.2.6.3.9.5.3.1.6.3.9.4.1,0,.4,0,.6-.1.5-.2.8-.6,1.1-.8.2-.2.4-.4.4-.4,0,0-.1.2-.2.5-.2.3-.4.7-.9,1.1-.3.2-.5.4-1.1.4-.4-.1-.7-.2-1.1-.3-.7-.2-1.4-.6-2.1-1-1.3-.8-2.6-1.9-3.1-3-.2-.3-.2-.5-.3-.8-.1-.2-.1-.5-.1-.6,0-.3,0-.5,0-.5Z"/>
  <path d="m145.9,102.14s-.4,0-.9-.2-1.1-.6-1.7-1.1c-.5-.5-.9-1.1-1.1-1.6-.2-.5-.3-.9-.3-.9,0,0,.3.2.7.5s.9.8,1.4,1.2c.5.5.9.9,1.3,1.3.4.6.6.8.6.8Z"/>
  <g>
    <polygon class="cls-1" points="210.2 241.54 222.5 207.74 201.5 203.34 185.2 195.54 183 191.04 170.7 205.34 149.9 229.84 210.2 241.54"/>
    <path class="cls-3" d="m185.2,195.54s10.6,11.1,32.1,11.8"/>
    <path class="cls-4" d="m252.2,120.54s5.3,4.1,6.9,5.6c1.2,1.2-.2,11.5-2.1,14.7s-6.4,11.8-7.4,23.5c-1.3,15.9-21.3,30.1-25.4,35.4l-11.2,40.2"/>
    <path class="cls-4" d="m149.9,229.84s34.8-35.4,36.1-43.2c1.3-7.8-6.4-58.6-6.3-62s5.5-11.5,5.5-11.5"/>
    <path class="cls-4" d="m190.3,127.24s-5.3-24.9-5.5-28.3,1.3-25.7,1.3-25.7"/>
    <line class="cls-4" x1="187.8" y1="72.24" x2="187.4" y2="60.54"/>
    <line class="cls-4" x1="241.2" y1="146.94" x2="240.6" y2="134.44"/>
    <path d="m186.4,60.14c1.3-.2,2.6-.2,3.9-.1,1.3.1,2.6.4,3.9.8,1.3.5,2.5,1.2,3.5,2.2.5.5,1,1,1.3,1.6.4.6.7,1.2.9,1.9s.4,1.4.5,2c.1.7.2,1.4.2,2.1v2c0,.7,0,1.3-.1,2-.1,1.3-.2,2.7-.5,4-.1.7-.3,1.3-.5,2-.1.3-.2.7-.4,1-.1.2-.2.4-.3.5l-.2.3c-.1.1-.1.2-.3.4l.2-1.4c.2.4.4.8.5,1.2.2.4.3.8.5,1.2.3.8.6,1.6.8,2.5.4,1.7.8,3.4,1.1,5.1.1.9.2,1.7.3,2.6.1.9.1,1.7.2,2.6.1.9,0,1.7,0,2.6s-.1,1.7-.1,2.6l-.1-.5c.4.7.7,1.4,1,2.1s.6,1.4.8,2.2c.5,1.4.9,2.9,1.1,4.4.3,1.5.4,3,.3,4.6-.1,1.5-.3,3-.8,4.4.3-1.5.3-3,.2-4.4-.1-1.5-.4-2.9-.8-4.3-.4-1.4-.9-2.8-1.5-4.1-.3-.7-.6-1.3-.9-2-.3-.6-.7-1.3-1-1.9l-.1-.2v-.3c0-.8,0-1.7-.1-2.5s-.1-1.7-.2-2.5c-.1-.8-.2-1.6-.3-2.5,0-.4-.1-.8-.2-1.2-.1-.4-.1-.8-.2-1.2-.3-1.6-.7-3.2-1.1-4.8-.2-.8-.5-1.6-.7-2.4-.1-.4-.3-.8-.4-1.2-.1-.4-.3-.8-.4-1.1l.2-1.4c-.1.1,0,0,0,0l.1-.1c.1-.1.1-.2.2-.3.1-.2.2-.5.3-.8.2-.6.3-1.2.5-1.8.3-1.2.5-2.5.6-3.7.1-.6.1-1.3.2-1.9,0-.6.1-1.3.1-1.9v-1.8c-.1-.6-.2-1.2-.3-1.8-.2-.6-.4-1.1-.7-1.7-.3-.5-.6-1-1-1.5-.8-.9-1.8-1.6-2.9-2.2-1.1-.6-2.3-.9-3.6-1.2-1.1-.1-2.4-.2-3.7-.2Z"/>
    <path class="cls-4" d="m205.1,104.84c6.8-3.2,12.6-7.1,18.3-7.4,8-.4,13.1,14.8,15.9,21.3,1.8,4.2,2.4,16,2.4,16"/>
    <path class="cls-4" d="m204,101.74s9.7-5.7,18.4-9.8,21.4,22.1,21.4,22.1"/>
    <path d="m210.8,118.34s.2.1.5.3c.3.2.7.5,1.2.7.2.1.5.2.8.3.3.1.6.2.8.2.3.1.6,0,.9,0,.3-.1.6-.1.9-.2l.5-.1c.1-.1.3-.1.5-.2.1-.1.3-.1.5-.2.1-.1.3-.2.4-.3.3-.2.6-.3.8-.5.3-.2.5-.3.8-.5.2-.2.5-.3.7-.4s.4-.2.5-.3c.3-.2.5-.3.5-.3,0,0-.1.2-.2.5-.1.2-.2.4-.3.6s-.2.5-.4.7c-.2.3-.4.5-.6.8-.2.3-.5.6-.8.8-.3.3-.6.5-1,.7l-.6.3c-.2.1-.4.2-.7.2-.4.2-.9.2-1.4.2s-1-.1-1.4-.3c-.4-.1-.8-.4-1.1-.6-.3-.3-.6-.5-.8-.8-.4-.5-.6-1-.8-1.4-.2,0-.2-.2-.2-.2Z"/>
    <path d="m220.2,117.74c-.2.7-.2,1.5-.3,2.2,0,.7,0,1.5.1,2.2s.2,1.4.4,2.1.4,1.3.7,1.9.7,1.2,1.1,1.7c.2.3.4.5.6.8l.7.7c.5.5,1,.9,1.6,1.3s1.2.8,1.8,1.1l.6.4v2.1c0,.5.1,1,.1,1.5.1,1,.3,1.9.5,2.9.1.5.3.9.4,1.4.2.5.3.9.5,1.3s.4.9.7,1.3c.2.4.5.8.8,1.2.3.4.6.7.9,1.1l.5.5.6.4c.4.3.8.5,1.2.7s.9.4,1.4.5.9.3,1.4.4,1,.2,1.5.2c.5.1,1,.1,1.5.1h1.6c-.5.1-1,.3-1.5.4s-1,.2-1.6.2c-.5.1-1.1.1-1.6.1s-1.1-.1-1.6-.1c-.5-.1-1.1-.2-1.6-.4-.5-.2-1-.4-1.5-.7-.5-.3-1-.6-1.4-.9-.4-.4-.9-.7-1.2-1.2-.4-.4-.8-.8-1.1-1.3s-.6-.9-.9-1.4c-.5-1-.9-2-1.2-3.1s-.5-2.1-.6-3.2c-.1-.5-.1-1.1-.2-1.6v-1.7l.6,1.1c-1.4-.8-2.7-1.7-3.8-2.9-.3-.3-.5-.6-.8-.9-.2-.3-.5-.7-.7-1-.4-.7-.8-1.4-1.1-2.2-.6-1.5-.7-3.2-.6-4.7.4-1.7.8-3.2,1.5-4.5Z"/>
    <path d="m212.3,117.84c1.3,2.4,2.1,5,2.6,7.8.4,2.7.4,5.6-.6,8.2v-.3c1.5,2.9,3,5.8,4.5,8.7,1.5,2.9,3,5.8,4.4,8.7l4.4,8.8,4.3,8.8h0c.3.4.4.8.6,1.2.1.4.2.8.3,1.3.1.4.1.9.1,1.3v.6c0,.2,0,.4-.1.6-.1.4-.1.8-.2,1.3-.1.4-.2.8-.4,1.2-.1.4-.3.8-.5,1.2l-.6,1.1.5-1.2c.1-.4.3-.8.4-1.2.1-.4.2-.8.3-1.2s.1-.8.2-1.2v-1.2c0-.4-.1-.8-.2-1.2-.1-.4-.2-.8-.4-1.2-.1-.4-.3-.8-.5-1.1h0l-4.6-8.7-4.5-8.7c-1.5-2.9-2.9-5.8-4.4-8.8-1.4-2.9-2.9-5.8-4.3-8.8l-.1-.2.1-.1c.9-2.5,1.1-5.2.8-7.9-.1-1.3-.4-2.7-.8-4-.4-1.2-.8-2.5-1.3-3.8Z"/>
    <line class="cls-4" x1="251.9" y1="121.04" x2="246" y2="116.34"/>
    <path d="m245,116.34s-.2.4-.5,1c-.2.3-.3.7-.5,1.1s-.4.9-.5,1.5c-.1.3-.2.5-.3.8s-.1.6-.2.9c-.2.6-.2,1.3-.4,1.9,0,.7-.1,1.4-.1,2,0,.3,0,.7.1,1l.2,1c0,.3.2.7.3,1s.2.7.3,1c.3.6.6,1.3.9,1.9.4.6.7,1.1,1,1.7.4.5.7,1,1.1,1.5.2.2.3.5.5.7s.3.4.5.6c.3.3.6.7.8.9.4.5.7.9.7.9l-1-.5c-.3-.2-.7-.4-1.1-.6-.2-.1-.4-.3-.7-.4-.2-.2-.4-.4-.7-.5-.5-.4-1-.8-1.5-1.3s-.9-1.1-1.4-1.7c-.4-.7-.8-1.4-1.2-2.1-.1-.4-.3-.8-.4-1.2-.1-.4-.3-.8-.3-1.2l-.2-1.3c-.1-.4,0-.8,0-1.3,0-.8.2-1.6.3-2.4.1-.4.2-.7.3-1.1s.2-.7.4-1,.3-.6.5-.9.3-.6.5-.8c.3-.5.7-.9,1-1.3s.6-.7.9-.9c.4-.7.7-.9.7-.9Z"/>
    <path d="m246.5,116.04s.1.1.2.2c.1.1.2.4.4.7.3.6.6,1.5.8,2.6.1.6.1,1.2.1,1.9,0,.6-.2,1.4-.3,2s0,1.3.2,1.9.6,1.2,1,1.7c.5.5,1,1.1,1.5,1.5s1.1.8,1.3.5c.3-.3.4-1.1.5-1.7s.1-1.2.1-1.8v-3.7s.3,1.5.5,3.7c.1.6.1,1.2.1,1.8,0,.3,0,.7-.1,1-.1.4-.1.7-.5,1.1-.2.2-.4.3-.7.4-.3,0-.5,0-.7-.1-.4-.2-.7-.4-1.1-.6-.6-.5-1.2-1-1.7-1.6s-1-1.3-1.2-2c-.3-.8-.3-1.6-.2-2.4.2-.7.3-1.3.4-1.9.1-.6.1-1.2.1-1.7,0-1.1-.2-2-.3-2.6-.2-.5-.3-.9-.4-.9Z"/>
    <path d="m238.8,135.14s.1,0,0,0-.2.1-.3.2c-.3.2-.6.6-.9,1-.6.9-1.1,2.4-1.5,3.8-.4,1.5-.7,3-1,4.2-.1.6-.3,1.1-.4,1.4-.1.3-.2.5-.2.5,0,0-.2-.8-.3-2s0-2.9.4-4.5,1.3-3.2,2.3-4c.5-.4,1-.7,1.4-.7.2,0,.4,0,.5.1q0-.1,0,0c.1,0,0,0,0,0h0Z"/>
    <path d="m206.9,192.74s.2.1.5.2c.3.1.8.1,1.4.2,1.1,0,2.7-.2,4.2-.5s3-.8,4.1-1.1,1.9-.5,1.9-.5c0,0-.7.5-1.7,1-.5.3-1.2.6-1.9.8-.4.1-.7.3-1.1.4-.4.1-.8.2-1.2.3-.8.2-1.6.3-2.4.3h-1.1c-.4,0-.7-.1-1-.1-.6-.1-1.1-.3-1.4-.5-.2-.3-.3-.5-.3-.5Z"/>
    <path d="m227.1,162.84s.2.2.4.7c.2.4.6,1.1.9,1.9.1.4.3.8.5,1.3.1.5.3,1,.4,1.5.1.5.2,1.1.3,1.6.1.6.1,1.1.1,1.7,0,1.2,0,2.3-.1,3.4-.1,1.1-.3,2.1-.5,2.9-.2.8-.4,1.5-.6,2-.1.5-.2.7-.2.7,0,0,0-.3.1-.8s.1-1.2.2-2c0-.4.1-.9.1-1.4s0-1,.1-1.5v-3.3c0-.6-.1-1.1-.1-1.7-.1-.5-.1-1.1-.2-1.6-.1-.5-.1-1-.2-1.5-.1-.5-.2-.9-.3-1.3-.2-.8-.4-1.5-.5-2-.3-.4-.4-.6-.4-.6Z"/>
  </g>
  <g>
    <g id="Färg-2" data-name="Färg">
      <polygon class="cls-6" points="335.6 240.34 333.9 217.84 334.7 201.74 330.8 203.64 316.3 205.04 304.2 203.74 292.1 200.44 282.3 240.14 335.6 240.34"/>
    </g>
    <path d="m290.3,47.54c1.2-.6,2.6-1.1,4-1.3s2.9-.1,4.3.3c1.4.4,2.7,1.3,3.7,2.4s1.8,2.4,2.3,3.7c1.1,2.7,1.5,5.6,1.6,8.4s0,5.6-.3,8.4l-.2-.8c.3.5.5.9.7,1.3.2.4.4.9.6,1.3.4.9.7,1.8,1,2.7.5,1.9.9,3.8,1.1,5.7s.2,3.9.1,5.8c-.2,1.9-.5,3.8-1,5.7v-.6c.6,2.1,1,4.2,1.3,6.3.2,1.1.4,2.1.5,3.2s.2,2.1.4,3.2c.1,1.1.2,2.1.2,3.2v3.2c0,.5-.1,1.1-.1,1.6s-.1,1.1-.1,1.6c-.1.5-.1,1.1-.2,1.6l-.3,1.6.1-1.6v-1.6c0-1.1-.1-2.1-.2-3.2l-.2-1.6c0-.5-.1-1-.2-1.6-.1-1-.3-2.1-.5-3.1-.4-2.1-.8-4.1-1.3-6.2-.2-1-.5-2.1-.8-3.1s-.6-2-.8-3l-.1-.3.1-.3c.4-1.7.7-3.5.8-5.3.1-1.8.1-3.6-.1-5.3-.2-1.8-.6-3.5-1.1-5.2-.3-.9-.5-1.7-.9-2.5-.2-.4-.3-.8-.5-1.2s-.4-.8-.6-1.1l-.2-.4v-.4c.2-1.3.3-2.7.4-4s.2-2.7.1-4c0-2.7-.3-5.3-1.1-7.8-.4-1.2-1-2.4-1.7-3.4-.8-1-1.8-1.8-3-2.3s-2.5-.7-3.8-.7c-1.3.1-2.7.3-4,.7Z"/>
    <path class="cls-5" d="m295.3,201.04s11,7.5,36.3,2.4"/>
    <path d="m292.6,48.24s.3,0,.7.1c.4.1,1.1.2,1.8.5.4.2.7.4,1.1.7.4.3.7.7.9,1.3.1.3.1.6.1.9,0,.2,0,.5-.1.7-.1.5-.1,1-.3,1.5-.4,2-1.3,3.9-2.4,5-.6.6-1.2.8-1.6.9-.2.1-.4.1-.5.1h-.2s.3,0,.6-.2c.4-.2.9-.5,1.3-1.1.8-1.1,1.5-3,1.9-4.9.1-.5.2-.9.3-1.4,0-.2.1-.5.1-.7v-.5c-.1-.7-.8-1.3-1.4-1.7-.6-.4-1.1-.7-1.5-.9-.5-.2-.8-.3-.8-.3Z"/>
    <path class="cls-4" d="m291.5,109.14c.2-1.7,1.2-29.3,1.2-29.3l-1.5-20"/>
    <path class="cls-4" d="m300.1,123.34s20.2-10.2,25.4-12.8c5.3-2.6,15,7.8,18.9,12.1,3.9,4.2,4.8,9.1,3.6,11.7"/>
    <path class="cls-4" d="m303.8,132.74s26.9-6.7,30.3-6.5c3.5.2,14.6,10.5,17,14.4,2.4,3.8-1.8,10.3-1.8,10.3"/>
    <line class="cls-4" x1="349.5" y1="150.34" x2="346.2" y2="159.94"/>
    <path class="cls-4" d="m345,106.14s3.7-9.3,14.8-5.3"/>
    <line class="cls-4" x1="360.1" y1="101.24" x2="357.3" y2="112.84"/>
    <path class="cls-4" d="m357.1,108.94s2.8,10.3,1.5,13.7c-1.3,3.4-6.1,14.5-6.1,14.5"/>
    <path class="cls-4" d="m345.3,162.54s-1.7,13.1-11.1,25.2l1.7,48.8"/>
    <line class="cls-4" x1="292.2" y1="59.04" x2="291.1" y2="48.14"/>
    <path d="m325,144.84c.5.2,1.1.3,1.6.4s1.1.2,1.6.2h1.6c.5,0,1.1-.1,1.6-.1.3,0,.5-.1.8-.1s.5-.1.8-.2l.8-.2.7-.3c.5-.1,1-.4,1.4-.6.2-.1.5-.2.7-.4l.7-.4,1.4-.8v2.5c0,.3.1.6.2.9.1.6.3,1.1.6,1.6.3.5.6.8,1.1,1,.4.2,1,.3,1.5.3l2.2-.1-1.5,1.5c-.1.2-.3.4-.5.6s-.3.5-.5.7c-.3.5-.5,1-.6,1.5-.3,1-.2,2.2.3,3.2s1.3,1.9,2.3,2.7c.5.4,1,.7,1.5,1.1.5.3,1,.7,1.6,1-.6-.2-1.2-.4-1.8-.6-.6-.2-1.1-.5-1.7-.9-1.1-.7-2.1-1.5-2.9-2.6-.4-.6-.6-1.2-.8-1.9-.1-.7-.1-1.4,0-2.1s.3-1.4.6-2c.1-.3.3-.6.5-.9s.4-.6.6-.9l.7,1.5c-.8.1-1.7.1-2.5-.3-.8-.3-1.5-1-1.9-1.7s-.7-1.5-.9-2.2c-.1-.4-.1-.8-.2-1.1v-1.2l1.4.9-.8.4c-.3.1-.5.3-.8.4-.6.2-1.1.4-1.7.6-.3.1-.6.2-.8.2l-.9.1c-.3.1-.6.1-.9.1s-.6.1-.9,0c-.6,0-1.2,0-1.7-.1-.6-.1-1.1-.2-1.7-.3-.8-.3-1.9-.8-2.8-1.4Z"/>
    <path d="m329.5,144.74s.2,0,.5.2c.3.1.7.4,1.1.7.2.2.4.4.7.7.2.2.4.6.6.9s.3.7.4,1.1.2.8.2,1.2,0,.8-.1,1.2c-.1.4-.2.7-.3,1.1-.2.3-.3.6-.5.9s-.4.5-.6.7c-.3.4-.8.7-1,.9-.3.2-.4.3-.4.3,0,0,0-.2.1-.5s.2-.7.4-1.2c.1-.2.1-.5.2-.8,0-.3.1-.5.2-.8,0-.3.1-.6.1-.8v-.8c0-.6-.1-1.1-.2-1.7-.1-.3-.1-.5-.2-.8s-.2-.5-.3-.7c-.2-.4-.4-.8-.5-1.1-.3-.5-.4-.7-.4-.7Z"/>
    <path d="m331,151.44s.1.1.3.3c.2.2.4.5.7.9.5.8,1.3,2.1,2,3.6.7,1.6,1.5,3.4,2,5.5.6,2.1,1,4.4,1.1,6.7.1,1.2.1,2.3,0,3.4,0,1.1-.2,2.2-.4,3.3-.1.5-.2,1.1-.3,1.6-.1.5-.3,1-.4,1.5-.3.9-.6,1.8-1,2.6-.3.8-.7,1.5-1.1,2.1s-.7,1.1-1,1.5c-.6.8-.9,1.3-.9,1.3,0,0,.3-.5.7-1.4.2-.4.5-1,.7-1.6s.6-1.3.8-2.1c.3-.8.5-1.7.8-2.6.2-.9.4-1.9.6-2.9.1-1,.2-2.1.3-3.2v-3.3c-.2-4.4-1.4-8.8-2.5-12-.6-1.6-1.1-2.9-1.5-3.8-.2-.4-.4-.8-.5-1-.3-.3-.4-.4-.4-.4Z"/>
    <polyline class="cls-2" points="305.7 102.84 312.2 98.64 313.8 113.84 310.7 115.94 304.6 116.24"/>
    <path class="cls-4" d="m283.5,235.14s9.3-36.8,9.2-43.1c-.1-6.3-11.2-62.2-10.6-67.1s17.9-16.1,24.2-20.1,16.1-9.9,20.1-7.5c4,2.3,18.7,11.4,20,15.2,1.3,3.8,1.5,12,1.5,12"/>
  </g>
</svg>