<?xml version="1.0" encoding="UTF-8"?>
<svg id="Lager_1" data-name="Lager 1" xmlns="http://www.w3.org/2000/svg" xmlns:xlink="http://www.w3.org/1999/xlink" viewBox="0 0 300.38 240">
  <defs>
    <style>
      .cls-1 {
        fill: url(#linear-gradient-2);
      }

      .cls-2 {
        stroke-width: 1.6px;
      }

      .cls-2, .cls-3, .cls-4 {
        stroke-linecap: round;
      }

      .cls-2, .cls-3, .cls-4, .cls-5 {
        fill: none;
        stroke: #000;
      }

      .cls-6 {
        fill: #fff;
      }

      .cls-3 {
        stroke-width: .75px;
      }

      .cls-4 {
        stroke-width: 2px;
      }

      .cls-7 {
        fill: url(#linear-gradient);
      }
    </style>
    <linearGradient id="linear-gradient" x1="43.69" y1="-563.02" x2="50.39" y2="-553.07" gradientTransform="translate(0 -374.03) scale(1 -1)" gradientUnits="userSpaceOnUse">
      <stop offset="0" stop-color="#fff"/>
      <stop offset="1" stop-color="#ededed"/>
    </linearGradient>
    <linearGradient id="linear-gradient-2" x1="186.01" y1="1169.28" x2="196.48" y2="1144.03" gradientTransform="translate(0 -964.66)" gradientUnits="userSpaceOnUse">
      <stop offset="0" stop-color="#fff"/>
      <stop offset="1" stop-color="#ededed"/>
    </linearGradient>
  </defs>
  <rect class="cls-6" x="18.14" y="6.6" width="263" height="226.8"/>
  <g>
    <g id="Färg">
      <polygon class="cls-7" points="61.64 205.7 76.14 183.7 80.74 178.1 72.44 175 58.54 166.4 50.44 157.2 46.04 152 21.24 178.2 61.64 205.7"/>
    </g>
    <path class="cls-4" d="m29.34,172.5l30.2-36.8s19.6-37.4,23.7-43.5c4.2-6.1,19.8-29.5,21.2-30.7,1.4-1.2,24.3-.6,25.7-.6s11.2,6.1,12.6,6.1"/>
    <path class="cls-4" d="m88.54,91.6l15.6-12.2c1.1-.8,3-1.5,4.3-1.5l14.5.2c1.3,0,3.2.7,4.3,1.6l2.3,1.8"/>
    <line class="cls-4" x1="128.94" y1="81" x2="137.54" y2="84"/>
    <path d="m96.64,99.6c1.2-.5,2.2-1.2,3.3-2,.3-.2.5-.4.8-.6.2-.2.5-.4.7-.6.5-.4,1-.9,1.4-1.3.2-.2.4-.5.7-.7.2-.2.4-.5.6-.7.4-.5.8-1,1.2-1.5.4-.5.7-1.1,1.1-1.6.2-.3.3-.6.5-.8l.5-.8.4-.7.7.4c.2.1.4.2.6.3.2.1.5.2.7.3.5.2,1,.3,1.5.4,1,.2,2,.2,3.1,0,2-.3,4-1.3,5.7-2.6l.5-.4.5.4c.3.2.7.5,1,.7.4.2.7.4,1.1.6.7.4,1.5.7,2.3,1s1.6.5,2.4.6c.4.1.8.1,1.2.1s.8,0,1.2-.1c.4-.1.8-.1,1.2-.2.4-.1.8-.3,1.2-.4.4-.2.8-.4,1.1-.6.4-.2.7-.5,1.1-.7.7-.5,1.3-1.2,1.9-1.9.3-.3.6-.7.8-1.1l.8-1.1-.6,1.3c-.2.4-.4.8-.7,1.2-.5.8-1.1,1.5-1.7,2.2-.3.3-.7.7-1.1.9-.4.3-.8.5-1.2.8-.4.2-.8.4-1.3.6-.4.2-.9.3-1.3.4-1.8.4-3.7.3-5.5-.3-.9-.3-1.8-.6-2.6-1-.4-.2-.8-.4-1.2-.7-.4-.2-.8-.5-1.2-.8h1c-.9.8-2,1.4-3.1,1.9s-2.3.9-3.4,1c-1.2.2-2.4.1-3.6-.1-.6-.1-1.2-.3-1.7-.5-.3-.1-.6-.2-.8-.4-.3-.1-.5-.3-.8-.5l1.1-.3c-.4.6-.7,1.2-1.1,1.7s-.8,1.1-1.3,1.6c-.4.5-.9,1-1.4,1.5l-.7.7c-.3.2-.5.5-.8.7-.5.4-1,.8-1.6,1.2-.3.2-.6.4-.8.5-.3.2-.6.3-.8.5-.6.3-1.2.6-1.8.8-.6.3-1.2.5-1.8.7Z"/>
    <path class="cls-4" d="m114.24,57.8l4-3.2c1.2-.9,3.3-1.4,4.7-1.1l21.4,4.4c1.4.3,3.2,1.6,3.9,3l4.5,8.2"/>
    <line class="cls-4" x1="142.04" y1="68" x2="151.64" y2="71.5"/>
    <line class="cls-4" x1="151.34" y1="66.5" x2="160.34" y2="74.6"/>
    <path d="m117.94,74.1c.6.5,1.2.7,1.9.9.7.2,1.3.4,2,.5.3.1.7.1,1,.1s.7.1,1,.1h2c.3,0,.7,0,1-.1l1-.1c.7-.1,1.4-.1,2.1-.2s1.4-.2,2.1-.3l2.1-.4.3-.1.3.2c.3.2.7.4,1.1.5.4.2.8.3,1.1.5.8.3,1.6.5,2.4.7s1.6.3,2.4.4,1.6.1,2.4,0c1.6-.2,3.2-.7,4.5-1.7.4-.2.7-.5,1-.8s.6-.6.9-.9c.3-.3.6-.7.8-1,.3-.3.5-.7.8-1.1-.2.4-.3.9-.5,1.3s-.4.8-.7,1.2c-.2.4-.5.8-.8,1.1-.3.3-.6.7-1,1-.3.3-.7.6-1.1.9-.4.2-.8.5-1.2.7s-.8.4-1.3.5c-.4.1-.9.3-1.3.3-.4.1-.9.2-1.3.2h-1.4c-.9,0-1.8-.1-2.7-.3-.9-.2-1.7-.4-2.6-.7-.4-.2-.8-.3-1.3-.5-.4-.2-.8-.4-1.3-.6l.6.1-2.1.3c-.4.1-.7.1-1.1.1l-1.1.1c-.7.1-1.4.1-2.2.1-.7,0-1.4,0-2.2-.1-.7-.1-1.4-.1-2.2-.3-.4-.1-.7-.1-1.1-.2s-.7-.2-1.1-.3c-.7-.2-1.4-.5-2-.9-.2-.1-.8-.6-1.2-1.2Z"/>
    <path d="m121.14,74.7s0,.3-.2.7c-.2.4-.5.9-.9,1.2-.4.4-.9.6-1.3.7s-.7.1-.7.1c0,0,.1-.3.4-.6.2-.3.6-.7.9-1,.4-.3.8-.6,1.1-.8.5-.2.7-.3.7-.3Z"/>
    <path d="m147.34,78.4s.9.1,2.3.1h2.3c.4,0,.8-.1,1.2-.1.4-.1.8-.1,1.2-.2s.8-.2,1.2-.3c.2-.1.4-.1.6-.2.2-.1.4-.1.6-.2.4-.1.7-.3,1-.5.2-.1.3-.2.5-.2.1-.1.3-.2.4-.3.3-.2.6-.3.8-.5s.4-.3.6-.4c.3-.2.6-.4.6-.4,0,0-.1.2-.3.6-.1.2-.2.4-.4.7-.2.3-.4.5-.6.8-.1.1-.2.3-.4.5-.1.1-.3.3-.5.4-.3.3-.7.6-1.1.8s-.8.5-1.3.6c-.5.2-.9.3-1.4.4s-1,.1-1.4.2c-.5,0-.9,0-1.4-.1-.9-.1-1.7-.4-2.4-.6-1.4-.4-2.1-1.1-2.1-1.1Z"/>
    <path d="m122.74,91.6s.1.1.1.3c.1.2.1.5.2.9,0,.4,0,.8-.1,1.2-.1.4-.2.9-.4,1.3-.2.4-.4.8-.6,1.2-.2.4-.5.7-.7.9-.4.5-.8.8-.8.8,0,0,.1-.5.4-1.1.2-.6.6-1.4.9-2.2.2-.4.3-.8.5-1.2.1-.4.3-.7.4-1,.1-.6.1-1.1.1-1.1Z"/>
    <path class="cls-4" d="m120.14,93.1s2.7,26.2,3.3,31,7,7.6,8.7,7.9,9.1.4,9.1.4c0,0,18.5-12.6,23.9.5"/>
    <path class="cls-4" d="m63.14,203.8l24.8-36.2s24-2.7,33.7-10.4c11.7-9.3,11.8-6.6,20.8-7.1,4.3-.2,10.1-.1,13.7-5.9s3-5.2,3-5.2"/>
    <line class="cls-4" x1="165.04" y1="132.9" x2="156.94" y2="139.6"/>
    <path d="m107.24,95.5c0,.9,0,1.9-.1,2.8s-.3,1.9-.5,2.8c-.1.5-.2.9-.4,1.4l-.5,1.3-.6,1.4c-.2.4-.4.8-.6,1.3-.2.4-.5.8-.7,1.2-.3.4-.5.8-.8,1.2l-.9,1.1c-.3.4-.6.7-.9,1s-.6.7-1,1l-1,.9c-.3.3-.7.6-1.1.8l-1.1.8.4-.7c0,2.2-.1,4.4-.3,6.5-.2,2.2-.4,4.3-.7,6.5-.1,1.1-.3,2.2-.5,3.2-.2,1.1-.4,2.1-.6,3.2-.4,2.1-.9,4.3-1.5,6.3-.3,1-.6,2.1-.9,3.1s-.7,2.1-1.1,3.1-.8,2-1.3,3l-.7,1.4-.7,1.5c-.6.9-1.1,1.8-1.8,2.7-.3.4-.6.8-1,1.2s-.7.8-1.1,1.1c-.7.7-1.6,1.4-2.4,2-.4.3-.9.5-1.3.8l-1.4.6,1.3-.8c.4-.3.8-.6,1.2-.9.8-.7,1.5-1.4,2.2-2.2.3-.4.6-.8.9-1.2s.6-.8.9-1.3c.6-.9,1.1-1.8,1.5-2.7l.7-1.4.6-1.4c.4-1,.8-1.9,1.1-2.9.7-2,1.3-4,1.8-6.1.3-1,.5-2.1.7-3.1s.4-2.1.6-3.1c.4-2.1.7-4.2,1-6.3.3-2.1.5-4.2.7-6.4.2-2.1.4-4.3.4-6.4v-.5l.4-.3,1.1-.7c.4-.2.7-.4,1.1-.7l1-.8c.4-.2.6-.6,1-.9l.9-.9.9-1c.3-.3.5-.7.8-1.1s.5-.7.7-1.1.5-.8.7-1.2l.6-1.2.6-1.2c.2-.4.3-.9.5-1.3.3-.9.6-1.8.8-2.7.1-.8.3-1.7.4-2.7Z"/>
    <path d="m141.24,131.7s0,.7.1,1.6c0,.5.1,1,.2,1.6s.2,1.2.3,1.8c.1.3.1.6.2.9.1.3.2.6.3.9.2.6.4,1.1.6,1.5l.3.6c.1.2.2.3.2.4.1.3.2.4.2.4,0,0-.1-.1-.3-.3-.2-.2-.5-.5-.8-.9-.2-.2-.3-.4-.4-.7-.2-.2-.3-.5-.4-.8-.3-.6-.5-1.2-.6-1.9s-.2-1.3-.2-2c0-.6,0-1.2.1-1.7-.1-.8.2-1.4.2-1.4Z"/>
    <path class="cls-5" d="m47.84,153.1s5.1,12.2,29,24.3"/>
    <path d="m134.84,86.7s-.5.1-1.2.1c-.4,0-.8-.1-1.2-.2-.4-.1-.9-.3-1.3-.6-.2-.1-.4-.3-.6-.4-.2-.2-.4-.3-.5-.5-.3-.4-.6-.8-.7-1.2-.1-.2-.1-.4-.1-.6v-.4c0-.2.1-.4.1-.4,0,0,0,.1.1.3.1.2.2.5.4.8.2.3.5.6.8.8.2.1.3.3.5.4s.4.2.6.4c.4.2.8.4,1.2.6.4.2.8.3,1.1.5.3.2.8.4.8.4Z"/>
    <path d="m141.34,68.8s.1.2.1.5c.1.3.3.7.6,1.1.3.4.7.8,1.2,1.3.5.4,1.1.8,1.6,1.2.3.2.6.4.9.5.3.2.6.3.9.5.3.1.6.3.8.4.1,0,.4,0,.6-.1.4-.2.8-.6,1-.8.2-.2.4-.4.4-.4,0,0-.1.2-.2.5-.2.3-.4.7-.8,1.1-.2.2-.5.4-1,.4-.4-.1-.6-.2-1-.3-.6-.2-1.3-.6-1.9-1-1.2-.8-2.3-1.9-2.8-3-.1-.3-.2-.5-.3-.8-.1-.2-.1-.5-.1-.6,0-.3,0-.5,0-.5Z"/>
    <path d="m154.94,77.2s-.4,0-.8-.2c-.5-.2-1-.6-1.5-1.1s-.8-1.1-1-1.6-.2-.9-.2-.9c0,0,.3.2.7.5s.8.8,1.3,1.2c.4.5.8.9,1.2,1.3.1.6.3.8.3.8Z"/>
  </g>
  <g>
    <polygon class="cls-1" points="214.94 210.1 224.84 169.8 204.14 167.9 181.34 158.9 181.84 160.6 173.84 173.4 157.94 197.1 214.94 210.1"/>
    <path class="cls-5" d="m186.24,160.3s13.7,10.1,36,9.2"/>
    <path class="cls-4" d="m161.34,194.1c0-1,23.4-37,24.2-41.9s12.7-70.1,12.7-70.1"/>
    <path class="cls-4" d="m196.94,81.9s-2-9.6,4.6-12.3"/>
    <path class="cls-4" d="m205.74,79.3l23.7-13c1.3-.7,3.4-.8,4.8-.3l16.1,6.3c1.3.5,3,2.1,3.6,3.5l2.2,4.9"/>
    <path class="cls-4" d="m206.14,67.5l29.3-15.6c1.3-.7,3.3-.5,4.5.3l19.2,14.2c1.2.9,2.7,2.7,3.4,4.1l2.1,4.2"/>
    <path class="cls-2" d="m246.34,43.9l4.3-.4c1.4-.1,3.4.7,4.4,1.8l9.9,11.3c1,1.1,2.2,3.2,2.8,4.7l1.4,3.8"/>
    <path class="cls-4" d="m202.34,69l34.1-26.5c1.2-.9,3.1-.9,4.2.1l21.2,17.2c1.1.9,2.6,2.8,3.3,4.2l3,6.1"/>
    <path class="cls-4" d="m221.44,91.4s4.7-.9,8-6.3"/>
    <path class="cls-4" d="m228.04,84.2s7.2,3.1,15.5,1.7"/>
    <path class="cls-4" d="m240.64,84.4s10.9,15.4,20.3,4l-4.9-6.9"/>
    <path class="cls-4" d="m261.74,90.1s5.1,1.3,8-5.8l-5.2-7.7"/>
    <path class="cls-4" d="m268.44,71.1l4,8s-1.5,3.1-2.7,3.3"/>
    <path class="cls-4" d="m241.74,89.6l3.7,9.7s2.8,2.2,6.9,2.2"/>
    <line class="cls-4" x1="249.64" y1="103.4" x2="259.34" y2="95.4"/>
    <path class="cls-4" d="m259.14,91.8s.8,4.2,1.2,5.9"/>
    <path d="m225.74,91s.2.1.4.6c.1.2.2.5.2.8.1.3.1.7.1,1v1.2c0,.4-.1.9-.2,1.4-.1.5-.1,1-.3,1.4-.1.5-.2,1-.4,1.5-.3,1-.6,1.9-.9,2.8-.2.4-.4.8-.5,1.2-.2.4-.3.8-.5,1.1-.3.7-.6,1.2-.8,1.6s-.3.6-.3.6c0,0,.1-.2.2-.7.1-.4.3-1,.5-1.7s.5-1.5.7-2.4c.3-.9.6-1.8.8-2.8.2-.5.3-.9.4-1.4.1-.5.2-.9.3-1.4.1-.4.2-.9.3-1.3,0-.4.1-.8.2-1.2.1-.7.1-1.3,0-1.8-.1-.3-.2-.5-.2-.5Z"/>
    <path d="m222.74,102.3s.1.9.2,2.4c.1,1.6.2,3.8.3,6.4.1,2.7.2,5.8.3,9.1.1,3.3.1,6.9.1,10.5,0,1.8-.1,3.6-.1,5.3,0,.9-.1,1.8-.2,2.6-.1.9-.1,1.7-.4,2.6-.5,1.7-1.4,3.1-2.2,4.3-.9,1.2-1.8,2.3-2.7,3.3-1.7,1.9-3.4,3.3-4.5,4.2-.6.5-1.1.8-1.4,1-.3.2-.5.3-.5.3,0,0,.2-.1.5-.4.3-.2.8-.6,1.3-1.1,1.1-1,2.6-2.5,4.3-4.4.8-1,1.7-2.1,2.5-3.3s1.6-2.6,2-4.1c.2-.7.3-1.6.3-2.4.1-.8.1-1.7.1-2.6.1-1.7.1-3.5.1-5.3v-26c0-1.5,0-2.4,0-2.4Z"/>
    <path d="m207.74,151.7s.2-.1.5-.3.8-.5,1.4-.9c.6-.4,1.2-.8,2-1.2.7-.4,1.5-.9,2.3-1.3.8-.4,1.5-.9,2.3-1.3.7-.4,1.4-.8,1.9-1.2.6-.4,1-.7,1.3-.9s.5-.4.5-.4c0,0-.1.2-.4.5-.1.2-.3.4-.5.6-.2.2-.4.5-.7.7-.5.5-1.1,1-1.8,1.5s-1.5,1-2.2,1.4c-1.6.9-3.2,1.7-4.5,2.1-.6.2-1.2.4-1.5.5-.3.1-.6.2-.6.2Z"/>
    <path d="m243.44,94s.1.3.3,1c.2.6.5,1.5.8,2.5.7,2.1,1.4,5,2.2,7.8.7,2.9,1.3,5.8,1.7,8,.2,1.1.3,2,.4,2.7.1.6.1,1,.1,1,0,0-.4-1.4-1-3.5s-1.4-5-2.1-7.8c-.7-2.9-1.3-5.8-1.8-7.9-.2-1.1-.4-2-.5-2.6-.1-.9-.1-1.2-.1-1.2Z"/>
    <path class="cls-4" d="m268.64,63.7l4.3,8.9s-.9,1.4-2,1.4"/>
    <path class="cls-4" d="m273.64,74.2s3.9.7.8,12.6"/>
    <path d="m274.84,87.4s.2.5.6,1.3c.2.4.4.9.5,1.5.2.6.4,1.3.6,2.1.2.8.4,1.6.5,2.5s.2,1.9.2,2.9c0,.5,0,1-.1,1.6,0,.5-.1,1.1-.2,1.6-.2,1.1-.6,2.1-1.1,3.2-.3.5-.6.9-.9,1.4-.3.4-.7.8-1,1.1-.7.8-1.4,1.4-2.1,2.1-1.4,1.3-2.8,2.3-4,3.2-2.4,1.7-4.2,2.5-4.2,2.5,0,0,1.4-1.4,3.6-3.4,1.1-1,2.3-2.2,3.5-3.6.6-.7,1.2-1.4,1.9-2.1.3-.4.6-.7.9-1.1.2-.4.5-.7.7-1.1.4-.8.8-1.7.9-2.6.1-.5.2-.9.3-1.4.1-.5.1-.9.1-1.4s.1-.9.1-1.4v-1.3c0-.9-.1-1.7-.1-2.4-.1-1.5-.3-2.8-.4-3.7-.2-1-.3-1.5-.3-1.5Z"/>
    <path d="m264.44,111s-.2,1-.8,2.6c-.3.8-.6,1.8-1.1,2.9-.4,1.1-1,2.3-1.7,3.6-.7,1.3-1.4,2.7-2.2,4.1-.9,1.4-1.7,2.9-2.8,4.4-1,1.5-2.1,3-3.3,4.5-1.1,1.5-2.4,2.9-3.7,4.4-1.3,1.4-2.7,2.7-4,4.1-1.4,1.3-2.8,2.5-4.1,3.6-1.4,1.1-2.7,2.1-4,3.1s-2.6,1.8-3.7,2.5c-1.2.8-2.2,1.5-3.2,2s-1.8,1-2.6,1.4c-1.4.8-2.2,1.2-2.2,1.2,0,0,.7-.6,2.1-1.5.7-.5,1.5-1,2.4-1.7.9-.6,1.9-1.5,3-2.3.5-.4,1.1-.9,1.7-1.3.6-.5,1.2-.9,1.8-1.5,1.2-1,2.5-2.1,3.8-3.3s2.6-2.5,3.9-3.7c1.3-1.3,2.6-2.7,3.8-4,1.2-1.4,2.5-2.8,3.6-4.2,1.1-1.4,2.3-2.8,3.3-4.3,1.1-1.4,2-2.8,2.9-4.2.5-.7.9-1.4,1.3-2,.4-.7.8-1.3,1.2-1.9.7-1.2,1.4-2.4,1.9-3.4.6-1,1-1.9,1.4-2.7.4-.8.7-1.4.8-1.8.4-.4.5-.6.5-.6Z"/>
    <line class="cls-4" x1="229.54" y1="149.2" x2="216.54" y2="206.9"/>
    <path d="m254.64,82.8s-.3.5-.7,1.2c-.2.4-.3.8-.3,1.3,0,.2,0,.4.1.7,0,.2.1.4.3.6.1.2.3.5.4.7.2.2.3.4.5.6.3.4.6.8.9,1.1.5.6.9,1,.9,1,0,0-.6-.1-1.3-.6-.4-.2-.7-.6-1.1-.9-.2-.2-.4-.4-.6-.6-.2-.3-.3-.4-.5-.7-.2-.3-.3-.6-.3-1-.1-.3-.1-.7,0-1,0-.3.2-.6.3-.8.1-.2.3-.4.4-.6.4-.8,1-1,1-1Z"/>
    <path d="m262.94,77.6s-.2.1-.5.3c-.3.2-.7.6-.8,1.1-.1.3-.1.6-.1.9s.1.7.3,1c.1.4.3.8.4,1.2.1.4.3.8.4,1.2.3.8.6,1.6,1.1,1.9.2.2.5.3.9.3h.9c.6-.1,1.1-.2,1.4-.3.4-.1.6-.1.6-.1,0,0-.2.1-.5.3l-.6.3c-.2.1-.5.2-.8.3-.3.1-.7.2-1.1.2s-.8-.1-1.2-.3c-.4-.3-.7-.6-1-1.1-.2-.4-.4-.8-.6-1.3-.3-.9-.5-1.7-.8-2.5-.1-.4-.2-.9-.2-1.3s.1-.9.3-1.2c.3-.7.9-1,1.3-1.1.4.2.6.2.6.2Z"/>
    <path class="cls-3" d="m267.24,72s-.9.8-1.7,2.2"/>
    <path d="m268.54,80.5s.1-.2.4-.5c.2-.3.5-.6.8-.8.3-.3.6-.5.8-.8.1-.1.2-.2.3-.3l.1-.1s.1.3,0,.6c-.1.4-.4.8-.7,1.1-.3.3-.7.5-1.1.6-.3.2-.6.2-.6.2Z"/>
    <path d="m228.64,90.2s.1,0,.1.1c.1.1.2.3.2.5.1.2.1.5.1.8v1.1c-.1.8-.2,1.7-.5,2.7s-.6,2-1,2.9c-.8,1.9-1.8,3.8-2.6,5.1-.4.7-.8,1.2-1,1.6s-.4.6-.4.6c0,0,.1-.3.2-.7.2-.4.4-1,.7-1.7s.6-1.6,1-2.4c.4-.9.8-1.8,1.2-2.8.2-.5.4-.9.6-1.4.2-.5.4-.9.5-1.4.3-.9.6-1.8.8-2.5.1-.4.1-.7.2-1v-.8c0-.2,0-.4-.1-.5v-.2Z"/>
  </g>
</svg>