<?xml version="1.0" encoding="UTF-8"?>
<svg id="Lager_1" data-name="Lager 1" xmlns="http://www.w3.org/2000/svg" xmlns:xlink="http://www.w3.org/1999/xlink" viewBox="0 0 351.5 280.85">
  <defs>
    <style>
      .cls-1 {
        fill: url(#linear-gradient-2);
      }

      .cls-2 {
        stroke-width: 1.6px;
      }

      .cls-2, .cls-3, .cls-4 {
        stroke-linecap: round;
      }

      .cls-2, .cls-3, .cls-4, .cls-5 {
        fill: none;
        stroke: #000;
      }

      .cls-6 {
        fill: #fff;
      }

      .cls-3 {
        stroke-width: .75px;
      }

      .cls-4 {
        stroke-width: 2px;
      }

      .cls-7 {
        fill: url(#linear-gradient-3);
      }

      .cls-8 {
        fill: url(#linear-gradient);
      }
    </style>
    <linearGradient id="linear-gradient" x1="25.55" y1="-542.59" x2="32.25" y2="-532.65" gradientTransform="translate(0 -333.18) scale(1 -1)" gradientUnits="userSpaceOnUse">
      <stop offset="0" stop-color="#fff"/>
      <stop offset="1" stop-color="#ededed"/>
    </linearGradient>
    <linearGradient id="linear-gradient-2" x1="167.88" y1="1189.71" x2="178.34" y2="1164.46" gradientTransform="translate(0 -964.66)" gradientUnits="userSpaceOnUse">
      <stop offset="0" stop-color="#fff"/>
      <stop offset="1" stop-color="#ededed"/>
    </linearGradient>
    <linearGradient id="linear-gradient-3" x1="-85.76" y1="-747.98" x2="-77.22" y2="-735.3" gradientTransform="translate(64.59 -480.59) rotate(-24.71) scale(1 -1)" gradientUnits="userSpaceOnUse">
      <stop offset="0" stop-color="#fff"/>
      <stop offset="1" stop-color="#ededed"/>
    </linearGradient>
  </defs>
  <rect class="cls-6" y="27.02" width="349" height="226.8"/>
  <g>
    <g id="Färg">
      <polygon class="cls-8" points="43.5 226.12 58 204.12 62.6 198.52 54.3 195.42 40.4 186.82 32.3 177.62 27.9 172.42 3.1 198.62 43.5 226.12"/>
    </g>
    <path class="cls-4" d="m11.2,192.92l30.2-36.8s19.6-37.4,23.7-43.5c4.2-6.1,19.8-29.5,21.2-30.7,1.4-1.2,24.3-.6,25.7-.6s11.2,6.1,12.6,6.1"/>
    <path class="cls-4" d="m70.4,112.02l15.6-12.2c1.1-.8,3-1.5,4.3-1.5l14.5.2c1.3,0,3.2.7,4.3,1.6l2.3,1.8"/>
    <line class="cls-4" x1="110.8" y1="101.42" x2="119.4" y2="104.42"/>
    <path d="m78.5,120.02c1.2-.5,2.2-1.2,3.3-2,.3-.2.5-.4.8-.6.2-.2.5-.4.7-.6.5-.4,1-.9,1.4-1.3.2-.2.4-.5.7-.7.2-.2.4-.5.6-.7.4-.5.8-1,1.2-1.5.4-.5.7-1.1,1.1-1.6.2-.3.3-.6.5-.8l.5-.8.4-.7.7.4c.2.1.4.2.6.3.2.1.5.2.7.3.5.2,1,.3,1.5.4,1,.2,2,.2,3.1,0,2-.3,4-1.3,5.7-2.6l.5-.4.5.4c.3.2.7.5,1,.7.4.2.7.4,1.1.6.7.4,1.5.7,2.3,1s1.6.5,2.4.6c.4.1.8.1,1.2.1s.8,0,1.2-.1c.4-.1.8-.1,1.2-.2.4-.1.8-.3,1.2-.4.4-.2.8-.4,1.1-.6.4-.2.7-.5,1.1-.7.7-.5,1.3-1.2,1.9-1.9.3-.3.6-.7.8-1.1l.8-1.1-.6,1.3c-.2.4-.4.8-.7,1.2-.5.8-1.1,1.5-1.7,2.2-.3.3-.7.7-1.1.9-.4.3-.8.5-1.2.8-.4.2-.8.4-1.3.6-.4.2-.9.3-1.3.4-1.8.4-3.7.3-5.5-.3-.9-.3-1.8-.6-2.6-1-.4-.2-.8-.4-1.2-.7-.4-.2-.8-.5-1.2-.8h1c-.9.8-2,1.4-3.1,1.9s-2.3.9-3.4,1c-1.2.2-2.4.1-3.6-.1-.6-.1-1.2-.3-1.7-.5-.3-.1-.6-.2-.8-.4-.3-.1-.5-.3-.8-.5l1.1-.3c-.4.6-.7,1.2-1.1,1.7s-.8,1.1-1.3,1.6c-.4.5-.9,1-1.4,1.5l-.7.7c-.3.2-.5.5-.8.7-.5.4-1,.8-1.6,1.2-.3.2-.6.4-.8.5-.3.2-.6.3-.8.5-.6.3-1.2.6-1.8.8-.6.3-1.2.5-1.8.7Z"/>
    <path class="cls-4" d="m96.1,78.22l4-3.2c1.2-.9,3.3-1.4,4.7-1.1l21.4,4.4c1.4.3,3.2,1.6,3.9,3l4.5,8.2"/>
    <line class="cls-4" x1="123.9" y1="88.42" x2="133.5" y2="91.92"/>
    <line class="cls-4" x1="133.2" y1="86.92" x2="142.2" y2="95.02"/>
    <path d="m99.8,94.52c.6.5,1.2.7,1.9.9.7.2,1.3.4,2,.5.3.1.7.1,1,.1s.7.1,1,.1h2c.3,0,.7,0,1-.1l1-.1c.7-.1,1.4-.1,2.1-.2s1.4-.2,2.1-.3l2.1-.4.3-.1.3.2c.3.2.7.4,1.1.5.4.2.8.3,1.1.5.8.3,1.6.5,2.4.7s1.6.3,2.4.4,1.6.1,2.4,0c1.6-.2,3.2-.7,4.5-1.7.4-.2.7-.5,1-.8s.6-.6.9-.9c.3-.3.6-.7.8-1,.3-.3.5-.7.8-1.1-.2.4-.3.9-.5,1.3s-.4.8-.7,1.2c-.2.4-.5.8-.8,1.1-.3.3-.6.7-1,1-.3.3-.7.6-1.1.9-.4.2-.8.5-1.2.7s-.8.4-1.3.5c-.4.1-.9.3-1.3.3-.4.1-.9.2-1.3.2h-1.4c-.9,0-1.8-.1-2.7-.3-.9-.2-1.7-.4-2.6-.7-.4-.2-.8-.3-1.3-.5-.4-.2-.8-.4-1.3-.6l.6.1-2.1.3c-.4.1-.7.1-1.1.1l-1.1.1c-.7.1-1.4.1-2.2.1-.7,0-1.4,0-2.2-.1-.7-.1-1.4-.1-2.2-.3-.4-.1-.7-.1-1.1-.2s-.7-.2-1.1-.3c-.7-.2-1.4-.5-2-.9-.2-.1-.8-.6-1.2-1.2Z"/>
    <path d="m103,95.12s0,.3-.2.7c-.2.4-.5.9-.9,1.2-.4.4-.9.6-1.3.7s-.7.1-.7.1c0,0,.1-.3.4-.6.2-.3.6-.7.9-1,.4-.3.8-.6,1.1-.8.5-.2.7-.3.7-.3Z"/>
    <path d="m129.2,98.82s.9.1,2.3.1h2.3c.4,0,.8-.1,1.2-.1.4-.1.8-.1,1.2-.2s.8-.2,1.2-.3c.2-.1.4-.1.6-.2.2-.1.4-.1.6-.2.4-.1.7-.3,1-.5.2-.1.3-.2.5-.2.1-.1.3-.2.4-.3.3-.2.6-.3.8-.5s.4-.3.6-.4c.3-.2.6-.4.6-.4,0,0-.1.2-.3.6-.1.2-.2.4-.4.7-.2.3-.4.5-.6.8-.1.1-.2.3-.4.5-.1.1-.3.3-.5.4-.3.3-.7.6-1.1.8s-.8.5-1.3.6c-.5.2-.9.3-1.4.4s-1,.1-1.4.2c-.5,0-.9,0-1.4-.1-.9-.1-1.7-.4-2.4-.6-1.4-.4-2.1-1.1-2.1-1.1Z"/>
    <path d="m104.6,112.02s.1.1.1.3c.1.2.1.5.2.9,0,.4,0,.8-.1,1.2-.1.4-.2.9-.4,1.3-.2.4-.4.8-.6,1.2-.2.4-.5.7-.7.9-.4.5-.8.8-.8.8,0,0,.1-.5.4-1.1.2-.6.6-1.4.9-2.2.2-.4.3-.8.5-1.2.1-.4.3-.7.4-1,.1-.6.1-1.1.1-1.1Z"/>
    <path class="cls-4" d="m102,113.52s2.7,26.2,3.3,31,7,7.6,8.7,7.9,9.1.4,9.1.4c0,0,18.5-12.6,23.9.5"/>
    <path class="cls-4" d="m45,224.22l24.8-36.2s24-2.7,33.7-10.4c11.7-9.3,11.8-6.6,20.8-7.1,4.3-.2,10.1-.1,13.7-5.9s3-5.2,3-5.2"/>
    <line class="cls-4" x1="146.9" y1="153.32" x2="138.8" y2="160.02"/>
    <path d="m89.1,115.92c0,.9,0,1.9-.1,2.8s-.3,1.9-.5,2.8c-.1.5-.2.9-.4,1.4l-.5,1.3-.6,1.4c-.2.4-.4.8-.6,1.3-.2.4-.5.8-.7,1.2-.3.4-.5.8-.8,1.2l-.9,1.1c-.3.4-.6.7-.9,1s-.6.7-1,1l-1,.9c-.3.3-.7.6-1.1.8l-1.1.8.4-.7c0,2.2-.1,4.4-.3,6.5-.2,2.2-.4,4.3-.7,6.5-.1,1.1-.3,2.2-.5,3.2-.2,1.1-.4,2.1-.6,3.2-.4,2.1-.9,4.3-1.5,6.3-.3,1-.6,2.1-.9,3.1s-.7,2.1-1.1,3.1-.8,2-1.3,3l-.7,1.4-.7,1.5c-.6.9-1.1,1.8-1.8,2.7-.3.4-.6.8-1,1.2s-.7.8-1.1,1.1c-.7.7-1.6,1.4-2.4,2-.4.3-.9.5-1.3.8l-1.4.6,1.3-.8c.4-.3.8-.6,1.2-.9.8-.7,1.5-1.4,2.2-2.2.3-.4.6-.8.9-1.2s.6-.8.9-1.3c.6-.9,1.1-1.8,1.5-2.7l.7-1.4.6-1.4c.4-1,.8-1.9,1.1-2.9.7-2,1.3-4,1.8-6.1.3-1,.5-2.1.7-3.1s.4-2.1.6-3.1c.4-2.1.7-4.2,1-6.3.3-2.1.5-4.2.7-6.4.2-2.1.4-4.3.4-6.4v-.5l.4-.3,1.1-.7c.4-.2.7-.4,1.1-.7l1-.8c.4-.2.6-.6,1-.9l.9-.9.9-1c.3-.3.5-.7.8-1.1s.5-.7.7-1.1.5-.8.7-1.2l.6-1.2.6-1.2c.2-.4.3-.9.5-1.3.3-.9.6-1.8.8-2.7.1-.8.3-1.7.4-2.7Z"/>
    <path d="m123.1,152.12s0,.7.1,1.6c0,.5.1,1,.2,1.6s.2,1.2.3,1.8c.1.3.1.6.2.9.1.3.2.6.3.9.2.6.4,1.1.6,1.5l.3.6c.1.2.2.3.2.4.1.3.2.4.2.4,0,0-.1-.1-.3-.3-.2-.2-.5-.5-.8-.9-.2-.2-.3-.4-.4-.7-.2-.2-.3-.5-.4-.8-.3-.6-.5-1.2-.6-1.9s-.2-1.3-.2-2c0-.6,0-1.2.1-1.7-.1-.8.2-1.4.2-1.4Z"/>
    <path class="cls-5" d="m29.7,173.52s5.1,12.2,29,24.3"/>
    <path d="m116.7,107.12s-.5.1-1.2.1c-.4,0-.8-.1-1.2-.2-.4-.1-.9-.3-1.3-.6-.2-.1-.4-.3-.6-.4-.2-.2-.4-.3-.5-.5-.3-.4-.6-.8-.7-1.2-.1-.2-.1-.4-.1-.6v-.4c0-.2.1-.4.1-.4,0,0,0,.1.1.3.1.2.2.5.4.8.2.3.5.6.8.8.2.1.3.3.5.4s.4.2.6.4c.4.2.8.4,1.2.6.4.2.8.3,1.1.5.3.2.8.4.8.4Z"/>
    <path d="m123.2,89.22s.1.2.1.5c.1.3.3.7.6,1.1.3.4.7.8,1.2,1.3.5.4,1.1.8,1.6,1.2.3.2.6.4.9.5.3.2.6.3.9.5.3.1.6.3.8.4.1,0,.4,0,.6-.1.4-.2.8-.6,1-.8.2-.2.4-.4.4-.4,0,0-.1.2-.2.5-.2.3-.4.7-.8,1.1-.2.2-.5.4-1,.4-.4-.1-.6-.2-1-.3-.6-.2-1.3-.6-1.9-1-1.2-.8-2.3-1.9-2.8-3-.1-.3-.2-.5-.3-.8-.1-.2-.1-.5-.1-.6,0-.3,0-.5,0-.5Z"/>
    <path d="m136.8,97.62s-.4,0-.8-.2c-.5-.2-1-.6-1.5-1.1s-.8-1.1-1-1.6-.2-.9-.2-.9c0,0,.3.2.7.5s.8.8,1.3,1.2c.4.5.8.9,1.2,1.3.1.6.3.8.3.8Z"/>
  </g>
  <g>
    <polygon class="cls-1" points="196.8 230.52 206.7 190.22 186 188.32 163.2 179.32 163.7 181.02 155.7 193.82 139.8 217.52 196.8 230.52"/>
    <path class="cls-5" d="m168.1,180.72s13.7,10.1,36,9.2"/>
    <path class="cls-4" d="m143.2,214.52c0-1,23.4-37,24.2-41.9s12.7-70.1,12.7-70.1"/>
    <path class="cls-4" d="m178.8,102.32s-2-9.6,4.6-12.3"/>
    <path class="cls-4" d="m187.6,99.72l23.7-13c1.3-.7,3.4-.8,4.8-.3l16.1,6.3c1.3.5,3,2.1,3.6,3.5l2.2,4.9"/>
    <path class="cls-4" d="m188,87.92l29.3-15.6c1.3-.7,3.3-.5,4.5.3l19.2,14.2c1.2.9,2.7,2.7,3.4,4.1l2.1,4.2"/>
    <path class="cls-2" d="m228.2,64.32l4.3-.4c1.4-.1,3.4.7,4.4,1.8l9.9,11.3c1,1.1,2.2,3.2,2.8,4.7l1.4,3.8"/>
    <path class="cls-4" d="m184.2,89.42l34.1-26.5c1.2-.9,3.1-.9,4.2.1l21.2,17.2c1.1.9,2.6,2.8,3.3,4.2l3,6.1"/>
    <path class="cls-4" d="m203.3,111.82s4.7-.9,8-6.3"/>
    <path class="cls-4" d="m209.9,104.62s7.2,3.1,15.5,1.7"/>
    <path class="cls-4" d="m222.5,104.82s10.9,15.4,20.3,4l-4.9-6.9"/>
    <path class="cls-4" d="m243.6,110.52s5.1,1.3,8-5.8l-5.2-7.7"/>
    <path class="cls-4" d="m250.3,91.52l4,8s-1.5,3.1-2.7,3.3"/>
    <path class="cls-4" d="m223.6,110.02l3.7,9.7s2.8,2.2,6.9,2.2"/>
    <line class="cls-4" x1="231.5" y1="123.82" x2="241.2" y2="115.82"/>
    <path class="cls-4" d="m241,112.22s.8,4.2,1.2,5.9"/>
    <path d="m207.6,111.42s.2.1.4.6c.1.2.2.5.2.8.1.3.1.7.1,1v1.2c0,.4-.1.9-.2,1.4-.1.5-.1,1-.3,1.4-.1.5-.2,1-.4,1.5-.3,1-.6,1.9-.9,2.8-.2.4-.4.8-.5,1.2-.2.4-.3.8-.5,1.1-.3.7-.6,1.2-.8,1.6s-.3.6-.3.6c0,0,.1-.2.2-.7.1-.4.3-1,.5-1.7s.5-1.5.7-2.4c.3-.9.6-1.8.8-2.8.2-.5.3-.9.4-1.4.1-.5.2-.9.3-1.4.1-.4.2-.9.3-1.3,0-.4.1-.8.2-1.2.1-.7.1-1.3,0-1.8-.1-.3-.2-.5-.2-.5Z"/>
    <path d="m204.6,122.72s.1.9.2,2.4c.1,1.6.2,3.8.3,6.4.1,2.7.2,5.8.3,9.1.1,3.3.1,6.9.1,10.5,0,1.8-.1,3.6-.1,5.3,0,.9-.1,1.8-.2,2.6-.1.9-.1,1.7-.4,2.6-.5,1.7-1.4,3.1-2.2,4.3-.9,1.2-1.8,2.3-2.7,3.3-1.7,1.9-3.4,3.3-4.5,4.2-.6.5-1.1.8-1.4,1-.3.2-.5.3-.5.3,0,0,.2-.1.5-.4.3-.2.8-.6,1.3-1.1,1.1-1,2.6-2.5,4.3-4.4.8-1,1.7-2.1,2.5-3.3s1.6-2.6,2-4.1c.2-.7.3-1.6.3-2.4.1-.8.1-1.7.1-2.6.1-1.7.1-3.5.1-5.3v-26c0-1.5,0-2.4,0-2.4Z"/>
    <path d="m189.6,172.12s.2-.1.5-.3.8-.5,1.4-.9c.6-.4,1.2-.8,2-1.2.7-.4,1.5-.9,2.3-1.3.8-.4,1.5-.9,2.3-1.3.7-.4,1.4-.8,1.9-1.2.6-.4,1-.7,1.3-.9s.5-.4.5-.4c0,0-.1.2-.4.5-.1.2-.3.4-.5.6-.2.2-.4.5-.7.7-.5.5-1.1,1-1.8,1.5s-1.5,1-2.2,1.4c-1.6.9-3.2,1.7-4.5,2.1-.6.2-1.2.4-1.5.5-.3.1-.6.2-.6.2Z"/>
    <path d="m225.3,114.42s.1.3.3,1c.2.6.5,1.5.8,2.5.7,2.1,1.4,5,2.2,7.8.7,2.9,1.3,5.8,1.7,8,.2,1.1.3,2,.4,2.7.1.6.1,1,.1,1,0,0-.4-1.4-1-3.5s-1.4-5-2.1-7.8c-.7-2.9-1.3-5.8-1.8-7.9-.2-1.1-.4-2-.5-2.6-.1-.9-.1-1.2-.1-1.2Z"/>
    <path class="cls-4" d="m250.5,84.12l4.3,8.9s-.9,1.4-2,1.4"/>
    <path class="cls-4" d="m255.5,94.62s3.9.7.8,12.6"/>
    <path d="m256.7,107.82s.2.5.6,1.3c.2.4.4.9.5,1.5.2.6.4,1.3.6,2.1.2.8.4,1.6.5,2.5s.2,1.9.2,2.9c0,.5,0,1-.1,1.6,0,.5-.1,1.1-.2,1.6-.2,1.1-.6,2.1-1.1,3.2-.3.5-.6.9-.9,1.4-.3.4-.7.8-1,1.1-.7.8-1.4,1.4-2.1,2.1-1.4,1.3-2.8,2.3-4,3.2-2.4,1.7-4.2,2.5-4.2,2.5,0,0,1.4-1.4,3.6-3.4,1.1-1,2.3-2.2,3.5-3.6.6-.7,1.2-1.4,1.9-2.1.3-.4.6-.7.9-1.1.2-.4.5-.7.7-1.1.4-.8.8-1.7.9-2.6.1-.5.2-.9.3-1.4.1-.5.1-.9.1-1.4s.1-.9.1-1.4v-1.3c0-.9-.1-1.7-.1-2.4-.1-1.5-.3-2.8-.4-3.7-.2-1-.3-1.5-.3-1.5Z"/>
    <path d="m246.3,131.42s-.2,1-.8,2.6c-.3.8-.6,1.8-1.1,2.9-.4,1.1-1,2.3-1.7,3.6-.7,1.3-1.4,2.7-2.2,4.1-.9,1.4-1.7,2.9-2.8,4.4-1,1.5-2.1,3-3.3,4.5-1.1,1.5-2.4,2.9-3.7,4.4-1.3,1.4-2.7,2.7-4,4.1-1.4,1.3-2.8,2.5-4.1,3.6-1.4,1.1-2.7,2.1-4,3.1s-2.6,1.8-3.7,2.5c-1.2.8-2.2,1.5-3.2,2s-1.8,1-2.6,1.4c-1.4.8-2.2,1.2-2.2,1.2,0,0,.7-.6,2.1-1.5.7-.5,1.5-1,2.4-1.7.9-.6,1.9-1.5,3-2.3.5-.4,1.1-.9,1.7-1.3.6-.5,1.2-.9,1.8-1.5,1.2-1,2.5-2.1,3.8-3.3s2.6-2.5,3.9-3.7c1.3-1.3,2.6-2.7,3.8-4,1.2-1.4,2.5-2.8,3.6-4.2,1.1-1.4,2.3-2.8,3.3-4.3,1.1-1.4,2-2.8,2.9-4.2.5-.7.9-1.4,1.3-2,.4-.7.8-1.3,1.2-1.9.7-1.2,1.4-2.4,1.9-3.4.6-1,1-1.9,1.4-2.7.4-.8.7-1.4.8-1.8.4-.4.5-.6.5-.6Z"/>
    <line class="cls-4" x1="211.4" y1="169.62" x2="198.4" y2="227.32"/>
    <path d="m236.5,103.22s-.3.5-.7,1.2c-.2.4-.3.8-.3,1.3,0,.2,0,.4.1.7,0,.2.1.4.3.6.1.2.3.5.4.7.2.2.3.4.5.6.3.4.6.8.9,1.1.5.6.9,1,.9,1,0,0-.6-.1-1.3-.6-.4-.2-.7-.6-1.1-.9-.2-.2-.4-.4-.6-.6-.2-.3-.3-.4-.5-.7-.2-.3-.3-.6-.3-1-.1-.3-.1-.7,0-1,0-.3.2-.6.3-.8.1-.2.3-.4.4-.6.4-.8,1-1,1-1Z"/>
    <path d="m244.8,98.02s-.2.1-.5.3c-.3.2-.7.6-.8,1.1-.1.3-.1.6-.1.9s.1.7.3,1c.1.4.3.8.4,1.2.1.4.3.8.4,1.2.3.8.6,1.6,1.1,1.9.2.2.5.3.9.3h.9c.6-.1,1.1-.2,1.4-.3.4-.1.6-.1.6-.1,0,0-.2.1-.5.3l-.6.3c-.2.1-.5.2-.8.3-.3.1-.7.2-1.1.2s-.8-.1-1.2-.3c-.4-.3-.7-.6-1-1.1-.2-.4-.4-.8-.6-1.3-.3-.9-.5-1.7-.8-2.5-.1-.4-.2-.9-.2-1.3s.1-.9.3-1.2c.3-.7.9-1,1.3-1.1.4.2.6.2.6.2Z"/>
    <path class="cls-3" d="m249.1,92.42s-.9.8-1.7,2.2"/>
    <path d="m250.4,100.92s.1-.2.4-.5c.2-.3.5-.6.8-.8.3-.3.6-.5.8-.8.1-.1.2-.2.3-.3l.1-.1s.1.3,0,.6c-.1.4-.4.8-.7,1.1-.3.3-.7.5-1.1.6-.3.2-.6.2-.6.2Z"/>
    <path d="m210.5,110.62s.1,0,.1.1c.1.1.2.3.2.5.1.2.1.5.1.8v1.1c-.1.8-.2,1.7-.5,2.7s-.6,2-1,2.9c-.8,1.9-1.8,3.8-2.6,5.1-.4.7-.8,1.2-1,1.6s-.4.6-.4.6c0,0,.1-.3.2-.7.2-.4.4-1,.7-1.7s.6-1.6,1-2.4c.4-.9.8-1.8,1.2-2.8.2-.5.4-.9.6-1.4.2-.5.4-.9.5-1.4.3-.9.6-1.8.8-2.5.1-.4.1-.7.2-1v-.8c0-.2,0-.4-.1-.5v-.2Z"/>
  </g>
  <g>
    <g id="Färg-2" data-name="Färg">
      <polygon class="cls-7" points="324.2 235.82 322.6 213.32 323.3 197.22 319.7 199.12 306.1 200.52 294.7 199.22 283.4 195.92 274.3 235.62 324.2 235.82"/>
    </g>
    <path d="m281.8,43.02c1.1-.6,2.4-1.1,3.7-1.3,1.3-.2,2.7-.1,4,.3,1.3.4,2.5,1.3,3.5,2.4s1.7,2.4,2.2,3.7c1,2.7,1.4,5.6,1.5,8.4s0,5.6-.3,8.4l-.2-.8c.3.5.5.9.7,1.3.2.4.4.9.6,1.3.3.9.6,1.8.9,2.7.5,1.9.9,3.8,1,5.7.2,1.9.2,3.9.1,5.8-.2,1.9-.5,3.8-1,5.7v-.6c.5,2.1.9,4.2,1.2,6.3.2,1.1.3,2.1.5,3.2.1,1.1.2,2.1.3,3.2.1,1.1.2,2.1.2,3.2v3.2c0,.5-.1,1.1-.1,1.6s-.1,1.1-.1,1.6c-.1.5-.1,1.1-.2,1.6l-.3,1.6.1-1.6v-1.6c0-1.1-.1-2.1-.1-3.2l-.1-1.6c0-.5-.1-1-.2-1.6-.1-1-.3-2.1-.4-3.1-.3-2.1-.7-4.1-1.2-6.2-.2-1-.5-2.1-.7-3.1-.3-1-.5-2-.8-3l-.1-.3.1-.3c.4-1.7.7-3.5.8-5.3.1-1.8.1-3.6-.1-5.3-.2-1.8-.5-3.5-1-5.2-.2-.9-.5-1.7-.8-2.5-.2-.4-.3-.8-.5-1.2s-.4-.8-.5-1.1l-.5-.3v-.4c.1-1.3.3-2.7.4-4s.1-2.7.1-4c0-2.7-.3-5.3-1-7.8-.4-1.2-.9-2.4-1.6-3.4s-1.7-1.8-2.8-2.3c-1.1-.5-2.3-.7-3.6-.7-1.2,0-2.5.2-3.7.6Z"/>
    <path class="cls-5" d="m286.4,196.52s10.3,7.5,34,2.4"/>
    <path d="m284,43.72s.2,0,.6.1,1,.2,1.6.5c.3.2.7.4,1,.7.3.3.6.7.8,1.3.1.3.1.6.1.9,0,.2,0,.5-.1.7-.1.5-.1,1-.2,1.5-.4,2-1.2,3.9-2.3,5-.5.6-1.1.8-1.5.9-.2.1-.4.1-.5.1h-.2s.2,0,.6-.2.8-.5,1.2-1.1c.8-1.1,1.4-3,1.8-4.9.1-.5.2-.9.2-1.4,0-.2.1-.5.1-.7v-.5c-.1-.7-.7-1.3-1.3-1.7-.5-.4-1.1-.7-1.4-.9-.3-.2-.5-.3-.5-.3Z"/>
    <path class="cls-4" d="m282.9,104.62c.2-1.7,1.2-29.3,1.2-29.3l-1.4-20"/>
    <path class="cls-4" d="m290.9,118.82s18.9-10.2,23.8-12.8c4.9-2.6,14,7.8,17.7,12.1s4.4,9.1,3.4,11.7"/>
    <path class="cls-4" d="m294.4,128.22s25.2-6.7,28.4-6.5,13.7,10.5,16,14.4c2.3,3.8-1.7,10.3-1.7,10.3"/>
    <line class="cls-4" x1="337.2" y1="145.82" x2="334.1" y2="155.42"/>
    <path class="cls-4" d="m333,101.62s3.5-9.3,13.8-5.3"/>
    <line class="cls-4" x1="347.1" y1="96.72" x2="344.5" y2="108.32"/>
    <path class="cls-4" d="m344.3,104.42s2.6,10.3,1.4,13.7c-1.3,3.4-5.7,14.5-5.7,14.5"/>
    <path class="cls-4" d="m333.3,158.02s-1.5,13.1-10.4,25.2l1.6,48.8"/>
    <line class="cls-4" x1="283.6" y1="54.52" x2="282.5" y2="43.62"/>
    <path d="m314.3,140.32c.5.2,1,.3,1.5.4s1,.2,1.5.2h1.4c.5,0,1-.1,1.5-.1.2,0,.5-.1.7-.1s.5-.1.7-.2l.7-.2.7-.3c.5-.1.9-.4,1.3-.6.2-.1.4-.2.6-.4l.6-.4,1.4-.8v2.5c0,.3.1.6.1.9.1.6.3,1.1.6,1.6.3.5.6.8,1,1s.9.3,1.4.3l2.1-.1-1.4,1.5c-.1.2-.3.4-.5.6s-.3.5-.4.7c-.3.5-.5,1-.6,1.5-.2,1-.2,2.2.3,3.2s1.2,1.9,2.1,2.7c.4.4.9.7,1.4,1.1.5.3,1,.7,1.5,1-.6-.2-1.1-.4-1.6-.6-.5-.2-1.1-.5-1.6-.9-1-.7-2-1.5-2.7-2.6-.3-.6-.6-1.2-.7-1.9-.1-.7-.1-1.4,0-2.1s.3-1.4.6-2c.1-.3.3-.6.5-.9s.3-.6.6-.9l.7,1.5c-.7.1-1.5.1-2.3-.3-.8-.3-1.4-1-1.8-1.7s-.7-1.5-.8-2.2c-.1-.4-.1-.8-.1-1.1v-1.2l1.3.9-.7.4c-.2.1-.5.3-.7.4-.5.2-1,.4-1.5.6-.3.1-.5.2-.8.2l-.9.1c-.3.1-.5.1-.8.1s-.5.1-.8,0c-.5,0-1.1,0-1.6-.1s-1.1-.2-1.6-.3c-1.1-.3-2.1-.8-2.9-1.4Z"/>
    <path d="m318.5,140.22s.2,0,.5.2c.3.1.7.4,1.1.7.2.2.4.4.6.7.2.2.4.6.5.9s.3.7.4,1.1.1.8.2,1.2c0,.4,0,.8-.1,1.2-.1.4-.2.7-.3,1.1-.2.3-.3.6-.5.9s-.4.5-.5.7c-.3.4-.7.7-1,.9-.3.2-.4.3-.4.3,0,0,0-.2.1-.5s.2-.7.3-1.2c.1-.2.1-.5.2-.8,0-.3.1-.5.2-.8,0-.3.1-.6.1-.8v-.8c0-.6-.1-1.1-.2-1.7-.1-.3-.1-.5-.2-.8s-.2-.5-.3-.7c-.2-.4-.3-.8-.5-1.1-.1-.5-.2-.7-.2-.7Z"/>
    <path d="m319.9,146.92s.1.1.3.3c.2.2.4.5.7.9.5.8,1.2,2.1,1.9,3.6.7,1.6,1.4,3.4,1.9,5.5s.9,4.4,1,6.7c.1,1.2.1,2.3,0,3.4,0,1.1-.2,2.2-.4,3.3-.1.5-.2,1.1-.3,1.6-.1.5-.3,1-.4,1.5-.3.9-.6,1.8-.9,2.6s-.7,1.5-1,2.1-.6,1.1-.9,1.5c-.5.8-.9,1.3-.9,1.3,0,0,.2-.5.7-1.4.2-.4.4-1,.7-1.6.2-.6.5-1.3.8-2.1s.5-1.7.7-2.6c.2-.9.4-1.9.5-2.9s.2-2.1.2-3.2v-3.3c-.2-4.4-1.3-8.8-2.4-12-.5-1.6-1-2.9-1.4-3.8-.2-.4-.4-.8-.5-1-.2-.3-.3-.4-.3-.4Z"/>
    <polyline class="cls-6" points="296.2 98.32 302.3 94.12 303.8 109.32 300.8 111.42 295.2 111.72"/>
    <path class="cls-4" d="m275.4,230.62s8.7-36.8,8.6-43.1-10.5-62.2-9.9-67.1,16.8-16.1,22.6-20.1,15.1-9.9,18.9-7.5c3.8,2.3,17.5,11.4,18.7,15.2,1.2,3.8,1.4,12,1.4,12"/>
  </g>
</svg>