<?xml version="1.0" encoding="UTF-8"?>
<svg xmlns="http://www.w3.org/2000/svg" version="1.1" viewBox="0 0 310 266">
  <defs>
    <style>
      .cls-1 {
        fill: none;
        stroke: #fff;
        stroke-linejoin: round;
        stroke-width: .8px;
      }

      .cls-2 {
        fill: #fff;
      }

      .cls-3 {
        fill: #5bb2a3;
      }

      .cls-4 {
        fill: #76c0b5;
      }
    </style>
  </defs>
  <!-- Generator: Adobe Illustrator 28.7.4, SVG Export Plug-In . SVG Version: 1.2.0 Build 166)  -->
  <g>
    <g id="Kort">
      <g>
        <rect class="cls-2" x="50.4" y="52.6" width="220.1" height="174.7" rx="8.8" ry="8.8" transform="translate(-13.8 17.5) rotate(-6)"/>
        <path class="cls-1" d="M252,53.6c-1.7-1.1-.8-5-2.9-4.8s-1.4,5.8-3.5,6.1-2.6-5.4-4.6-5.2-1.4,5.8-3.4,6.1-2.6-5.4-4.6-5.2-1.4,5.8-3.4,6.1-2.6-5.4-4.6-5.2-1.4,5.8-3.4,6.1-2.6-5.4-4.6-5.2-1.4,5.8-3.5,6.1-2.6-5.4-4.6-5.2-1.4,5.8-3.4,6.1-2.6-5.4-4.6-5.2-1.4,5.8-3.4,6.1-2.6-5.4-4.6-5.2-1.4,5.8-3.5,6.1-2.6-5.4-4.6-5.2-1.4,5.8-3.4,6.1-2.6-5.4-4.6-5.2-1.4,5.8-3.5,6.1-2.6-5.4-4.6-5.2-1.4,5.8-3.5,6.1-2.6-5.4-4.6-5.2-1.4,5.9-3.5,6.1-2.6-5.4-4.6-5.2-1.4,5.8-3.5,6.1-2.6-5.4-4.6-5.2-1.4,5.8-3.5,6.1-2.6-5.4-4.6-5.2-1.4,5.8-3.5,6.1-2.6-5.4-4.6-5.2-1.4,5.8-3.5,6.1-2.6-5.4-4.6-5.2-1.4,5.8-3.5,6.1-2.6-5.4-4.6-5.2-1.4,5.8-3.5,6.1-2.6-5.4-4.6-5.2-1.4,5.8-3.5,6.1-2.6-5.4-4.6-5.2-1.4,5.8-3.5,6.1-2.6-5.4-4.6-5.2-1.4,5.8-3.5,6.1-2.6-5.4-4.7-5.2-1.4,5.8-3.5,6.1-2.6-5.4-4.7-5.2-1.4,5.8-3.5,6.1-2.6-5.4-4.7-5.2-1.4,5.8-3.5,6.1-2.6-5.4-4.7-5.2-.3,3.9-1.8,5.3c-1.1,1.1-4.6-.2-4.4,1.4s5.8,1,6,2.5-5.5,2.2-5.3,3.7,5.8,1,6,2.5-5.5,2.2-5.3,3.7,5.8,1,6,2.5-5.5,2.2-5.3,3.7,5.8,1,6,2.5-5.5,2.2-5.3,3.7,5.8,1,6,2.5-5.5,2.2-5.3,3.7,5.8,1,6,2.5-5.5,2.2-5.3,3.7,5.8,1,6,2.5-5.5,2.2-5.3,3.7,5.8,1,6,2.5-5.5,2.2-5.3,3.7,5.8,1,6,2.5c.2,1.6-5.5,2.1-5.3,3.7s5.8,1,6,2.5-5.5,2.2-5.3,3.7,5.8,1,6,2.5-5.5,2.1-5.3,3.7,5.8,1,6,2.5-5.5,2.2-5.3,3.7,5.8,1,6,2.5-5.5,2.1-5.3,3.7,5.8,1,6,2.5-5.5,2.1-5.3,3.7,5.8,1,6,2.5-5.5,2.1-5.3,3.7,5.8,1,6,2.5-5.5,2.1-5.3,3.7,5.8,1,6,2.5-5.5,2.1-5.3,3.7,5.8,1,6,2.5-5.5,2.1-5.3,3.7,5.8,1,6,2.5-5.5,2.1-5.3,3.7,5.8,1,6,2.5-5.5,2.2-5.3,3.7,5.8,1,6,2.5-5.5,2.2-5.3,3.7,5.8,1,6,2.5-5.5,2.1-5.3,3.7,5.8,1,6,2.5-5.5,2.2-5.3,3.7,5.8,1,6,2.5-5.5,2.2-5.3,3.7,3.3-.4,4.6.4c1.7,1.1.8,5,2.8,4.8s1.4-5.9,3.5-6.1,2.6,5.4,4.6,5.2,1.4-5.9,3.4-6.1,2.6,5.4,4.6,5.2,1.4-5.9,3.4-6.1,2.6,5.4,4.6,5.2,1.4-5.9,3.4-6.1,2.6,5.4,4.6,5.2,1.4-5.9,3.5-6.1,2.6,5.4,4.6,5.2,1.4-5.9,3.4-6.1,2.6,5.4,4.6,5.2,1.4-5.9,3.4-6.1,2.6,5.4,4.6,5.2c2-.2,1.4-5.9,3.5-6.1s2.6,5.4,4.6,5.2,1.4-5.9,3.4-6.1,2.6,5.4,4.6,5.2,1.4-5.9,3.5-6.1,2.6,5.4,4.6,5.2,1.4-5.9,3.5-6.1,2.6,5.4,4.6,5.2,1.4-5.9,3.5-6.1,2.6,5.4,4.6,5.2,1.4-5.9,3.5-6.1,2.6,5.4,4.6,5.2,1.4-5.9,3.5-6.1,2.6,5.4,4.6,5.2,1.4-5.9,3.5-6.1,2.6,5.4,4.6,5.2,1.4-5.9,3.5-6.1,2.6,5.4,4.6,5.2,1.4-5.9,3.5-6.1,2.6,5.4,4.6,5.2,1.4-5.9,3.5-6.1,2.6,5.4,4.6,5.2,1.4-5.9,3.5-6.1,2.6,5.4,4.6,5.2,1.4-5.9,3.5-6.1,2.6,5.4,4.6,5.2,1.4-5.9,3.5-6.1,2.6,5.4,4.6,5.2,1.4-5.9,3.5-6.1,2.6,5.4,4.6,5.2,1.4-5.9,3.5-6.1,2.6,5.4,4.6,5.2,1.4-5.9,3.5-6.1,2.6,5.4,4.6,5.2.3-3.9,1.8-5.3c1.1-1.1,4.6.2,4.4-1.4s-5.8-1-6-2.5,5.5-2.1,5.3-3.7-5.8-1-6-2.5,5.5-2.1,5.3-3.7-5.8-1-6-2.5,5.5-2.1,5.3-3.7-5.8-1-6-2.5,5.5-2.1,5.3-3.7-5.8-1-6-2.5,5.5-2.1,5.3-3.7-5.8-1-6-2.5,5.5-2.1,5.3-3.7-5.8-1-6-2.5,5.5-2.1,5.3-3.7-5.8-1-6-2.5,5.5-2.1,5.3-3.7-5.8-1-6-2.5,5.5-2.1,5.3-3.7-5.8-1-6-2.5,5.5-2.2,5.3-3.7-5.8-1-6-2.5,5.5-2.1,5.3-3.7-5.8-1-6-2.5,5.5-2.2,5.3-3.7-5.8-1-6-2.5,5.5-2.2,5.3-3.7-5.8-1-6-2.5,5.5-2.2,5.3-3.7-5.8-1-6-2.5,5.5-2.2,5.3-3.7-5.8-1-6-2.5,5.5-2.2,5.3-3.7-5.8-1-6-2.5,5.5-2.2,5.3-3.7-5.8-1-6-2.5,5.5-2.2,5.3-3.7-5.8-1-6-2.5,5.5-2.2,5.3-3.7-5.8-1-6-2.5,5.5-2.2,5.3-3.7-5.8-1-6-2.5,5.5-2.2,5.3-3.7-5.8-1-6-2.5,5.5-2.2,5.3-3.7-5.8-1-6-2.5,5.5-2.2,5.3-3.7-5.8-1-6-2.5,5.6-2.6,5.2-4.2c-.3-1-3.2.8-4.6,0h0Z"/>
        <rect id="board" class="cls-3" x="58.7" y="61.4" width="203.6" height="157.1" rx="6.6" ry="6.6" transform="translate(-13.8 17.5) rotate(-6)"/>
        <g id="prickar">
          <g>
            <ellipse class="cls-4" cx="75.6" cy="220.1" rx="4.7" ry="4.7" transform="translate(-22.6 9.1) rotate(-6)"/>
            <ellipse class="cls-4" cx="84.8" cy="219.1" rx="4.7" ry="4.7" transform="translate(-22.4 10.1) rotate(-6)"/>
            <ellipse class="cls-4" cx="94.1" cy="218.1" rx="4.7" ry="4.7" transform="translate(-22.3 11) rotate(-6)"/>
            <ellipse class="cls-4" cx="103.3" cy="217.2" rx="4.7" ry="4.7" transform="translate(-22.1 12) rotate(-6)"/>
            <ellipse class="cls-4" cx="112.5" cy="216.2" rx="4.7" ry="4.7" transform="translate(-22 12.9) rotate(-6)"/>
            <ellipse class="cls-4" cx="121.8" cy="215.2" rx="4.7" ry="4.7" transform="translate(-21.8 13.9) rotate(-6)"/>
            <ellipse class="cls-4" cx="131" cy="214.2" rx="4.6" ry="4.7" transform="translate(-21.7 14.9) rotate(-6)"/>
            <ellipse class="cls-4" cx="140.3" cy="213.3" rx="4.6" ry="4.7" transform="translate(-21.5 15.8) rotate(-6)"/>
            <ellipse class="cls-4" cx="149.5" cy="212.3" rx="4.6" ry="4.7" transform="translate(-21.4 16.8) rotate(-6)"/>
            <ellipse class="cls-4" cx="158.8" cy="211.3" rx="4.6" ry="4.7" transform="translate(-21.2 17.8) rotate(-6)"/>
            <ellipse class="cls-4" cx="168" cy="210.3" rx="4.6" ry="4.7" transform="translate(-21.1 18.7) rotate(-6)"/>
            <ellipse class="cls-4" cx="177.3" cy="209.4" rx="4.6" ry="4.7" transform="translate(-20.9 19.7) rotate(-6)"/>
            <ellipse class="cls-4" cx="186.5" cy="208.4" rx="4.6" ry="4.7" transform="translate(-20.8 20.6) rotate(-6)"/>
            <ellipse class="cls-4" cx="195.7" cy="207.4" rx="4.6" ry="4.7" transform="translate(-20.6 21.6) rotate(-6)"/>
            <ellipse class="cls-4" cx="205" cy="206.5" rx="4.6" ry="4.7" transform="translate(-20.5 22.6) rotate(-6)"/>
            <ellipse class="cls-4" cx="74.6" cy="210.7" rx="4.7" ry="4.7" transform="translate(-21.6 8.9) rotate(-6)"/>
            <ellipse class="cls-4" cx="83.8" cy="209.7" rx="4.7" ry="4.7" transform="translate(-21.5 9.9) rotate(-6)"/>
            <ellipse class="cls-4" cx="93.1" cy="208.7" rx="4.7" ry="4.7" transform="translate(-21.3 10.9) rotate(-6)"/>
            <ellipse class="cls-4" cx="102.3" cy="207.8" rx="4.7" ry="4.7" transform="translate(-21.2 11.8) rotate(-6)"/>
            <ellipse class="cls-4" cx="111.6" cy="206.8" rx="4.7" ry="4.7" transform="translate(-21 12.8) rotate(-6)"/>
            <ellipse class="cls-4" cx="120.8" cy="205.8" rx="4.7" ry="4.7" transform="translate(-20.9 13.8) rotate(-6)"/>
            <ellipse class="cls-4" cx="130" cy="204.8" rx="4.6" ry="4.7" transform="translate(-20.7 14.7) rotate(-6)"/>
            <ellipse class="cls-4" cx="139.3" cy="203.9" rx="4.6" ry="4.7" transform="translate(-20.5 15.7) rotate(-6)"/>
            <ellipse class="cls-4" cx="148.5" cy="202.9" rx="4.6" ry="4.7" transform="translate(-20.4 16.6) rotate(-6)"/>
            <ellipse class="cls-4" cx="157.8" cy="201.9" rx="4.6" ry="4.7" transform="translate(-20.2 17.6) rotate(-6)"/>
            <ellipse class="cls-4" cx="167" cy="201" rx="4.6" ry="4.7" transform="translate(-20.1 18.6) rotate(-6)"/>
            <ellipse class="cls-4" cx="176.3" cy="200" rx="4.6" ry="4.7" transform="translate(-19.9 19.5) rotate(-6)"/>
            <ellipse class="cls-4" cx="185.5" cy="199" rx="4.6" ry="4.7" transform="translate(-19.8 20.5) rotate(-6)"/>
            <ellipse class="cls-4" cx="194.8" cy="198" rx="4.6" ry="4.7" transform="translate(-19.6 21.4) rotate(-6)"/>
            <ellipse class="cls-4" cx="204" cy="197.1" rx="4.6" ry="4.7" transform="translate(-19.5 22.4) rotate(-6)"/>
            <ellipse class="cls-4" cx="73.6" cy="201.3" rx="4.7" ry="4.7" transform="translate(-20.6 8.8) rotate(-6)"/>
            <ellipse class="cls-4" cx="82.8" cy="200.3" rx="4.7" ry="4.7" transform="translate(-20.5 9.8) rotate(-6)"/>
            <ellipse class="cls-4" cx="92.1" cy="199.3" rx="4.7" ry="4.7" transform="translate(-20.3 10.7) rotate(-6)"/>
            <ellipse class="cls-4" cx="101.3" cy="198.4" rx="4.7" ry="4.7" transform="translate(-20.2 11.7) rotate(-6)"/>
            <ellipse class="cls-4" cx="110.6" cy="197.4" rx="4.7" ry="4.7" transform="translate(-20 12.6) rotate(-6)"/>
            <ellipse class="cls-4" cx="119.8" cy="196.4" rx="4.7" ry="4.7" transform="translate(-19.9 13.6) rotate(-6)"/>
            <ellipse class="cls-4" cx="129.1" cy="195.5" rx="4.6" ry="4.7" transform="translate(-19.7 14.6) rotate(-6)"/>
            <ellipse class="cls-4" cx="138.3" cy="194.5" rx="4.6" ry="4.7" transform="translate(-19.6 15.5) rotate(-6)"/>
            <ellipse class="cls-4" cx="147.5" cy="193.5" rx="4.6" ry="4.7" transform="translate(-19.4 16.5) rotate(-6)"/>
            <ellipse class="cls-4" cx="156.8" cy="192.5" rx="4.6" ry="4.7" transform="translate(-19.3 17.4) rotate(-6)"/>
            <ellipse class="cls-4" cx="166" cy="191.6" rx="4.6" ry="4.7" transform="translate(-19.1 18.4) rotate(-6)"/>
            <ellipse class="cls-4" cx="175.3" cy="190.6" rx="4.6" ry="4.7" transform="translate(-19 19.4) rotate(-6)"/>
            <ellipse class="cls-4" cx="184.5" cy="189.6" rx="4.6" ry="4.7" transform="translate(-18.8 20.3) rotate(-6)"/>
            <ellipse class="cls-4" cx="193.8" cy="188.7" rx="4.6" ry="4.7" transform="translate(-18.7 21.3) rotate(-6)"/>
            <ellipse class="cls-4" cx="203" cy="187.7" rx="4.6" ry="4.7" transform="translate(-18.5 22.2) rotate(-6)"/>
            <ellipse class="cls-4" cx="72.6" cy="191.9" rx="4.7" ry="4.7" transform="translate(-19.7 8.6) rotate(-6)"/>
            <ellipse class="cls-4" cx="81.8" cy="190.9" rx="4.7" ry="4.7" transform="translate(-19.5 9.6) rotate(-6)"/>
            <ellipse class="cls-4" cx="91.1" cy="190" rx="4.7" ry="4.7" transform="translate(-19.4 10.6) rotate(-6)"/>
            <ellipse class="cls-4" cx="100.3" cy="189" rx="4.7" ry="4.7" transform="translate(-19.2 11.5) rotate(-6)"/>
            <ellipse class="cls-4" cx="109.6" cy="188" rx="4.7" ry="4.7" transform="translate(-19.1 12.5) rotate(-6)"/>
            <ellipse class="cls-4" cx="118.8" cy="187" rx="4.7" ry="4.7" transform="translate(-18.9 13.4) rotate(-6)"/>
            <ellipse class="cls-4" cx="128.1" cy="186.1" rx="4.6" ry="4.7" transform="translate(-18.7 14.4) rotate(-6)"/>
            <ellipse class="cls-4" cx="137.3" cy="185.1" rx="4.6" ry="4.7" transform="translate(-18.6 15.4) rotate(-6)"/>
            <ellipse class="cls-4" cx="146.6" cy="184.1" rx="4.6" ry="4.7" transform="translate(-18.4 16.3) rotate(-6)"/>
            <ellipse class="cls-4" cx="155.8" cy="183.2" rx="4.6" ry="4.7" transform="translate(-18.3 17.3) rotate(-6)"/>
            <ellipse class="cls-4" cx="165" cy="182.2" rx="4.6" ry="4.7" transform="translate(-18.1 18.3) rotate(-6)"/>
            <ellipse class="cls-4" cx="174.3" cy="181.2" rx="4.6" ry="4.7" transform="translate(-18 19.2) rotate(-6)"/>
            <ellipse class="cls-4" cx="183.5" cy="180.2" rx="4.6" ry="4.7" transform="translate(-17.8 20.2) rotate(-6)"/>
            <ellipse class="cls-4" cx="192.8" cy="179.3" rx="4.6" ry="4.7" transform="translate(-17.7 21.1) rotate(-6)"/>
            <ellipse class="cls-4" cx="202" cy="178.3" rx="4.6" ry="4.7" transform="translate(-17.5 22.1) rotate(-6)"/>
            <ellipse class="cls-4" cx="71.6" cy="182.5" rx="4.7" ry="4.7" transform="translate(-18.7 8.5) rotate(-6)"/>
            <ellipse class="cls-4" cx="80.9" cy="181.5" rx="4.7" ry="4.7" transform="translate(-18.5 9.4) rotate(-6)"/>
            <ellipse class="cls-4" cx="90.1" cy="180.6" rx="4.7" ry="4.7" transform="translate(-18.4 10.4) rotate(-6)"/>
            <ellipse class="cls-4" cx="99.3" cy="179.6" rx="4.7" ry="4.7" transform="translate(-18.2 11.4) rotate(-6)"/>
            <ellipse class="cls-4" cx="108.6" cy="178.6" rx="4.7" ry="4.7" transform="translate(-18.1 12.3) rotate(-6)"/>
            <ellipse class="cls-4" cx="117.8" cy="177.7" rx="4.7" ry="4.7" transform="translate(-17.9 13.3) rotate(-6)"/>
            <ellipse class="cls-4" cx="127.1" cy="176.7" rx="4.6" ry="4.7" transform="translate(-17.8 14.2) rotate(-6)"/>
            <ellipse class="cls-4" cx="136.3" cy="175.7" rx="4.6" ry="4.7" transform="translate(-17.6 15.2) rotate(-6)"/>
            <ellipse class="cls-4" cx="145.6" cy="174.7" rx="4.6" ry="4.7" transform="translate(-17.5 16.2) rotate(-6)"/>
            <ellipse class="cls-4" cx="154.8" cy="173.8" rx="4.6" ry="4.7" transform="translate(-17.3 17.1) rotate(-6)"/>
            <ellipse class="cls-4" cx="164.1" cy="172.8" rx="4.6" ry="4.7" transform="translate(-17.2 18.1) rotate(-6)"/>
            <ellipse class="cls-4" cx="173.3" cy="171.8" rx="4.6" ry="4.7" transform="translate(-17 19.1) rotate(-6)"/>
            <ellipse class="cls-4" cx="182.5" cy="170.9" rx="4.6" ry="4.7" transform="translate(-16.9 20) rotate(-6)"/>
            <ellipse class="cls-4" cx="191.8" cy="169.9" rx="4.6" ry="4.7" transform="translate(-16.7 21) rotate(-6)"/>
            <ellipse class="cls-4" cx="201" cy="168.9" rx="4.6" ry="4.7" transform="translate(-16.6 21.9) rotate(-6)"/>
            <ellipse class="cls-4" cx="70.6" cy="173.1" rx="4.7" ry="4.7" transform="translate(-17.7 8.3) rotate(-6)"/>
            <ellipse class="cls-4" cx="79.9" cy="172.2" rx="4.7" ry="4.7" transform="translate(-17.6 9.3) rotate(-6)"/>
            <ellipse class="cls-4" cx="89.1" cy="171.2" rx="4.7" ry="4.7" transform="translate(-17.4 10.3) rotate(-6)"/>
            <ellipse class="cls-4" cx="98.4" cy="170.2" rx="4.7" ry="4.7" transform="translate(-17.3 11.2) rotate(-6)"/>
            <ellipse class="cls-4" cx="107.6" cy="169.2" rx="4.7" ry="4.7" transform="translate(-17.1 12.2) rotate(-6)"/>
            <ellipse class="cls-4" cx="116.8" cy="168.3" rx="4.7" ry="4.7" transform="translate(-16.9 13.1) rotate(-6)"/>
            <ellipse class="cls-4" cx="126.1" cy="167.3" rx="4.6" ry="4.7" transform="translate(-16.8 14.1) rotate(-6)"/>
            <ellipse class="cls-4" cx="135.3" cy="166.3" rx="4.6" ry="4.7" transform="translate(-16.6 15.1) rotate(-6)"/>
            <ellipse class="cls-4" cx="144.6" cy="165.4" rx="4.6" ry="4.7" transform="translate(-16.5 16) rotate(-6)"/>
            <ellipse class="cls-4" cx="153.8" cy="164.4" rx="4.6" ry="4.7" transform="translate(-16.3 17) rotate(-6)"/>
            <ellipse class="cls-4" cx="163.1" cy="163.4" rx="4.6" ry="4.7" transform="translate(-16.2 17.9) rotate(-6)"/>
            <ellipse class="cls-4" cx="172.3" cy="162.4" rx="4.6" ry="4.7" transform="translate(-16 18.9) rotate(-6)"/>
            <ellipse class="cls-4" cx="181.6" cy="161.5" rx="4.6" ry="4.7" transform="translate(-15.9 19.9) rotate(-6)"/>
            <ellipse class="cls-4" cx="190.8" cy="160.5" rx="4.6" ry="4.7" transform="translate(-15.7 20.8) rotate(-6)"/>
            <ellipse class="cls-4" cx="200" cy="159.5" rx="4.6" ry="4.7" transform="translate(-15.6 21.8) rotate(-6)"/>
            <ellipse class="cls-4" cx="69.6" cy="163.7" rx="4.7" ry="4.7" transform="translate(-16.7 8.2) rotate(-6)"/>
            <ellipse class="cls-4" cx="78.9" cy="162.8" rx="4.7" ry="4.7" transform="translate(-16.6 9.1) rotate(-6)"/>
            <ellipse class="cls-4" cx="88.1" cy="161.8" rx="4.7" ry="4.7" transform="translate(-16.4 10.1) rotate(-6)"/>
            <ellipse class="cls-4" cx="97.4" cy="160.8" rx="4.7" ry="4.7" transform="translate(-16.3 11.1) rotate(-6)"/>
            <ellipse class="cls-4" cx="106.6" cy="159.8" rx="4.7" ry="4.7" transform="translate(-16.1 12) rotate(-6)"/>
            <ellipse class="cls-4" cx="115.9" cy="158.9" rx="4.7" ry="4.7" transform="translate(-16 13) rotate(-6)"/>
            <ellipse class="cls-4" cx="125.1" cy="157.9" rx="4.6" ry="4.7" transform="translate(-15.8 13.9) rotate(-6)"/>
            <ellipse class="cls-4" cx="134.3" cy="156.9" rx="4.6" ry="4.7" transform="translate(-15.7 14.9) rotate(-6)"/>
            <ellipse class="cls-4" cx="143.6" cy="156" rx="4.6" ry="4.7" transform="translate(-15.5 15.9) rotate(-6)"/>
            <ellipse class="cls-4" cx="152.8" cy="155" rx="4.6" ry="4.7" transform="translate(-15.4 16.8) rotate(-6)"/>
            <ellipse class="cls-4" cx="162.1" cy="154" rx="4.6" ry="4.7" transform="translate(-15.2 17.8) rotate(-6)"/>
            <ellipse class="cls-4" cx="171.3" cy="153.1" rx="4.6" ry="4.7" transform="translate(-15.1 18.7) rotate(-6)"/>
            <ellipse class="cls-4" cx="180.6" cy="152.1" rx="4.6" ry="4.7" transform="translate(-14.9 19.7) rotate(-6)"/>
            <ellipse class="cls-4" cx="189.8" cy="151.1" rx="4.6" ry="4.7" transform="translate(-14.8 20.7) rotate(-6)"/>
            <ellipse class="cls-4" cx="199.1" cy="150.1" rx="4.6" ry="4.7" transform="translate(-14.6 21.6) rotate(-6)"/>
            <ellipse class="cls-4" cx="68.6" cy="154.3" rx="4.7" ry="4.7" transform="translate(-15.8 8) rotate(-6)"/>
            <ellipse class="cls-4" cx="77.9" cy="153.4" rx="4.7" ry="4.7" transform="translate(-15.6 9) rotate(-6)"/>
            <ellipse class="cls-4" cx="87.1" cy="152.4" rx="4.7" ry="4.7" transform="translate(-15.5 9.9) rotate(-6)"/>
            <ellipse class="cls-4" cx="96.4" cy="151.4" rx="4.7" ry="4.7" transform="translate(-15.3 10.9) rotate(-6)"/>
            <ellipse class="cls-4" cx="105.6" cy="150.5" rx="4.7" ry="4.7" transform="translate(-15.1 11.9) rotate(-6)"/>
            <ellipse class="cls-4" cx="114.9" cy="149.5" rx="4.7" ry="4.7" transform="translate(-15 12.8) rotate(-6)"/>
            <ellipse class="cls-4" cx="124.1" cy="148.5" rx="4.7" ry="4.7" transform="translate(-14.8 13.8) rotate(-6)"/>
            <ellipse class="cls-4" cx="133.4" cy="147.6" rx="4.6" ry="4.7" transform="translate(-14.7 14.7) rotate(-6)"/>
            <ellipse class="cls-4" cx="142.6" cy="146.6" rx="4.6" ry="4.7" transform="translate(-14.5 15.7) rotate(-6)"/>
            <ellipse class="cls-4" cx="151.8" cy="145.6" rx="4.6" ry="4.7" transform="translate(-14.4 16.7) rotate(-6)"/>
            <ellipse class="cls-4" cx="161.1" cy="144.6" rx="4.6" ry="4.7" transform="translate(-14.2 17.6) rotate(-6)"/>
            <ellipse class="cls-4" cx="170.3" cy="143.7" rx="4.6" ry="4.7" transform="translate(-14.1 18.6) rotate(-6)"/>
            <ellipse class="cls-4" cx="179.6" cy="142.7" rx="4.6" ry="4.7" transform="translate(-13.9 19.6) rotate(-6)"/>
            <ellipse class="cls-4" cx="188.8" cy="141.7" rx="4.6" ry="4.7" transform="translate(-13.8 20.5) rotate(-6)"/>
            <ellipse class="cls-4" cx="198.1" cy="140.7" rx="4.6" ry="4.7" transform="translate(-13.6 21.5) rotate(-6)"/>
            <ellipse class="cls-4" cx="67.7" cy="145" rx="4.7" ry="4.7" transform="translate(-14.8 7.9) rotate(-6)"/>
            <ellipse class="cls-4" cx="76.9" cy="144" rx="4.7" ry="4.7" transform="translate(-14.6 8.8) rotate(-6)"/>
            <ellipse class="cls-4" cx="86.1" cy="143" rx="4.7" ry="4.7" transform="translate(-14.5 9.8) rotate(-6)"/>
            <ellipse class="cls-4" cx="95.4" cy="142" rx="4.7" ry="4.7" transform="translate(-14.3 10.7) rotate(-6)"/>
            <ellipse class="cls-4" cx="104.6" cy="141.1" rx="4.7" ry="4.7" transform="translate(-14.2 11.7) rotate(-6)"/>
            <ellipse class="cls-4" cx="113.9" cy="140.1" rx="4.7" ry="4.7" transform="translate(-14 12.7) rotate(-6)"/>
            <ellipse class="cls-4" cx="123.1" cy="139.1" rx="4.7" ry="4.7" transform="translate(-13.9 13.6) rotate(-6)"/>
            <ellipse class="cls-4" cx="132.4" cy="138.2" rx="4.6" ry="4.7" transform="translate(-13.7 14.6) rotate(-6)"/>
            <ellipse class="cls-4" cx="141.6" cy="137.2" rx="4.6" ry="4.7" transform="translate(-13.6 15.6) rotate(-6)"/>
            <ellipse class="cls-4" cx="150.9" cy="136.2" rx="4.6" ry="4.7" transform="translate(-13.4 16.5) rotate(-6)"/>
            <ellipse class="cls-4" cx="160.1" cy="135.3" rx="4.6" ry="4.7" transform="translate(-13.3 17.5) rotate(-6)"/>
            <ellipse class="cls-4" cx="169.4" cy="134.3" rx="4.6" ry="4.7" transform="translate(-13.1 18.4) rotate(-6)"/>
            <ellipse class="cls-4" cx="178.6" cy="133.3" rx="4.6" ry="4.7" transform="translate(-13 19.4) rotate(-6)"/>
            <ellipse class="cls-4" cx="187.9" cy="132.3" rx="4.6" ry="4.7" transform="translate(-12.8 20.4) rotate(-6)"/>
            <ellipse class="cls-4" cx="197.1" cy="131.4" rx="4.6" ry="4.7" transform="translate(-12.7 21.3) rotate(-6)"/>
            <ellipse class="cls-4" cx="66.7" cy="135.6" rx="4.7" ry="4.7" transform="translate(-13.8 7.7) rotate(-6)"/>
            <ellipse class="cls-4" cx="75.9" cy="134.6" rx="4.7" ry="4.7" transform="translate(-13.7 8.7) rotate(-6)"/>
            <ellipse class="cls-4" cx="85.2" cy="133.6" rx="4.7" ry="4.7" transform="translate(-13.5 9.6) rotate(-6)"/>
            <ellipse class="cls-4" cx="94.4" cy="132.7" rx="4.7" ry="4.7" transform="translate(-13.4 10.6) rotate(-6)"/>
            <ellipse class="cls-4" cx="103.7" cy="131.7" rx="4.7" ry="4.7" transform="translate(-13.2 11.6) rotate(-6)"/>
            <ellipse class="cls-4" cx="112.9" cy="130.7" rx="4.7" ry="4.7" transform="translate(-13 12.5) rotate(-6)"/>
            <ellipse class="cls-4" cx="122.2" cy="129.8" rx="4.7" ry="4.7" transform="translate(-12.9 13.5) rotate(-6)"/>
            <ellipse class="cls-4" cx="131.4" cy="128.8" rx="4.6" ry="4.7" transform="translate(-12.7 14.4) rotate(-6)"/>
            <ellipse class="cls-4" cx="140.6" cy="127.8" rx="4.6" ry="4.7" transform="translate(-12.6 15.4) rotate(-6)"/>
            <ellipse class="cls-4" cx="149.9" cy="126.8" rx="4.6" ry="4.7" transform="translate(-12.4 16.4) rotate(-6)"/>
            <ellipse class="cls-4" cx="159.1" cy="125.9" rx="4.6" ry="4.7" transform="translate(-12.3 17.3) rotate(-6)"/>
            <ellipse class="cls-4" cx="168.4" cy="124.9" rx="4.6" ry="4.7" transform="translate(-12.1 18.3) rotate(-6)"/>
            <ellipse class="cls-4" cx="177.6" cy="123.9" rx="4.6" ry="4.7" transform="translate(-12 19.2) rotate(-6)"/>
            <ellipse class="cls-4" cx="186.9" cy="122.9" rx="4.6" ry="4.7" transform="translate(-11.8 20.2) rotate(-6)"/>
            <ellipse class="cls-4" cx="196.1" cy="122" rx="4.6" ry="4.7" transform="translate(-11.7 21.2) rotate(-6)"/>
            <ellipse class="cls-4" cx="65.7" cy="126.2" rx="4.7" ry="4.7" transform="translate(-12.8 7.6) rotate(-6)"/>
            <ellipse class="cls-4" cx="74.9" cy="125.2" rx="4.7" ry="4.7" transform="translate(-12.7 8.5) rotate(-6)"/>
            <ellipse class="cls-4" cx="84.2" cy="124.3" rx="4.7" ry="4.7" transform="translate(-12.5 9.5) rotate(-6)"/>
            <ellipse class="cls-4" cx="93.4" cy="123.3" rx="4.7" ry="4.7" transform="translate(-12.4 10.4) rotate(-6)"/>
            <ellipse class="cls-4" cx="102.7" cy="122.3" rx="4.7" ry="4.7" transform="translate(-12.2 11.4) rotate(-6)"/>
            <ellipse class="cls-4" cx="111.9" cy="121.3" rx="4.7" ry="4.7" transform="translate(-12.1 12.4) rotate(-6)"/>
            <ellipse class="cls-4" cx="121.2" cy="120.4" rx="4.7" ry="4.7" transform="translate(-11.9 13.3) rotate(-6)"/>
            <ellipse class="cls-4" cx="130.4" cy="119.4" rx="4.6" ry="4.7" transform="translate(-11.8 14.3) rotate(-6)"/>
            <ellipse class="cls-4" cx="139.7" cy="118.4" rx="4.6" ry="4.7" transform="translate(-11.6 15.2) rotate(-6)"/>
            <ellipse class="cls-4" cx="148.9" cy="117.5" rx="4.6" ry="4.7" transform="translate(-11.5 16.2) rotate(-6)"/>
            <ellipse class="cls-4" cx="158.1" cy="116.5" rx="4.6" ry="4.7" transform="translate(-11.3 17.2) rotate(-6)"/>
            <ellipse class="cls-4" cx="167.4" cy="115.5" rx="4.6" ry="4.7" transform="translate(-11.2 18.1) rotate(-6)"/>
            <ellipse class="cls-4" cx="176.6" cy="114.5" rx="4.6" ry="4.7" transform="translate(-11 19.1) rotate(-6)"/>
            <ellipse class="cls-4" cx="185.9" cy="113.6" rx="4.6" ry="4.7" transform="translate(-10.9 20.1) rotate(-6)"/>
            <ellipse class="cls-4" cx="195.1" cy="112.6" rx="4.6" ry="4.7" transform="translate(-10.7 21) rotate(-6)"/>
            <ellipse class="cls-4" cx="64.7" cy="116.8" rx="4.7" ry="4.7" transform="translate(-11.9 7.4) rotate(-6)"/>
            <ellipse class="cls-4" cx="74" cy="115.8" rx="4.7" ry="4.7" transform="translate(-11.7 8.4) rotate(-6)"/>
            <ellipse class="cls-4" cx="83.2" cy="114.9" rx="4.7" ry="4.7" transform="translate(-11.5 9.3) rotate(-6)"/>
            <ellipse class="cls-4" cx="92.4" cy="113.9" rx="4.7" ry="4.7" transform="translate(-11.4 10.3) rotate(-6)"/>
            <ellipse class="cls-4" cx="101.7" cy="112.9" rx="4.7" ry="4.7" transform="translate(-11.2 11.2) rotate(-6)"/>
            <ellipse class="cls-4" cx="110.9" cy="112" rx="4.7" ry="4.7" transform="translate(-11.1 12.2) rotate(-6)"/>
            <ellipse class="cls-4" cx="120.2" cy="111" rx="4.7" ry="4.7" transform="translate(-10.9 13.2) rotate(-6)"/>
            <ellipse class="cls-4" cx="129.4" cy="110" rx="4.6" ry="4.7" transform="translate(-10.8 14.1) rotate(-6)"/>
            <ellipse class="cls-4" cx="138.7" cy="109" rx="4.6" ry="4.7" transform="translate(-10.6 15.1) rotate(-6)"/>
            <ellipse class="cls-4" cx="147.9" cy="108.1" rx="4.6" ry="4.7" transform="translate(-10.5 16.1) rotate(-6)"/>
            <ellipse class="cls-4" cx="157.2" cy="107.1" rx="4.6" ry="4.7" transform="translate(-10.3 17) rotate(-6)"/>
            <ellipse class="cls-4" cx="166.4" cy="106.1" rx="4.6" ry="4.7" transform="translate(-10.2 18) rotate(-6)"/>
            <ellipse class="cls-4" cx="175.6" cy="105.1" rx="4.6" ry="4.7" transform="translate(-10 18.9) rotate(-6)"/>
            <ellipse class="cls-4" cx="184.9" cy="104.2" rx="4.6" ry="4.7" transform="translate(-9.9 19.9) rotate(-6)"/>
            <ellipse class="cls-4" cx="194.1" cy="103.2" rx="4.6" ry="4.7" transform="translate(-9.7 20.9) rotate(-6)"/>
            <ellipse class="cls-4" cx="63.7" cy="107.4" rx="4.7" ry="4.7" transform="translate(-10.9 7.2) rotate(-6)"/>
            <ellipse class="cls-4" cx="73" cy="106.5" rx="4.7" ry="4.7" transform="translate(-10.7 8.2) rotate(-6)"/>
            <ellipse class="cls-4" cx="82.2" cy="105.5" rx="4.7" ry="4.7" transform="translate(-10.6 9.2) rotate(-6)"/>
            <ellipse class="cls-4" cx="91.5" cy="104.5" rx="4.7" ry="4.7" transform="translate(-10.4 10.1) rotate(-6)"/>
            <ellipse class="cls-4" cx="100.7" cy="103.5" rx="4.7" ry="4.7" transform="translate(-10.3 11.1) rotate(-6)"/>
            <ellipse class="cls-4" cx="109.9" cy="102.6" rx="4.7" ry="4.7" transform="translate(-10.1 12.1) rotate(-6)"/>
            <ellipse class="cls-4" cx="119.2" cy="101.6" rx="4.7" ry="4.7" transform="translate(-10 13) rotate(-6)"/>
            <ellipse class="cls-4" cx="128.4" cy="100.6" rx="4.6" ry="4.7" transform="translate(-9.8 14) rotate(-6)"/>
            <ellipse class="cls-4" cx="137.7" cy="99.7" rx="4.6" ry="4.7" transform="translate(-9.7 14.9) rotate(-6)"/>
            <ellipse class="cls-4" cx="146.9" cy="98.7" rx="4.6" ry="4.7" transform="translate(-9.5 15.9) rotate(-6)"/>
            <ellipse class="cls-4" cx="156.2" cy="97.7" rx="4.6" ry="4.7" transform="translate(-9.4 16.9) rotate(-6)"/>
            <ellipse class="cls-4" cx="165.4" cy="96.7" rx="4.6" ry="4.7" transform="translate(-9.2 17.8) rotate(-6)"/>
            <ellipse class="cls-4" cx="174.7" cy="95.8" rx="4.6" ry="4.7" transform="translate(-9.1 18.8) rotate(-6)"/>
            <ellipse class="cls-4" cx="183.9" cy="94.8" rx="4.6" ry="4.7" transform="translate(-8.9 19.7) rotate(-6)"/>
            <ellipse class="cls-4" cx="193.1" cy="93.8" rx="4.6" ry="4.7" transform="translate(-8.7 20.7) rotate(-6)"/>
            <ellipse class="cls-4" cx="62.7" cy="98" rx="4.6" ry="4.7" transform="translate(-9.9 7.1) rotate(-6)"/>
            <ellipse class="cls-4" cx="72" cy="97.1" rx="4.7" ry="4.7" transform="translate(-9.8 8.1) rotate(-6)"/>
            <ellipse class="cls-4" cx="81.2" cy="96.1" rx="4.7" ry="4.7" transform="translate(-9.6 9) rotate(-6)"/>
            <ellipse class="cls-4" cx="90.5" cy="95.1" rx="4.7" ry="4.7" transform="translate(-9.4 10) rotate(-6)"/>
            <ellipse class="cls-4" cx="99.7" cy="94.2" rx="4.7" ry="4.7" transform="translate(-9.3 10.9) rotate(-6)"/>
            <ellipse class="cls-4" cx="109" cy="93.2" rx="4.7" ry="4.7" transform="translate(-9.1 11.9) rotate(-6)"/>
            <ellipse class="cls-4" cx="118.2" cy="92.2" rx="4.7" ry="4.7" transform="translate(-9 12.9) rotate(-6)"/>
            <ellipse class="cls-4" cx="127.4" cy="91.2" rx="4.6" ry="4.7" transform="translate(-8.8 13.8) rotate(-6)"/>
            <ellipse class="cls-4" cx="136.7" cy="90.3" rx="4.6" ry="4.7" transform="translate(-8.7 14.8) rotate(-6)"/>
            <ellipse class="cls-4" cx="145.9" cy="89.3" rx="4.6" ry="4.7" transform="translate(-8.5 15.7) rotate(-6)"/>
            <ellipse class="cls-4" cx="155.2" cy="88.3" rx="4.6" ry="4.7" transform="translate(-8.4 16.7) rotate(-6)"/>
            <ellipse class="cls-4" cx="164.4" cy="87.3" rx="4.6" ry="4.7" transform="translate(-8.2 17.7) rotate(-6)"/>
            <ellipse class="cls-4" cx="173.7" cy="86.4" rx="4.6" ry="4.7" transform="translate(-8.1 18.6) rotate(-6)"/>
            <ellipse class="cls-4" cx="182.9" cy="85.4" rx="4.6" ry="4.7" transform="translate(-7.9 19.6) rotate(-6)"/>
            <ellipse class="cls-4" cx="192.2" cy="84.4" rx="4.6" ry="4.7" transform="translate(-7.8 20.5) rotate(-6)"/>
          </g>
          <ellipse class="cls-4" cx="214.5" cy="205.5" rx="4.6" ry="4.7" transform="translate(-20.3 23.5) rotate(-6)"/>
          <ellipse class="cls-4" cx="223.7" cy="204.5" rx="4.6" ry="4.7" transform="translate(-20.1 24.5) rotate(-6)"/>
          <ellipse class="cls-4" cx="233" cy="203.5" rx="4.6" ry="4.7" transform="translate(-20 25.5) rotate(-6)"/>
          <ellipse class="cls-4" cx="242.2" cy="202.5" rx="4.6" ry="4.7" transform="translate(-19.8 26.4) rotate(-6)"/>
          <ellipse class="cls-4" cx="251.5" cy="201.6" rx="4.7" ry="4.7" transform="translate(-19.7 27.4) rotate(-6)"/>
          <ellipse class="cls-4" cx="260.7" cy="200.6" rx="4.6" ry="4.7" transform="translate(-19.5 28.4) rotate(-6)"/>
          <ellipse class="cls-4" cx="213.5" cy="196.1" rx="4.6" ry="4.7" transform="translate(-19.3 23.4) rotate(-6)"/>
          <ellipse class="cls-4" cx="222.7" cy="195.1" rx="4.6" ry="4.7" transform="translate(-19.2 24.4) rotate(-6)"/>
          <ellipse class="cls-4" cx="232" cy="194.1" rx="4.6" ry="4.7" transform="translate(-19 25.3) rotate(-6)"/>
          <ellipse class="cls-4" cx="241.2" cy="193.2" rx="4.6" ry="4.7" transform="translate(-18.9 26.3) rotate(-6)"/>
          <ellipse class="cls-4" cx="250.5" cy="192.2" rx="4.6" ry="4.7" transform="translate(-18.7 27.2) rotate(-6)"/>
          <ellipse class="cls-4" cx="259.7" cy="191.2" rx="4.6" ry="4.7" transform="translate(-18.6 28.2) rotate(-6)"/>
          <ellipse class="cls-4" cx="212.5" cy="186.7" rx="4.6" ry="4.7" transform="translate(-18.3 23.2) rotate(-6)"/>
          <ellipse class="cls-4" cx="221.8" cy="185.7" rx="4.6" ry="4.7" transform="translate(-18.2 24.2) rotate(-6)"/>
          <ellipse class="cls-4" cx="231" cy="184.7" rx="4.6" ry="4.7" transform="translate(-18 25.2) rotate(-6)"/>
          <ellipse class="cls-4" cx="240.3" cy="183.8" rx="4.6" ry="4.7" transform="translate(-17.9 26.1) rotate(-6)"/>
          <ellipse class="cls-4" cx="249.5" cy="182.8" rx="4.6" ry="4.7" transform="translate(-17.7 27.1) rotate(-6)"/>
          <ellipse class="cls-4" cx="258.7" cy="181.8" rx="4.6" ry="4.7" transform="translate(-17.6 28) rotate(-6)"/>
          <ellipse class="cls-4" cx="211.5" cy="177.3" rx="4.6" ry="4.7" transform="translate(-17.4 23.1) rotate(-6)"/>
          <ellipse class="cls-4" cx="220.8" cy="176.3" rx="4.6" ry="4.7" transform="translate(-17.2 24) rotate(-6)"/>
          <ellipse class="cls-4" cx="230" cy="175.4" rx="4.6" ry="4.7" transform="translate(-17.1 25) rotate(-6)"/>
          <ellipse class="cls-4" cx="239.3" cy="174.4" rx="4.6" ry="4.7" transform="translate(-16.9 26) rotate(-6)"/>
          <ellipse class="cls-4" cx="248.5" cy="173.4" rx="4.6" ry="4.7" transform="translate(-16.8 26.9) rotate(-6)"/>
          <ellipse class="cls-4" cx="257.8" cy="172.4" rx="4.6" ry="4.7" transform="translate(-16.6 27.9) rotate(-6)"/>
          <ellipse class="cls-4" cx="210.5" cy="167.9" rx="4.6" ry="4.7" transform="translate(-16.4 22.9) rotate(-6)"/>
          <ellipse class="cls-4" cx="219.8" cy="166.9" rx="4.6" ry="4.7" transform="translate(-16.2 23.9) rotate(-6)"/>
          <ellipse class="cls-4" cx="229" cy="166" rx="4.6" ry="4.7" transform="translate(-16.1 24.8) rotate(-6)"/>
          <ellipse class="cls-4" cx="238.3" cy="165" rx="4.6" ry="4.7" transform="translate(-15.9 25.8) rotate(-6)"/>
          <ellipse class="cls-4" cx="247.5" cy="164" rx="4.6" ry="4.7" transform="translate(-15.8 26.8) rotate(-6)"/>
          <ellipse class="cls-4" cx="256.8" cy="163" rx="4.6" ry="4.7" transform="translate(-15.6 27.7) rotate(-6)"/>
          <ellipse class="cls-4" cx="209.6" cy="158.5" rx="4.6" ry="4.7" transform="translate(-15.4 22.8) rotate(-6)"/>
          <ellipse class="cls-4" cx="218.8" cy="157.5" rx="4.6" ry="4.7" transform="translate(-15.3 23.7) rotate(-6)"/>
          <ellipse class="cls-4" cx="228" cy="156.6" rx="4.6" ry="4.7" transform="translate(-15.1 24.7) rotate(-6)"/>
          <ellipse class="cls-4" cx="237.3" cy="155.6" rx="4.6" ry="4.7" transform="translate(-15 25.7) rotate(-6)"/>
          <ellipse class="cls-4" cx="246.5" cy="154.6" rx="4.6" ry="4.7" transform="translate(-14.8 26.6) rotate(-6)"/>
          <ellipse class="cls-4" cx="255.8" cy="153.7" rx="4.6" ry="4.7" transform="translate(-14.7 27.6) rotate(-6)"/>
          <ellipse class="cls-4" cx="208.6" cy="149.1" rx="4.6" ry="4.7" transform="translate(-14.4 22.6) rotate(-6)"/>
          <ellipse class="cls-4" cx="217.8" cy="148.2" rx="4.6" ry="4.7" transform="translate(-14.3 23.6) rotate(-6)"/>
          <ellipse class="cls-4" cx="227.1" cy="147.2" rx="4.6" ry="4.7" transform="translate(-14.1 24.5) rotate(-6)"/>
          <ellipse class="cls-4" cx="236.3" cy="146.2" rx="4.6" ry="4.7" transform="translate(-14 25.5) rotate(-6)"/>
          <ellipse class="cls-4" cx="245.5" cy="145.2" rx="4.6" ry="4.7" transform="translate(-13.8 26.5) rotate(-6)"/>
          <ellipse class="cls-4" cx="254.8" cy="144.3" rx="4.7" ry="4.7" transform="translate(-13.7 27.4) rotate(-6)"/>
          <ellipse class="cls-4" cx="207.6" cy="139.7" rx="4.6" ry="4.7" transform="translate(-13.5 22.5) rotate(-6)"/>
          <ellipse class="cls-4" cx="216.8" cy="138.8" rx="4.6" ry="4.7" transform="translate(-13.3 23.4) rotate(-6)"/>
          <ellipse class="cls-4" cx="226.1" cy="137.8" rx="4.6" ry="4.7" transform="translate(-13.2 24.4) rotate(-6)"/>
          <ellipse class="cls-4" cx="235.3" cy="136.8" rx="4.6" ry="4.7" transform="translate(-13 25.3) rotate(-6)"/>
          <ellipse class="cls-4" cx="244.6" cy="135.9" rx="4.6" ry="4.7" transform="translate(-12.9 26.3) rotate(-6)"/>
          <ellipse class="cls-4" cx="253.8" cy="134.9" rx="4.7" ry="4.7" transform="translate(-12.7 27.3) rotate(-6)"/>
          <ellipse class="cls-4" cx="206.6" cy="130.4" rx="4.6" ry="4.7" transform="translate(-12.5 22.3) rotate(-6)"/>
          <ellipse class="cls-4" cx="215.8" cy="129.4" rx="4.6" ry="4.7" transform="translate(-12.3 23.3) rotate(-6)"/>
          <ellipse class="cls-4" cx="225.1" cy="128.4" rx="4.6" ry="4.7" transform="translate(-12.2 24.2) rotate(-6)"/>
          <ellipse class="cls-4" cx="234.3" cy="127.4" rx="4.6" ry="4.7" transform="translate(-12 25.2) rotate(-6)"/>
          <ellipse class="cls-4" cx="243.6" cy="126.5" rx="4.6" ry="4.7" transform="translate(-11.9 26.2) rotate(-6)"/>
          <ellipse class="cls-4" cx="252.8" cy="125.5" rx="4.6" ry="4.7" transform="translate(-11.7 27.1) rotate(-6)"/>
          <ellipse class="cls-4" cx="205.6" cy="121" rx="4.6" ry="4.7" transform="translate(-11.5 22.2) rotate(-6)"/>
          <ellipse class="cls-4" cx="214.8" cy="120" rx="4.6" ry="4.7" transform="translate(-11.4 23.1) rotate(-6)"/>
          <ellipse class="cls-4" cx="224.1" cy="119" rx="4.6" ry="4.7" transform="translate(-11.2 24.1) rotate(-6)"/>
          <ellipse class="cls-4" cx="233.3" cy="118.1" rx="4.6" ry="4.7" transform="translate(-11.1 25) rotate(-6)"/>
          <ellipse class="cls-4" cx="242.6" cy="117.1" rx="4.6" ry="4.7" transform="translate(-10.9 26) rotate(-6)"/>
          <ellipse class="cls-4" cx="251.8" cy="116.1" rx="4.7" ry="4.7" transform="translate(-10.8 27) rotate(-6)"/>
          <ellipse class="cls-4" cx="204.6" cy="111.6" rx="4.6" ry="4.7" transform="translate(-10.5 22) rotate(-6)"/>
          <ellipse class="cls-4" cx="213.9" cy="110.6" rx="4.6" ry="4.7" transform="translate(-10.4 23) rotate(-6)"/>
          <ellipse class="cls-4" cx="223.1" cy="109.6" rx="4.6" ry="4.7" transform="translate(-10.2 23.9) rotate(-6)"/>
          <ellipse class="cls-4" cx="232.3" cy="108.7" rx="4.6" ry="4.7" transform="translate(-10.1 24.9) rotate(-6)"/>
          <ellipse class="cls-4" cx="241.6" cy="107.7" rx="4.6" ry="4.7" transform="translate(-9.9 25.8) rotate(-6)"/>
          <ellipse class="cls-4" cx="250.8" cy="106.7" rx="4.6" ry="4.7" transform="translate(-9.8 26.8) rotate(-6)"/>
          <ellipse class="cls-4" cx="203.6" cy="102.2" rx="4.6" ry="4.7" transform="translate(-9.6 21.8) rotate(-6)"/>
          <ellipse class="cls-4" cx="212.9" cy="101.2" rx="4.6" ry="4.7" transform="translate(-9.4 22.8) rotate(-6)"/>
          <ellipse class="cls-4" cx="222.1" cy="100.3" rx="4.6" ry="4.7" transform="translate(-9.3 23.8) rotate(-6)"/>
          <ellipse class="cls-4" cx="231.4" cy="99.3" rx="4.6" ry="4.7" transform="translate(-9.1 24.7) rotate(-6)"/>
          <ellipse class="cls-4" cx="240.6" cy="98.3" rx="4.6" ry="4.7" transform="translate(-9 25.7) rotate(-6)"/>
          <ellipse class="cls-4" cx="249.9" cy="97.3" rx="4.6" ry="4.7" transform="translate(-8.8 26.7) rotate(-6)"/>
          <ellipse class="cls-4" cx="202.7" cy="92.8" rx="4.6" ry="4.7" transform="translate(-8.6 21.7) rotate(-6)"/>
          <ellipse class="cls-4" cx="211.9" cy="91.8" rx="4.6" ry="4.7" transform="translate(-8.4 22.7) rotate(-6)"/>
          <ellipse class="cls-4" cx="221.1" cy="90.9" rx="4.6" ry="4.7" transform="translate(-8.3 23.6) rotate(-6)"/>
          <ellipse class="cls-4" cx="230.4" cy="89.9" rx="4.6" ry="4.7" transform="translate(-8.1 24.6) rotate(-6)"/>
          <ellipse class="cls-4" cx="239.6" cy="88.9" rx="4.6" ry="4.7" transform="translate(-8 25.5) rotate(-6)"/>
          <ellipse class="cls-4" cx="248.9" cy="88" rx="4.6" ry="4.7" transform="translate(-7.8 26.5) rotate(-6)"/>
          <ellipse class="cls-4" cx="201.7" cy="83.4" rx="4.6" ry="4.7" transform="translate(-7.6 21.5) rotate(-6)"/>
          <ellipse class="cls-4" cx="210.9" cy="82.5" rx="4.6" ry="4.7" transform="translate(-7.5 22.5) rotate(-6)"/>
          <ellipse class="cls-4" cx="220.2" cy="81.5" rx="4.6" ry="4.7" transform="translate(-7.3 23.5) rotate(-6)"/>
          <ellipse class="cls-4" cx="229.4" cy="80.5" rx="4.6" ry="4.7" transform="translate(-7.2 24.4) rotate(-6)"/>
          <ellipse class="cls-4" cx="238.6" cy="79.5" rx="4.6" ry="4.7" transform="translate(-7 25.4) rotate(-6)"/>
          <ellipse class="cls-4" cx="247.9" cy="78.6" rx="4.6" ry="4.7" transform="translate(-6.9 26.3) rotate(-6)"/>
          <g>
            <g>
              <ellipse class="cls-4" cx="61.8" cy="88.8" rx="4.6" ry="4.7" transform="translate(-8.9 6.9) rotate(-6)"/>
              <ellipse class="cls-4" cx="71" cy="87.8" rx="4.7" ry="4.7" transform="translate(-8.8 7.9) rotate(-6)"/>
              <ellipse class="cls-4" cx="80.3" cy="86.9" rx="4.7" ry="4.7" transform="translate(-8.6 8.9) rotate(-6)"/>
              <ellipse class="cls-4" cx="89.5" cy="85.9" rx="4.7" ry="4.7" transform="translate(-8.5 9.8) rotate(-6)"/>
              <ellipse class="cls-4" cx="98.7" cy="84.9" rx="4.7" ry="4.7" transform="translate(-8.3 10.8) rotate(-6)"/>
              <ellipse class="cls-4" cx="108" cy="84" rx="4.7" ry="4.7" transform="translate(-8.2 11.7) rotate(-6)"/>
              <ellipse class="cls-4" cx="60.8" cy="79.4" rx="4.7" ry="4.7" transform="translate(-8 6.8) rotate(-6)"/>
              <ellipse class="cls-4" cx="70" cy="78.5" rx="4.7" ry="4.7" transform="translate(-7.8 7.7) rotate(-6)"/>
              <ellipse class="cls-4" cx="79.3" cy="77.5" rx="4.7" ry="4.7" transform="translate(-7.7 8.7) rotate(-6)"/>
              <ellipse class="cls-4" cx="88.5" cy="76.5" rx="4.7" ry="4.7" transform="translate(-7.5 9.7) rotate(-6)"/>
              <ellipse class="cls-4" cx="97.8" cy="75.5" rx="4.7" ry="4.7" transform="translate(-7.4 10.6) rotate(-6)"/>
              <ellipse class="cls-4" cx="107" cy="74.6" rx="4.7" ry="4.7" transform="translate(-7.2 11.6) rotate(-6)"/>
            </g>
            <g>
              <ellipse class="cls-4" cx="117.2" cy="83" rx="4.7" ry="4.7" transform="translate(-8 12.7) rotate(-6)"/>
              <ellipse class="cls-4" cx="126.5" cy="82" rx="4.7" ry="4.7" transform="translate(-7.9 13.7) rotate(-6)"/>
              <ellipse class="cls-4" cx="135.7" cy="81" rx="4.6" ry="4.7" transform="translate(-7.7 14.6) rotate(-6)"/>
              <ellipse class="cls-4" cx="145" cy="80.1" rx="4.6" ry="4.7" transform="translate(-7.6 15.6) rotate(-6)"/>
              <ellipse class="cls-4" cx="154.2" cy="79.1" rx="4.6" ry="4.7" transform="translate(-7.4 16.6) rotate(-6)"/>
              <ellipse class="cls-4" cx="163.5" cy="78.1" rx="4.6" ry="4.7" transform="translate(-7.3 17.5) rotate(-6)"/>
              <ellipse class="cls-4" cx="116.2" cy="73.6" rx="4.7" ry="4.7" transform="translate(-7.1 12.6) rotate(-6)"/>
              <ellipse class="cls-4" cx="125.5" cy="72.6" rx="4.7" ry="4.7" transform="translate(-6.9 13.5) rotate(-6)"/>
              <ellipse class="cls-4" cx="134.7" cy="71.7" rx="4.6" ry="4.7" transform="translate(-6.8 14.5) rotate(-6)"/>
              <ellipse class="cls-4" cx="144" cy="70.7" rx="4.6" ry="4.7" transform="translate(-6.6 15.4) rotate(-6)"/>
              <ellipse class="cls-4" cx="153.2" cy="69.7" rx="4.6" ry="4.7" transform="translate(-6.4 16.4) rotate(-6)"/>
              <ellipse class="cls-4" cx="162.5" cy="68.8" rx="4.6" ry="4.7" transform="translate(-6.3 17.4) rotate(-6)"/>
            </g>
          </g>
          <g>
            <ellipse class="cls-4" cx="172.7" cy="77" rx="4.6" ry="4.7" transform="translate(-7.1 18.5) rotate(-6)"/>
            <ellipse class="cls-4" cx="181.9" cy="76" rx="4.6" ry="4.7" transform="translate(-6.9 19.4) rotate(-6)"/>
            <ellipse class="cls-4" cx="191.2" cy="75" rx="4.6" ry="4.7" transform="translate(-6.8 20.4) rotate(-6)"/>
            <ellipse class="cls-4" cx="200.4" cy="74.1" rx="4.6" ry="4.7" transform="translate(-6.6 21.4) rotate(-6)"/>
            <ellipse class="cls-4" cx="209.7" cy="73.1" rx="4.6" ry="4.7" transform="translate(-6.5 22.3) rotate(-6)"/>
            <ellipse class="cls-4" cx="218.9" cy="72.1" rx="4.6" ry="4.7" transform="translate(-6.3 23.3) rotate(-6)"/>
            <ellipse class="cls-4" cx="171.7" cy="67.6" rx="4.6" ry="4.7" transform="translate(-6.1 18.3) rotate(-6)"/>
            <ellipse class="cls-4" cx="180.9" cy="66.6" rx="4.6" ry="4.7" transform="translate(-6 19.3) rotate(-6)"/>
            <ellipse class="cls-4" cx="190.2" cy="65.7" rx="4.6" ry="4.7" transform="translate(-5.8 20.2) rotate(-6)"/>
            <ellipse class="cls-4" cx="199.4" cy="64.7" rx="4.6" ry="4.7" transform="translate(-5.7 21.2) rotate(-6)"/>
            <ellipse class="cls-4" cx="208.7" cy="63.7" rx="4.6" ry="4.7" transform="translate(-5.5 22.2) rotate(-6)"/>
            <ellipse class="cls-4" cx="217.9" cy="62.7" rx="4.6" ry="4.7" transform="translate(-5.4 23.1) rotate(-6)"/>
          </g>
          <ellipse class="cls-4" cx="228.1" cy="71.2" rx="4.6" ry="4.7" transform="translate(-6.2 24.2) rotate(-6)"/>
          <ellipse class="cls-4" cx="237.4" cy="70.2" rx="4.6" ry="4.7" transform="translate(-6 25.2) rotate(-6)"/>
          <ellipse class="cls-4" cx="246.6" cy="69.2" rx="4.6" ry="4.7" transform="translate(-5.9 26.2) rotate(-6)"/>
          <ellipse class="cls-4" cx="227.2" cy="61.8" rx="4.6" ry="4.7" transform="translate(-5.2 24.1) rotate(-6)"/>
          <ellipse class="cls-4" cx="236.4" cy="60.8" rx="4.6" ry="4.7" transform="translate(-5.1 25) rotate(-6)"/>
          <ellipse class="cls-4" cx="245.7" cy="59.8" rx="4.6" ry="4.7" transform="translate(-4.9 26) rotate(-6)"/>
        </g>
      </g>
      <g>
        <rect class="cls-2" x="28.3" y="33.8" width="220.1" height="174.7" rx="8.9" ry="8.9" transform="translate(-11.9 15.1) rotate(-6)"/>
        <path class="cls-1" d="M229.9,34.8c-1.7-1.1-.8-5-2.9-4.8s-1.4,5.8-3.5,6.1-2.6-5.4-4.6-5.2-1.4,5.8-3.4,6.1-2.6-5.4-4.6-5.2-1.4,5.8-3.4,6.1-2.6-5.4-4.6-5.2-1.4,5.8-3.4,6.1-2.6-5.4-4.6-5.2-1.4,5.8-3.5,6.1-2.6-5.4-4.6-5.2-1.4,5.8-3.4,6.1-2.6-5.4-4.6-5.2-1.4,5.8-3.4,6.1-2.6-5.4-4.6-5.2-1.4,5.8-3.5,6.1-2.6-5.4-4.6-5.2-1.4,5.8-3.4,6.1-2.6-5.4-4.6-5.2-1.4,5.8-3.5,6.1-2.6-5.4-4.6-5.2-1.4,5.8-3.5,6.1-2.6-5.4-4.6-5.2-1.4,5.8-3.5,6.1-2.6-5.4-4.6-5.2-1.4,5.8-3.5,6.1-2.6-5.4-4.6-5.2-1.4,5.8-3.5,6.1-2.6-5.4-4.6-5.2-1.4,5.8-3.5,6.1-2.6-5.4-4.6-5.2-1.4,5.8-3.5,6.1-2.6-5.4-4.6-5.2-1.4,5.8-3.5,6.1-2.6-5.4-4.6-5.2-1.4,5.8-3.5,6.1-2.6-5.4-4.6-5.2-1.4,5.8-3.5,6.1-2.6-5.4-4.6-5.2-1.4,5.8-3.5,6.1-2.6-5.4-4.6-5.2-1.4,5.8-3.5,6.1-2.6-5.4-4.7-5.2-1.4,5.8-3.5,6.1-2.6-5.4-4.7-5.2-1.4,5.8-3.5,6.1-2.6-5.4-4.7-5.2-1.4,5.8-3.5,6.1-2.6-5.4-4.7-5.2-.3,3.9-1.8,5.3c-1.1,1.1-4.6-.2-4.4,1.4s5.8,1,6,2.5-5.5,2.2-5.3,3.7,5.8,1,6,2.5-5.5,2.2-5.3,3.7,5.8,1,6,2.5-5.5,2.2-5.3,3.7,5.8,1,6,2.5-5.5,2.2-5.3,3.7,5.8,1,6,2.5-5.5,2.2-5.3,3.7,5.8,1,6,2.5-5.5,2.2-5.3,3.7,5.8,1,6,2.5-5.5,2.2-5.3,3.7,5.8,1,6,2.5-5.5,2.2-5.3,3.7,5.8,1,6,2.5-5.5,2.2-5.3,3.7,5.8,1,6,2.5-5.5,2.2-5.3,3.7,5.8,1,6,2.5-5.5,2.2-5.3,3.7,5.8,1,6,2.5-5.5,2.2-5.3,3.7,5.8,1,6,2.5-5.5,2.1-5.3,3.7,5.8,1,6,2.5-5.5,2.1-5.3,3.7,5.8,1,6,2.5-5.5,2.1-5.3,3.7,5.8,1,6,2.5-5.5,2.1-5.3,3.7,5.8,1,6,2.5-5.5,2.1-5.3,3.7,5.8,1,6,2.5-5.5,2.1-5.3,3.7,5.8,1,6,2.5-5.5,2.1-5.3,3.7,5.8,1,6,2.5-5.5,2.2-5.3,3.7,5.8,1,6,2.5-5.5,2.2-5.3,3.7,5.8,1,6,2.5-5.5,2.1-5.3,3.7,5.8,1,6,2.5-5.5,2.2-5.3,3.7,5.8,1,6,2.5-5.5,2.2-5.3,3.7,3.3-.4,4.6.4c1.7,1.1.8,5,2.8,4.8s1.4-5.9,3.5-6.1,2.6,5.4,4.6,5.2,1.4-5.9,3.5-6.1,2.6,5.4,4.6,5.2c2-.2,1.4-5.9,3.4-6.1s2.6,5.4,4.6,5.2,1.4-5.9,3.4-6.1,2.6,5.4,4.6,5.2,1.4-5.9,3.5-6.1,2.6,5.4,4.6,5.2,1.4-5.9,3.4-6.1,2.6,5.4,4.6,5.2,1.4-5.9,3.4-6.1,2.6,5.4,4.6,5.2,1.4-5.9,3.5-6.1,2.6,5.4,4.6,5.2,1.4-5.9,3.4-6.1,2.6,5.4,4.6,5.2,1.4-5.9,3.5-6.1,2.6,5.4,4.6,5.2,1.4-5.9,3.5-6.1,2.6,5.4,4.6,5.2,1.4-5.9,3.5-6.1,2.6,5.4,4.6,5.2,1.4-5.9,3.5-6.1,2.6,5.4,4.6,5.2,1.4-5.9,3.5-6.1,2.6,5.4,4.6,5.2,1.4-5.9,3.5-6.1,2.6,5.4,4.6,5.2,1.4-5.9,3.5-6.1,2.6,5.4,4.6,5.2,1.4-5.9,3.5-6.1,2.6,5.4,4.6,5.2,1.4-5.9,3.5-6.1,2.6,5.4,4.6,5.2,1.4-5.9,3.5-6.1,2.6,5.4,4.6,5.2,1.4-5.9,3.5-6.1,2.6,5.4,4.6,5.2,1.4-5.9,3.5-6.1,2.6,5.4,4.6,5.2,1.4-5.9,3.5-6.1,2.6,5.4,4.6,5.2,1.4-5.9,3.5-6.1,2.6,5.4,4.6,5.2,1.4-5.9,3.5-6.1,2.6,5.4,4.6,5.2.3-3.9,1.8-5.3c1.1-1.1,4.6.2,4.4-1.4s-5.8-1-6-2.5,5.5-2.1,5.3-3.7-5.8-1-6-2.5,5.5-2.1,5.3-3.7-5.8-1-6-2.5,5.5-2.1,5.3-3.7-5.8-1-6-2.5,5.5-2.1,5.3-3.7-5.8-1-6-2.5,5.5-2.1,5.3-3.7-5.8-1-6-2.5,5.5-2.1,5.3-3.7-5.8-1-6-2.5,5.5-2.1,5.3-3.7-5.8-1-6-2.5,5.5-2.1,5.3-3.7-5.8-1-6-2.5,5.5-2.1,5.3-3.7-5.8-1-6-2.5,5.5-2.2,5.3-3.7-5.8-1-6-2.5,5.5-2.2,5.3-3.7-5.8-1-6-2.5,5.5-2.2,5.3-3.7-5.8-1-6-2.5,5.5-2.2,5.3-3.7-5.8-1-6-2.5,5.5-2.2,5.3-3.7-5.8-1-6-2.5,5.5-2.2,5.3-3.7-5.8-1-6-2.5,5.5-2.2,5.3-3.7-5.8-1-6-2.5,5.5-2.2,5.3-3.7-5.8-1-6-2.5,5.5-2.2,5.3-3.7-5.8-1-6-2.5,5.5-2.2,5.3-3.7-5.8-1-6-2.5,5.5-2.2,5.3-3.7-5.8-1-6-2.5,5.5-2.2,5.3-3.7-5.8-1-6-2.5,5.5-2.2,5.3-3.7-5.8-1-6-2.5,5.5-2.2,5.3-3.7-5.8-1-6-2.5,5.6-2.6,5.2-4.2c-.3-1-3.2.8-4.6,0h0Z"/>
        <rect id="board-2" class="cls-3" x="36.6" y="42.6" width="203.6" height="157.1" rx="6.6" ry="6.6" transform="translate(-11.9 15.1) rotate(-6)"/>
        <g id="prickar-2">
          <g>
            <ellipse class="cls-4" cx="53.5" cy="201.3" rx="4.7" ry="4.7" transform="translate(-20.7 6.7) rotate(-6)"/>
            <ellipse class="cls-4" cx="62.7" cy="200.3" rx="4.7" ry="4.7" transform="translate(-20.6 7.7) rotate(-6)"/>
            <ellipse class="cls-4" cx="72" cy="199.3" rx="4.7" ry="4.7" transform="translate(-20.4 8.6) rotate(-6)"/>
            <ellipse class="cls-4" cx="81.2" cy="198.3" rx="4.7" ry="4.7" transform="translate(-20.3 9.6) rotate(-6)"/>
            <ellipse class="cls-4" cx="90.4" cy="197.4" rx="4.7" ry="4.7" transform="translate(-20.1 10.5) rotate(-6)"/>
            <ellipse class="cls-4" cx="99.7" cy="196.4" rx="4.7" ry="4.7" transform="translate(-20 11.5) rotate(-6)"/>
            <ellipse class="cls-4" cx="108.9" cy="195.4" rx="4.7" ry="4.7" transform="translate(-19.8 12.5) rotate(-6)"/>
            <ellipse class="cls-4" cx="118.2" cy="194.5" rx="4.7" ry="4.7" transform="translate(-19.7 13.4) rotate(-6)"/>
            <ellipse class="cls-4" cx="127.4" cy="193.5" rx="4.7" ry="4.7" transform="translate(-19.5 14.4) rotate(-6)"/>
            <ellipse class="cls-4" cx="136.7" cy="192.5" rx="4.6" ry="4.7" transform="translate(-19.4 15.3) rotate(-6)"/>
            <ellipse class="cls-4" cx="145.9" cy="191.5" rx="4.6" ry="4.7" transform="translate(-19.2 16.3) rotate(-6)"/>
            <ellipse class="cls-4" cx="155.2" cy="190.6" rx="4.6" ry="4.7" transform="translate(-19.1 17.3) rotate(-6)"/>
            <ellipse class="cls-4" cx="164.4" cy="189.6" rx="4.6" ry="4.7" transform="translate(-18.9 18.2) rotate(-6)"/>
            <ellipse class="cls-4" cx="173.7" cy="188.6" rx="4.6" ry="4.7" transform="translate(-18.8 19.2) rotate(-6)"/>
            <ellipse class="cls-4" cx="182.9" cy="187.7" rx="4.6" ry="4.7" transform="translate(-18.6 20.1) rotate(-6)"/>
            <ellipse class="cls-4" cx="52.5" cy="191.9" rx="4.7" ry="4.7" transform="translate(-19.8 6.5) rotate(-6)"/>
            <ellipse class="cls-4" cx="61.7" cy="190.9" rx="4.6" ry="4.7" transform="translate(-19.6 7.5) rotate(-6)"/>
            <ellipse class="cls-4" cx="71" cy="189.9" rx="4.7" ry="4.7" transform="translate(-19.5 8.5) rotate(-6)"/>
            <ellipse class="cls-4" cx="80.2" cy="189" rx="4.7" ry="4.7" transform="translate(-19.3 9.4) rotate(-6)"/>
            <ellipse class="cls-4" cx="89.5" cy="188" rx="4.7" ry="4.7" transform="translate(-19.2 10.4) rotate(-6)"/>
            <ellipse class="cls-4" cx="98.7" cy="187" rx="4.7" ry="4.7" transform="translate(-19 11.3) rotate(-6)"/>
            <ellipse class="cls-4" cx="107.9" cy="186" rx="4.7" ry="4.7" transform="translate(-18.9 12.3) rotate(-6)"/>
            <ellipse class="cls-4" cx="117.2" cy="185.1" rx="4.7" ry="4.7" transform="translate(-18.7 13.3) rotate(-6)"/>
            <ellipse class="cls-4" cx="126.4" cy="184.1" rx="4.6" ry="4.7" transform="translate(-18.5 14.2) rotate(-6)"/>
            <ellipse class="cls-4" cx="135.7" cy="183.1" rx="4.6" ry="4.7" transform="translate(-18.4 15.2) rotate(-6)"/>
            <ellipse class="cls-4" cx="144.9" cy="182.2" rx="4.6" ry="4.7" transform="translate(-18.2 16.1) rotate(-6)"/>
            <ellipse class="cls-4" cx="154.2" cy="181.2" rx="4.6" ry="4.7" transform="translate(-18.1 17.1) rotate(-6)"/>
            <ellipse class="cls-4" cx="163.4" cy="180.2" rx="4.6" ry="4.7" transform="translate(-17.9 18.1) rotate(-6)"/>
            <ellipse class="cls-4" cx="172.7" cy="179.2" rx="4.6" ry="4.7" transform="translate(-17.8 19) rotate(-6)"/>
            <ellipse class="cls-4" cx="181.9" cy="178.3" rx="4.6" ry="4.7" transform="translate(-17.6 20) rotate(-6)"/>
            <ellipse class="cls-4" cx="51.5" cy="182.5" rx="4.7" ry="4.7" transform="translate(-18.8 6.4) rotate(-6)"/>
            <ellipse class="cls-4" cx="60.7" cy="181.5" rx="4.6" ry="4.7" transform="translate(-18.6 7.3) rotate(-6)"/>
            <ellipse class="cls-4" cx="70" cy="180.5" rx="4.7" ry="4.7" transform="translate(-18.5 8.3) rotate(-6)"/>
            <ellipse class="cls-4" cx="79.2" cy="179.6" rx="4.7" ry="4.7" transform="translate(-18.3 9.3) rotate(-6)"/>
            <ellipse class="cls-4" cx="88.5" cy="178.6" rx="4.7" ry="4.7" transform="translate(-18.2 10.2) rotate(-6)"/>
            <ellipse class="cls-4" cx="97.7" cy="177.6" rx="4.7" ry="4.7" transform="translate(-18 11.2) rotate(-6)"/>
            <ellipse class="cls-4" cx="107" cy="176.7" rx="4.7" ry="4.7" transform="translate(-17.9 12.1) rotate(-6)"/>
            <ellipse class="cls-4" cx="116.2" cy="175.7" rx="4.7" ry="4.7" transform="translate(-17.7 13.1) rotate(-6)"/>
            <ellipse class="cls-4" cx="125.5" cy="174.7" rx="4.7" ry="4.7" transform="translate(-17.6 14.1) rotate(-6)"/>
            <ellipse class="cls-4" cx="134.7" cy="173.7" rx="4.6" ry="4.7" transform="translate(-17.4 15) rotate(-6)"/>
            <ellipse class="cls-4" cx="144" cy="172.8" rx="4.6" ry="4.7" transform="translate(-17.3 16) rotate(-6)"/>
            <ellipse class="cls-4" cx="153.2" cy="171.8" rx="4.6" ry="4.7" transform="translate(-17.1 17) rotate(-6)"/>
            <ellipse class="cls-4" cx="162.4" cy="170.8" rx="4.6" ry="4.7" transform="translate(-17 17.9) rotate(-6)"/>
            <ellipse class="cls-4" cx="171.7" cy="169.9" rx="4.6" ry="4.7" transform="translate(-16.8 18.9) rotate(-6)"/>
            <ellipse class="cls-4" cx="180.9" cy="168.9" rx="4.6" ry="4.7" transform="translate(-16.7 19.8) rotate(-6)"/>
            <ellipse class="cls-4" cx="50.5" cy="173.1" rx="4.7" ry="4.7" transform="translate(-17.8 6.2) rotate(-6)"/>
            <ellipse class="cls-4" cx="59.8" cy="172.1" rx="4.6" ry="4.7" transform="translate(-17.7 7.2) rotate(-6)"/>
            <ellipse class="cls-4" cx="69" cy="171.2" rx="4.7" ry="4.7" transform="translate(-17.5 8.2) rotate(-6)"/>
            <ellipse class="cls-4" cx="78.3" cy="170.2" rx="4.7" ry="4.7" transform="translate(-17.4 9.1) rotate(-6)"/>
            <ellipse class="cls-4" cx="87.5" cy="169.2" rx="4.7" ry="4.7" transform="translate(-17.2 10.1) rotate(-6)"/>
            <ellipse class="cls-4" cx="96.7" cy="168.2" rx="4.7" ry="4.7" transform="translate(-17.1 11) rotate(-6)"/>
            <ellipse class="cls-4" cx="106" cy="167.3" rx="4.7" ry="4.7" transform="translate(-16.9 12) rotate(-6)"/>
            <ellipse class="cls-4" cx="115.2" cy="166.3" rx="4.7" ry="4.7" transform="translate(-16.8 13) rotate(-6)"/>
            <ellipse class="cls-4" cx="124.5" cy="165.3" rx="4.6" ry="4.7" transform="translate(-16.6 13.9) rotate(-6)"/>
            <ellipse class="cls-4" cx="133.7" cy="164.4" rx="4.6" ry="4.7" transform="translate(-16.4 14.9) rotate(-6)"/>
            <ellipse class="cls-4" cx="143" cy="163.4" rx="4.6" ry="4.7" transform="translate(-16.3 15.8) rotate(-6)"/>
            <ellipse class="cls-4" cx="152.2" cy="162.4" rx="4.6" ry="4.7" transform="translate(-16.1 16.8) rotate(-6)"/>
            <ellipse class="cls-4" cx="161.5" cy="161.4" rx="4.6" ry="4.7" transform="translate(-16 17.8) rotate(-6)"/>
            <ellipse class="cls-4" cx="170.7" cy="160.5" rx="4.6" ry="4.7" transform="translate(-15.8 18.7) rotate(-6)"/>
            <ellipse class="cls-4" cx="179.9" cy="159.5" rx="4.6" ry="4.7" transform="translate(-15.7 19.7) rotate(-6)"/>
            <ellipse class="cls-4" cx="49.5" cy="163.7" rx="4.7" ry="4.7" transform="translate(-16.8 6.1) rotate(-6)"/>
            <ellipse class="cls-4" cx="58.8" cy="162.7" rx="4.7" ry="4.7" transform="translate(-16.7 7) rotate(-6)"/>
            <ellipse class="cls-4" cx="68" cy="161.8" rx="4.7" ry="4.7" transform="translate(-16.5 8) rotate(-6)"/>
            <ellipse class="cls-4" cx="77.3" cy="160.8" rx="4.7" ry="4.7" transform="translate(-16.4 9) rotate(-6)"/>
            <ellipse class="cls-4" cx="86.5" cy="159.8" rx="4.7" ry="4.7" transform="translate(-16.2 9.9) rotate(-6)"/>
            <ellipse class="cls-4" cx="95.8" cy="158.9" rx="4.7" ry="4.7" transform="translate(-16.1 10.9) rotate(-6)"/>
            <ellipse class="cls-4" cx="105" cy="157.9" rx="4.7" ry="4.7" transform="translate(-15.9 11.8) rotate(-6)"/>
            <ellipse class="cls-4" cx="114.2" cy="156.9" rx="4.7" ry="4.7" transform="translate(-15.8 12.8) rotate(-6)"/>
            <ellipse class="cls-4" cx="123.5" cy="155.9" rx="4.7" ry="4.7" transform="translate(-15.6 13.8) rotate(-6)"/>
            <ellipse class="cls-4" cx="132.7" cy="155" rx="4.6" ry="4.7" transform="translate(-15.5 14.7) rotate(-6)"/>
            <ellipse class="cls-4" cx="142" cy="154" rx="4.6" ry="4.7" transform="translate(-15.3 15.7) rotate(-6)"/>
            <ellipse class="cls-4" cx="151.2" cy="153" rx="4.6" ry="4.7" transform="translate(-15.2 16.6) rotate(-6)"/>
            <ellipse class="cls-4" cx="160.5" cy="152.1" rx="4.6" ry="4.7" transform="translate(-15 17.6) rotate(-6)"/>
            <ellipse class="cls-4" cx="169.7" cy="151.1" rx="4.6" ry="4.7" transform="translate(-14.9 18.6) rotate(-6)"/>
            <ellipse class="cls-4" cx="179" cy="150.1" rx="4.6" ry="4.7" transform="translate(-14.7 19.5) rotate(-6)"/>
            <ellipse class="cls-4" cx="48.5" cy="154.3" rx="4.7" ry="4.7" transform="translate(-15.9 5.9) rotate(-6)"/>
            <ellipse class="cls-4" cx="57.8" cy="153.4" rx="4.7" ry="4.7" transform="translate(-15.7 6.9) rotate(-6)"/>
            <ellipse class="cls-4" cx="67" cy="152.4" rx="4.7" ry="4.7" transform="translate(-15.6 7.8) rotate(-6)"/>
            <ellipse class="cls-4" cx="76.3" cy="151.4" rx="4.7" ry="4.7" transform="translate(-15.4 8.8) rotate(-6)"/>
            <ellipse class="cls-4" cx="85.5" cy="150.4" rx="4.7" ry="4.7" transform="translate(-15.3 9.8) rotate(-6)"/>
            <ellipse class="cls-4" cx="94.8" cy="149.5" rx="4.7" ry="4.7" transform="translate(-15.1 10.7) rotate(-6)"/>
            <ellipse class="cls-4" cx="104" cy="148.5" rx="4.7" ry="4.7" transform="translate(-15 11.7) rotate(-6)"/>
            <ellipse class="cls-4" cx="113.3" cy="147.5" rx="4.7" ry="4.7" transform="translate(-14.8 12.6) rotate(-6)"/>
            <ellipse class="cls-4" cx="122.5" cy="146.6" rx="4.7" ry="4.7" transform="translate(-14.6 13.6) rotate(-6)"/>
            <ellipse class="cls-4" cx="131.7" cy="145.6" rx="4.6" ry="4.7" transform="translate(-14.5 14.6) rotate(-6)"/>
            <ellipse class="cls-4" cx="141" cy="144.6" rx="4.6" ry="4.7" transform="translate(-14.3 15.5) rotate(-6)"/>
            <ellipse class="cls-4" cx="150.2" cy="143.6" rx="4.6" ry="4.7" transform="translate(-14.2 16.5) rotate(-6)"/>
            <ellipse class="cls-4" cx="159.5" cy="142.7" rx="4.6" ry="4.7" transform="translate(-14 17.5) rotate(-6)"/>
            <ellipse class="cls-4" cx="168.7" cy="141.7" rx="4.6" ry="4.7" transform="translate(-13.9 18.4) rotate(-6)"/>
            <ellipse class="cls-4" cx="178" cy="140.7" rx="4.6" ry="4.7" transform="translate(-13.7 19.4) rotate(-6)"/>
            <ellipse class="cls-4" cx="47.6" cy="144.9" rx="4.7" ry="4.7" transform="translate(-14.9 5.8) rotate(-6)"/>
            <ellipse class="cls-4" cx="56.8" cy="144" rx="4.7" ry="4.7" transform="translate(-14.7 6.7) rotate(-6)"/>
            <ellipse class="cls-4" cx="66" cy="143" rx="4.7" ry="4.7" transform="translate(-14.6 7.7) rotate(-6)"/>
            <ellipse class="cls-4" cx="75.3" cy="142" rx="4.7" ry="4.7" transform="translate(-14.4 8.6) rotate(-6)"/>
            <ellipse class="cls-4" cx="84.5" cy="141.1" rx="4.7" ry="4.7" transform="translate(-14.3 9.6) rotate(-6)"/>
            <ellipse class="cls-4" cx="93.8" cy="140.1" rx="4.7" ry="4.7" transform="translate(-14.1 10.6) rotate(-6)"/>
            <ellipse class="cls-4" cx="103" cy="139.1" rx="4.7" ry="4.7" transform="translate(-14 11.5) rotate(-6)"/>
            <ellipse class="cls-4" cx="112.3" cy="138.1" rx="4.7" ry="4.7" transform="translate(-13.8 12.5) rotate(-6)"/>
            <ellipse class="cls-4" cx="121.5" cy="137.2" rx="4.7" ry="4.7" transform="translate(-13.7 13.5) rotate(-6)"/>
            <ellipse class="cls-4" cx="130.8" cy="136.2" rx="4.6" ry="4.7" transform="translate(-13.5 14.4) rotate(-6)"/>
            <ellipse class="cls-4" cx="140" cy="135.2" rx="4.6" ry="4.7" transform="translate(-13.4 15.4) rotate(-6)"/>
            <ellipse class="cls-4" cx="149.2" cy="134.3" rx="4.6" ry="4.7" transform="translate(-13.2 16.3) rotate(-6)"/>
            <ellipse class="cls-4" cx="158.5" cy="133.3" rx="4.6" ry="4.7" transform="translate(-13.1 17.3) rotate(-6)"/>
            <ellipse class="cls-4" cx="167.7" cy="132.3" rx="4.6" ry="4.7" transform="translate(-12.9 18.3) rotate(-6)"/>
            <ellipse class="cls-4" cx="177" cy="131.3" rx="4.6" ry="4.7" transform="translate(-12.8 19.2) rotate(-6)"/>
            <ellipse class="cls-4" cx="46.6" cy="135.6" rx="4.7" ry="4.7" transform="translate(-13.9 5.6) rotate(-6)"/>
            <ellipse class="cls-4" cx="55.8" cy="134.6" rx="4.7" ry="4.7" transform="translate(-13.8 6.6) rotate(-6)"/>
            <ellipse class="cls-4" cx="65.1" cy="133.6" rx="4.7" ry="4.7" transform="translate(-13.6 7.5) rotate(-6)"/>
            <ellipse class="cls-4" cx="74.3" cy="132.6" rx="4.7" ry="4.7" transform="translate(-13.5 8.5) rotate(-6)"/>
            <ellipse class="cls-4" cx="83.5" cy="131.7" rx="4.7" ry="4.7" transform="translate(-13.3 9.5) rotate(-6)"/>
            <ellipse class="cls-4" cx="92.8" cy="130.7" rx="4.7" ry="4.7" transform="translate(-13.2 10.4) rotate(-6)"/>
            <ellipse class="cls-4" cx="102" cy="129.7" rx="4.7" ry="4.7" transform="translate(-13 11.4) rotate(-6)"/>
            <ellipse class="cls-4" cx="111.3" cy="128.8" rx="4.7" ry="4.7" transform="translate(-12.8 12.3) rotate(-6)"/>
            <ellipse class="cls-4" cx="120.5" cy="127.8" rx="4.7" ry="4.7" transform="translate(-12.7 13.3) rotate(-6)"/>
            <ellipse class="cls-4" cx="129.8" cy="126.8" rx="4.6" ry="4.7" transform="translate(-12.5 14.3) rotate(-6)"/>
            <ellipse class="cls-4" cx="139" cy="125.8" rx="4.6" ry="4.7" transform="translate(-12.4 15.2) rotate(-6)"/>
            <ellipse class="cls-4" cx="148.3" cy="124.9" rx="4.6" ry="4.7" transform="translate(-12.2 16.2) rotate(-6)"/>
            <ellipse class="cls-4" cx="157.5" cy="123.9" rx="4.6" ry="4.7" transform="translate(-12.1 17.1) rotate(-6)"/>
            <ellipse class="cls-4" cx="166.7" cy="122.9" rx="4.6" ry="4.7" transform="translate(-11.9 18.1) rotate(-6)"/>
            <ellipse class="cls-4" cx="176" cy="122" rx="4.6" ry="4.7" transform="translate(-11.8 19.1) rotate(-6)"/>
            <ellipse class="cls-4" cx="45.6" cy="126.2" rx="4.7" ry="4.7" transform="translate(-12.9 5.5) rotate(-6)"/>
            <ellipse class="cls-4" cx="54.8" cy="125.2" rx="4.7" ry="4.7" transform="translate(-12.8 6.4) rotate(-6)"/>
            <ellipse class="cls-4" cx="64.1" cy="124.2" rx="4.7" ry="4.7" transform="translate(-12.6 7.4) rotate(-6)"/>
            <ellipse class="cls-4" cx="73.3" cy="123.3" rx="4.7" ry="4.7" transform="translate(-12.5 8.3) rotate(-6)"/>
            <ellipse class="cls-4" cx="82.6" cy="122.3" rx="4.7" ry="4.7" transform="translate(-12.3 9.3) rotate(-6)"/>
            <ellipse class="cls-4" cx="91.8" cy="121.3" rx="4.7" ry="4.7" transform="translate(-12.2 10.3) rotate(-6)"/>
            <ellipse class="cls-4" cx="101" cy="120.3" rx="4.7" ry="4.7" transform="translate(-12 11.2) rotate(-6)"/>
            <ellipse class="cls-4" cx="110.3" cy="119.4" rx="4.7" ry="4.7" transform="translate(-11.9 12.2) rotate(-6)"/>
            <ellipse class="cls-4" cx="119.5" cy="118.4" rx="4.7" ry="4.7" transform="translate(-11.7 13.1) rotate(-6)"/>
            <ellipse class="cls-4" cx="128.8" cy="117.4" rx="4.6" ry="4.7" transform="translate(-11.6 14.1) rotate(-6)"/>
            <ellipse class="cls-4" cx="138" cy="116.5" rx="4.6" ry="4.7" transform="translate(-11.4 15.1) rotate(-6)"/>
            <ellipse class="cls-4" cx="147.3" cy="115.5" rx="4.6" ry="4.7" transform="translate(-11.3 16) rotate(-6)"/>
            <ellipse class="cls-4" cx="156.5" cy="114.5" rx="4.6" ry="4.7" transform="translate(-11.1 17) rotate(-6)"/>
            <ellipse class="cls-4" cx="165.8" cy="113.5" rx="4.6" ry="4.7" transform="translate(-11 17.9) rotate(-6)"/>
            <ellipse class="cls-4" cx="175" cy="112.6" rx="4.6" ry="4.7" transform="translate(-10.8 18.9) rotate(-6)"/>
            <ellipse class="cls-4" cx="44.6" cy="116.8" rx="4.7" ry="4.7" transform="translate(-12 5.3) rotate(-6)"/>
            <ellipse class="cls-4" cx="53.8" cy="115.8" rx="4.7" ry="4.7" transform="translate(-11.8 6.3) rotate(-6)"/>
            <ellipse class="cls-4" cx="63.1" cy="114.8" rx="4.7" ry="4.7" transform="translate(-11.7 7.2) rotate(-6)"/>
            <ellipse class="cls-4" cx="72.3" cy="113.9" rx="4.7" ry="4.7" transform="translate(-11.5 8.2) rotate(-6)"/>
            <ellipse class="cls-4" cx="81.6" cy="112.9" rx="4.7" ry="4.7" transform="translate(-11.4 9.1) rotate(-6)"/>
            <ellipse class="cls-4" cx="90.8" cy="111.9" rx="4.7" ry="4.7" transform="translate(-11.2 10.1) rotate(-6)"/>
            <ellipse class="cls-4" cx="100.1" cy="111" rx="4.7" ry="4.7" transform="translate(-11.1 11.1) rotate(-6)"/>
            <ellipse class="cls-4" cx="109.3" cy="110" rx="4.7" ry="4.7" transform="translate(-10.9 12) rotate(-6)"/>
            <ellipse class="cls-4" cx="118.5" cy="109" rx="4.7" ry="4.7" transform="translate(-10.7 13) rotate(-6)"/>
            <ellipse class="cls-4" cx="127.8" cy="108" rx="4.6" ry="4.7" transform="translate(-10.6 13.9) rotate(-6)"/>
            <ellipse class="cls-4" cx="137" cy="107.1" rx="4.6" ry="4.7" transform="translate(-10.4 14.9) rotate(-6)"/>
            <ellipse class="cls-4" cx="146.3" cy="106.1" rx="4.6" ry="4.7" transform="translate(-10.3 15.9) rotate(-6)"/>
            <ellipse class="cls-4" cx="155.5" cy="105.1" rx="4.6" ry="4.7" transform="translate(-10.1 16.8) rotate(-6)"/>
            <ellipse class="cls-4" cx="164.8" cy="104.2" rx="4.6" ry="4.7" transform="translate(-10 17.8) rotate(-6)"/>
            <ellipse class="cls-4" cx="174" cy="103.2" rx="4.6" ry="4.7" transform="translate(-9.8 18.8) rotate(-6)"/>
            <ellipse class="cls-4" cx="43.6" cy="107.4" rx="4.7" ry="4.7" transform="translate(-11 5.1) rotate(-6)"/>
            <ellipse class="cls-4" cx="52.9" cy="106.4" rx="4.7" ry="4.7" transform="translate(-10.8 6.1) rotate(-6)"/>
            <ellipse class="cls-4" cx="62.1" cy="105.5" rx="4.6" ry="4.7" transform="translate(-10.7 7.1) rotate(-6)"/>
            <ellipse class="cls-4" cx="71.3" cy="104.5" rx="4.7" ry="4.7" transform="translate(-10.5 8) rotate(-6)"/>
            <ellipse class="cls-4" cx="80.6" cy="103.5" rx="4.7" ry="4.7" transform="translate(-10.4 9) rotate(-6)"/>
            <ellipse class="cls-4" cx="89.8" cy="102.5" rx="4.7" ry="4.7" transform="translate(-10.2 10) rotate(-6)"/>
            <ellipse class="cls-4" cx="99.1" cy="101.6" rx="4.7" ry="4.7" transform="translate(-10.1 10.9) rotate(-6)"/>
            <ellipse class="cls-4" cx="108.3" cy="100.6" rx="4.7" ry="4.7" transform="translate(-9.9 11.9) rotate(-6)"/>
            <ellipse class="cls-4" cx="117.6" cy="99.6" rx="4.7" ry="4.7" transform="translate(-9.8 12.8) rotate(-6)"/>
            <ellipse class="cls-4" cx="126.8" cy="98.7" rx="4.6" ry="4.7" transform="translate(-9.6 13.8) rotate(-6)"/>
            <ellipse class="cls-4" cx="136.1" cy="97.7" rx="4.6" ry="4.7" transform="translate(-9.5 14.8) rotate(-6)"/>
            <ellipse class="cls-4" cx="145.3" cy="96.7" rx="4.6" ry="4.7" transform="translate(-9.3 15.7) rotate(-6)"/>
            <ellipse class="cls-4" cx="154.5" cy="95.7" rx="4.6" ry="4.7" transform="translate(-9.2 16.7) rotate(-6)"/>
            <ellipse class="cls-4" cx="163.8" cy="94.8" rx="4.6" ry="4.7" transform="translate(-9 17.6) rotate(-6)"/>
            <ellipse class="cls-4" cx="173" cy="93.8" rx="4.6" ry="4.7" transform="translate(-8.9 18.6) rotate(-6)"/>
            <ellipse class="cls-4" cx="42.6" cy="98" rx="4.7" ry="4.7" transform="translate(-10 5) rotate(-6)"/>
            <ellipse class="cls-4" cx="51.9" cy="97" rx="4.7" ry="4.7" transform="translate(-9.9 6) rotate(-6)"/>
            <ellipse class="cls-4" cx="61.1" cy="96.1" rx="4.7" ry="4.7" transform="translate(-9.7 6.9) rotate(-6)"/>
            <ellipse class="cls-4" cx="70.4" cy="95.1" rx="4.7" ry="4.7" transform="translate(-9.6 7.9) rotate(-6)"/>
            <ellipse class="cls-4" cx="79.6" cy="94.1" rx="4.7" ry="4.7" transform="translate(-9.4 8.8) rotate(-6)"/>
            <ellipse class="cls-4" cx="88.8" cy="93.2" rx="4.7" ry="4.7" transform="translate(-9.3 9.8) rotate(-6)"/>
            <ellipse class="cls-4" cx="98.1" cy="92.2" rx="4.7" ry="4.7" transform="translate(-9.1 10.8) rotate(-6)"/>
            <ellipse class="cls-4" cx="107.3" cy="91.2" rx="4.7" ry="4.7" transform="translate(-8.9 11.7) rotate(-6)"/>
            <ellipse class="cls-4" cx="116.6" cy="90.2" rx="4.7" ry="4.7" transform="translate(-8.8 12.7) rotate(-6)"/>
            <ellipse class="cls-4" cx="125.8" cy="89.3" rx="4.7" ry="4.7" transform="translate(-8.6 13.6) rotate(-6)"/>
            <ellipse class="cls-4" cx="135.1" cy="88.3" rx="4.6" ry="4.7" transform="translate(-8.5 14.6) rotate(-6)"/>
            <ellipse class="cls-4" cx="144.3" cy="87.3" rx="4.6" ry="4.7" transform="translate(-8.3 15.6) rotate(-6)"/>
            <ellipse class="cls-4" cx="153.6" cy="86.3" rx="4.6" ry="4.7" transform="translate(-8.2 16.5) rotate(-6)"/>
            <ellipse class="cls-4" cx="162.8" cy="85.4" rx="4.6" ry="4.7" transform="translate(-8 17.5) rotate(-6)"/>
            <ellipse class="cls-4" cx="172.1" cy="84.4" rx="4.6" ry="4.7" transform="translate(-7.9 18.4) rotate(-6)"/>
            <ellipse class="cls-4" cx="41.6" cy="88.6" rx="4.7" ry="4.7" transform="translate(-9 4.8) rotate(-6)"/>
            <ellipse class="cls-4" cx="50.9" cy="87.7" rx="4.7" ry="4.7" transform="translate(-8.9 5.8) rotate(-6)"/>
            <ellipse class="cls-4" cx="60.1" cy="86.7" rx="4.6" ry="4.7" transform="translate(-8.7 6.8) rotate(-6)"/>
            <ellipse class="cls-4" cx="69.4" cy="85.7" rx="4.7" ry="4.7" transform="translate(-8.6 7.7) rotate(-6)"/>
            <ellipse class="cls-4" cx="78.6" cy="84.7" rx="4.7" ry="4.7" transform="translate(-8.4 8.7) rotate(-6)"/>
            <ellipse class="cls-4" cx="87.9" cy="83.8" rx="4.7" ry="4.7" transform="translate(-8.3 9.6) rotate(-6)"/>
            <ellipse class="cls-4" cx="97.1" cy="82.8" rx="4.7" ry="4.7" transform="translate(-8.1 10.6) rotate(-6)"/>
            <ellipse class="cls-4" cx="106.4" cy="81.8" rx="4.7" ry="4.7" transform="translate(-8 11.6) rotate(-6)"/>
            <ellipse class="cls-4" cx="115.6" cy="80.8" rx="4.7" ry="4.7" transform="translate(-7.8 12.5) rotate(-6)"/>
            <ellipse class="cls-4" cx="124.8" cy="79.9" rx="4.6" ry="4.7" transform="translate(-7.7 13.5) rotate(-6)"/>
            <ellipse class="cls-4" cx="134.1" cy="78.9" rx="4.6" ry="4.7" transform="translate(-7.5 14.4) rotate(-6)"/>
            <ellipse class="cls-4" cx="143.3" cy="77.9" rx="4.6" ry="4.7" transform="translate(-7.4 15.4) rotate(-6)"/>
            <ellipse class="cls-4" cx="152.6" cy="77" rx="4.6" ry="4.7" transform="translate(-7.2 16.4) rotate(-6)"/>
            <ellipse class="cls-4" cx="161.8" cy="76" rx="4.6" ry="4.7" transform="translate(-7.1 17.3) rotate(-6)"/>
            <ellipse class="cls-4" cx="171.1" cy="75" rx="4.6" ry="4.7" transform="translate(-6.9 18.3) rotate(-6)"/>
            <ellipse class="cls-4" cx="40.7" cy="79.2" rx="4.7" ry="4.7" transform="translate(-8.1 4.7) rotate(-6)"/>
            <ellipse class="cls-4" cx="49.9" cy="78.3" rx="4.7" ry="4.7" transform="translate(-7.9 5.6) rotate(-6)"/>
            <ellipse class="cls-4" cx="59.1" cy="77.3" rx="4.7" ry="4.7" transform="translate(-7.8 6.6) rotate(-6)"/>
            <ellipse class="cls-4" cx="68.4" cy="76.3" rx="4.7" ry="4.7" transform="translate(-7.6 7.6) rotate(-6)"/>
            <ellipse class="cls-4" cx="77.6" cy="75.4" rx="4.7" ry="4.7" transform="translate(-7.5 8.5) rotate(-6)"/>
            <ellipse class="cls-4" cx="86.9" cy="74.4" rx="4.7" ry="4.7" transform="translate(-7.3 9.5) rotate(-6)"/>
            <ellipse class="cls-4" cx="96.1" cy="73.4" rx="4.7" ry="4.7" transform="translate(-7.1 10.4) rotate(-6)"/>
            <ellipse class="cls-4" cx="105.4" cy="72.4" rx="4.7" ry="4.7" transform="translate(-7 11.4) rotate(-6)"/>
            <ellipse class="cls-4" cx="114.6" cy="71.5" rx="4.7" ry="4.7" transform="translate(-6.8 12.4) rotate(-6)"/>
            <ellipse class="cls-4" cx="123.9" cy="70.5" rx="4.7" ry="4.7" transform="translate(-6.7 13.3) rotate(-6)"/>
            <ellipse class="cls-4" cx="133.1" cy="69.5" rx="4.6" ry="4.7" transform="translate(-6.5 14.3) rotate(-6)"/>
            <ellipse class="cls-4" cx="142.3" cy="68.5" rx="4.6" ry="4.7" transform="translate(-6.4 15.3) rotate(-6)"/>
            <ellipse class="cls-4" cx="151.6" cy="67.6" rx="4.6" ry="4.7" transform="translate(-6.2 16.2) rotate(-6)"/>
            <ellipse class="cls-4" cx="160.8" cy="66.6" rx="4.6" ry="4.7" transform="translate(-6.1 17.2) rotate(-6)"/>
            <ellipse class="cls-4" cx="170.1" cy="65.6" rx="4.6" ry="4.7" transform="translate(-5.9 18.1) rotate(-6)"/>
          </g>
          <ellipse class="cls-4" cx="192.4" cy="186.7" rx="4.6" ry="4.7" transform="translate(-18.5 21.1) rotate(-6)"/>
          <ellipse class="cls-4" cx="201.6" cy="185.7" rx="4.6" ry="4.7" transform="translate(-18.3 22.1) rotate(-6)"/>
          <ellipse class="cls-4" cx="210.9" cy="184.7" rx="4.6" ry="4.7" transform="translate(-18.2 23.1) rotate(-6)"/>
          <ellipse class="cls-4" cx="220.1" cy="183.8" rx="4.6" ry="4.7" transform="translate(-18 24) rotate(-6)"/>
          <ellipse class="cls-4" cx="229.4" cy="182.8" rx="4.6" ry="4.7" transform="translate(-17.8 25) rotate(-6)"/>
          <ellipse class="cls-4" cx="238.6" cy="181.8" rx="4.6" ry="4.7" transform="translate(-17.7 25.9) rotate(-6)"/>
          <ellipse class="cls-4" cx="191.4" cy="177.3" rx="4.6" ry="4.7" transform="translate(-17.5 21) rotate(-6)"/>
          <ellipse class="cls-4" cx="200.7" cy="176.3" rx="4.6" ry="4.7" transform="translate(-17.3 21.9) rotate(-6)"/>
          <ellipse class="cls-4" cx="209.9" cy="175.3" rx="4.6" ry="4.7" transform="translate(-17.2 22.9) rotate(-6)"/>
          <ellipse class="cls-4" cx="219.2" cy="174.4" rx="4.6" ry="4.7" transform="translate(-17 23.9) rotate(-6)"/>
          <ellipse class="cls-4" cx="228.4" cy="173.4" rx="4.6" ry="4.7" transform="translate(-16.9 24.8) rotate(-6)"/>
          <ellipse class="cls-4" cx="237.6" cy="172.4" rx="4.6" ry="4.7" transform="translate(-16.7 25.8) rotate(-6)"/>
          <ellipse class="cls-4" cx="190.4" cy="167.9" rx="4.6" ry="4.7" transform="translate(-16.5 20.8) rotate(-6)"/>
          <ellipse class="cls-4" cx="199.7" cy="166.9" rx="4.6" ry="4.7" transform="translate(-16.4 21.8) rotate(-6)"/>
          <ellipse class="cls-4" cx="208.9" cy="166" rx="4.6" ry="4.7" transform="translate(-16.2 22.7) rotate(-6)"/>
          <ellipse class="cls-4" cx="218.2" cy="165" rx="4.6" ry="4.7" transform="translate(-16.1 23.7) rotate(-6)"/>
          <ellipse class="cls-4" cx="227.4" cy="164" rx="4.6" ry="4.7" transform="translate(-15.9 24.7) rotate(-6)"/>
          <ellipse class="cls-4" cx="236.7" cy="163" rx="4.6" ry="4.7" transform="translate(-15.7 25.6) rotate(-6)"/>
          <ellipse class="cls-4" cx="189.4" cy="158.5" rx="4.6" ry="4.7" transform="translate(-15.5 20.7) rotate(-6)"/>
          <ellipse class="cls-4" cx="198.7" cy="157.5" rx="4.6" ry="4.7" transform="translate(-15.4 21.6) rotate(-6)"/>
          <ellipse class="cls-4" cx="207.9" cy="156.6" rx="4.6" ry="4.7" transform="translate(-15.2 22.6) rotate(-6)"/>
          <ellipse class="cls-4" cx="217.2" cy="155.6" rx="4.6" ry="4.7" transform="translate(-15.1 23.6) rotate(-6)"/>
          <ellipse class="cls-4" cx="226.4" cy="154.6" rx="4.6" ry="4.7" transform="translate(-14.9 24.5) rotate(-6)"/>
          <ellipse class="cls-4" cx="235.7" cy="153.6" rx="4.6" ry="4.7" transform="translate(-14.8 25.5) rotate(-6)"/>
          <ellipse class="cls-4" cx="188.5" cy="149.1" rx="4.6" ry="4.7" transform="translate(-14.6 20.5) rotate(-6)"/>
          <ellipse class="cls-4" cx="197.7" cy="148.2" rx="4.6" ry="4.7" transform="translate(-14.4 21.5) rotate(-6)"/>
          <ellipse class="cls-4" cx="206.9" cy="147.2" rx="4.6" ry="4.7" transform="translate(-14.3 22.4) rotate(-6)"/>
          <ellipse class="cls-4" cx="216.2" cy="146.2" rx="4.6" ry="4.7" transform="translate(-14.1 23.4) rotate(-6)"/>
          <ellipse class="cls-4" cx="225.4" cy="145.2" rx="4.6" ry="4.7" transform="translate(-13.9 24.4) rotate(-6)"/>
          <ellipse class="cls-4" cx="234.7" cy="144.3" rx="4.6" ry="4.7" transform="translate(-13.8 25.3) rotate(-6)"/>
          <ellipse class="cls-4" cx="187.5" cy="139.7" rx="4.6" ry="4.7" transform="translate(-13.6 20.4) rotate(-6)"/>
          <ellipse class="cls-4" cx="196.7" cy="138.8" rx="4.6" ry="4.7" transform="translate(-13.4 21.3) rotate(-6)"/>
          <ellipse class="cls-4" cx="206" cy="137.8" rx="4.6" ry="4.7" transform="translate(-13.3 22.3) rotate(-6)"/>
          <ellipse class="cls-4" cx="215.2" cy="136.8" rx="4.6" ry="4.7" transform="translate(-13.1 23.2) rotate(-6)"/>
          <ellipse class="cls-4" cx="224.5" cy="135.8" rx="4.6" ry="4.7" transform="translate(-13 24.2) rotate(-6)"/>
          <ellipse class="cls-4" cx="233.7" cy="134.9" rx="4.6" ry="4.7" transform="translate(-12.8 25.2) rotate(-6)"/>
          <ellipse class="cls-4" cx="186.5" cy="130.4" rx="4.6" ry="4.7" transform="translate(-12.6 20.2) rotate(-6)"/>
          <ellipse class="cls-4" cx="195.7" cy="129.4" rx="4.6" ry="4.7" transform="translate(-12.5 21.2) rotate(-6)"/>
          <ellipse class="cls-4" cx="205" cy="128.4" rx="4.6" ry="4.7" transform="translate(-12.3 22.1) rotate(-6)"/>
          <ellipse class="cls-4" cx="214.2" cy="127.4" rx="4.6" ry="4.7" transform="translate(-12.1 23.1) rotate(-6)"/>
          <ellipse class="cls-4" cx="223.5" cy="126.5" rx="4.6" ry="4.7" transform="translate(-12 24.1) rotate(-6)"/>
          <ellipse class="cls-4" cx="232.7" cy="125.5" rx="4.6" ry="4.7" transform="translate(-11.8 25) rotate(-6)"/>
          <ellipse class="cls-4" cx="185.5" cy="121" rx="4.6" ry="4.7" transform="translate(-11.6 20.1) rotate(-6)"/>
          <ellipse class="cls-4" cx="194.7" cy="120" rx="4.6" ry="4.7" transform="translate(-11.5 21) rotate(-6)"/>
          <ellipse class="cls-4" cx="204" cy="119" rx="4.6" ry="4.7" transform="translate(-11.3 22) rotate(-6)"/>
          <ellipse class="cls-4" cx="213.2" cy="118" rx="4.6" ry="4.7" transform="translate(-11.2 22.9) rotate(-6)"/>
          <ellipse class="cls-4" cx="222.5" cy="117.1" rx="4.6" ry="4.7" transform="translate(-11 23.9) rotate(-6)"/>
          <ellipse class="cls-4" cx="231.7" cy="116.1" rx="4.6" ry="4.7" transform="translate(-10.9 24.9) rotate(-6)"/>
          <ellipse class="cls-4" cx="184.5" cy="111.6" rx="4.6" ry="4.7" transform="translate(-10.7 19.9) rotate(-6)"/>
          <ellipse class="cls-4" cx="193.7" cy="110.6" rx="4.6" ry="4.7" transform="translate(-10.5 20.9) rotate(-6)"/>
          <ellipse class="cls-4" cx="203" cy="109.6" rx="4.6" ry="4.7" transform="translate(-10.3 21.8) rotate(-6)"/>
          <ellipse class="cls-4" cx="212.2" cy="108.7" rx="4.6" ry="4.7" transform="translate(-10.2 22.8) rotate(-6)"/>
          <ellipse class="cls-4" cx="221.5" cy="107.7" rx="4.6" ry="4.7" transform="translate(-10 23.7) rotate(-6)"/>
          <ellipse class="cls-4" cx="230.7" cy="106.7" rx="4.6" ry="4.7" transform="translate(-9.9 24.7) rotate(-6)"/>
          <ellipse class="cls-4" cx="183.5" cy="102.2" rx="4.6" ry="4.7" transform="translate(-9.7 19.7) rotate(-6)"/>
          <ellipse class="cls-4" cx="192.8" cy="101.2" rx="4.6" ry="4.7" transform="translate(-9.5 20.7) rotate(-6)"/>
          <ellipse class="cls-4" cx="202" cy="100.2" rx="4.6" ry="4.7" transform="translate(-9.4 21.7) rotate(-6)"/>
          <ellipse class="cls-4" cx="211.3" cy="99.3" rx="4.6" ry="4.7" transform="translate(-9.2 22.6) rotate(-6)"/>
          <ellipse class="cls-4" cx="220.5" cy="98.3" rx="4.6" ry="4.7" transform="translate(-9.1 23.6) rotate(-6)"/>
          <ellipse class="cls-4" cx="229.8" cy="97.3" rx="4.6" ry="4.7" transform="translate(-8.9 24.5) rotate(-6)"/>
          <ellipse class="cls-4" cx="182.5" cy="92.8" rx="4.6" ry="4.7" transform="translate(-8.7 19.6) rotate(-6)"/>
          <ellipse class="cls-4" cx="191.8" cy="91.8" rx="4.6" ry="4.7" transform="translate(-8.5 20.5) rotate(-6)"/>
          <ellipse class="cls-4" cx="201" cy="90.9" rx="4.6" ry="4.7" transform="translate(-8.4 21.5) rotate(-6)"/>
          <ellipse class="cls-4" cx="210.3" cy="89.9" rx="4.6" ry="4.7" transform="translate(-8.2 22.5) rotate(-6)"/>
          <ellipse class="cls-4" cx="219.5" cy="88.9" rx="4.6" ry="4.7" transform="translate(-8.1 23.4) rotate(-6)"/>
          <ellipse class="cls-4" cx="228.8" cy="87.9" rx="4.6" ry="4.7" transform="translate(-7.9 24.4) rotate(-6)"/>
          <ellipse class="cls-4" cx="181.6" cy="83.4" rx="4.6" ry="4.7" transform="translate(-7.7 19.4) rotate(-6)"/>
          <ellipse class="cls-4" cx="190.8" cy="82.4" rx="4.6" ry="4.7" transform="translate(-7.6 20.4) rotate(-6)"/>
          <ellipse class="cls-4" cx="200" cy="81.5" rx="4.6" ry="4.7" transform="translate(-7.4 21.4) rotate(-6)"/>
          <ellipse class="cls-4" cx="209.3" cy="80.5" rx="4.6" ry="4.7" transform="translate(-7.3 22.3) rotate(-6)"/>
          <ellipse class="cls-4" cx="218.5" cy="79.5" rx="4.6" ry="4.7" transform="translate(-7.1 23.3) rotate(-6)"/>
          <ellipse class="cls-4" cx="227.8" cy="78.6" rx="4.6" ry="4.7" transform="translate(-7 24.2) rotate(-6)"/>
          <ellipse class="cls-4" cx="180.6" cy="74" rx="4.6" ry="4.7" transform="translate(-6.7 19.3) rotate(-6)"/>
          <ellipse class="cls-4" cx="189.8" cy="73" rx="4.6" ry="4.7" transform="translate(-6.6 20.2) rotate(-6)"/>
          <ellipse class="cls-4" cx="199.1" cy="72.1" rx="4.6" ry="4.7" transform="translate(-6.4 21.2) rotate(-6)"/>
          <ellipse class="cls-4" cx="208.3" cy="71.1" rx="4.6" ry="4.7" transform="translate(-6.3 22.2) rotate(-6)"/>
          <ellipse class="cls-4" cx="217.5" cy="70.1" rx="4.6" ry="4.7" transform="translate(-6.1 23.1) rotate(-6)"/>
          <ellipse class="cls-4" cx="226.8" cy="69.2" rx="4.6" ry="4.7" transform="translate(-6 24.1) rotate(-6)"/>
          <ellipse class="cls-4" cx="179.6" cy="64.6" rx="4.6" ry="4.7" transform="translate(-5.8 19.1) rotate(-6)"/>
          <ellipse class="cls-4" cx="188.8" cy="63.7" rx="4.6" ry="4.7" transform="translate(-5.6 20.1) rotate(-6)"/>
          <ellipse class="cls-4" cx="198.1" cy="62.7" rx="4.6" ry="4.7" transform="translate(-5.5 21) rotate(-6)"/>
          <ellipse class="cls-4" cx="207.3" cy="61.7" rx="4.6" ry="4.7" transform="translate(-5.3 22) rotate(-6)"/>
          <ellipse class="cls-4" cx="216.6" cy="60.8" rx="4.6" ry="4.7" transform="translate(-5.2 23) rotate(-6)"/>
          <ellipse class="cls-4" cx="225.8" cy="59.8" rx="4.6" ry="4.7" transform="translate(-5 23.9) rotate(-6)"/>
          <g>
            <g>
              <ellipse class="cls-4" cx="39.7" cy="70" rx="4.7" ry="4.7" transform="translate(-7.1 4.5) rotate(-6)"/>
              <ellipse class="cls-4" cx="48.9" cy="69.1" rx="4.7" ry="4.7" transform="translate(-7 5.5) rotate(-6)"/>
              <ellipse class="cls-4" cx="58.2" cy="68.1" rx="4.7" ry="4.7" transform="translate(-6.8 6.5) rotate(-6)"/>
              <ellipse class="cls-4" cx="67.4" cy="67.1" rx="4.7" ry="4.7" transform="translate(-6.6 7.4) rotate(-6)"/>
              <ellipse class="cls-4" cx="76.7" cy="66.1" rx="4.7" ry="4.7" transform="translate(-6.5 8.4) rotate(-6)"/>
              <ellipse class="cls-4" cx="85.9" cy="65.2" rx="4.7" ry="4.7" transform="translate(-6.3 9.3) rotate(-6)"/>
              <ellipse class="cls-4" cx="38.7" cy="60.6" rx="4.7" ry="4.7" transform="translate(-6.1 4.4) rotate(-6)"/>
              <ellipse class="cls-4" cx="47.9" cy="59.7" rx="4.7" ry="4.7" transform="translate(-6 5.3) rotate(-6)"/>
              <ellipse class="cls-4" cx="57.2" cy="58.7" rx="4.7" ry="4.7" transform="translate(-5.8 6.3) rotate(-6)"/>
              <ellipse class="cls-4" cx="66.4" cy="57.7" rx="4.7" ry="4.7" transform="translate(-5.7 7.3) rotate(-6)"/>
              <ellipse class="cls-4" cx="75.7" cy="56.7" rx="4.7" ry="4.7" transform="translate(-5.5 8.2) rotate(-6)"/>
              <ellipse class="cls-4" cx="84.9" cy="55.8" rx="4.7" ry="4.7" transform="translate(-5.4 9.2) rotate(-6)"/>
            </g>
            <g>
              <ellipse class="cls-4" cx="95.1" cy="64.2" rx="4.7" ry="4.7" transform="translate(-6.2 10.3) rotate(-6)"/>
              <ellipse class="cls-4" cx="104.4" cy="63.2" rx="4.7" ry="4.7" transform="translate(-6 11.3) rotate(-6)"/>
              <ellipse class="cls-4" cx="113.6" cy="62.3" rx="4.7" ry="4.7" transform="translate(-5.9 12.2) rotate(-6)"/>
              <ellipse class="cls-4" cx="122.9" cy="61.3" rx="4.7" ry="4.7" transform="translate(-5.7 13.2) rotate(-6)"/>
              <ellipse class="cls-4" cx="132.1" cy="60.3" rx="4.6" ry="4.7" transform="translate(-5.6 14.1) rotate(-6)"/>
              <ellipse class="cls-4" cx="141.4" cy="59.3" rx="4.6" ry="4.7" transform="translate(-5.4 15.1) rotate(-6)"/>
              <ellipse class="cls-4" cx="94.2" cy="54.8" rx="4.7" ry="4.7" transform="translate(-5.2 10.1) rotate(-6)"/>
              <ellipse class="cls-4" cx="103.4" cy="53.8" rx="4.7" ry="4.7" transform="translate(-5.1 11.1) rotate(-6)"/>
              <ellipse class="cls-4" cx="112.6" cy="52.9" rx="4.7" ry="4.7" transform="translate(-4.9 12.1) rotate(-6)"/>
              <ellipse class="cls-4" cx="121.9" cy="51.9" rx="4.7" ry="4.7" transform="translate(-4.8 13) rotate(-6)"/>
              <ellipse class="cls-4" cx="131.1" cy="50.9" rx="4.6" ry="4.7" transform="translate(-4.6 14) rotate(-6)"/>
              <ellipse class="cls-4" cx="140.4" cy="50" rx="4.6" ry="4.7" transform="translate(-4.5 14.9) rotate(-6)"/>
            </g>
          </g>
          <g>
            <ellipse class="cls-4" cx="150.6" cy="58.2" rx="4.6" ry="4.7" transform="translate(-5.3 16.1) rotate(-6)"/>
            <ellipse class="cls-4" cx="159.8" cy="57.2" rx="4.6" ry="4.7" transform="translate(-5.1 17) rotate(-6)"/>
            <ellipse class="cls-4" cx="169.1" cy="56.2" rx="4.6" ry="4.7" transform="translate(-5 18) rotate(-6)"/>
            <ellipse class="cls-4" cx="178.3" cy="55.3" rx="4.6" ry="4.7" transform="translate(-4.8 18.9) rotate(-6)"/>
            <ellipse class="cls-4" cx="187.6" cy="54.3" rx="4.6" ry="4.7" transform="translate(-4.6 19.9) rotate(-6)"/>
            <ellipse class="cls-4" cx="196.8" cy="53.3" rx="4.6" ry="4.7" transform="translate(-4.5 20.9) rotate(-6)"/>
            <ellipse class="cls-4" cx="149.6" cy="48.8" rx="4.6" ry="4.7" transform="translate(-4.3 15.9) rotate(-6)"/>
            <ellipse class="cls-4" cx="158.9" cy="47.8" rx="4.6" ry="4.7" transform="translate(-4.1 16.9) rotate(-6)"/>
            <ellipse class="cls-4" cx="168.1" cy="46.9" rx="4.6" ry="4.7" transform="translate(-4 17.8) rotate(-6)"/>
            <ellipse class="cls-4" cx="177.3" cy="45.9" rx="4.6" ry="4.7" transform="translate(-3.8 18.8) rotate(-6)"/>
            <ellipse class="cls-4" cx="186.6" cy="44.9" rx="4.6" ry="4.7" transform="translate(-3.7 19.8) rotate(-6)"/>
            <ellipse class="cls-4" cx="195.8" cy="43.9" rx="4.6" ry="4.7" transform="translate(-3.5 20.7) rotate(-6)"/>
          </g>
          <ellipse class="cls-4" cx="206.1" cy="52.4" rx="4.6" ry="4.7" transform="translate(-4.3 21.8) rotate(-6)"/>
          <ellipse class="cls-4" cx="215.3" cy="51.4" rx="4.6" ry="4.7" transform="translate(-4.2 22.8) rotate(-6)"/>
          <ellipse class="cls-4" cx="224.6" cy="50.4" rx="4.6" ry="4.7" transform="translate(-4 23.7) rotate(-6)"/>
          <ellipse class="cls-4" cx="205.1" cy="43" rx="4.6" ry="4.7" transform="translate(-3.4 21.7) rotate(-6)"/>
          <ellipse class="cls-4" cx="214.3" cy="42" rx="4.6" ry="4.7" transform="translate(-3.2 22.6) rotate(-6)"/>
          <ellipse class="cls-4" cx="223.6" cy="41" rx="4.6" ry="4.7" transform="translate(-3.1 23.6) rotate(-6)"/>
        </g>
      </g>
    </g>
  </g>
</svg>